<?xml version="1.0" encoding="utf-8"?>
<!-- Generator: Adobe Illustrator 25.1.0, SVG Export Plug-In . SVG Version: 6.00 Build 0)  -->
<svg version="1.1" id="레이어_1" xmlns="http://www.w3.org/2000/svg" xmlns:xlink="http://www.w3.org/1999/xlink" x="0px"
	 y="0px" viewBox="0 0 612 455.17" style="enable-background:new 0 0 612 455.17;" xml:space="preserve">
<style type="text/css">
	.st0{fill:#111111;}
	.st1{fill:#FEFEFE;}
	.st2{fill:#0D0D0D;}
	.st3{fill:#FDFDFD;}
	.st4{fill:#FCFCFC;}
	.st5{fill:#FBFBFB;}
</style>
<g>
	<g>
		<path class="st0" d="M305.88,0.07C406.89,0.07,507.9,0.08,608.9,0c2.59,0,3.1,0.52,3.1,3.1c-0.08,149.63-0.08,299.27-0.01,448.9
			c0,2.45-0.3,3.17-3.02,3.17c-202.01-0.09-404.03-0.08-606.04-0.02c-2.4,0-2.93-0.55-2.92-2.93C0.07,302.49,0.06,152.75,0.01,3
			c0-2.27,0.32-3.01,2.85-3C103.87,0.08,204.88,0.07,305.88,0.07z"/>
		<path class="st1" d="M294.79,254.35c0,9.98-0.08,19.96,0.03,29.94c0.07,6.21,1.06,7.02,7.38,7.05c0.85,0,1.71,0.1,2.55-0.02
			c1.62-0.24,2.01,0.47,1.89,1.96c-0.1,1.28,0.21,2.42-1.86,2.41c-10.62-0.06-21.23,0-31.85,0.11c-1.86,0.02-1.97-0.8-2-2.31
			c-0.03-1.61,0.3-2.44,2.05-2.15c0.1,0.02,0.21,0,0.32,0c8.69,0.31,9.64-0.05,9.61-9.97c-0.02-8.17-0.17-16.35-0.16-24.52
			c0-1.59-0.18-2.16-2.05-2.13c-11.36,0.18-22.72,0.22-34.08,0.18c-1.78-0.01-2.03,0.58-2.01,2.15c0.11,9.87,0.1,19.75,0.18,29.62
			c0.03,3.39,1.43,4.66,4.91,4.69c1.49,0.01,2.97,0.04,4.46-0.02c1.59-0.07,2.77-0.14,2.78,2.2c0.01,2.27-1.04,2.26-2.69,2.26
			c-10.3-0.04-20.6-0.07-30.9,0.02c-1.78,0.02-2.26-0.45-2.29-2.24c-0.03-1.86,0.52-2.26,2.3-2.21c7.21,0.22,9.45,1.31,9.36-9.48
			c-0.15-18.68-0.06-37.37-0.2-56.05c-0.08-10.76-1.06-9.11-9.11-9.11c-1.8,0-2.88,0.01-2.92-2.4c-0.04-2.59,1.47-2.01,2.85-2.01
			c10.19-0.03,20.39-0.02,30.58-0.07c1.43-0.01,2.5-0.25,2.49,1.97c-0.01,2.21-0.9,2.48-2.64,2.28c-0.73-0.08-1.49-0.02-2.23-0.01
			c-6.58,0.09-7.19,0.67-7.17,7.37c0.02,7.75,0.22,15.5,0.13,23.25c-0.03,2.02,0.69,2.22,2.34,2.21
			c11.25-0.07,22.51-0.12,33.76-0.04c1.78,0.01,2.1-0.56,2.08-2.15c-0.14-8.7-0.28-17.41-0.22-26.11c0.02-2.93-1.1-4.38-3.97-4.52
			c-1.69-0.08-3.39-0.24-5.07-0.16c-1.64,0.08-2.66,0.1-2.61-2.18c0.04-2.13,1-2,2.49-2.01c10.19-0.04,20.38-0.1,30.57-0.26
			c1.81-0.03,2.6,0.19,2.65,2.33c0.06,2.35-1.29,1.91-2.61,1.93c-9.09,0.13-9.41,0.45-9.41,9.55c0,9.55,0,19.11,0,28.66
			C294.62,254.35,294.71,254.35,294.79,254.35z"/>
		<path class="st2" d="M149.47,364.41c-1.76-1.7-3.74-1.74-5.79-1.73c-23.58,0.02-47.16,0.02-70.74,0.01
			c-3.89,0-4.07-0.46-4.43-4.32c-0.57-6,0.59-11.94,0.03-18c-0.37-3.98,0.16-8.37-0.01-12.44c-0.13-3.02-0.42-6.1-0.47-9.19
			c-0.03-2.09,0.4-4.09,0.48-6.14c0.1-2.4,1.83-2.85,4.05-2.84c23.05,0.07,46.1,0.04,69.14,0.04c27.4,0,54.81-0.09,82.21,0.09
			c4.2,0.03,8.06-1.99,12.41-1.14c1.82,0.36,3.91,0.47,5.91,0.47c53.85-0.07,107.7-0.01,161.55-0.12c5.69-0.01,11.5,0.22,17.01-0.33
			c4.76-0.48,9.58,0.74,14.28-0.75c2.67-0.84,5.41,0.57,8.18,0.56c27.16-0.08,54.32-0.05,81.47-0.05c4.18,0,4.2,0.01,4.3,4.2
			c0.06,2.32,0.01,4.64,0.01,6.96c0.03,11.45,1.07,22.88,0.64,34.33c-0.02,0.53,0.03,1.06-0.01,1.59c-0.47,6.14,0.78,5.85-5.79,5.84
			c-43.33-0.07-86.68-0.55-130,0.1c-51.19,0.77-102.38,0.09-153.57,0.63c-5.21,0.06-10.44-0.62-15.74,0.34
			c-3.6,0.65-7.59-0.87-11.19-0.23c-5.3,0.94-10.71-1.6-15.85,0.9c-0.44,0.21-1.05,0.16-1.57,0.12c-9.4-0.65-18.8,0.48-28.2-0.01
			c-4.2-0.22-8.39-0.94-12.6-0.01c-1.01,0.22-2.13,0-2.87,1.01c0.98,1.15,2.31,0.93,3.56,0.93c93.25,0,186.51,0.13,279.76-0.19
			c9.37-0.03,18.85-0.63,28.23-0.65c21.49-0.04,42.98,0.18,64.48,0.2c2.74,0,4.02,1.28,5.16,3.88c2.06,4.71,4.96,9.05,7.42,13.59
			c0.52,0.95,1.66,1.88,0.89,3.15c-0.82,1.34-2.39,1.75-3.64,1.45c-5.02-1.2-10,0.5-15.1-0.19c-4.5-0.62-9.26,0.31-13.86,0.86
			c-1.98,0.24-3.73-0.49-5.64-0.48c-31.44,0.08-62.88,0.01-94.31,0.11c-4.31,0.01-8.6,0.84-12.92,1.08
			c-1.87,0.1-3.77-0.47-5.65-0.47c-41-0.03-82,0.01-122.99-0.13c-2.18-0.01-3.84,1.13-6.06,1.1c-24.91-0.28-49.83-0.31-74.74-0.35
			c-22.3-0.04-44.62-0.33-66.91,0.14c-10.38,0.22-20.78,0.16-31.15,0.55c-10.15,0.38-20.29-0.4-30.44-0.1
			c-3.59,0.11-3.83-1-2.75-4.46c1.48-4.72,5.49-8.15,6.66-12.73c1.58-6.16,5.69-5.9,10.39-5.76c6.47,0.18,12.96,0.05,19.44,0.04
			c2.11,0,4.25,0.25,6.2-0.96c0.66-0.41,1.44-0.38,2.16-0.08c4.1,1.73,8.27,0.76,12.48,0.61c8.36-0.31,16.74-0.54,25.11,0.17
			C141.84,365.92,145.83,366.99,149.47,364.41z"/>
		<path class="st1" d="M345.44,295.23c-10.62,0-21.24-0.03-31.85,0.03c-1.65,0.01-2.69,0.04-2.7-2.19
			c-0.02-2.19,1.08-2.04,2.56-2.07c9.14-0.2,9.13-0.22,9.13-9.28c0-19.53,0-39.07,0-58.6c0-6.12-0.9-7.03-6.89-7.03
			c-1.06,0-2.14-0.11-3.18,0.02c-1.86,0.23-1.97-0.76-2.02-2.24c-0.05-1.61,0.32-2.24,2.07-2.23c20.81,0.05,41.62,0.05,62.43-0.03
			c1.61-0.01,1.94,0.55,2.03,1.93c0.51,8.15,1.06,16.29,1.62,24.43c0.07,1.08-0.04,1.77-1.46,1.76c-1.52-0.01-2.7-0.09-2.93-1.96
			c-0.47-3.78-1.72-7.33-3.22-10.81c-3.05-7.11-8.26-10.96-16.14-10.91c-5.41,0.03-10.83,0.06-16.24,0.01
			c-2.77-0.03-4.11,1.21-4.1,3.99c0.04,9.34,0.04,18.68,0.08,28.03c0,0.75-0.41,1.87,1.01,1.82c4.19-0.13,8.48,0.65,12.43-1.59
			c5.05-2.86,6.24-7.68,6.65-12.87c0.13-1.66,0.5-2.48,2.39-2.32c1.32,0.11,1.81,0.4,1.8,1.81c-0.05,11.78-0.06,23.57,0,35.35
			c0.01,1.49-0.54,1.65-1.84,1.68c-1.43,0.03-2.08-0.16-2.12-1.8c-0.06-3.17-0.64-6.3-2.03-9.19c-2.26-4.67-6.16-6.59-11.24-6.82
			c-7.04-0.32-7.04-0.42-7.03,6.54c0.01,8.6,0.08,17.2-0.02,25.8c-0.03,2.51,1.06,4.02,3.34,4.13c6.57,0.3,13.2,0.7,19.71-0.23
			c10.07-1.43,14.97-8.56,17.72-17.57c0.64-2.1,1.27-4.31,1.27-6.47c0-2.42,1.18-2.46,2.97-2.46c2.35-0.01,1.47,1.64,1.43,2.67
			c-0.34,8.8-0.83,17.59-1.09,26.39c-0.06,1.89-0.64,2.21-2.35,2.2c-10.72-0.07-21.45-0.04-32.17-0.04
			C345.44,295.16,345.44,295.19,345.44,295.23z"/>
		<path class="st1" d="M404.76,227.11c0,17.5-0.12,34.79,0.06,52.07c0.06,6.37,4.45,10.46,10.83,10.95
			c1.66,0.13,3.43-0.22,3.22,2.59c-0.14,1.85-0.67,2.28-2.41,2.27c-9.13-0.04-18.27,0.05-27.4,0.05c-0.86,0-2.38,0.72-2.17-1.25
			c0.15-1.39-0.73-3.04,1.85-3.53c7.69-1.46,10.97-5.63,10.96-13.42c0-16.88-0.03-33.77-0.04-50.65
			c-0.01-7.37-3.24-10.7-10.69-10.59c-2.16,0.03-2.74-0.54-2.58-2.63c0.11-1.4,0.52-1.83,1.87-1.82c5.63,0.03,11.26,0.05,16.88-0.08
			c1.45-0.03,2.04,0.79,2.75,1.72c16.15,20.96,32.31,41.91,48.48,62.85c0.09,0.12,0.3,0.14,0.57,0.27c0-16.49,0.01-32.89-0.02-49.3
			c0-0.83-0.29-1.67-0.48-2.49c-1.24-5.23-4.55-8.29-9.93-8.56c-2.31-0.12-1.73-1.36-1.91-2.67c-0.25-1.79,0.66-1.85,2-1.85
			c8.6,0.04,17.21,0.07,25.81-0.02c1.69-0.02,1.95,0.63,1.84,2.04c-0.1,1.25,0.28,2.36-1.8,2.49c-6.48,0.39-10.27,4.26-10.3,10.8
			c-0.11,21.66-0.01,43.32-0.08,64.98c0,1.06,0.98,3.01-0.78,3.16c-1.89,0.17-4.05,0.96-5.77-1.31
			c-10.67-14.07-21.48-28.05-32.25-42.05C417.1,243.09,410.91,235.08,404.76,227.11z"/>
		<path class="st1" d="M524.85,217.35c1.42-1.98,2.95-3.75,4.05-5.75c1.06-1.92,2.73-2.01,4.32-1.68c1.81,0.37,0.86,2.12,0.9,3.2
			c0.28,8.17,0.47,16.35,0.55,24.52c0.01,1.09,1.11,2.95-1.31,3.2c-1.9,0.2-2.66-0.49-3.19-2.48c-1.52-5.71-3.8-11.13-7.45-15.91
			c-6.07-7.95-17.19-11.06-26.11-6.93c-5.75,2.66-8.93,7.31-8.97,13.76c-0.04,5.99,3.03,9.89,9.37,12.41
			c6.77,2.68,14.02,3.6,20.93,5.71c5.23,1.6,10.51,3.21,14.68,7.02c11.57,10.56,7.93,31.56-6.93,38.75
			c-12.05,5.83-23.58,3.89-34.3-3.65c-1.54-1.08-2.23-1.51-3.33,0.32c-0.92,1.53-2.49,2.68-3.3,4.25c-1.12,2.17-2.97,1.91-4.63,1.64
			c-1.93-0.31-0.82-2.11-0.84-3.14c-0.15-8.81-0.17-17.63-0.18-26.45c0-1.2-0.83-2.75,1.63-2.93c2.2-0.16,2.69,0.94,3.01,2.62
			c1.76,9.25,6.43,16.68,14.14,22.06c8.73,6.09,22.79,5.78,29.3-1.89c6.98-8.22,4.76-19.27-5.22-23.42
			c-6.74-2.8-14.07-3.47-20.99-5.65c-4.42-1.39-8.75-2.93-12.69-5.42c-6.86-4.34-8.48-11.2-8.1-18.49
			c0.76-14.63,11.96-24.62,26.14-23.81C513.48,209.62,519.51,212.69,524.85,217.35z"/>
		<path class="st1" d="M188.06,253.85c0,10.83,0,21.66,0,32.49c0,3.68,1.22,4.92,4.93,4.98c1.91,0.03,3.82,0,5.73,0.01
			c1.4,0.01,2.83-0.5,2.83,2.04c0,2.42-1.08,2.41-2.85,2.4c-11.15-0.05-22.3-0.03-33.45-0.02c-1.48,0-2.72,0.31-2.77-2.11
			c-0.04-2.56,1.22-2.37,2.89-2.32c2.12,0.06,4.25-0.06,6.37,0.03c2.96,0.13,4.27-1.26,4.25-4.16c-0.04-5.95-0.03-11.89-0.05-17.84
			c-0.04-15.72-0.07-31.43-0.12-47.15c-0.02-5.25-1.75-6.81-7-6.29c-8.51,0.84-12.35,6.82-15.17,13.88
			c-1.57,3.93-2.67,8.03-3.08,12.21c-0.26,2.64-1.87,1.58-3.12,1.8c-1.9,0.34-1.47-1.08-1.41-2.01c0.56-9.21,1.24-18.41,1.72-27.62
			c0.1-1.89,0.98-1.91,2.38-1.91c21.24-0.05,42.48-0.1,63.72-0.26c1.66-0.01,1.95,0.55,2.02,1.95c0.46,9.11,0.99,18.22,1.47,27.33
			c0.06,1.07,0.48,2.34-1.54,2.28c-1.57-0.05-2.64-0.21-2.83-2.03c-0.54-5.05-1.82-9.92-3.95-14.52
			c-2.7-5.85-6.71-10.31-13.47-11.28c-4.85-0.69-8,0.03-7.86,6.29c0.24,10.61,0.07,21.23,0.07,31.85
			C187.88,253.85,187.97,253.85,188.06,253.85z"/>
		<path class="st1" d="M126.55,296.14c-4.78,0-9.56-0.13-14.33,0.06c-1.99,0.08-2.24-0.62-2.31-2.32c-0.07-1.76,0.48-2.18,2.15-2.06
			c2.43,0.17,4.84-0.19,7.16-1.01c1.9-0.68,2.79-1.83,2.01-3.87c-2.21-5.78-4.43-11.56-6.63-17.35c-0.41-1.07-1.15-1.27-2.21-1.27
			c-9.87,0.04-19.75,0.06-29.62,0.02c-1.41-0.01-2.03,0.48-2.46,1.82c-0.93,2.89-2.07,5.72-3.13,8.57
			c-3.32,8.99-0.59,13.03,9.05,13.14c1.86,0.02,2.51,0.31,2.49,2.37c-0.02,2.1-0.99,2.12-2.54,2.11c-8.39-0.03-16.78,0.04-25.16,0
			c-1.13-0.01-2.93,0.87-2.91-1.65c0.01-1.8,0.12-2.65,2.43-2.91c5.3-0.6,8.2-4.48,10.06-9.06c5.45-13.42,10.78-26.88,16.13-40.33
			c3.84-9.64,7.63-19.3,11.48-28.93c0.51-1.27,0.64-2.74,2.81-2.77c2.2-0.03,2.59,1.26,3.18,2.74
			c9.46,23.87,18.99,47.72,28.32,71.64c1.72,4.42,4.43,6.88,9.16,6.59c1.87-0.11,1.76,0.74,1.78,2c0.02,1.41,0.01,2.36-1.95,2.3
			c-4.98-0.15-9.98-0.05-14.97-0.05C126.55,296,126.55,296.07,126.55,296.14z"/>
		<path class="st3" d="M309.52,200.93c-80.07,0.82-149.95,0.31-219.83,0.67c-5.63,0.03-11.26-0.04-16.88,0.18
			c-2.25,0.09-2.63-0.76-2.63-2.74c0.06-14.12,0.08-28.25-0.05-42.37c-0.02-2.55,0.94-2.92,3.16-2.91
			c14.02,0.05,28.04-0.04,42.06-0.08c112.04-0.3,224.08-0.59,336.13-0.9c24.43-0.07,48.85-0.2,73.27-0.44
			c2.65-0.03,3.35,0.7,3.34,3.31c-0.02,13.7,0.06,27.39,0.31,41.09c0.05,2.81-0.69,3.49-3.51,3.51
			C449.7,200.86,374.51,200.76,309.52,200.93z"/>
		<path class="st4" d="M86.13,145.99c-4.25,0-8.49,0.04-12.74-0.03c-0.84-0.01-2.14,0.66-2.46-0.62c-0.24-0.96,0.98-1.23,1.66-1.65
			c8.94-5.56,17.88-11.09,26.82-16.64c32.13-19.94,64.27-39.88,96.4-59.82c2.15-1.33,4.35-2.58,6.45-3.98
			c1.29-0.86,2.16-0.92,3.11,0.53c2.8,4.23,5.68,8.4,8.62,12.53c1.08,1.52,0.75,2.11-0.83,3.04
			c-20.39,12.04-40.73,24.16-61.07,36.28c-15.55,9.27-31.13,18.5-46.6,27.91c-2.83,1.72-5.56,2.67-8.87,2.47
			c-3.49-0.21-7-0.05-10.51-0.05C86.13,145.97,86.13,145.98,86.13,145.99z"/>
		<path class="st4" d="M214.54,125.54c1.36-3.43,0.63-6.74,1.56-9.79c0.16-0.53-0.3-1.39,0.64-1.53c0.77-0.11,1.06,0.46,1.25,1.14
			c2.76,9.79,5.56,19.57,8.29,29.37c0.38,1.37,0.15,2.17-1.78,1.62c-3.43-0.97-6.97-1.56-10.47-2.32c-1.65-0.36-2.64-1.29-2.98-3.04
			c-2.18-11.27-4.39-22.52-6.67-33.77c-0.3-1.5-0.34-2.83,0.17-4.32c1.62-4.76,3.09-9.57,4.53-14.39c0.2-0.68,0.41-1.33,1.06-1.37
			c0.83-0.04,0.77,0.75,0.91,1.38c1.23,5.53,2.59,11.03,3.69,16.58c0.22,1.12-0.26,2.53-0.81,3.62c-2.11,4.24-2.15,8.45-0.39,12.79
			C214.02,122.67,214.16,123.95,214.54,125.54z"/>
		<path class="st4" d="M146.57,145.79c-9.02,0-18.04,0-27.06,0c-0.91,0-2.14,0.47-2.4-0.77c-0.2-0.9,0.92-1.27,1.62-1.7
			c17.87-10.96,35.73-21.92,53.62-32.85c0.75-0.46,1.51-1.46,2.53-0.86c0.89,0.52,0.39,1.56,0.43,2.36
			c0.45,9.96,0.83,19.92,1.32,29.87c0.1,2.07-0.27,3-2.68,2.93C164.82,144.48,155.7,145.07,146.57,145.79z"/>
		<path class="st5" d="M507.24,143.44c-0.85,0-1.7,0-2.54,0c-18.09,0-18.09-0.01-33.62-9.02c-1.12-0.65-1.46-1.05-0.62-2.33
			c3.76-5.7,7.38-11.49,11.01-17.28c0.79-1.26,1.48-1.36,2.75-0.51c13.67,9.13,27.38,18.19,41.06,27.29
			c0.64,0.43,1.78,0.7,1.36,1.82c-0.4,1.07-1.46,0.59-2.25,0.59c-5.72,0.02-11.44,0.01-17.16,0.01
			C507.24,143.83,507.24,143.64,507.24,143.44z"/>
		<path class="st4" d="M204.57,145.84c-6.13-0.35-12.27-0.79-18.4-0.98c-2.1-0.07-2.89-0.77-3.2-2.83
			c-0.88-5.82-2.15-11.59-2.92-17.42c-0.5-3.8,1.09-7.44,1.74-11.15c1.63-9.4,1.68-9.39,9.94-14.29c4.75-2.81,4.72-2.81,6.03,2.72
			c3.19,13.47,6.39,26.93,9.6,40.39C208.25,146.09,208.25,146.12,204.57,145.84z"/>
		<path class="st3" d="M267.38,386.87c-8.24-0.51-16.48-0.03-24.72-0.03c-20.11,0-40.22,0.11-60.32,0.17
			c-4.22,0.46-8.44,0.17-12.66,0.19c-10.68,0.05-21.37,0.01-32.05,0.03c-1.15,0-2.33-0.19-3.45,0.28c-2.3-0.56-4.64-0.21-6.95-0.2
			c-22.83,0.05-45.66,0.14-68.49,0.21c-3.04,0.01-3.34-0.47-1.92-3.22c2.5-4.85,5.1-9.65,7.61-14.5c0.92-1.78,2-2.67,4.28-2.7
			c84.18-1.13,168.37-0.32,252.56-0.6c68.59-0.23,137.18-0.39,205.77-0.66c2.63-0.01,4.1,0.7,5.28,3.14
			c2.13,4.39,4.71,8.55,7.07,12.83c0.49,0.9,1.55,1.75,1.05,2.85c-0.6,1.33-2.03,0.87-3.12,0.87c-23.47,0.05-46.93,0.07-70.4,0.1
			c-0.95,0-1.91,0.07-2.86,0.11c-1.14,0.39-2.31,0.2-3.47,0.2c-18.1,0.01-36.21,0.01-54.31,0.02c-1.26,0-2.54-0.22-3.77,0.28
			c-4-0.58-8.02-0.1-12.03-0.1c-26.9,0.01-53.8,0.07-80.69,0.12c-1.27,0-2.53,0.08-3.8,0.12c-10.45,0.47-20.9,0.05-31.35,0.22
			C272.22,386.64,269.78,386.26,267.38,386.87z"/>
		<path class="st3" d="M70.18,361.54c-1.04-0.52-0.64-1.49-0.61-2.25c0.57-14.92-0.09-29.84-0.03-44.76
			c0.01-2.6,0.37-3.55,3.35-3.53c18.22,0.14,36.43,0.01,54.65-0.03c1.14-0.39,2.31-0.2,3.47-0.2c28.3-0.01,56.6-0.01,84.9-0.02
			c1.26,0,2.55,0.22,3.78-0.28c4.11,0.57,8.24,0.15,12.35,0.15c38.79-0.04,77.58-0.11,116.37-0.17c1.16,0,2.33-0.07,3.49-0.11
			c2.52-0.47,5.06-0.19,7.59-0.2c13.33-0.04,26.67-0.01,40-0.02c1.26,0,2.54,0.19,3.78-0.26c8.16,0.6,16.32,0.1,24.48,0.1
			c32.49,0,64.98-0.06,97.47-0.2c2.44-0.01,3.04,0.75,3.03,3.07c-0.03,14.65,0.01,29.3,0.2,43.95c0.03,2.71-0.78,3.41-3.42,3.41
			c-42.68-0.01-85.37-0.21-128.05,0.2c-63.7,0.62-127.41,0.12-191.11,0.61c-38.86,0.3-77.72,0.28-116.58,0.41
			c-2.55,0.01-5.09,0.08-7.64,0.12C77.82,361.87,74,361.84,70.18,361.54z"/>
		<path class="st0" d="M219.68,310.46c-2.4,0.62-4.84,0.3-7.26,0.3c-28.29,0.1-56.59,0.14-84.88,0.19c0.7-0.66,1.57-0.53,2.41-0.53
			C159.86,310.44,189.77,310.45,219.68,310.46z"/>
		<path class="st0" d="M402.51,386.23c1.85-0.64,3.78-0.34,5.66-0.35c18.63-0.1,37.26-0.11,55.89-0.14
			c-0.7,0.66-1.57,0.53-2.41,0.53C441.93,386.26,422.22,386.25,402.51,386.23z"/>
		<path class="st0" d="M403.26,309.85c-5.67,0.8-11.38,0.36-17.07,0.42c-11.43,0.11-22.87,0.06-34.3,0.07
			c0.69-0.67,1.57-0.53,2.41-0.53C370.62,309.81,386.94,309.83,403.26,309.85z"/>
		<path class="st0" d="M134.18,387.51c1.85-0.58,3.77-0.34,5.65-0.35c14.17-0.08,28.34-0.11,42.51-0.15
			c-0.7,0.66-1.57,0.53-2.41,0.53C164.68,387.53,149.43,387.52,134.18,387.51z"/>
		<path class="st0" d="M267.38,386.87c8.21-0.88,16.44-0.29,24.66-0.52c4.64-0.13,9.29,0.01,13.94,0.02
			c-0.7,0.66-1.57,0.53-2.41,0.53C291.52,386.9,279.45,386.88,267.38,386.87z"/>
		<path class="st0" d="M70.18,361.54c3.82,0,7.64-0.01,11.46-0.01C77.82,362.38,74,362.36,70.18,361.54z"/>
		<path class="st0" d="M112.35,263.96c-9.87,0-19.42,0-29.33,0c4.85-12.22,9.65-24.31,14.68-36.99
			C102.67,239.52,107.42,251.51,112.35,263.96z"/>
		<path class="st0" d="M299.58,199.84c-49.6,0-99.2-0.04-148.8,0.02c-25.17,0.03-50.34,0.18-75.51,0.41
			c-2.62,0.02-3.31-0.55-3.28-3.24c0.11-12.95,0.05-25.91-0.17-38.87c-0.04-2.37,0.65-2.66,2.75-2.66
			c38.87-0.04,77.74-0.15,116.62-0.27c59.58-0.19,119.16-0.41,178.75-0.6c51.3-0.16,102.59-0.27,153.89-0.49
			c2.23-0.01,2.78,0.48,2.76,2.75c-0.12,12.95-0.1,25.91,0.01,38.87c0.02,2.35-0.41,3.16-3.02,3.16
			C448.91,198.81,374.24,199.12,299.58,199.84z"/>
		<path class="st0" d="M75.1,144.12c2.41-1.54,4.64-3.01,6.91-4.41c39.82-24.68,79.66-49.34,119.45-74.08
			c1.87-1.16,2.65-1.15,3.82,0.82c1.88,3.17,4.12,6.12,6.3,9.1c1.14,1.55,1.08,2.36-0.77,3.45c-20.49,12.09-40.9,24.3-61.35,36.46
			c-15.49,9.21-31.01,18.35-46.46,27.62c-1.27,0.76-2.42,1.07-3.82,1.06C91.27,144.1,83.35,144.12,75.1,144.12z"/>
		<path class="st2" d="M217.67,120.29c2.25,8,4.5,16,6.86,24.39c-3.62-0.84-7-1.72-10.43-2.4c-1.82-0.36-1.47-1.92-1.68-2.93
			c-1.85-8.96-2.89-18.14-5.48-26.87c-2.32-7.82,0.95-14.11,3.06-21.43c1,4.52,1.83,8.49,2.78,12.43c0.44,1.85,0.24,3.63-0.54,5.24
			c-2.12,4.35-1.8,8.64-0.27,13.07c0.89,2.57,1.39,5.28,2.12,7.91c0.17,0.61-0.2,1.74,0.99,1.62c0.94-0.1,0.92-1.02,1-1.75
			c0.34-3.08,0.67-6.17,1.01-9.25C217.29,120.3,217.48,120.3,217.67,120.29z"/>
		<path class="st0" d="M121.42,143.58c8.6-5.27,17.25-10.56,25.89-15.87c7.98-4.9,15.99-9.78,23.91-14.77
			c2.15-1.35,2.64-0.99,2.71,1.48c0.24,9,0.57,18,1.06,26.99c0.11,2.11-1.14,1.63-2.16,1.65c-10.28,0.2-20.56,0.39-30.85,0.5
			C135.15,143.64,128.32,143.58,121.42,143.58z"/>
		<path class="st0" d="M523.13,142.09c-11.6,0.51-22.4-0.66-33.22-0.5c-1.71,0.02-2.97-0.95-4.36-1.64c-4.01-2-7.98-4.08-12-6.04
			c-1.25-0.61-1.69-1.06-0.79-2.44c3.18-4.83,6.29-9.72,9.31-14.66c0.99-1.61,1.74-0.78,2.71-0.13
			c11.31,7.52,22.63,15.03,33.95,22.53C520,140.04,521.28,140.88,523.13,142.09z"/>
		<path class="st0" d="M195.37,98.71c3.05,12.84,5.98,25.18,8.92,37.53c0.44,1.84,0.77,3.71,1.35,5.5c0.56,1.73,0.4,2.51-1.7,2.4
			c-5.82-0.3-11.64-0.55-17.47-0.62c-1.86-0.02-1.71-1.33-1.91-2.29c-2.12-10.11-3.23-20.06-1.01-30.54
			C185.09,103.4,190.82,102.31,195.37,98.71z"/>
		<path class="st0" d="M538.72,383.79c-160.28,0.69-320.18,1.39-480.58,2.08c3-5.75,5.84-11.16,8.62-16.59
			c0.6-1.17,1.57-0.85,2.47-0.86c3.08-0.03,6.16-0.02,9.24-0.02c71.47-0.09,142.94-0.15,214.4-0.26
			c78.05-0.12,156.1-0.27,234.15-0.46c2.06-0.01,3.19,0.51,4.16,2.43C533.44,374.6,536.01,378.93,538.72,383.79z"/>
		<path class="st0" d="M314.78,358.85c-77.16,1.02-138.55,0.42-199.94,0.85c-13.49,0.09-26.98,0.15-40.46,0.37
			c-2.32,0.04-3.04-0.43-3.02-2.9c0.13-13.91,0.13-27.82,0-41.73c-0.02-2.4,0.82-2.61,2.87-2.63c71.37-0.58,142.75-0.13,214.12-0.63
			c73.92-0.52,147.84-0.22,221.76-0.78c4.78-0.04,9.56-0.08,14.33-0.27c1.68-0.06,2.15,0.43,2.15,2.1
			c-0.06,14.34-0.11,28.67,0.04,43.01c0.03,2.43-1.19,2.17-2.67,2.17c-30.8,0.14-61.6,0.36-92.4,0.41
			C387.37,358.9,343.18,358.85,314.78,358.85z"/>
	</g>
</g>
</svg>
