<?xml version="1.0" encoding="utf-8"?>
<!-- Generator: Adobe Illustrator 25.1.0, SVG Export Plug-In . SVG Version: 6.00 Build 0)  -->
<svg version="1.1" id="레이어_1" xmlns="http://www.w3.org/2000/svg" xmlns:xlink="http://www.w3.org/1999/xlink" x="0px"
	 y="0px" viewBox="0 0 1920 1080" style="enable-background:new 0 0 1920 1080;" xml:space="preserve">
<style type="text/css">
	.st0{fill:#FBFBFB;}
	.st1{fill:#292829;}
	.st2{fill:#2F2926;}
	.st3{fill:#050505;}
	.st4{fill:#030303;}
	.st5{fill:#060606;}
	.st6{fill:#010101;}
	.st7{fill:#EFAF4F;}
	.st8{fill:#F5AF44;}
	.st9{fill:#2F2F2F;}
	.st10{fill:#2B2B2B;}
	.st11{fill:#967C4C;}
	.st12{fill:#707071;}
	.st13{fill:#6D6D6E;}
	.st14{fill:#5A5A59;}
	.st15{fill:#6B6B6B;}
	.st16{fill:#454545;}
	.st17{fill:#EDC68C;}
	.st18{fill:#2A2A2A;}
	.st19{fill:#E5C171;}
	.st20{fill:#7E6A4B;}
	.st21{fill:#646464;}
	.st22{fill:#F0CB8D;}
	.st23{fill:#686869;}
	.st24{fill:#6C6963;}
	.st25{fill:#6E6E6F;}
	.st26{fill:#EECF92;}
	.st27{fill:#6B6A68;}
	.st28{fill:#676767;}
	.st29{fill:#CBCBCB;}
	.st30{fill:#E8C387;}
	.st31{fill:#3B3B3B;}
	.st32{fill:#EECE94;}
	.st33{fill:#626264;}
	.st34{fill:#585858;}
	.st35{fill:#3C3C3C;}
	.st36{fill:#EED19D;}
	.st37{fill:#727272;}
	.st38{fill:#4A4A4A;}
	.st39{fill:#716F71;}
	.st40{fill:#2E2E2E;}
	.st41{fill:#747474;}
	.st42{fill:#5A5A5B;}
	.st43{fill:#636363;}
	.st44{fill:#414141;}
	.st45{fill:#979797;}
	.st46{fill:#656565;}
	.st47{fill:#616161;}
	.st48{fill:#404040;}
	.st49{fill:#676766;}
	.st50{fill:#7C7C7C;}
	.st51{fill:#6A6A68;}
	.st52{fill:#3E3E3E;}
	.st53{fill:#626262;}
	.st54{fill:#666667;}
	.st55{fill:#78633D;}
	.st56{fill:#B9A5A7;}
	.st57{fill:#6F716E;}
	.st58{fill:#767676;}
	.st59{fill:#717171;}
	.st60{fill:#606060;}
	.st61{fill:#828282;}
	.st62{fill:#565656;}
	.st63{fill:#878787;}
	.st64{fill:#4C4C4C;}
	.st65{fill:#6A6B70;}
	.st66{fill:#787878;}
	.st67{fill:#555555;}
	.st68{fill:#505050;}
	.st69{fill:#4E4E4E;}
	.st70{fill:#4D4D4D;}
	.st71{fill:#707070;}
	.st72{fill:#5D5D5D;}
	.st73{fill:#7D7D7D;}
	.st74{fill:#777777;}
	.st75{fill:#5F5F5F;}
	.st76{fill:#494949;}
	.st77{fill:#5E5E5E;}
	.st78{fill:#6D6D6D;}
	.st79{fill:#A2A2A2;}
	.st80{fill:#868686;}
	.st81{fill:#8F8F8F;}
	.st82{fill:#535353;}
	.st83{fill:#FEFEFE;}
	.st84{fill:#FDFDFD;}
	.st85{fill:#DCA855;}
	.st86{fill:#998159;}
	.st87{fill:#5D4D3C;}
	.st88{fill:#6A4D25;}
	.st89{fill:#684F36;}
	.st90{fill:#7C7C78;}
	.st91{fill:#7C797B;}
	.st92{fill:#8C6D36;}
	.st93{fill:#AA8045;}
	.st94{fill:#9C783C;}
	.st95{fill:#B88941;}
	.st96{fill:#755427;}
	.st97{fill:#684C35;}
	.st98{fill:#926C38;}
	.st99{fill:#727174;}
	.st100{fill:#6C6968;}
	.st101{fill:#524F4B;}
	.st102{fill:#939086;}
	.st103{fill:#898987;}
	.st104{fill:#A37D39;}
	.st105{fill:#CFCFD0;}
	.st106{fill:#785829;}
	.st107{fill:#989898;}
	.st108{fill:#585859;}
	.st109{fill:#6D5527;}
	.st110{fill:#93763E;}
	.st111{fill:#8C6C31;}
	.st112{fill:#927343;}
	.st113{fill:#946D32;}
	.st114{fill:#654E21;}
	.st115{fill:#737771;}
	.st116{fill:#CD9F51;}
	.st117{fill:#6E6C66;}
	.st118{fill:#6B6E74;}
	.st119{fill:#5B5B5B;}
	.st120{fill:#E5D7B8;}
	.st121{fill:#32322D;}
	.st122{fill:#B58F4E;}
	.st123{fill:#F8AF40;}
	.st124{fill:#878E92;}
	.st125{fill:#F6D9A6;}
	.st126{fill:#B7AE97;}
	.st127{fill:#FAAE42;}
	.st128{fill:#F3CD8C;}
	.st129{fill:#F3E6C5;}
	.st130{fill:#EDD79B;}
	.st131{fill:#F7E0B0;}
	.st132{fill:#F8AF41;}
</style>
<g>
	<g>
		<path class="st0" d="M960,863.94c-191.08,0-382.16,0-573.24,0.06c-2.25,0-2.76-0.51-2.76-2.76c0.06-214.16,0.06-428.33,0-642.49
			c0-2.25,0.51-2.76,2.76-2.76c382.16,0.06,764.33,0.06,1146.49,0c2.25,0,2.76,0.5,2.76,2.75c-0.06,214.16-0.06,428.33,0,642.49
			c0,2.25-0.5,2.76-2.75,2.76C1342.16,863.94,1151.08,863.94,960,863.94z"/>
		<path class="st1" d="M918.63,485.47c2.46,0.39,2.03-1.98,2.95-3.08c1.84-0.94,3.03-2.56,4.26-4.13c2.34-0.57,3.76-2.47,5.39-3.97
			c0.75-0.69,1.47-0.76,2.26-0.97c1.68-1.72,2.49-3.72,2.25-6.17c-0.13-1.29,0.02-2.6-0.03-3.9c-0.67-17.34-1.68-34.67-1.2-52.04
			c-2.66-6.72-1.01-13.76-1.53-20.63c-0.32-4.2-2.02-5.62-6.16-5.68c-3.7-0.06-7.35-0.06-10.55,2.21c-0.87,1.86-0.07,4.64-2.98,5.37
			c-1.83,0.39-3.55,1.85-5.56,0.6c-0.61-0.16-1.36,0.18-1.82-0.5c-0.78-1.5-2.24-2.22-3.56-3.11c-1.3,0.11-1.81-0.63-2.32-1.75
			c-0.56-1.22,0.11-3.12-1.9-3.65c-0.2-0.05-0.35-1.5-0.17-1.59c1.93-0.96,1.23-2.85,1.66-4.32c0.92-3.17,3.37-4.38,6.32-4.97
			c1.5-0.16,2.45-2.32,4.3-1.18l-0.01,0c1.55,1.05,3.16,2.02,4.71,3.07c2.39,0.89,4.22,2.98,7.28,2.52
			c2.76-0.42,5.09-2.29,8.05-1.99c0.98,0.1,1.12-1.18,1.1-2.13c-0.1-4.05,0.37-8.14-0.84-12.11c-5.85-0.65-11.69-1.31-17.15,1.81
			c-1.65,0.94-3.37,1.07-5.03-0.08l-0.01,0.01c-0.79-1.22-2.04-0.91-3.19-1c-1.73-0.14-3.55,0.38-5.15-0.72
			c0.07-2.34,1.92-1.94,3.36-2.19c1.47-0.26,3.21,0.6,4.34-1.06l0.02-0.01c2.32-1.21,4.58-1.07,7.15-0.51
			c3.34,0.72,6.84,0.66,10.27-0.15c1.23-0.29,2.54-0.38,3.82-0.43c3.05-0.35,2.57-2.96,2.77-4.8c0.63-5.8-0.74-11.27-2.61-16.79
			c-1.19-3.5-2.12-6.73-5.32-9.01c-1.65-1.18-1.58-3.11-0.43-4.84c0.2-1.06-0.37-2.54,1.61-2.56c1.68-0.02,1.56-2.09,1.86-2.74
			c1.22-2.65,4.12-4.24,4.44-7.37c0.24-2.41,1.68-3.58,4.12-3.5c2.61-1.41,5.22-1.35,7.85-0.06c1.77,0.45,3.09,1,3.03,3.4
			c-0.05,1.94,2.79,1.57,3.73,3.2c0.29,0.51,1.17,0.94,1.47,1.83c0.76,2.22,2.96,3.26,4.36,4.99c0.61,0.75,2.3,0.28,2.24,2.14
			c-0.06,1.89-0.02,3.67-1.81,4.82c-0.49,0.31-1.08,0.47-1.62,0.69c-1.93,1.66-2.9,3.7-2.45,6.28c0.4,2.26-0.51,4.38-1.32,6.27
			c-0.94,2.23-1.38,4.2,0.08,6.08c1.43,1.85,3.72,1.42,5.74,1.4c0.67-0.01,1.38-0.35,2.06-0.25c4.56,0.66,8.01-0.37,10.39-4.9
			c1.57-2.99,5.59-2.91,9.58-0.62c2.65,0.49,4.11,2.01,4.15,4.77c1.31,2.87,1.3,5.73-0.02,8.6l0.04,0.01
			c-0.75,2.09-2.52,3.11-4.3,4.11c-0.94,0.29-0.12,1.62-1.11,1.88c-4.37,1.9-5.71,1.71-8.64-2.32c-1.63-2.23-3.5-3.06-6.1-2.91
			c-1.59,0.1-3.2,0.03-4.8,0.02c-1.44,0-2.78,0.37-4.02,1.05c-3.65,2.02-1.34,5.16-1.33,7.8c0.01,2.1,1.41,3.27,3.57,3.18
			c4.12-0.17,8.31,0.78,12.25-1.58c2.02-1.21,4.43-1.38,6.89-0.18c2.35,1.14,5.13,0.25,7.66,0.83c0.9,2.65,0.74,2.99-1.92,3
			c-1.82,0-3.53,0.08-5.09,1.18c-1.95,1.38-3.83,0.85-6.1,0.45c-4.97-0.87-10.19-1.16-15.02,0.92c-2.11,0.91-2.77,3.36-2.17,5.39
			c1.7,5.81,0.7,11.71,1.01,17.56c0.06,1.18-0.19,2.43,0.82,3.37c0.06,4.95,0.11,9.91,0.17,14.86c0.74,1.07,0.52,2.3,0.53,3.48
			c0.02,4.78-0.44,9.62,0.14,14.33c0.54,4.34,1.21,8.63,1.15,13.01c-0.01,0.4,0.23,0.75,0.46,1.08c0.04,0.57,0.07,1.14,0.11,1.71
			c1,1.54,0.46,3.27,0.52,4.9c0.13,3.62,1.17,4.25,4.42,2.87c1.49-0.63,3.14-0.89,4.54-1.79c1.38-1.72,3.39-2.03,5.38-2.38
			c1.78-0.46,3.69-0.4,5.35-1.34c0.61-0.56,1.22-1.13,1.82-1.69c2.67-0.16,5.17-1,7.49-2.24c1.12-0.6,2.38,0.07,3.4-0.69l-0.02-0.01
			c8.71-2.76,17.57-4.75,26.76-4.1c3.31,0.23,6.64,0.8,9.88,1.7l-0.01,0.01c3.17,1.82,7,2.48,9.53,5.44
			c0.87,1.45,2.29,2.21,3.71,2.98c0.15,0.26,0.13,0.63,0.29,0.83c3.32,4.43,1.6,8.71-0.16,13.12c-2.35,5.9-6.74,10.12-11.24,14.26
			c-1.85,1.7-3.26,3.75-4.85,5.66c-0.73,0.87-1.43,1.64-2.52,2c-2.56,1.74-5.56,2.65-7.65,5.36c-1.48,1.93-3.94,3.47-6.38,4.13
			c-2.32,0.62-3.71,1.71-4.38,3.9c-1.79,1.93-3.84,3.4-6.38,4.25c-2.75,0.91-4.24,3.53-6.53,5.1c-3.99,3.65-7.86,7.37-11.32,11.59
			c-3.53,4.31-5.64,8.94-6.12,14.41c-0.03,0.3-0.13,0.58-0.2,0.87c-0.46,1.91-1.41,4.12-3.17,4.28c-1.71,0.16-2.77-1.97-3.28-3.79
			c-0.39-4.7-1.01-9.4-0.03-14.1c0.28-2.29,1.82-3.95,3.09-5.66c0.99-1.34,1.57-2.72,1.97-4.26c2.79-2.77,4.38-6.59,7.65-8.91
			c1.86-1.31,3.72-2.56,4.99-4.49c0.62-1.98,1.56-3.52,3.76-4.24c1.7-0.55,3.14-1.96,4.19-3.3c2.33-2.95,5.46-4.49,8.7-5.98
			c2.72-1.95,4.76-4.72,7.88-6.23c2.91-1.41,5.3-3.76,8.31-5.06c0.37-0.16,0.86-0.31,0.96-0.67c0.77-2.86,3.56-3.65,5.52-5.19
			c1.91-1.49,3.21-3.18,3.9-5.43c1.21-6.4-2.65-9.53-8.69-9.25c-1.49,0.07-3.01,0.17-4.48-0.02c-4.89-0.63-9.84,0.35-13.99,2.18
			c-6.2,2.74-12.92,4.21-18.77,7.9c-2.33,1.47-5.45,1.74-7.58,3.86c-0.44,0.23-0.91,0.36-1.4,0.42c-2.08-0.09-3.93,0.2-5.18,2.2
			c-0.61,0.97-1.93,0.97-2.95,1.31c-3.15,1.05-4.13,2.33-4.18,5.68c-0.04,2.6-0.02,5.2,0.02,7.8c-0.18,8.18,2.04,16.23,1.24,24.43
			c-0.12,1.26,0.6,2.04,1.31,2.87c0.96,4.33,0.46,8.72,0.49,13.09c0.02,4.08,0,8.16,0.02,12.25c0.01,2.35-0.39,4.78,1.34,6.83
			c0.44,0.52,0.38,1.33,0.38,2.03c0.02,7.55-0.08,15.11,0.65,22.64c0.04,3.09-0.55,6.3,0.14,9.24c1.82,7.8,0.4,15.84,2.23,23.6
			c0.2,0.87,0.11,1.79,0.09,2.68c-0.13,4.08-0.33,8.17,0.27,12.33c1.04-0.4,0.09-2.77,2.1-1.95c0.79,1.38,0.74,2.91,0.54,4.35
			c-0.6,4.33-0.51,8.68-0.55,13.03c-0.08,0.36-0.29,0.62-0.62,0.78c-0.18,0.07-0.38,0.17-0.56,0.15c-2.27-0.27-7.08-4.48-7.72-6.71
			c-0.15-2.98-0.01-5.97-0.08-8.95c-0.02-1.07,0.24-2.23-0.88-2.98c-2.01-3.06-2.64-6.95-5.7-9.37c-2.61-3.13-8.57-4.75-12.01-3.25
			c-1.34,0.18-2.8,0.6-2.97-1.51c0.16-0.51,0.49-0.94,0.73-1.41c0.57-1.02,0.57-2.14,0.44-3.22c-1.14-9.55,0.43-19.22-0.76-28.67
			c-1.59-12.61-0.22-25.25-1.55-37.82c-0.42-3.96-0.08-7.98-0.09-11.97c-0.02-3.97,0.35-7.99-1.68-11.66
			c-0.1-3.15,0.02-6.31-0.04-9.47c-0.02-1.09,0.05-2.26-1.28-2.71c-1.24-0.42-2.29-0.1-3.2,0.88c-1.8,1.94-4.38,3.07-5.7,5.51
			c-3.23,2.91-7.19,5.11-9.71,8.67c-1.38,1.94-2.85,3.33-4.89,4.42c-1.06,0.57-0.53,2.3-1.55,3.11c-3.81,4.95-8.87,9.07-10,15.77
			c-0.31,1.81-1.49,3.51-2.45,4.99c-2.41,3.71-2.81,7.88-3.13,11.94c-0.55,7.13-0.93,14.37,1.01,21.37
			c1.06,3.85,3.16,7.25,6.83,9.34c2.32,2.74,4.86,5.25,8.08,6.96c0.2,0.22,0.31,0.55,0.54,0.71c2.37,1.6,4.81,3.04,6.96,5.01
			c1.2,1.09,3.21,1.2,4.51,2.63c0.89,0.99,2.47,0.37,3.74,0.44c2.84-0.08,4.54,2.52,7.18,3.05c0.93,0.19,0.91,1.38,0.27,2.23
			c-2.14,1.15-4.49,0.76-6.7,0.61c-3.38-0.22-6.22,0.07-7.12,4.04c-1.72-2.26-4.66-2.86-6.59-4.84c-0.58-1.18-2.16-0.89-2.85-1.92
			c-3.25-1.86-6.51-3.7-9.74-5.59c-0.31-0.18-0.63-0.61-0.66-0.94c-0.2-2.31-1.97-2.77-3.73-3.1c-1.99-0.37-1.5-2.27-2.31-3.36
			c-1.05-2.08-3.57-3.04-4.16-5.47c-2.62-1.18-4.64-2.83-4.77-5.98c-0.66-2.17-1.48-4.27-2.85-6.11c-0.06-1.15-0.12-2.3-0.18-3.45
			c-0.71-0.93-0.81-2-0.81-3.12c-0.01-5.58-0.16-11.17,0-16.75c0.03-1.12,0.1-2.2,0.86-3.1c0.06-1.49,0.23-2.98,0.16-4.46
			c-0.06-1.3,0.75-1.37,1.63-1.51c1.17-3.3,1.7-6.8,3.56-9.89c0.8-1.33,1.76-2.6,2.39-4.04c0.13-0.79-0.19-1.69,0.61-2.3
			c1.25-0.76,2.37-1.66,3.03-3.01l-0.01,0.02c1.11-1.21,0.5-2.91,1.22-4.23c0.84-0.95,0.14-3.14,2.39-2.96
			c1.26-1.22,2.38-2.54,3.05-4.19l-0.01,0.01c0.88-1.4,2.38-2.07,3.65-2.98c1.81-1.29,3.53-2.69,4.09-4.89
			c0.36-1.45,1.75-1.48,2.43-2.4c-0.07-1.32,0.08-2.47,1.86-2.31c1.29-0.56,2.48-1.14,2.97-2.69
			C915.55,487.5,917.5,486.84,918.63,485.47z"/>
		<path class="st2" d="M969.01,632.38c0.2,0,0.4,0,0.59,0c1.17,1.23,0.92,2.79,0.93,4.26c0.05,6.39,0.05,12.78,0,19.18
			c-0.01,2.23,0.76,3.29,3.14,3.21c2.12-0.07,2.76-1.11,2.76-3.02c0-5.49-0.01-10.99,0-16.48c0-1-0.03-2,0.04-3
			c0.19-3.02,0.84-3.78,3.76-3.85c2.98-0.08,5.99-0.34,8.95,0.25c0.35,0.16,0.96,0.37,0.87,0.68c-1.02,3.48,1.78,5.59,3.16,8.03
			c2.18,3.85,4.56,7.55,5.91,11.82c0.19,5.37,0.28,10.73-0.03,16.1c-0.27,1.11-0.49,2.25-1.29,3.15c-1.89,0.59-1.64,2.28-1.87,3.71
			c-0.06,0.28-0.15,0.54-0.25,0.8c-1.13,3.33-3.66,5.99-4.47,9.48c-3.61,5.33-8.59,9.08-14.16,12.1c-1.9,1.03-2.56,3.69-5.14,3.75
			c-2.99,0.27-5.18,2.64-8.1,3.08c-1.36,0.28-2.73,0.21-4.1,0.21c-6.38,0.99-12.76,2.18-19.26,1.52c-3.79-0.39-7.47-1.46-11.18-2.3
			c-2.21-0.13-4.41-0.28-6.6-0.77c-1.19-0.27-0.89-1.02-1.13-1.65c-2.16-0.68-3.85-2.05-5.42-3.61l0.01,0.01
			c-1.72-1.93-3.79-3.42-5.89-4.89c-1.58-2.77-2.32-5.86-3.43-8.8c-0.83-2.2-1.11-4.47-0.45-6.21c0.81-2.14,0.85-4.37,1.57-6.48
			c0.75-2.18,2.01-3.89,4.01-4.69c3.09-1.25,4.67-4.19,7.28-5.91c0.95-0.63,0.45-1.4,0.67-2.08c1.49-1.27,3.16-0.67,4.78-0.45
			c1.27,0.18,2.54,0.15,3.81,0.22c1.58,0.06,3-0.6,4.47-1.03c7.17-0.41,14.35-0.48,21.51,0.05c1.46,0.11,4.08-0.07,4,1.51
			c-0.09,1.76-2.59,0.99-4.08,1.15c-2.16,0.23-4.39-0.42-6.48,0.54c-2.5,1.23-5.28,0.45-7.91,1.13c-4.8,1.23-9.41,2.71-13.38,5.77
			c-0.23,0.18-0.48,0.34-0.74,0.47c-2.18,0.51-4.25,1.2-5.54,3.24c-0.17,0.21-0.36,0.41-0.55,0.61c-1.28,1.68-3.32,2.99-2.74,5.58
			c0.06,2.74,0.06,5.48,0.03,8.21c-0.3,2.06,1.32,3.07,2.42,4.36c9.42,6.08,19.93,6.68,30.67,6.15c1.56-0.08,2.85-0.82,4.07-1.71
			c3.21-2.07,7.29-1.88,10.48-4.14c2.09-1.48,3.92-3.4,6.41-4.3c0.25-0.15,0.52-0.26,0.8-0.35c1.76,0.01,2.46-1.56,3.58-2.46
			c4.06-3.25,7.67-6.82,9.06-12.12c0.46-1.77,2.47-2.91,2.41-5.01c0.05-0.3,0.13-0.6,0.21-0.89c0.39-5.1,0.69-10.25-1.01-15.13
			c-0.91-2.61-1.62-5.51-4-7.41c-1.05-1.27-0.82-2.81-0.91-4.29c-0.06-1.12,0.21-2.35-0.76-3.35c-1.32,1-0.94,2.28-0.95,3.39
			c-0.05,5.68,0.02,11.36-0.04,17.03c-0.05,4.04-0.71,4.73-4.71,4.73c-2.04,0-4.22,0.53-6.03-0.99c-0.77-1.15-0.73-2.47-0.74-3.76
			c-0.03-6.79-0.03-13.58,0-20.37C968.03,634.96,967.97,633.53,969.01,632.38z"/>
		<path class="st3" d="M851.94,659.94c-6.56,1.4-7.91,0.4-8.02-6.2c-0.07-4.17,0.06-8.32,0.53-12.49c0.53-4.74-0.77-9.47-0.6-14.27
			c0.23-6.39,0.2-12.8-0.04-19.18c-0.07-1.83,1.46-3.56,0.19-5.44c-0.32-0.47,0.29-0.84,0.76-1.07c0.49-0.25,0.95-0.33,1.3,0.2
			c0.97,1.49,2.47,2.89,2.76,4.5c0.45,2.55,2.68,3.6,3.93,5.33c1.45,1.99,3.52,3.52,4.58,5.99c0.74,1.71,1.95,3.34,3.63,4.37
			c0.67,0.41,0.92,0.85,1.11,1.59c1.06,4.2,3.53,7.55,6.45,10.67c0.78,0.83,1.77,1.78,1.62,3.2c-0.15,1.33,0.96,1.65,1.82,1.9
			c0.9,0.25,1.81,0.3,2.78-0.46c3.19-2.51,4.82-6.28,6.94-9.46c1.84-2.76,3.3-6.25,5.53-8.57c2.11-2.2,2.33-6.19,6.09-6.82
			c1.2-1.6,1.39-3.43,1.34-5.36c-0.09-3.23,3.61-7.34,6.7-7.51c0.65-0.04,1.17,0.17,1.31,0.91c0.11,0.59,0.07,1.19,0.07,1.79
			c0,17.94,0,35.87,0,53.81c0,0.68,0.15,1.4-0.27,2.03c-2.17,2.12-4.83,0.97-7.15,0.7c-1.56-0.19-0.93-2.44-0.95-3.7
			c-0.13-8.48-0.09-16.96-0.1-25.44c0-1.28,0.05-2.57-0.46-3.82c-2.72,2.44-5.38,5.02-7.68,7.99c-1.21,1.57-1.02,4.39-3.91,4.54
			c-0.06,0-0.12,0.36-0.15,0.55c-0.57,4.34-3.97,7.23-5.76,10.95c-0.65,1.36-2.4,2.45-4.35,2.03c-1.5-0.33-2.01-1.37-1.93-2.8
			c-0.64-1.67-1.5-3.18-3.07-4.16c-0.18-0.21-0.36-0.43-0.53-0.64c-0.86-1.16-1.8-2.27-2.43-3.59c-1.38-1.54-1.91-3.46-2.37-5.4
			c-1.01-1.01-2.17-1.85-3.09-2.95c-1.39-1.4-2.77-2.8-4.16-4.2c-0.76-0.57-1.27-0.4-1.44,0.54c-0.22,1.16-0.06,2.33-0.01,3.51
			c0.03,7.5,0.01,15,0.01,22.49C852.9,657.38,853.07,658.82,851.94,659.94z"/>
		<path class="st4" d="M1054.23,600.09c0.96-0.07,1.92-0.13,2.88-0.2c1.85-1.09,3.69-1.13,5.51,0.05c0.57,0.04,1.13,0.09,1.7,0.13
			c1.22,1.09,3.05-0.09,4.23,1.15l0.02-0.02c0.77,0.99,2.23,0.22,3.01,1.19c2.51,0.65,4.26,2.99,7.01,3.11
			c0.23,0.01,0.54,0.25,0.65,0.47c1.85,3.96,5.17,6.86,7.48,10.46c0.81,1.26,0.42,3.29,0.58,4.97c0.63,0.94,0.78,1.99,0.78,3.1
			c-0.01,3.65-0.01,7.3,0,10.94c0,1.11-0.13,2.16-0.81,3.08c-0.09,1.58,0.44,3.91-0.39,4.6c-2.94,2.44-2.55,7.45-5.83,8.73
			c-3.34,1.3-5.26,4.71-8.95,5.09c-1.06,0.97-2.83,0.99-3.45,2.56c-6.18,1.56-12.35,1.14-18.6,0.24c-2.18-0.31-1.56-2.91-3.91-3.21
			c-2.49-0.31-4.77-2.14-6.74-3.93c-2.84-2.59-5.31-5.46-6.3-9.31c-1.87-6.73-1.58-13.62-1.43-20.49c0.03-1.29-0.06-2.59,0.87-3.67
			c0.43-2.45,0.38-5.11,2.91-6.63c1.11-0.73,1.69-1.93,2.52-2.92c0.61-1.31,1.89-2.1,2.23-3.78c0.31-1.53,2.42-0.69,3.69-1.09
			c0.75-0.69,1.89-0.84,2.44-1.78c1.58-0.6,3.17-1.21,4.75-1.81C1051.98,600.29,1053.35,600.92,1054.23,600.09z"/>
		<path class="st5" d="M1108.26,604.75c2.35-0.04,4.03,0.27,4.32,3.39c0.13,1.39,2.03,3.07,3.53,3.79c3.07,1.48,5.15,3.69,7.13,6.36
			c0.85,1.14,1.51,3.02,3.4,3.27c0.57,0.07,1.04,0.44,1.1,0.87c0.57,4.03,4.31,5.19,6.8,7.45c0.4,0.36,0.52,0.67,0.73,1.09
			c1.63,3.37,4.94,5.11,7.63,7.38c1.24,1.04,2.57,0.61,2.54-1.75c-0.14-10.99-0.1-21.97-0.09-32.96c0-3.63,0.06-3.51,4.97-3.66
			c2.74-0.09,3.93,0.73,3.91,3.66c-0.09,17.88-0.04,35.76-0.08,53.65c0,1.07,0.61,2.72-1.12,2.89c-1.28,0.12-2.25-0.61-2.86-2.16
			c-0.77-1.94-2.74-3.54-4.33-4.49c-1.49-0.9-1.14-2.92-2.85-3.17c-1.8-1.39-3.19-3.31-5.37-4.21c-0.39-0.23-0.79-0.46-1.18-0.68
			c-0.69-2.08-1.72-3.98-3.17-5.63c-1.59-1.03-3.33-1.86-4.65-3.28c-2.56-2.6-5.7-4.85-7.47-7.9c-1.3-2.22-3.19-2.96-4.93-4.1
			c-1.26-0.82-0.24-2.35-1.46-2.91c-2.59-1.38-2.95-1.2-2.96,1.84c-0.04,10.79-0.01,21.57-0.02,32.36c0,3.73-3.16,5.58-6.63,3.9
			c-1.3-0.63-1.4-1.86-1.43-3.06c-0.08-2.6-0.03-5.19-0.03-7.79c0-13.78,0-27.57,0-41.35c0-0.5-0.02-1,0.01-1.5
			c0.09-1.36-0.32-3.15,1.25-3.7C1106.8,601.7,1107.35,603.64,1108.26,604.75z"/>
		<path class="st4" d="M990.09,633.65c-3.39-0.05-6.77-0.05-10.16-0.19c-1.92-0.08-2.65,0.64-2.63,2.59
			c0.08,6.88-0.08,13.76,0.08,20.63c0.06,2.61-0.66,3.49-3.34,3.32c-4.84-0.3-4.32,0.66-4.36-4.29c-0.06-7.77-0.06-15.55-0.08-23.32
			c-1.1-3.3-0.83-6.74-0.42-10.04c0.33-2.69,0.41-5.33,0.34-8c-1.58-3.43-0.45-7.06-0.74-10.58c-0.1-1.26-0.21-2.63,0.87-3.65
			c1.57-0.01,3.13-0.02,4.7-0.03c3.38,1.28,3.28,1.27,2.84,4.97c-0.61,5.08,0.34,10.12,0.72,15.17c0.14,1.82-0.58,3.82,0.79,5.48
			c8.36,0.04,16.73,0.12,25.09,0.1c2.29-0.01,3.79-0.81,3.69-3.65c-0.18-5.67-0.05-11.35-0.05-17.03c0-5.11,0-5.15,5.24-5.01
			c0.88,0.02,2.32-0.84,2.57,1c0.92,1.09,0.84,2.41,0.84,3.71c0,17.19-0.01,34.38,0.01,51.58c0,1.77-0.12,3.41-1.81,4.47
			c-1.68,0.9-3.48,0.55-5.25,0.48c-2.26-0.25-2.53-1.93-2.57-3.69c-0.07-3.77-0.13-7.53,0.03-11.3c-0.22-3.63,0.23-7.28-0.3-10.89
			c-0.56-1.41-1.81-1.02-2.84-1.04c-3.29-0.06-6.59,0-9.88-0.03C992.31,634.4,991.07,634.59,990.09,633.65z"/>
		<path class="st6" d="M928.98,660.52c-3.06,0.47-6.02-0.77-9.06-0.57c-0.05-2.57-0.11-5.14-0.16-7.71c-1.6-2.85-0.9-5.7-0.02-8.56
			c-0.01-4.51-0.02-9.01-0.04-13.52c-1.6-5.7-0.72-11.5-0.69-17.26c0.08-0.6,0.36-1.11,0.7-1.6c0.01-2.14,0.03-4.29,0.04-6.43
			c0.24-4.87,0.24-4.85,5.26-4.84c2.89,0,5.77-0.05,8.66-0.07c1.58-1.18,3.32-0.88,5.07-0.54c0.34,0.14,0.6,0.36,0.8,0.67
			c0.57,1.7,1.96,1.01,3.09,1.07c0.13,0.03,0.26,0.06,0.4,0.09c1.15,0.53,2.43,0.39,3.62,0.7c2.81,1.04,5.61,2.08,8.25,3.51
			c0.99,3.63,3.36,6.89,2.95,10.9c-0.01,1.74-0.02,3.47,0.01,5.21c0.21,5.78-1.92,10.74-6.43,14.13c-3.2,2.4-6.97,4.25-11.29,4.18
			c-2-0.04-3.99,0-5.99,0.02c-4.3,0.02-4.42,0.13-4.43,4.31c-0.02,4.19,0.01,8.39-0.01,12.58
			C929.68,658.06,929.84,659.39,928.98,660.52z"/>
		<path class="st3" d="M764.4,641.99c-0.4-4.06-3.68-5.56-6.63-7.21c-2.37-1.32-5.07-2.08-7.49-3.21c-3.34-1.57-7.18-3.04-9.24-6.26
			c-2.02-3.17-2.84-6.93-2.67-10.88c0.14-3.07,1.24-5.79,2.18-8.6c0.09-0.27,0.26-0.6,0.48-0.73c6.58-3.72,13.44-6.44,21.19-4.91
			c2.68,0.53,5.27,1.62,7.86,2.55c1.59,0.57,2.61,3.41,1.63,4.86c-0.33,0.49-0.47,1.03-0.8,1.47c-0.83,1.12-1.29,4.28-3.15,0.63
			c-0.19-0.37-1.07-0.38-1.63-0.56c-0.89-1.37-2.62-0.27-3.64-1.25l0.03,0.01c-2.36-2.36-7.53-2.4-10.08-0.06l0.02-0.01
			c-1.1,0.78-2.76,0.58-3.49,1.99c-1.2,2.37-3.26,4.58-1.25,7.48l-0.01-0.01c0.79,1.37,1.67,2.66,2.85,3.73
			c0.42,0.19,0.84,0.38,1.25,0.56c1.21,0.79,1.74,2.3,3.1,2.93c3.11,1.38,6.77,1.36,9.39,4.03c1.27,1.3,3.24,1.56,4.67,3.04
			c1,1.03,1.65,1.94,2.03,3.21c2.65,4.14,2.15,8.77,2.06,13.34c-0.02,0.82-0.28,1.57-0.89,2.16c-1.12,2.98-2.65,5.61-5.91,6.71
			c-0.95,0.63-1.72,1.48-2.47,2.32c-4.87,1.76-9.9,1.29-14.88,0.85c-1.62-0.14-3.38,0.08-4.92-0.77c-0.73-1.18-1.96-1.7-3.08-2.36
			c-1.61-0.63-3.67-0.94-4.01-2.93c-0.23-1.35-0.22-3.12,1.66-3.79c0.83-0.61,1.66-0.61,2.49,0.02c3.3-0.51,5.72,2.14,8.94,2.36
			c3.13,0.21,6.13-0.23,9.18-0.49c1.34-0.11,1.57-2.53,3.44-1.85C765.68,646.7,766.1,644.74,764.4,641.99z"/>
		<path class="st3" d="M830.97,604.71c-0.38,0.71-1.81,0.07-1.76,1.23c0.15,3.01-2.18,4.37-3.85,6.27
			c-0.89,1.02-1.13,2.61-1.67,3.94c-0.58,1.16-1.55,2.06-2.2,3.18c0.09,1.03-0.1,1.99-0.77,2.81c-0.75,0.71-0.98,1.76-1.67,2.51
			c-1.71,2.63-1.47,6.27-3.76,8.44c-1.84,1.75-1.95,4.29-3.81,6.08c-1.19,1.15-1.06,3.88-1.15,5.92c-0.19,4.18-0.23,8.38-0.14,12.57
			c0.04,2-0.45,2.8-2.64,2.77c-5.44-0.06-5.49,0.05-5.61-5.42c-0.1-4.19,0.07-8.38-0.11-12.56c-0.13-3.01-1.14-5.6-2.66-8.44
			c-1.81-3.37-4.33-6.63-5.04-10.72c-0.48-2.77-3.02-4.73-4.5-7.14c-0.94-1.31-1.09-3.08-2.47-4.13c-1.13-0.48-1.23-1.42-1.13-2.47
			c0.26-2.72-1.17-4.74-2.97-6.46c-0.89-0.85-0.93-1.86-0.63-2.64c0.28-0.72,1.42-0.33,2.18-0.35c1.5-0.05,3,0.1,4.49-0.02
			c2.27-0.18,3.82,0.45,4.07,2.96c0.98,1.5,1.72,3.12,2.33,4.8c0.18,0.64-0.16,1.46,0.65,1.87c0.86,0.56,0.97,1.76,1.94,2.22
			c3.23,3.55,3.23,8.48,5.35,12.49c0.72,1.35,1.93,2.42,2.81,3.74c0.78,1.18,3.59-0.99,3.73-3.3c0.15-2.44,1.97-4.12,2.61-6.01
			c1.39-4.06,5.34-6.82,5.4-11.38c0.01-0.4-0.09-1.08,0.08-1.15c2.3-1.03,2.72-3.67,4.49-5.14c2.39-1.12,4.96-0.77,7.34-0.4
			C832.32,601.15,831.85,603.05,830.97,604.71z"/>
		<path class="st3" d="M1214.35,604.74c-1.92,0.88-0.69,3.04-1.73,4.28c-0.93,0.55-1.06,1.71-1.82,2.39
			c-0.33,0.67-1.1,0.84-1.43,1.69c-1.19,3.08-3.21,5.8-4.02,9.06c-1.28,0.84-0.66,2.66-1.83,3.55c-1.99,0.5-1.73,2.15-1.84,3.61
			c-0.73,0.69-0.93,1.77-1.75,2.39c-1.44,0.57-1.55,2.21-2.02,3.23c-1.46,3.24-3.47,6.3-2.98,10.33c0.5,4.12,0,8.36,0.12,12.54
			c0.05,1.97-0.64,2.75-2.58,2.55c-0.89-0.09-1.79-0.01-2.68-0.03c-1.7-0.03-2.65-0.51-2.55-2.59c0.18-3.88,0.02-7.77,0.01-11.65
			c-0.01-3.04-0.1-5.84-2.54-8.38c-1.37-1.42-1.59-4.04-2.32-6.06c-0.98-2.69-3.18-4.46-4.03-7.07c-0.73-0.73-1.05-1.74-1.65-2.56
			c-0.76-2.78-2.72-5.13-3.01-8.07c-0.12-1.15-1.27-1.13-1.63-1.7c-1.81-2.91-3.57-5.89-4.52-9.23c-0.56-0.91-0.49-1.7,0.52-2.23
			c2.2-1.16,6.99,0.11,8.41,2.21c4.22,3.86,6.51,8.73,7.92,14.21c0.42,1.61,1.94,2.94,2.95,4.4c1.07,1.45,0.8,3.6,2.46,4.75
			c0.83,0.38-0.06,2.33,1.27,1.84c1.31-0.49,2.48-1.66,3.02-3.08c0.41-1.09,0.67-2.28,0.76-3.44c0.16-1.93,2.2-2.64,2.63-4.35
			c1.15-0.67,0.3-2.21,1.27-2.95c-0.18-2.29,2.7-2.18,3.2-4.27c0.48-1.99-0.35-5.09,3.26-5.62c0.59-0.09,0.88-2.16,1.3-3.32
			c2.14-1.05,4.43-0.6,6.63-0.46C1215.11,600.83,1215.37,601.98,1214.35,604.74z"/>
		<path class="st7" d="M1015.24,499.87c-0.15,0.74,0.25,1.9-0.7,2.09c-2.66,0.52-4.34,3.04-7.09,3.29c-1.93,2.03-3.76,4.39-5.83,6
			c-1.83,1.42-3.3,2.81-4.46,4.71l-0.03-0.01c-2.69,0.53-3.52,3.19-5.15,4.83c-1.69,1.69-3.18,3.74-4.61,5.75
			c-1.01,1.41-1.7,2.85-2.02,4.57c-0.45,2.39-2.64,3.62-4.04,5.37c-0.49,0.61-1.41,0.98-1.55,1.77c-0.65,3.77-3.6,6.29-5.1,9.6
			c-1.49,3.41-2.31,7.19-5.29,9.76c-0.91,0.78-1.64,2.5-3.34,1.13c-0.76-1.24-0.97-2.63-0.89-4.03c0.29-4.83-0.78-9.73,0.65-14.5
			c0.95-0.76,1.4,0.18,1.98,0.61c2.23,1.68,2.4,1.61,3.33-1.11c0.73-2.15,1.56-4.29,1.9-6.54c1.07-7.02,5.54-12.02,9.84-17.21
			c2.16-2.61,4.61-4.85,6.96-7.24c3.57-2.94,7.21-5.75,11.55-7.52c1.13-0.46,1.7-1.62,2.38-2.59c1.05-1.9,2.49-3.13,4.71-3.7
			c2.41-0.62,4.48-2.2,6.12-4c2.05-2.25,4.31-3.92,7.24-4.71c0.47-0.13,0.67-0.71,1.08-0.98c1.37-0.72,2.4-1.72,2.81-3.29
			c0.18-0.68,0.55-1.33,1.17-1.68c4.79-2.73,7.94-7.03,11.02-11.4c0.54-0.77,1.04-1.53,2.14-0.83c2.82,3.61,2.62,6.89-0.22,10.64
			c-1.46,1.93-1.91,4.71-3.67,6.66c-0.16,0.05-0.33,0.1-0.49,0.15c-3.25,2.52-6.64,4.87-9.47,7.89c-0.91,0.97-2.06,1.4-3.28,1.9
			c-1.87,0.77-4.1,1.22-5.13,3.33C1017.23,499.66,1015.96,499.21,1015.24,499.87z"/>
		<path class="st8" d="M1007.26,646.21c0.05,4.06,0.14,8.12,0.12,12.18c-0.01,1.39,0.27,2.3,1.84,2.32
			c1.59,0.82,2.47,2.55,4.31,3.11c1.15,0.35,1.16,1.54,0.9,2.55c-0.29,1.16-0.53,2.34-0.87,3.46c-0.98,3.21-2.13,6.37-2.56,9.73
			c-0.05,0.39-0.26,0.81-0.6,1.01c-1.98,1.2-2.35,3.05-2.25,5.15c0.03,0.72-0.27,1.36-0.71,1.93c-0.05,0.35-0.1,0.7-0.15,1.06
			c-2.06,0.89-3.7,2.1-4.07,4.57c-0.16,1.08-1.27,1.38-2.21,1.76c-2.47,0.98-5.02,1.86-6.8,4c-3.18,3.82-7.63,4.19-12.08,4.35
			c-2.45,0.09-4.96,0.43-7.38-0.4c-0.71-0.49-0.54-1.02,0.07-1.38c3.96-2.37,7.33-5.53,11.06-8.22c2.83-2.04,4.8-4.85,6.08-8.11
			c0.36-0.67,0.96-1.09,1.5-1.57c2.73-4.12,4.59-8.64,6.27-13.26c0.13-0.27,0.3-0.52,0.5-0.74c1.62-1.79,1.24-4.15,1.29-6.15
			c0.08-3.43,0.3-7.01-1.26-10.29c-0.22-0.21-0.4-0.47-0.53-0.75c-0.55-3.23-2.47-5.75-4.36-8.26c-1.26-1.67-2.02-3.36-1.26-5.45
			c2.67-1.17,4.81-0.48,6.97,1.46C1003.22,642.19,1004.95,644.5,1007.26,646.21z"/>
		<path class="st9" d="M902.42,659.4c-0.03-15.75-0.06-31.5-0.09-47.26c-0.01-3.09,0.01-6.18,0-9.27c0-0.57,0.12-1.27-0.64-1.49
			c-0.56-0.16-0.97,0.19-1.17,0.68c-0.55,1.34-2.09,1.09-3.1,1.95c-2.11,1.81-2.24,3.81-2.3,6.18c-0.03,1.37-0.62,2.69-1.85,3.56
			c0.26-1.96,1.45-3.81,0.68-5.88c-0.71-0.73-0.89-1.84-1.75-2.46c-4.97,0.01-8.71-2.83-12.49-5.49c-2.65-1.86-5.25-3.8-8.56-4.13
			c-1.56-0.15-1.73-1.38-2.42-2.24c-1.36-0.71-2.86-1.09-4.18-1.89l0.01,0.01c-0.86-1.32-1.25-3.01-2.95-3.66
			c-2.19,0.13-2.49-2.08-3.47-3.19c-1.46-1.66-3.75-3.16-3.74-5.62c0.01-1.99-2.43-1.47-2.46-3.09c-1.3-3.42-0.82-4.51,1.92-4.33
			c0.13,4.18,4.02,5.33,6.38,7.64c1.4,1.37,3.2,2.34,3.78,4.34c0.46,1.58,2.01,1.3,2.92,1.57c2.75,0.82,3.76,4.66,7.24,3.97
			c0.77,0.82,1.53,1.64,2.47,2.27l-0.01-0.01c3.05,1.34,5.61,3.76,9.09,4.16c3.66,0.11,6.61,1.57,9.45,3.95
			c2.21,1.85,5.09,1.78,7.68-0.71c0,7.29,0,14.3,0,21.32c0,11.48,0.02,22.96-0.01,34.45C902.83,656.28,903.13,657.89,902.42,659.4z"
			/>
		<path class="st10" d="M1108.26,604.75c-1.5,0.09-1.68-2.83-3.23-1.76c-1.09,0.76-0.41,2.59-0.42,3.93
			c-0.04,16.37-0.03,32.74-0.03,49.1c0,3.17,2.99,4.81,5.81,3.21c1.15-0.65,0.69-1.79,0.7-2.69c0.04-10.88,0.03-21.76,0.03-32.64
			c0-0.6-0.09-1.22,0.02-1.79c0.2-1.04-0.59-2.56,1.25-2.89c1.96-0.34,1.82,1.38,2.37,2.43c-2.01-0.67-2.54,0.1-2.52,2.13
			c0.09,10.97-0.04,21.95,0.1,32.92c0.04,2.83-0.8,3.85-3.68,3.8c-6.07-0.11-6.08,0.02-6.08-6c0-16.56,0-33.12,0.04-49.68
			c0-2.13-0.22-4.32,1.09-7.06C1104.3,601.23,1108.28,601.48,1108.26,604.75z"/>
		<path class="st10" d="M919.78,612.56c-0.03,5.87-0.05,11.74-0.08,17.61c-0.28-0.09-0.8-0.19-0.8-0.26
			c0.19-3.18-3.99-4.13-3.76-7.33c0.01-0.19-0.54-0.51-0.87-0.61c-5.83-1.77-7.49-6.03-7.04-11.61c0.1-1.19-0.02-2.39,0.05-3.58
			c0.04-0.6-0.35-1.75,0.65-1.59c0.7,0.12,2.35-0.3,2.12,1.34c-0.23,1.63,0.91,1.95,1.95,2.46
			C914.42,610.55,916.76,612.3,919.78,612.56z"/>
		<path class="st11" d="M966.58,540.07c-1.05,0.98-0.6,2.25-0.56,3.37c0.16,5.24-0.52,10.51,0.65,15.7
			c1.91,2.78,0.03,5.57,0.01,8.36c-0.44,1.21,0.22,2.59-0.6,3.74c-0.85-0.66-0.87-1.62-0.92-2.57c-1-7.93-0.74-15.97-1.54-23.86
			c-0.59-5.83-0.61-11.62-0.9-17.42c-0.05-0.93-0.16-1.77-0.85-2.45c-0.05-4.33-0.1-8.67-0.15-13c-1.34-2.69-0.96-5.44-0.35-8.21
			c2.22-1.77,2.78-0.09,2.97,1.61c0.33,2.84,0.26,5.72,0.08,8.56c-0.15,2.41,0.81,2.78,2.78,2.15c1.47,1.97-0.89,3.5-0.61,5.33
			c-0.57,5-0.07,10.01,0.01,15.01C966.9,537.63,967.56,538.85,966.58,540.07z"/>
		<path class="st12" d="M982.61,366.12c-3.08-0.05-6.16,0.25-9.17-0.83c-1.67-0.6-3.65-0.06-4.82,0.88
			c-2.98,2.39-6.29,1.56-9.51,1.61c-6.8,0.1-6.8,0.03-7.7-6.64c-0.73-5.42,0.59-6.99,6.05-7.09c2.39-0.05,4.8,0.12,7.18-0.1
			c1.73-0.16,3.39,0.72,3.85,1.71c1.89,4.06,4.81,5.36,9,4.45c-1.36,1.08-0.34,3.31-2.23,4.07c2.99,2.33,6.53,0.49,9.51,1.8
			C984.08,366.64,983.35,366.51,982.61,366.12z"/>
		<path class="st13" d="M916.27,387.11c-0.24-1.23,0.24-1.73,1.51-1.99c4.16-0.85,8.35-0.67,12.52-0.41
			c2.91,0.18,3.18,3.42,3.07,4.99c-0.69,10.58,2.17,20.87,2.12,31.4c-0.06,15.06,0.37,30.11,0.6,45.17c0.03,2-0.12,3.95-0.62,5.9
			c-0.33,1.26-1.03,1.27-1.99,1.14c0.02-0.93-0.58-2.22,0.73-2.57c1.45-0.39,1.19-1.39,1.19-2.32c-0.01-5.78,1-11.81-0.28-17.3
			c-3.05-13.09-0.11-26.3-1.84-39.28c-0.91-6.83-0.49-13.59-0.95-20.36c-0.14-2.01-1.43-3.57-1.77-5.48
			c-0.04-0.23-0.36-0.62-0.5-0.6c-3.06,0.4-6.31-1.44-9.22,1.05C919.65,387.48,917.83,387.1,916.27,387.11z"/>
		<path class="st14" d="M1013.97,660.49c1.52-0.73,1.19-2.12,1.19-3.38c0.01-18.07,0.01-36.13,0.02-54.2c0-0.6,0.05-1.19,0.07-1.79
			c2.27-0.35,1.71,1.34,1.71,2.49c0.03,10.15,0.03,20.31,0.03,30.46c0,7.96-0.05,15.93,0.03,23.89c0.01,1.49-0.22,2.49-1.85,2.71
			C1014.71,660.95,1014.31,660.89,1013.97,660.49z"/>
		<path class="st15" d="M982.61,366.12c0.72-0.05,1.44-0.1,2.15-0.14c1.22,2.32,0.48,3.61-2.1,3.59c-2.94-0.02-5.66,0.27-8.12,2.23
			c-1.17,0.93-3.07,0.65-4.35,0.09c-4.09-1.76-7.98-0.66-12.12-0.26c-4.4,0.42-3.58,2.82-3.59,5.33
			c-0.02,6.97,0.01,13.94,0.02,20.91c-1.61,0.05-1.63-1.03-1.64-2.21c-0.01-3.29,0-6.58-0.13-9.87c-0.1-2.53-0.31-5.02-0.83-7.57
			c-1.07-5.31,0.52-7.91,6.31-8.5c3.36-0.34,6.78-0.16,10.17-0.13c1.05,0.01,2.21-0.16,3.08,0.78c0.53,0.57,1.39,0.73,1.94,0.37
			c2.71-1.8,5.6-2.55,8.88-2.51C983.76,368.24,982.47,366.85,982.61,366.12z"/>
		<path class="st16" d="M919.74,643.69c0.01,2.85,0.01,5.71,0.02,8.56c-2.55-0.81-4.85,0.48-7.26,0.85
			c-4.7,0.73-5.23,0.32-5.24-4.32c-0.01-2.89,0.01-5.78,0.03-8.67c0-0.29,0.11-0.58,0.17-0.86c2.67-0.37,2.73,1.31,2.76,3.24
			c0.07,4.4,1.36,5.45,5.61,5c1.55-0.17,2.61-0.77,2.86-2.36C918.8,644.42,918.75,643.71,919.74,643.69z"/>
		<path class="st17" d="M974.55,702.54c5.23,0.05,10.46,0.25,15.58-1.18c0.55-0.15,1.16-0.04,1.52-0.7c2.06-3.8,5.63-5.47,9.55-6.44
			c1.4-0.35,1.5-1.28,1.55-2.16c0.18-3.04,1.97-3.67,4.55-3.35c0.18,1.53,0.31,3.03-1.76,3.37c-1.49,0.24-1.5,1.85-1.93,2.67
			c-1.62,3.06-6.04,1.34-7.11,4.19c-1.31,3.51-5.22,2.57-7.2,5.02c-0.86,1.07-3.54,0.86-5.4,0.9c-4.77,0.11-9.54,0.05-14.31,0.05
			c0.35-1.47,1.79-1.83,2.74-2.7C973.12,701.91,973.87,701.98,974.55,702.54z"/>
		<path class="st18" d="M851.99,554.97c0.97-0.62,1.94-1.23,2.91-1.85c2.59-0.45,5.13-1.34,7.82-1.08c0.62,0.42,1.23,0.84,1.85,1.25
			c2.17,1.9,2.98,4.62,1.92,6.44c-1.14,1.96-3.94,2.76-6.76,1.94l0.01,0.01c-2.18-1.7-4.24-3.51-7.43-2.22
			c-1.31,0.53-2.27-0.3-1.48-1.77C851.32,556.8,851.25,555.71,851.99,554.97z"/>
		<path class="st19" d="M1013.97,660.49c0.4,0.06,0.8,0.12,1.2,0.18c-0.01,4.47-0.06,8.94-0.01,13.4c0.04,3.3-0.9,6.12-3.63,8.14
			c-0.92,0.68-0.51,1.62-0.65,2.45c-0.34,1.96-1.07,3.38-3.43,3c-0.01-1.59-0.04-3.19-0.04-4.78c0-0.69-0.11-1.57,0.74-1.77
			c2.49-0.56,2.44-2.57,2.6-4.42c0.3-3.6,2.18-6.73,2.93-10.2c0.2-0.9,0.6-2.18-0.6-2.13c-2.75,0.11-2.86-2.16-3.86-3.65
			C1010.8,660.63,1012.38,660.56,1013.97,660.49z"/>
		<path class="st20" d="M1039.72,468.18c-1.01,1.82-2.94,2.81-3.86,4.86c-0.78,1.73-2.36,3.38-4,4.38
			c-1.62,0.99-2.41,3.01-4.55,3.31c-0.85,0.12-0.95,1.32-1.05,2c-0.28,2.01-1.44,2.68-3.26,2.68c-0.65,0.48-1.28,0.55-1.88-0.1
			c1.96-0.03,1.79-2.05,2.71-3.05c2.13-2.29,4.16-4.72,6.6-6.63c2.88-2.25,4.18-5.75,7.07-8.01c1.28-1,1.83-3.2,2.26-4.96
			c0.85-3.47,3.1-6.97,0.24-10.6c-0.35-0.45-0.13-1.34-0.18-2.03c2.01,2.54,4.24,4.91,3.55,8.66c-0.35,1.9-2.05,2.94-2.42,4.9
			c-0.2,1.02-0.43,2.17-0.65,3.26C1040.38,467.41,1040.25,467.88,1039.72,468.18z"/>
		<path class="st21" d="M851.99,554.97c0.33,1.41-0.17,2.66-1.57,4.74c4.34-1.98,7.45-1.89,9.32,1.97c-1.02,0.08-1.79-0.07-2.5-1.07
			c-1.14-1.6-2.93-0.92-4.41-0.53c-1.43,0.38-0.82,1.81-0.96,2.8c-0.11,0.78,0.08,1.61-0.05,2.39c-0.42,2.53,0.71,4.54,2.04,6.5
			c-3.28,0.27-1.22,2.91-1.92,4.33c-2.31-0.72-2.87-2.48-3.24-4.69c-0.72-4.35-1.29-8.61,0.16-12.95
			C849.45,556.71,850.83,556.02,851.99,554.97z"/>
		<path class="st22" d="M974.37,547.74c-0.5-2.96,2.66-3.98,3.34-6.28c1.12-3.83,3.36-6.78,6.55-9.1c0.24-0.18,0.31-0.73,0.29-1.1
			c-0.17-3.53,2.6-5.48,4.35-7.92c1.55-2.15,3.25-4.21,5.22-6.07c1.01-0.96,1.82-1.3,3.01-1.32c-0.63,0.77-1.57,1.06-1.96,2.3
			c-0.92,2.93-4,4.35-5.58,6.98c-0.45,0.75-1.4,1.34-1.63,2.44c-1.02,5-4.21,8.77-7.69,12.12c-1.4,1.35-1.1,2.81-1.68,4.15
			c-1.04,2.39-3.28,3.9-4.18,6.32C973.64,549.43,973.81,548.59,974.37,547.74z"/>
		<path class="st23" d="M978.73,340.74c-1.76,0.36-2.92-1.38-4.76-1.2c-2.14,0.22-3.72,0.85-4.8,2.79
			c-1.66,2.96-3.63,5.36-7.69,4.65c-1.56-0.27-3.24,0.18-4.9,0.57c-2.41,0.57-5.42-0.41-6.77-2.34c-1.11-1.59-1.31-4.13,0.57-6.43
			c1.67-2.05,1.25-5.09,1.24-7.77c-0.01-2.17,0.43-4.09,3.03-4.54c-0.11,0.9,0.5,2.11-0.98,2.44c-0.83,0.19-0.8,0.85-0.74,1.39
			c0.38,3.5-0.92,6.67-1.76,9.95c-0.26,1.02-0.06,2.17,0.05,3.25c0.17,1.59,0.95,2.33,2.73,2.23c2.98-0.17,5.99-0.24,8.96-0.04
			c2.11,0.14,3.42-0.82,3.97-2.51c0.84-2.56,2.37-4.06,5.01-4.22c1.5-0.09,1.01-1.49,1.96-2.32c0.19,2.19,1.77,2.41,3.34,2.76
			C977.87,339.54,978.94,339.48,978.73,340.74z"/>
		<path class="st24" d="M965.92,568.68c0.05,0.85,0.1,1.71,0.15,2.56c0.37,8.99,0.78,17.98,1.06,26.97
			c0.05,1.46,0.57,1.95,1.88,1.91c0.61,3.57,0.13,7.16,0.27,10.74c0.03,0.76-0.17,1.41-1.1,1.45c-1.13,0.05-1.22-0.71-1.28-1.58
			c-0.13-1.98,0.35-3.99-0.28-5.94c-0.25-6.84,0.4-13.86-1.02-20.45c-1.13-5.24-1.23-10.31-1.35-15.5
			C964.76,568.32,965.32,568.25,965.92,568.68z"/>
		<path class="st25" d="M1026.61,441.6c-5.18,0.74-10.12-1.69-15.31-1.12c-3.98,0.44-7.87,1.38-11.78,1.96
			c-3.19,0.47-6.21,2.14-9.55,1.56c0.57-1.72,2.48-2.08,3.57-2.13c2.77-0.13,5.43-0.99,7.94-1.65c6.4-1.68,12.75-0.67,19.11-0.8
			C1022.7,439.36,1024.99,439.82,1026.61,441.6z"/>
		<path class="st15" d="M923.38,321.6c-0.6,3.53,1.24,5.61,4.19,7c0.81,0.38,1.22,0.95,1.21,1.85c-0.09,4.55,2.67,8.41,3.25,12.71
			c0.59,4.41,1.3,9.02-0.79,13.39c-0.44,0.91-0.96,1.16-1.82,1.09c-0.35-0.38-0.36-0.75,0.01-1.13c2-0.6,1.5-2.56,1.58-3.75
			c0.23-3.25,0.2-6.53-0.08-9.82c-0.23-2.7-1.9-4.77-2.59-7.28c-0.54-1.94-0.02-4.56-2.46-5.98c-1.4-0.82-2.33-2.41-3.59-3.52
			c-1.22-1.08-0.61-2.38-0.64-3.59C921.59,321.33,922.64,321.66,923.38,321.6z"/>
		<path class="st26" d="M1015.24,499.87c0.21-0.7,1.19-0.53,1.38-0.98c1.3-3.14,4.45-3.29,6.88-4.71c1.75-1.02,4.56-1.62,4.89-4.48
			c0.02-0.2,0.06-0.55,0.13-0.56c2.76-0.5,4.33-3.28,7.13-3.69c-0.03,1.1,0.13,2.34-1.53,2.35c-2.04,0.02-1.06,2.3-2.35,3.01
			c-2.56,1.4-4.5,3.81-7.41,4.68c-0.47,0.14-0.98,0.16-1.27,0.67C1021.34,499.23,1018.62,500.26,1015.24,499.87z"/>
		<path class="st27" d="M929.3,705.05c3,0.21,5.85,0.33,8.94,1.23c4.57,1.33,9.98,1.05,14.72,0.02c2.36-0.51,4.63-1.36,7.12-1.21
			c0.43,0.58,0.4,1.12-0.14,1.61c-7.68,1.7-15.46,1.39-23.25,1.26c-2.4-0.04-4.39-1.57-6.8-1.42
			C929.17,706.58,929.46,705.57,929.3,705.05z"/>
		<path class="st28" d="M881.97,541.14c-0.01,7.66-0.03,15.31-0.04,22.97c-0.98-0.01-1.64-0.18-1.69-1.47
			c-0.12-3.01-0.15-5.98-0.98-9c-1.09-3.94,1.47-7.82,1.22-11.89C880.43,541.03,881.46,541.37,881.97,541.14z"/>
		<path class="st29" d="M851.94,659.94c0.02-9.19,0.05-18.37,0.07-27.56c0.55-0.47,1.13-0.54,1.72-0.08
			c0.02,8.47,0.03,16.95,0.07,25.42C853.82,659.06,853.73,660.18,851.94,659.94z"/>
		<path class="st30" d="M974.37,547.74c0.02,0.84,0.04,1.68,0.05,2.52c-1.21,3.6-1.52,7.38-4.31,10.6c-1.44,1.66-2.93,4.1-3.44,6.65
			c0-2.79,0-5.57-0.01-8.36c3.38-2.78,5.72-6.21,6.61-10.55C973.39,548.01,973.88,547.86,974.37,547.74z"/>
		<path class="st31" d="M1032.56,619.13c0.08,8.06-0.25,16.12,0.56,24.16c-3.62-7.23-3.2-14.85-2.29-22.55
			C1030.98,619.48,1031.28,618.92,1032.56,619.13z"/>
		<path class="st32" d="M1039.72,468.18c0.1-0.49,0.03-1.05,0.59-1.33c3.71,3,4.19,7.76,1.06,11.03c-1.18,1.23-1.54,2.78-1.53,4.29
			c0.01,2.71-1.27,3.51-3.7,3.13c0.26-2.93,2.03-5.28,3.47-7.6c1.63-2.63,2.13-4.6,0.5-7.5
			C1039.78,469.63,1039.84,468.86,1039.72,468.18z"/>
		<path class="st33" d="M956.94,444.64c-0.66-0.12-1.04-0.48-1.1-1.18c-0.83-10.22-1.83-20.44-1.18-30.72
			c0.31,0.2,0.79,0.33,0.9,0.61c0.17,0.44,0.14,0.98,0.11,1.47C955.03,424.8,957.49,434.66,956.94,444.64z"/>
		<path class="st34" d="M978.7,625.71c-1.67-0.11-1.35-1.41-1.44-2.44c-0.48-5.54-0.57-11.11-0.39-16.66
			c0.09-2.63,0.36-5.13-2.52-6.53c3.92-0.23,4.92,1.14,3.64,4.81c-0.84,2.39-0.8,5.02-0.25,7.3
			C978.81,616.7,978.13,621.23,978.7,625.71z"/>
		<path class="st35" d="M1087.28,638.52c0.01-5.71,0.02-11.42,0.03-17.13c1.37-0.24,1.67,0.49,1.7,1.7
			c0.11,4.56,0.27,9.12-0.06,13.69C1088.86,637.99,1088.58,638.65,1087.28,638.52z"/>
		<path class="st36" d="M997.16,515.96c0.03-2.54,0.59-4.66,3.72-4.82c0.89-0.05,0.97-0.73,1.18-1.42c0.82-2.63,3.22-3.42,5.39-4.46
			c1.2,3.05-2.06,3.2-3.24,4.48C1002.12,512.02,1000.77,515.36,997.16,515.96z"/>
		<path class="st37" d="M908.35,363.08c1.85-0.51,3.72-0.68,5.62-1.34c5.24-1.84,10.99-1.84,16.56-0.39
			c-2.79-0.02-5.57-0.04-8.36-0.05c-2.86-0.01-5.2,1.21-7.28,3.09C913.37,365.78,908.83,364.85,908.35,363.08z"/>
		<path class="st38" d="M772.18,650.31c0.21-5.21,0.16-10.41-1.17-15.5c1.15,1.03,2.84,1.71,2.88,3.55
			c0.08,3.55-0.03,7.11,0.04,10.66C773.95,650.44,773.02,650.24,772.18,650.31z"/>
		<path class="st34" d="M966.62,604.79c1.16,1.71,0.32,3.64,0.58,5.45c0.09,0.67-0.04,1.57,0.92,1.55c0.94-0.03,0.85-0.93,0.86-1.6
			c0.02-3.36,0.03-6.71,0.04-10.07c0.21,0,0.43-0.01,0.64-0.01c-0.04,4.74-0.09,9.49-0.13,14.23c-0.17,0.55-0.33,1.1-0.49,1.65
			c-0.31,1.02,0.66,2.82-0.96,2.93c-1.45,0.09-0.88-1.73-1.08-2.65C966.21,612.48,966.71,608.62,966.62,604.79z"/>
		<path class="st39" d="M966.54,452.34c0.06,1.53-1.21,1.21-2.06,1.54c-1.08,0.42-2.42,0.2-2.88,1.98
			c-0.36,1.36-2.54,0.99-3.39-0.38c-1.8-2.89-1.26-6.03-1.15-9.13c2.11,0.73,0.96,2.52,1.06,3.77c0.28,3.62,2.31,4.96,5.44,3.04
			C964.59,452.52,965.52,452.49,966.54,452.34z"/>
		<path class="st40" d="M752.45,607.84c-0.32-1.79,0.35-2.58,2.24-2.47c1.89,0.11,3.79,0.12,5.67,0.01
			c1.93-0.11,2.51,0.76,2.17,2.52C759.17,607.88,755.81,607.86,752.45,607.84z"/>
		<path class="st41" d="M929.41,356.51c0,0.38,0,0.75-0.01,1.13c-5.65,0.76-11.3,0.94-16.98,0.13c-1.52-0.22-3.13,0.22-4.7,0.35
			c1.75-3.01,4.8-2.18,6.79-1.31c3.08,1.35,6.13,1.04,8.9,0.42C925.44,356.78,927.4,356.68,929.41,356.51z"/>
		<path class="st42" d="M889.7,521.24c0.73,2.31-1.55,3.42-2.18,5.22c-0.73,2.07-1.92,3.97-2.29,6.24
			c-0.14,0.86,0.25,2.42-1.48,2.48c-0.53-5.04,2.52-8.96,4.16-13.32C888.26,520.97,889.07,521.33,889.7,521.24z"/>
		<path class="st43" d="M910.15,494.32c-2.53,4.27-5.07,8.54-10.17,10.27c-0.02-2.51,2.57-3.17,3.83-4.52
			c1.21-1.29,2.59-2.44,3.46-4.08C907.86,494.87,908.76,494.14,910.15,494.32z"/>
		<path class="st44" d="M1214.35,604.74c0.54-3.02-0.83-4-3.7-3.62c-1.35,0.18-2.74,0.04-4.12,0.04c0.02-0.49-0.02-1.11,0.63-1.11
			c3.05-0.04,6.1-0.02,9.15,0c1.53,0.01,1.2,1.67,0.93,1.83C1216.01,602.61,1215.81,604.32,1214.35,604.74z"/>
		<path class="st45" d="M943.25,305.38c-2.62,0.02-5.23,0.04-7.85,0.06c0.52-4.44,3.99-1.72,6.03-2.38
			C943.3,302.44,943.47,303.94,943.25,305.38z"/>
		<path class="st46" d="M859.73,561.67c1.49-0.57,3.14,0.48,4.69-1.06c2.49-2.47,2.76-3.46,0.38-6.18
			c-0.22-0.25-0.16-0.75-0.22-1.13c1.42-0.55,1.93,0.29,2.34,1.44c0.29,0.81-0.01,1.66,1.18,2.39c1.4,0.86-0.91,0.74-1.15,1.79
			c-0.76,3.26-3.41,4.53-6.47,3.83C859.85,562.6,859.72,562.2,859.73,561.67z"/>
		<path class="st16" d="M830.97,604.71c0.52-3.03-0.91-3.9-3.72-3.56c-1.53,0.19-3.11,0.02-4.67,0.02c-0.12-1.24,0.8-1.16,1.57-1.17
			c1.98-0.04,3.96-0.09,5.93,0.01c0.88,0.05,2.4-0.62,2.51,0.64C832.71,602.06,832.91,603.93,830.97,604.71z"/>
		<path class="st47" d="M982.86,354.1c0.01-2.87,0.02-5.73,0.02-8.6c0.79-0.07,1.43-0.2,1.76,0.95c0.65,2.27,0.26,4.48,0,6.71
			C984.51,354.35,983.63,354.12,982.86,354.1z"/>
		<path class="st48" d="M1176.48,603.01c-1.91-2.22-4.51-1.76-7-1.85c-1.4-0.05-1.96,0.54-1.93,1.86c-1.8,0.05-1.42-1.56-1.43-2.36
			c-0.02-1.12,1.22-0.64,1.9-0.67c1.68-0.08,3.37,0.1,5.04-0.05C1175.42,599.73,1176.55,600.65,1176.48,603.01z"/>
		<path class="st49" d="M1036.13,447.05c-3.08-1.97-7.04-2.43-9.53-5.44C1030.43,442.28,1034.3,442.87,1036.13,447.05z"/>
		<path class="st50" d="M900.19,361.16c2.09,0.01,4.18,0.04,6.26,0.02c1.34-0.02,2.11,0.44,1.89,1.92
			c-2.35-0.02-4.71-0.14-7.05-0.03c-1.39,0.06-1.98-0.46-2.04-1.77C899.53,361.01,899.84,360.96,900.19,361.16z"/>
		<path class="st51" d="M918.63,485.47c-0.03,1.01-0.12,2.03-1.36,2.28c-1.13,0.23-1.58,0.89-1.75,2c-0.31,2-1.51,2.81-3.52,2.26
			c0.4-2.95,3.71-3.77,4.7-6.34C916.8,485.39,917.96,485.52,918.63,485.47z"/>
		<path class="st41" d="M900.19,361.16c-0.31,0.05-0.63,0.09-0.94,0.14c-0.15-1.7,0.4-2.92,2.3-3.02c2.05-0.1,4.1-0.1,6.16-0.15
			c0.33,2.01-1.07,1.81-2.37,2C903.61,360.39,901.57,359.22,900.19,361.16z"/>
		<path class="st52" d="M764.4,641.99c2.11-0.26,1.86,1.26,1.81,2.5c-0.12,2.59-1.26,4.62-3.6,5.88
			C763.88,647.73,764.71,644.98,764.4,641.99z"/>
		<path class="st53" d="M885.72,595.71c-3.95,0.63-6.45-1.91-9.09-4.16C879.85,592.54,883.19,593.25,885.72,595.71z"/>
		<path class="st54" d="M989.99,444c-3.38,1.89-6.83,3.57-10.89,2.93C982.57,445.38,985.93,443.38,989.99,444z"/>
		<path class="st55" d="M972.06,702.71c0.4,2.11-1.65,1.48-2.48,2.21c-0.97,0.04-1.94,0.08-2.91,0.12
			c-0.87,0.54-1.71,0.69-2.49-0.16c2.74-0.6,4.66-3.37,7.79-2.95C972.25,702.16,972.28,702.42,972.06,702.71z"/>
		<path class="st46" d="M862.72,552.04c-2.43,1.62-5.15,1.17-7.82,1.08C857.1,550.73,861.4,550.13,862.72,552.04z"/>
		<path class="st56" d="M964.18,704.89c0.83,0.05,1.66,0.11,2.49,0.16c0.01,1.18-0.46,1.79-1.75,1.72
			c-1.65-0.09-3.32-0.06-4.98-0.08c0.05-0.54,0.1-1.07,0.14-1.61C961.45,705.01,962.81,704.95,964.18,704.89z"/>
		<path class="st57" d="M910.28,694.14c3.03,0.35,4.77,2.24,5.89,4.89C913.47,698.28,911.37,696.81,910.28,694.14z"/>
		<path class="st58" d="M919.78,612.56c-3.4,0.57-5.82-1-7.78-3.57c1.52,0.17,3.1-0.28,3.94,1.94c0.49,1.29,2.46,0.4,3.77,0.38
			C919.74,611.72,919.76,612.14,919.78,612.56z"/>
		<path class="st16" d="M747.72,617.3c-1.4,0.07-1.24-0.95-1.3-1.83c-0.16-2.35,0.59-4.34,2.33-5.94c0.23-0.2,0.45-0.18,0.64,0.06
			C748.88,612.16,746.93,614.43,747.72,617.3z"/>
		<path class="st59" d="M1137.63,646.14c3.07-0.23,3.91,2.39,5.37,4.21C1140.26,650.16,1139.09,647.97,1137.63,646.14z"/>
		<path class="st60" d="M882.11,567.56c2.54,1.3,3.17,3.48,2.85,6.11C883.29,571.97,881.41,570.37,882.11,567.56z"/>
		<path class="st61" d="M889.73,579.66c1.24,1.94,4.17,2.59,4.16,5.47C890.51,584.81,889.82,582.46,889.73,579.66z"/>
		<path class="st62" d="M1133.39,639.58c2.72,1.08,2.57,3.64,3.06,5.88c-0.75-0.88-0.81-2.18-2.37-2.58
			c-1.38-0.36-1.18-2.05-1.32-3.29C1132.97,639.33,1133.18,639.32,1133.39,639.58z"/>
		<path class="st63" d="M1062.63,599.94c-1.84-0.02-3.68-0.03-5.51-0.05c-0.34-2,1.15-1.71,2.25-1.69
			C1060.7,598.22,1062.53,597.52,1062.63,599.94z"/>
		<path class="st15" d="M925.84,478.26c-0.19,2.42-2.13,4.3-4.26,4.13C922.3,480.3,924.01,479.22,925.84,478.26z"/>
		<path class="st28" d="M914.95,375.06c-2.64,0.62-3.47-1.54-4.71-3.07C912.65,371.72,914.14,372.87,914.95,375.06z"/>
		<path class="st64" d="M1068.67,659.49c-0.47-3.04,1.67-2.55,3.45-2.56C1072.37,659.68,1070.52,659.58,1068.67,659.49z"/>
		<path class="st65" d="M916.15,699.02c0.58,0.01,1.66-0.05,1.67,0.05c0.34,2.19,2.8,2.09,3.74,3.57c-1.51-0.03-2.79-0.92-4.2-1.17
			C915.59,701.15,916.25,699.98,916.15,699.02z"/>
		<path class="st38" d="M1189.82,626.36c-2.8-0.56-2.66-2.64-2.46-4.75c1.05,0.02,1.92,0.1,1.89,1.58
			C1189.23,624.25,1189.62,625.31,1189.82,626.36z"/>
		<path class="st66" d="M853.74,632.3c-0.57,0.03-1.15,0.06-1.72,0.08c0.01-1.07-0.01-2.13,0.04-3.2c0.03-0.89,0.65-1.09,1.41-1.07
			c0.93,0.03,1.18,0.51,0.88,1.34C853.46,630.26,853.95,631.36,853.74,632.3z"/>
		<path class="st43" d="M902.34,389.47c2.13-0.04,3.65,0.61,3.56,3.11C903.65,392.76,902.38,391.81,902.34,389.47z"/>
		<path class="st67" d="M866.93,646.24c2.55,0.26,3.35,1.81,3.07,4.16C868.78,649.16,866.75,648.51,866.93,646.24z"/>
		<path class="st41" d="M978.59,358.22c0.97-1.86,3.06-2.54,4.3-4.11C982.95,357.03,981.4,358.29,978.59,358.22z"/>
		<path class="st43" d="M899.98,504.58c0.25,2.32-0.77,3.71-3.05,4.19C897.22,506.84,897.71,505.06,899.98,504.58z"/>
		<path class="st68" d="M1133.39,639.58c-0.21,0-0.42,0.01-0.63,0.01c-1.76-0.49-4.04-0.27-4.14-3.03
			C1131.12,636.15,1131.61,638.87,1133.39,639.58z"/>
		<path class="st53" d="M787.18,612.02c2.14,0.59,3.08,1.9,2.47,4.13C787.04,615.84,787.98,613.41,787.18,612.02z"/>
		<path class="st69" d="M754.92,624.51c-2.67,0.75-2.42-1.58-3.1-2.93C753.51,621.87,755.55,621.78,754.92,624.51z"/>
		<path class="st70" d="M740.91,657.06c1.95-0.42,3.39-0.16,3.08,2.36C742.38,659.4,740.32,659.95,740.91,657.06z"/>
		<path class="st60" d="M893.34,515.93c0.27,2.29-0.8,3.24-3.03,3.01C890.12,516.72,891.62,516.22,893.34,515.93z"/>
		<path class="st43" d="M907.72,393.08c1.87-0.09,3.66-0.9,5.56-0.6C911.57,393.98,909.87,395.59,907.72,393.08z"/>
		<path class="st64" d="M795.52,607.83c-1.45-1.27-2.49-2.74-2.33-4.8C794.82,604.22,796.13,605.55,795.52,607.83z"/>
		<path class="st71" d="M1203.53,625.72c0.35-1.32-0.96-3.49,1.83-3.55C1205.31,623.64,1206.1,625.55,1203.53,625.72z"/>
		<path class="st28" d="M861.61,587.99c2.08,0.34,3.43,1.26,2.95,3.66C862.35,591.42,863.12,588.78,861.61,587.99z"/>
		<path class="st68" d="M858.5,633.66c1.44,0.55,3.08,0.89,3.09,2.95C859.63,636.6,858.49,635.74,858.5,633.66z"/>
		<path class="st16" d="M750.57,621.02c-2.4-0.14-2.54-2-2.85-3.73C748.87,618.38,750.53,619.08,750.57,621.02z"/>
		<path class="st72" d="M763.8,659.34c0.04-1.61,0.36-2.92,2.47-2.32C766.69,659.12,765.73,659.74,763.8,659.34z"/>
		<path class="st28" d="M910.24,372c-1.56-0.06-2.58,1.83-4.3,1.18C907.86,370.57,908.85,370.3,910.24,372z"/>
		<path class="st53" d="M876.65,591.56c-1.97,0.49-2.68-0.4-2.47-2.27C876.09,588.86,876.98,589.55,876.65,591.56z"/>
		<path class="st46" d="M863.97,642.01c0.77,1.22,3.22,1.31,2.43,3.59C863.67,645.7,864.57,643.35,863.97,642.01z"/>
		<path class="st73" d="M910.31,598.12c1.37,0.02,3.14-0.56,2.85,1.92C911.93,599.82,909.88,600.81,910.31,598.12z"/>
		<path class="st74" d="M1068.56,601.22c-1.51-0.01-3.21,0.67-4.23-1.15C1065.8,600.24,1067.66,598.95,1068.56,601.22z"/>
		<path class="st75" d="M1037.99,609.58c0.68,2.28-1.25,2.31-2.52,2.92C1036.29,611.51,1035.6,609.22,1037.99,609.58z"/>
		<path class="st76" d="M821.51,619.32c-0.32-1.78,0.87-2.53,2.2-3.18C824.14,618.01,823.29,618.99,821.51,619.32z"/>
		<path class="st40" d="M749.4,609.58c-0.21-0.02-0.43-0.04-0.64-0.06c0.7-1.74,2.08-2,3.71-1.7
			C752.17,609.68,750.41,608.98,749.4,609.58z"/>
		<path class="st28" d="M864.55,591.64c1.88-0.46,2.97,0.86,4.18,1.89C867.11,593.4,865.38,593.53,864.55,591.64z"/>
		<path class="st77" d="M741.05,650.36c-0.83-0.01-1.66-0.01-2.49-0.02c0.15-0.66-0.39-1.62,0.86-1.8
			C740.92,648.32,740.82,649.47,741.05,650.36z"/>
		<path class="st78" d="M1210.8,611.41c-0.34-1.52,0.1-2.44,1.82-2.39C1212.57,610.25,1212.81,611.69,1210.8,611.41z"/>
		<path class="st46" d="M819.07,624.65c-0.08-1.26-0.6-2.81,1.67-2.51C820.77,623.37,821.38,624.97,819.07,624.65z"/>
		<path class="st79" d="M1176.72,622.03c2.37-0.32,1.73,1.3,1.65,2.56C1176.19,624.79,1176.53,623.36,1176.72,622.03z"/>
		<path class="st60" d="M1199.93,631.72c-0.42-1.53-0.11-2.52,1.75-2.39C1201.77,630.62,1201.84,631.89,1199.93,631.72z"/>
		<path class="st80" d="M892.2,605.39c2.33-0.42,1.6,1.33,1.75,2.46C892.05,607.97,892.24,606.6,892.2,605.39z"/>
		<path class="st64" d="M798.11,611.93c-1.77,0.24-2.24-0.66-1.94-2.22C798.45,609.02,797.86,610.84,798.11,611.93z"/>
		<path class="st40" d="M762.51,607.89c1.35,0.03,3.04-0.96,3.64,1.25C764.79,609.12,763.23,609.72,762.51,607.89z"/>
		<path class="st72" d="M1046.35,602.93c0.13,1.89-0.98,2.07-2.44,1.78C1043.65,602.65,1045.15,603.01,1046.35,602.93z"/>
		<path class="st60" d="M894.55,511.72c-0.13,1.49,0.76,3.27-1.22,4.23C893.52,514.48,893.25,512.87,894.55,511.72z"/>
		<path class="st81" d="M1071.59,602.38c-1.15-0.03-2.64,0.8-3.01-1.19C1069.66,601.41,1071.18,600.5,1071.59,602.38z"/>
		<path class="st82" d="M1054.23,600.09c-0.6,1.7-1.9,1.29-3.14,1.03C1051.61,599.15,1053.13,600.24,1054.23,600.09z"/>
		<path class="st54" d="M977.27,448.62c-1.57,1.3-3.39,1.57-5.35,1.34C973.58,448.99,975.44,448.85,977.27,448.62z"/>
		<path class="st34" d="M1198.76,614.37c-0.06,1.14,0.88,2.71-1.27,2.95C1197.86,616.31,1196.85,614.71,1198.76,614.37z"/>
		<path class="st83" d="M957.09,616.13c0.12-2.66-0.8-4.94-2.19-7.18c-0.55-0.9-0.3-2.3-0.41-3.47c-0.16-0.28-0.11-0.54,0.11-0.76
			c1.99-0.07,2.2,1.46,3.01,2.81c1.18,1.98,1.77,4.08,2.5,6.18c1.49,2.82,0.5,5.87,0.78,8.8c0.13,1.35-0.34,2.82,0.84,3.95
			c-0.2,1.45,0.9,1.68,1.89,2.03c2.19,0.77,3,3.43,5.4,3.9c0.04,9.35,0.08,18.7,0.12,28.05c-0.16,0.31-0.4,0.52-0.72,0.66
			c-2.36,0.76-4.58-0.21-6.86-0.52c-3.23-0.54-5.73-2.87-9.06-3.39c-5.65-0.88-11.27-0.45-16.91-0.34
			c-1.58,0.03-2.18,1.57-3.12,2.56c-0.93,1.1-2.1,1.41-3.48,1.13c-0.05-6.47-0.05-12.93-0.17-19.4c-0.03-1.73,0.61-2.2,2.25-2.22
			c4.26-0.06,8.66,0.79,12.73-0.66c2.81-1,5.61-2.06,8.04-4.35c3.7-3.49,4.73-7.66,5.21-12.28
			C957.94,619.79,957.87,617.97,957.09,616.13z"/>
		<path class="st83" d="M943.25,478.12c-0.24-8.67,0.13-17.41-0.87-25.99c-1.3-11.21-0.67-22.5-1.91-33.61
			c-0.98-8.74-0.58-17.46-1.43-26.15c-0.37-3.76,2.92-5.66,6.48-4.15c0.43,0.18,0.64,0.41,0.66,0.84c0.02,0.5-0.01,1,0.05,1.5
			c0.88,6.63-0.86,13.24,1.4,20.06c1.67,5.06,0,11.12,0.49,16.68c1.16,13.13,1.03,26.28,1.14,39.42c1.6,3.11,0.5,6.45,0.83,9.67
			c0.15,1.44-0.43,3.02,0.84,4.24c0.05,0.4,0.11,0.81,0.16,1.21c0.42,4.12,0.15,8.25,0.14,12.38c-1.44,1.63-3.16,1.86-5.1,1.03
			c-1.98-1.84-2.38-4.13-2.4-6.76C943.72,485.04,944.45,481.52,943.25,478.12z"/>
		<path class="st84" d="M972.03,466.83c0.37-0.04,0.75-0.07,1.12-0.11c3.28-1.09,6.23-2.9,9.38-4.29c5.33-2.36,10.6-4.83,16.31-6.14
			c2.02-0.46,3.99-0.76,5.77-2.12c1.39-1.07,3.42-0.77,5.2-0.94c3.18-0.3,6.34-0.13,9.52-0.05c3.71,0.1,5.58,2.45,7.34,5.14
			c0.32,2.39-0.98,3.24-3.13,3.31c-2.59,0.08-5.19,0.04-7.78,0.04c-3-0.01-6.01-0.07-8.59,1.88c-0.23,0.17-0.55,0.3-0.84,0.29
			c-5.75-0.3-10.46,3.52-16.03,4.03c-2.35,0.22-3.65,2.94-6.28,3.15c-4.03,0.32-7.15,2.89-10.37,4.98c-1.62,1.05-3.19,1.96-5.06,2.4
			c-1.55,0.37-3.07,0.8-4.16,2.16c-0.54,0.67-1.38,0.73-2.21,0.51c-1.38-0.62-1.01-2.46-2.24-3.19c-0.15-0.25-0.19-0.52-0.15-0.81
			c0.81-0.77,1.3-1.7,1.4-2.82C963.89,470.39,968.19,468.95,972.03,466.83z"/>
		<path class="st85" d="M938.98,599.91c-1.77,0.02-3.54,0.03-5.31,0.05c-0.1-0.38-0.21-1.1-0.3-1.1c-3.04,0.04-4.77-3.04-7.7-3.2
			c-2.73-0.2-4.55-1.88-6.17-3.86c0.35-0.95,0.6-1.9-0.26-2.72c-1.23-1.16-1.37-2.77-1.79-4.27c-0.21-0.98-0.68-1.81-1.33-2.58
			c-1.03-1.23-0.91-2.31,0.62-3.07c2.63,0.06,3.48,2.26,4.33,4.03c2.28,4.74,6.02,7.88,10.41,10.44c1.03,0.6,2.12,0.78,3.13,0.18
			c1.23-0.73,1.79-2.04,1.49-3.37c-2.06-9.3-0.59-18.71-0.93-28.06c-0.23-6.09-0.06-12.19-0.03-18.28c0.01-1.38-0.17-2.82,0.68-4.07
			c0.49-0.41,1.01-0.41,1.55-0.11c0.25,0.3,0.43,0.63,0.54,1.01c0.46,7.57,0.04,15.15,0.22,22.73c0.08,3.44-0.56,7,1.48,10.17
			c0.26,0.41,0.22,0.97,0.22,1.47c0.09,7.38-0.01,14.76,0.06,22.15C939.88,598.37,939.67,599.23,938.98,599.91z"/>
		<path class="st86" d="M946.22,494.96c1.68,0.67,3.07-0.69,4.66-0.68c0.62,0.56,0.39,1.3,0.4,1.97c0.02,2.39,0.12,4.79-0.01,7.17
			c-0.57,10.55,1.2,21.03,0.93,31.56c0,3.89,0.04,7.78-0.03,11.67c-0.02,0.9,0.35,2.29-1.15,2.3c-1.3,0.01-2.21-0.87-2.35-2.27
			c-0.24-2.28-0.18-4.58-0.26-6.86c-0.24-6.76-2-13.41-1.32-20.22c0.11-1.09,0.09-2.21-0.84-3.05c-0.06-4.77-0.12-9.54-0.18-14.32
			C944.98,499.79,944.77,497.35,946.22,494.96z"/>
		<path class="st87" d="M952.84,550.75c1.52-0.06,1.75,0.85,1.75,2.13c-0.03,12.88-0.02,25.77-0.02,38.94
			c-1.81-0.83-2.99-1.82-2.95-3.75c0.1-4.99,0.01-10.12-0.91-14.87c-1.06-5.5-1.62-10.88-1.52-16.41c1.58-0.95,2.13,0.05,2.5,1.34
			c0.27,0.95,0.08,1.96,0.2,2.6C952.46,557.64,950.99,554.05,952.84,550.75z"/>
		<path class="st88" d="M937.22,540.59c0-0.2,0-0.39-0.02-0.59c-0.98-1.07-0.83-2.41-0.84-3.69c-0.02-5.09,0.06-10.18-0.03-15.27
			c-0.07-3.45,0.33-6.89-0.93-10.32c-0.65-1.77-0.6-3.94,0.3-5.85c0.45-0.49,0.94-0.66,1.53-0.24c3.44,7.71,1,15.87,1.85,23.77
			c0.98,9.15-0.39,18.39,0.71,27.44c1.55,12.75,0.26,25.54,1.5,38.27c0.18,1.84,0.81,3.92-0.58,5.68c-1.08-1.64-1.41-3.61-1.32-5.39
			c0.7-14.17-1.67-28.24-1.29-42.4c0.08-2.99,0-5.99,0.01-8.98C938.11,542.08,937.95,541.24,937.22,540.59z"/>
		<path class="st89" d="M952.84,550.75c-0.01,3.77-0.01,7.54-0.05,11.31c-0.01,0.72,0.23,1.82-1.02,1.7
			c-0.95-0.09-0.73-1.04-0.75-1.69c-0.04-1.19-0.06-2.38-0.01-3.57c0.05-1.32-0.61-1.78-1.82-1.7c-1.05-4.83-0.15-10.12-1.52-14.57
			c-2.66-8.63-0.65-17.16-1.41-25.68c1.26-0.01,1.79,0.61,1.71,1.85c-0.63,8.92,1.94,17.69,1.28,26.62c-0.12,1.57,0.03,3,2.32,3.53
			c0-4.52,0-8.93,0-13.35c0.39-0.35,0.78-0.36,1.17-0.01C952.77,540.38,952.8,545.56,952.84,550.75z"/>
		<path class="st90" d="M1026.07,458.43c-2.05-1.72-3.2-4.29-6.68-4.52c-4.52-0.3-8.94,0.19-13.4,0.36
			c-0.39,0.01-1.04,0.02-1.13,0.22c-1.44,3.38-4.68,2.06-7.11,2.67c-2.65,0.67-4.99,2.08-7.59,2.78c-3.39,0.91-6.12,3.38-9.65,3.91
			c-0.47,0.07-0.97-0.02-1.31,0.49c-1.46,2.2-3.61,2.71-6.07,2.38c0.91-1.18,1.76-2.48,3.28-2.88c4.88-1.28,9.17-3.97,13.8-5.85
			c1.51-0.61,3.06-0.67,4.52-1.24c1.03-0.41,2.51-0.03,2.65-1.8c0.02-0.23,0.55-0.56,0.89-0.62c7.69-1.45,15.48-3.17,23.25-1.71
			c4.35,0.82,7.1,2.17,6.24,10.54c-0.56,0.47-1.18,0.44-1.82,0.21C1024.57,461.7,1027.32,460.11,1026.07,458.43z"/>
		<path class="st91" d="M902.33,579.72c-2.58,0.16-3.65-2.18-4.82-3.59c-3.15-3.79-3.8-8.68-4.08-13.45
			c-0.45-7.77-0.47-15.58,1.81-23.09c0.73-2.4,1.79-4.89,3.51-6.9c0.36-0.42,0.5-0.8,0.55-1.29c0.53-4.58,2.79-8.25,6.25-11.13
			c1.54-1.29,1.41-3.51,3.06-4.59c0.4-0.26,0.93-0.32,1.4-0.47c0.31,0.14,0.53,0.36,0.66,0.67c0.32,1.03,0.26,2.07-0.56,2.78
			c-3.28,2.86-4.59,7.27-7.97,10.05c-0.62,0.51-1.08,1.26-1.12,2.07c-0.23,4.25-2.72,7.61-4.39,11.3c-0.21,0.46-0.46,0.89-0.53,1.39
			c-1.06,7.73-2.3,15.52-0.31,23.21c1.15,4.42,3.71,8.31,6.87,11.71C902.8,578.89,902.74,579.35,902.33,579.72z"/>
		<path class="st92" d="M966.58,540.07c0-1.22,0.01-2.44,0.01-3.66c0.56,1.36,1.89,2,2.83,3c-0.03-1.71,2.34-2.07,2.13-3.91
			c-0.52-4.75,2.97-8.43,3.51-12.9c0.16-1.29,1.59-0.83,1.93-1.52c1.42-2.85,4.46-4.39,5.75-7.28c0.43-0.96,1.5-1.47,1.95-1.57
			c2.44-0.56,2.43-4.19,5.28-4.01c0.17,0.14,0.25,0.29,0.22,0.45c-0.03,0.17-0.07,0.26-0.12,0.26c-0.09,0.57,0.05,1.35-0.62,1.57
			c-3.32,1.09-4.24,4.52-6.55,6.62c-3.1,2.82-5.17,6.53-7.47,10.01c-0.62,0.94-0.85,2.23-0.99,3.39c-0.44,3.6-2.01,6.88-2.85,10.36
			c-0.12,0.52,0.02,2.38-1.78,2.14C968.01,542.75,966.97,541.8,966.58,540.07z"/>
		<path class="st93" d="M937.22,540.59c0.82,0.04,1.65,0.06,1.69,1.2c0.02,0.5,0.03,1,0.04,1.49c0.24,16.34,0.54,32.67,0.64,49.01
			c0.02,2.61,1.79,4.86,1.12,7.5c-0.39,0.1-0.78,0.2-1.16,0.3c-0.2-0.02-0.39-0.08-0.56-0.18c-0.01-8.36,1.39-17.04-0.37-25.02
			c-2.39-10.84-0.43-21.53-1.45-32.22C937.1,541.99,937.2,541.28,937.22,540.59z"/>
		<path class="st94" d="M1026.07,463.19c0.57-0.01,1.14-0.01,1.72-0.02c-1.74,3.53-4.38,6.13-8.01,7.68
			c-0.76,0.32-0.9,0.93-1.04,1.66c-0.11,0.56-0.48,1.53-0.74,1.53c-2.86,0.02-4.16,2.64-6.35,3.78c-3.16,1.64-6.69,3.08-8.54,6.54
			c-0.66,1.23-1.79,1.05-2.88,1.06c-0.25-0.19-0.42-0.43-0.52-0.72c-0.34-1.34,0.35-2.13,1.27-3.06c2.96-3.04,6.75-4.91,10.33-6.9
			c2.34-1.3,3.5-3.43,5.31-5.02c2.53-2.22,6-3.24,7.83-6.27C1024.91,462.96,1025.43,462.72,1026.07,463.19z"/>
		<path class="st95" d="M1000.16,484.76c0.02,0.22,0.03,0.44,0.05,0.65c0.35,1.77-1.37,1.29-1.95,1.43
			c-3.73,0.91-5.13,4.65-8.08,6.52c-0.84,0.54-1.9,1.58-2.77,1.83c-2.18,0.64-2.57,2.16-2.86,3.95c-3.8,2.12-7.21,4.73-9.99,8.1
			c-0.43,0.52-0.64,1.23-1.42,1.39c-0.48,0.06-0.91-0.04-1.3-0.33c-0.99-1.72-0.42-3.04,1.06-4.11c3.32-2.39,5.81-5.85,8.99-8.14
			c4.6-3.3,8.06-7.85,12.9-10.73C996.39,484.37,998.25,483.83,1000.16,484.76z"/>
		<path class="st96" d="M961.9,503.29c-0.06,2.88-0.12,5.77-0.18,8.65c-0.75-0.19-1.64-0.21-1.67-1.32c0-0.2-0.04-0.4-0.02-0.59
			c0.77-8.68-1.6-17.22-1.23-25.88c0.44-0.3,0.91-0.32,1.4-0.14c0.88,0.53,1.82,1,2.21,2.07c0.67,5.1,0.28,10.22,0.24,15.33
			C962.64,502.1,962.42,502.77,961.9,503.29z"/>
		<path class="st97" d="M965.92,568.68c-0.56,0.06-1.11,0.11-1.67,0.17c-0.54-6.23-0.67-12.46-0.74-18.71
			c-0.03-2.48,1.12-5.35-1.56-7.36c-0.26-0.19-0.13-0.95-0.13-1.44c0.01-5.46,0.03-10.93,0.05-16.39c1.79-0.04,1.71,1.2,1.73,2.45
			c0.2,9.83,0.39,19.66,0.66,29.48c0.05,1.85-0.2,3.56,1.31,5.44C966.66,563.65,965.87,566.5,965.92,568.68z"/>
		<path class="st87" d="M952.73,535.19c-0.39,0-0.78,0.01-1.17,0.01c-0.68-13.63-0.49-27.28-0.68-40.92
			c0.07-4.15,0.14-8.29,0.21-12.44c0.82,0.95,0.47,2.1,0.47,3.16c0.05,10.26-0.43,20.55,0.26,30.76
			C952.26,522.24,952.96,528.69,952.73,535.19z"/>
		<path class="st98" d="M1021.12,485.31c0.63,0.03,1.25,0.07,1.88,0.1c-0.16,0.63,0.07,1.6-0.88,1.65c-4.5,0.25-6.3,4.3-9.31,6.62
			c-1.09,0.84-2.32,1.14-3.43,1.42c-2.44,0.6-4.01,1.95-5.08,4.08c-0.56,0.43-1.12,0.5-1.7,0.02c0.02-2.53,1.13-3.59,3.74-4.42
			c2.92-0.93,6.15-2.23,7.7-5.46c0.09-0.18,0.13-0.49,0.24-0.52C1016.85,488.19,1018.44,485.68,1021.12,485.31z"/>
		<path class="st99" d="M937.23,504.63c-0.36,0.03-0.72,0.07-1.08,0.1c-0.29-0.15-0.51-0.37-0.64-0.67
			c-0.81-2.66,0.24-5.47-0.68-8.11c-2.11-1.56-3.02,0.14-3.93,1.52c-1.14,1.74-2.4,3.16-4.76,2.73c-0.27-0.12-0.45-0.33-0.52-0.62
			c0.09-1.26,1.13-1.88,1.74-2.78c1.24-1.84,3.69-2.02,4.74-4.18c0.53-1.1,2.49-0.92,3.88-0.34c1.3,0.54,1.24,1.69,1.25,2.77
			C937.24,498.25,937.23,501.44,937.23,504.63z"/>
		<path class="st100" d="M959.94,484.18c-0.38-0.01-0.76-0.02-1.14-0.03c-0.03-2.67-0.13-5.35-0.08-8.02
			c0.06-3.41,1.31-4.88,4.52-5.74c1.55-0.42,3.01-0.66,3.93-2.54c0.9-1.84,3.15-0.97,4.86-1.01c-1.3,1.18-2.48,2.58-4.24,3.07
			c-2.68,0.75-4.46,2.58-6.08,4.67c-0.74,0.71-0.98,1.73-1.62,2.51c-0.03,0.16-0.04,0.32-0.03,0.48
			C961.23,479.79,961.4,482,959.94,484.18z"/>
		<path class="st99" d="M910.02,515.2c-0.31-2.15,0.42-3.56,2.66-4.13c2.66-0.68,2.67-4.08,5.11-5.23c0.53-0.25,1.35-1.5,1.99-2.33
			c1.22-1.58,4.29-1.06,4.43-3.9c0-0.03,0.91-0.02,1.4-0.03c0.1,0.11,0.2,0.22,0.3,0.33c0.98,1.48,0.12,2.41-1.01,3.21
			c-4.78,3.38-8.61,7.75-12.55,12c-0.62,0.67-1.26,0.93-2.07,0.38C910.2,515.4,910.11,515.3,910.02,515.2z"/>
		<path class="st101" d="M946.22,494.96c-0.05,2.43-0.1,4.85-0.15,7.28c-1.04,0-1.56-0.41-1.67-1.57
			c-0.68-7.5-1.78-14.98-1.16-22.54c1.14,0.02,1.13,0.81,1.12,1.63c-0.01,1.77,0.14,3.56,0,5.32
			C944.1,488.56,944.51,491.87,946.22,494.96z"/>
		<path class="st102" d="M919.77,591.68c1.76,1.63,3.87,2.74,5.89,3.98c-1.89-0.05-4.01,0.73-5.07-1.87
			c-0.2-0.48-1.42-0.55-2.17-0.81c-0.28-0.1-0.6-0.13-0.85-0.28c-2.54-1.5-4.19-4.34-7.38-4.9c-0.14-0.02-0.12-0.92-0.17-1.42
			c0.11-0.3,0.33-0.5,0.64-0.59c2.51,0.85,4.9,2.01,7.39,2.92C919.3,589.18,919.57,590.48,919.77,591.68z"/>
		<path class="st103" d="M954.6,604.71c-0.04,0.25-0.07,0.51-0.11,0.76c-3.27,0.32-5.39-2.47-8.31-3.08
			c-0.93-1.14-2.63-0.08-3.56-1.24c0,0,0.01,0,0.01,0c0.61-2.04,2.35-1.35,3.46-1.09c2.7,0.65,5.31,1.65,7.94,2.59
			C955.04,603.03,954.76,603.93,954.6,604.71z"/>
		<path class="st104" d="M1002.6,499.2c0.57-0.01,1.13-0.02,1.7-0.02c-1.01,2.77-3.74,3.33-5.96,4.22
			c-3.19,1.29-4.98,4.49-8.26,5.53c-0.03-0.24-0.06-0.47-0.09-0.71c1.69-2.9,4.12-4.96,7.36-5.78
			C999.51,501.89,1000.4,499.51,1002.6,499.2z"/>
		<path class="st105" d="M950.93,480.63c-1.54,0.09-1.71-0.88-1.7-2.1c0.04-3.94,0.03-7.88,0.03-11.81
			c1.13-0.01,1.79,0.29,1.75,1.69C950.9,472.48,950.94,476.56,950.93,480.63z"/>
		<path class="st106" d="M973.25,508.23c1.65-4.29,6.19-5.6,9-8.69c0.55-0.61,1.5-0.42,2.3-0.4c-3.11,2.74-6.41,5.3-9.25,8.3
			c-1.32,1.39-1.57,3.76-3.8,4.45c-0.11-0.1-0.22-0.21-0.33-0.31C970.76,509.79,971.54,508.72,973.25,508.23z"/>
		<path class="st107" d="M961.72,626.45c-1.48,0.24-1.87-0.5-1.83-1.85c0.11-3.63,0.15-7.26,0.21-10.9c1.54-0.07,1.71,0.9,1.7,2.12
			C961.75,619.36,961.74,622.91,961.72,626.45z"/>
		<path class="st102" d="M902.33,579.72c0.02-0.4,0.04-0.81,0.06-1.21c2.87,0.11,4.06,2.67,5.95,4.17c0.7,0.56,1.26,1.47,1.97,2.14
			c0.24,0.41,0.28,0.83,0.01,1.25c-0.1,0.1-0.19,0.2-0.29,0.31C906.62,585.14,903.84,583.16,902.33,579.72z"/>
		<path class="st106" d="M966.58,521.39c0.2-1.8,0.41-3.6,0.61-5.39c0.07-0.11,0.14-0.22,0.2-0.33c0.79-0.6,0.91-1.5,1.1-2.38
			c0.08-0.27,0.19-0.52,0.32-0.77c0.62-0.9,1.32-1.55,2.48-0.81c0,0,0.19,0.19,0.2,0.19c0.82,3.06-2.04,4.57-3.14,6.77
			C967.98,519.44,967.54,520.74,966.58,521.39z"/>
		<path class="st83" d="M916.28,687.47c-0.47-3.13-0.4-6.27-0.01-9.4c1.44-1.65,2.32-3.68,3.6-5.43l-0.01,0.01
			c1.8-1.52,3.47-3.26,5.98-3.63l-0.03-0.02c3.5-1.06,6.21-3.93,9.78-4.63c3.97-0.78,7.85-2.15,11.97-2.09
			c6.22-0.06,12.46-0.65,18.64,0.35c1.9,0.31,1.92-1.34,2.81-2.08l0.1-0.12c9.42,0.61,9.42,0.61,9.41-8.73
			c-0.01-4.98,0-9.96,0-14.94c0-1.08-0.23-2.25,1.57-2.13c1.45,0.1,2.04,0.58,2.07,2.15c0.05,2.35-0.36,4.77,0.53,7.06
			c4.37,7.19,6.4,14.86,4.81,23.27l-0.02,0.05c-0.12,1.7-1.01,2.72-2.7,3.03c-1.29,0.24-2.58,0.25-3.86-0.12
			c-8.73-2.5-17.53-1.81-26.32-0.51c-1.88,0.28-3.81,0.51-5.64,0.52c-4.18,0.02-8.06,1.42-11.95,2.44
			c-2.99,0.78-6.81,1.49-7.53,5.72c-0.06,0.38-0.29,0.87-0.64,0.97c-3.7,1.07-4.71,4.6-6.66,7.25c-0.9,1.22-1.97,1.96-3.52,1.9
			C917.75,688.41,916.91,688.21,916.28,687.47z"/>
		<path class="st108" d="M932.46,659.4c-0.42-2.29,0.82-3.36,2.87-3.4c5.29-0.1,10.63-0.43,15.86,0.14
			c2.09,0.23,5.67,0.12,6.24,1.33c1.11,2.38,3.04,1.58,4.41,2.44c0.47,0.72,2.12,0,1.92,1.36c-0.2,1.35-1.49,1.09-2.43,1.09
			c-4.38-0.01-8.76,0.14-13.14-0.08c-0.37-0.1-0.67-0.3-0.89-0.62c0.42-1.31,1.54-1.04,2.49-1.05c2.78-0.02,5.55-0.01,8.33-0.21
			C949.62,658.72,941.02,659.54,932.46,659.4z"/>
		<path class="st109" d="M954.68,696.05c-0.97,1.69-2.49,2.32-4.37,2.31c-4.48-0.02-9,0.38-13.42-0.13
			c-3.77-0.43-7.57-1.22-11.17-2.82c-2.43-1.08-4.88-2.07-7.07-3.59c0.36-0.47,0.86-0.65,1.41-0.73c4.47-0.35,8.01,2.72,12.24,3.36
			c1.23,0.19,2.45,0.63,3.75,0.63c5.19,0.02,10.38-0.06,15.57,0.04C952.71,695.21,953.87,695.03,954.68,696.05z"/>
		<path class="st110" d="M994.32,639.09c-0.18,3.94,3.13,6.21,4.78,9.2c0.92,1.66,0.85,3,1.02,4.54c-0.59,0.49-1.18,0.41-1.76,0
			c-1.52-1.39-1.78-3.51-2.74-5.22c-2.27-4.04-4.05-8.32-7.51-11.59c-0.62-0.58-0.22-1.12,0.52-1.23c0.75-0.11,1.37-0.26,1.47-1.15
			c4.99-0.01,9.98-0.06,14.97,0c0.77,0.01,2.2-0.73,2.15,1.1c-1.01,1.08-2.36,0.85-3.62,0.88c-2.17,0.05-4.35,0.01-6.52,0.02
			C993.11,635.65,993.11,635.65,994.32,639.09z"/>
		<path class="st111" d="M972.06,702.71c-0.03-0.26-0.06-0.52-0.09-0.77c2.57-0.52,3.13-3.44,5.54-4.46
			c1.95-0.82,3.7-2.49,5.76-3.26c1.56-0.58,2.77-2.14,3.21-2.93c1.1-1.99,2.54-3.44,4.16-4.87c0.62-0.4,0.62-1.8,1.88-1.18
			c0.03,2.86-2.35,4.39-3.66,6.49c-1.65,2.63-4.51,4.24-6.9,5.73c-2.55,1.6-4.06,4.78-7.41,5.08
			C973.72,702.6,972.89,702.65,972.06,702.71z"/>
		<path class="st112" d="M985.07,669.61c1.26-0.36,1.95-1.29,2.43-2.43c0.34,1.67-0.01,3.19-1.42,4.19
			c-0.69,0.49-0.78,1.07-0.95,1.73c-1.41,5.41-5.24,8.95-9.46,12.18c-1.15,0.88-1.58,2.98-3.71,2.21c-0.68-1.21,0.34-1.82,0.98-2.44
			c0.88-0.85,1.24-1.98,1.84-2.97c3.86-2.62,6.03-6.41,7.42-10.75C982.73,670.05,984.12,670.2,985.07,669.61z"/>
		<path class="st108" d="M947.37,662.9c-4.22,0.22-8.33,1.33-12.36,2.29c-1.83,0.43-3.94,1.96-5.9,3.03
			c-1.16,0.63-2.16,0.66-3.29,0.78c-0.1-0.91,0.46-1.15,1.21-1.38c1.08-0.33,2.4-0.38,2.54-2.04c0.07-0.86,1.04-0.94,1.65-1.04
			c5.37-0.91,10.44-3.53,16.08-2.88c0.07,0.08,0.14,0.16,0.21,0.24C947.76,662.27,947.74,662.61,947.37,662.9z"/>
		<path class="st113" d="M954.68,696.05c-1.02-0.02-2.03-0.04-3.05-0.07c-0.64-2.39,1.56-1.59,2.49-2.22
			c0.28-0.09,0.57-0.16,0.86-0.22c4.48-1.38,8.73-3.19,12.28-6.36c0.44-0.21,0.9-0.33,1.39-0.37c1.02-0.02,2.06-0.09,2.82,0.8
			C966.68,692.05,961.06,694.79,954.68,696.05z"/>
		<path class="st114" d="M998.36,652.83c0.59,0,1.18,0,1.76,0c0,0,0.06-0.04,0.06-0.04c0.73,0.78,0.9,1.73,0.9,2.75
			c0.02,3.96,0.14,7.92,0.01,11.89c-0.04,1.02-0.17,1.97-0.87,2.77l-0.08-0.05c-0.62,0.52-1.22,0.55-1.82-0.03
			C998.33,664.35,998.35,658.59,998.36,652.83z"/>
		<path class="st115" d="M987.52,667.12c0-2.96,0.12-5.92-0.01-8.87c-0.19-4.3-2.15-7.97-4.38-11.53c-0.52-0.84-0.67-1.86-0.41-2.87
			c0.48,0.07,1.28-0.02,1.4,0.22C987.78,651.37,989.57,658.97,987.52,667.12z"/>
		<path class="st111" d="M998.32,670.11c0.61,0.01,1.21,0.02,1.82,0.03c-0.42,3.79-1.61,7.36-4.07,10.25
			c-1.11,1.3-0.6,3.09-1.9,4.13c-1.1-1.41-0.54-2.71,0.12-4.11c0.53-1.14,0.56-2.48,1.09-3.64l0,0c1.52-0.98,0.52-3.08,1.85-4.14
			C998.13,672.02,997.39,670.7,998.32,670.11z"/>
		<path class="st116" d="M971.47,687.62c-1.02-0.01-2.05-0.02-3.07-0.03c0.07-2.83,4.09-6.11,6.63-5.4c0.77,2.8-2.61,3.21-3.06,5.3
			C971.81,687.56,971.64,687.61,971.47,687.62z"/>
		<path class="st114" d="M995.39,676.77c0.18,2.68-1.56,5.05-1.21,7.76c-0.55,0.24-1.11,0.47-1.66,0.71
			c-0.76,0.17-0.94,1.29-1.88,1.18C991.33,682.77,993.71,679.94,995.39,676.77z"/>
		<path class="st117" d="M920,691.77c-0.45,0.02-0.91,0.03-1.36,0.05c-0.44-1.64-3.06-2.09-2.37-4.35c0.75,0.07,1.5,0.15,2.25,0.22
			c0.93,0.54,1.85,1.09,1.92,2.34C920.51,690.66,920.36,691.24,920,691.77z"/>
		<path class="st118" d="M919.87,672.64c-1.01,1.94-0.59,4.83-3.6,5.43C915.81,675.16,917.87,673.92,919.87,672.64z"/>
		<path class="st118" d="M925.84,669.02c-2.06,1.09-3.62,3.02-5.98,3.63C920.75,669.6,923.13,669.04,925.84,669.02z"/>
		<path class="st114" d="M997.24,672.63c-0.63,1.37,1.34,3.91-1.85,4.14C995.96,675.37,993.93,672.8,997.24,672.63z"/>
		<path class="st83" d="M1064.29,652.1c-2.59,0.04-5.18,0.1-7.78,0.11c-1.37,0-5.6-2.47-7.07-3.28c-2.81-1.56-5.1-3.71-7.11-6.06
			c-1.2-1.41-1.79-3.5-2.2-5.38c-1.09-5.02-1.14-10.23-0.15-15.15c0.93-4.66,4.29-7.86,8.42-10.79c5.43-3.85,10.96-2.88,16.56-2.45
			c4.28,0.33,7.75,3.19,11,5.79c1.11,0.89,0.5,3.37,1.66,5.02c3.83,5.39,2.19,11.46,1.85,17.37c-0.08,1.45-1.49,1.4-1.86,2.36
			c-1.16,0.95-0.18,2.58-1.14,3.6c-1.59,3.06-4.86,4.42-7.06,6.88c-0.44,0.5-1.7,0.26-2.58,0.36
			C1066.05,651.11,1065.05,651.41,1064.29,652.1z"/>
		<path class="st72" d="M1064.29,652.1c-0.13-2.07,1.23-1.82,2.54-1.63C1066.81,652.29,1065.67,652.37,1064.29,652.1z"/>
		<path class="st119" d="M1076.48,643.23c0.12-1.28-0.42-2.78,1.14-3.6C1077.82,641.01,1078.3,642.49,1076.48,643.23z"/>
		<path class="st120" d="M994.32,639.09c-0.58-0.36-1.36-0.59-1.68-1.11c-0.45-0.71-1.01-1.6-0.68-2.49
			c0.36-0.98,1.37-0.6,2.11-0.61c4.38-0.08,8.77-0.09,13.15-0.13c0.38,3.82,0.22,7.64,0.05,11.46c-1.3-0.11-2.08-0.46-3.19-1.65
			C1001.55,641.84,999.27,637.79,994.32,639.09z"/>
		<path class="st83" d="M947.97,619.24c-1.19,2.55-1.48,5.35-3.36,7.78c-2.31,2.98-5.09,2.97-8.17,2.96
			c-7.61-0.03-7.62-0.03-7.6-7.62c0.01-4.39,0.05-8.78,0.08-13.18c1.63-1.43,3.06-1.15,4.15,0.64c0.64,1.05,1.56,1.55,2.67,1.64
			c2.63,0.24,4.67,1.54,6.44,3.35C943.9,616.58,946.82,616.75,947.97,619.24z"/>
		<path class="st121" d="M947.97,619.24c-2.03-1.7-4.69-2.27-6.63-4.37c-1.69-1.82-4.45-2.62-7.09-2.99
			c-0.64-0.09-1.67,0.14-1.72-0.77c-0.14-2.79-1.93-2.19-3.61-1.93c-0.03-0.99,0.46-1.34,1.42-1.46c3.91-0.47,7.86,0.27,11.02,2.08
			c1.79,1.02,5.55,1.47,5.14,5.48C946.41,616.22,948.53,617.45,947.97,619.24z"/>
		<path class="st45" d="M957.09,616.13c1.62,1.51,1.6,3.75-0.04,5.49C957.06,619.79,957.08,617.96,957.09,616.13z"/>
		<path class="st1" d="M942.63,601.16c1.14,0.54,3.04-1.1,3.56,1.24C945.01,601.96,943.17,603.42,942.63,601.16z"/>
		<path class="st122" d="M1000.22,670.2c-0.01-5.8-0.03-11.61-0.04-17.41c1.5-0.14,1.85,0.68,1.84,2
			c-0.03,4.45,0.86,8.88,0.04,13.35C1001.83,669.37,1001.73,670.3,1000.22,670.2z"/>
		<path class="st123" d="M961.9,503.29c-0.06-5.92-0.12-11.84-0.18-17.76c0.34-0.65,0.99-0.83,1.6-1.06
			c2.45-1.53,3.94-4.08,6.54-5.6c4.49-2.64,9.29-4.41,14.1-6.23c0.64-0.24,1.36-0.25,1.92-0.74c4.41-3.92,9.86-5.19,15.47-5.86
			c2.04-0.24,3.95-0.41,5.47-1.96c0.57-0.58,1.32-0.98,2.14-0.98c4.2,0,8.34-1.02,12.55-0.69c1.2,0.09,2.42,0.18,3.1,1.43
			c0.21,0.89-0.01,1.42-0.95,1.86c-2.87,1.35-5.19,3.62-7.62,5.54c-1.77,1.41-3.38,3.1-5.23,4.58c-2.13,1.71-5.02,1.99-6.71,4.22
			c-1.24,1.63-3.96,2.03-3.94,4.72c-4.16,0.41-7.06,2.69-10.04,5.56c-1.97,1.89-3.5,4.64-6.73,5.36c-2.04,0.45-3.03,2.91-4.27,4.41
			c-1.57,1.9-3.63,2.93-5.38,4.37c-1.37,1.13-1.87,2.12-1.76,3.69c-0.99,1.62-2.4,2.98-3,4.84l0-0.01
			c-1.08,0.72-0.85,2.22-1.79,3.02c0,0,0.01-0.01,0.01-0.01c-1.41,0.17-0.88,3.2-2.84,2.18c-1.43-0.74-0.62-2.51-0.68-3.81
			c-0.14-2.95-0.13-5.91-0.1-8.87C963.59,504.25,963.34,503.35,961.9,503.29z"/>
		<path class="st84" d="M960.99,365.54c-1.09,0-2.19,0-3.28,0c-3.37-0.01-4.86-1.64-4.92-5.42c-0.05-2.91,1-3.74,4.84-3.8
			c1.99-0.03,3.98,0.07,5.96-0.08c2.84-0.21,4.55,1.39,5.44,3.66c1.74,4.42,0.49,5.34-3.27,5.58c-1.58,0.1-3.18,0.02-4.77,0.02
			C960.99,365.51,960.99,365.53,960.99,365.54z"/>
		<path class="st124" d="M947.37,662.9c0.05-0.34,0.09-0.67,0.14-1c5.24,0,10.49,0,15.69,0c0.29-1.62-1.2-1.19-1.36-1.99
			c2.42-0.07,4.71,1.33,7.19,0.64c-0.25,3.47-0.21,3.1-3.84,2.64c-3.81-0.48-7.72-0.17-11.59-0.21
			C951.52,662.96,949.45,662.93,947.37,662.9z"/>
		<path class="st125" d="M1024.61,463.84c-2.91-1.11-5.94-0.74-8.89-0.41c-1.48,0.16-2.95,0.36-4.44,0.41
			c-1.73,0.05-3.47-0.24-4.7,1.66c-0.4,0.62-1.42,1.47-2.56,1.26c-3.44-0.64-6.5,1.55-9.89,1.29c-0.86-0.07-1.55,0.18-1.82,1.16
			c-0.21,0.75-0.82,1.13-1.59,1.14c-1.83,0.03-3.71-0.11-3.98,2.48c-0.02,0.21-0.63,0.49-0.98,0.5c-4.92,0.07-8.77,3.29-13.2,4.79
			c-2.28,0.77-5.86,2.28-6.81,5.77c-0.26,0.93-1.36,1.09-2.18,1.43c-2.85-0.82-3.18-1.72-1.73-4.73c0.59-0.05,1.6,0.07,1.7-0.19
			c1.27-3.11,4.46-2.27,6.69-3.36c2.47-1.2,5.15-2.59,6.93-4.27c2.41-2.28,5.32-1.51,7.67-2.91c0.39-0.23,1.26,0.06,1.43-0.2
			c2.67-4.11,7.76-2.22,10.86-4.3c3.05-2.04,6.59-0.94,8.97-2.4c5.64-3.46,11.5-1.59,17.23-2.1c1.79-0.16,2.89-0.43,2.75-2.45
			c1.24,1.59-0.21,3.17-0.01,4.76C1025.47,463.16,1025.01,463.43,1024.61,463.84z"/>
		<path class="st126" d="M961.86,480.59c0.05,1.77-0.79,3.86,1.73,4.73c-0.62,0.07-1.24,0.14-1.86,0.21
			c-0.87-0.08-1.75-0.16-1.78-1.35c0.04-2.21,0.08-4.41,0.12-6.62C962.45,477.5,961.55,479.41,961.86,480.59z"/>
		<path class="st126" d="M960.09,477.08c-0.27-1.36-0.29-2.56,1.62-2.51C961.79,475.81,962.14,477.22,960.09,477.08z"/>
		<path class="st127" d="M936.02,539.98c0,15.28-0.01,30.56,0,45.84c0,0.97-0.02,1.89,0.59,2.84c1.5,2.32,0.55,4.85-1.2,6.1
			c-1.4,1-4.06,1.4-5.37-1.19c-0.31-0.61-0.88-0.8-1.51-0.76c-1.7,0.12-3.03-0.15-2.77-2.35c0.03-0.26-0.12-0.76-0.27-0.8
			c-4.71-1.18-4.38-6.26-6.98-9.07c-0.71-0.77-1.39-1.03-2.32-0.99c-2.14-0.89-2.33-3.27-3.64-4.82c-2.06-2.43-2.53-5.6-3.57-8.53
			c-1.64-4.58-1.15-9-1.39-13.5c-0.09-1.6,0.04-3.2,1.09-4.56c0.44-0.57,0.66-1.27,0.63-1.97c-0.23-4.89,2.17-8.76,4.85-12.5
			c1.19-1.66,1.25-3.74,2.41-5.45c2.53-3.72,4.16-8.09,8.05-10.81c0.4-0.28,0.46-0.87,0.76-1.27c1.14-0.84,1.48-2.17,2-3.39
			c1.81-1.91,3.35-4.1,5.63-5.53c1.01-0.63,2.08-1.46,2.7,0.44c1.05,9.58,0.96,19.19,0.89,28.81
			C936.58,537.7,936.84,538.93,936.02,539.98z"/>
		<path class="st128" d="M925.85,516.05c0.2,2.25-1.6,3.11-3.03,4.13c-0.46,0.33-1.37,0.44-1.31,1.01c0.32,3.18-2.68,4.61-3.84,7.03
			c-1.32,2.78-2.23,5.88-4.35,8.46c-2.52,3.07-2.3,7.53-3.58,11.06c-1.45,3.97-1.46,7.69-1.18,11.38c0.41,5.38,1.19,10.91,4.81,15.4
			c1.23,1.53,2.19,3.21,2.83,5.07c0.08,0.71-0.76,1.79,0.29,2.09c1.94,0.56,1.51,1.98,1.54,3.3c-1.88,1.23-2.75,0.19-3.2-1.5
			c-0.81-3.08-2.6-5.5-4.95-7.56c-2.33-4.66-3.52-9.66-4.37-14.76c-0.5-2.99-0.7-5.99,0.1-8.91c0.49-1.76,0.77-3.49,0.75-5.3
			c-0.03-2.84,0.21-5.58,2.25-7.86c1.09-1.22,1.31-3.01,1.58-4.45c0.83-4.54,5.2-7.28,5.53-12.16c0.16-2.35,3.33-3.14,5.23-4.52
			c2,0.24,2.41-2.81,4.58-2.23C925.63,515.84,925.74,515.94,925.85,516.05z"/>
		<path class="st129" d="M910.25,575.96c3.29,1.22,4.7,3.98,5.26,7.09c0.31,1.74,1.01,2.13,2.5,1.94c0.64,1.62,1.24,3.2,2.58,4.49
			c0.86,0.82,0.53,1.86-0.83,2.2c-2.23-3.42-6.56-3.29-9.45-5.6c-0.03-0.35-0.06-0.7-0.08-1.05c2.35-1.83,2.4-2.26,0.64-5.4
			C910.23,578.47,908.91,577.44,910.25,575.96z"/>
		<path class="st93" d="M936.02,539.98c0.22-10.96-0.37-21.9-0.7-32.84c-0.44-0.96-0.97-1.93,0.49-2.51
			c0.12,0.01,0.23,0.05,0.33,0.11c1.31,10.43,1.02,20.92,1.11,31.39c0.01,1.29-0.03,2.59-0.05,3.88
			C936.81,539.99,936.41,539.98,936.02,539.98z"/>
		<path class="st83" d="M910.25,575.96c-0.56,2.28,1.72,3.34,2.31,5.23c1.03,3.27,1.12,3.66-2.33,3.84
			c-1.19-0.15-2.01-0.34-2.64-1.8c-0.94-2.19-3.51-3.07-5.21-4.71c-2.4-1.64-3.81-3.86-5.21-6.48c-4.98-9.35-2.96-18.99-1.92-28.6
			c0.26-2.38,2.01-4.41,2.98-6.64c0.36-0.82,1.22-1.59,1.25-2.67c0.16-5.51,4.97-8.42,7.1-12.81c1.03-2.12,3.84-3.03,3.7-5.82
			c0.67-0.24,1.76,0.01,1.63-1.22c-0.13-1.22,0.9-1.92,1.53-2.28c2.65-1.52,4.21-4.06,6.28-6.11c1.46-1.44,3.12-2.83,4.95-3.69
			c1.27-0.6,1.21-1.32,1.23-2.28c2.58,0.12,3.41-1.9,4.6-3.61c1.24-1.79,2.86-2.81,5.01-1.19c0.39,2.48,0.03,4.97,0.19,7.45
			c0.09,1.36-0.65,2.05-1.73,2.47c-2.1,0.81-3.46,2.29-4.24,4.36c-0.59,1.58-1.82,2.58-3.16,3.47c-0.21,0.2-0.44,0.38-0.68,0.55
			c-1.77,1.37-2.31,3.81-4.32,4.97c-1.87,0.7-2.82,2.6-4.71,3.47c-0.88,0.4-0.88,2.81-1.19,4.33c-0.35,1.73-0.31,3.65-2.83,3.79
			c-0.75,0.04-0.72,0.82-0.76,1.42c-0.1,1.61-1.12,3.1-1.41,4.36c-0.97,4.24-4.74,7.7-3.48,12.55c0.69,2.67-1.37,4.98-1.22,7.75
			c0.24,4.63,1.39,9.08,2.13,13.6C908.46,571.81,911.02,573.33,910.25,575.96z"/>
		<path class="st11" d="M968.98,513c0.18-2.12,0.48-4.17,3-4.84c0.42,0.03,0.85,0.05,1.27,0.08c-1.29,0.8-1.49,2.21-1.95,3.48
			C970.22,511.57,969.67,512.4,968.98,513z"/>
		<path class="st130" d="M925.79,512.99c2.26-1.75,3.34-4.35,4.79-6.68c0.26-0.42,0.37-0.98,0.92-1.07
			c4.37-0.72,4.17-3.89,3.91-7.15c-0.08-0.99,0.07-1.99,0.11-2.98c0.64,3.15,0.44,6.33,0.29,9.5c-0.63,0.75-0.28,1.68-0.49,2.51
			c-2.97,0.69-4.37,3.36-6.44,5.18c-0.38,0.33-0.69,0.67-1.2,0.74C927.04,513.46,926.41,513.56,925.79,512.99z"/>
		<path class="st11" d="M967.19,516c0.18-1.26-0.76-3.17,1.79-3.02C968.89,514.29,969.7,516.13,967.19,516z"/>
		<path class="st131" d="M920,690.03c-0.13-1.01-1.47-1.25-1.47-2.34c3.15,0.12,3.91-2.73,4.68-4.61c0.71-1.75,1.64-3.32,3.08-3.55
			c2.4-0.39,2.85-1.92,3-3.64c0.16-1.75,0.94-2.23,2.49-2.09c0.84,0.07,1.53-0.19,2.07-0.91c0.99-1.33,2.44-1.37,3.97-1.56
			c3.67-0.47,7.29-1.39,10.92-2.05c9.56-1.75,19.12-1.54,28.7-1.32c2.49,0.06,4.82,2.19,7.63,1.66c-0.77,0.64-1.54,1.27-2.31,1.91
			c-2.11,0.76-4.01-0.62-6.12-0.53c-4.77,0.21-9.56,0.3-14.32,0.02c-8.94-0.52-17.35,1.52-25.47,4.93
			c-3.31,1.39-6.11,3.63-8.28,6.57c-1.32,0.31-2.14,1.1-2.36,2.48c-0.13,0.26-0.3,0.48-0.51,0.68c-0.76,0.45-0.9,1.23-1.08,2.01
			C923.86,690.92,923.21,691.25,920,690.03z"/>
		<path class="st116" d="M920,690.03c2.41,0.32,4.22-0.06,3.98-3.14c-0.1-1.24,0.56-1.84,1.84-1.64c0.39,0.34,0.57,0.79,0.71,1.28
			c0.41,1.39-0.37,3.34,1.12,4.14c2.23,1.2,4.42,2.65,7.19,2.61c5.28-0.08,10.56-0.05,15.84,0c1.36,0.01,2.83-0.22,3.94,0.92
			c-0.62,1.23-2.84-0.22-2.99,1.79c-4.48,0.01-8.97-0.18-13.44,0.09c-3.97,0.24-7.76-0.9-11.22-2.15c-2.3-0.83-4.6-1.57-6.97-2.16
			C920,691.19,920,690.61,920,690.03z"/>
		<path class="st132" d="M954.62,694.19c-6.9-0.01-13.79-0.15-20.68,0.02c-2.94,0.07-4.75-2.41-7.5-2.68
			c-0.9-0.09-0.6-1.34-0.63-2.1c-0.04-1.4,0-2.8,0-4.2c0,0,0.05-0.04,0.05-0.04c1-0.73,0.83-2.15,1.75-2.93
			c1.72-2.34,3.77-4.25,6.31-5.75c3.1-1.84,6.24-3.52,9.83-3.87c2.07-0.21,3.95-1.07,5.86-1.6c1.85-0.51,3.61-0.79,5.45-0.8
			c6.57-0.06,13.13-0.03,19.7-0.06c2.75-0.01,5.51-0.24,7.99,1.33c-0.58,4.02-3.06,6.95-5.59,9.87c-0.6,0.7-1.35,0.75-2.14,0.8
			c-0.39,0.01-1.07-0.12-1.14,0.04c-1.16,2.49-4.65,2.58-5.49,5.36c-0.38,0.01-0.75,0.02-1.13,0.04c-0.33,0.23-0.66,0.47-1.06,0.53
			C961.66,688.85,958.3,691.84,954.62,694.19L954.62,694.19z"/>
		<path class="st116" d="M954.62,694.19c-0.01-0.81-0.06-1.64,1.06-1.81c1.7-0.25,3.04-0.89,3.3-2.86c0.03-0.26,0.61-0.69,0.85-0.64
			c2.66,0.53,4.78-1.96,7.44-1.27c-0.4,2.3-2.88,3.12-4.16,3.6C960.33,692.25,957.86,694.48,954.62,694.19z"/>
		<path class="st128" d="M925.79,512.99c0.63,0.02,1.26,0.04,1.89,0.06c-0.21,1.25,0.54,3.08-1.84,3c0,0-0.07-0.07-0.07-0.07
			C924.98,514.98,925.03,513.98,925.79,512.99L925.79,512.99z"/>
		<path class="st130" d="M925.79,512.99c-0.01,0.99-0.01,1.99-0.02,2.98c-0.82,0.03-1.58,0.07-1.83,1.11
			c-0.3,1.24-1.3,1.35-2.36,1.31C922.8,516.45,923.5,514.1,925.79,512.99z"/>
		<path class="st116" d="M927.62,682.27c-0.15,1.24,0.57,2.99-1.75,2.93C926.07,684,924.98,682.02,927.62,682.27z"/>
	</g>
</g>
</svg>
