<?xml version="1.0" encoding="utf-8"?>
<!-- Generator: Adobe Illustrator 25.1.0, SVG Export Plug-In . SVG Version: 6.00 Build 0)  -->
<svg version="1.1" id="레이어_1" xmlns="http://www.w3.org/2000/svg" xmlns:xlink="http://www.w3.org/1999/xlink" x="0px"
	 y="0px" viewBox="0 0 859.06 859.06" style="enable-background:new 0 0 859.06 859.06;" xml:space="preserve">
<style type="text/css">
	.st0{fill:#F0F5F7;}
	.st1{fill:#FEFEFE;}
	.st2{fill:#FBFBFB;}
	.st3{fill:#FDFDFD;}
	.st4{fill:#FBFBFC;}
	.st5{fill:#FAFAFB;}
	.st6{fill:#F7F8F8;}
	.st7{fill:#F6F6F6;}
	.st8{fill:#F6F7F7;}
	.st9{fill:#F6F6F7;}
	.st10{fill:#FCFCFC;}
	.st11{fill:#F9F9F9;}
	.st12{fill:#F8F8F9;}
	.st13{fill:#F7F7F7;}
	.st14{fill:#FAFAFA;}
	.st15{fill:#F8F8F8;}
	.st16{fill:#F5F6F7;}
	.st17{fill:#EFEFEF;}
	.st18{fill:#E8E9EA;}
	.st19{fill:#F1F2F2;}
	.st20{fill:#EFF1F1;}
	.st21{fill:#F1F4F5;}
	.st22{fill:#F7F7F8;}
	.st23{fill:#D7D9D9;}
	.st24{fill:#E9EDEE;}
	.st25{fill:#C0C2C3;}
	.st26{fill:#B3B5B6;}
	.st27{fill:#C3C6C7;}
	.st28{fill:#F1F5F6;}
	.st29{fill:#BCBEBF;}
	.st30{fill:#E1E5E6;}
	.st31{fill:#BABCBD;}
	.st32{fill:#BDBFC0;}
	.st33{fill:#E6E7E8;}
	.st34{fill:#050505;}
	.st35{fill:#0A0A0A;}
	.st36{fill:#020202;}
	.st37{fill:#080808;}
	.st38{fill:#030303;}
	.st39{fill:#040404;}
</style>
<g>
	<path d="M429.5,858.99c-142.06,0-284.12-0.01-426.17,0.06c-2.63,0-3.31-0.52-3.31-3.26C0.09,571.66,0.09,287.54,0,3.41
		c0-3.04,0.79-3.4,3.55-3.4c284,0.07,567.99,0.07,851.99-0.01c2.85,0,3.5,0.5,3.5,3.45c-0.09,284.01-0.09,568.02,0.01,852.03
		c0,3.21-0.89,3.58-3.74,3.58C713.38,858.98,571.44,858.99,429.5,858.99z"/>
	<path class="st0" d="M644.09,299.3c-6.42,6.37-12.67,12.57-19.04,18.89c-4.3-4.34-8.78-8.78-13.16-13.33
		c-1.24-1.29-2.03-1.52-3.36-0.08c-2.82,3.07-5.76,6.04-8.78,8.92c-1.26,1.2-1.22,1.86,0.03,3.04c4.14,3.95,8.1,8.09,12.25,12.03
		c1.45,1.37,1.55,2.19,0.05,3.64c-4.89,4.72-9.59,9.64-14.47,14.37c-1.65,1.6-2.46,3.22-2.37,5.59c0.19,5,0.01,10.02,0.09,15.03
		c0.03,1.56-0.46,2.66-1.56,3.76c-31.4,31.35-62.77,62.73-94.12,94.13c-1.21,1.21-2.45,1.63-4.11,1.6
		c-4.89-0.08-9.78,0.08-14.67-0.08c-2.33-0.08-3.95,0.66-5.6,2.31c-15.32,15.37-30.73,30.66-46.19,46.05
		c-11.9-11.87-23.87-23.81-35.85-35.74c-4.13-4.12-7.64-9.77-12.63-11.87c-4.98-2.09-11.46-0.73-17.28-0.64
		c-2.24,0.03-3.74-0.7-5.29-2.25c-30.91-30.99-61.87-61.95-92.86-92.86c-1.56-1.56-2.25-3.08-2.21-5.3
		c0.11-5.72,1.52-12.1-0.52-16.98c-2.09-5-7.7-8.51-11.72-12.73c-1.96-2.06-5.61-3.86-5.44-6.19c0.16-2.19,3.49-4.17,5.48-6.19
		c2.59-2.64,5.18-5.28,7.87-7.8c1.11-1.04,1.21-1.68,0.06-2.79c-3.01-2.89-5.94-5.86-8.78-8.92c-1.13-1.22-1.78-0.98-2.8,0.06
		c-3.84,3.91-7.82,7.7-11.63,11.64c-1.36,1.41-2.19,1.59-3.67,0.08c-5.59-5.71-11.32-11.27-16.79-16.69
		c6.4-6.4,12.62-12.62,18.95-18.95c4.14,4.18,8.47,8.45,12.68,12.84c1.33,1.39,2.2,1.72,3.62,0.09c2.11-2.42,4.33-4.8,6.76-6.88
		c1.98-1.69,1.37-2.67-0.18-4.13c-3.64-3.43-7.08-7.08-10.72-10.51c-1.38-1.3-1.35-2.07,0-3.38c4.88-4.74,9.56-9.66,14.46-14.38
		c1.76-1.7,2.58-3.44,2.48-5.92c-0.19-4.64,0.03-9.3-0.09-13.95c-0.05-2.05,0.51-3.57,1.99-5.06
		c31.24-31.17,62.44-62.38,93.62-93.62c1.18-1.19,2.36-1.72,4.06-1.68c4.89,0.11,9.79-0.11,14.67,0.1c2.5,0.11,4.16-0.78,5.87-2.51
		c14.43-14.57,29-29,43.39-43.6c1.99-2.02,2.92-2.29,5.07-0.1c14.46,14.72,29.12,29.24,43.63,43.91c1.65,1.67,3.3,2.38,5.61,2.28
		c4.05-0.16,8.13,0.24,12.16-0.13c3.72-0.34,6.12,1.13,8.64,3.66c30.2,30.36,60.49,60.63,90.82,90.85c2.02,2.01,2.99,4.01,2.83,6.87
		c-0.23,3.92,0.2,7.89-0.13,11.8c-0.29,3.45,0.97,5.79,3.4,8.06c4.44,4.15,8.52,8.69,13,12.8c2.09,1.92,1.78,2.96-0.11,4.69
		c-3.61,3.29-6.93,6.89-10.48,10.25c-1.31,1.24-1.54,2-0.08,3.35c2.63,2.41,5.1,5.02,7.53,7.64c1.21,1.31,1.92,1.48,3.3,0.01
		c3.84-4.08,7.95-7.9,11.88-11.89c1.12-1.14,1.82-1.75,3.28-0.25C632.62,288.06,638.44,293.71,644.09,299.3z"/>
	<path class="st1" d="M430.33,627.8c-7.63,0-15.27,0.03-22.9-0.04c-0.88-0.01-2.4,0.77-2.62-0.76c-0.26-1.75,1.4-1.26,2.31-1.32
		c4.17-0.26,4.53-3.21,4.54-6.35c0.02-14.91,0.01-29.82,0.01-44.73c0-1.91,0.02-3.82-0.09-5.72c-0.16-2.88-1.47-4.7-4.61-4.82
		c-0.85-0.03-2.2,0.39-2.24-1.05c-0.04-1.52,1.34-1.04,2.17-1.05c15.15-0.03,30.3,0,45.44-0.05c1.61,0,2.34,0.21,2.07,2.14
		c-0.7,5.09-0.65,10.22-0.47,15.35c0.02,0.73,0.48,1.81-0.86,1.92c-1.13,0.1-1.25-0.72-1.39-1.63c-0.46-2.94-1.21-5.81-2.5-8.52
		c-2.15-4.51-5.78-6.85-10.71-7.09c-2.62-0.13-5.25-0.08-7.87,0.02c-2.53,0.09-3.96,1.42-3.97,4.06c-0.03,7.87-0.01,15.74-0.1,23.62
		c-0.02,1.6,0.57,1.94,2.07,1.98c5.25,0.13,8.45-2.53,10.3-7.17c0.53-1.32,0.97-2.68,1.34-4.05c0.23-0.84,0.68-1.21,1.51-1.13
		c0.81,0.08,0.83,0.68,0.81,1.3c-0.27,7.27-0.36,14.54,0.37,21.79c0.07,0.67-0.18,1.17-0.89,1.29c-0.67,0.11-1.14-0.2-1.37-0.84
		c-0.31-0.9-0.56-1.82-0.92-2.7c-2.01-4.86-6.68-7.41-11.78-6.71c-1.41,0.19-1.41,0.87-1.4,1.88c0.03,7.99,0.05,15.98,0.06,23.97
		c0,2.79,1.44,4.2,4.16,4.26c2.98,0.06,5.98,0.23,8.94-0.05c5.55-0.52,8.97-3.98,11.17-8.84c1.33-2.94,2.1-6.06,2.68-9.22
		c0.15-0.83,0.28-1.78,1.41-1.71c1.31,0.08,0.94,1.17,0.91,1.92c-0.27,6.19-0.15,12.38,0.32,18.55c0.18,2.33-1.4,1.45-2.28,1.45
		C446.07,627.83,438.2,627.8,430.33,627.8z"/>
	<path class="st1" d="M508.19,593.16c0,8.57-0.07,17.15,0.03,25.72c0.06,5.18,1.37,6.43,6.55,6.88c0.47,0.04,0.96,0.03,1.42,0.12
		c0.75,0.15,1.92-0.1,1.86,1.12c-0.06,1.3-1.22,0.82-1.94,0.83c-6.32,0.01-12.63-0.02-18.95-0.03c-3.93,0-7.87,0.05-11.8,0.03
		c-0.72,0-1.82,0.54-2-0.75c-0.17-1.27,0.93-1.13,1.7-1.25c7.96-1.29,8.19-1.54,8.19-9.73c0.01-16.33-0.04-32.66,0.05-48.99
		c0.01-2.48-0.25-3.46-3.22-3.25c-6.52,0.45-10.15,4.25-12.41,9.74c-1.26,3.06-1.99,6.33-2.9,9.53c-0.23,0.82-0.22,1.73-1.43,1.58
		c-1.33-0.17-0.84-1.24-0.83-1.95c0.05-6.32,0.23-12.64-0.47-18.93c-0.26-2.29,1.08-1.86,2.31-1.86c10.73-0.01,21.45,0,32.18,0
		c6.79,0,13.59,0.08,20.38-0.05c2.07-0.04,2.42,0.52,2.32,2.57c-0.3,5.94-0.21,11.89-0.35,17.84c-0.02,0.8,0.74,2.07-0.71,2.34
		c-1.66,0.32-1.55-1.26-1.75-2.14c-0.92-3.95-2.03-7.82-3.98-11.4c-2.55-4.69-6.41-7.05-11.82-7.28c-2.24-0.09-2.54,0.61-2.53,2.53
		c0.08,8.93,0.03,17.86,0.03,26.79C508.15,593.16,508.17,593.16,508.19,593.16z"/>
	<path class="st1" d="M387.41,616.29c0,3.1,0.04,6.2-0.03,9.29c-0.02,0.79,0.64,2.09-0.98,2.18c-1.23,0.07-1.06-0.93-1.25-1.72
		c-1.06-4.42-1.25-4.48-5.31-2.06c-21.65,12.92-47.59-1.01-48.58-26.15c-0.58-14.76,4.27-26.96,18.29-33.45
		c10.32-4.78,20.95-4.94,30.91,1.78c3.06,2.06,3.78,1.71,4.67-2.07c0.2-0.84-0.24-2.19,1.25-2.08c1.73,0.13,0.98,1.62,0.98,2.49
		c0.01,5.24,0.01,10.49-0.21,15.73c-0.06,1.47,1.12,4.05-0.95,4.25c-2.19,0.22-1.43-2.52-1.7-3.94c-0.97-5.15-2.71-9.69-7.01-13.17
		c-8.36-6.77-19.37-4.94-24.74,4.38c-2.53,4.4-3.79,9.22-4.39,14.2c-1.11,9.18-0.96,18.3,2.13,27.16
		c3.38,9.68,9.52,14.18,18.13,13.35c8.31-0.81,14.38-7.27,15.74-16.74c0.17-1.18,0.31-2.36,0.48-3.54c0.13-0.92,0.06-2.07,1.52-1.86
		c1.3,0.18,0.81,1.27,0.82,1.98c0.06,3.34,0.02,6.67,0.02,10.01C387.28,616.29,387.34,616.29,387.41,616.29z"/>
	<path class="st2" d="M394.56,697.93c-0.64-2.3-2.57-2.51-4.49-2.76c-1.39-0.18-2.2,0.09-2.11,1.82c0.14,2.61,0.19,5.25,0,7.85
		c-0.24,3.22,0.99,4.48,4.27,4.49c6.85,0.01,7.66-0.5,10-8.46c0.19,3.28,0.28,5.64,0.48,8c0.11,1.34-0.76,1.24-1.59,1.24
		c-6.77,0.01-13.53,0-20.56-0.25c2.99-0.75,3.45-2.72,3.39-5.31c-0.15-6.61-0.06-13.23-0.03-19.84c0.01-2.33,0.19-4.71-3.08-5.37
		c6.47,0,12.93,0.02,19.4-0.01c1.19-0.01,1.66,0.32,1.56,1.64c-0.15,2-0.04,4.02-0.04,6.13c-1.6-0.41-1.25-1.68-1.34-2.4
		c-0.38-3.3-2.4-4.35-5.36-4.53c-6.58-0.41-7.06,0.02-7.06,6.63c0,1.07-0.26,2.23,0.06,3.19c0.48,1.45-1.61,3.79,1.27,4.34
		c2.75,0.53,4.59-0.69,5.23-3.51C396.07,693.18,396.06,695.56,394.56,697.93z"/>
	<path class="st3" d="M593.01,679.33c-0.09,1.75-0.2,3.17-0.24,4.59c-0.04,1.4-0.01,2.79-0.01,4.8c-1.26-1.69-1.2-3.12-1.49-4.45
		c-0.41-1.85-1.29-3.17-3.31-3.75c-4.17-1.2-5.03-0.65-5.03,3.63c0,6.79,0.01,13.58-0.01,20.37c-0.01,2.77,0.56,5.04,4.02,5.33
		c-3.96,0-7.93,0-11.89,0c4.28-0.28,4.03-3.41,4.02-6.42c-0.02-6.43,0.07-12.87-0.07-19.29c-0.03-1.29,1.25-3.52-1.01-3.86
		c-2.53-0.38-5.45-0.45-6.74,2.61c-0.68,1.6-0.91,3.39-1.56,5.91c-0.92-3.31-0.44-5.94-0.61-8.49c-0.09-1.36,1.11-0.95,1.82-0.95
		C578.15,679.32,585.41,679.33,593.01,679.33z"/>
	<path class="st4" d="M675.63,707.95c-4.16,4.4-11.14,3.74-14.06-1.57c-2.73-4.96-2.43-10.11,0.51-14.92
		c2.09-3.41,6.48-4.75,10.39-3.45c3.19,1.07,4.6,3.49,4.94,6.74c0.15,1.4-0.21,1.9-1.66,1.86c-3.09-0.09-6.18,0.09-9.26-0.06
		c-1.93-0.09-2.6,0.72-2.48,2.47c0.09,1.3,0.09,2.63,0.37,3.9c1.16,5.25,5.17,6.93,10.68,4.55
		C675.33,707.52,675.53,707.68,675.63,707.95z"/>
	<path class="st1" d="M190.29,676.57c2.13-0.13,4.26-0.25,6.67-0.39c0,1.43,0,2.96,0,4.49c0,8,0.01,16-0.01,24
		c0,2.16-0.15,4.34,2.54,5.3c-3.04,0-6.07,0-9.95,0c3.72-1.14,3.74-3.56,3.71-6.18c-0.1-7.14-0.09-14.29,0-21.44
		C193.28,679.82,192.95,677.67,190.29,676.57z"/>
	<path class="st1" d="M524.39,676.59c2.19-0.13,4.38-0.27,6.81-0.41c0,9.54,0,19.08,0,28.61c0,2.06-0.13,4.17,2.56,5.06
		c-3.07,0-6.14,0-9.22,0c2.93-0.72,2.97-2.99,2.94-5.47c-0.08-7.26-0.04-14.53-0.02-21.8C527.47,680.07,527.7,677.46,524.39,676.59z
		"/>
	<path class="st1" d="M467.33,676.56c2.12-0.13,4.24-0.26,6.69-0.4c0,9.41,0.01,18.9-0.01,28.39c0,2.31-0.01,4.6,2.99,5.36
		c-3.21,0-6.42,0-9.63,0c2.98-0.79,2.94-3.11,2.92-5.56c-0.06-7.37-0.05-14.75,0-22.12C470.31,679.85,470.06,677.71,467.33,676.56z"
		/>
	<path class="st5" d="M168.23,710.28c-2.42-0.02-4.28-1.24-5.94-2.82c-7.84-7.46-5.56-23.6,3.92-27.79
		c0.62-0.28,1.36-0.31,2.04-0.45c0.18,0.17,0.24,0.33,0.19,0.51c-0.05,0.17-0.11,0.26-0.17,0.26c-8.6,6.42-8.59,23.03,0.01,29.39
		C168.52,709.7,168.5,710,168.23,710.28z"/>
	<path class="st6" d="M421.42,709.99c-4.13,0-7.17,0-10.19,0c4.03-3.28,3.92-18.85-0.88-22.07c1.64,0,2.62,0.01,3.6,0
		c3.89-0.04,5.21,1.73,4.41,5.65c-0.89,4.36-0.21,8.79-0.41,13.19C417.87,708.53,419.29,709.02,421.42,709.99z"/>
	<path class="st6" d="M617.21,687.91c1.04,0,2.08,0.01,3.12,0c3.31-0.04,5.12,1.98,4.32,5.23c-1.11,4.49-0.31,9.01-0.56,13.5
		c-0.1,1.7,1.05,2.46,2.37,3.29c-3.01,0-6.01,0-9.43,0c5.23-2.59,2.81-7.14,2.84-10.79C619.9,695.55,622.09,690.98,617.21,687.91z"
		/>
	<path class="st6" d="M259.31,710c-3.81,0-6.86,0-10.09,0c4.32-2.88,4.22-19.04,0.01-22.14c2,0,4.25-0.57,5.93,0.16
		c1.72,0.75,1.94,3.37,1.57,5.04c-1,4.51-0.23,9.02-0.54,13.51C256.06,708.36,257.39,708.92,259.31,710z"/>
	<path class="st6" d="M344.91,710c-3.52,0-6.56,0-9.79,0c4.32-2.89,4.22-19.06-0.36-21.64c2.29-0.8,4.61-0.91,6.28-0.32
		c1.76,0.63,1.94,3.35,1.58,4.99c-0.99,4.51-0.2,9.02-0.55,13.5C341.91,708.43,343.54,708.92,344.91,710z"/>
	<path class="st6" d="M638.7,690.82c-3,5.23-1.36,10.93-1.59,16.43c-0.07,1.57,1.75,1.61,3.08,2.67c-3.48,0-6.47,0-10.08,0
		c2.55-1.01,2.97-2.71,2.9-4.81c-0.12-3.43,0.04-6.86,0-10.29c-0.07-5.53-0.43-5.86-5.71-5.81c3.97-2.45,6.54-1.96,9.12,1.95
		c0.83,1.27,0.99,0.02,1.45-0.15C638.14,690.52,638.42,690.53,638.7,690.82z"/>
	<path class="st7" d="M213.15,709.99c-3.03,0-6.05,0-9.08,0c2.48-1.04,2.42-3.19,2.42-5.33c0-3.34,0.04-6.67-0.01-10.01
		c-0.09-5.73-1.54-6.69-6.96-4.7c1.59-2.14,3.85-2.82,6.83-2.11c2.78,0.66,3.88,2.71,4,5.24c0.18,3.81,0.1,7.62,0.09,11.44
		C210.42,706.78,210.11,709.15,213.15,709.99z"/>
	<path class="st7" d="M547.6,709.99c-3.23,0-6.25,0-9.28,0c2.48-1.04,2.42-3.19,2.42-5.33c0-3.34,0.04-6.67-0.01-10.01
		c-0.09-5.73-1.54-6.69-6.96-4.7c1.59-2.14,3.84-2.82,6.83-2.11c2.78,0.66,3.88,2.71,4,5.24c0.18,3.81,0.07,7.62,0.1,11.44
		C544.71,708.06,544.71,708.06,547.6,709.99z"/>
	<path class="st8" d="M609.64,710.03c-3.18,0-6.35,0-9.66,0c4.17-3.02,4.13-19.04-0.2-22.01c2.43-0.27,4.66,0.13,7.11-0.85
		c0,6.26,0.04,12.08-0.02,17.9C606.86,707.22,606.94,709.16,609.64,710.03z"/>
	<path class="st8" d="M484.1,688.12c0.2-0.08,0.41-0.22,0.61-0.23c6.24-0.21,6.24-0.21,6.24,6.18c0,3.57,0.02,7.15-0.01,10.72
		c-0.02,2.18-0.23,4.41,2.76,5.33c-1.57,0-3.13,0-4.7,0c-1.61,0-3.23,0-5.24,0C488.26,707.17,488.2,691.16,484.1,688.12z"/>
	<path class="st9" d="M639.98,688.71c6.37-2.68,9.77-0.61,9.91,6.1c0.07,3.22,0.01,6.44,0.01,9.66c0,2.24-0.44,4.7,2.71,5.49
		c-3.03,0-6.05,0-9.08,0c2.48-1,2.43-3.16,2.42-5.3c-0.01-3.7,0.09-7.4-0.04-11.09c-0.15-4.29-0.98-4.88-5.25-4.22
		C639.93,689.69,639.84,689.32,639.98,688.71z"/>
	<path class="st6" d="M317.13,710.06c-5.64,1.91-8.64,0.02-8.88-5.76c-0.15-3.64,0.01-7.29-0.02-10.94
		c-0.01-2.22-0.29-4.32-3.16-5.01c2.29-0.72,4.64-0.09,7.07-1.14c0,6.1,0.03,11.92-0.01,17.74c-0.02,2.86,1.01,4.59,4.17,4.34
		C317.1,708.99,317.25,709.39,317.13,710.06z"/>
	<path class="st6" d="M231.25,710.06c-5.64,1.91-8.64,0.02-8.88-5.76c-0.15-3.64,0.01-7.29-0.02-10.94
		c-0.01-2.22-0.29-4.32-3.16-4.99c2.28-0.84,4.65,0,7.07-1.28c0,6.23,0.03,12.04-0.01,17.86c-0.02,2.86,1.01,4.59,4.17,4.34
		C231.22,708.99,231.36,709.39,231.25,710.06z"/>
	<path class="st10" d="M272.44,709.97c-3.13,0-6.25,0-9.38,0c3.16-0.96,2.54-3.56,2.56-5.85c0.03-3.34,0.05-6.67-0.01-10.01
		c-0.09-4.66-1.07-5.47-5.55-4.71c-0.49,0.08-0.92,0.15-1.3-0.26c6.57-3.45,10.56-1.22,10.68,5.98c0.05,3.1,0.07,6.2-0.01,9.29
		C269.36,706.86,269.24,709.24,272.44,709.97z"/>
	<path class="st10" d="M420.39,689.03c1.66-1.04,3.43-1.42,5.34-1.35c3.26,0.12,5.17,1.75,5.3,5.03c0.16,4.16,0.11,8.34,0.17,12.51
		c0.05,3.08,0.06,3.08,3.64,4.62c-3.77,0-6.9,0-10.03,0c2.74-0.74,2.6-2.92,2.57-5.09c-0.04-3.57,0.04-7.15-0.03-10.72
		c-0.09-4.62-1.01-5.35-5.63-4.6C421.19,689.51,420.81,689.44,420.39,689.03z"/>
	<path class="st10" d="M358.32,709.99c-3.13,0-6.25,0-9.38,0c2.71-0.89,2.61-3.05,2.58-5.23c-0.05-3.57,0.04-7.15-0.03-10.72
		c-0.09-4.63-1.02-5.37-5.62-4.61c-0.52,0.09-0.92,0.03-1.28-0.33c6.94-3.37,10.66-1.13,10.74,6.46c0.03,2.86-0.01,5.72,0.01,8.58
		C355.35,706.55,354.65,709.36,358.32,709.99z"/>
	<path class="st4" d="M506.15,689.44c-1.46,2.47-0.51,4.3,1.58,5.79c2.22,1.59,4.6,3,6.65,4.79c4.26,3.7,3.13,8.48-2.3,10.22
		c-0.72,0.29-0.98-0.01-0.93-0.72c2.71-3.11,2.55-5.16-0.69-7.61c-2.07-1.57-4.37-2.87-6.27-4.62c-3.02-2.79-2.52-6.45,0.95-8.78
		C506.1,688.15,506.24,688.67,506.15,689.44z"/>
	<path class="st4" d="M695.09,709.52c2.71-3.11,2.55-5.16-0.69-7.61c-2.07-1.57-4.37-2.87-6.27-4.62c-3.02-2.79-2.52-6.45,0.95-8.78
		c0.96-0.37,1.09,0.16,1,0.93c-1.46,2.47-0.51,4.3,1.58,5.79c2.22,1.59,4.6,3,6.65,4.79c4.26,3.7,3.13,8.48-2.3,10.22
		C695.29,710.53,695.03,710.23,695.09,709.52z"/>
	<path class="st3" d="M234.84,705.1c0.61-3.64,0.51-7.32,0.48-10.99c-0.02-2.49,0.09-5.06-3.1-6.05c1.95-0.14,3.9-0.23,5.84-0.42
		c1.83-0.18,1.03,1.21,1.04,1.86c0.07,4.98,0.09,9.97,0.02,14.95c-0.04,2.38,0.06,4.56,3.22,5.15c-8.72,1.01-7.01,1.38-6.85-2.86
		C235.08,706.27,234.83,705.74,234.84,705.1z"/>
	<path class="st3" d="M320.73,705.1c0.61-3.64,0.51-7.32,0.48-10.99c-0.02-2.49,0.09-5.06-3.1-6.05c1.95-0.14,3.9-0.23,5.84-0.42
		c1.83-0.18,1.03,1.21,1.04,1.86c0.07,4.98,0.09,9.97,0.02,14.95c-0.04,2.38,0.06,4.56,3.22,5.15c-8.72,1.01-7.01,1.38-6.85-2.86
		C320.96,706.27,320.71,705.74,320.73,705.1z"/>
	<path class="st11" d="M284.23,702.23c-1.17,1.9-0.65,2.86,1.59,2.87c1.77,0,3.54-0.05,5.31,0.02c2.55,0.1,5,0.56,6.12,3.27
		c1.17,2.83,0.01,5-2.17,6.81c-0.76,0.16-1.07-0.13-0.9-0.9c0.94-4.17,0.01-5.45-4.12-5.6c-1.41-0.05-2.83,0.05-4.23-0.05
		c-1.85-0.12-4.01,0.03-4.6-2.32c-0.62-2.48,0.84-3.93,3-4.83c0.23,0.16,0.3,0.32,0.23,0.48
		C284.38,702.14,284.3,702.23,284.23,702.23z"/>
	<path class="st11" d="M445.98,702.23c-1.17,1.9-0.65,2.86,1.59,2.87c1.77,0,3.54-0.05,5.31,0.02c2.55,0.1,5,0.56,6.12,3.27
		c1.17,2.83,0.01,5-2.17,6.81c-0.76,0.16-1.07-0.13-0.9-0.9c0.94-4.17,0.01-5.45-4.12-5.6c-1.41-0.05-2.83,0.05-4.23-0.05
		c-1.85-0.12-4.01,0.03-4.6-2.32c-0.62-2.48,0.84-3.93,3-4.83c0.23,0.16,0.3,0.32,0.23,0.48
		C446.13,702.14,446.06,702.23,445.98,702.23z"/>
	<path class="st12" d="M445.02,700.23c-3.89-0.91-4.46-3.79-4.17-7.12c0.29-3.21,2.21-4.9,5.32-5.16c1.11-0.09,2.27-0.98,3.4-0.02
		c0.2,0.33,0.2,0.64-0.05,0.94c-4.05,2.21-4.56,3.38-3.51,8.01c0.21,0.92,0.58,1.81,0.3,2.78
		C446.01,700.17,445.67,700.56,445.02,700.23z"/>
	<path class="st13" d="M283.26,700.24c-3.89-0.91-4.46-3.79-4.16-7.12c0.29-3.21,2.21-4.9,5.32-5.16c1.11-0.09,2.27-0.99,3.4-0.02
		c0.2,0.33,0.2,0.64-0.05,0.94c-4.05,2.22-4.57,3.38-3.51,8.01c0.21,0.92,0.58,1.81,0.3,2.79
		C284.25,700.18,283.91,700.56,283.26,700.24z"/>
	<path class="st14" d="M287.81,688.56c0-0.21,0-0.42,0-0.63c2.34-0.1,4.94,0.8,5.5,2.69c1.57,5.28,0.5,7.5-3.29,9.49
		c-0.8,0.49-1.42,0.34-1.84-0.52C289.05,695.89,289.23,692.2,287.81,688.56z"/>
	<path class="st14" d="M449.57,688.56c0-0.21,0-0.42,0-0.62c2.34-0.1,4.94,0.8,5.5,2.69c1.57,5.28,0.5,7.5-3.29,9.49
		c-0.8,0.49-1.42,0.34-1.84-0.52C450.8,695.89,450.99,692.2,449.57,688.56z"/>
	<path class="st15" d="M488.7,676.47c1.65,0.31,2.61,1.22,2.59,2.89c-0.02,1.66-0.97,2.76-2.6,2.76c-1.8,0-2.81-1.16-2.71-2.99
		C486.06,677.46,487.15,676.67,488.7,676.47z"/>
	<path class="st15" d="M604.47,676.47c1.66,0.2,2.68,1.04,2.76,2.7c0.08,1.64-0.78,2.81-2.41,2.93c-1.82,0.13-2.87-0.96-2.9-2.79
		C601.89,677.62,602.95,676.8,604.47,676.47z"/>
	<path class="st16" d="M444.5,717.46c-2.38-0.16-4.57-0.85-5.11-3.46c-0.39-1.91,0.52-3.41,3-3.96c-0.58,2.7-0.85,5.28,2.16,6.57
		C444.78,716.9,444.76,717.19,444.5,717.46z"/>
	<path class="st17" d="M177.92,681.56c2.22,0.34,3.36-0.34,3.89-2c0,3.18,0,6.36,0,9.54C180.24,686.82,180.13,684.03,177.92,681.56z
		"/>
	<path class="st16" d="M282.74,717.46c-2.38-0.16-4.57-0.85-5.11-3.46c-0.39-1.91,0.52-3.41,3-3.96c-0.58,2.7-0.85,5.28,2.16,6.57
		C283.02,716.9,283.01,717.19,282.74,717.46z"/>
	<path class="st18" d="M181.88,699.99c0,3.28,0,6.56,0,10.07c-1.3-0.69-1.03-3.78-3.87-1.85
		C180.37,705.56,180.31,702.58,181.88,699.99z"/>
	<path class="st19" d="M458.29,687.5c1.92,0.21,2.9,0.98,2.84,2.78c-0.05,1.51-0.91,2.26-2.26,2.13c-2.45-0.23-1.14-2.65-1.98-3.92
		C456.36,687.69,458.01,687.93,458.29,687.5z"/>
	<path class="st19" d="M299.34,689.91c0.18,1.54-0.54,2.52-1.93,2.5c-2.67-0.02-1.46-2.47-2.06-3.77c-0.27-0.58,0.38-1.18,1.17-1.12
		C298.03,687.64,299.38,688.05,299.34,689.91z"/>
	<path class="st20" d="M695.1,688.09c1.54,0.23,3.05,2.49,4.93-1.29c-0.28,3.47,0.12,5.63-0.84,8.21c-1.15-2.66-1.95-5-4.12-6.39
		c-0.26-0.13-0.34-0.25-0.25-0.37C694.92,688.14,695.01,688.09,695.1,688.09z"/>
	<path class="st20" d="M511.16,688.09c1.54,0.23,3.05,2.49,4.93-1.29c-0.28,3.47,0.12,5.63-0.84,8.21c-1.15-2.66-1.95-5-4.12-6.39
		c-0.26-0.13-0.34-0.25-0.25-0.37C510.97,688.14,511.06,688.09,511.16,688.09z"/>
	<path class="st21" d="M394.56,697.93c0.94-2.37,0.94-4.75,0-7.12c0-0.76-0.37-1.69,1.08-2.01c0,3.98,0,7.88,0,12.34
		C394.59,699.93,394.51,698.95,394.56,697.93z"/>
	<path class="st22" d="M502.59,701.72c0.78,2.5,3.6,4.84,0.61,7.65C501.17,706.96,502.28,704.31,502.59,701.72z"/>
	<path class="st22" d="M686.53,701.72c0.78,2.5,3.6,4.84,0.61,7.65C685.12,706.96,686.22,704.31,686.53,701.72z"/>
	<path class="st23" d="M288.55,699.43c0.49,0.23,0.99,0.47,1.48,0.7c-1.76,1.17-4.14,0.65-5.8,2.1c0-0.24,0-0.48,0-0.73
		c-0.32-0.42-0.64-0.84-0.97-1.26c0.33-0.29,0.65-0.58,0.98-0.88C285.68,698.94,287.12,698.86,288.55,699.43z"/>
	<path class="st23" d="M450.3,699.43c0.49,0.23,0.99,0.47,1.48,0.7c-1.76,1.17-4.14,0.65-5.8,2.1c0-0.24,0-0.48,0-0.73
		c-0.32-0.42-0.64-0.84-0.96-1.26c0.32-0.29,0.65-0.58,0.97-0.87C447.44,698.94,448.87,698.86,450.3,699.43z"/>
	<path class="st24" d="M168.28,679.99c-0.01-0.26-0.02-0.51-0.03-0.77c2.44-1.04,4.84-0.96,7.19,0.28c0.01,0.15,0.01,0.31,0.02,0.46
		C173.07,679.75,170.67,679.1,168.28,679.99z"/>
	<path class="st24" d="M444.5,717.46c0.02-0.29,0.04-0.57,0.05-0.86c2.51,0.61,5.04,0.79,7.62,0.39
		C449.69,718.22,447.13,718.33,444.5,717.46z"/>
	<path class="st24" d="M282.74,717.46c0.02-0.29,0.04-0.57,0.05-0.86c2.51,0.61,5.04,0.79,7.62,0.39
		C287.93,718.22,285.37,718.33,282.74,717.46z"/>
	<path class="st25" d="M686.53,701.72c0.52,2.52-0.65,5.18,0.61,7.65c-0.68,0.88-1.34,1.23-1.23-0.32
		C686.08,706.6,685.65,704.1,686.53,701.72z"/>
	<path class="st25" d="M502.59,701.72c0.52,2.52-0.65,5.18,0.61,7.65c-0.68,0.88-1.34,1.23-1.23-0.32
		C502.14,706.6,501.71,704.1,502.59,701.72z"/>
	<path class="st26" d="M675.63,707.95c-0.42,0.12-0.65,0.01-0.58-0.47c0.61-1.02,1.23-2.04,1.84-3.06
		C677.45,706.14,677.04,707.29,675.63,707.95z"/>
	<path class="st27" d="M294.18,714.3c0.3,0.3,0.6,0.6,0.9,0.9c-0.86,1.21-2.03,1.75-4.39,1.92
		C292.3,715.82,293.24,715.06,294.18,714.3z"/>
	<path class="st27" d="M455.94,714.3c0.3,0.3,0.6,0.6,0.9,0.9c-0.86,1.21-2.03,1.75-4.39,1.92
		C454.05,715.82,455,715.06,455.94,714.3z"/>
	<path class="st28" d="M168.23,710.28c0.02-0.3,0.04-0.6,0.06-0.9c1.43,0.24,2.86,0.49,4.29,0.73c0.25,0.14,0.33,0.28,0.24,0.41
		c-0.09,0.13-0.17,0.19-0.26,0.19C171.09,710.77,169.59,711.19,168.23,710.28z"/>
	<path class="st29" d="M511.16,688.09c0.1,0.18,0.09,0.36-0.03,0.53c-0.97-0.03-1.94-0.06-2.92-0.09c-0.28-0.21-0.71-0.24-0.8-0.68
		C508.73,686.94,509.93,687.73,511.16,688.09z"/>
	<path class="st29" d="M695.1,688.09c0.1,0.18,0.09,0.36-0.03,0.53c-0.97-0.03-1.94-0.06-2.92-0.09c-0.28-0.21-0.71-0.24-0.8-0.68
		C692.67,686.94,693.87,687.73,695.1,688.09z"/>
	<path class="st0" d="M234.84,705.1c0.64,0.38,0.76,0.96,0.64,1.64c-0.66,0.42-1.31,0.84-2.05,1.31
		C233.27,706.71,234.22,705.98,234.84,705.1z"/>
	<path class="st30" d="M511.15,709.52c0.31,0.24,0.62,0.48,0.93,0.72c-1.36,1.03-2.86,0.54-5.4,0.34
		C508.83,710.07,509.99,709.79,511.15,709.52z"/>
	<path class="st30" d="M695.09,709.52c0.31,0.24,0.62,0.48,0.93,0.72c-1.36,1.03-2.86,0.54-5.4,0.34
		C692.77,710.07,693.93,709.79,695.09,709.52z"/>
	<path class="st0" d="M320.73,705.1c0.64,0.38,0.76,0.96,0.64,1.64c-0.66,0.42-1.31,0.84-2.05,1.31
		C319.16,706.71,320.11,705.98,320.73,705.1z"/>
	<path class="st31" d="M231.25,710.06c-0.28-0.26-0.55-0.52-0.83-0.78c0.79-0.47,1.8-1.67,2.45-0.71
		C233.43,709.4,232.16,709.92,231.25,710.06z"/>
	<path class="st31" d="M317.13,710.06c-0.28-0.26-0.55-0.52-0.83-0.78c0.79-0.47,1.8-1.67,2.45-0.71
		C319.31,709.4,318.05,709.92,317.13,710.06z"/>
	<path class="st32" d="M639.98,688.71c0.23,0.22,0.46,0.43,0.69,0.65c-0.66,0.49-1.32,0.97-1.97,1.46c-0.28,0-0.56-0.01-0.84-0.01
		C638.22,689.76,638.9,689.03,639.98,688.71z"/>
	<path class="st0" d="M175.46,679.97c0.01-0.15,0.01-0.31-0.02-0.46c1-0.04,1.58,0.6,2.13,1.34
		C176.67,681,175.96,680.75,175.46,679.97z"/>
	<path class="st33" d="M691.35,687.84c0.27,0.23,0.53,0.46,0.8,0.68c-0.69,0.31-1.38,0.61-2.07,0.92c-0.33-0.31-0.67-0.62-1-0.93
		C689.67,687.7,690.53,687.84,691.35,687.84z"/>
	<path class="st25" d="M172.55,710.72c0-0.2,0.01-0.4,0.03-0.6c0.63-0.18,1.25-0.37,1.88-0.55c0.05,0.21,0.21,0.47,0.14,0.62
		C174.13,711.13,173.29,710.77,172.55,710.72z"/>
	<path class="st33" d="M507.41,687.84c0.27,0.23,0.53,0.46,0.8,0.68c-0.69,0.31-1.38,0.61-2.07,0.92c-0.33-0.31-0.67-0.62-1-0.93
		C505.73,687.7,506.59,687.84,507.41,687.84z"/>
	<path d="M573.21,301.38c-0.74,0.4-1.63,0.66-2.2,1.23c-25.13,25.11-50.22,50.25-75.33,75.38c-21.2,21.21-42.46,42.36-63.59,63.63
		c-2.19,2.21-3.32,2.53-5.74,0.1c-46.04-46.21-92.17-92.33-138.36-138.39c-2.01-2.01-2.32-2.98-0.12-5.18
		c46.37-46.22,92.65-92.52,138.88-138.88c2.05-2.06,3.06-1.88,5,0.07c46.21,46.35,92.48,92.64,138.77,138.92
		c0.74,0.74,1.79,1.17,2.7,1.75C573.21,300.47,573.21,300.93,573.21,301.38z"/>
	<path d="M280.28,295.25c-0.75-0.61-1.12-0.87-1.45-1.19c-2.45-2.43-4.86-4.92-7.36-7.31c-2.03-1.94-0.16-2.92,0.93-4.01
		c12.87-12.92,25.75-25.82,38.64-38.72c33.21-33.22,66.45-66.41,99.59-99.7c2.11-2.12,3.47-2.78,5.43-0.09
		c0.97,1.33,2.3,2.41,3.48,3.58c3.87,3.86,3.87,3.85-0.1,7.83c-45.6,45.61-91.21,91.23-136.8,136.85
		C281.81,293.34,281.11,294.29,280.28,295.25z"/>
	<path d="M587.89,284.9c-0.23,0.6-0.29,0.97-0.49,1.25c-0.28,0.38-0.64,0.7-0.98,1.03c-2.65,2.55-5.1,6.79-8.02,7.14
		c-2.72,0.33-5.15-4.32-7.66-6.82c-44.36-44.32-88.68-88.7-133.09-132.97c-2.26-2.25-2.61-3.57,0-5.66
		c2.59-2.07,4.82-6.34,7.24-6.36c2.39-0.02,4.87,4.01,7.22,6.36c44.5,44.52,88.98,89.06,133.47,133.59
		C586.39,283.27,587.17,284.13,587.89,284.9z"/>
	<path d="M280.63,305.69c0.59,1.01,0.96,2.11,1.69,2.84c24.93,24.99,49.9,49.94,74.85,74.91c21.25,21.25,42.46,42.54,63.79,63.71
		c2.14,2.12,2.34,3.35-0.06,5.16c-2.34,1.78-3.94,5.71-6.5,5.56c-2.17-0.13-4.19-3.49-6.2-5.5
		c-44.86-44.85-89.68-89.73-134.61-134.51c-2.26-2.26-2.29-3.52,0.07-5.43c1.75-1.41,3.22-3.17,4.83-4.77
		C278.91,307.25,279.35,306.87,280.63,305.69z"/>
	<path d="M444.18,458.72c-0.8-0.66-1.24-1.01-1.67-1.37c-8.28-6.96-8.28-6.96-0.8-14.44c44.61-44.62,89.24-89.22,133.78-133.9
		c2.17-2.18,3.62-2.93,5.64-0.08c1.68,2.38,5.7,3.91,5.42,6.49c-0.25,2.23-3.62,4.14-5.64,6.16
		c-44.77,44.78-89.54,89.56-134.3,134.34C445.78,456.75,445.07,457.7,444.18,458.72z"/>
	<path d="M403.68,459.47c-6.02,0-11.61-0.04-17.2,0.02c-1.55,0.02-2.63-0.47-3.75-1.59c-36.86-36.94-73.76-73.84-110.66-110.75
		c-0.75-0.75-1.53-1.43-1.52-2.69c0.05-6.02,0.02-12.04,0.02-17.54C314.78,370.95,359.06,415.04,403.68,459.47z"/>
	<path d="M587.77,327.18c0,5.13-0.05,10.96,0.03,16.79c0.02,1.51-0.74,2.4-1.68,3.35c-36.84,36.82-73.66,73.65-110.49,110.48
		c-0.83,0.83-1.56,1.71-2.97,1.7c-5.9-0.06-11.81-0.03-17.77-0.03C499.37,415.19,543.65,371.11,587.77,327.18z"/>
	<path d="M401.51,141.92c-43.84,43.73-87.35,87.13-130.93,130.6c0-5.07,0.01-10.48-0.01-15.89c0-1.27,0.97-1.86,1.7-2.6
		c30.08-30.1,60.16-60.19,90.25-90.29c6.57-6.58,13.19-13.11,19.7-19.74c1.43-1.46,2.86-2.21,4.97-2.13
		C391.83,142.03,396.47,141.92,401.51,141.92z"/>
	<path d="M457.2,141.92c5.01,0,10,0.09,14.99-0.05c1.87-0.05,2.79,1.07,3.87,2.15c35.24,35.24,70.41,70.56,105.83,105.63
		c4.32,4.28,6.83,8.41,5.95,14.53c-0.4,2.8-0.07,5.71-0.07,7.94C544.46,228.93,500.9,185.5,457.2,141.92z"/>
	<path d="M270.7,242.99c-1.72-5.68,1.38-9.92,5.87-14.35c27.25-26.89,54.34-53.94,81.19-81.23c4.35-4.42,8.57-6.73,14.11-5.33
		C338.21,175.66,304.29,209.49,270.7,242.99z"/>
	<path d="M486.23,142.1c5-0.81,9.22,0.07,13.47,4.4c27.41,27.9,55.08,55.57,82.98,82.99c4.43,4.35,6.04,8.63,4.86,14.06
		C553.83,209.8,519.98,175.9,486.23,142.1z"/>
	<path d="M270.59,357.81c33.95,33.87,67.84,67.67,101.91,101.66c-2.38,0-4.71-0.07-7.04,0.03c-1.43,0.06-2.42-0.42-3.43-1.43
		C332.04,428.02,302.02,398,271.98,368c-0.89-0.89-1.48-1.74-1.42-3.08C270.66,362.46,270.59,359.99,270.59,357.81z"/>
	<path d="M485.94,459.15c33.85-33.78,67.74-67.6,101.68-101.47c0.18,4.58,0.58,8.78-3.74,13.02c-27.91,27.4-55.54,55.1-83.02,82.94
		C496.51,458.06,492.25,460.88,485.94,459.15z"/>
	<path d="M414.85,470.25c0.47,0.45,1.08,1.01,1.65,1.58c3.38,3.37,6.88,6.62,10.07,10.15c1.88,2.09,3.02,2.51,5.09,0.13
		c3.12-3.59,6.79-6.69,10-10.21c1.75-1.92,2.84-1.74,4.43,0.09c1.71,1.97,3.6,3.83,5.62,5.48c2.06,1.68,1.6,2.77-0.1,4.43
		c-6.91,6.73-13.75,13.55-20.47,20.48c-1.69,1.74-2.58,1.52-4.13-0.08c-6.8-7.01-13.7-13.94-20.65-20.8
		c-1.38-1.36-1.72-2.23-0.1-3.65c2.33-2.04,4.44-4.31,6.68-6.46C413.42,470.93,413.77,470.19,414.85,470.25z"/>
	<path d="M429.22,114.46c-4.95,5.04-9.67,9.75-14.28,14.57c-1.15,1.21-1.81,1.39-3.01,0.05c-2.21-2.47-6.22-4.57-6.52-7.18
		c-0.32-2.75,3.96-4.86,6.25-7.21c5.15-5.3,10.48-10.42,15.61-15.73c1.48-1.53,2.29-1.72,3.88-0.07
		c6.78,7.03,13.67,13.97,20.66,20.79c1.72,1.68,1.72,2.66-0.05,4.17c-2.35,2.01-4.44,5.84-6.74,5.92c-2.15,0.07-4.49-3.68-6.65-5.84
		C435.35,120.9,432.42,117.77,429.22,114.46z"/>
	<path d="M233.7,288.36c0.42,0.38,0.84,0.75,1.24,1.14c2.89,2.84,5.71,5.75,8.67,8.51c1.46,1.37,1.11,2.21-0.2,3.43
		c-2.79,2.59-5.47,5.31-8.1,8.06c-1.06,1.11-1.8,1.64-3.12,0.23c-2.85-3.04-5.86-5.93-8.82-8.88c-0.68-0.67-1.4-1.18-0.32-2.22
		c3.26-3.14,6.43-6.38,9.64-9.57C232.92,288.83,233.25,288.67,233.7,288.36z"/>
	<path d="M625,288.1c0.99,0.81,1.67,1.29,2.25,1.86c2.63,2.59,5.16,5.27,7.86,7.78c1.4,1.31,1.71,2.21,0.13,3.66
		c-2.81,2.56-5.46,5.3-8.13,8.01c-1.13,1.15-1.88,1.72-3.32,0.09c-2.68-3.02-5.68-5.75-8.6-8.55c-0.93-0.89-1.22-1.51-0.12-2.55
		c3.11-2.94,6.11-5.99,9.14-9.02C624.53,289.05,624.71,288.57,625,288.1z"/>
	<path class="st34" d="M420.85,134.53c3.17-3.02,5.88-5.6,8.27-7.88c2.46,2.33,5.17,4.9,8.31,7.88c-3,0-5.55,0-8.09,0
		C426.74,134.53,424.14,134.53,420.85,134.53z"/>
	<path class="st35" d="M405.35,134.44c-4.21,0-8.42,0-12.98,0c1.46-2.78,3.98-4.37,5.84-6.5c0.89-1.02,1.4-0.09,1.97,0.43
		c1.91,1.75,3.83,3.51,5.74,5.27C405.72,133.9,405.54,134.17,405.35,134.44z"/>
	<path class="st35" d="M452.99,466.95c4.21,0,8.42,0,12.98,0c-1.46,2.78-3.98,4.37-5.84,6.51c-0.89,1.02-1.39,0.08-1.97-0.43
		c-1.95-1.71-3.91-3.42-5.86-5.14C452.53,467.58,452.76,467.27,452.99,466.95z"/>
	<path class="st35" d="M466.37,134.39c-5.07,0-9.28,0-14.45,0c2.55-2.46,4.57-4.37,6.53-6.32c0.59-0.59,1.09-0.88,1.75-0.18
		C462.12,129.91,464.03,131.93,466.37,134.39z"/>
	<path class="st35" d="M392.4,467c4.65,0,8.85,0,14,0c-2.55,2.46-4.54,4.38-6.53,6.31c-0.42,0.41-0.84,0.97-1.43,0.33
		C396.45,471.5,393.93,469.79,392.4,467z"/>
	<path class="st36" d="M262.7,278.12c-2.53-2.88-4.54-5.17-6.82-7.77c2-1.76,4.37-3.84,6.82-6
		C262.7,268.49,262.7,272.84,262.7,278.12z"/>
	<path class="st36" d="M262.84,324.16c0,4.3,0,8.6,0,14.13c-2.55-2.75-4.39-4.84-6.35-6.81c-1.06-1.06-0.27-1.53,0.38-2.24
		c1.69-1.85,3.32-3.75,4.97-5.63C262.18,323.8,262.51,323.98,262.84,324.16z"/>
	<path class="st36" d="M596.47,323.38c1.74,2.03,3.4,4.15,5.25,6.07c0.92,0.96,0.71,1.48-0.1,2.23c-1.96,1.81-3.89,3.66-6.06,5.71
		c0-4.56,0-8.9,0-13.24C595.86,323.89,596.16,323.64,596.47,323.38z"/>
	<path class="st36" d="M595.48,277.2c0-4.31,0-8.62,0-13.79c2.43,2.5,4.3,4.52,6.28,6.43c0.99,0.95,0.52,1.44-0.2,2.23
		c-1.74,1.91-3.34,3.94-5,5.92C596.2,277.72,595.84,277.46,595.48,277.2z"/>
	<path class="st37" d="M422.82,466.99c4.51,0,8.23,0,11.73,0c-1.9,1.9-3.84,3.85-5.73,5.74
		C427.24,471.21,425.28,469.34,422.82,466.99z"/>
	<path class="st38" d="M668.76,696.02c-1.42-1.01-3.87,1.23-4.4-1.43c-0.53-2.69,2.38-5.99,4.85-6.06c2.25-0.06,4.47,2.59,4.2,5.6
		C673.09,697.63,670.12,694.74,668.76,696.02z"/>
	<path class="st34" d="M450.3,699.43c-1.45,0.77-2.88,0.76-4.31-0.07c-1.28-1.96-1.44-4.14-1.26-6.39c0.23-2.99,1.42-4.92,4.84-4.41
		C452.23,691.69,452.47,695.25,450.3,699.43z"/>
	<path class="st39" d="M288.55,699.43c-1.45,0.76-2.88,0.76-4.31-0.07c-1.28-1.96-1.43-4.14-1.26-6.39
		c0.23-2.99,1.42-4.92,4.84-4.41C290.47,691.69,290.71,695.25,288.55,699.43z"/>
	<path class="st1" d="M469.86,331.33c0,5.13-0.03,10.25,0.03,15.38c0.01,0.99,0.36,1.92-1.18,1.96c-1.21,0.03-2.17-0.05-2.01-1.63
		c0.02-0.23-0.02-0.48-0.06-0.71c-1.09-6.43-2.3-6.99-7.69-3.52c-29.08,18.73-68.64-0.66-71.82-35.09
		c-1.17-12.67,0.3-24.76,7.04-35.75c10.76-17.54,28.95-23.7,47.92-21.76c6.78,0.69,12.87,3.14,18.36,7.21
		c3.03,2.25,4.61,1.59,5.62-2.03c0.13-0.46,0.1-0.99,0.34-1.37c0.73-1.15-0.75-3.94,2.26-3.37c2.77,0.52,1.04,2.72,1.05,4.02
		c0.06,8.7-0.04,17.41-0.26,26.11c-0.03,1.19,1.33,3.32-1.4,3.58c-2.66,0.26-1.91-1.86-2.11-3.19c-1.28-8.52-3.63-16.24-10.89-22.06
		c-11.48-9.2-27.5-7.15-35.53,5.17c-4.66,7.15-6.6,15.22-7.56,23.56c-1.57,13.65-1.01,27.14,4.03,40.11
		c5.77,14.85,17.73,21.14,31.7,16.31c10.39-3.59,16.07-11.39,17.49-22.27c0.28-2.12,0.63-4.24,0.86-6.37
		c0.13-1.23,0.08-2.42,1.83-2.44c1.88-0.03,1.66,1.24,1.66,2.44c-0.01,5.25,0,10.49,0,15.74
		C469.63,331.33,469.75,331.33,469.86,331.33z"/>
</g>
</svg>
