<?xml version="1.0" encoding="utf-8"?>
<!DOCTYPE svg PUBLIC "-//W3C//DTD SVG 20010904//EN" "http://www.w3.org/TR/2001/REC-SVG-20010904/DTD/svg10.dtd">
<svg version="1.0" xmlns="http://www.w3.org/2000/svg" width="1169px" height="671px" viewBox="0 0 1169 671" preserveAspectRatio="xMidYMid meet">
 <g fill="none">
  <path d="M0 335.7 l0 -335.7 584.5 0 584.5 0 0 335.7 0 335.7 -584.5 0 -584.5 0 0 -335.7z m473.7 269.4 c8.2 -3.8 14.1 -11.2 17.4 -22.3 3 -9.8 10.9 -44.7 10.3 -45.3 -1.3 -1.3 -2.7 2.5 -6 17.6 -2 8.9 -4.7 19.9 -5.9 24.7 -2.2 8.5 -2.2 8.5 -6.5 8.5 -2.3 0 -4.3 -0.2 -4.3 -0.6 0 -0.2 -1.2 -4.9 -2.7 -10.2 -1.6 -5.3 -4.5 -16.6 -6.9 -24.9 -2.5 -9.4 -4.8 -15.3 -5.5 -15.3 -1.1 0 -1.1 1.1 0.2 5.3 0.9 2.9 2.3 8 3.1 11.3 0.9 3.3 3.7 13.1 6.1 21.6 4.7 15.8 5.4 21.3 3.4 24.9 -1.3 2.5 -6.8 4.4 -12.9 4.4 -4.7 0 -5.9 0.9 -4 2.7 1.1 1.2 8.8 -0.2 14.1 -2.5z m197.7 -17.3 c7.1 -1.9 10.7 -4.9 13.7 -11.6 1.9 -4.2 2.3 -7.9 2.8 -23.9 0.6 -20.1 -0.1 -24.4 -4.4 -29.9 -8.1 -10.2 -28 -8.9 -33.5 2.2 -2.9 5.9 -3.9 18.4 -3 36.1 1.2 21.9 3.9 26.2 17.8 28.7 0.3 0 3.2 -0.7 6.5 -1.6z m403.4 -0.8 c7.3 -2.7 11.7 -11.2 8.6 -16.5 -1.3 -2.5 -1.4 -2.2 -2 3.9 -0.4 5.5 -1 6.9 -3.7 8.9 -2.7 2 -4.8 2.3 -13.2 2.3 -10.6 0 -11.5 -0.4 -16 -7.9 -0.8 -1.1 -1.7 -1.8 -2.1 -1.3 -1.3 1.2 2.2 5.9 6.5 8.5 6.6 4.1 14.2 4.9 21.7 2.1z m-979.5 -15.2 c0 -10.3 0.4 -16.8 1.1 -17.3 0.7 -0.4 7.9 -1 16.1 -1.3 l15 -0.7 0.1 9.9 c0.3 18.1 1.3 25.3 3.7 25.7 1.9 0.4 2 -0.1 1.4 -7.8 -0.4 -4.4 -1 -17.5 -1.3 -29.1 -0.9 -29.9 -1.6 -37.1 -3.4 -37.1 -1.2 0 -1.6 3.2 -1.6 17.7 l0 17.7 -15.4 0 c-15.3 0 -15.3 0 -16.1 -5.1 -0.3 -2.9 -0.7 -9.9 -0.7 -15.5 0 -10.6 -0.6 -13.7 -2.5 -13.7 -1.2 0 -0.4 69.9 0.9 72 2.1 3.4 2.8 -0.3 2.8 -15.4z m72.4 14.2 c7.8 -1.9 7.1 -2.7 -1.8 -2.3 -11.1 0.3 -12.2 -0.7 -13.2 -12.3 -0.3 -5 -0.8 -14.8 -0.8 -21.7 -0.1 -8.5 -0.4 -12.4 -1.2 -11.6 -1.8 1.8 -1.9 41.4 -0.1 44.5 1.6 2.9 7.4 5.9 10.1 5.2 0.9 -0.2 4 -1 7 -1.8z m18.3 -4.4 c0.7 -9.9 -1 -44.2 -2.1 -43.5 -0.6 0.3 -1 8.2 -1 17.6 0 18 -0.8 22.1 -4.8 25.2 -2.4 2 -2.4 2 0.6 2 2.3 0 3.2 0.7 3.8 2.8 1.2 4.7 3.2 2.4 3.5 -4z m20.8 3.9 c0.4 -1.6 0.3 -7.2 0 -12.6 -1.1 -14 0 -21.6 3.8 -25.8 2.8 -3.1 3.8 -3.5 10.6 -3.9 12.2 -0.7 12 -1.1 12.6 23.7 0.3 13.9 1 20.9 1.8 21.2 0.9 0.3 1.6 -6 2.1 -20.9 0.4 -11.7 1.3 -22.1 1.9 -22.7 0.9 -1.1 0.6 -1.4 -1.3 -1.4 -1.3 0 -3.7 -1 -5.2 -2.2 -1.6 -1.2 -4.5 -2.2 -6.6 -2.2 -2 0 -5.7 1 -8.1 2.2 -2.4 1.2 -5.9 2.2 -7.8 2.2 -2.9 0 -3.3 -0.4 -3.3 -2.9 0 -2.1 -0.6 -2.8 -1.9 -2.4 -2.7 0.4 -3 5.3 -2 30.6 0.8 18.8 1.8 24 3.4 17.3z m59.7 -14.2 c1.2 -25.4 -0.2 -30.6 -8.4 -32.8 -3.9 -1.1 -5.5 -1 -9.4 0.6 -2.7 1 -5.1 2.2 -5.3 2.5 -0.2 0.4 3.2 0.8 7.8 0.8 4.7 0 8.6 0.6 9.4 1.3 2.2 2.2 3.1 10.2 3.2 27.8 0 9.2 0.4 16.8 1 16.8 0.6 0 1.3 -7.6 1.8 -17.1z m40.7 13.9 c0.4 -0.3 -2.5 -0.8 -6.5 -0.9 -13.1 -0.3 -16.3 -5.1 -15.6 -23.3 0.3 -11.6 0.3 -11.6 4.3 -15.3 3.2 -3 5.3 -3.8 10.7 -4.4 3.8 -0.4 7.3 -0.3 8.1 0.1 0.9 0.4 1 0.3 0.6 -0.4 -0.4 -0.7 -2.7 -1.9 -5.1 -2.5 -3.8 -1.1 -4.9 -1 -9.6 1.3 -10.5 5.2 -14.6 19.5 -9.9 34.2 2.1 6.3 6.3 11.9 10 13.2 2.2 0.9 11.6 -0.6 13.1 -2z m15.1 -21.7 c0.2 -18.6 -0.1 -24.4 -1.1 -25.2 -2.3 -1.4 -3.1 -1 -3.1 1.3 0 1.6 -0.8 2.2 -2.4 2.2 -1.6 0 -2.1 0.3 -1.2 0.9 2.7 1.7 3.7 7.3 3.7 19.7 0 8.5 -0.6 14 -1.6 16.5 -1.4 3.4 -1.4 3.9 0 3.9 0.8 0 1.6 0.9 1.6 2 0 2.4 1.1 3.8 2.7 3.2 0.8 -0.2 1.3 -8.8 1.6 -24.6z m20.7 5.3 c0 -20.6 0.2 -21.5 6.6 -24.3 3.3 -1.4 3.3 -1.4 -1.3 -1.6 -4.3 0 -4.8 -0.2 -4.8 -2.9 0 -2.1 -0.4 -2.8 -1.9 -2.4 -1.8 0.3 -2 2.5 -2.3 24.2 -0.1 13.1 0 24.5 0.3 25.3 0.3 0.9 1.2 1.3 2 1 1 -0.3 1.3 -5.2 1.3 -19.3z m32 18.6 c1.2 -1.9 0.9 -40.6 -0.3 -43.7 -1.8 -4.5 -7 -6.4 -12.9 -4.7 -9.1 2.7 -9.5 3.8 -1.7 3.9 4 0 7.9 0.4 8.6 0.9 2.7 1.8 3.5 8.5 3.5 26.5 0 16.3 0.7 20.4 2.7 17.1z m24.2 -21.7 c0.1 -12.5 0.2 -23.8 0.2 -25.2 0.1 -1.4 -0.7 -2.7 -1.7 -2.9 -2.5 -0.4 -3 5.9 -2.3 30.7 0.4 16 0.8 20.1 2 20.1 1.2 0 1.6 -4.3 1.8 -22.7z m50.5 20.8 c-0.2 -1.6 -1.9 -2.1 -7.2 -2.5 -10.7 -0.9 -10.9 -1.1 -10.9 -22.5 l0 -18 9.2 -0.3 c12.1 -0.4 11.7 -2.4 -0.3 -2.4 -9.4 0 -9.4 0 -9.4 -12.3 0 -9.3 -0.3 -12.2 -1.3 -11.9 -1 0.3 -1.6 4.1 -1.8 12.3 -0.3 11.9 -0.3 11.9 -5.8 11.9 -3 0 -5.8 0.6 -6.1 1.1 -0.4 0.7 1.7 1.1 5.4 1.1 6.2 0 6.2 0 6.3 11.4 0 18.4 1.2 25.8 4.5 29.1 2.9 3 7.6 4.5 14 4.8 3 0.1 3.7 -0.3 3.3 -1.8z m99.9 -11.1 c0 -7.2 0.3 -18.7 0.8 -25.5 0.7 -12.3 0.7 -12.5 -1.7 -12.5 -2.4 0 -2.4 0.1 -2.4 25.5 0 21.9 0.2 25.5 1.7 25.5 1.3 0 1.7 -2.2 1.7 -13z m22.7 11.9 c0.4 -0.7 0.7 -8.9 0.7 -18.2 -0.2 -18.9 0.6 -22.3 6 -24.6 3.3 -1.4 3.3 -1.4 -0.8 -1.6 -3.8 0 -4.2 -0.3 -4.2 -2.8 0 -2 -0.6 -2.8 -2.2 -2.8 -2.1 0 -2.2 0.8 -2.2 25.5 0 23.5 0.6 28 2.8 24.4z m33.6 -18.4 c0.3 -21.4 -0.1 -25 -3.3 -28.1 -3.1 -2.8 -9.8 -2.8 -15.8 0 -4.4 2.1 -4.4 2.1 3.5 2.1 11.6 0.1 11.9 0.6 12.4 25.8 0.2 14.2 0.7 19.7 1.7 19.4 0.8 -0.2 1.3 -6.4 1.6 -19.2z m120 16.3 c2.1 -0.9 1.2 -1.1 -4.7 -1.1 -4.2 -0.1 -8.1 -0.8 -9.3 -1.7 -2.7 -1.9 -3.7 -9.8 -3.8 -29.1 -0.1 -8 -0.6 -14.8 -1.1 -15.2 -1.3 -0.9 -2.9 32 -1.9 39.4 1.3 9.9 8.5 12.5 20.7 7.6z m15.4 -22.4 c0 -22.9 -0.2 -25.5 -1.7 -24.3 -1.4 1.2 -1.7 3.7 -1 15.5 0.9 16.5 0.2 20.9 -3.5 25.5 -2.9 3.3 -2.9 3.3 0 3.3 2.3 0 2.9 0.6 2.9 2.8 0 1.8 0.7 2.8 1.7 2.8 1.4 0 1.7 -3.5 1.7 -25.6z m20.2 7.2 c-0.2 -9.6 0 -19.2 0.3 -21.1 0.8 -4.5 4.2 -6 13.9 -6 7 0 7.8 -0.2 7.8 -2.1 0 -3.1 -1 -3.3 -7.2 -1.7 -7.6 2 -12.7 1.9 -14.4 -0.3 -0.8 -1 -1.9 -1.4 -2.7 -0.9 -1.1 0.7 -1.3 5.9 -0.8 22.6 0.3 12 0.6 23.2 0.7 24.8 0 2.1 0.4 3 1.4 2.7 1 -0.3 1.2 -4.8 1 -18.1z m67.4 1.3 c0 -17 0 -17 6.8 -17.7 3.8 -0.3 10.7 -0.7 15.4 -0.7 8.6 0 8.6 0 9.3 3.4 0.3 1.9 0.7 8.8 0.7 15.3 0 13.3 0.7 16.7 3.1 16.7 1.4 0 1.6 -2.1 1 -16.3 -0.4 -9.1 -1.1 -25.7 -1.4 -37.1 -0.6 -16.3 -1.1 -20.8 -2.2 -20.8 -1.2 0 -1.6 3.8 -1.8 17.5 l-0.3 17.4 -14.8 0.3 c-10.4 0.2 -15.2 -0.1 -15.7 -1 -0.3 -0.7 -1.1 -8.4 -1.6 -17.2 -0.7 -13.2 -1.1 -16 -2.4 -16 -1.4 0 -1.7 3.2 -1 25.8 1 38.4 1.8 47.3 3.5 47.3 1.2 0 1.6 -3.2 1.6 -17.1z m74.8 14.8 c1.4 -0.6 -0.1 -1 -4.8 -1.6 -9 -1 -12.9 -4.1 -14.6 -11.9 -1.8 -7.2 -0.8 -21.2 1.6 -24.8 2.8 -4.2 8.1 -6.4 15.7 -6.5 7.6 -0.1 8.1 -1.1 1.4 -2.9 -6.1 -1.7 -11.1 0.1 -15.7 5.7 -6.5 7.6 -8 17.8 -4.2 28.9 4.7 13.6 9.8 17 20.6 13.1z m17.6 0.4 c0.3 -1 0.7 -12.1 0.7 -24.8 0 -21.9 -0.1 -23 -2.2 -23.6 -1.4 -0.3 -2.3 0.1 -2.8 1.6 -0.4 1.1 -1.4 2.1 -2.4 2.1 -1.6 0 -1.4 0.3 0.3 2.3 1.9 2.1 2.1 4.1 2.1 17.5 -0.1 9.9 -0.6 16 -1.4 17.6 -1.2 2 -1.1 2.4 0.3 2.4 1.1 0 1.7 1.1 1.7 3.3 0 3.5 2.5 4.7 3.8 1.6z m20.6 -15.8 c0 -20.1 0.9 -24 6 -26.3 3.4 -1.4 3.4 -1.4 -0.7 -1.6 -3.8 0 -4.2 -0.3 -4.2 -2.8 0 -2 -0.6 -2.8 -2.2 -2.8 -2.1 0 -2.2 0.8 -2.2 25.5 0 21.9 0.2 25.5 1.7 25.5 1.4 0 1.7 -2.7 1.7 -17.6z m33 -1.9 c0.3 -21.1 -0.1 -25.2 -3.2 -28.3 -2.8 -2.8 -9.9 -2.7 -16 0.1 -4.4 2.1 -4.4 2.1 3.5 2.1 11.6 0.1 11.9 0.7 12.3 25.9 0.3 14.2 0.8 19.6 1.7 19.3 0.9 -0.2 1.4 -6.2 1.7 -19.2z m37.3 18.4 c1.8 -0.8 1.3 -1 -2.2 -1 -2.4 -0.1 -5.7 -0.4 -7.2 -0.8 -1.9 -0.6 -2.4 -0.3 -1.7 0.4 2.1 2.1 7.6 2.9 11.1 1.3z m17.8 -35.7 c-0.4 -20.3 -1 -37.1 -1.2 -37.3 -0.2 -0.1 -0.9 0 -1.6 0.4 -0.8 0.4 -1.2 5.9 -1.2 14.4 0 8.6 -0.4 13.9 -1.2 14.1 -0.8 0.2 -0.8 1.3 0 3.4 1.9 4.8 1.6 27.8 -0.3 32.4 -1.4 3.4 -1.4 3.9 0 3.9 0.8 0 1.6 0.9 1.6 2 0 2.5 0.9 3.5 3.1 3.5 1.4 0 1.6 -4.8 0.9 -36.8z m-36.3 20.2 c-1.4 -7.9 -0.3 -22.7 2 -26.3 2.2 -3.4 7.9 -5.9 14 -6 4.5 -0.1 4.7 -0.1 1.4 -1.1 -7 -2.1 -16 2.7 -18.4 9.9 -1.8 5.1 -1.8 20.6 0.1 26.2 1.9 5.8 2.2 4.7 0.9 -2.7z m58.3 -29.1 c1.2 -2.4 5 -3.4 14.5 -3.4 11 -0.1 13.7 0.9 14.6 4.9 0.3 1.9 1.3 3.3 2.1 3.3 2.2 0 2 -0.9 -1.2 -5 -3.3 -4.5 -10.5 -6.5 -19.3 -5.4 -12.5 1.4 -19.5 10 -14.1 17 1 1.2 1.3 0.3 1.9 -3.9 0.3 -3 1 -6.3 1.4 -7.4z m-653.1 -25.2 c0 -3.2 -0.4 -4.4 -1.7 -4.4 -1.2 0 -1.7 1.2 -1.7 4.4 0 3.2 0.4 4.4 1.7 4.4 1.2 0 1.7 -1.2 1.7 -4.4z m151.6 -0.3 c0.3 -3.5 0 -4.1 -1.9 -4.1 -2 0 -2.3 0.7 -2.3 4.5 0 3.7 0.3 4.4 2 4.1 1.3 -0.2 2 -1.6 2.2 -4.5z m-366 -83.5 c16.1 -3.5 31 -11 45 -22.2 9.6 -7.6 12.2 -7.8 20.7 -0.6 13.2 11.2 27 18.2 45.7 23 9 2.3 31 2.7 40.4 0.6 31.6 -7.1 57 -25.3 73.1 -52.5 7.4 -12.4 11.4 -23.6 14.1 -39.3 2.2 -13 2.2 -14.1 0.6 -25.5 -2.1 -14.2 -4.8 -22.9 -10.7 -34.9 -5.5 -11.1 -12.4 -20.6 -20.4 -28.5 -5.5 -5.3 -6.2 -6.5 -6.2 -10.5 0 -3.5 0.7 -5.2 2.9 -7.3 5.1 -4.8 15.7 -18.6 20.4 -26.5 10.9 -18.5 16.7 -43.7 14.4 -61.4 -1.7 -13 -4.2 -22.2 -9.2 -33.2 -11.3 -25.5 -33.1 -46.8 -58.1 -56.8 -37.3 -15 -73.7 -9.4 -106.3 16.4 -9.4 7.5 -11.4 7.3 -23.5 -1.9 -19.7 -14.8 -42 -22.7 -64.6 -22.7 -19.8 0 -39.7 6.3 -58 18.4 -28.7 18.8 -46.8 49.4 -49 82.6 -1.9 28.6 9.2 57.6 30.7 80.3 9.8 10.2 10.1 13.2 2.7 20.5 -11.5 11.3 -22.9 29.3 -28 44.1 -19.1 55.1 13.3 116.7 71.5 136 15.6 5.1 34.6 5.9 51.9 2z m608 -60.3 c0.2 -0.7 4.1 -1.7 8.6 -2.2 11.3 -1.3 15.6 -2.1 18.3 -3.2 2 -0.8 14.2 -6.8 19.5 -9.4 1.1 -0.6 2.1 -1.7 2.1 -2.2 0 -0.7 2 -2.7 4.4 -4.5 2.4 -1.8 4.4 -3.7 4.4 -4.2 0 -0.4 1.4 -2.7 3.3 -4.7 1.8 -2.1 3.9 -5.9 4.5 -8.4 0.8 -2.7 2 -5.5 2.8 -6.4 0.7 -0.9 1.7 -3.8 2.1 -6.4 0.4 -2.5 1.4 -5.4 2.3 -6.2 1.8 -1.9 2.1 -11.4 0.4 -12 -0.7 -0.2 -1.7 -3.5 -2.3 -7.5 -0.6 -4 -1.4 -7.5 -1.9 -8 -0.4 -0.4 -8.6 -0.9 -18.3 -1.1 -15.5 -0.3 -17.4 -0.1 -17.4 1.4 0 1 -0.8 2.1 -1.7 2.5 -1.3 0.4 -1.7 2.9 -1.7 12.2 0 12.4 -1.3 17.3 -4.7 17.3 -1.2 0 -2 0.8 -2 2.2 0 3.3 -4.1 4.4 -16 4.4 -10 0 -16.2 -1.6 -16.2 -4 0 -0.7 -1.2 -2.3 -2.8 -3.8 -1.6 -1.4 -2.8 -3.8 -2.8 -5.2 0 -1.6 -0.7 -3.4 -1.6 -4.2 -3.4 -3.5 -4.2 -15.6 -3.7 -57.1 0.3 -27.3 0.9 -41.9 1.8 -44.8 2.8 -8.6 8.6 -11.7 22.4 -11.7 9.2 0 14 1.6 18.3 6.2 4.2 4.5 6 10.3 6 19.4 0 12.1 0.9 15.1 4.8 16.4 5.3 1.9 26.6 1.6 33 -0.6 5.4 -1.8 5.4 -1.8 5.4 -7.2 0 -3 0.6 -5.4 1.1 -5.4 0.7 0 1.1 -3 1.1 -6.6 0 -3.7 -0.4 -6.6 -1 -6.6 -0.6 0 -1.2 -1.9 -1.6 -4.1 -1.3 -8.6 -2.2 -11.4 -3.7 -11.4 -0.9 0 -1.6 -1 -1.6 -2.2 0 -3.2 -3.5 -10.3 -6.3 -12.5 -1.4 -1.1 -2.5 -3 -2.5 -4.2 0 -1.1 -0.7 -2.1 -1.4 -2.1 -1.6 0 -7.4 -5.2 -7.4 -6.5 0 -0.6 -1.3 -1.3 -3 -1.8 -1.7 -0.3 -4.5 -2.3 -6.4 -4.4 -2.3 -2.5 -4.7 -3.9 -8 -4.4 -2.7 -0.4 -4.8 -1.2 -4.8 -1.8 0 -0.6 -0.8 -1 -1.7 -1 -2.7 0 -10.5 -2.7 -10.5 -3.5 0 -0.6 -5.5 -0.9 -12.2 -0.9 -10.7 0 -12.6 0.3 -14.6 2.2 -1.6 1.4 -4 2.2 -6.6 2.2 -2.3 0 -4.2 0.4 -4.2 1 0 0.6 -3 1.3 -6.6 1.8 -5.7 0.7 -7 1.2 -8.4 3.7 -0.9 1.7 -3.4 4.2 -5.5 5.8 -2.3 1.7 -4.2 4.4 -5.1 7.1 -0.8 2.4 -2.2 4.5 -3.3 4.9 -1.1 0.2 -2 1.3 -2 2.4 0 2.5 -3 9.6 -4.4 10.5 -0.8 0.4 -1.1 24.6 -1.1 70.9 0 58.5 0.2 70.7 1.6 73.4 0.9 1.7 2.2 5.2 3 7.9 0.8 2.5 1.7 4.7 2.1 4.7 0.4 0 2 1.8 3.4 3.9 1.4 2.1 3.9 4.4 5.4 5.2 1.6 0.8 4.2 2.5 5.9 3.9 1.8 1.4 4 2.5 5.1 2.5 1 0 2.3 0.4 3 0.9 0.6 0.6 3.2 1.6 6 2.3 2.8 0.9 6.4 1.9 8.2 2.4 1.8 0.6 4.3 1 5.8 1 1.4 0 3.2 0.8 4 1.7 1.7 1.9 6.1 2.2 6.6 0.4z m-196.2 -5.7 c10.7 -1.3 10.7 -1.3 11.3 -6.3 0.3 -2.9 0.1 -5.8 -0.6 -6.5 -1.7 -2 -3.5 -39.9 -2.5 -51.5 0.8 -9.6 0.8 -9.6 5.1 -9.6 3.9 0 4.5 0.4 6.2 3.9 1 2.1 2.4 3.9 3.2 3.9 0.7 0 2.1 2 3.1 4.4 1 2.4 2.2 4.4 2.8 4.4 0.6 0 1.7 1.6 2.4 3.5 0.8 2 2.3 4.4 3.4 5.5 1.1 1.1 2 2.5 2 3.2 0 0.7 1 2.4 2.2 4 1.2 1.6 2.2 3.8 2.2 4.9 0 1.2 0.8 2.1 1.7 2.1 0.9 0 1.9 1.6 2.3 3.8 0.3 2.1 1.7 4.7 2.8 5.8 1.1 1 2.1 2.8 2.1 4 0 1.1 0.4 2 1 2 0.6 0 1.3 1.8 1.7 4 0.4 2.1 1.8 4.9 3 6.1 1.1 1.1 2.1 3.2 2.1 4.4 0 4.9 2.4 5.3 25.8 5.4 21.9 0 21.9 0 20.3 -2.4 -1 -1.3 -1.8 -3.3 -1.8 -4.4 0 -1.1 -0.8 -2 -1.7 -2 -0.9 0 -1.9 -1.6 -2.3 -4 -0.4 -2.3 -2.1 -5.2 -3.9 -6.9 -1.8 -1.6 -3.2 -3.7 -3.2 -4.7 0 -1 -1 -2.8 -2.2 -3.9 -1.2 -1.1 -2.2 -2.4 -2.2 -3 0 -0.6 -0.9 -2 -2.1 -3.2 -1.1 -1.2 -2.3 -3.8 -2.8 -5.5 -0.3 -1.9 -1.3 -3.2 -2.3 -3.2 -0.9 0 -1.7 -0.8 -1.7 -1.7 0 -1 -1.2 -3 -2.8 -4.5 -1.6 -1.6 -2.8 -3.4 -2.8 -4.2 0 -0.8 -1.7 -3.2 -3.8 -5.4 -2.1 -2.2 -4.9 -6.3 -6.2 -9.1 -1.3 -2.8 -3.4 -5.5 -4.5 -6.2 -1.1 -0.6 -2.1 -1.8 -2.1 -2.7 0 -0.8 -1.2 -3 -2.8 -4.8 -1.7 -2 -2.8 -4.7 -2.8 -6.8 0 -3.4 0 -3.4 6 -3.4 3.9 0 6.4 -0.6 7.3 -1.7 0.8 -0.9 2 -1.7 2.7 -1.7 0.7 0 3.1 -1 5.4 -2.2 2.2 -1.2 4.9 -2.2 5.8 -2.2 0.9 0 2.8 -1.8 4.1 -3.9 1.4 -2.1 3.2 -3.9 4 -3.9 0.7 0 1.3 -0.7 1.3 -1.6 0 -0.9 0.9 -2.3 2 -3.1 1.2 -0.8 2.8 -2.7 3.5 -4.1 0.8 -1.6 2.3 -3.8 3.4 -5 1.2 -1.2 2.1 -3.5 2.1 -5.2 0 -1.6 1 -4.2 2.3 -5.9 2 -2.5 2.3 -4.4 2.3 -17 0 -11.1 -0.3 -14.3 -1.7 -15.2 -0.9 -0.7 -1.9 -2.4 -2.3 -4 -1.2 -4.4 -3.2 -8.1 -6.1 -11.3 -1.4 -1.7 -3.2 -4.2 -3.9 -5.5 -0.7 -1.4 -2.7 -3.2 -4.3 -4 -1.7 -0.8 -3 -2.1 -3 -2.9 0 -0.7 -2 -2.5 -4.5 -4 -2.4 -1.6 -5.2 -3.4 -6 -4.1 -0.8 -0.8 -2 -1.4 -2.7 -1.4 -0.6 0 -2.8 -1 -4.8 -2.1 -2 -1.2 -5.8 -2.7 -8.3 -3.4 -2.7 -0.7 -4.8 -1.7 -4.8 -2.2 0 -0.7 -13.9 -1.1 -36.6 -1.1 -20.1 0 -36.6 0.3 -36.6 0.9 0 1.4 -5.9 3.5 -9.9 3.5 -9.4 0 -9 -0.9 -9 20.1 0 16 0.2 18.7 1.7 18.7 1.4 0 1.7 3.1 1.9 20.8 0.1 11.4 0.3 22.5 0.4 24.6 0.1 2.1 0.3 30.5 0.3 62.9 l0.1 58.9 13.6 0 c7.4 0 18.3 -0.6 24.2 -1.3z m336.3 -1.7 c0.4 -1.8 1.4 -4.1 2.2 -5.3 0.9 -1.2 1.6 -3.2 1.6 -4.5 0 -1.3 0.8 -2.7 1.7 -3.1 0.9 -0.3 1.7 -1.9 1.7 -3.4 0 -3.1 1.8 -7.1 3.9 -8.9 0.8 -0.6 1.7 -3.3 2 -5.9 0.4 -3.2 1.4 -5.4 2.9 -6.5 1.4 -1 2.3 -2.8 2.3 -4.9 0 -1.8 0.4 -3.2 1 -3.2 0.6 0 1.3 -1.7 1.7 -3.8 0.4 -2 1.7 -4.5 2.9 -5.7 1.2 -1.1 2.2 -3.1 2.2 -4.4 0 -1.4 0.7 -3.1 1.6 -3.8 0.9 -0.8 2 -3 2.4 -4.9 0.3 -2 2.4 -5.9 4.5 -8.8 2.1 -2.9 4.1 -7.1 4.4 -9.4 0.3 -2.3 2.1 -6.2 3.8 -8.6 1.7 -2.4 3.7 -6.5 4.3 -9.1 0.7 -2.7 1.7 -4.8 2.2 -4.8 0.7 0 1.1 -1 1.1 -2.2 0 -1.2 0.6 -2.2 1.1 -2.2 0.7 0 1.1 -0.6 1.1 -1.2 0 -0.7 0.8 -1.9 1.7 -2.8 0.9 -1 1.7 -2.7 1.7 -3.9 0 -2.5 3 -8.8 4.2 -8.8 0.4 0 1.6 -2.3 2.4 -5.2 0.8 -3 3.4 -8.3 5.8 -11.9 2.3 -3.7 4.2 -8 4.2 -9.6 0 -1.7 0.8 -3.8 1.7 -4.8 0.9 -0.9 1.7 -2.3 1.7 -3.3 0 -0.9 0.6 -2 1.1 -2.3 0.7 -0.3 1.1 -1.4 1.1 -2.4 0 -1 0.7 -2.7 1.6 -3.5 1.3 -1.6 2.9 -6.2 4.8 -14.5 0.4 -1.4 1.3 -3.3 2.1 -4.2 0.8 -0.8 1.8 -3.2 2.2 -5.5 0.4 -2.2 1.2 -4.8 1.9 -5.5 1 -1.3 -2 -1.4 -17.3 -1.1 -20.5 0.3 -19.6 0 -22.1 8.3 -0.8 2.7 -1.8 4.8 -2.2 4.8 -0.4 0 -0.9 1 -0.9 2.1 0 1.2 -0.4 2.4 -1 2.8 -0.4 0.3 -1.2 2.7 -1.7 5.1 -0.4 2.9 -1.2 4.4 -2.3 4.4 -1.1 0 -1.7 1.1 -1.7 3.3 0 4.2 -2.4 13.3 -3.5 13.3 -0.4 0 -0.9 1.2 -0.9 2.8 0 1.6 -0.9 3.2 -2.2 3.9 -1.4 0.8 -2.2 2.3 -2.2 4.4 0 3.4 -1.9 8.5 -4.1 10.9 -1.7 1.7 -7.2 1.8 -9 0 -0.8 -0.8 -1.3 -2.4 -1.3 -3.8 0 -1.3 -0.6 -2.7 -1.2 -2.9 -1.7 -0.6 -4.3 -8.3 -4.3 -12.6 0 -1.9 -0.8 -4.1 -1.7 -4.9 -0.9 -0.8 -1.7 -2.3 -1.7 -3.4 0 -1.2 -0.4 -2.1 -1.1 -2.1 -0.6 0 -1.1 -1.7 -1.1 -3.8 0 -2 -0.7 -4.3 -1.6 -5 -0.9 -0.8 -1.9 -3 -2.2 -5.1 -0.4 -2.1 -1.2 -3.9 -1.8 -3.9 -0.7 0 -1.1 -1 -1.1 -2.2 0 -1.2 -0.4 -3.1 -1 -4.2 -0.7 -1 -1.3 -3.2 -1.8 -5 -0.3 -1.7 -1.6 -4 -2.8 -5.2 -2 -2 -3.8 -2.2 -18 -2.2 -12.2 0 -15.4 0.3 -14.4 1.3 0.8 0.8 1.3 2.9 1.3 4.9 0 1.9 0.8 4.1 1.7 4.9 0.9 0.8 1.7 2.8 1.7 4.5 0 1.7 0.6 3.4 1.1 3.8 0.7 0.3 1.1 1.9 1.1 3.3 0 1.4 0.7 3.1 1.4 3.5 1.6 1 5.8 9.4 7 14 0.3 1.7 1.3 3.4 2.2 4.2 0.9 0.7 1.6 2.2 1.6 3.3 0 1.2 0.4 2.1 1 2.1 0.6 0 1.3 2.2 1.7 5 0.4 2.8 1.2 5 1.8 5 0.6 0 1.3 1.8 1.8 3.9 0.3 2.1 1.1 4.2 1.7 4.5 0.6 0.3 1 1.8 1 3.3 0 1.4 0.4 2.7 1 2.7 0.6 0 1.3 1.7 1.8 3.7 0.8 4 2.9 8.8 4.2 9.8 1.6 1.1 3 9 3 17.2 0 6 -0.4 8.3 -2 10 -1.1 1.2 -2.3 3.1 -2.7 4.3 -1.7 5.5 -3.8 10.1 -5 10.9 -0.8 0.4 -1.4 1.7 -1.4 2.5 0 0.9 -1.2 4.5 -2.8 8.2 -1.6 3.7 -2.8 7.6 -2.8 9 0 1.3 -1.2 4.1 -2.8 6.1 -1.6 2 -2.8 4.5 -2.8 5.7 0 1.1 -0.8 3 -1.7 4.1 -0.9 1.2 -1.7 3.3 -1.7 4.7 0 1.4 -0.4 2.9 -1.1 3.2 -0.6 0.3 -1.1 1.6 -1.1 2.8 0 1.1 -0.7 2.2 -1.6 2.5 -1.6 0.7 -4 8.8 -4 13.4 0 1.4 -0.8 3.4 -1.7 4.4 -0.9 0.9 -1.7 2.7 -1.7 3.8 0 1.2 -1.3 3.3 -3 4.5 -3.1 2.2 -3.1 2.2 17.6 2.3 20.8 0 20.8 0 21.5 -3z"/>
  <path d="M654.1 583.4 c-4.2 -2.9 -5.2 -8.6 -5.3 -28.3 0 -22.1 1.2 -28.4 6.8 -33.2 3.5 -3 4.5 -3.3 11.6 -3.3 9.3 0 13.3 1.8 15.8 7.1 1.4 3.1 1.8 7.8 1.8 26.7 0 24.6 -0.6 27.3 -6 30.9 -3.8 2.4 -21.3 2.5 -24.7 0.1z"/>
  <path d="M597.7 242.6 c-0.6 -0.9 -0.8 -11 -0.7 -22.6 0.3 -18.2 0.6 -21.3 2.2 -22.5 1.4 -1.1 6.4 -1.3 20.5 -1.1 18.7 0.3 18.7 0.3 21.2 3.4 1.3 1.7 2.8 3 3.3 3 2.8 0 4.2 3.9 4.8 13.1 0.9 13.5 0 17.2 -5.3 22.7 -4.5 4.5 -4.5 4.5 -24.8 5 -16.3 0.4 -20.4 0.2 -21.2 -1z"/>
 </g>
 <g fill="#f6a2a2">
  <path d="M146.5 438.8 c-35.1 -4 -71.2 -31.9 -85.4 -65.9 -5.9 -14 -8.1 -24 -8.6 -39.9 -1.3 -32.7 9.1 -59.5 32.7 -83.9 5.2 -5.4 5.9 -6.5 4.7 -8 -1.2 -1.6 -1 -1.8 1.8 -1.8 2.8 0 13.5 10.3 76.1 72.9 l72.8 72.8 72.5 -72.6 c61.3 -61.3 73.1 -72.6 76 -72.9 3.2 -0.3 3.3 -0.2 2 1.9 -1.2 2 -0.7 3 6.4 10.3 16.6 17.3 26.3 36.8 29.8 60.7 2.2 14 2.1 19.5 -0.4 34.6 -7.9 45.9 -41 80.3 -87.1 90.7 -9.9 2.2 -37.9 1.9 -47.1 -0.6 -18.8 -5 -32.5 -12 -45.8 -23.2 -6.4 -5.4 -6.4 -5.4 -13.9 0.6 -20.1 16.2 -40.3 23.8 -65.6 24.7 -7 0.2 -16.4 0 -20.8 -0.6z"/>
  <path d="M783.4 376.7 c0 -0.6 -1.2 -1.3 -2.8 -1.8 -1.6 -0.3 -2.8 -1.3 -2.8 -2.2 0 -1.2 2.5 -1.6 12.2 -1.6 9.8 0 12.2 0.3 12.2 1.6 0 0.9 -1.4 1.9 -3.3 2.3 -1.8 0.4 -3.3 1.2 -3.3 1.8 0 0.6 -2.8 1 -6.1 1 -3.3 0 -6.1 -0.4 -6.1 -1.1z"/>
  <path d="M652.4 370.8 c-2.3 -1.8 -2.7 -6.2 -0.4 -6.2 3.5 0 5.1 1.4 5.1 4.5 0 3.4 -1.6 4 -4.7 1.7z"/>
  <path d="M887.6 368.8 c0 -2.5 0.9 -4.3 3.1 -6.2 1.7 -1.4 2.3 -2.3 1.7 -1.9 -0.8 0.3 -1.4 0.1 -1.4 -0.4 0 -0.7 0.6 -1.2 1.1 -1.2 0.7 0 1.1 -0.8 1.1 -1.7 0 -0.9 0.8 -1.7 1.7 -1.7 1.9 0 2.4 7.2 0.6 8.3 -0.6 0.3 -1.1 2.1 -1.1 3.9 0 3 -1.7 4.4 -5.1 4.4 -1 0 -1.6 -1.2 -1.6 -3.5z"/>
  <path d="M605 355.2 c0 -10.5 0.3 -12.9 1.7 -12.9 0.9 0 1.9 1.6 2.3 4.2 0.4 2.2 1.2 4.7 1.8 5.4 0.6 0.7 0.9 4.4 0.7 8.3 -0.4 6.6 -0.6 7 -3.4 7.3 -3 0.3 -3 0.3 -3 -12.4z"/>
  <path d="M935.6 357.8 c0.8 -8.1 1.1 -8.8 4.7 -8.8 2.2 0 2.7 0.6 2.7 3.3 0 2 -0.7 3.7 -1.7 4 -0.9 0.4 -1.7 1.6 -1.7 2.7 0 3.3 -1.2 5.5 -3 5.5 -1.4 0 -1.7 -1.1 -1 -6.8z"/>
  <path d="M897.1 344.9 c1.3 -5.4 2.5 -8.1 3.8 -8.1 0.6 0 1.1 -0.8 1.1 -1.7 0 -0.9 0.8 -1.7 1.7 -1.7 1.2 0 1.7 1.2 1.7 4.3 0 2.8 -0.6 4.5 -1.7 5 -0.9 0.3 -1.7 1.7 -1.7 2.9 0 1.7 -0.8 2.2 -2.8 2.2 -2.5 0 -2.8 -0.3 -2.1 -3z"/>
  <path d="M941.8 343.1 c0 -3.3 0.6 -5.1 1.7 -5.5 0.9 -0.3 1.7 -1.9 1.7 -3.4 0 -1.6 0.6 -2.8 1.1 -2.8 0.7 0 1.1 -1.8 1.1 -3.9 0 -3.5 0.2 -3.9 3.3 -3.9 3 0 3.3 0.3 3.3 3.2 0 2.1 -0.9 3.9 -2.3 4.9 -1.4 1.1 -2.5 3.3 -2.9 6.5 -0.7 4.3 -4 9.6 -6.1 9.8 -0.6 0 -0.9 -2.2 -0.9 -4.9z"/>
  <path d="M731.1 340.3 c-1.2 -2.4 -2 -6.8 -2 -10.4 0 -6.3 0 -6.3 3.3 -6.3 3.3 0 3.3 0 3.3 10.5 0 11.7 -1.3 13.5 -4.7 6.2z"/>
  <path d="M805.6 325.3 c0 -1.4 2.4 -3.1 5 -3.3 0.6 -0.1 1.3 -1.3 1.7 -2.9 0.3 -1.6 1.3 -2.8 2.2 -2.8 3.2 0 4.3 -4.2 4.4 -16.4 0 -9.5 0.3 -12.1 1.7 -12.5 0.9 -0.4 1.7 -1.3 1.7 -2.2 0 -0.9 0.8 -1.6 1.7 -1.6 1.4 0 1.7 2.2 1.7 13.7 0 11.2 -0.3 13.9 -1.7 14.4 -0.9 0.3 -1.7 1.6 -1.7 2.8 0 2.3 -5.7 9 -7.6 9 -0.7 0 -1.2 0.8 -1.2 1.7 0 1.1 -1.2 1.7 -3.9 1.7 -2.5 0 -3.9 -0.6 -3.9 -1.6z"/>
  <path d="M863.7 321 c-0.4 -1.4 -0.6 -5.1 -0.3 -8.1 0.3 -5 0.6 -5.4 3.4 -5.8 3 -0.3 3 -0.3 3 5.9 0 4.4 -0.4 6.3 -1.7 6.8 -0.9 0.4 -1.7 1.3 -1.7 2.2 0 2.5 -2.1 1.8 -2.8 -1z"/>
  <path d="M953.3 316.7 c0.4 -3.1 1.1 -6 1.7 -6.3 0.6 -0.3 1.2 -1.6 1.7 -2.5 0.4 -1.1 1.9 -2 3.3 -2 2.3 0 2.7 0.4 2.1 3.1 -0.2 1.7 -1.4 4 -2.5 5.2 -1 1.2 -2.3 3.5 -2.7 5.3 -0.4 1.7 -1.6 3 -2.4 3 -1.4 0 -1.7 -1 -1.1 -5.8z"/>
  <path d="M774.1 307.3 c-1.1 -6.9 -0.8 -10.3 0.9 -10.3 0.9 0 2 2.1 2.8 5 0.7 2.8 1.8 5 2.3 5 0.7 0 1.1 1 1.1 2.2 0 1.7 -0.8 2.2 -3.2 2.2 -2.8 0 -3.2 -0.4 -3.9 -4.1z"/>
  <path d="M913 306.4 c0 -0.3 1.2 -3.5 2.8 -7.2 1.6 -3.7 2.8 -7.3 2.8 -8.2 0 -0.9 0.7 -2.1 1.4 -2.5 0.8 -0.4 1.9 -2.3 2.4 -4.1 0.7 -1.8 1.8 -3.4 2.7 -3.8 1.2 -0.4 1.4 0.8 0.8 6.5 -0.4 3.9 -1.4 7.8 -2.1 8.6 -0.8 0.8 -2.1 3.5 -3.1 6.1 -1.4 3.5 -2.4 4.7 -4.8 4.9 -1.6 0.2 -2.9 0.1 -2.9 -0.3z"/>
  <path d="M967.3 289.4 c0 -6 2.5 -10.2 6.1 -10.2 3.4 0 0.7 9.8 -4 14 -2.1 1.9 -2.1 1.8 -2.1 -3.8z"/>
  <path d="M654.9 277 c0 -3.3 0.1 -3.3 6.1 -3.3 4.7 0 6.1 0.3 6.1 1.7 0 0.9 -0.7 1.7 -1.6 1.7 -0.8 0 -2.1 0.8 -2.9 1.7 -0.8 0.9 -2.8 1.7 -4.5 1.7 -2.9 0 -3.2 -0.4 -3.2 -3.3z"/>
  <path d="M673.7 269.7 c0 -1.9 0.7 -3.1 2.2 -3.4 1.2 -0.3 2.2 -1.3 2.2 -2.1 0 -1 1.3 -1.6 3.9 -1.6 2.1 0 3.9 0.6 3.9 1.1 0 0.7 -0.7 1.1 -1.3 1.1 -0.8 0 -2.5 1.8 -4 3.9 -3 4.8 -6.9 5.3 -6.9 1z"/>
  <path d="M979.5 261.5 c0 -3 0.4 -4.4 1.4 -4.4 0.9 0 2.2 -2.1 3 -4.7 1.7 -5.1 2.8 -6.4 5.9 -6.4 2.3 0 2.5 3.7 0.2 5.9 -0.9 0.9 -1.2 1.9 -0.9 2.3 0.3 0.3 -0.2 0.9 -1.2 1.3 -1 0.3 -1.6 1.1 -1.2 1.6 0.2 0.4 -0.4 2 -1.7 3.3 -1.2 1.4 -2.2 3.2 -2.2 4.1 0 0.8 -0.8 1.4 -1.7 1.4 -1.2 0 -1.7 -1.2 -1.7 -4.4z"/>
  <path d="M687 257.2 c0 -4.8 2.2 -9.9 4.4 -10.6 1.6 -0.4 2.2 -2.2 2.9 -7 0.8 -6.4 1.8 -8 5.2 -8 2.4 0 2.5 5.1 0.1 7.9 -1.7 1.8 -2.4 4 -2.5 7.6 -0.1 0.9 -1.3 3.1 -2.9 4.9 -1.4 1.8 -3 4 -3.3 5.1 -0.3 1.1 -1.3 2.3 -2.2 2.7 -1.2 0.4 -1.7 -0.2 -1.7 -2.5z"/>
  <path d="M922.5 242.8 c-0.3 -1.8 -1.4 -3.5 -2.3 -3.9 -1 -0.3 -1.6 -1.6 -1.4 -2.5 0.1 -1.1 -0.1 -2.9 -0.4 -3.9 -1.9 -5 -1.9 -5.3 0.9 -5.3 2 0 2.8 0.6 2.8 2.2 0 1.2 0.7 2.2 1.6 2.2 1.4 0 2.9 5.3 2.9 11.4 0 4.1 -3 3.9 -3.9 -0.2z"/>
  <path d="M863.2 233.2 c0 -7.2 0 -7.2 3.3 -7.2 3.1 0 3.3 0.3 3.3 3.8 0 2.1 -0.4 4.2 -1.1 4.5 -0.6 0.3 -1.1 1.6 -1.1 2.8 0 1.7 -2 3.3 -4 3.3 -0.2 0 -0.4 -3.2 -0.4 -7.2z"/>
  <path d="M999.5 222.7 c0 -2.9 0.9 -5.7 2.4 -7.8 2.7 -3.7 6.4 -4.4 6.4 -1.4 0 2.2 -6.6 13.6 -8 13.6 -0.4 0 -0.9 -2 -0.9 -4.4z"/>
  <path d="M961.5 215.8 c0.6 -4.1 4.3 -9.8 6.5 -9.8 0.2 0 0.4 3 0.4 6.5 0 6.8 -0.8 7.9 -5.5 7.9 -1.8 0 -1.9 -0.7 -1.4 -4.7z"/>
  <path d="M773.8 209.3 c0.3 -4.3 0.9 -8.2 1.2 -8.4 0.9 -0.9 10.6 -1.8 10.6 -1 0 0.3 -1.4 2 -3.2 3.8 -2 1.9 -3.8 5.2 -4.7 8.3 -0.8 3.3 -1.9 5.2 -3 5.2 -1.3 0 -1.6 -1.2 -1 -7.9z"/>
  <path d="M696.2 210 c-2.1 -2.3 -1.9 -12.7 0.2 -12.7 0.9 0 1.7 0.7 1.7 1.6 0 0.9 0.8 1.8 1.7 2.2 1.1 0.4 1.7 2.2 1.7 5.7 0 4 -0.3 5 -1.9 5 -1.1 -0.1 -2.7 -0.8 -3.3 -1.7z"/>
  <path d="M595.2 209.5 c-0.9 -0.6 -1.3 -2.5 -1.1 -5.2 0.2 -3.2 1 -4.7 2.9 -5.4 1.3 -0.6 2.4 -1.4 2.4 -1.9 0 -0.6 0.9 -0.9 2 -0.9 1 0 3.3 -0.8 5.1 -1.7 2.1 -1.1 6.5 -1.7 13.9 -1.7 11.3 0 13.4 0.8 13.4 4.9 0 2.2 -0.6 2.3 -14.4 2 -17.1 -0.4 -18.8 0.2 -18.8 6.4 0 4.5 -1.8 5.8 -5.3 3.4z"/>
  <path d="M944.1 208.3 c0 -1.2 -0.4 -2.2 -1 -2.2 -0.6 0 -1.3 -2.7 -1.7 -6 -0.7 -4.7 -1.3 -6.1 -3 -6.5 -1.8 -0.4 -2.1 -1.6 -2.1 -6.2 0 -4.3 0.4 -5.7 1.7 -5.7 0.9 0 1.7 0.7 1.7 1.6 0 0.8 0.8 2.1 1.7 2.9 0.9 0.8 1.7 3.1 1.7 5.1 0 2.1 0.6 3.8 1.1 3.8 0.7 0 1.1 0.9 1.1 2.1 0 1.1 0.8 2.7 1.7 3.4 1 0.8 1.7 3.2 1.7 5.7 0 3.5 -0.3 4.3 -2.2 4.3 -1.4 0 -2.2 -0.8 -2.2 -2.2z"/>
  <path d="M554 206.7 c0 -0.9 -0.8 -1.7 -1.7 -1.7 -1.4 0 -1.7 -3.1 -1.7 -21.1 0 -21.1 0 -21.1 3.3 -21.1 3.3 0 3.3 0 3.3 22.7 0 19.5 -0.2 22.7 -1.7 22.7 -0.9 0 -1.7 -0.8 -1.7 -1.7z"/>
  <path d="M1010.5 196.7 c0 -2.7 0.6 -3.9 1.7 -3.9 0.9 0 1.7 -1 1.7 -2.2 0 -1.4 0.8 -2.2 2.2 -2.2 1.9 0 2.1 0.6 1.8 2.9 -0.3 1.7 -1.3 3.8 -2.3 4.9 -0.9 1 -1.7 2.4 -1.7 3.1 0 0.8 -0.8 1.3 -1.7 1.3 -1.1 0 -1.7 -1.2 -1.7 -3.9z"/>
  <path d="M903.2 195.9 c-0.9 -2 -2.2 -4.1 -3 -4.8 -0.7 -0.6 -1.6 -2.4 -1.8 -4.1 -0.4 -2.4 -0.1 -3.1 1.4 -3.1 3.9 0 5.4 1.3 5.4 4.5 0 1.8 0.6 3.2 1.1 3.2 0.7 0 1.1 1.8 1.1 3.9 0 5 -2.2 5.1 -4.3 0.3z"/>
  <path d="M729.1 194.1 c0 -2.5 0.7 -5 1.7 -5.8 0.9 -0.8 1.7 -2.1 1.7 -2.9 0 -0.9 0.8 -1.6 1.7 -1.6 1.4 0 1.7 1.2 1.4 7 -0.3 6.5 -0.4 6.9 -3.3 7.2 -2.9 0.3 -3.1 0.1 -3.1 -4z"/>
  <path d="M970.7 190.6 c0 -3.1 0.4 -4.4 1.6 -4.4 0.9 0 1.9 -1.4 2.3 -3.3 0.4 -2 1.4 -3.3 2.4 -3.3 1.4 0 1.6 1.1 1 6.9 -0.9 7 -1.8 8.6 -5.3 8.6 -1.6 0 -2 -1 -2 -4.4z"/>
  <path d="M896.4 179.1 c0 -0.8 -0.8 -2.1 -1.7 -2.9 -0.9 -0.8 -1.7 -3 -1.7 -5.1 0 -2 -0.4 -4 -1.1 -4.3 -0.6 -0.3 -1.1 -1.7 -1.1 -2.9 0 -1.2 -0.8 -2.4 -1.7 -2.8 -2.7 -1.1 -1.9 -2.7 1.2 -2.7 3.7 0 5.9 2.8 6 7.3 0 2.1 0.7 3.8 1.7 4.2 1.1 0.4 1.7 2.2 1.7 5.7 0 3.7 -0.4 5 -1.7 5 -0.9 0 -1.7 -0.7 -1.7 -1.6z"/>
  <path d="M836.6 166.5 c0 -0.6 -2.2 -1.9 -5 -3.1 -4.2 -1.8 -5 -2.7 -5 -5.2 0 -2.5 0.4 -3.1 2.8 -3.1 1.7 0 3.4 1 4.5 2.8 1 1.6 2.2 2.4 2.8 2.1 0.6 -0.3 1 0.1 1 1.1 0 0.9 1.4 1.9 3.3 2.3 4.8 1 4.3 3.9 -0.6 3.9 -2.1 0 -3.9 -0.3 -3.9 -0.8z"/>
  <path d="M647.1 161.9 c-4.4 -0.6 -5 -1 -5.3 -3.7 -0.3 -2.9 -0.1 -3.1 3.5 -3.1 2.2 0 4 0.4 4 1.1 0 0.6 2.2 1.7 5 2.3 2.9 0.8 5 1.9 5 2.8 0 1.7 -3 1.8 -12.2 0.6z"/>
  <path d="M562.9 160.8 c0 -0.6 1.6 -1.7 3.3 -2.5 1.9 -0.8 3.3 -1.8 3.3 -2.2 0 -0.6 3.5 -0.9 7.8 -0.9 7.8 0 7.8 0 7.8 3.3 0 3.3 0 3.3 -11.1 3.3 -6.1 0 -11.1 -0.4 -11.1 -1z"/>
  <path d="M749 161.2 c0 -2.2 4 -6.1 6.2 -6.1 2.2 0 2.7 0.6 2.7 3.3 0 3.1 -0.2 3.3 -4.4 3.3 -2.4 0 -4.4 -0.2 -4.4 -0.6z"/>
  <path d="M767.9 153.5 c0 -1.6 1.9 -2.1 5.1 -1.8 0.6 0 2.2 -0.9 3.5 -2.1 1.6 -1.4 3.9 -2.2 6.9 -2.2 3.9 0 4.4 0.3 4.4 2.5 0 2.3 -0.8 2.7 -7.8 3.9 -10.2 1.8 -12.2 1.7 -12.2 -0.3z"/>
  <path d="M801.8 152.2 c-2.3 -2.3 -2.2 -4.9 0.2 -5 3.5 -0.2 7.4 0.3 8 1.2 0.3 0.4 1.6 1 2.8 1.2 1.2 0.3 2.3 1.3 2.5 2.4 0.3 1.6 -0.6 1.9 -5.8 1.9 -4 0 -6.6 -0.6 -7.8 -1.8z"/>
 </g>
 <g fill="#ad98a7">
  <path d="M479.8 604 c0 -2.3 0.6 -3.4 1.7 -3.4 0.9 0 1.7 -0.8 1.7 -1.7 0 -1.1 1.1 -1.7 3.4 -1.7 3.1 0 3.3 0.2 2 1.9 -0.9 1 -2.3 2.7 -3.2 3.7 -1 0.9 -2.7 2.3 -3.7 3.2 -1.7 1.3 -1.9 1.1 -1.9 -2z"/>
  <path d="M488.7 592.3 c0 -3.1 0.4 -3.9 2.2 -3.9 2.5 0 2.9 2.9 0.7 5.9 -2.2 2.8 -2.9 2.3 -2.9 -2z"/>
  <path d="M716.9 589.5 c0 -1.8 0.8 -2.2 3.9 -2.2 2.7 0 3.9 0.6 3.9 1.7 0 0.9 -0.7 1.7 -1.3 1.8 -0.8 0 -2.5 0.2 -3.9 0.6 -2 0.3 -2.5 -0.1 -2.5 -1.8z"/>
  <path d="M913.8 590.4 c-0.7 -2.3 0.4 -5.3 2.1 -5.3 1 0 1.6 1.2 1.6 3.3 0 3.3 -2.7 4.8 -3.7 2z"/>
  <path d="M704.5 587.9 c-1 -0.8 -2.2 -3 -2.5 -4.9 -0.4 -3 -0.2 -3.5 1.6 -3.5 1.7 0 2.4 1 3 3.8 0.9 5.1 0.3 6.4 -2 4.7z"/>
  <path d="M822 587.6 c-0.7 -3.1 0.2 -5.9 2 -5.9 1 0 1.6 1.2 1.6 3.9 0 4.1 -2.7 5.5 -3.5 2z"/>
  <path d="M909.7 586.7 c0 -0.9 0.8 -1.7 1.8 -1.7 1.6 0 1.6 0.3 0.4 1.7 -0.8 0.9 -1.6 1.7 -1.8 1.7 -0.2 0 -0.4 -0.8 -0.4 -1.7z"/>
  <path d="M284.5 585.4 c-3.2 -3.8 -3.3 -5.9 -0.3 -5.9 2.4 0 2.8 0.4 2.8 3.9 0 4.4 -0.1 4.5 -2.4 2z"/>
  <path d="M398.9 582.3 c0 -4.1 2.7 -5.5 3.5 -1.9 0.7 3 -0.2 5.8 -2 5.8 -1 0 -1.6 -1.2 -1.6 -3.9z"/>
  <path d="M865.4 582.3 c0 -4.1 2.7 -5.5 3.5 -1.9 0.7 3 -0.2 5.8 -2 5.8 -1 0 -1.6 -1.2 -1.6 -3.9z"/>
  <path d="M671.5 583.2 c0 -0.6 1.8 -2 3.9 -3.4 3.9 -2.4 3.9 -2.4 3.9 0.9 0 3.1 -0.3 3.3 -3.9 3.3 -2.1 0 -3.9 -0.3 -3.9 -0.8z"/>
  <path d="M988.2 573.2 c-0.7 -3.1 0.2 -5.9 2 -5.9 1 0 1.6 1.2 1.6 3.9 0 4.1 -2.7 5.5 -3.5 2z"/>
  <path d="M572.9 569 c0 -4.1 2.7 -5.5 3.5 -1.9 0.7 3 -0.2 5.8 -2 5.8 -1 0 -1.6 -1.2 -1.6 -3.9z"/>
  <path d="M941.8 568.4 c0 -3 0.4 -4.4 1.6 -4.4 1.8 0 2.9 3.5 2.1 6.6 -1.1 4.1 -3.7 2.5 -3.7 -2.2z"/>
  <path d="M314.5 568.8 c-0.7 -3.1 0.2 -5.9 2 -5.9 1 0 1.6 1.2 1.6 3.9 0 4.1 -2.7 5.5 -3.5 2z"/>
  <path d="M877.4 567.7 c-0.7 -3.1 0.2 -5.9 2 -5.9 1 0 1.6 1.2 1.6 3.9 0 4.1 -2.7 5.5 -3.5 2z"/>
  <path d="M975.1 564 c0 -3 0.4 -4.4 1.6 -4.4 1.8 0 2.9 3.5 2.1 6.6 -1.1 4.1 -3.7 2.5 -3.7 -2.2z"/>
  <path d="M465.4 564.1 c-1.8 -3.4 -1.3 -5.7 1.1 -5.7 1.8 0 2.2 0.8 2.2 3.9 0 4.3 -1.6 5.1 -3.3 1.8z"/>
  <path d="M472 561.2 c0 -4.4 2.7 -5.4 3.8 -1.3 1.1 4.1 0.8 5.2 -1.6 5.2 -1.8 0 -2.2 -0.8 -2.2 -3.9z"/>
  <path d="M708 559 c0 -4.1 2.7 -5.5 3.5 -1.9 0.7 3 -0.2 5.8 -2 5.8 -1 0 -1.6 -1.2 -1.6 -3.9z"/>
  <path d="M741.3 546.3 c0 -10.1 0.3 -12.2 1.7 -12.2 1.9 0 1.9 -0.2 1.9 12.2 -0.1 12.6 0 12.2 -1.9 12.2 -1.3 0 -1.7 -2.1 -1.7 -12.2z"/>
  <path d="M864.3 554.6 c0 -4.1 2.7 -5.5 3.5 -1.9 0.7 3 -0.2 5.8 -2 5.8 -1 0 -1.6 -1.2 -1.6 -3.9z"/>
  <path d="M230.4 556 c0 -0.8 -0.2 -2.5 -0.3 -3.9 -0.2 -1.9 0.3 -2.5 1.8 -2.5 1.6 0 2 0.9 2 3.9 0 2.7 -0.6 3.9 -1.7 3.9 -0.9 0 -1.7 -0.7 -1.8 -1.3z"/>
  <path d="M975.1 552.4 c0 -3.7 0.4 -5 1.7 -5 1.6 0 2 1 2 5 0 4 -0.4 5 -2 5 -1.2 0 -1.7 -1.3 -1.7 -5z"/>
  <path d="M1042.5 551 c-0.7 -3.1 0.2 -5.9 2 -5.9 1 0 1.6 1.2 1.6 3.9 0 4.1 -2.7 5.5 -3.5 2z"/>
  <path d="M681.3 537.2 c0 -0.8 -0.2 -2.5 -0.3 -3.9 -0.2 -1.9 0.3 -2.5 1.8 -2.5 1.6 0 2 0.9 2 3.9 0 2.7 -0.6 3.9 -1.7 3.9 -0.9 0 -1.7 -0.7 -1.8 -1.3z"/>
  <path d="M1049.3 537.4 c0 -1.3 3.7 -3.3 6 -3.3 1 0 1.8 1 1.8 2.2 0 1.8 -0.8 2.2 -3.9 2.2 -2.1 0 -3.9 -0.4 -3.9 -1.1z"/>
  <path d="M94.2 531.3 c0 -4.1 2.7 -5.5 3.5 -1.9 0.7 3 -0.2 5.8 -2 5.8 -1 0 -1.6 -1.2 -1.6 -3.9z"/>
  <path d="M863.2 521.3 c0 -4.1 2.7 -5.5 3.5 -1.9 0.7 3 -0.2 5.8 -2 5.8 -1 0 -1.6 -1.2 -1.6 -3.9z"/>
  <path d="M87.3 520 c-0.7 -3.1 0.2 -5.9 2 -5.9 1 0 1.6 1.2 1.6 3.9 0 4.1 -2.7 5.5 -3.5 2z"/>
  <path d="M126.7 514.5 c-2.1 -0.3 -3.7 -1.1 -3.7 -2 0 -1.8 2.5 -2.4 7.3 -1.9 2.8 0.3 3.4 0.9 3 2.5 -0.3 1.1 -1.1 2 -1.9 1.9 -0.7 0 -2.9 -0.3 -4.8 -0.6z"/>
  <path d="M85.2 236.3 c-18.6 -19.4 -28.3 -38.2 -32.1 -63.5 -1.7 -11 -0.6 -33.7 2.1 -43.8 7.2 -26.7 23.5 -49.2 46.2 -64.3 31.4 -20.6 69.8 -24.5 104 -10.3 10 4.1 15.2 7.1 26.2 15.4 l8.9 6.8 7 -5.5 c21.8 -17.3 42.9 -24.8 69.5 -24.8 37.2 0 69.7 16.5 90.9 46.2 11.4 16.2 17.8 33.4 20.2 54.4 3.5 32.6 -10.4 68.6 -36.6 94 -3.1 2.9 -5.1 4 -6.4 3.5 -1.2 -0.3 -33.9 -32.8 -72.9 -72.1 -38.9 -39.3 -71.1 -71.5 -71.7 -71.2 -0.6 0.2 -33.6 32.9 -73.4 72.7 l-72.4 72.4 -9.4 -9.8z"/>
 </g>
 <g fill="#a76a79">
  <path d="M165.8 317 c-40.8 -40.8 -73.9 -74.5 -73.6 -75 0.2 -0.6 33.7 -34.1 74.5 -74.7 l73.9 -73.7 73.5 74 c40.3 40.7 74 73.9 74.9 73.9 0.9 0 -32.1 33.7 -73.1 74.8 -41.1 41.1 -75 74.8 -75.3 74.8 -0.3 0 -33.9 -33.4 -74.7 -74.1z"/>
 </g>
 <g fill="#ec4848">
  <path d="M772.3 373.5 c-1.6 -0.6 -5 -1.6 -7.8 -2.4 -2.8 -0.8 -5.4 -1.8 -6 -2.3 -0.7 -0.4 -2 -0.9 -3 -0.9 -1.1 0 -3.3 -1.1 -5.1 -2.5 -1.7 -1.3 -4.4 -3.2 -6.1 -4 -1.8 -0.9 -3.1 -1.9 -3.1 -2.2 0 -0.4 -1.3 -2.2 -3 -4.1 -4.5 -4.9 -5.9 -8.6 -5.9 -16 0 -5.1 -0.4 -6.8 -1.9 -7.6 -1.9 -1 -1.9 -1.2 0.2 -2.8 2 -1.6 2 -1.7 0.3 -1.8 -1.9 0 -2 -3.9 -2 -66.5 0 -52.2 0.3 -66.4 1.3 -66.3 0.9 0.2 1.7 -1.7 2.2 -5.2 1.4 -10 2.2 -12.5 4.1 -13.1 1 -0.2 2.4 -2.4 3.2 -5.1 0.8 -2.4 1.8 -4.5 2.2 -4.5 0.6 0 2.5 -1.8 4.7 -3.9 2.1 -2.1 4.8 -3.9 5.9 -3.9 1 0 1.9 -0.8 1.9 -1.7 0 -1.1 1.8 -1.8 5.5 -2.3 3.1 -0.4 5.5 -1.1 5.5 -1.6 0 -0.4 2.3 -1.1 5.3 -1.6 10.5 -1.3 13.5 -2 13.5 -3 0 -0.6 4.3 -1 9.5 -1 7 0 9.9 0.4 11.2 1.7 0.9 1 3.4 1.7 5.7 1.7 5.1 -0.1 11.3 1.1 11.3 2.2 0 0.4 1.8 1.2 3.9 1.6 2.3 0.4 3.9 1.4 3.9 2.3 0 0.9 0.6 1.7 1.2 1.7 0.6 0 3 1.2 5.2 2.8 2.2 1.6 5 2.8 6 2.8 1.1 0 2 0.4 2 1.1 0 1.4 5.8 6.6 7.4 6.6 0.8 0 1.4 1 1.4 2.1 0 1.2 1.1 3.1 2.5 4.2 2.8 2.2 6.3 9.3 6.3 12.5 0 1.2 0.8 2.2 1.7 2.2 0.9 0 1.7 0.9 1.7 2 0 2.9 2.9 10.3 3.7 9.6 0.4 -0.3 0.3 0.1 -0.3 0.8 -1.4 1.7 -1.4 3.4 0 2.5 0.7 -0.4 1.1 3.3 1.1 10.4 0 8.4 -0.3 11.1 -1.3 10.9 -1 -0.1 -1.7 1.7 -2 5.1 -0.6 5.2 -0.8 5.5 -5 7 -5.3 1.9 -34 2.1 -39 0.3 -3.9 -1.3 -4.8 -4.3 -4.8 -16.4 0 -9.1 -1.8 -14.8 -6 -19.4 -6.2 -6.6 -14.5 -7.8 -26.6 -3.9 -6.4 2.1 -7.2 2.7 -7.8 5.9 -0.4 1.9 -1 20.9 -1.4 42.3 -0.7 41.1 0.4 58.1 3.7 58.1 0.9 0 1.6 1.1 1.6 2.5 0 1.4 1.2 3.8 2.8 5.2 1.6 1.4 2.8 3.1 2.8 3.8 0 2.4 6.5 4.1 14.8 3.9 8.3 -0.2 8.3 -0.2 12.7 -5.1 2.5 -2.7 4.5 -5.9 4.5 -7.1 0 -1.2 0.8 -2.4 1.7 -2.8 1.3 -0.6 1.7 -3.1 1.7 -13.2 l0 -12.5 20.7 0.4 c11.3 0.2 21.1 0.8 21.6 1.3 0.6 0.6 1.2 3.5 1.7 6.6 0.3 3.1 0.9 5.7 1.3 5.5 2.1 -0.2 2.4 0.4 1.1 2.1 -1.1 1.2 -1.1 1.6 -0.1 1 1 -0.6 1.3 0.6 1.3 4.7 0 4 -0.4 5.8 -1.8 6.2 -1.2 0.4 -1.7 1.9 -1.4 4.9 0.4 5.2 -1.1 13.6 -2.8 15.7 -0.8 0.9 -2 3.8 -2.8 6.4 -0.7 2.5 -2.8 6.3 -4.5 8.4 -1.9 2 -3.3 4.2 -3.3 4.7 0 0.6 -2 2.4 -4.4 4.2 -2.4 1.9 -4.4 3.9 -4.4 4.7 0 0.7 -0.9 1.7 -1.9 2 -2.4 0.9 -6.2 3.1 -8.5 5 -1 0.8 -1.8 1.1 -1.8 0.8 0 -0.4 -1.3 -0.1 -3 0.8 -5.1 2.7 -8.4 3.9 -12.5 4.7 -6 1.2 -41.2 1.7 -44.3 0.7z"/>
  <path d="M554.6 310 c0 -114.9 -0.4 -139.4 -2.2 -139.4 -0.9 0 -1.7 -0.4 -1.7 -1.1 0 -0.6 0.8 -1.1 1.7 -1.1 0.9 0 1.7 -0.4 1.7 -1.1 0 -0.6 -0.8 -1.1 -1.7 -1.1 -1 0 -1.7 -1 -1.7 -2.8 0 -2.1 0.7 -2.8 3.7 -3.3 5 -1 9.6 -1.3 19.4 -1.6 6.3 -0.1 8 -0.4 8 -1.8 0 -1.4 4.2 -1.7 31.5 -1.7 25.4 0 31.6 0.3 32 1.6 0.3 0.9 3.1 1.7 6.9 2.1 3.4 0.3 8 1.7 10.1 2.9 2.1 1.3 4.4 2.3 5 2.3 0.7 0 1.9 0.7 2.7 1.4 0.8 0.7 3.5 2.5 6 4.1 2.5 1.4 4.5 3.3 4.5 4 0 0.8 1.3 2.1 3 2.9 1.7 0.8 3.7 2.5 4.3 4 0.7 1.3 2.4 3.9 3.9 5.5 4.2 5 5.5 7.8 6.2 13.9 0.4 3.2 1.3 6.4 2.2 7.2 0.8 0.8 1.4 2.3 1.6 3.3 0 1 0.4 4.5 0.9 7.8 0.4 3.2 0.4 6.1 0 6.3 -0.3 0.3 -0.8 2.7 -0.8 5.2 -0.1 2.8 -0.8 5.2 -1.7 5.9 -0.9 0.7 -2 4 -2.4 7.5 -0.6 4.7 -1.3 6.4 -2.8 6.9 -1.2 0.3 -2.7 2.5 -3.4 4.8 -0.8 2.2 -2.2 4.8 -3.4 5.5 -1.1 0.8 -2 2.2 -2 3.1 0 0.9 -0.6 1.6 -1.2 1.6 -0.8 0 -2.9 1.7 -4.8 3.7 -4.4 4.5 -12.5 8.5 -17.7 8.5 -2.8 0 -4 0.4 -4 1.7 0 1.2 -1.2 1.7 -4.5 1.7 -4.5 0 -4.5 0 -1.7 3.4 1.6 1.9 2.9 4.1 2.9 4.9 0 0.9 1 2.1 2.1 2.7 1.1 0.7 3.2 3.4 4.5 6.2 1.3 2.8 4.1 6.9 6.2 9.1 2.1 2.2 3.8 4.7 3.8 5.4 0 0.8 1.2 2.7 2.8 4.2 1.6 1.6 2.8 3.5 2.8 4.5 0 0.9 0.8 1.7 1.7 1.7 1 0 2 1.3 2.3 3.2 0.4 1.8 1.7 4.3 2.8 5.5 1.2 1.2 2.1 2.7 2.1 3.2 0 0.6 1 1.9 2.2 3 1.2 1.1 2.2 2.9 2.2 3.9 0 1 1.4 3.1 3.2 4.7 1.8 1.7 3.4 4.5 3.9 6.9 0.4 2.4 1.4 4 2.3 4 0.9 0 1.7 0.9 1.7 2.1 0 1.1 1 3.2 2.1 4.7 1.1 1.6 2.3 4 2.4 5.4 0.4 2.8 0.4 2.8 -25.8 3.1 -22.9 0.2 -26.4 0 -26.4 -1.4 0 -0.9 -0.4 -1.7 -1.1 -1.7 -0.6 0 -1.8 -1.8 -2.7 -3.9 -0.9 -2.1 -2.1 -3.9 -2.8 -3.9 -0.6 0 -1.3 -2 -1.8 -4.4 -0.4 -2.4 -1.2 -4.4 -1.8 -4.4 -0.6 0 -1 -0.9 -1 -2 0 -1.2 -1 -3 -2.1 -4 -1.1 -1.1 -2.4 -3.7 -2.8 -5.8 -0.4 -2.2 -1.4 -3.8 -2.3 -3.8 -0.9 0 -1.7 -0.9 -1.7 -2.1 0 -1.1 -1 -3.3 -2.2 -4.9 -1.2 -1.6 -2.2 -3.3 -2.2 -4 0 -0.7 -0.9 -2.1 -2 -3.2 -1.1 -1.1 -2.7 -3.5 -3.4 -5.5 -0.8 -2 -1.9 -3.5 -2.4 -3.5 -0.6 0 -1.8 -2 -2.8 -4.4 -1 -2.4 -2.4 -4.4 -3.1 -4.4 -0.8 0 -2.2 -1.8 -3.2 -3.9 -1 -2.1 -2.3 -3.9 -2.9 -3.9 -1.3 0 -2.4 15.2 -1.9 23.8 0.3 3.7 0.6 15 0.7 25.2 0.1 14.3 0.6 18.6 1.7 19.1 0.9 0.3 1.2 1.4 0.9 2.7 -0.8 2.9 -5.1 3.4 -33.6 4.2 l-22.7 0.7 0 -62.5z m85.8 -74.9 c5.1 -5.2 6.3 -9.5 5.2 -19.3 -0.8 -6.3 -2.4 -9.8 -4.9 -9.8 -0.6 0 -1.9 -1.2 -2.9 -2.8 -1 -1.6 -2.5 -2.8 -3.3 -2.8 -0.8 0 -2.8 -1 -4.3 -2.2 -3.4 -2.8 -15.4 -3.1 -20.3 -0.6 -1.8 0.9 -4 1.7 -4.9 1.7 -0.9 0 -3.1 1.2 -5 2.8 -3.1 2.5 -3.2 2.9 -1.3 4 1.8 1 1.9 2.9 1.8 16.5 0 8.5 0.2 16 0.7 16.7 0.7 0.9 5.5 1.1 17.8 0.8 17 -0.6 17 -0.6 21.4 -5.1z"/>
  <path d="M887.6 371.3 c0 -0.6 0.8 -1.8 1.7 -2.8 0.9 -0.9 1.7 -2.7 1.7 -3.9 0 -1.2 0.6 -2.5 1.1 -2.9 0.7 -0.3 1.1 -2.2 1.1 -4 0 -1.9 0.4 -3.1 1 -2.8 1.2 0.8 2.3 -2 2.3 -6 0 -1.8 0.6 -3.5 1.1 -3.9 0.7 -0.3 1.1 -1.7 1.1 -2.9 0 -1.2 0.8 -2.4 1.7 -2.8 0.9 -0.4 1.7 -2.1 1.7 -3.8 0 -1.8 0.6 -3.5 1.1 -3.9 0.7 -0.3 1.1 -1.8 1.1 -3.2 0 -1.3 0.8 -3.4 1.7 -4.7 0.9 -1.1 1.7 -3 1.7 -4.1 0 -1.1 1.2 -3.7 2.8 -5.7 1.6 -2 2.8 -4.9 2.8 -6.4 0 -1.6 0.7 -3.4 1.4 -4.1 0.9 -0.7 2.2 -3.2 3 -5.7 0.8 -2.4 2.1 -5 3 -5.7 0.8 -0.7 1.4 -2.3 1.4 -3.7 0 -3.5 3.7 -13.1 6 -15.6 1.7 -1.9 1.9 -3.4 1.4 -9.4 -0.7 -8.1 -1.7 -11.4 -3.1 -10.4 -0.6 0.3 -1 -0.4 -1 -1.7 0 -1.2 -0.4 -2.4 -1 -2.8 -0.4 -0.3 -1.2 -3.5 -1.7 -7.2 -0.4 -3.7 -1.3 -6.8 -2.1 -7.1 -0.8 -0.3 -2.1 -2.5 -3 -5.1 -0.8 -2.4 -1.8 -4.2 -2.3 -4 -0.4 0.3 -1.1 -1.9 -1.6 -5 -0.4 -3 -1.2 -5.5 -1.8 -5.5 -0.6 0 -1 -0.9 -1 -2.1 0 -1.1 -0.7 -2.7 -1.4 -3.3 -0.9 -0.7 -2.4 -4.2 -3.7 -7.9 -1.1 -3.7 -2.4 -6.6 -2.9 -6.6 -0.6 0 -0.9 -1.2 -0.9 -2.7 0 -1.6 -1.2 -4.1 -2.8 -5.8 -2.1 -2.2 -2.8 -4.2 -2.8 -7.8 0 -3 -0.6 -5.1 -1.7 -5.7 -0.9 -0.6 -1.7 -2.5 -1.9 -4.5 -0.1 -2.1 -0.7 -4 -1.1 -4.2 -0.4 -0.3 -0.9 -1.8 -0.9 -3.3 0 -2.7 0 -2.7 18.8 -2.7 17.3 0 19.1 0.2 21.1 2.2 1.2 1.2 2.4 3.5 2.8 5.2 0.4 1.8 1.1 4 1.8 5 0.6 1.1 1 2.9 1 4.1 0 1.2 0.6 2.3 1.2 2.5 0.7 0.2 1.6 3.1 1.9 6.3 0.3 3.4 1.1 6.1 2 6.4 0.9 0.3 1.6 1.4 1.6 2.5 0 1.2 0.6 2.4 1.1 2.8 0.7 0.3 1.1 2.1 1.1 3.9 0 1.8 0.8 3.3 1.8 3.8 1 0.3 1.6 1.3 1.2 2.1 -0.6 1.9 3.2 12.3 4.7 12.7 0.7 0.2 1.2 1.6 1.2 2.9 0 3.5 2.1 5.3 4 3.4 0.9 -0.8 1.6 -2.1 1.6 -2.8 0 -0.7 1.2 -2.4 2.7 -3.9 2 -1.9 2.9 -4.4 3.4 -9.3 0.4 -3.8 1.1 -6.5 1.6 -6.2 0.4 0.2 1.4 -2.1 2.2 -5.1 0.8 -3.1 2.1 -5.9 2.9 -6.1 0.9 -0.3 1.8 -3.4 2.2 -7.2 0.4 -3.5 1.2 -6.9 1.8 -7.2 0.6 -0.3 1 -1.6 1 -2.8 0 -1.1 0.6 -2.1 1.1 -2.1 0.7 0 1.1 -0.7 1.1 -1.6 0 -0.9 1 -3.8 2.1 -6.5 2.1 -5 2.1 -5 23.8 -5.1 21.7 -0.2 21.7 -0.2 21.7 3.2 0 1.8 -0.4 4.2 -1 5.3 -0.6 1 -1.7 4.2 -2.3 7.1 -0.8 2.9 -1.8 5.1 -2.2 4.8 -0.4 -0.3 -1.1 0.9 -1.4 2.5 -1.3 7.1 -3.4 13.1 -4.8 14.2 -0.9 0.7 -1.6 2.3 -1.6 3.5 0 1.2 -0.4 2.7 -1.1 3 -0.6 0.3 -1.1 1.4 -1.1 2.3 0 1 -0.8 2.4 -1.7 3.3 -0.9 1 -1.7 2.8 -1.7 4 0 1.3 -1.2 4 -2.8 6 -1.6 2 -2.8 4.3 -2.8 5.1 0 0.9 -0.7 2.4 -1.4 3.7 -0.8 1.2 -2.2 4.4 -3 7.2 -0.9 2.8 -2.5 5.9 -3.7 7 -1.1 1.1 -2.2 3.4 -2.7 5.3 -0.3 1.9 -1.3 3.7 -2.1 4 -0.9 0.3 -1.6 1.4 -1.6 2.5 0 1.2 -0.4 2.4 -1.1 2.8 -0.6 0.3 -1.1 1.7 -1.1 2.9 0 1.1 -0.7 2.1 -1.6 2.1 -0.9 0 -1.7 1.8 -2.1 4.5 -0.3 2.5 -2.1 6.8 -4 9.3 -1.9 2.7 -3.4 5.5 -3.4 6.5 0 1 -1 2.8 -2.2 4 -1.2 1.2 -2.2 3.2 -2.2 4.5 0 1.2 -0.9 3.7 -2.1 5.2 -1.1 1.7 -2.3 4.4 -2.8 6.2 -0.4 1.8 -2 4.8 -3.5 6.8 -1.4 1.9 -2.7 4.1 -2.7 4.8 0 0.8 -0.4 1.3 -1 1.3 -0.7 0 -1.4 2.2 -1.9 5 -0.3 2.8 -1.1 5 -1.7 5 -0.6 0 -1 0.8 -1 1.7 0 0.9 -0.7 1.7 -1.6 1.7 -0.8 0 -1.8 1.3 -2.1 3.1 -0.4 1.7 -1 4.7 -1.4 6.6 -0.4 2.1 -1.4 4 -2.2 4.3 -0.9 0.3 -1.6 1.4 -1.6 2.7 0 2.5 -2.3 7.9 -4.1 9.3 -0.8 0.7 -1.6 3.2 -1.9 5.9 -0.2 2.7 -1 5.3 -1.6 6.1 -0.6 0.8 -1.3 2.7 -1.8 4.4 -0.7 3 -0.7 3 -24.5 3 -14 0 -23.8 -0.4 -23.8 -1z"/>
 </g>
 <g fill="#5b3550">
  <path d="M456.2 610.9 c-0.4 -0.3 -0.8 -2.7 -0.8 -5 0 -4.2 0 -4.2 5 -4.2 6.2 0 12.3 -2.4 13.2 -5.2 0.3 -1.1 -3.1 -15.2 -7.6 -31.1 -4.5 -16.1 -8.3 -29.6 -8.3 -30.1 0 -0.7 2.4 -1.1 5.4 -1.1 5.3 0 5.3 0 10 17.5 7 26.2 9.2 33.5 10.1 33.5 1.1 0 3.4 -8.6 8.6 -32.1 4.2 -18.3 4.2 -18.3 9.5 -18.6 5.4 -0.3 5.4 -0.3 4.8 3.3 -1.8 9.9 -10.9 46.5 -13.1 52.4 -3.3 9.2 -11.5 17.4 -19.7 19.8 -6.1 1.8 -15.7 2.4 -17.1 1z"/>
  <path d="M657.4 591.7 c-10.3 -2.4 -12.6 -7.3 -13.9 -29.8 -1 -19.7 0.1 -34.5 3.1 -40.7 5.4 -11.1 28.7 -13.2 38.9 -3.5 5.3 5 6.2 10 5.7 34.3 -0.4 24.5 -1.6 29.3 -7.8 35 -5 4.5 -17.3 6.8 -26 4.7z m18.3 -11.7 c5.1 -3.5 5.8 -6.8 5.8 -27.6 0 -15.8 -0.3 -20.4 -1.8 -23.4 -3.7 -7.8 -14.2 -9.6 -20.8 -3.8 -5.2 4.7 -6.8 11.3 -6.6 29.9 0 16.2 1.3 22.2 5.2 24.9 3.2 2.2 15 2.2 18.3 -0.1z"/>
  <path d="M1058.4 591.6 c-9.4 -1.8 -16.8 -8.8 -16.8 -15.6 0 -2.9 0.3 -3.1 4.8 -3.1 4.3 0 5.1 0.4 7.5 4.2 3 4.7 8.1 6.5 14.5 5.3 6.1 -1.1 9.8 -4.5 9.8 -9 0 -4.9 -3.1 -6.5 -14.7 -8.2 -4.8 -0.7 -10 -1.9 -11.6 -2.8 -11.3 -5.9 -12 -20.8 -1.2 -26.4 5.3 -2.7 19.1 -3.8 26.4 -2 6.6 1.6 10.9 6.1 12 12.6 0.7 4 0.7 4 -4.9 4 -5.3 0 -5.7 -0.2 -6.2 -3.3 -0.9 -4 -4.4 -5.1 -15.4 -4.7 -7.4 0.3 -11 7.2 -6.2 12 2.5 2.5 5.8 3.4 20.5 5.5 8.3 1.2 13.6 9.8 11.4 18.4 -3 11.1 -14.3 16.1 -29.7 13z"/>
  <path d="M89 589.9 c-0.3 -0.9 -0.7 -18.9 -0.8 -40.1 -0.1 -38.4 -0.1 -38.4 3.2 -38.8 5 -0.7 6.1 1.9 6.1 14.3 0 5.9 0.3 13 0.7 15.8 0.8 5.1 0.8 5.1 12.7 5.1 l12.1 0 0 -17.7 c0 -17.7 0 -17.7 4.9 -17.7 4.9 0 4.9 0 5.5 8 0.3 4.4 0.9 16.6 1.2 26.9 0.3 10.4 0.9 24.9 1.2 32.5 0.8 13.5 0.8 13.5 -4.3 13.5 -2.8 0 -5.3 -0.4 -5.7 -1 -0.3 -0.4 -1 -8.5 -1.3 -17.8 l-0.8 -17 -11.5 0.8 c-6.4 0.3 -12.1 0.9 -12.6 1.3 -0.6 0.3 -1 8 -1 17.2 0 16.5 0 16.5 -4.4 16.5 -3.1 0 -4.8 -0.6 -5.2 -1.8z"/>
  <path d="M152.1 590 c-1.9 -0.8 -4 -2.4 -4.7 -3.5 -1.8 -3.3 -2.4 -19.5 -1.6 -36.3 0.9 -15.5 0.9 -15.5 5.1 -15.8 4.1 -0.3 4.1 -0.3 4.2 12.2 0.1 20.9 1.2 30.5 3.8 32.4 4.5 3.4 15.6 1 18.6 -4.2 0.8 -1.4 1.6 -9.4 1.9 -21.2 0.6 -18.8 0.6 -18.8 4.9 -18.8 4.3 0 4.3 0 4.4 28.3 0.1 28.3 0.1 28.3 -4.4 28.6 -4.2 0.3 -4.7 0.1 -5.3 -2.5 -0.6 -2.2 -1.1 -2.7 -2.1 -1.9 -1.8 1.6 -14.2 4.7 -18.1 4.7 -1.8 -0.1 -4.8 -0.8 -6.8 -1.7z"/>
  <path d="M200 571.5 c-0.4 -11.2 -0.6 -24 -0.3 -28.6 0.3 -8.3 0.3 -8.3 5.7 -8.6 5 -0.3 5.2 -0.2 5.2 2.5 0 2.8 0 2.8 4.7 0.4 6.5 -3.3 16.2 -3.5 20.4 -0.4 3 2.3 3 2.3 8 -0.2 8.3 -4.2 20.7 -2.9 24.4 2.8 1.7 2.5 1.9 5.9 1.8 27.4 -0.1 24.4 -0.1 24.4 -4.8 24.7 -4.5 0.3 -4.5 0.3 -4.5 -16.6 -0.1 -17.6 -1 -25.6 -3.2 -27.8 -1.9 -1.9 -11.9 -1.7 -13.9 0.3 -1.3 1.6 -2.8 20.2 -2.9 40.2 0 4.2 0 4.2 -4.7 3.9 -4.8 -0.3 -4.8 -0.3 -5.3 -21.2 -0.6 -19.3 -0.8 -21.1 -2.8 -22.6 -3.1 -2.3 -10.2 -1.2 -13.6 2.2 -3.5 3.7 -4.5 9.9 -3.9 24.2 0.9 16 0.3 17.6 -5.1 17.6 -4.3 0 -4.3 0 -5.1 -20.2z"/>
  <path d="M290.8 590.6 c-7.2 -2.9 -12 -14.6 -12.1 -29.4 0 -9 0.3 -10.5 3.3 -16.1 2.5 -4.7 4.5 -6.6 8.3 -8.5 6.2 -3.2 13.6 -3.3 19.4 -0.3 2.4 1.2 4.5 2.2 4.7 2.2 0.2 0 0.3 -1 0.3 -2.2 0 -1.8 0.8 -2.2 4.2 -2.2 2.2 0 4.8 0.4 5.5 0.9 1 0.8 1.3 7.2 1.1 28.6 -0.3 27.6 -0.3 27.6 -5.3 27.6 -4.3 0 -5 -0.3 -5.3 -2.5 -0.3 -2.4 -0.6 -2.4 -2.8 -1 -2.7 1.7 -12.6 4.1 -16.6 4 -1.3 0 -3.4 -0.4 -4.8 -1z m17.6 -10.5 c4.4 -0.9 6.3 -6.1 6.3 -17.5 0 -15.8 -1.7 -18 -14.2 -17.5 -2.4 0.1 -4.9 1.3 -7.6 3.9 -3.7 3.3 -4.1 4.3 -4.5 10.4 -0.9 13 2.4 19.8 10.4 21.2 2.3 0.4 4.9 0.7 5.4 0.6 0.7 -0.1 2.5 -0.6 4.2 -1z"/>
  <path d="M336.3 590.4 c-0.3 -0.8 -0.4 -13.7 -0.3 -28.6 0.3 -27.1 0.3 -27.1 5.7 -27.5 5 -0.3 5.2 -0.2 5.2 2.7 0 3.2 -0.4 3.2 10 -0.6 3.3 -1.2 7.5 -2.2 9.2 -2.3 5 0 10.6 2.9 12.1 6.3 1.2 3.1 1.6 48.3 0.2 50.3 -0.3 0.6 -2.5 1 -5 1 -4.3 0 -4.3 0 -4.3 -18.1 0 -18 -0.9 -24.7 -3.5 -26.5 -2.2 -1.3 -8.3 -1 -12.3 0.6 -6.5 2.8 -6.8 3.7 -6.9 24.5 0 18.9 0 18.9 -4.8 19.3 -3.1 0.2 -4.9 -0.1 -5.2 -1.1z"/>
  <path d="M392.3 590.9 c0 -0.6 -0.2 -10.6 -0.4 -22.5 -0.3 -11.9 -0.2 -24.5 0.1 -28 0.7 -6.4 0.7 -6.4 5.8 -6.1 5.1 0.3 5.1 0.3 5.1 6.2 -0.4 54.1 -0.1 51.2 -5.5 51.2 -2.8 0 -5 -0.3 -5 -0.8z"/>
  <path d="M435.6 590.6 c-2 -0.4 -5 -2.2 -6.5 -3.8 -3.3 -3.3 -4.5 -10.7 -4.5 -29.1 -0.1 -11.4 -0.1 -11.4 -6.3 -11.4 -6.1 0 -6.1 0 -5.8 -4.1 0.3 -4.2 0.3 -4.2 6.1 -4.5 5.8 -0.3 5.8 -0.3 6.1 -12.2 0.3 -11.9 0.3 -11.9 5.1 -12.2 4.7 -0.3 4.7 -0.3 4.7 11.9 0 12.3 0 12.3 9.4 12.3 9.4 0 9.4 0 9.4 4.4 0 4.3 0 4.3 -9.1 4.7 l-9.2 0.3 0.1 14.8 c0.1 14.1 0.3 15.1 2.7 17 1.7 1.3 4.3 2 8.4 2 5.3 0 6.2 0.3 7.2 2.7 0.8 1.6 1 4 0.6 5.5 -0.7 2.8 -1.1 2.9 -7.6 2.8 -3.8 -0.1 -8.5 -0.6 -10.6 -1z"/>
  <path d="M542.9 563 c0 -28.9 0 -28.9 5.5 -28.9 5.4 0 5.4 0 5 28.6 -0.3 28.5 -0.3 28.5 -5.4 28.8 -5.1 0.3 -5.1 0.3 -5.1 -28.5z"/>
  <path d="M566.2 562.9 c0 -28.8 0 -28.8 5.5 -28.8 5.2 0 5.5 0.2 5.5 2.8 0 3.3 -0.3 3.3 6.3 0.4 6.3 -2.8 16.4 -3.3 20.7 -1.1 4.5 2.4 5.2 7.1 4.9 32.2 -0.3 22.7 -0.3 22.7 -4.9 23 -4.7 0.3 -4.7 0.3 -5 -19.5 -0.6 -23.3 -1.3 -25.7 -8.6 -25.7 -6.4 0 -11.1 2.1 -13 5.8 -1.3 2.7 -1.7 6.6 -1.3 20.1 0.2 9.3 -0.1 17.5 -0.6 18.3 -0.6 0.7 -2.9 1.3 -5.3 1.3 -4.3 0 -4.3 0 -4.3 -28.8z"/>
  <path d="M709.6 591 c-1.3 -0.3 -3.5 -1.8 -4.9 -3.2 -3.2 -3.4 -3.9 -12.4 -2.8 -36.6 0.8 -17.3 0.8 -17.3 4.9 -17 4 0.3 4 0.3 4.7 20.4 0.4 11.5 1.3 21.1 2 22.4 2.3 4.3 12.4 4.7 17.1 0.6 4.7 -4.2 5.4 -8.4 4.7 -24.9 -0.9 -17.2 -0.4 -18.6 5.7 -18.6 3.8 0 3.8 0 3.8 28.8 0 28.8 0 28.8 -5 28.8 -4.5 0 -5 -0.2 -5 -2.7 0 -2.7 0 -2.7 -5.5 -0.6 -5.7 2.1 -15.4 3.4 -19.5 2.5z"/>
  <path d="M755.3 584.8 c-0.3 -3.9 -0.4 -16.7 -0.3 -28.6 0.2 -21.6 0.2 -21.6 4.7 -21.9 3 -0.2 4.8 0.1 5.7 1.3 1.1 1.7 1.9 1.7 8.1 0 3.8 -0.9 8.2 -1.6 9.9 -1.3 2.8 0.3 3 0.7 3.3 6.5 0.3 6.3 0.3 6.3 -6.9 5.8 -8 -0.7 -13.9 1 -14.2 4 -0.1 1 -0.2 10.5 -0.2 21.2 -0.1 19.4 -0.1 19.4 -4.8 19.7 -4.5 0.3 -4.5 0.3 -5.2 -6.6z"/>
  <path d="M821.7 580.4 c-0.4 -6.3 -0.8 -24.4 -1 -40.2 -0.2 -31.7 -0.9 -29.4 7.4 -28.4 1.2 0.1 1.8 3.7 2.3 16.1 0.4 8.8 1.2 16.5 1.6 17.2 0.6 0.9 4.5 1.2 12.4 1 l11.5 -0.3 0.3 -17.4 c0.3 -17.5 0.3 -17.5 5.1 -17.5 5.3 0 4.7 -5.4 6.9 59.6 0.8 21.3 0.8 21.3 -4.2 21.3 -6.2 0 -6.4 -0.4 -6.4 -16.7 0 -6.5 -0.3 -13.4 -0.7 -15.3 -0.7 -3.2 -1 -3.4 -6 -3.4 -2.9 0 -8.3 0.3 -12.1 0.7 -6.8 0.8 -6.8 0.8 -6.8 17.7 0 17.1 0 17.1 -4.9 17.1 -4.9 0 -4.9 0 -5.5 -11.3z"/>
  <path d="M888.6 590 c-8.5 -4.7 -13.9 -26.7 -9.6 -40.6 1.7 -5.9 7.9 -12.7 12.7 -14.4 4.9 -1.6 15.1 -0.7 18.6 1.7 2.4 1.7 2.7 1.6 3.3 -0.4 0.8 -2.3 4.1 -2.9 9.2 -1.6 2.4 0.7 2.4 0.7 2.4 27 0 14.5 -0.3 27.1 -0.7 28.1 -0.4 1.2 -2.1 1.8 -5.5 1.8 -4.7 0 -4.9 -0.1 -4.9 -3.3 0 -3.4 0 -3.4 -3 -1.2 -5.8 4.2 -17.5 5.7 -22.6 2.9z m21.8 -12.2 c4.4 -4.8 4.7 -27.1 0.3 -31.1 -4.4 -4 -17.7 -1.3 -21.4 4.3 -4.2 6.4 -3 21.5 2.1 26.3 5.1 4.8 14.8 5.1 18.9 0.6z"/>
  <path d="M935.2 562.9 c0 -28.8 0 -28.8 5.5 -28.8 5.2 0 5.5 0.2 5.5 2.8 0 3.3 -0.2 3.3 5.8 0.7 7 -3 13.3 -3.8 18.6 -2.3 7.3 2 7.9 4.4 7.5 32.5 -0.3 23.5 -0.3 23.5 -5 23.8 -4.5 0.3 -4.5 0.3 -5 -19.4 -0.4 -23.5 -1.2 -25.8 -8.8 -25.8 -2.4 0 -6.1 0.7 -8.1 1.6 -5.3 2.2 -6.5 6.8 -6.1 23.3 0.4 21.8 0.8 20.6 -5.1 20.6 -5 0 -5 0 -5 -28.8z"/>
  <path d="M1001.1 590.9 c-4.4 -1.2 -8.1 -4.9 -10.5 -10.5 -2.2 -5 -2.7 -7.9 -2.7 -19.2 -0.1 -15.4 1.6 -20.5 8.2 -24.4 5.8 -3.3 18.5 -3.1 23.2 0.3 3.3 2.4 3.3 2.4 3.7 -11.6 0.3 -14.2 0.3 -14.2 4.9 -14.5 4.5 -0.3 4.5 -0.3 5.2 24.8 0.4 13.9 0.8 32.1 0.8 40.6 0 15.4 0 15.4 -5.2 15.1 -4.5 -0.3 -5.3 -0.7 -5.7 -2.8 -0.3 -2.5 -0.3 -2.5 -3.7 -0.1 -3.2 2.4 -13.2 3.8 -18.2 2.3z m17.1 -10.6 c3.1 -2.5 4.5 -8.4 4.5 -18.2 0 -12.2 -2 -17 -7.6 -18.4 -5.4 -1.3 -11.1 0 -14.5 3.5 -2.3 2.3 -3.2 4.4 -3.8 9.6 -1.4 12.2 2.3 23.3 8.3 25 3.4 1 11 0.1 13.1 -1.7z"/>
  <path d="M392.3 518.6 c0 -3.7 -0.1 -7 -0.2 -7.4 -0.2 -0.6 2 -1 5 -1.2 5.2 -0.3 5.2 -0.3 5.2 7.4 0 7.9 0 7.9 -5 7.9 -5 0 -5 0 -5 -6.6z"/>
  <path d="M542.9 517.6 c0 -7.9 0 -7.9 5.5 -7.9 5.7 0 5.7 0 5.3 7.5 -0.3 7.4 -0.3 7.4 -5.5 7.8 -5.3 0.3 -5.3 0.3 -5.3 -7.4z"/>
 </g>
</svg>