<?xml version="1.0" encoding="utf-8"?>
<!DOCTYPE svg PUBLIC "-//W3C//DTD SVG 20010904//EN" "http://www.w3.org/TR/2001/REC-SVG-20010904/DTD/svg10.dtd">
<svg version="1.0" xmlns="http://www.w3.org/2000/svg" width="239px" height="122px" viewBox="0 0 239 122" preserveAspectRatio="xMidYMid meet">
 <g fill="#ffffff">
  <path d="M0 61 l0 -61 119.5 0 119.5 0 0 61 0 61 -119.5 0 -119.5 0 0 -61z m30 28.5 l0 -19.5 7.5 0 7.5 0 0 19.5 0 19.5 7 0 7 0 0 -47 0 -47 -7 0 -7 0 0 20 0 20 -7.5 0 -7.5 0 0 -20 0 -20 -7.5 0 -7.5 0 0 47 0 47 7.5 0 7.5 0 0 -19.5z m82 -27.5 l0 -47 -21 0 -21 0 0 47 0 47 21 0 21 0 0 -47z m68.5 20.3 l2.9 -26.3 3.6 0 3.5 0 9 26.5 8.9 26.5 6.9 0 6.9 0 -0.6 -2.2 c-0.3 -1.3 -7.4 -22.3 -15.8 -46.8 l-15.3 -44.5 -8.2 -0.3 -8.2 -0.3 -0.6 4.3 c-0.8 6 -9.5 82.4 -9.5 83.7 l0 1.1 -13 0 -13 0 0 -44.5 0 -44.5 -7.5 0 -7.5 0 0 47 0 47 27.2 -0.2 27.3 -0.3 3 -26.2z"/>
  <path d="M85 63 l0 -41 6 0 6 0 0 41 0 41 -6 0 -6 0 0 -41z"/>
 </g>
 <g fill="#002060">
  <path d="M12 62 l0 -50 10.5 0 10.5 0 0 20 0 20 4.5 0 4.5 0 0 -20 0 -20 10 0 10 0 0 50 0 50 -10 0 -10 0 0 -19.5 0 -19.5 -4.5 0 -4.5 0 0 19.5 0 19.5 -10.5 0 -10.5 0 0 -50z"/>
  <path d="M67 62 l0 -50 24 0 24 0 0 50 0 50 -24 0 -24 0 0 -50z m27 1 l0 -38 -3 0 -3 0 0 38 0 38 3 0 3 0 0 -38z"/>
  <path d="M120 62 l0 -50 10.5 0 10.5 0 0 44.5 0 44.5 10 0 10 0 0 -1.1 c0 -1.3 8.7 -77.6 9.5 -83.6 l0.6 -4.3 11 0 10.9 0 0.9 2.3 0.8 2.2 -2.5 22.8 -2.6 22.7 -0.8 0 -0.8 0 0 -1.5 0 -1.5 -0.8 0 -0.8 0 -2.9 26.3 -3 26.2 -30.3 0.3 -30.2 0.2 0 -50z"/>
 </g>
 <g fill="#bf0149">
  <path d="M196.1 84.5 l-9.4 -27.5 2.2 -19.3 c1.2 -10.5 2.4 -20.7 2.8 -22.5 l0.6 -3.3 0.7 0.8 c0.5 0.4 8.3 22.6 17.4 49.2 l16.6 48.3 -0.6 0.9 -0.5 0.9 -10.2 0 -10.3 0 -9.3 -27.5z"/>
 </g>
</svg>