<!DOCTYPE svg PUBLIC "-//W3C//DTD SVG 20010904//EN" "http://www.w3.org/TR/2001/REC-SVG-20010904/DTD/svg10.dtd">
<svg version="1.0" xmlns="http://www.w3.org/2000/svg" width="1128px" height="1125px" viewBox="0 0 11280 11250" preserveAspectRatio="xMidYMid meet">
<g id="layer101" fill="#333131" stroke="none">
 <path d="M0 5625 l0 -5625 5640 0 5640 0 0 5625 0 5625 -5640 0 -5640 0 0 -5625z"/>
 </g>
<g id="layer102" fill="#47a02b" stroke="none">
 <path d="M2 9228 c1 -1113 4 -1953 5 -1868 13 734 65 1546 118 1826 2 16 12 70 20 119 59 359 180 728 312 949 133 223 331 420 559 557 86 52 322 159 429 194 208 69 542 137 865 175 91 11 170 22 177 25 7 2 88 7 180 10 92 3 202 10 243 16 41 5 95 11 120 13 25 1 -647 3 -1492 4 l-1538 2 2 -2022z"/>
 <path d="M8305 11240 c50 -4 167 -13 260 -19 178 -13 485 -45 570 -61 28 -5 73 -12 100 -15 82 -10 240 -43 405 -85 626 -156 1013 -441 1250 -918 118 -238 157 -362 257 -817 14 -66 28 -154 30 -195 3 -41 9 -79 14 -84 5 -6 9 -39 9 -75 0 -46 3 -62 10 -51 7 10 10 -28 10 -115 0 -72 4 -135 9 -140 5 -6 16 -192 26 -415 9 -223 18 -409 20 -415 2 -5 4 761 4 1703 l1 1712 -1532 -2 c-843 0 -1492 -4 -1443 -8z"/>
 <path d="M6407 10659 c-38 -29 -54 -64 -67 -145 -6 -38 -18 -89 -27 -113 -12 -30 -14 -48 -7 -59 7 -10 7 -38 2 -76 -9 -63 -4 -138 13 -193 19 -59 79 -82 114 -43 26 29 32 79 62 536 4 67 2 84 -12 97 -22 22 -44 21 -78 -4z"/>
 <path d="M6940 10668 c-63 -18 -90 -45 -90 -88 0 -57 29 -73 138 -77 115 -4 131 -18 76 -69 -21 -20 -64 -53 -94 -74 -30 -21 -70 -54 -89 -73 -31 -33 -33 -39 -27 -78 9 -56 35 -90 93 -122 52 -28 178 -53 217 -43 13 3 35 15 49 27 35 27 38 98 6 130 -19 19 -29 21 -85 16 -35 -4 -64 -4 -64 -1 0 3 34 38 76 76 41 39 84 88 95 109 25 51 24 114 -3 169 -19 36 -34 50 -78 71 -62 30 -166 43 -220 27z"/>
 <path d="M5791 10647 c-14 -6 -36 -32 -50 -57 -25 -43 -26 -51 -26 -212 -1 -92 -4 -170 -8 -174 -22 -22 11 -157 47 -193 24 -23 28 -24 59 -13 18 7 41 12 50 12 18 0 31 36 29 79 -1 14 -3 139 -4 277 -3 231 -5 254 -22 273 -22 24 -41 26 -75 8z"/>
 <path d="M5185 10630 c-114 -13 -199 -45 -249 -93 -53 -50 -71 -103 -70 -202 0 -84 24 -141 90 -214 54 -60 111 -81 221 -81 70 0 84 3 124 28 68 45 82 65 87 131 4 56 3 59 -40 112 -60 75 -115 101 -218 103 -65 1 -80 4 -78 16 5 25 95 49 186 50 95 0 135 15 150 58 7 21 6 35 -4 55 -26 48 -51 53 -199 37z m14 -381 c51 -18 31 -34 -45 -37 -80 -3 -110 10 -80 33 23 18 80 19 125 4z"/>
 <path d="M4267 10610 c-74 -12 -116 -32 -176 -86 -69 -62 -80 -92 -70 -181 14 -130 74 -217 172 -249 95 -32 267 0 297 55 15 29 12 77 -5 91 -11 9 -30 10 -68 4 -28 -4 -79 -8 -112 -8 -50 -1 -66 3 -92 24 -51 40 -65 114 -30 158 23 29 84 44 197 48 147 7 154 8 169 40 10 24 9 30 -11 51 -13 14 -35 31 -50 39 -35 18 -148 25 -221 14z"/>
 <path d="M3128 10547 c-58 -17 -110 -56 -146 -110 -24 -36 -27 -50 -27 -122 0 -80 1 -83 45 -153 25 -39 88 -122 141 -184 109 -128 183 -231 300 -418 152 -243 187 -266 424 -281 77 -4 241 -8 365 -8 210 -1 668 -17 1135 -41 643 -33 1566 -36 2054 -6 159 10 286 37 319 69 39 36 79 102 103 169 12 35 26 68 30 73 8 12 91 202 154 355 24 58 71 168 105 245 68 155 74 187 53 259 -19 64 -94 140 -154 156 -70 19 -159 9 -208 -23 -96 -63 -203 -253 -321 -570 -35 -92 -68 -174 -74 -183 -41 -56 -682 -79 -1486 -54 -330 10 -1009 46 -1048 55 -20 5 -573 14 -854 15 -120 0 -124 3 -238 172 -171 254 -404 528 -482 569 -49 25 -132 32 -190 16z"/>
 <path d="M8542 10431 c-102 -48 -155 -131 -295 -466 -42 -99 -103 -241 -137 -315 -113 -249 -150 -352 -150 -420 0 -70 13 -102 74 -185 99 -134 197 -303 339 -584 82 -163 153 -301 158 -307 5 -6 29 -51 55 -100 26 -49 55 -101 65 -116 11 -14 54 -95 96 -180 42 -84 104 -200 139 -258 71 -118 277 -555 304 -645 25 -80 124 -314 207 -485 112 -234 147 -269 310 -311 171 -43 581 -101 728 -102 95 -1 116 2 151 20 78 41 144 147 144 229 0 96 -95 220 -185 243 -27 7 -160 26 -295 42 -135 16 -269 33 -299 39 -50 9 -91 32 -91 52 0 4 -23 38 -51 76 -55 73 -231 410 -293 562 -52 129 -220 471 -324 660 -47 85 -106 200 -132 255 -25 55 -71 143 -102 195 -30 52 -79 147 -108 210 -29 63 -66 144 -82 180 -41 88 -104 239 -135 325 -15 39 -46 101 -70 138 -23 37 -43 77 -43 87 0 31 42 143 100 265 29 61 71 157 95 215 23 58 68 166 100 240 82 189 85 262 15 359 -64 87 -196 125 -288 82z"/>
 <path d="M2620 10171 c-74 -23 -127 -69 -159 -141 -25 -56 -28 -148 -5 -193 17 -33 141 -238 251 -415 69 -111 103 -181 103 -215 0 -23 -195 -511 -270 -677 -26 -58 -57 -125 -68 -150 -96 -214 -188 -514 -318 -1045 -41 -170 -84 -337 -94 -370 -82 -261 -154 -481 -160 -488 -4 -5 -109 37 -233 92 -296 131 -403 170 -511 189 -71 12 -99 12 -139 3 -67 -15 -129 -67 -162 -136 -23 -47 -27 -64 -23 -117 9 -125 67 -191 216 -243 121 -43 333 -131 536 -224 200 -92 389 -151 479 -151 59 0 146 39 199 88 55 51 69 85 122 283 19 74 52 182 71 240 61 180 121 393 210 749 144 578 181 691 345 1070 157 362 302 729 320 811 28 130 0 233 -125 461 -129 236 -265 436 -350 517 -40 38 -63 51 -104 60 -58 12 -94 13 -131 2z"/>
 <path d="M8785 9428 c-46 -26 -47 -71 -1 -147 90 -150 529 -1075 698 -1471 66 -155 287 -585 382 -744 43 -71 103 -180 134 -243 31 -63 65 -123 75 -133 22 -24 64 -26 96 -4 21 15 23 22 18 69 -7 65 -85 232 -187 400 -137 224 -339 637 -550 1120 -53 121 -63 143 -185 405 -89 192 -306 622 -345 683 -19 31 -43 53 -65 63 -41 17 -44 17 -70 2z"/>
 <path d="M2458 9253 c-29 -31 -142 -253 -189 -371 -17 -42 -55 -131 -84 -197 -159 -360 -406 -1129 -499 -1555 -8 -36 -29 -117 -46 -180 -35 -129 -50 -208 -43 -228 9 -21 63 -44 89 -38 50 13 103 167 189 546 20 93 77 295 105 375 11 33 32 105 46 160 55 217 233 714 309 866 13 25 46 99 73 165 28 65 78 179 112 252 68 148 75 185 40 214 -32 26 -72 23 -102 -9z"/>
 <path d="M5100 9010 c-204 -18 -324 -90 -400 -239 -34 -67 -121 -276 -138 -331 -6 -19 -41 -134 -78 -255 -37 -120 -80 -251 -96 -290 -48 -113 -102 -267 -229 -645 -358 -1062 -378 -1131 -398 -1319 -12 -110 0 -191 49 -328 18 -48 58 -162 90 -253 90 -253 115 -318 155 -405 40 -86 75 -181 160 -425 49 -144 159 -443 184 -500 6 -14 47 -124 92 -245 44 -121 99 -263 121 -315 62 -145 82 -196 173 -440 116 -315 231 -565 306 -666 32 -44 45 -53 86 -63 72 -16 324 -32 548 -34 191 -2 202 -1 236 20 52 33 73 78 67 142 -6 64 -44 107 -104 122 -21 5 -156 13 -300 18 -307 11 -316 13 -361 93 -43 76 -104 222 -184 440 -75 204 -132 349 -174 443 -46 101 -292 755 -380 1010 -92 267 -141 398 -217 578 -28 67 -72 185 -98 262 -26 77 -57 160 -69 185 -11 25 -21 56 -21 69 l0 23 393 -3 c435 -4 430 -5 474 60 26 39 29 86 9 136 -16 37 -45 60 -97 76 -25 8 -651 39 -811 40 -13 0 -18 8 -18 26 0 38 63 245 168 553 51 151 141 417 199 590 57 173 144 423 193 555 48 132 111 314 140 405 102 326 180 521 232 584 l24 29 325 7 c183 4 335 12 349 18 113 46 109 220 -6 261 -45 16 -454 24 -594 11z"/>
 <path d="M4315 8959 c-83 -8 -339 -27 -479 -35 -174 -10 -222 -32 -298 -137 -94 -129 -128 -205 -268 -597 -112 -315 -134 -382 -154 -465 -45 -191 -134 -523 -181 -675 -86 -278 -246 -886 -301 -1138 -31 -143 -32 -212 -4 -328 23 -101 162 -514 234 -699 60 -153 189 -502 231 -626 18 -53 76 -201 130 -329 54 -129 114 -286 135 -350 56 -171 143 -413 183 -510 19 -47 62 -152 96 -233 107 -263 246 -431 396 -480 96 -32 369 -76 582 -93 73 -6 85 -5 117 16 47 29 68 70 68 134 -1 45 -5 55 -35 82 -51 47 -167 76 -421 104 -54 5 -128 18 -165 27 -58 14 -73 23 -124 75 -35 35 -69 81 -84 116 -76 171 -244 602 -308 791 -40 119 -107 300 -149 403 -42 103 -123 314 -180 470 -57 156 -156 420 -219 588 -121 322 -178 494 -198 598 -18 96 -15 111 189 903 34 129 66 247 71 262 20 51 99 331 175 612 138 520 329 1050 410 1140 28 31 38 35 111 45 44 6 172 15 285 20 262 13 319 23 359 62 35 35 57 94 47 132 -8 32 -60 93 -97 112 -30 15 -33 15 -154 3z"/>
 <path d="M6650 8899 c-52 -5 -143 -13 -201 -18 -88 -7 -116 -14 -159 -37 -66 -36 -92 -74 -129 -193 -153 -490 -265 -875 -331 -1144 -135 -552 -295 -1088 -422 -1417 -102 -262 -109 -287 -115 -391 -6 -113 -2 -138 98 -509 75 -281 139 -477 229 -699 76 -189 145 -377 230 -626 71 -211 97 -276 162 -415 95 -201 159 -375 239 -650 97 -330 170 -486 242 -515 66 -26 137 7 177 84 17 34 6 105 -36 219 -38 102 -39 107 -111 352 -46 157 -168 482 -218 580 -41 80 -129 310 -205 535 -37 110 -109 308 -160 440 -206 538 -374 1117 -354 1222 4 20 25 80 46 133 71 174 176 478 306 890 68 214 120 414 177 673 55 251 80 343 180 662 52 165 106 339 120 386 14 47 34 94 45 104 19 17 70 25 240 39 169 14 207 26 254 74 55 59 45 148 -24 206 -29 23 -39 26 -108 24 -42 0 -120 -5 -172 -9z"/>
 <path d="M7665 8839 c-208 -9 -314 -28 -363 -65 -93 -71 -169 -268 -271 -699 -46 -192 -104 -424 -128 -505 -14 -47 -31 -105 -38 -130 -7 -25 -35 -117 -63 -205 -27 -88 -71 -241 -97 -340 -133 -506 -217 -763 -318 -975 -40 -82 -41 -89 -45 -205 -2 -66 1 -146 8 -180 6 -33 58 -211 115 -395 57 -184 123 -407 145 -495 69 -267 110 -412 165 -585 148 -459 194 -613 265 -890 104 -407 248 -789 322 -857 59 -53 138 -50 193 7 23 24 30 41 33 87 3 53 -4 79 -78 283 -100 274 -151 434 -190 605 -42 179 -96 362 -202 685 -95 290 -133 418 -167 565 -12 50 -29 119 -38 155 -13 55 -152 513 -240 795 -13 44 -27 116 -30 160 -6 83 -2 95 61 240 64 144 146 383 206 600 12 44 31 109 41 145 22 78 78 289 91 345 10 46 60 209 123 405 40 124 64 218 126 480 102 436 162 632 200 656 8 5 111 11 229 15 171 5 223 9 251 23 42 20 89 88 89 130 0 40 -43 110 -84 135 -37 23 -23 23 -311 10z"/>
 <path d="M7764 8315 c-17 -9 -43 -28 -57 -43 -34 -37 -117 -263 -238 -655 -55 -177 -131 -416 -169 -532 -38 -115 -81 -253 -95 -305 -57 -203 -112 -366 -211 -632 -117 -312 -168 -487 -152 -527 13 -36 46 -70 92 -93 60 -31 116 -9 161 62 38 61 264 680 350 960 31 102 96 311 145 465 49 154 123 397 165 540 42 143 80 264 85 269 12 12 128 -165 258 -394 61 -107 127 -220 146 -251 20 -30 36 -63 36 -72 0 -9 -18 -54 -39 -101 -22 -47 -68 -160 -101 -253 -34 -92 -91 -240 -127 -328 -36 -88 -123 -313 -193 -500 -71 -187 -159 -410 -196 -495 -36 -85 -99 -243 -139 -350 -40 -107 -114 -293 -165 -414 -111 -263 -116 -289 -85 -435 56 -261 305 -1141 404 -1426 32 -93 67 -165 85 -178 6 -4 28 -12 49 -17 78 -22 149 21 181 110 9 25 39 140 67 255 108 452 131 534 191 705 28 80 101 294 163 475 61 182 176 501 254 710 174 464 169 453 279 706 157 361 175 441 112 512 -38 44 -80 61 -125 53 -64 -12 -91 -48 -159 -216 -35 -85 -92 -218 -126 -295 -81 -184 -126 -296 -198 -495 -33 -91 -92 -248 -131 -349 -39 -100 -96 -260 -127 -355 -31 -94 -112 -331 -179 -526 -68 -195 -133 -401 -146 -457 -12 -56 -26 -100 -30 -97 -14 8 -178 552 -260 859 -29 107 -25 177 12 255 61 128 130 296 204 494 41 110 116 302 168 426 52 124 127 316 167 425 39 110 93 252 120 315 92 221 149 366 194 491 24 70 74 195 111 279 99 225 99 258 -4 420 -26 41 -80 137 -119 212 -40 75 -108 193 -152 262 -43 69 -117 203 -164 298 -104 214 -127 241 -219 245 -43 3 -72 -1 -93 -12z"/>
 <path d="M976 6085 c-52 -18 -104 -62 -142 -117 -96 -142 -15 -314 192 -409 50 -23 334 -134 474 -185 19 -7 100 -37 180 -68 l144 -54 58 -117 c32 -64 83 -175 112 -248 30 -73 75 -184 101 -247 75 -182 257 -676 377 -1025 60 -176 125 -363 143 -415 18 -52 89 -228 158 -390 220 -520 219 -517 212 -564 -18 -110 -62 -246 -169 -521 -120 -307 -157 -451 -159 -625 -1 -123 4 -135 81 -207 64 -60 90 -68 194 -61 124 9 187 78 223 241 46 211 75 306 158 517 66 169 131 361 163 480 23 85 29 126 29 215 0 66 -6 126 -14 150 -7 22 -78 189 -158 370 -191 434 -186 421 -333 860 -191 568 -235 686 -507 1365 -160 397 -218 514 -290 588 -63 63 -82 72 -448 209 -365 136 -428 160 -500 196 -72 36 -191 77 -219 77 -12 -1 -38 -7 -60 -15z"/>
 <path d="M9585 5819 c-22 -12 -48 -29 -59 -38 -17 -15 -129 -166 -184 -247 -45 -67 -121 -256 -217 -534 -77 -223 -150 -412 -222 -570 -122 -270 -136 -306 -273 -755 -72 -236 -176 -563 -232 -725 -55 -162 -112 -344 -125 -405 -14 -60 -35 -141 -46 -180 -15 -48 -22 -95 -21 -150 0 -93 19 -137 94 -225 114 -133 238 -333 395 -636 173 -333 207 -385 276 -424 90 -50 259 -5 321 85 43 63 48 107 22 200 -51 186 -249 575 -447 875 -84 127 -107 178 -107 236 0 54 57 254 174 609 99 303 161 495 246 765 82 262 95 295 198 531 50 112 113 272 142 354 80 228 243 662 257 681 12 16 19 15 100 -9 247 -74 532 -137 622 -137 71 0 89 8 149 64 67 62 91 140 72 232 -10 46 -21 67 -59 107 -64 68 -129 96 -411 172 -297 80 -562 145 -593 145 -18 0 -50 -9 -72 -21z"/>
 <path d="M1537 5162 c-28 -31 -22 -62 40 -207 67 -156 116 -279 199 -500 31 -82 72 -190 91 -240 19 -49 61 -164 93 -255 92 -261 187 -524 242 -670 44 -118 87 -228 270 -685 46 -117 184 -399 228 -468 26 -40 35 -47 63 -47 18 0 43 7 55 16 40 27 30 75 -48 230 -115 232 -298 677 -435 1059 -19 55 -39 109 -44 120 -5 11 -62 171 -126 355 -65 184 -145 400 -178 480 -32 80 -78 199 -102 265 -99 276 -180 464 -232 533 -20 26 -31 32 -62 32 -24 0 -44 -7 -54 -18z"/>
 <path d="M9918 4992 c-50 -56 -90 -117 -137 -210 -49 -97 -203 -471 -273 -662 -27 -74 -78 -207 -113 -295 -36 -88 -72 -191 -81 -230 -53 -228 -246 -873 -319 -1065 -31 -84 -50 -154 -58 -214 l-11 -88 27 -24 c34 -29 68 -31 91 -5 10 11 55 131 101 268 149 446 167 507 275 904 70 257 82 293 161 492 34 83 85 215 114 292 63 165 191 479 209 515 7 14 41 78 75 142 33 65 61 124 61 132 0 20 -58 86 -75 86 -7 0 -28 -17 -47 -38z"/>
 <path d="M2 2238 l-2 -2238 1717 0 c944 0 1714 2 1712 4 -2 2 -71 6 -154 10 -526 22 -605 28 -985 72 -211 24 -504 79 -675 125 -473 130 -799 323 -1022 607 -95 120 -133 180 -200 318 -71 146 -83 174 -122 294 -111 342 -183 777 -221 1335 -17 252 -32 726 -39 1230 -5 293 -8 -394 -9 -1757z"/>
 <path d="M11270 3440 c0 -88 -31 -697 -39 -765 -6 -44 -13 -120 -16 -170 -7 -108 -38 -344 -66 -510 -61 -366 -143 -636 -265 -880 -204 -408 -527 -680 -995 -838 -300 -101 -699 -180 -1079 -212 -41 -4 -86 -8 -100 -10 -52 -8 -325 -25 -585 -36 -148 -6 -272 -13 -274 -15 -2 -2 768 -4 1712 -4 l1717 0 0 1735 c0 954 -2 1735 -5 1735 -3 0 -5 -14 -5 -30z"/>
 <path d="M3900 2118 c-84 -47 -129 -102 -214 -261 -130 -245 -218 -486 -262 -722 -58 -315 -61 -349 -33 -414 28 -66 102 -134 165 -151 58 -17 147 -1 211 36 75 43 90 82 154 394 16 80 43 190 60 245 37 120 115 305 144 341 l21 27 260 -12 c452 -20 857 -30 1659 -41 1301 -18 1588 -26 1623 -44 45 -23 282 -379 376 -563 47 -93 116 -141 216 -150 76 -7 123 10 183 66 69 65 81 91 82 186 0 67 -5 90 -29 145 -87 193 -417 664 -544 776 -77 68 -57 66 -892 84 -245 6 -771 15 -1170 20 -399 6 -914 17 -1145 26 -717 26 -837 27 -865 12z"/>
 <path d="M4784 1373 c-12 -2 -40 -20 -63 -39 -36 -31 -41 -41 -41 -76 0 -36 6 -47 53 -92 29 -28 72 -66 95 -84 46 -37 67 -88 54 -137 -12 -42 -36 -42 -89 -1 -26 20 -56 36 -68 36 -32 0 -72 -35 -85 -76 -11 -32 -10 -38 11 -60 60 -64 169 -94 259 -72 56 14 78 32 102 85 44 98 31 225 -32 312 -18 24 -29 45 -27 48 3 2 28 -4 56 -14 47 -16 54 -16 79 -3 48 27 43 119 -8 145 -44 23 -233 41 -296 28z"/>
 <path d="M7120 1353 c-36 -32 -34 -19 -45 -341 -4 -108 -9 -205 -11 -214 -6 -20 51 -84 83 -93 14 -4 30 2 50 19 l28 24 3 296 c2 200 0 302 -8 316 -16 29 -63 26 -100 -7z"/>
 <path d="M6324 1311 c-31 -14 -64 -60 -64 -90 0 -28 30 -77 90 -151 71 -85 114 -188 51 -121 -49 52 -131 31 -146 -38 -8 -37 8 -63 78 -123 l53 -46 45 12 c62 15 94 39 123 88 35 63 40 98 20 168 -12 44 -27 71 -57 100 -22 22 -37 43 -34 46 3 4 28 1 56 -6 56 -13 101 -4 145 31 20 16 26 30 26 59 0 65 -24 74 -209 77 -86 2 -166 -1 -177 -6z"/>
 <path d="M5585 1303 c-71 -16 -88 -27 -121 -79 -51 -80 -61 -139 -38 -238 15 -67 25 -88 58 -124 53 -58 103 -82 167 -82 75 0 178 43 231 97 l43 44 0 102 c0 88 -3 108 -24 150 -14 26 -39 58 -56 72 -63 47 -185 75 -260 58z m130 -166 c46 -26 65 -57 65 -107 0 -55 -47 -100 -105 -100 -39 0 -95 58 -97 102 -5 122 42 159 137 105z"/>
 </g>
<g id="layer103" fill="#ffffff" stroke="none">
 <path d="M2 9333 c1 -1055 5 -1814 8 -1688 11 361 29 741 40 845 5 52 14 160 20 240 42 570 175 1128 346 1450 114 213 272 398 464 541 300 224 755 376 1345 450 44 5 132 17 195 25 63 8 189 18 280 20 91 3 174 10 185 15 11 5 47 10 80 12 33 2 -621 4 -1452 5 l-1513 2 2 -1917z"/>
 <path d="M8345 11240 c44 -4 157 -13 250 -19 94 -6 185 -14 204 -17 18 -3 106 -14 195 -25 296 -35 415 -57 662 -120 734 -187 1140 -552 1363 -1227 59 -179 144 -548 162 -702 20 -170 26 -215 29 -205 2 6 7 -48 11 -120 4 -71 15 -236 24 -365 8 -129 19 -300 24 -380 5 -87 9 526 9 1523 l2 1667 -1507 -2 c-830 0 -1472 -4 -1428 -8z"/>
 <path d="M3162 10390 c-33 -14 -48 -53 -33 -86 13 -29 385 -543 467 -644 83 -104 142 -160 190 -181 48 -22 189 -29 779 -44 399 -9 874 -24 950 -30 39 -3 97 -7 130 -10 156 -13 541 -35 735 -42 352 -13 1015 -9 1083 6 105 23 133 60 328 436 207 401 212 410 204 434 -8 28 -44 61 -65 61 -43 0 -111 -105 -259 -396 -149 -296 -188 -360 -226 -378 -86 -41 -950 -27 -1825 29 -211 14 -352 19 -1285 45 -466 13 -484 15 -542 72 -25 24 -115 140 -201 258 -192 264 -289 387 -349 440 -50 44 -48 43 -81 30z"/>
 <path d="M8506 10212 c-23 -26 -252 -644 -288 -777 -23 -86 -25 -228 -4 -306 22 -80 173 -398 275 -579 49 -85 137 -243 196 -350 59 -107 151 -269 205 -360 54 -91 112 -194 130 -229 40 -79 177 -391 225 -511 20 -49 52 -118 71 -152 20 -35 83 -151 141 -258 168 -312 220 -388 292 -424 142 -73 374 -128 540 -129 112 -1 145 8 156 43 9 28 -19 69 -58 85 -18 7 -72 16 -122 20 -160 13 -359 64 -431 111 -23 15 -59 54 -82 88 -86 133 -401 713 -456 840 -77 181 -220 459 -382 746 -466 827 -572 1045 -577 1190 -2 63 33 179 123 414 95 249 150 423 150 473 0 27 -49 83 -73 83 -8 0 -21 -8 -31 -18z"/>
 <path d="M2677 9939 c-20 -17 -37 -39 -37 -51 0 -11 28 -50 64 -86 88 -93 146 -175 199 -284 57 -118 80 -210 80 -318 -1 -110 -16 -150 -198 -540 -157 -336 -177 -390 -295 -790 -45 -151 -110 -369 -144 -485 -58 -193 -79 -273 -137 -545 -30 -138 -56 -230 -101 -365 -46 -137 -70 -188 -102 -220 -22 -22 -26 -22 -78 -10 -120 28 -346 121 -648 268 -96 46 -185 87 -197 90 -17 4 -30 -4 -53 -29 -16 -19 -30 -39 -30 -43 0 -72 743 -420 953 -446 127 -16 200 65 290 320 56 158 77 241 163 620 25 110 51 220 59 245 7 25 34 110 59 190 25 80 86 280 135 445 101 338 132 424 221 610 260 546 272 582 250 760 -27 216 -143 447 -308 615 -44 44 -85 80 -93 80 -8 0 -31 -14 -52 -31z"/>
 <path d="M1020 5898 c-50 -54 -10 -103 131 -162 452 -188 633 -277 758 -374 113 -87 167 -165 255 -371 82 -191 101 -242 242 -644 115 -327 287 -770 656 -1687 103 -258 111 -284 100 -358 -5 -37 -30 -134 -56 -217 -26 -82 -79 -267 -117 -410 -38 -143 -93 -340 -121 -438 -43 -149 -49 -181 -40 -202 9 -20 19 -25 50 -25 41 0 59 13 85 65 21 43 81 229 121 380 92 344 140 510 178 620 39 112 42 129 46 249 2 74 0 137 -6 150 -27 57 -184 446 -297 736 -170 434 -238 605 -290 725 -57 135 -111 283 -192 530 -70 212 -210 568 -284 722 -65 133 -110 190 -223 282 -85 68 -169 120 -291 179 -250 122 -616 272 -660 272 -13 0 -33 -10 -45 -22z"/>
 <path d="M9704 5598 c-17 -18 -54 -70 -82 -115 -29 -45 -82 -124 -118 -175 -80 -113 -134 -218 -209 -408 -107 -274 -158 -395 -241 -584 -104 -233 -162 -396 -358 -1016 -30 -96 -75 -234 -100 -305 -41 -119 -146 -554 -161 -672 -9 -64 18 -144 129 -384 122 -260 344 -656 443 -787 47 -63 107 -75 138 -28 19 29 8 69 -43 150 -93 147 -263 438 -304 521 -79 157 -206 449 -213 485 -4 22 2 64 15 115 12 44 30 125 40 180 34 174 48 227 100 380 58 168 118 355 180 555 94 307 167 506 295 805 56 132 139 330 183 441 120 297 139 334 261 509 149 212 137 200 203 185 29 -7 136 -44 237 -81 193 -72 246 -82 274 -51 37 41 16 82 -63 130 -44 26 -470 169 -530 177 -42 6 -47 4 -76 -27z"/>
 <path d="M2 2238 l-2 -2238 1683 1 c1007 1 1624 5 1537 10 -481 27 -856 57 -985 78 -33 6 -80 13 -105 16 -336 45 -744 158 -975 270 -236 116 -462 299 -603 490 -103 140 -211 353 -276 548 -88 261 -169 675 -196 997 -25 289 -31 372 -40 540 -5 102 -10 241 -11 310 0 69 -4 118 -7 110 -4 -8 -9 237 -12 545 -3 308 -6 -447 -8 -1677z"/>
 <path d="M11266 3223 c-13 -330 -54 -862 -76 -983 -5 -30 -17 -102 -25 -160 -36 -247 -67 -388 -136 -612 -156 -508 -427 -850 -850 -1071 -292 -154 -734 -266 -1259 -322 -80 -8 -188 -19 -240 -25 -88 -9 -292 -22 -620 -40 -74 -4 620 -8 1543 -8 l1677 -2 0 1695 c0 932 -2 1695 -3 1695 -2 0 -7 -75 -11 -167z"/>
 <path d="M4040 1913 c-105 -68 -230 -240 -343 -470 -77 -158 -118 -272 -143 -400 -18 -95 -21 -231 -5 -262 24 -44 97 -47 119 -4 5 10 13 56 17 103 13 152 48 280 123 445 83 183 188 350 266 425 37 35 38 35 141 38 57 2 279 -3 492 -12 410 -16 640 -22 1178 -31 182 -3 389 -7 460 -10 72 -2 256 -7 410 -10 820 -15 955 -24 1040 -65 67 -32 207 -169 269 -264 30 -44 80 -128 111 -186 31 -58 68 -117 83 -132 33 -36 84 -46 118 -23 37 24 29 53 -62 215 -113 201 -177 292 -273 389 -104 105 -186 157 -278 176 -90 19 -475 32 -1348 45 -810 12 -1349 26 -1563 40 -81 5 -286 13 -457 16 l-310 6 -45 -29z"/>
 </g>

</svg>