<?xml version="1.0" encoding="utf-8"?>
<!-- Generator: Adobe Illustrator 25.1.0, SVG Export Plug-In . SVG Version: 6.00 Build 0)  -->
<svg version="1.1" id="레이어_1" xmlns="http://www.w3.org/2000/svg" xmlns:xlink="http://www.w3.org/1999/xlink" x="0px"
	 y="0px" viewBox="0 0 4131.33 4131.33" style="enable-background:new 0 0 4131.33 4131.33;" xml:space="preserve">
<style type="text/css">
	.st0{fill:#FDFDFD;}
	.st1{fill:#010101;}
	.st2{fill:#020202;}
	.st3{fill:#010000;}
	.st4{fill:#030303;}
	.st5{fill:#030202;}
	.st6{fill:#070606;}
	.st7{fill:#050404;}
	.st8{fill:#060505;}
	.st9{fill:#060404;}
	.st10{fill:#080707;}
	.st11{fill:#040404;}
	.st12{fill:#060606;}
	.st13{fill:#040303;}
	.st14{fill:#131111;}
	.st15{fill:#100B0B;}
	.st16{fill:#121313;}
	.st17{fill:#0B0707;}
	.st18{fill:#0F0909;}
	.st19{fill:#0C0A0A;}
	.st20{fill:#0E1010;}
	.st21{fill:#0B0909;}
	.st22{fill:#0E0909;}
	.st23{fill:#0B0808;}
	.st24{fill:#090606;}
	.st25{fill:#070505;}
	.st26{fill:#FFFFFF;}
</style>
<g>
	<g>
		<circle class="st0" cx="2065.66" cy="2065.66" r="2921.29"/>
		<path class="st1" d="M1992.54,3183.15c-8.71,0.27-22.38-1.25-36.06-2.74c-7.18-0.78-13.99-2.78-20.45-5.96
			c-11.41-5.62-17.63-14.7-17.47-27.53c0.07-6.01,0.65-12.09,1.7-18.01c3.52-19.98-2.46-36.89-16.06-51.43
			c-5.66-6.05-12.15-11.13-19-15.78c-5-3.4-10.08-6.72-14.82-10.45c-17.81-14.03-30.31-31.77-36.04-53.83
			c-2.91-11.19-4.58-22.67-3.89-34.3c3.48-58.27,1.6-116.59,1.59-174.89c-0.01-47.86,0.21-95.72,0.26-143.58
			c0.04-36.31,0.38-72.62-1.59-108.89c-0.42-7.74,0.17-15.35,1.57-22.98c2.28-12.47,8.33-22.65,18.17-30.44
			c4.28-3.38,8.96-6.44,13.85-8.84c33.91-16.66,69.72-26.81,107.45-29.16c40.25-2.5,78.72,5.23,115.38,22.06
			c22.1,10.15,42.62,22.8,61.29,38.4c22.23,18.58,40.32,40.48,52.47,66.96c9.51,20.72,14.8,42.45,15.43,65.32
			c0.5,18.24-1,36.26-5.14,54.04c-2.63,11.33-3.47,22.82-3.09,34.4c0.48,14.49,4.11,28.17,10.35,41.27
			c4.99,10.47,11.09,20.23,17.66,29.73c9.4,13.59,17.69,27.82,24.56,42.85c13.68,29.91,21.21,61.27,20.63,94.23
			c-0.5,28.32-6.7,55.56-17.92,81.61c-17.01,39.49-41.32,73.75-73.58,102.23c-31.52,27.82-68.12,46.03-108.81,56.07
			C2053.63,3180.26,2025.78,3183.09,1992.54,3183.15z"/>
		<path class="st1" d="M1385,2818.62c0.23-64.93,0.69-129.87,0.61-194.8c-0.05-46.77-0.82-93.54-1.26-140.31
			c-0.08-8.25-0.04-16.44,1.9-24.6c2.44-10.23,8.51-16.3,18.61-18.62c7.56-1.74,15.19-2.43,22.94-1.95
			c40.13,2.47,80.31,1.7,120.48,1.73c31.92,0.02,63.83,0.05,95.75,0.14c8.81,0.02,17.54,0.06,26.24-2.04
			c4.73-1.14,9.83-1.03,14.77-1c7.42,0.05,11.92,4.11,13.95,11.61c1.34,4.96,1.08,9.72-0.49,14.59c-1.71,5.32-5.47,8.42-10.61,9.2
			c-4.27,0.65-8.9,0.78-13.08-0.16c-9.8-2.21-19.65-2.17-29.56-2c-60.53,1-121.06,1.1-181.59,0.05c-5.5-0.09-11,0.01-16.51,0.02
			c-4.46,0.01-8.69,1.13-12.88,2.58c-8.06,2.79-12.83,8.53-14.07,16.72c-0.9,5.94-0.91,12.06-0.89,18.09
			c0.09,19.26,0.57,38.52,0.57,57.78c-0.01,51.73-0.21,103.45-0.29,155.18c-0.01,6.05,0.01,12.11,0.41,18.14
			c0.57,8.63,5.22,14.23,13.5,16.77c8.63,2.64,17.42,2.53,26.1,0.72c8.54-1.78,13.03-7.49,13.61-16.34
			c0.25-3.84,0.25-7.7,0.24-11.55c-0.14-58.33-0.31-116.66-0.46-174.99c-0.01-3.85-0.16-7.73,0.23-11.54
			c0.33-3.24,1.14-6.47,2.09-9.6c2.12-6.95,7.14-11.18,14.03-12.52c5.9-1.15,12.03-1.93,18.01-1.66
			c42.36,1.89,84.73,1.12,127.1,0.93c14.31-0.07,28.62-0.12,42.92-0.08c4.39,0.01,8.81,0.15,13.18,0.58
			c5.65,0.56,9.94,5.25,10.2,11.15c0.14,3.27,0.13,6.65-0.55,9.82c-0.99,4.58-3.96,7.99-8.64,9.02c-4.27,0.94-8.7,1.57-13.06,1.59
			c-43.47,0.16-86.94,1.8-130.39-0.43c-7.22-0.37-14.32,0.02-21.28,1.87c-8.1,2.15-13.65,7.03-15.01,15.61
			c-0.6,3.77-1,7.67-0.71,11.45c1.11,14.32,0.59,28.59-0.74,42.85c-1.22,13.14-2.68,26.27-3.75,39.42
			c-1.34,16.46-2.16,32.94-0.99,49.47c0.63,8.88,2.91,17.29,6.51,25.41c6.1,13.74,16.94,21.35,31.41,23.85
			c10.3,1.78,20.71,2.85,31.23,1.86c14.79-1.4,29.57-2.88,44.38-3.97c12.07-0.88,24.17-1.46,36.26-1.73
			c9.34-0.21,18.7,0.64,28.03-0.52c0.54-0.07,1.1-0.07,1.65-0.05c8.68,0.34,15.16,2.23,15.54,14.85c0.07,2.19,0.07,4.44-0.37,6.57
			c-1.07,5.18-3.8,8.96-9.24,10.48c-3.79,1.06-7.58,1.51-11.41,0.8c-9.28-1.72-18.64-1.31-27.99-1.2
			c-63.28,0.77-126.56,1.22-189.84-0.23c-7.14-0.16-14.28-0.34-21.36,1.28c-10.63,2.44-19.76,7.45-20.9,23.87
			c-0.27,3.84-0.39,7.7-0.3,11.54c1.57,69.33,0.77,138.67,0.35,208c-0.03,5.5-0.09,11.04,0.56,16.48c1,8.36,5.52,14.06,13.91,16.49
			c9.79,2.84,19.52,3.24,29.16-0.39c5.58-2.1,9.08-6.15,9.73-12.19c0.41-3.82,0.52-7.68,0.53-11.53
			c0.09-33.57,0.22-67.14,0.16-100.7c-0.04-22.56-0.38-45.12-0.55-67.68c-0.04-4.95-0.24-9.93,0.16-14.85
			c0.26-3.22,1.26-6.44,2.31-9.53c2.15-6.32,7.11-9.87,13.26-11.14c5.34-1.1,10.92-1.42,16.4-1.4c48.42,0.12,96.85,0.44,145.27,0.56
			c10.44,0.03,20.89-0.34,31.33-0.85c13.25-0.64,20.09,3.69,18.83,19.82c-0.13,1.62-0.39,3.36-1.11,4.78
			c-1.51,2.98-3.51,5.73-7.08,6.36c-3.23,0.57-6.53,1.05-9.8,1.07c-17.05,0.11-34.11,0.14-51.16,0.06
			c-26.41-0.12-52.82-0.34-79.23-0.53c-4.4-0.03-8.83-0.45-13.2-0.1c-4.35,0.35-8.71,1.14-12.93,2.26
			c-8.32,2.21-13.02,7.94-14.19,16.35c-0.67,4.88-1.13,9.86-0.96,14.77c1.61,46.22,1.7,92.43-0.11,138.64
			c-0.22,5.56,0.15,11.01,1.42,16.38c1.5,6.29,5.31,10.63,11.4,13.12c4.16,1.7,8.41,2.62,12.85,2.56c7.15-0.1,14.32-0.09,21.44-0.62
			c28.56-2.12,57.17-2.34,85.79-2.61c11.55-0.11,23.1-0.63,34.65-0.87c3.29-0.07,6.59,0.1,9.87,0.36c6,0.47,10.61,4.61,11.96,11.75
			c0.1,0.54,0.18,1.09,0.22,1.63c1.3,15.7-5.47,23.37-20.9,21.97c-13.25-1.21-26.37-0.29-39.56-0.1
			c-31.36,0.46-62.72,0.62-94.08,0.96c-6.59,0.07-13.22,0.11-19.77,0.75c-8.01,0.79-12.72,5.73-14.59,13.5
			c-1.61,6.67-0.84,13.14,0.81,19.57c1.81,7.03,6.56,11.6,13.53,12.91c5.9,1.11,12.02,1.39,18.05,1.4
			c42.92,0.02,85.84-0.12,128.77-0.21c6.05-0.01,12.08-0.1,18.02,1.56c6.69,1.86,9.97,5.86,10.09,13.18
			c0.03,2.19-0.09,4.42-0.5,6.56c-0.78,4.05-3.15,7.05-7.07,8.43c-2.56,0.9-5.28,1.56-7.97,1.79c-3.83,0.33-7.7,0.19-11.55,0.19
			c-86.95,0.06-173.89,0.11-260.84,0.15c-3.85,0-7.74,0.19-11.54-0.32c-3.21-0.43-6.4-1.51-9.42-2.74
			c-4.46-1.81-6.84-5.66-7.45-10.18c-0.51-3.77-0.11-7.67,0.05-11.51c0.29-7.14,1.02-14.27,1-21.4
			c-0.23-106.2-0.55-212.41-0.86-318.61C1384.81,2818.62,1384.91,2818.62,1385,2818.62z"/>
		<path class="st1" d="M2558.73,2447.01c63.96-0.09,115.79,19.51,160.9,57.33c8.84,7.42,17.12,15.51,26.87,21.83
			c1.37,0.89,2.63,2,3.81,3.14c8.19,7.91,8.26,14.23,0.37,22.71c-2.23,2.39-4.83,4.52-7.56,6.33c-5.76,3.82-13.17,3.4-18.39-0.98
			c-2.51-2.11-4.83-4.5-7-6.97c-28.76-32.81-64.65-54.06-106.51-65.54c-14.39-3.95-29.17-5.32-44.07-5.66
			c-34.13-0.77-66.7,5.67-97.29,21.07c-21.37,10.76-40.03,25.05-55.53,43.37c-17.47,20.64-28.83,44.25-32.59,71
			c-5.07,36.13,1.6,70.02,21.56,100.99c12.39,19.23,28.17,35.15,46.76,48.31c6.72,4.76,13.68,9.24,20.87,13.25
			c22.07,12.31,44.27,24.38,66.47,36.46c20.75,11.29,41.65,22.31,62.3,33.77c12.98,7.2,25.5,15.18,37.36,24.17
			c10.56,8,20.3,16.87,28.82,27.04c18,21.48,27.21,46.51,27.81,74.25c0.59,27.26-8.08,51.93-25.04,73.46
			c-19.83,25.18-45.8,40.91-76.81,47.93c-40.09,9.07-78.73,3.4-115.64-14.08c-22.51-10.66-42.55-25.16-61.06-41.76
			c-2.44-2.18-4.54-4.78-6.54-7.39c-2.09-2.73-1.65-8.12,0.47-10.92c3.75-4.97,8.67-8.48,14.3-10.82c4.21-1.75,8.76-1.58,12.62,1.19
			c3.11,2.23,5.92,4.9,8.73,7.52c20.86,19.47,45.03,33,72.31,41.39c19.31,5.94,38.92,7.38,58.73,4.95
			c37.97-4.65,67.43-30.28,77.38-67.14c5.01-18.57,3.78-37.01-3.49-54.96c-5.68-14.02-14.17-26.1-25.4-36.12
			c-6.55-5.85-13.54-11.25-20.68-16.37c-15.65-11.25-32.29-20.9-49.38-29.76c-17.06-8.85-34.24-17.49-51.41-26.14
			c-17.18-8.66-34.23-17.55-50.65-27.58c-18.35-11.21-35.61-23.9-51.14-38.84c-17.61-16.95-32.25-36.11-42.24-58.5
			c-9.05-20.29-13.82-41.59-14.33-63.92c-0.66-29.09,4.53-56.89,16.83-83.29c13.3-28.53,33.11-51.77,58.3-70.44
			c24.63-18.26,52.17-30.34,81.93-37.3C2521.88,2449.18,2542.58,2446.47,2558.73,2447.01z"/>
		<path class="st2" d="M2747.81,2973.15c-0.17-43.22-15.63-80.41-44.44-112.3c-7.39-8.18-15.55-15.56-24.24-22.36
			c-16.05-12.56-33.04-23.75-50.54-34.16c-24.1-14.34-49.07-27.07-73.98-39.9c-12.7-6.54-25.39-13.1-38.04-19.74
			c-13.18-6.91-25.73-14.82-37.36-24.12c-13-10.4-24.08-22.51-32.32-37.1c-15.74-27.91-16.79-56.47-3.37-85.41
			c13.17-28.4,35.44-47.07,64.24-58.4c15.57-6.13,31.97-8.46,48.47-8.71c26.66-0.4,52.52,4.24,77.03,15.26
			c8.06,3.62,15.64,8.02,22.7,13.33c9.39,7.07,16.61,15.98,22,26.38c2.14,4.12,0.93,9.2-3.12,11.6c-4.7,2.79-9.54,5.45-14.59,7.5
			c-3.65,1.48-7.68,0.92-11.01-1.53c-2.64-1.95-5.04-4.23-7.55-6.35c-5.45-4.62-10.63-9.61-16.41-13.78
			c-13.59-9.79-28.66-15.84-45.42-18.16c-14.33-1.98-28.41-2.35-42.66,0.41c-19.13,3.71-35,12.67-47.22,27.86
			c-8.36,10.4-14.3,21.98-17.59,35.06c-3.43,13.65-0.86,26.2,5.35,38.27c4.06,7.9,9.69,14.77,16.57,20.37
			c6.38,5.19,12.93,10.32,19.98,14.51c18.89,11.24,37.99,22.12,57.17,32.86c22.06,12.34,44.39,24.19,66.42,36.6
			c20.61,11.61,40.64,24.15,59.38,38.68c17.02,13.2,32.78,27.69,46.36,44.46c16.48,20.34,28.52,42.93,35.18,68.38
			c5.37,20.51,6.45,41.32,4.51,62.23c-1.93,20.86-6.3,41.32-13.89,60.92c-16.25,41.94-43.76,74.6-81.8,98.49
			c-25.92,16.28-54.16,26.52-84,32.71c-14.04,2.91-28.28,4.26-42.51,5.58c-24.4,2.26-48.3-1.23-71.88-7.27
			c-38.85-9.96-74.05-27.66-106.12-51.48c-13.67-10.15-26.57-21.37-39.62-32.34c-6.83-5.75-6.92-11.83-0.95-18.54
			c8.84-9.94,18.09-11.66,28.82-3.07c5.58,4.47,10.88,9.28,16.36,13.87c22.04,18.47,45.98,33.9,72.41,45.38
			c31.2,13.55,63.93,20.34,97.81,20.4c41.66,0.07,80.56-10.28,115.01-34.55c39.2-27.61,62.91-65.22,71.98-112.27
			C2746.83,2992.89,2747.74,2983.1,2747.81,2973.15z"/>
		<path class="st3" d="M2216.25,1660.63c27.17-0.56,49.92,23.32,49.16,50.78c-0.68,24.59-20.53,48.64-50.22,48.27
			c-31.16-0.39-49.8-26.73-49.16-50.98C2166.7,1683.7,2188.21,1659.59,2216.25,1660.63z"/>
		<path d="M1879.07,1760.99c-26.96,0.49-49.07-22.2-49.35-48.94c-0.26-23.98,18.19-50.28,50.09-50.08
			c31.79,0.2,49.79,27.1,49.31,50.82C1928.63,1736.94,1907.99,1761.82,1879.07,1760.99z"/>
		<path class="st3" d="M2441.53,1426.63c25.1-0.48,49.78,21.37,49.2,50.8c-0.52,26.65-23.39,48.63-49.96,48.5
			c-22.3-0.11-48.93-17.5-49.24-49.27C2391.22,1445.21,2417.76,1425.79,2441.53,1426.63z"/>
		<path class="st3" d="M2529.73,1309.65c0.98,23.57-17.81,50.38-49.68,50.28c-32.41-0.11-49.36-27.06-49.64-48.81
			c-0.35-26.34,21.73-50.33,49.82-50.28C2507.73,1260.89,2529.89,1284.07,2529.73,1309.65z"/>
		<path class="st3" d="M1648.8,1525.83c-23.2,0.7-50.28-18.16-49.75-50.27c0.55-32.76,28.18-49.04,49.46-49.08
			c25.39-0.05,50.04,21.35,49.72,50.44C1697.93,1504.49,1674.39,1526.27,1648.8,1525.83z"/>
		<path class="st3" d="M1747.44,1664.73c-27.11-0.19-49.84-22.69-49.12-49.62c0.88-32.57,27.04-49.5,49.43-49.61
			c25.61-0.12,50.2,21.01,49.75,50.74C1797.07,1644.35,1772.77,1665.88,1747.44,1664.73z"/>
		<path class="st3" d="M2350.59,1664.74c-24.73,1.12-50.17-20.18-49.85-49.99c0.3-28,23.54-49.05,49.22-49.24
			c23.66-0.18,49.71,17.99,50.05,50.26C2400.28,1642.71,2377.63,1664.63,2350.59,1664.74z"/>
		<path d="M1996.49,886.81c0.32-28.33,23.28-49.84,50.72-49.23c25.61,0.56,48.69,20.56,48.46,49.84
			c-0.22,28.08-21.1,48.9-49.08,49.28C2018.11,937.08,1996.6,914.95,1996.49,886.81z"/>
		<path class="st3" d="M2404.34,1005.32c0.83,22.82-17.72,49.33-48.98,49.63c-30.98,0.3-49.74-25.01-50.23-48.53
			c-0.48-22.85,16.77-50.69,49.96-50.52C2387.87,956.05,2405,983.57,2404.34,1005.32z"/>
		<path class="st3" d="M1884.8,961.55c-23.32,1.32-49.62-17.27-50.25-48.23c-0.61-29.53,22.4-50.75,49.65-50.76
			c25.36-0.01,49.15,19.07,49.44,49.34C1933.95,943.97,1906.97,962.37,1884.8,961.55z"/>
		<path d="M2045.93,1697.23c22.43-0.99,50.22,17.11,49.71,50.19c-0.51,32.88-27.51,49-49.41,49.07
			c-24.29,0.07-50.03-19.19-49.66-50.41C1996.92,1715.31,2023.13,1696.34,2045.93,1697.23z"/>
		<path d="M1690.8,1004.84c-0.38-21.21,16.31-48.8,49.4-48.94c33.44-0.15,50.22,28.06,49.96,50.17
			c-0.26,22.16-17.87,48.76-49.55,48.88C1708.66,1055.07,1689.85,1028.12,1690.8,1004.84z"/>
		<path d="M1618.94,1360.7c-27-0.26-49.76-22.99-49-49.83c0.95-33.43,28.68-50.13,51.24-49.4c22.66,0.73,48.65,19.21,47.97,50.8
			C1668.47,1344,1641.33,1361.7,1618.94,1360.7z"/>
		<path class="st1" d="M2211.49,961.56c-23.7,1.17-49.48-18.38-49.8-48.61c-0.32-29.71,23.26-50.71,49.95-50.39
			c25.56,0.31,49,19.45,49.02,49.71C2260.69,944.7,2233.54,962.48,2211.49,961.56z"/>
		<path d="M1597.8,1147.95c-1.06-23.11,17.39-49.41,48.64-49.83c30.66-0.41,50.64,23.96,50.37,49.97
			c-0.27,25.72-19.92,48.97-49.69,48.98C1615.84,1197.08,1596.97,1170.96,1597.8,1147.95z"/>
		<path d="M2393.34,1144.47c-0.59-25.67,20.61-49.31,49.15-49.38c27.53-0.07,49.49,20.92,49.94,48.77
			c0.43,27.18-20.12,50.47-50.16,50.21C2411.91,1193.81,2392.69,1169.16,2393.34,1144.47z"/>
		<path class="st4" d="M2510.99,1638.23c-13.02,0.73-28.25-10.84-28.39-28.19c-0.13-16.27,13.41-28.54,27.8-28.83
			c17.34-0.35,29.63,14.65,29.38,29.07C2539.53,1624.97,2526.38,1638.9,2510.99,1638.23z"/>
		<path class="st4" d="M1988.28,760.79c0.6,16.25-14.14,28.56-27.95,28.81c-14.56,0.26-28.69-12.06-29.1-27.67
			c-0.42-15.85,12.42-29.64,28.8-29.51C1976.95,732.55,1988.85,747.27,1988.28,760.79z"/>
		<path class="st5" d="M1631.03,990.49c0.05,15.31-12.81,28.81-28.27,28.71c-15.9-0.1-28.49-11.25-28.93-27.8
			c-0.48-17.91,13.28-29.5,28.84-29.61C1618,961.69,1630.98,975.2,1631.03,990.49z"/>
		<path class="st2" d="M1948.3,1818.91c14.52-0.3,27.91,11.27,28.19,28.42c0.25,15.56-12.67,28.18-28.22,28.59
			c-14.28,0.37-29.49-11.73-29.07-29.46C1919.53,1832.43,1931.27,1818.27,1948.3,1818.91z"/>
		<path class="st5" d="M2550.33,999.1c0.58,16.39-12.57,28.64-27.4,29.02c-19.35,0.49-29.91-16-29.59-28.72
			c0.4-15.4,13.12-28.06,28.48-28.43C2533.98,970.68,2550.32,980.96,2550.33,999.1z"/>
		<path class="st2" d="M2395.12,847.09c-0.03,18.26-16.37,28.34-28.56,28.06c-15.39-0.35-28.27-13.08-28.37-28.47
			c-0.11-16.33,13.09-28.95,29.59-28.66C2382.75,818.29,2395.74,830.89,2395.12,847.09z"/>
		<path class="st2" d="M1774.32,1755.31c-0.24,17.44-15.59,28.23-28.95,27.71c-18.41-0.72-28.35-16.28-28.12-28.8
			c0.29-16.29,13.68-29.07,30.02-28.36C1762.72,1726.54,1775.02,1739.25,1774.32,1755.31z"/>
		<path class="st2" d="M1488.62,1402.93c-0.36-16.25,13.24-28.49,28.11-28.5c17.99-0.01,29.46,15.3,28.88,29.6
			c-0.62,15.42-13.6,28.07-29.14,27.56C1499.7,1431.04,1488.09,1417.8,1488.62,1402.93z"/>
		<path class="st5" d="M2595.99,1169.56c13.84,0.94,27.87,10.79,27.75,29.15c-0.11,16.28-12.21,27.91-28.48,28.24
			c-16.08,0.32-29.64-13.99-28.8-29.78C2567.27,1181.79,2580.94,1169.02,2595.99,1169.56z"/>
		<path class="st5" d="M2169.32,799.6c-14.06,0.68-28.36-11.03-28.62-28.06c-0.25-16.42,13.65-29.35,29.6-28.91
			c12.58,0.35,28.03,10.23,27.69,29.05C2197.65,790.46,2182.17,800.32,2169.32,799.6z"/>
		<path class="st2" d="M2355.28,1787.39c-14.83,0.35-28.04-12.32-27.97-28.48c0.08-18.1,15.96-28.49,28.2-28.57
			c15.41-0.1,29.37,13.61,28.97,29.64C2384.17,1772.06,2373.54,1788.12,2355.28,1787.39z"/>
		<path class="st2" d="M2165.45,1866.69c-16.11,0.12-28.03-13.47-28.09-28.52c-0.07-15.37,13.14-28.23,28.48-28.34
			c16.11-0.12,29.82,13.76,28.83,29.55C2193.62,1855.93,2180.77,1867.31,2165.45,1866.69z"/>
		<path class="st5" d="M1604.66,1574.59c14.28-0.36,28.04,11.53,27.98,28.51c-0.06,15.79-12.49,28.13-28.2,28.47
			c-15.68,0.34-29.46-13.52-28.99-29.52C1575.83,1589.35,1586.8,1573.86,1604.66,1574.59z"/>
		<path class="st2" d="M1783.64,844.53c0.68,13.72-11.12,28.14-28.13,28.31c-17.62,0.17-28.64-14.62-28.88-27.68
			c-0.33-17.67,15.27-29.68,29.08-29.41C1768.9,816,1784.21,827.62,1783.64,844.53z"/>
		<path class="st4" d="M2598.62,1383.49c12.56-0.58,27.89,10.69,27.79,28.69c-0.09,16.93-14.41,28.24-28.25,28.32
			c-17,0.09-29.45-15.04-28.82-29.6C2569.97,1396.46,2582.74,1382.59,2598.62,1383.49z"/>
		<path class="st2" d="M1525.99,1161.25c19.17-0.23,28.75,15.62,29.11,27.59c0.44,14.73-11.52,29.47-29,29.56
			c-11.65,0.06-27.97-9.2-28.07-28.62C1497.94,1173.78,1510.4,1161.36,1525.99,1161.25z"/>
		<path class="st6" d="M2549.41,855.73c-9.71,0.5-20.75-8.61-20.49-21.34c0.25-12.12,9.74-21.19,21.01-21.03
			c14.21,0.2,22.07,11.19,21.38,22.37C2570.49,849.04,2559.71,856.47,2549.41,855.73z"/>
		<path class="st7" d="M2748.33,1312.42c0.08,11.73-8.91,21.18-20.49,21.52c-11.86,0.35-22.58-10.39-21.96-22.03
			c0.62-11.57,10.2-20.69,21.65-20.61C2739.13,1291.4,2748.24,1300.64,2748.33,1312.42z"/>
		<path class="st8" d="M1463.25,1523.36c0.53,11.26-8.63,21.19-20.38,21.65c-12.04,0.47-22.44-9.43-22.01-21.81
			c0.46-13.09,11.33-20.8,21.36-20.82C1452.91,1502.35,1463.53,1511.81,1463.25,1523.36z"/>
		<path class="st8" d="M2041.94,1938.45c11.91-0.78,21.45,9.86,21.98,20.11c0.55,10.46-7.93,22.45-21.56,22.32
			c-12.85-0.12-21.09-10.89-21.18-21.07C2021.09,1948.3,2031.17,1938.25,2041.94,1938.45z"/>
		<path class="st9" d="M2511.68,1756.19c13.17-0.61,21.45,10.77,21.73,20.09c0.34,11.32-8.02,22.36-21.53,22.02
			c-13.19-0.33-20.56-9.57-21.02-21.01C2490.51,1768.41,2497.61,1756.33,2511.68,1756.19z"/>
		<path class="st8" d="M2312.24,1914.48c-0.11,11.58-9.11,20.48-20.64,20.92c-10.1,0.38-22.05-7.59-21.73-21.64
			c0.3-13.26,10.52-20.56,20.83-21.05C2302.45,1892.15,2312.35,1902.31,2312.24,1914.48z"/>
		<path class="st10" d="M1781.11,1928.86c-11.74,0.03-20.88-9.01-21.24-20.64c-0.41-13.17,11.07-22.25,21.89-21.88
			c11.31,0.39,21.18,10.77,20.63,21.71C1801.74,1921.15,1791.06,1929.32,1781.11,1928.86z"/>
		<path class="st11" d="M1569.76,1760.96c-12.35,0.62-21.35-9.8-21.58-20.15c-0.27-12.2,8.66-22.41,21.51-22.03
			c12.85,0.37,20.63,9.18,20.85,21.13C1590.74,1751.56,1581.69,1760.96,1569.76,1760.96z"/>
		<path class="st7" d="M1828.94,643.12c12.37-0.25,20.88,10.73,20.89,20.92c0,10.04-7.46,20.71-20.65,21.32
			c-11.89,0.54-22.67-10.3-21.85-21.91C1807.99,654.07,1814.69,642.9,1828.94,643.12z"/>
		<path class="st12" d="M2359.09,693.25c-0.1,12.56-11.35,20.62-21.32,20.5c-9.12-0.12-20.77-7.74-20.71-21.16
			c0.05-11.56,9.12-21.08,20.55-21.48C2349.45,670.69,2359.41,680.97,2359.09,693.25z"/>
		<path class="st7" d="M2672.78,1593.11c-11.69-0.03-20.77-9.16-21.18-20.72c-0.35-9.74,7.77-21.13,20.53-21.34
			c12.29-0.21,22.5,9.6,22.15,21.51C2693.96,1583.93,2684.32,1593.14,2672.78,1593.11z"/>
		<path class="st7" d="M1483.34,1014.17c0.3,10.43-9.02,20.64-21.29,20.36c-12.06-0.27-20.58-9.23-20.95-20.96
			c-0.38-11.99,10.68-22.42,22.36-21.35C1476.61,993.44,1483.94,1003.58,1483.34,1014.17z"/>
		<path class="st7" d="M1605.95,822.31c-11.64,0.31-21.23-8.67-21.62-20.27c-0.42-12.54,9.04-22.54,21.2-22.41
			c11.28,0.13,20.99,9.84,21.17,21.17C1626.87,812.07,1617.28,822,1605.95,822.31z"/>
		<path class="st7" d="M2091.43,647.18c-11.55,0.36-21.25-8.73-21.63-20.25c-0.39-11.86,8.07-21.51,19.56-22.33
			c11.83-0.84,22.65,9.15,22.84,21.09C2112.38,636.87,2102.76,646.83,2091.43,647.18z"/>
		<path class="st8" d="M1414.61,1263.35c0.34,11.74-8.5,21.1-20.01,21.75c-11.4,0.64-21.55-7.89-22.12-19.6
			c-0.7-14.51,9.73-22.18,20.78-22.8C1404.4,1242.09,1414.27,1251.92,1414.61,1263.35z"/>
		<path class="st13" d="M2715.2,1060.29c0.39,10.75-8.83,20.76-20.96,20.65c-12.6-0.12-20.66-9.04-21.39-20.49
			c-0.75-11.76,9.93-21.95,22.04-21.52C2706.88,1039.35,2715.76,1049.08,2715.2,1060.29z"/>
		<path class="st14" d="M1308.16,1141.8c-8.17-0.63-14.26-7.56-13.7-15.6c0.56-8.06,7.66-13.99,15.84-13.23
			c7.11,0.66,13.36,7.55,13.21,14.54C1323.33,1134.94,1315.36,1142.36,1308.16,1141.8z"/>
		<path class="st14" d="M2231.12,557.49c-7.46-0.19-15.02-8.13-14.27-15.31c0.83-7.97,7.26-14.43,15.57-13.77
			c7.29,0.58,13.22,6.84,13.32,14.24C2245.85,550.58,2238.85,557.69,2231.12,557.49z"/>
		<path class="st15" d="M2710.07,858.39c7.25,0.34,13.34,6.53,13.62,13.85c0.29,7.53-6.86,14.74-14.6,14.72
			c-7.86-0.02-14.56-7-14.27-14.89C2695.1,864.01,2701.81,858,2710.07,858.39z"/>
		<path class="st16" d="M1921.46,2049.64c0.03,6.44-5.23,14.01-12.96,14.62c-8.26,0.65-15.36-4.97-16.08-12.94
			c-0.71-7.82,5.57-15.34,13.59-15.63C1913.9,2035.4,1920.35,2040.7,1921.46,2049.64z"/>
		<path class="st17" d="M1324.65,1435c-0.28,6.84-5.51,12.87-13.99,13.13c-8.09,0.25-14.62-6.54-14.25-14.56
			c0.41-9.06,7.18-14.28,14.88-13.88C1319.34,1420.11,1325.14,1426.62,1324.65,1435z"/>
		<path class="st18" d="M2815.61,1439.59c9.22-0.28,14.73,8.62,14.42,14.72c-0.37,7.21-6.42,13.78-13.7,13.9
			c-8.67,0.15-14.59-5.74-15.24-14C2800.47,1446.53,2807.61,1439.59,2815.61,1439.59z"/>
		<path class="st16" d="M2200.58,2035.62c6.96-0.19,14.86,5.09,15.21,14.12c0.28,7.27-5.71,13.79-12.92,14.53
			c-9.4,0.96-15.26-6.3-16.09-13.05C2185.9,2043.98,2192.8,2036.22,2200.58,2035.62z"/>
		<path class="st19" d="M1414.28,1694.38c7.85,0.29,14.23,7.33,13.83,15.26c-0.36,7.15-6.65,13.39-13.8,13.71
			c-7.71,0.35-14.58-6.49-14.58-14.49C1399.73,1700.84,1406.51,1694.1,1414.28,1694.38z"/>
		<path class="st20" d="M1642.5,657.6c-8.72,0.34-14.73-8.08-14.33-14.74c0.44-7.26,6.47-13.38,13.83-13.79
			c7.6-0.42,14.99,6.41,15.23,14.09C1657.46,650.93,1650.64,657.62,1642.5,657.6z"/>
		<path class="st20" d="M1434.73,872.37c-7.98-0.17-14.8-7.51-14.02-15.1c0.76-7.31,7.13-13.38,14.22-13.54
			c7.87-0.18,14.77,6.64,14.73,14.56C1449.63,866.33,1443.04,872.55,1434.73,872.37z"/>
		<path class="st21" d="M1618.83,1952.38c-8.58,0.02-14.32-8.41-13.62-15.31c0.73-7.24,7.19-13.03,14.48-13.02
			c7.81,0.01,14.85,7.17,14.49,14.71C1633.8,1946.75,1627.1,1952.69,1618.83,1952.38z"/>
		<path class="st22" d="M1941.33,532.33c-0.07,7.66-7.24,14.26-15.15,13.95c-7.31-0.29-13.56-6.4-13.87-13.55
			c-0.34-7.87,6.26-14.67,14.29-14.71C1934.73,517.97,1941.4,524.45,1941.33,532.33z"/>
		<path class="st21" d="M2828.9,1173.09c-8.12,0.03-14.87-6.61-14.62-14.38c0.25-7.85,7.19-14.22,15.15-13.91
			c7.28,0.28,13.44,6.39,13.74,13.62C2843.49,1166.37,2836.98,1173.07,2828.9,1173.09z"/>
		<path class="st23" d="M2480.43,1952.37c-8.47,0.09-14.35-5.78-14.26-14.24c0.09-8.32,6.32-14.27,14.61-13.96
			c7.6,0.28,13.18,5.89,13.45,13.5C2494.54,1946.09,2488.73,1952.27,2480.43,1952.37z"/>
		<path class="st24" d="M2718.55,1737.41c0.09,8.34-6.06,14.68-14.16,14.6c-8.11-0.08-14.19-6.49-14-14.78
			c0.17-7.61,5.85-13.41,13.36-13.68C2712.16,1723.25,2718.46,1729.15,2718.55,1737.41z"/>
		<path class="st25" d="M2510.65,672.29c-0.51,7.46-6.55,13.27-14.05,12.95c-7.95-0.33-14.99-5.47-13.94-16.26
			c0.71-7.25,7.12-12.42,14.81-12.1C2505.61,657.22,2511.24,663.8,2510.65,672.29z"/>
		<path class="st26" d="M1919.49,2802.17c0,74.82,0.01,149.65-0.02,224.47c0,4.38-0.3,8.77-0.5,13.15
			c-0.06,1.23-2.68,2.48-3.83,1.85c-13.2-7.18-24.77-16.29-33.73-28.47c-7.33-9.96-11.84-21.05-12.8-33.43
			c-0.51-6.57-0.93-13.18-0.88-19.76c0.95-118.83,1.29-237.67,0.19-356.5c-0.16-17.6-0.6-35.2-0.99-52.81
			c-0.14-6.62,0.3-13.15,1.4-19.7c2.13-12.67,8.52-22.54,18.97-29.71c4.5-3.09,9.41-5.67,14.37-7.99c13-6.09,26.79-9.83,40.8-12.71
			c19.53-4.02,39.35-4.76,59.14-3.29c29.35,2.19,57.33,9.72,83.55,23.37c40.46,21.06,77.14,65.04,89.4,105.87
			c5.28,17.58,7.3,35.43,6.27,53.74c-1.06,18.88-5.61,36.9-12.38,54.43c-2.78,7.2-5.37,14.37-6.35,22.1
			c-1.45,11.44,0.79,21.97,7.39,31.34c4.1,5.82,8.87,11.18,13.4,16.7c7.68,9.34,15.84,18.32,23.01,28.04
			c13.46,18.26,23.77,38.22,30.32,60.03c6.88,22.91,9.59,46.16,7.11,70.06c-5.05,48.55-24.04,91.12-55.31,128.19
			c-27.35,32.42-62.43,53.35-102.64,65.98c-23.7,7.44-48.05,11.53-72.8,13.4c-7.12,0.54-14.22,1.41-21.32,2.2
			c-6.64,0.73-13.14,0.44-19.54-1.76c-6.84-2.35-11.19-7.2-12.93-13.87c-2.09-8.01-2.54-16.26-1.17-24.55
			c0.89-5.36,4.56-9.39,10.97-10.92c3.7-0.89,7.64-1.11,11.47-1.07c13.24,0.14,26.36-1.16,39.5-2.5
			c25.9-2.64,50.78-9.04,74.48-19.89c15.08-6.91,29-15.62,41.6-26.44c25.42-21.82,42.05-49.12,50.38-81.43
			c4.69-18.21,6.63-36.65,4.38-55.56c-2.18-18.31-7.76-35.33-16.35-51.51c-7.27-13.69-16.48-25.97-26.92-37.38
			c-15.69-17.15-33.68-31.58-52.9-44.52c-7.29-4.91-14.86-9.4-22.29-14.1c-1.86-1.18-1.91-3.79-0.07-5.51
			c3.61-3.38,7.32-6.65,10.9-10.07c9.97-9.55,18.9-19.97,26.27-31.68c16.87-26.79,22.31-55.97,17.13-86.97
			c-2.74-16.42-9.39-31.54-18.86-45.33c-20.14-29.31-47.8-48.07-81.73-57.83c-23.13-6.65-46.63-7.38-70.23-2.89
			c-6.45,1.23-12.84,2.93-18.78,6.01c-8.34,4.32-13.46,10.84-15.47,20.13c-1.54,7.09-1.65,14.18-1.64,21.33
			c0.06,44.56,0.13,89.13,0.17,133.69c0.03,31.36,0.01,62.72,0.01,94.08C1919.59,2802.17,1919.54,2802.17,1919.49,2802.17z"/>
		<path class="st26" d="M1958.08,2929.89c-0.07-31.35-0.08-62.69-2.07-94c-0.25-3.84-0.36-7.69-0.35-11.54
			c0.01-2.74,0.1-5.52,0.56-8.21c2.12-12.54,8.78-19.56,21.21-22.15c65.72-13.72,138.94,19.89,166.69,83.37
			c16.43,37.57,15.39,74.91-3.31,111.32c-18.47,35.98-48.03,59.39-85.89,72.67c-23.31,8.18-47.37,9.56-71.62,6.3
			c-17.74-2.39-26.96-9.62-27.59-30.57c-0.13-4.39,0.08-8.8,0.35-13.19C1958.01,2992.59,1958,2961.24,1958.08,2929.89z"/>
		<path class="st26" d="M1955.98,2722.8c2.81-19.17,1.28-38.43,1.07-57.67c-0.21-19.8-0.32-39.61-0.2-59.42
			c0.05-7.69,0.87-15.37,1.28-23.06c0.27-5.05,1.86-9.76,4.04-14.2c3.63-7.4,9.45-12.14,17.96-12.57c4.93-0.25,9.96-0.46,14.81,0.24
			c22.69,3.29,43.69,10.77,61.43,25.89c15,12.79,25.89,28.33,31.51,47.37c8.46,28.68,4.61,55.49-12.54,80.1
			c-14.03,20.14-33.42,33.11-56.42,40.94c-9.95,3.39-20.32,4.73-30.75,5.61c-5.57,0.47-11.05-0.44-16.29-2.06
			c-6.66-2.05-11.34-6.6-13.63-13.28C1956.27,2734.9,1955.22,2728.96,1955.98,2722.8z"/>
		<path class="st0" d="M1444.2,3152.55c-1.74,0.16-6.6-0.05-11.46-1.3c-6.46-1.66-10.62-5.71-12.4-11.89
			c-2.3-7.99-2.81-16.14-0.62-24.33c1.36-5.09,4.26-8.85,9.1-10.93c2.49-1.08,5.11-2.41,7.73-2.55c7.09-0.39,14.23-0.54,21.3-0.08
			c3.11,0.2,6.25,1.84,9.12,3.33c2.99,1.55,5,4.3,5.92,7.55c1.36,4.76,2.14,9.61,1.47,14.6c-0.51,3.8-0.76,7.64-1.43,11.41
			c-1.5,8.42-7.09,13.48-15.7,14.16C1453.97,3152.77,1450.67,3152.55,1444.2,3152.55z"/>
	</g>
</g>
</svg>
