<?xml version="1.0" encoding="utf-8"?>
<!DOCTYPE svg PUBLIC "-//W3C//DTD SVG 20010904//EN" "http://www.w3.org/TR/2001/REC-SVG-20010904/DTD/svg10.dtd">
<svg version="1.0" xmlns="http://www.w3.org/2000/svg" width="382px" height="382px" viewBox="0 0 382 382" preserveAspectRatio="xMidYMid meet">
 <g fill="#000000">
  <path d="M95.1 324.9 c-7.2 -2.2 -14.1 -8.1 -17.9 -15.4 -2.2 -4.3 -2.7 -6.5 -3 -16.2 -0.3 -8.6 0 -12.3 1.3 -16.2 2.5 -7.6 8.3 -14.4 15.2 -17.7 5.5 -2.7 6.5 -2.9 18.8 -2.9 12.6 0 13.2 0.1 18.4 3 7.3 4 12.2 10.6 11.9 15.9 -0.3 3.7 -0.5 3.9 -6.8 6.5 l-6.5 2.6 8.3 0.3 8.2 0.3 0 7.8 c0 14.4 -4.7 23.7 -15 29.5 -5.2 2.9 -6.1 3.1 -17.5 3.3 -6.6 0.1 -13.5 -0.2 -15.4 -0.8z m18.2 -19.6 l3.2 -1.8 -5.2 -0.3 -5.3 -0.3 0 -9 0 -8.9 6.6 0 6.5 0 -1.7 -2.9 c-2.2 -3.7 -6.9 -6.4 -9.9 -5.7 -7 1.8 -12.6 11.9 -10.4 18.7 0.7 1.8 2.1 4.5 3.1 5.9 1.8 2.4 7.3 6 9.1 6 0.4 0 2.2 -0.8 4 -1.7z"/>
  <path d="M192.6 323.5 c-7.3 -3 -11.9 -7.3 -15.4 -14.5 -2.4 -5 -2.7 -6.5 -2.7 -17.5 0 -10.9 0.2 -12.5 2.6 -17.6 3.1 -6.6 8.4 -12 14.8 -15.1 4.1 -2 6.1 -2.3 17.6 -2.3 12.6 0 13.2 0.1 18.5 3 7.4 4.1 12.2 10.5 11.8 15.8 -0.3 3.8 -0.5 4 -6.7 6.6 l-6.5 2.6 8.7 0.3 8.7 0.3 0 4.2 c0 18.1 -7.8 31.5 -20.4 35.2 -3 0.9 -9 1.5 -15 1.5 -8.4 0 -11.1 -0.5 -16 -2.5z m22.4 -19.1 c1.2 -1.2 0.8 -1.4 -3.8 -1.4 l-5.2 0 0 -9 0 -9 6.5 0 c3.6 0 6.5 -0.4 6.5 -0.9 0 -1.7 -5.7 -7 -8.3 -7.6 -6 -1.5 -13.7 6.9 -13.7 15.1 0 4.9 3 9.8 8 13.2 3.7 2.5 7.2 2.3 10 -0.4z"/>
  <path d="M148 291 l0 -33 11 0 11 0 0 33 0 33 -11 0 -11 0 0 -33z"/>
  <path d="M243 320.5 c0 -2.1 4.6 -15.7 11.3 -33 l11.2 -29.5 12 0.2 11.9 0.3 11.3 30 c6.2 16.5 11.3 31.3 11.3 32.8 l0 2.8 -11.6 -0.3 -11.6 -0.3 -1.8 -4.5 -1.8 -4.5 -8 -0.3 -8 -0.3 -1.8 5.1 -1.8 5 -11.3 0 -11.3 0 0 -3.5z m35.3 -26.6 c-0.4 -1.6 -0.8 -1.7 -1.4 -0.7 -1.3 1.9 -1.1 2.8 0.5 2.8 0.9 0 1.2 -0.7 0.9 -2.1z"/>
  <path d="M230.2 206.3 c-3 -4.1 -4.2 -6.7 -4.2 -9.2 0 -2.5 4.2 -11.5 15.5 -33.3 8.5 -16.4 15.6 -30.2 15.7 -30.6 0.2 -0.4 -6 -12.8 -13.6 -27.6 l-13.8 -26.8 -3.5 6.3 c-4.6 8.6 -43.7 86.1 -54.2 107.7 l-8.5 17.3 -10.4 -0.3 -10.4 -0.3 -19.9 -39 c-15.6 -30.7 -19.9 -39.8 -19.9 -42.9 0 -3.1 3.9 -11.5 19.2 -41.8 l19.3 -37.8 3.6 0 c3.2 0 3.9 0.6 7.7 6 2.9 4.1 4.2 6.9 4.2 9.2 0 2.4 -4.6 12.2 -15.9 33.8 l-15.9 30.5 4.8 9 c2.6 5 8.9 17 14 26.8 l9.2 17.9 7.5 -14.3 c4.2 -7.9 19 -36.9 32.9 -64.4 l25.3 -50 11 -0.3 10.9 -0.3 19.6 38.7 c14.2 27.9 19.6 39.5 19.6 42 0 2.5 -5.4 14.1 -19 41.4 l-19.1 38 -3.7 0 c-3.5 0 -4.2 -0.5 -8 -5.7z"/>
 </g>
 <g fill="#ffffff">
  <path d="M0 191 l0 -191 191 0 191 0 0 191 0 191 -191 0 -191 0 0 -191z m125 128.4 c9.4 -5.3 15 -15.2 15 -26.6 l0 -4.8 -15.5 0 -15.5 0 0 6 0 6 6.5 0 c3.6 0 6.5 0.2 6.5 0.5 0 2 -3.5 6.7 -6 8 -11.3 5.8 -24.3 -5 -22.8 -19 1.2 -9.9 7.3 -16.5 15.5 -16.5 3.9 0 10.3 2.4 10.3 4 0 0.3 0.8 1.5 1.8 2.8 l1.7 2.2 7 -2.9 c3.9 -1.7 7 -3.4 7 -4 0 -2.6 -6.6 -9.9 -11.6 -12.6 -5 -2.8 -6.2 -3 -15.4 -3 -9 0 -10.6 0.3 -15.8 2.9 -11.4 5.6 -17.3 16.6 -16.5 31 0.5 9.3 3.4 16 9 21.2 7.5 6.9 12.1 8.4 24.3 8.1 8 -0.2 9.7 -0.6 14.5 -3.3z m95.6 2.1 c9.9 -2.9 17.4 -12.4 19.3 -24.5 0.6 -3.6 1.1 -7.1 1.1 -7.7 0 -1 -3.9 -1.3 -16 -1.3 l-16 0 0 6 0 6 6.5 0 c7.5 0 8.2 1.1 3.7 6.1 -2.4 2.7 -3.7 3.3 -8.3 3.6 -4.5 0.4 -6 0.1 -8.8 -1.9 -8.9 -6.1 -11.2 -16.6 -5.9 -27.1 2.5 -4.9 7.1 -7.7 12.8 -7.7 4.2 0 11 2.9 11 4.7 0 0.5 0.7 1.6 1.4 2.6 1.3 1.6 1.7 1.6 8.2 -1.2 3.8 -1.6 7 -3.4 7.2 -3.9 0.6 -2 -6.6 -9.8 -11.8 -12.7 -5.1 -2.8 -6.3 -3 -15.5 -3 -8.4 0 -10.7 0.4 -14.6 2.3 -6.4 3.1 -11.7 8.5 -14.8 15.1 -2.2 4.8 -2.6 6.9 -2.6 14.6 0.1 7.7 0.5 9.8 2.8 14.5 3.4 7.2 8 11.5 15.3 14.5 7 2.9 17.3 3.3 25 1z m-53.6 -30.5 l0 -30 -8 0 -8 0 0 30 0 30 8 0 8 0 0 -30z m97.4 25 l1.8 -5.1 11 0.3 11 0.3 1.8 4.5 1.8 4.5 8.5 0.3 8.5 0.3 -11.2 -29.8 -11.2 -29.8 -8.9 -0.3 -9 -0.2 -10.7 28.2 c-5.9 15.6 -11.1 29.1 -11.4 30.1 -0.6 1.5 0.2 1.7 7.8 1.7 l8.4 0 1.8 -5z m-6.3 -145.2 l19.1 -38.3 -19.7 -38.8 -19.7 -38.8 -7.9 0.3 -8 0.3 -24.8 49 c-13.7 27 -29.1 57.2 -34.3 67.3 l-9.5 18.3 -16.2 -31 c-8.8 -17.1 -16.1 -31.4 -16.1 -31.7 0 -0.3 5.1 -10.3 11.4 -22.2 6.2 -11.9 13.7 -26.3 16.5 -31.9 l5.2 -10.2 -4.2 -6.1 c-2.4 -3.3 -4.5 -6 -4.9 -6 -0.3 0 -9.3 17.2 -20 38.3 l-19.4 38.2 20.1 39.5 20.1 39.5 7.4 0.3 7.4 0.3 8.5 -17.3 c10.5 -21.6 47.9 -95.8 55.2 -109.7 l5.5 -10.3 14.8 28.8 c8.2 15.8 15.5 30 16.3 31.4 1.3 2.6 0.6 4.2 -15.4 34.8 -11 21.3 -16.4 32.6 -15.8 33.5 2.3 3.8 7.7 10.7 8.4 10.7 0.5 0 9.5 -17.2 20 -38.2z"/>
  <path d="M271.2 297.8 c0.3 -0.7 1.8 -5.1 3.3 -9.8 l2.8 -8.5 2.9 8.5 c1.5 4.6 2.8 9 2.8 9.7 0 0.9 -1.8 1.3 -6.1 1.3 -4.5 0 -6 -0.3 -5.7 -1.2z"/>
 </g>
</svg>