<?xml version="1.0" encoding="utf-8"?>
<!-- Generator: Adobe Illustrator 25.1.0, SVG Export Plug-In . SVG Version: 6.00 Build 0)  -->
<svg version="1.1" id="레이어_1" xmlns="http://www.w3.org/2000/svg" xmlns:xlink="http://www.w3.org/1999/xlink" x="0px"
	 y="0px" viewBox="0 0 670.7 670.7" style="enable-background:new 0 0 670.7 670.7;" xml:space="preserve">
<style type="text/css">
	.st0{fill:#030303;}
	.st1{fill:#FEFEFE;}
	.st2{fill:#FB3201;}
	.st3{fill:#A82A0E;}
	.st4{fill:#040404;}
</style>
<g>
	<g>
		<path class="st0" d="M0.08,335.28C0.08,224.66,0.1,114.03,0,3.41c0-2.98,0.84-3.39,3.54-3.39C224.79,0.09,446.04,0.09,667.29,0
			c2.98,0,3.39,0.84,3.39,3.54c-0.07,221.25-0.07,442.5,0.02,663.75c0,2.98-0.84,3.39-3.54,3.39
			c-221.25-0.07-442.5-0.07-663.75,0.02c-2.98,0-3.39-0.84-3.39-3.54C0.09,556.53,0.08,445.91,0.08,335.28z"/>
		<path class="st1" d="M89.52,269.27c5.74-4.66,10.53-8.58,15.35-12.47c21.42-17.28,42.86-34.53,64.22-51.88
			c1.8-1.46,3.52-2.02,5.78-2.01c17.09,0.07,34.19,0.07,51.28-0.01c2.18-0.01,3.66,0.63,5.22,2.21
			c11.29,11.46,22.77,22.74,34.04,34.21c1.92,1.95,2.83,1.73,4.62-0.08c13.7-13.85,27.56-27.54,41.25-41.41
			c2.01-2.04,3.06-2.24,5.19-0.07c13.13,13.36,26.49,26.48,39.6,39.85c2.42,2.47,3.62,2.84,6.28,0.13
			c16.83-17.12,33.88-34.02,50.84-51.01c0.87-0.87,1.53-1.97,2.29-2.96c0.35,0.15,0.71,0.31,1.06,0.46c0,4.42,0,8.85,0,13.27
			c0.01,60.58,0.03,121.16-0.03,181.74c0,2.56,0.56,3.49,3.29,3.42c7.54-0.19,15.08-0.2,22.62,0c2.78,0.07,3.28-0.96,3.29-3.45
			c0.13-42.36,0.35-84.71,0.49-127.07c0.01-2.15,0.45-3.77,2.03-5.35c20.58-20.48,41.09-41.03,61.62-61.56
			c0.34-0.34,0.72-0.64,1.29-1.15c0.75,1.4,0.42,2.77,0.42,4.06c0.02,63.1,0.05,126.19-0.06,189.29c-0.01,3.43,0.81,4.4,4.3,4.33
			c11.81-0.24,23.63-0.08,35.44-0.13c1.83-0.01,3.29,0.28,4.68,1.72c20.49,21.27,41.05,42.47,61.59,63.69
			c0.4,0.42,1.01,0.76,0.87,1.6c-0.97,0.71-2.12,0.33-3.18,0.33c-74.28,0.01-148.57-0.02-222.85,0.04c-2.59,0-4.42-0.69-6.24-2.55
			c-8.97-9.15-18.15-18.11-27.11-27.28c-1.88-1.92-2.82-1.78-4.64,0.05c-12.46,12.6-25.09,25.03-37.56,37.63
			c-1.85,1.87-2.8,1.84-4.65-0.03c-14.32-14.48-28.8-28.79-43.1-43.28c-1.99-2.02-2.95-2.02-4.94,0.01
			c-11.27,11.48-22.73,22.77-34.05,34.21c-1.62,1.64-3.22,2.35-5.57,2.33c-16.59-0.1-33.18-0.05-49.77-0.01
			c-1.43,0-2.59-0.23-3.77-1.21c-25.5-21.22-51.05-42.39-76.57-63.57c-0.25-0.21-0.4-0.54-0.68-0.94c1.12-0.72,2.25-0.4,3.3-0.4
			c16.59-0.02,33.19-0.06,49.78,0.06c2.67,0.02,3.34-0.75,3.33-3.37c-0.08-36.07-0.09-72.15,0.01-108.22
			c0.01-2.72-0.85-3.3-3.4-3.29c-17.47,0.11-34.94,0.07-52.41,0.07C93.11,269.27,91.91,269.27,89.52,269.27z"/>
		<path class="st2" d="M101.07,414.97c18.69,15.82,36.55,32.57,54.79,48.9c6.97,6.23,13.99,12.4,20.84,18.76
			c2.05,1.9,3.28,1.7,5.11-0.24c4.38-4.65,9.03-9.04,13.46-13.65c1.76-1.83,2.76-2.22,4.58,0.18c6.88,9.13,14.04,18.06,21.49,27.58
			c14.98-23.09,29.88-46.06,45.16-69.62c13.55,28.07,26.87,55.65,40.61,84.12c12.65-22.95,24.85-45.1,37.35-67.76
			c6.68,11.09,13.08,21.57,19.31,32.15c1.49,2.54,3.19,3.63,6.26,3.62c42.49-0.09,84.97-0.07,127.46,0c2.67,0,4.35-0.8,5.86-3.08
			c3.57-5.38,7.53-10.51,11.2-15.82c1.39-2.01,2.32-1.96,3.94-0.2c3.04,3.29,6.5,6.2,9.45,9.55c2.04,2.31,4.26,2.96,7.23,2.94
			c24.38-0.17,48.77-0.2,73.16-0.27c2.63-0.01,5.27,0,8.86,0c-3.26,2.07-6.19,2.15-8.8,2.77c-18.47,4.38-37.01,8.43-55.51,12.68
			c-7.42,1.7-14.8,3.62-22.18,5.49c-1.91,0.48-3.19,0.13-4.48-1.61c-2.13-2.89-4.67-5.48-7.08-8.15c-1.31-1.46-2.22-1.77-3.66,0.33
			c-3.73,5.42-7.96,10.49-11.78,15.85c-1.63,2.29-3.47,3.03-6.25,3.02c-33.81-0.1-67.63-0.06-101.44-0.07
			c-12.57,0-25.14-0.09-37.71,0.07c-2.66,0.03-4.05-0.96-5.25-3.12c-1.82-3.26-3.88-6.39-5.86-9.56c-2.27-3.64-2.28-3.62-4.46,0.19
			c-8.78,15.34-17.55,30.67-26.34,46c-2.17,3.78-4.37,7.54-6.64,11.26c-0.46,0.76-0.5,2.16-1.93,1.94
			c-1.04-0.16-1.18-1.16-1.55-1.95c-8.57-18.13-17.14-36.26-25.72-54.38c-4.05-8.56-8.11-17.13-12.2-25.68
			c-0.41-0.85-1.1-1.55-1.77-2.48c-10.49,13.18-20.79,26.1-31.06,39.05c-4.33,5.45-8.66,10.91-12.85,16.46
			c-1.64,2.17-2.58,1.3-3.73-0.33c-5.53-7.81-11.19-15.54-16.59-23.44c-1.68-2.46-2.67-2.53-4.7-0.38
			c-4.79,5.07-9.97,9.77-14.72,14.87c-2.19,2.35-3.2,1.81-5-0.38c-16.44-19.98-32.93-39.92-49.54-59.75
			c-9.42-11.24-18.31-22.93-28.38-33.62c-0.3-0.32-0.31-0.92-0.46-1.39C99.48,414.48,100.12,414.43,101.07,414.97z"/>
		<path class="st3" d="M101.07,414.97c-0.69-0.05-1.21,0.22-1.54,0.83c-2.86-2.38-4.9-5.45-7.07-8.43
			C95.61,409.61,99.2,411.32,101.07,414.97z"/>
		<path class="st4" d="M136.21,397.99c9.6,0,18.14-0.09,26.68,0.06c2.49,0.04,3.13-0.67,3.12-3.15
			c-0.07-45.88-0.07-91.75,0.01-137.63c0-2.43-0.78-2.92-3.01-2.88c-7.66,0.13-15.32,0.05-22.99,0.05c-0.35-1.47,0.87-1.8,1.54-2.36
			c11.05-9.32,22.15-18.57,33.17-27.91c1.63-1.38,3.25-2.04,5.42-2.02c13.2,0.09,26.4,0.09,39.59,0c2.07-0.01,3.5,0.62,4.94,2.07
			c10.26,10.36,20.57,20.66,30.94,30.92c1.47,1.45,2,2.93,2,4.97c-0.01,43.87,0.02,87.73,0.12,131.6c0.01,2.33-0.67,3.98-2.33,5.61
			c-10.92,10.76-21.77,21.6-32.58,32.47c-1.42,1.43-2.82,2.16-4.91,2.14c-12.95-0.1-25.89-0.07-38.84-0.04
			c-1.69,0-3.13-0.27-4.5-1.43c-12.18-10.31-24.41-20.56-36.63-30.83C137.61,399.34,137.29,399.01,136.21,397.99z"/>
		<path class="st4" d="M273.25,326.18c0-20.49,0.04-40.98-0.04-61.47c-0.01-2.42,0.59-4.2,2.37-5.95
			c11.55-11.38,23.04-22.83,34.4-34.4c1.99-2.02,2.97-2.05,4.97-0.01c13.59,13.78,27.3,27.45,41.06,41.07c1.8,1.78,2.1,2.8,0.1,4.7
			c-5.91,5.63-11.69,11.42-17.34,17.32c-1.68,1.75-2.54,1.56-4.09-0.05c-4.27-4.43-8.77-8.65-13.1-13.03
			c-1.33-1.34-2.71-1.98-4.63-1.91c-3.89,0.13-7.8,0.14-11.69,0c-2.05-0.07-2.83,0.41-2.81,2.66c0.1,10.18,0.05,20.36-0.07,30.54
			c-0.03,2.26,0.63,3.02,2.98,2.98c8.67-0.14,17.35,0,26.02-0.1c2.16-0.03,3.76,0.51,5.29,2.11c4.7,4.9,9.5,9.7,14.4,14.4
			c1.59,1.53,1.89,2.45,0.15,4.16c-4.66,4.58-9.18,9.31-13.59,14.13c-1.35,1.47-2.72,1.9-4.6,1.88c-9.18-0.08-18.35,0.04-27.53-0.11
			c-2.51-0.04-3.51,0.44-3.46,3.23c0.18,9.3,0.13,18.6,0.04,27.91c-0.02,2.29,0.38,3.71,3.07,3.17c0.12-0.02,0.25,0,0.38-0.01
			c5.46-0.41,11.53,1.8,16.24-0.91c4.63-2.66,8.13-7.41,11.85-11.5c2.02-2.22,3.19-2.12,5.22,0.02
			c5.71,6.01,11.63,11.83,17.58,17.61c1.65,1.6,2.06,2.55,0.14,4.41c-13.17,12.79-26.23,25.68-39.24,38.62
			c-1.57,1.57-2.44,1.77-4.2,0.14c-12.31-11.3-24.71-22.51-37.19-33.63c-2.08-1.85-2.78-3.79-2.76-6.52
			C273.29,367.16,273.24,346.67,273.25,326.18z"/>
		<path class="st4" d="M573.41,429.74c-2.18,0-4.53,0-6.87,0c-21.5,0-42.99-0.04-64.49,0.05c-2.7,0.01-4.67-0.64-6.62-2.63
			c-10.74-10.94-21.61-21.77-32.52-32.54c-1.66-1.64-2.3-3.3-2.3-5.61c0.06-43.87,0.04-87.74,0.05-131.62
			c0-1.46-0.27-2.93,1.15-4.14c11.25-9.63,22.45-19.33,33.65-28.99c1.26,0.85,0.73,1.96,0.75,2.86
			c0.92,56.18,1.84,112.36,2.61,168.55c0.05,3.39,0.84,4.42,4.35,4.36c12.94-0.21,25.89-0.06,38.84-0.05c1.5,0,2.87-0.06,4.13,1.22
			c8.92,9.03,17.93,17.98,26.9,26.96C573.38,428.5,573.82,428.83,573.41,429.74z"/>
		<path class="st4" d="M477.79,429.81c-0.79,0-1.74,0-2.7,0c-25.51,0-51.03-0.04-76.54,0.05c-2.47,0.01-4.21-0.7-5.93-2.46
			c-7.56-7.72-15.22-15.35-22.93-22.92c-1.56-1.53-2.19-3.09-2.18-5.28c0.06-46.75,0.05-93.5,0.04-140.26
			c0-1.51-0.01-2.89,1.24-4.13c10.88-10.78,21.71-21.63,32.7-32.62c1,1.41,0.55,2.81,0.55,4.08c0.02,56.05,0.04,112.1-0.09,168.16
			c-0.01,3.51,0.94,4.23,4.31,4.18c13.19-0.22,26.39-0.09,39.59-0.09c1.5,0,2.88-0.04,4.12,1.25c9.13,9.52,18.34,18.97,27.52,28.45
			C477.83,428.55,478.24,428.91,477.79,429.81z"/>
		<path class="st1" d="M201.27,398.78c0-48.27,0-95.98,0-143.79c1.57,0.31,2.19,1.5,3.04,2.34c4.2,4.14,7.96,8.85,12.61,12.4
			c8.26,6.3,10.53,14.09,10.31,24.32c-0.51,24.47,0.2,48.96,0.59,73.44c0.05,3.5-0.76,6.04-3.42,8.52
			c-6.87,6.43-13.39,13.24-20.06,19.89C203.47,396.76,202.56,397.57,201.27,398.78z"/>
	</g>
</g>
</svg>
