<svg id="레이어_1" data-name="레이어 1" xmlns="http://www.w3.org/2000/svg" viewBox="0 0 1665.12 1665.12"><defs><style>.cls-1{fill:#fefefe;}.cls-2{fill:#a9a9a9;}.cls-3{fill:#aaa;}.cls-4{fill:#ababab;}.cls-5{fill:#cecece;}.cls-6{fill:#cfcfcf;}.cls-7{fill:#dadada;}.cls-8{fill:#dbdbdb;}.cls-9{fill:#dcdcdc;}.cls-10{fill:#4b4b4b;}.cls-11{fill:#373737;}.cls-12{fill:#404040;}.cls-13{fill:#2e2e2e;}.cls-14{fill:#3f3f3f;}.cls-15{fill:#aeaeae;}.cls-16{fill:#717171;}.cls-17{fill:silver;}.cls-18{fill:#8e8e8e;}.cls-19{fill:#9a9a9a;}.cls-20{fill:#cbcbcb;}.cls-21{fill:#a3a3a3;}.cls-22{fill:#929292;}.cls-23{fill:#a6a6a6;}.cls-24{fill:#4f4f4f;}.cls-25{fill:#c4c4c4;}.cls-26{fill:#ccc;}.cls-27{fill:#313131;}.cls-28{fill:#303030;}.cls-29{fill:#333;}.cls-30{fill:#1d1d1d;}.cls-31{fill:#3c3c3c;}.cls-32{fill:#393939;}.cls-33{fill:#2a2a2a;}.cls-34{fill:#343434;}.cls-35{fill:#1a1a1a;}.cls-36{fill:#1f1f1f;}.cls-37{fill:#4d4d4d;}.cls-38{fill:#5b5b5b;}.cls-39{fill:#757575;}.cls-40{fill:#868686;}.cls-41{fill:#616161;}.cls-42{fill:#575757;}.cls-43{fill:#545454;}.cls-44{fill:#444;}.cls-45{fill:#505050;}.cls-46{fill:#383838;}.cls-47{fill:#555;}.cls-48{fill:#848484;}.cls-49{fill:#5e5e5e;}.cls-50{fill:#525252;}.cls-51{fill:#969696;}.cls-52{fill:#9d9d9d;}.cls-53{fill:#d6d6d6;}.cls-54{fill:#cacaca;}.cls-55{fill:#989898;}.cls-56{fill:#e4e4e4;}.cls-57{fill:#fff;}</style></defs><path class="cls-1" d="M1792.12,112V229.09c-1.57.16-2.27-1.05-3-2-3.24-4.38-7.77-6-13-6-32.43-.11-64.85-.18-97.28,0-10.08.07-14.81,5.22-14.85,15.35q-.09,26.6,0,53.19c0,10,4.71,14.77,14.64,14.79,32.43.06,64.85,0,97.28,0,5.8,0,10.74-1.39,13.88-6.73a2.26,2.26,0,0,1,2.28-1.42v119c-1.57.16-2.27-1.06-3-2-3.24-4.38-7.77-6-13-6-32.43-.11-64.85-.18-97.28,0-10.08.07-14.81,5.22-14.85,15.35q-.09,26.6,0,53.19c0,10,4.71,14.76,14.64,14.78,32.43.07,64.85,0,97.28.05,5.8,0,10.74-1.39,13.88-6.73a2.25,2.25,0,0,1,2.28-1.42v119c-1.57.17-2.27-1.05-3-2-3.24-4.38-7.78-6-13-6-32.45-.11-64.91-.18-97.36,0-9.77.07-14.7,5.32-14.75,15q-.13,27.1,0,54.2c.06,9.79,4.88,14.91,14.75,15,32.45.22,64.91.15,97.36,0,5.19,0,9.73-1.65,13-6,.72-1,1.42-2.2,3-2V784.77c-1.57.16-2.27-1-3-2-3.24-4.38-7.77-6-13-6-32.43-.12-64.85-.18-97.28,0-10.08.07-14.81,5.22-14.85,15.35q-.09,26.59,0,53.19c0,10,4.71,14.77,14.64,14.79,32.43.06,64.85,0,97.28,0,5.8,0,10.74-1.39,13.88-6.73a2.26,2.26,0,0,1,2.28-1.42V968.08a2.26,2.26,0,0,1-2.28-1.42c-3.14-5.35-8.09-6.74-13.88-6.74-32.43.05-64.86,0-97.29.05-9.94,0-14.59,4.78-14.63,14.8q-.09,26.61,0,53.2c0,10.12,4.79,15.26,14.89,15.33,32.58.22,65.18.11,97.77.06a14.73,14.73,0,0,0,12.12-5.7c.85-1.07,1.53-2.53,3.3-2.4v336.86H1455.26c-.11-2.18,1.76-2.89,3-4a13.48,13.48,0,0,0,5.08-10.89c0-33.25.08-66.49-.05-99.73,0-9-4.84-14.16-13.88-14.34q-27.32-.56-54.65,0c-10,.21-14.72,5.61-14.82,16.21-.17,18.85,0,37.71,0,56.57,0,12,.13,24,0,36-.11,7.43,1,14.06,8.15,18.16a1.94,1.94,0,0,1,1,2H1272.91a1.43,1.43,0,0,1,.16-1.65c6.47-4.47,8.12-10.82,8.06-18.38-.2-30.38-.07-60.77-.09-91.16,0-12.9-4.8-17.8-17.61-17.85q-24.48-.12-48.94,0c-12.25,0-16.88,4.66-16.89,16.79,0,31.19.09,62.37-.09,93.56,0,6.67,1.08,12.37,7,16.27a2.34,2.34,0,0,1,1.21,2.43H1089.6c-.1-2.17,1.76-2.89,3.05-4a13.44,13.44,0,0,0,5.08-10.88c0-33.39.1-66.78-.07-100.18,0-8.46-4.8-13.61-13.34-13.83q-28.27-.72-56.55,0c-8.56.21-13.4,5.64-13.43,14.32-.12,33.08,0,66.15-.06,99.22a13.87,13.87,0,0,0,5.47,11.67c1.2.94,2.82,1.69,2.67,3.66h-119a1.43,1.43,0,0,1,.16-1.65c6.47-4.47,8.11-10.82,8.06-18.38-.21-30.39-.07-60.77-.09-91.16,0-12.9-4.8-17.8-17.62-17.85q-24.46-.12-48.93,0c-12.25,0-16.88,4.66-16.89,16.79,0,31.19.09,62.37-.1,93.56,0,6.67,1.09,12.37,7,16.27a2.35,2.35,0,0,1,1.21,2.43h-119a1.43,1.43,0,0,1,.16-1.65c6.47-4.47,8.12-10.82,8.06-18.38-.2-30.39-.07-60.77-.09-91.16,0-12.9-4.8-17.8-17.61-17.85q-24.48-.12-48.94,0c-12.25,0-16.88,4.66-16.89,16.79,0,31.19.09,62.37-.09,93.56,0,6.67,1.08,12.37,7,16.27a2.34,2.34,0,0,1,1.21,2.43H533a1.44,1.44,0,0,1,.17-1.65c6.47-4.47,8.11-10.83,8.06-18.38-.21-30.39-.08-60.77-.09-91.16,0-12.9-4.81-17.8-17.62-17.85q-24.47-.12-48.94,0c-12.24,0-16.88,4.66-16.89,16.79,0,31.19.1,62.37-.09,93.56,0,6.67,1.08,12.37,7,16.27a2.35,2.35,0,0,1,1.2,2.43H127V1032.38c1.82-.22,2.37,1.3,3.24,2.38,3.46,6.23,8.8,8.71,15.87,8.69,31.49-.12,63,0,94.46-.08,11.85,0,16.43-4.79,16.45-16.72q0-25.65,0-51.31c0-10.89-4.54-15.38-15.5-15.39-32,0-63.94.06-95.9-.07-6.66,0-11.89,1.93-15.23,7.91-.93,1-1.61,2.47-3.38,2.21V850c1.78-.25,2.43,1.19,3.37,2.21,3.25,5.78,8.26,7.92,14.78,7.9,32.3-.11,64.61,0,96.92-.07,10.27,0,14.91-4.69,14.94-15q.08-26.4,0-52.78c0-10.46-4.76-15.53-15.15-15.58-32.15-.18-64.3-.09-96.45-.07-6.43,0-11.43,2.56-15,7.91-1,1-1.67,2.41-3.42,2.14v-120c1.82-.21,2.36,1.3,3.23,2.38,3.33,6.15,8.65,8.63,15.45,8.63,32,0,64,.1,96,0,10.46-.05,15.31-5.05,15.35-15.39q.12-26.87,0-53.74c-.05-9.88-4.78-15.06-14.6-15.13-32.47-.25-64.93-.13-97.4-.08-6.71,0-11.62,3-14.95,8.74-.81.91-1.68,1.69-3.05,1.29V480.54c1.78-.26,2.43,1.19,3.37,2.21,3.25,5.77,8.26,7.91,14.78,7.89,32.3-.1,64.61,0,96.92-.06,10.27,0,14.91-4.69,14.94-15q.08-26.38,0-52.78c0-10.45-4.76-15.52-15.15-15.58-32.15-.18-64.3-.08-96.45-.06-6.43,0-11.43,2.56-15,7.9-1,1-1.67,2.42-3.42,2.15V294.35c1.78-.25,2.43,1.19,3.37,2.21,3.25,5.78,8.26,7.92,14.78,7.9,32.3-.11,64.61,0,96.92-.07,10.27,0,14.91-4.69,14.94-15q.08-26.4,0-52.78c0-10.46-4.76-15.53-15.15-15.58-32.15-.18-64.3-.09-96.45-.07-6.43,0-11.43,2.56-15,7.91-1,1-1.67,2.41-3.42,2.14V110.08c1.78-.25,2.43,1.19,3.37,2.22,3.25,5.77,8.26,7.91,14.78,7.89,32.3-.1,64.61,0,96.92-.06,10.27,0,14.91-4.69,14.94-15q.08-26.39,0-52.78c0-10.46-4.76-15.52-15.15-15.58-32.15-.18-64.3-.08-96.45-.06-6.43,0-11.43,2.55-15,7.9-1,1-1.67,2.41-3.42,2.14V-293H466.74a1.52,1.52,0,0,1-.07,1.66,8,8,0,0,1-2.47,2.24c-4.72,3.06-6.63,7.41-6.6,13,.1,18.55,0,37.09,0,55.64,0,13.91-.05,27.82,0,41.73,0,10.67,4.83,15.6,15.53,15.7,17.42.16,34.85.13,52.28,0,10.07-.08,15.55-5.46,15.59-15.44.12-32.14,0-64.28.08-96.42,0-8.07-3.92-13.16-10.82-16.52a1.32,1.32,0,0,1-.24-1.61H651a1.54,1.54,0,0,1-.07,1.66,8.25,8.25,0,0,1-2.47,2.24c-4.73,3.06-6.63,7.41-6.6,13,.1,18.55,0,37.09,0,55.64,0,13.91,0,27.82,0,41.73.05,10.67,4.83,15.6,15.53,15.7,17.43.16,34.86.13,52.29,0,10.06-.08,15.55-5.46,15.59-15.44.11-32.14,0-64.28.08-96.42,0-8.07-3.92-13.16-10.82-16.52a1.31,1.31,0,0,1-.24-1.61H837.2a1.56,1.56,0,0,1-.07,1.66,8.16,8.16,0,0,1-2.48,2.24c-4.72,3.06-6.63,7.41-6.6,13,.1,18.55,0,37.09,0,55.64,0,13.91-.05,27.82,0,41.73,0,10.67,4.83,15.6,15.53,15.7,17.43.16,34.86.13,52.28,0,10.07-.08,15.56-5.46,15.59-15.44.12-32.14,0-64.28.09-96.42,0-8.07-3.93-13.16-10.82-16.52a1.29,1.29,0,0,1-.24-1.61h122.84a1.53,1.53,0,0,1-.07,1.67,8.35,8.35,0,0,1-2.47,2.23c-4.73,3.07-6.63,7.43-6.6,13,.1,18.71,0,37.42,0,56.13,0,13.75,0,27.5,0,41.26.06,10.65,4.85,15.57,15.57,15.67q26.14.22,52.29,0c10.71-.1,15.54-5,15.56-15.67.06-32.3-.15-64.61.15-96.91.07-7.53-4-11.71-9.16-15.73a1.55,1.55,0,0,1-.07-1.67h118a1.54,1.54,0,0,1-.07,1.66,8.25,8.25,0,0,1-2.47,2.24c-4.73,3.06-6.63,7.41-6.6,13,.1,18.55,0,37.09,0,55.64,0,13.91,0,27.82,0,41.73.05,10.67,4.83,15.6,15.53,15.7,17.43.16,34.86.13,52.29,0,10.06-.08,15.55-5.46,15.59-15.44.11-32.14,0-64.28.08-96.42,0-8.07-3.92-13.16-10.82-16.52A1.31,1.31,0,0,1,1270-293H1391a1.32,1.32,0,0,1-.25,1.61c-9.16,4.06-11,11.58-10.9,20.84.32,29.41.12,58.83.12,88.24a39.17,39.17,0,0,0,.44,7.65c1.35,6.8,5.89,11.34,12.83,11.5,19,.41,38,.51,57.06,0,8.49-.24,13-5.47,13.08-14.09.13-33.26.06-66.51.06-99.76a13.31,13.31,0,0,0-5.78-11.49,12.13,12.13,0,0,1-3.26-2.79,1.53,1.53,0,0,1-.06-1.67h337.82V44.82c-1.57.17-2.27-1-3-2-3.24-4.38-7.77-6-13-6-32.43-.11-64.85-.18-97.28,0-10.08.06-14.81,5.21-14.85,15.35q-.09,26.6,0,53.19c0,10,4.71,14.76,14.64,14.78,32.43.06,64.85,0,97.28,0,5.8,0,10.74-1.4,13.88-6.74A2.26,2.26,0,0,1,1792.12,112Z" transform="translate(-127 293)"/><path d="M1792.12,669.6c-3.45,7.13-9.27,9.56-17,9.52-32-.19-63.9-.09-95.85-.06a21.1,21.1,0,0,1-7.54-1,14.85,14.85,0,0,1-9.39-14.21c.16-16.29.05-32.58.05-48.88,0-2.71-.05-5.43,0-8.14.21-8.32,5.71-14.1,14-14.74,1-.07,1.92,0,2.88,0q48.39,0,96.8,0c5,0,9.43,1.13,13,4.85,1.33,1.38,1.68,3.3,3,4.61Z" transform="translate(-127 293)"/><path d="M1022.42,1372.12c-.63-1.27-2.09-1.27-3.09-2-4-2.84-6.46-6.56-6.63-11.58,0-1.28,0-2.56,0-3.84q0-47.7,0-95.41c0-2.39-.17-4.8.55-7.14a14.38,14.38,0,0,1,14-10.35c19.18-.14,38.36-.18,57.54,0,8.76.09,14.52,6.25,14.54,15.08.05,33.4,0,66.81,0,100.21,0,6.41-2.71,11-8.34,13.92-.55.29-1.24.35-1.44,1.08Z" transform="translate(-127 293)"/><path d="M1389,1372.12c-7.71-3.33-10.53-9.28-10.48-17.54.2-31.64.08-63.28.08-94.92,0-1.28,0-2.56.06-3.83.64-8.06,6.2-13.51,14.29-14,1-.06,1.92,0,2.87,0h52.26a22.94,22.94,0,0,1,6.17.61,14.07,14.07,0,0,1,10.7,13.13c.08,1.75,0,3.52,0,5.27,0,31-.2,62,.14,93,.09,8.37-2.28,14.55-9.89,18.35Z" transform="translate(-127 293)"/><path d="M1205.73,1372.12c-.37-1.1-1.53-1-2.3-1.48-4.74-2.87-7.37-7-7.43-12.56,0-3,0-6.07,0-9.11q0-45.08,0-90.15a22.94,22.94,0,0,1,.52-6.66,14.34,14.34,0,0,1,14-10.34c19-.14,38-.18,57.06,0,8.77.09,14.69,6.24,14.71,15q.12,50.34,0,100.7c0,6.45-3,11.31-9.27,13.71-.58.53-1.52.21-2,.87Z" transform="translate(-127 293)"/><path d="M836.24,1372.12c-.37-1.1-1.53-1-2.3-1.48-4.75-2.87-7.38-7-7.44-12.56,0-3,0-6.07,0-9.11q0-45.08,0-90.15a22.94,22.94,0,0,1,.52-6.66c1.86-6.24,7.3-10.25,14.52-10.37s14.7,0,22.05,0c10.87,0,21.74,0,32.61,0s16.65,5.7,16.65,16.51q0,48.9,0,97.82c0,7-2.38,12.46-9.32,15.15-.58.53-1.52.21-2,.87Z" transform="translate(-127 293)"/><path d="M650.05,1372.12c-.37-1.1-1.53-1-2.3-1.48-4.74-2.87-7.37-7-7.43-12.56,0-3,0-6.07,0-9.11q0-45.08,0-90.15a22.94,22.94,0,0,1,.52-6.66c1.86-6.24,7.31-10.25,14.52-10.37s14.7,0,22.06,0c10.87,0,21.73,0,32.6,0s16.65,5.7,16.66,16.51q0,48.9,0,97.82c0,7-2.38,12.46-9.32,15.15-.58.53-1.52.21-2,.87Z" transform="translate(-127 293)"/><path d="M465.78,1372.12c-.36-1.1-1.52-1-2.3-1.48-4.74-2.87-7.37-7-7.43-12.56,0-3,0-6.07,0-9.11q0-45.08,0-90.15a22.6,22.6,0,0,1,.53-6.66c1.85-6.24,7.3-10.25,14.51-10.37s14.71,0,22.06,0c10.87,0,21.74,0,32.61,0s16.65,5.7,16.65,16.51q0,48.9,0,97.82c0,7-2.39,12.46-9.33,15.15-.57.53-1.51.21-2,.87Z" transform="translate(-127 293)"/><path d="M1792.12,1035.26c-3.37,6.9-8.91,9.55-16.53,9.51-32-.18-64-.07-95.95-.08-1.12,0-2.24.06-3.36,0-8-.56-13.77-6.31-13.82-14.34q-.2-28.78,0-57.57c.06-8.61,5.91-14.38,14.59-14.4,33.74-.08,67.49,0,101.23,0,6.9,0,11.25,3.63,13.85,9.75Z" transform="translate(-127 293)"/><path d="M1792.12,112c-2.9,7-8.17,9.87-15.75,9.83-32.78-.16-65.56-.06-98.34-.08-7.7,0-12.63-3.3-14.91-9.67a14.87,14.87,0,0,1-.7-5.19c0-18.87-.09-37.74,0-56.61,0-8.62,5.73-14.36,14.31-14.87.8,0,1.6,0,2.4,0q48.45,0,96.9,0c3.41,0,6.7.37,9.71,2.11a16.81,16.81,0,0,1,6.37,7.34Z" transform="translate(-127 293)"/><path d="M1792.12,852c-2.9,7-8.17,9.86-15.75,9.83-32.78-.17-65.56-.06-98.34-.08-7.7,0-12.63-3.3-14.91-9.67a14.9,14.9,0,0,1-.7-5.19c0-18.87-.09-37.74,0-56.61,0-8.63,5.73-14.37,14.31-14.87.8-.05,1.6,0,2.4,0q48.45,0,96.9,0c3.41,0,6.7.38,9.71,2.11a16.89,16.89,0,0,1,6.37,7.35Z" transform="translate(-127 293)"/><path d="M1792.12,482.46c-2.9,7.05-8.17,9.86-15.75,9.82-32.78-.16-65.56-.06-98.34-.08-7.7,0-12.63-3.29-14.91-9.67a14.87,14.87,0,0,1-.7-5.19c0-18.87-.09-37.73,0-56.6,0-8.63,5.73-14.37,14.31-14.88.8,0,1.6,0,2.4,0q48.45,0,96.9,0c3.41,0,6.7.37,9.71,2.11a16.78,16.78,0,0,1,6.37,7.35Z" transform="translate(-127 293)"/><path d="M1792.12,296.27c-2.9,7.05-8.17,9.86-15.75,9.83-32.78-.17-65.56-.06-98.34-.08-7.7,0-12.63-3.3-14.91-9.67a14.87,14.87,0,0,1-.7-5.19c0-18.87-.09-37.74,0-56.61,0-8.63,5.73-14.37,14.31-14.87.8-.05,1.6,0,2.4,0q48.45,0,96.9,0c3.41,0,6.7.38,9.71,2.11a16.89,16.89,0,0,1,6.37,7.35Z" transform="translate(-127 293)"/><path class="cls-2" d="M127,970l1.9-1.94c1.15,1.14,1,2.58,1,4-.75,19.42-.51,38.84-.13,58.27,0,1.43.25,2.89-1,4l-1.79-2Z" transform="translate(-127 293)"/><path class="cls-3" d="M128.89,296.29,127,294.35V232.93a1.14,1.14,0,0,1,1.57.52c1.09,2.08.87,4.35.9,6.58.27,17.56-.52,35.14.45,52.7A4.22,4.22,0,0,1,128.89,296.29Z" transform="translate(-127 293)"/><path class="cls-3" d="M128.89,112,127,110.08V48.66a1.13,1.13,0,0,1,1.57.53c1.09,2.08.87,4.35.9,6.57.27,17.57-.52,35.14.45,52.71A4.21,4.21,0,0,1,128.89,112Z" transform="translate(-127 293)"/><path class="cls-3" d="M128.89,482.47,127,480.54V419.11a1.14,1.14,0,0,1,1.57.53c1.09,2.08.87,4.35.9,6.57.27,17.57-.52,35.15.45,52.71A4.2,4.2,0,0,1,128.89,482.47Z" transform="translate(-127 293)"/><path class="cls-3" d="M128.89,852,127,850V788.61a1.14,1.14,0,0,1,1.57.52c1.09,2.08.87,4.35.9,6.58.27,17.56-.52,35.14.45,52.7A4.22,4.22,0,0,1,128.89,852Z" transform="translate(-127 293)"/><path class="cls-3" d="M128.79,668.7l-1.79-2V605.3a1.13,1.13,0,0,1,1.57.53c1.16,2.24.87,4.67.9,7,.2,17.43-.36,34.85.32,52.27C129.84,666.44,129.87,667.73,128.79,668.7Z" transform="translate(-127 293)"/><path class="cls-4" d="M530.08-293a2.53,2.53,0,0,1,.07.82c-1.41,1.68-3.4,1.62-5.28,1.63q-25.51.12-51,0a9.42,9.42,0,0,1-4.64-.88,1.16,1.16,0,0,1-.55-1.59Z" transform="translate(-127 293)"/><path class="cls-4" d="M714.35-293a2.28,2.28,0,0,1,.06.82c-1.4,1.68-3.39,1.62-5.27,1.63q-25.51.12-51,0a9.4,9.4,0,0,1-4.63-.88,1.14,1.14,0,0,1-.55-1.59Z" transform="translate(-127 293)"/><path class="cls-4" d="M900.54-293a2.84,2.84,0,0,1,.06.82c-1.41,1.68-3.39,1.62-5.28,1.63q-25.5.12-51,0a9.42,9.42,0,0,1-4.64-.88,1.16,1.16,0,0,1-.55-1.59Z" transform="translate(-127 293)"/><path class="cls-3" d="M1025.3-293h61.42a1.14,1.14,0,0,1-.52,1.57c-1.92,1-4,.89-6.08.9q-24.11,0-48.22,0c-2.06,0-4.16.13-6.07-.89A1.15,1.15,0,0,1,1025.3-293Z" transform="translate(-127 293)"/><path class="cls-4" d="M1390.9-292.17a2.32,2.32,0,0,1,.06-.83h61.42a1.15,1.15,0,0,1-.55,1.58c-2.07,1.09-4.33.9-6.54.91-15.74,0-31.48,0-47.21,0C1395.6-290.54,1392.92-290,1390.9-292.17Z" transform="translate(-127 293)"/><path class="cls-4" d="M1270-293a2.28,2.28,0,0,1,.06.82c-1.4,1.68-3.39,1.62-5.27,1.63q-25.52.12-51,0a9.4,9.4,0,0,1-4.63-.88,1.2,1.2,0,0,1-.55-1.59Z" transform="translate(-127 293)"/><path class="cls-5" d="M128.07,48.7l-1.07,0V46.74l1.94-1.91C130.12,46.45,129.71,47.71,128.07,48.7Z" transform="translate(-127 293)"/><path class="cls-5" d="M128.07,233l-1.07,0V231l1.94-1.91C130.12,230.72,129.71,232,128.07,233Z" transform="translate(-127 293)"/><path class="cls-5" d="M128.07,788.64l-1.07,0v-1.92l1.94-1.91C130.12,786.39,129.71,787.66,128.07,788.64Z" transform="translate(-127 293)"/><path class="cls-5" d="M128.07,419.15l-1.07,0V417.2l1.94-1.92C130.12,416.9,129.71,418.16,128.07,419.15Z" transform="translate(-127 293)"/><path class="cls-6" d="M128.07,605.34l-1.07,0v-1.92l1.75-1C130,603.69,129.26,604.57,128.07,605.34Z" transform="translate(-127 293)"/><path class="cls-7" d="M1452.41-292.17c0-.28,0-.55,0-.83h1.92v1A1.31,1.31,0,0,1,1452.41-292.17Z" transform="translate(-127 293)"/><path class="cls-8" d="M1208.61-293c0,.28,0,.56,0,.83a1.29,1.29,0,0,1-1.88.13,7.69,7.69,0,0,0,0-1Z" transform="translate(-127 293)"/><path class="cls-7" d="M1086.76-292.17c0-.28,0-.55,0-.83h1.92v1A1.3,1.3,0,0,1,1086.76-292.17Z" transform="translate(-127 293)"/><path class="cls-9" d="M1025.3-293a7.87,7.87,0,0,1,0,.84,1.3,1.3,0,0,1-1.88.13v-1Z" transform="translate(-127 293)"/><path class="cls-8" d="M839.11-293c0,.28,0,.56,0,.83a1.29,1.29,0,0,1-1.88.13q0-.48,0-1Z" transform="translate(-127 293)"/><path class="cls-8" d="M652.93-293c0,.28,0,.56,0,.83A1.29,1.29,0,0,1,651-292a7.69,7.69,0,0,0,0-1Z" transform="translate(-127 293)"/><path class="cls-8" d="M468.66-293c0,.28,0,.56,0,.83a1.29,1.29,0,0,1-1.88.13,7.69,7.69,0,0,0,0-1Z" transform="translate(-127 293)"/><path class="cls-10" d="M1271,1372.12a1.51,1.51,0,0,1,2-.87,1.84,1.84,0,0,0-.12.87Z" transform="translate(-127 293)"/><path class="cls-10" d="M531,1372.12a1.51,1.51,0,0,1,2-.87,1.84,1.84,0,0,0-.12.87Z" transform="translate(-127 293)"/><path class="cls-10" d="M715.31,1372.12a1.51,1.51,0,0,1,2-.87,1.84,1.84,0,0,0-.12.87Z" transform="translate(-127 293)"/><path class="cls-10" d="M901.5,1372.12a1.51,1.51,0,0,1,2-.87,1.84,1.84,0,0,0-.12.87Z" transform="translate(-127 293)"/><path d="M128.07,605.34a4.31,4.31,0,0,0,.68-3C131.6,595,137.1,592,144.82,592c32.47.08,64.93,0,97.4,0,.79,0,1.6,0,2.39,0,8.28.61,14,6.42,14,14.7q.13,28.79,0,57.58c0,8.46-6,14.4-14.47,14.66-5.59.17-11.19,0-16.79,0-27.51,0-55,0-82.52,0-7.72,0-13.25-3-16-10.37-.74-4.57-.54-9.17-.56-13.77Q128.16,630.14,128.07,605.34Z" transform="translate(-127 293)"/><path d="M1023.38-292l1.88-.13h61.5l1.88.14c.57.29,1.13.6,1.71.86,6,2.68,9,7.29,9,13.92q0,50.34,0,100.69c0,8.73-6,14.62-14.76,14.86-3.83.11-7.67,0-11.51,0-14.86,0-29.72,0-44.59,0-7.51,0-12.63-3.44-15-9.68a15.4,15.4,0,0,1-.78-5.65c0-33.24,0-66.49,0-99.73C1012.62-284.51,1016.47-289.28,1023.38-292Z" transform="translate(-127 293)"/><path d="M466.74-292l1.88-.13h61.53c8.84,2.69,12.24,7.21,12.24,16.42,0,32.45-.16,64.9.11,97.35.08,9.51-6,17-17,16.83-17.73-.36-35.48-.12-53.22-.08a17.34,17.34,0,0,1-8.36-1.66c-4.73-2.5-7.5-6.39-7.8-11.8-.17-3.18-.08-6.39-.08-9.58,0-30.54.05-61.07,0-91.6,0-7.41,3-12.55,9.91-15.28A5.73,5.73,0,0,0,466.74-292Z" transform="translate(-127 293)"/><path d="M651-292l1.88-.13h61.52c8.84,2.69,12.25,7.21,12.25,16.42,0,32.45-.16,64.9.11,97.35.08,9.51-6,17-17,16.83-17.74-.36-35.48-.12-53.23-.08a17.39,17.39,0,0,1-8.36-1.66c-4.72-2.5-7.5-6.39-7.79-11.8-.18-3.18-.08-6.39-.08-9.58,0-30.54.05-61.07,0-91.6,0-7.41,3-12.55,9.92-15.28A5.73,5.73,0,0,0,651-292Z" transform="translate(-127 293)"/><path d="M837.2-292l1.88-.13H900.6c8.84,2.69,12.24,7.21,12.25,16.42,0,32.45-.17,64.9.1,97.35.08,9.51-6,17-17,16.83-17.74-.36-35.49-.12-53.23-.08a17.37,17.37,0,0,1-8.36-1.66c-4.73-2.5-7.5-6.39-7.8-11.8-.17-3.18-.08-6.39-.08-9.58,0-30.54.06-61.07,0-91.6,0-7.41,3-12.55,9.92-15.28A6.29,6.29,0,0,0,837.2-292Z" transform="translate(-127 293)"/><path d="M1206.69-292l1.88-.13h61.52c8.84,2.69,12.25,7.21,12.25,16.42,0,32.45-.16,64.9.11,97.35.08,9.51-6,17-17,16.83-17.74-.36-35.48-.12-53.23-.08a17.39,17.39,0,0,1-8.36-1.66c-4.72-2.5-7.5-6.39-7.79-11.8-.18-3.18-.08-6.39-.08-9.58,0-30.54,0-61.07,0-91.6,0-7.41,3-12.55,9.92-15.28A5.73,5.73,0,0,0,1206.69-292Z" transform="translate(-127 293)"/><path d="M1452.41-292.17l1.89.14c3.29,1.35,6.32,3,8.35,6.13a14.35,14.35,0,0,1,2.38,8.13c0,33.73,0,67.46,0,101.18,0,8.78-5.91,14.69-14.72,14.88-6.55.14-13.1,0-19.66,0-11.83,0-23.65,0-35.48,0-10.58,0-16.45-5.74-16.47-16.22q-.08-49.15,0-98.31c0-8.74,3.66-13.38,12.24-16Z" transform="translate(-127 293)"/><path d="M128.07,48.7a7,7,0,0,0,.87-3.87c3.27-6.84,8.79-9.52,16.26-9.5,32.27.12,64.55.06,96.83.05a22.38,22.38,0,0,1,5.7.56c6.45,1.7,10.83,6.8,10.87,13.46q.15,29.24,0,58.48c-.06,8-6,13.67-14.12,13.85-5.59.12-11.19,0-16.78,0-27.8,0-55.6-.08-83.41,0-7.44,0-12.53-2.94-15.38-9.79-.89-5.51-.64-11.07-.66-16.62Q128.16,72,128.07,48.7Z" transform="translate(-127 293)"/><path d="M128.07,419.15a7,7,0,0,0,.87-3.87c3.27-6.84,8.79-9.52,16.26-9.49,32.27.12,64.55,0,96.83,0a22.37,22.37,0,0,1,5.7.55c6.45,1.7,10.83,6.8,10.87,13.46q.15,29.23,0,58.48c-.06,8-6,13.68-14.12,13.85-5.91.13-11.82,0-17.74,0-27.48,0-55-.08-82.45.06-7.44,0-12.53-2.95-15.38-9.8-.89-5.51-.64-11.07-.66-16.62Q128.16,442.49,128.07,419.15Z" transform="translate(-127 293)"/><path d="M128.07,788.64a6.93,6.93,0,0,0,.87-3.86c3.27-6.85,8.79-9.53,16.26-9.5,32.11.12,64.23.05,96.35.05a23.89,23.89,0,0,1,6.18.56c6.45,1.7,10.83,6.79,10.87,13.45q.15,29.25,0,58.49c-.06,8-6,13.68-14.12,13.85-5.91.12-11.82,0-17.74,0-27.48,0-55-.09-82.45,0-7.44,0-12.53-2.94-15.38-9.79-.89-5.52-.64-11.08-.66-16.62Q128.16,812,128.07,788.64Z" transform="translate(-127 293)"/><path d="M128.07,233a6.93,6.93,0,0,0,.87-3.86c3.27-6.85,8.79-9.53,16.26-9.5,32.27.12,64.55.05,96.83.05a21.94,21.94,0,0,1,5.7.56c6.45,1.69,10.83,6.79,10.87,13.45q.15,29.25,0,58.49c-.06,8-6,13.67-14.12,13.85-5.91.12-11.82,0-17.74,0-27.48,0-55-.09-82.45.05-7.44,0-12.53-2.94-15.38-9.79-.89-5.52-.64-11.08-.66-16.62Q128.16,256.32,128.07,233Z" transform="translate(-127 293)"/><path d="M128.79,1034.36c-.79-5.54-.54-11.11-.55-16.67q0-17,0-33.93c0-5.24-.21-10.49.66-15.7,2.86-6.83,8-9.82,15.39-9.79q49.36.18,98.73,0c5.12,0,9.41,1.45,12.64,5.52a13.19,13.19,0,0,1,3,8.4c0,19.49.08,39-.05,58.47,0,7.49-5.6,13.13-13.17,13.94a31.22,31.22,0,0,1-3.35.07c-32.43,0-64.86,0-97.29,0C137.07,1044.75,131.53,1041.81,128.79,1034.36Z" transform="translate(-127 293)"/><path class="cls-11" d="M388.14-129.69c7,0,14.07-.13,21.11-.13q552.69,0,1105.39,0c6.08,0,12.15.08,18.23.13,11.59,2.53,23.31,4.47,34,10.22,3.26,1.76,7.05,2.49,9.31,5.82a2.84,2.84,0,0,1-2,1.1c-4.45-.24-7.94-3.09-11.87-4.67-7.71-3.1-15.31-6.23-23.69-7-5-.42-9.22-4.5-14.63-3.22-4,.1-8,.07-12,.07H407.19c-5.75,0-11.37,0-16.95,2.25s-12.05,1.22-18,2.64c-1,.23-2.09.39-3.11.65-.44.16-.91.28-1.37.4-1.11.28-2.2.66-3.31,1a6.68,6.68,0,0,1-2.85.1,2,2,0,0,1-1.62-1.35c1.85-1.94,4.44-2.53,6.81-3.09C373.92-126.4,380.89-128.66,388.14-129.69Z" transform="translate(-127 293)"/><path class="cls-12" d="M1631.72-32.75c0,11,.12,22.07.12,33.1q0,537.3,0,1074.61c0,13-.09,25.9-.13,38.85a57.89,57.89,0,0,1-4.3,14.63,2.11,2.11,0,0,1-1.07-1,12.71,12.71,0,0,1-.48-5.13,9.53,9.53,0,0,1,.33-2c.22-.82.51-1.62.65-2.47a17.46,17.46,0,0,1,.43-2.38,10.69,10.69,0,0,1,.68-1.64c.17-.35.36-.69.56-1s.42-.66.64-1,.17-.35.25-.54a6.64,6.64,0,0,0,.27-1.89c0-1.29-.15-2.56-.24-3.84-.14-2.89-.11-5.77-.11-8.65V-11.51c0-2.56,0-5.12,0-7.67.27-2.66.22-5.34.25-8,0-.45,0-.91,0-1.36a5.15,5.15,0,0,0-.34-1.82,11.93,11.93,0,0,0-1.07-1.49,5.28,5.28,0,0,1-1-1.65,8.4,8.4,0,0,1-.35-2,19,19,0,0,0-.73-5.47,22.28,22.28,0,0,1-.26-6,4.9,4.9,0,0,1,.4-1.5,1.88,1.88,0,0,1,1.13-1A59.41,59.41,0,0,1,1631.72-32.75Z" transform="translate(-127 293)"/><path class="cls-13" d="M288.39,1102.37c0-4.15-.1-8.31-.11-12.47q0-550.31,0-1100.62c0-6.4.07-12.8.11-19.19.86-5.33,2.53-10.49,3.25-15.85a2.77,2.77,0,0,1,.76-1.44,1.73,1.73,0,0,1,1.64-.27,3.86,3.86,0,0,1,1,1.55,92.75,92.75,0,0,1-3.08,26.07,31.67,31.67,0,0,0-1.17,8c0,2.08,0,4.16,0,6.24q0,544.86,0,1089.72c0,3.84.05,7.68,0,11.52-.33,2.06,0,4.23-.88,6.21A1,1,0,0,1,288.39,1102.37Z" transform="translate(-127 293)"/><path class="cls-14" d="M1521.46,1209.77c-1.75,0-3.51.15-5.27.15h-1117c-4,0-8-.09-12-.14a1,1,0,0,1,.48-1.43c2-1,4.13-.58,6.2-.84,2.88-.19,5.76-.1,8.64-.1q554.1,0,1108.19,0c3.33,0,6.73-.51,10,.79A1.42,1.42,0,0,1,1521.46,1209.77Z" transform="translate(-127 293)"/><path class="cls-15" d="M1576.23-113.56c-4.11-3.25-9-5.24-13.74-7-5.51-2.1-10.83-5.26-17-5.31-4.54,0-8.45-2.3-12.57-3.78,4.37-.12,8.93-1.39,12.69,2.14a.69.69,0,0,0,.42.2c5.64-.43,10.32,2.6,15.41,4.18a21.21,21.21,0,0,1,5.15,2.29c3.18,2,6.72,3.28,10,5.27a131.74,131.74,0,0,1,19,13.83c6.19,5.54,11.13,12.09,16.79,18,1.29,1.35,1.33,3.22,2.3,4.67a2.69,2.69,0,0,0,.94,1h0a3.81,3.81,0,0,0,.94,1h0c.51.56.35,1.41.86,2a6.19,6.19,0,0,1,.15.86c.47.57.24,1.49,1,1.93v0a10.62,10.62,0,0,1,1.85,2h0a3.3,3.3,0,0,1,.33,2.72,1.39,1.39,0,0,1-1.23.44c-3.63-2.49-4.7-6.76-6.82-10.23-5.55-9.1-12.78-16.59-20.7-23.53a8.27,8.27,0,0,1-1.06-.78,46.9,46.9,0,0,0-10.66-8.13,14.08,14.08,0,0,1-2.1-1.34,8.31,8.31,0,0,1-1.66-1.79C1576.36-113.18,1576.29-113.37,1576.23-113.56Z" transform="translate(-127 293)"/><path class="cls-16" d="M288.39,1102.37l.67.26c1.18.83,1.23,2.12,1.35,3.37s0,2.39,0,3.58c-.34,2.8.86,5.19,2.1,7.56a7,7,0,0,1,.44,1.29c.34,1.78.29,3.62.91,5.36a17.87,17.87,0,0,1,.42,3.42c.32,3.47,2.94,6.12,3.43,9.52,6.48,13.57,13.36,26.88,24.25,37.61a7,7,0,0,1,2.32,3.57,2.34,2.34,0,0,1-.34,1.39.86.86,0,0,1-1.29,0,90.56,90.56,0,0,1-18.52-22.72c-3.58-6.42-7.32-12.85-9.46-20.17-1.32-4.52-1.93-9.46-3.93-13.51C287.37,1116.09,288.51,1109.27,288.39,1102.37Z" transform="translate(-127 293)"/><path class="cls-17" d="M1627.16,1128.46a53.84,53.84,0,0,1,4.55-14.65c.37,3.81.8,7.6-1.84,10.94-.91,1.15-.84,2.7-.88,4.15s.4,3.3-.33,4.21c-3,3.78-2.87,9-5.88,12.68-1.89,2.34-2.07,5.44-3.85,8-2.76,4.05-5.69,8-8.37,12.09a70.74,70.74,0,0,1-9.8,12.16c-.46.44-1,.79-1.49,1.19a.94.94,0,0,1-1.11.17,2.27,2.27,0,0,1-.51-1.11,3.05,3.05,0,0,1,.23-1.2,4.74,4.74,0,0,1,.75-1,10.06,10.06,0,0,1,.94-.76,9.4,9.4,0,0,0,2.33-2.69,171.71,171.71,0,0,0,10.29-14.14c4.48-5.7,7.26-12.32,10.25-18.82.76-3.87,3-7.17,4.16-10.87Z" transform="translate(-127 293)"/><path class="cls-18" d="M322.65,1179.3l1.12-.12.51-.36.62.09a9.28,9.28,0,0,1,2.38,1.89l.9.78c.49.35,1,.67,1.5,1a6.08,6.08,0,0,1,1,.8c2,2.21,4.76,3.51,7.09,5.32.38.2.74.43,1.1.66,1.67,1,3.09,2.27,4.75,3.25.38.19.75.41,1.11.63,1.86,1,3.71,2.06,5.53,3.15.37.17.74.36,1.12.55,2.56.86,4.81,2.41,7.31,3.4.4.13.78.28,1.16.44,2.08.86,4.3,1.36,6.35,2.29.38.16.75.34,1.11.53a13,13,0,0,0,2.37.74,11.48,11.48,0,0,1,1.29.3c5,0,9.69,1.42,14.29,3.2A3.08,3.08,0,0,1,387,1209a2.52,2.52,0,0,0,.16.76c-4.4.09-8.9.92-12.8-2.2a5.62,5.62,0,0,0-2.76-.58c-3.83-.35-7.27-1.7-10.86-3.08-4.13-1.58-7.75-4.26-12.06-5.3-2.28-.54-3.67-2.43-5.57-3.56C335.7,1190.63,328.41,1185.94,322.65,1179.3Z" transform="translate(-127 293)"/><path class="cls-7" d="M1598.09,1179.11l1.17.16c-1.59,4.49-6.34,5.46-9.38,8.37a58.9,58.9,0,0,1-15.61,10.74c-4.6,2.16-8.74,5.95-14.32,5.85a2.58,2.58,0,0,0-1.79.52c-2.46,2.81-5.67,2.5-8.87,2.28a.91.91,0,0,1,.1-1.28,4.36,4.36,0,0,1,1.28-.63c6.31-2,12.6-4.06,18.43-7.27a96,96,0,0,0,10.27-5.69c2.64-1.72,5.43-3.23,7.7-5.46a10.45,10.45,0,0,0,2.64-2.32,5.37,5.37,0,0,1,.83-.82c.47-.34,1-.63,1.49-.93.34-.24.69-.45,1-.67C1594.83,1181.16,1595.75,1178.87,1598.09,1179.11Z" transform="translate(-127 293)"/><path class="cls-19" d="M388.14-129.69c-2.3.89-4.91.84-6.91,2.68a5.06,5.06,0,0,1-3.12.86c-6.46.06-12.13,3-18.08,4.85-2.24,1.76-4,4.68-7.58,3.18a1,1,0,0,1,0-1.34c6.09-3.81,12.55-6.65,19.78-7.46.94-.1,2.14,0,2.76-.51C379-130.8,383.6-129.92,388.14-129.69Z" transform="translate(-127 293)"/><path class="cls-20" d="M1620.26-67.35c0-1,0-2,.07-3,1.31,2.45,1.85,5.28,4,7.3a4.12,4.12,0,0,1,.79,2.66,8.59,8.59,0,0,0,2.53,6.45c.34.32.83.76.82,1.13-.13,6.89,5.42,12.86,3.23,20.06a117.82,117.82,0,0,1-4.56-16.7,10.23,10.23,0,0,1-3.68-5.83c-.66-2.74-1.25-5.4-3-7.73A3.34,3.34,0,0,1,1620.26-67.35Z" transform="translate(-127 293)"/><path class="cls-21" d="M352.46-119.46l.07,1.12c-2.19,4.43-7.3,4.58-10.75,7.24s-7.31,4.28-10.35,7.33a3.16,3.16,0,0,1-3.42,1.08c-1.05-1-.27-1.61.55-2.18h0c.32-.32.6-.67.94-1,5.35-5.3,12.16-8.47,18.38-12.49A8.19,8.19,0,0,1,352.46-119.46Z" transform="translate(-127 293)"/><path class="cls-22" d="M1549.35,1206.13l-.06.9c-.78.13-1.8,0-2.3.44-3.62,3.23-7.94,2.44-12.16,2.29a1.61,1.61,0,0,1,.47-1.25c2.55-1.72,5.5-2.42,8.41-3.25a8,8,0,0,1,1.44-.28C1546.67,1204.92,1548.21,1204.81,1549.35,1206.13Z" transform="translate(-127 293)"/><path class="cls-23" d="M292.16-46.27c0,4.6.24,9.22-2.77,13.23a10.17,10.17,0,0,0-1,3.13c-.61-2.28-.15-4.55,0-6.83.1-3.16,1.76-5.84,2.67-8.75a2.78,2.78,0,0,1,.1-.86A.65.65,0,0,1,292.16-46.27Z" transform="translate(-127 293)"/><path class="cls-17" d="M292.16-46.27l-1-.08c-.62-4.47,1.31-8.13,3.71-11.63l.54.51c.81,4.27-2.39,7.4-3.22,11.2Z" transform="translate(-127 293)"/><path class="cls-24" d="M1535,1209.09c-.07.22-.14.44-.19.67h-13.37c0-.23,0-.46,0-.69a2.6,2.6,0,0,1,1.24-1c3.14-.7,6.32-.4,9.5-.35a4.83,4.83,0,0,1,2.26.73Z" transform="translate(-127 293)"/><path class="cls-25" d="M291-45.49c.55,3.36-1.88,5.81-2.67,8.75A9.52,9.52,0,0,1,291-45.49Z" transform="translate(-127 293)"/><path class="cls-17" d="M295.77-61.81c-.09-2.45,1.79-3.91,2.92-5.74l.51.46c.76,2.72-.59,4.37-2.81,5.59Z" transform="translate(-127 293)"/><path class="cls-26" d="M303.49-77.14c.21-1.83,1.58-2.82,2.82-3.9l.49.38a2.7,2.7,0,0,1-.7,2.87,4.79,4.79,0,0,1-.93.81l-.58.25-.62,0Z" transform="translate(-127 293)"/><path class="cls-17" d="M299.61-70.45c.19-1.84,1.61-2.8,2.81-3.92l.55.51c.42,2.19-.71,3.27-2.69,3.75Z" transform="translate(-127 293)"/><path class="cls-26" d="M322.66-100.22l2.9-2.87.47.52q.35,3.21-2.86,2.84Z" transform="translate(-127 293)"/><path class="cls-26" d="M328.56-104.87l-.9,2-.56.36a1.72,1.72,0,0,1-1.25-.26l-.29-.3A3.19,3.19,0,0,1,328.56-104.87Z" transform="translate(-127 293)"/><path class="cls-17" d="M294.83-58c.18-1.31-.12-2.74.94-3.83l.27.19a3,3,0,0,1,.65,2.77,3,3,0,0,1-.52,1.06,1,1,0,0,1-1.09,0Z" transform="translate(-127 293)"/><path class="cls-17" d="M298.69-67.55c.06-1,0-2.12.92-2.9l.27.21c.73,1.3.87,2.41-.95,2.87Z" transform="translate(-127 293)"/><path class="cls-26" d="M310.24-86.71a2,2,0,0,1,1.86-2l.36.55a1.81,1.81,0,0,1-1.63,1.75Z" transform="translate(-127 293)"/><path class="cls-20" d="M1620.33-70.35a2.72,2.72,0,0,1-1.85-2A1.83,1.83,0,0,1,1620.33-70.35Z" transform="translate(-127 293)"/><path class="cls-26" d="M302.58-75.16a2.28,2.28,0,0,1,.91-2l.14.12a1.64,1.64,0,0,1,.51,1.06,1.91,1.91,0,0,1-.53,1.07A.81.81,0,0,1,302.58-75.16Z" transform="translate(-127 293)"/><path class="cls-26" d="M313.08-89.63a2.34,2.34,0,0,1,1-1.86l.4.53a1.32,1.32,0,0,1-.82,1.6Z" transform="translate(-127 293)"/><path class="cls-26" d="M309.21-84.87a2.48,2.48,0,0,1,1-1.84l.12.09a1.39,1.39,0,0,1,.36,1.2,1.54,1.54,0,0,1-.93.87Z" transform="translate(-127 293)"/><path class="cls-26" d="M306.31-81a2.59,2.59,0,0,1,1-1.87l.42.35a2,2,0,0,1,.1,1.07c-.26.53-.62.88-1.27.69Z" transform="translate(-127 293)"/><path class="cls-20" d="M1618.49-72.33a1.68,1.68,0,0,1-1-1.93A2.38,2.38,0,0,1,1618.49-72.33Z" transform="translate(-127 293)"/><path class="cls-20" d="M1617.38-75.12a2,2,0,0,1-.86-2A1.81,1.81,0,0,1,1617.38-75.12Z" transform="translate(-127 293)"/><path class="cls-26" d="M315-92.49l1-.91.21.5a1.14,1.14,0,0,1-.76.69Z" transform="translate(-127 293)"/><path class="cls-26" d="M316.05-93.4l.95-1,.16.62a.9.9,0,0,1-1,.43Z" transform="translate(-127 293)"/><path class="cls-26" d="M317-94.37l.89-1,.25.61a.92.92,0,0,1-1.06.5Z" transform="translate(-127 293)"/><path class="cls-26" d="M317.89-95.4l.95-1,.26.63a.9.9,0,0,1-1.1.47Z" transform="translate(-127 293)"/><path class="cls-26" d="M319.88-97.24l1-1,.22.48a1.08,1.08,0,0,1-.7.71Z" transform="translate(-127 293)"/><path class="cls-26" d="M320.84-98.21l.86-1.05.4.34a1.15,1.15,0,0,1-.25,1,.77.77,0,0,1-.93-.14Z" transform="translate(-127 293)"/><path class="cls-26" d="M321.7-99.26l1-.95.24.25c.07.7-.24,1-.94.94Z" transform="translate(-127 293)"/><path class="cls-20" d="M1616.52-77.09a1.27,1.27,0,0,1-.94-1A1.29,1.29,0,0,1,1616.52-77.09Z" transform="translate(-127 293)"/><path class="cls-26" d="M318.84-96.38l1-.86.08.08c.12.79-.18,1.14-1,.92Z" transform="translate(-127 293)"/><path class="cls-20" d="M1615.58-78.07a1.2,1.2,0,0,1-.94-1C1615-78.74,1615.27-78.4,1615.58-78.07Z" transform="translate(-127 293)"/><path class="cls-26" d="M307.35-82.91l.91-1,.41.35a1.2,1.2,0,0,1-.28,1,.68.68,0,0,1-.92-.2Z" transform="translate(-127 293)"/><path class="cls-26" d="M308.26-83.91l.95-1,.23.23c.11.72-.2,1-.92,1Z" transform="translate(-127 293)"/><path class="cls-26" d="M329.5-105.85a1.25,1.25,0,0,1-.94,1A1.27,1.27,0,0,1,329.5-105.85Z" transform="translate(-127 293)"/><path class="cls-17" d="M302.58-75.16a8.25,8.25,0,0,0,.86,0c.48.87.09,1.12-.74,1.07l-.28-.23C302.47-74.63,302.52-74.9,302.58-75.16Z" transform="translate(-127 293)"/><path class="cls-26" d="M312.1-88.73l1-.89.11.1c.2.85-.11,1.18-1,1Z" transform="translate(-127 293)"/><path class="cls-26" d="M314.11-91.49l.92-1,.1.09c.2.8-.13,1.11-.92,1Z" transform="translate(-127 293)"/><path d="M1522.4,1208.87a8.82,8.82,0,0,0-.89.2c-1.76,0-3.52-.1-5.28-.1H402.54c-3.19,0-6.39-.09-9.59-.14-4.28-2.41-9.13-3-13.79-3.19-5.68-.18-10.77-2.15-16.09-3.48-1.21-.54-2.67,0-3.79-.91h0c-3-1.11-5.28-3.71-8.69-3.75h0a15.1,15.1,0,0,0-6.68-3.88h0c-1.91-1.29-3.38-3.24-5.72-3.9h0c-2.75-2.41-6.14-4-8.69-6.65h0c-.47-.6-1.42-.38-1.83-1.07l0,0a16.58,16.58,0,0,0-2.89-2.91v0a2.45,2.45,0,0,1-1-.88c-2.73-3.89-6.43-6.93-9.29-10.74a140.31,140.31,0,0,1-10.82-16.57c-2-3.56-2.74-7.76-5.64-10.85-.69-.73-.75-2-1.1-3.1.06-3.74-3.09-6.42-3.37-10a228.19,228.19,0,0,0-4.19-30.34c0-2.87-.09-5.75-.09-8.63q0-545.25,0-1090.49c0-3.84.33-7.71-.08-11.5s1.79-7,2.36-10.53c1.21-7.56,2-15.13,2.49-22.75a.87.87,0,0,1-.41-.92,3.82,3.82,0,0,1,.52-1c.12-.14.24-.27.35-.41s.46-.51.69-.76.2-.28.29-.41a4.47,4.47,0,0,0,.47-1.94,8.27,8.27,0,0,1,.31-2.1c.23-.69.48-1.37.68-2.06a7.39,7.39,0,0,1,.39-1,6.54,6.54,0,0,1,.59-.89l.33-.42a9.76,9.76,0,0,0,.81-1.36c.14-.34.28-.67.42-1a22.59,22.59,0,0,0,.44-2.32,107.23,107.23,0,0,1,16.7-26.31,94.36,94.36,0,0,1,8.48-9c8.29-6.34,16.54-12.85,25.94-17.38,3.58-1.72,7.12-4.1,11.3-4.57l2.7-.12c.81-.83,2.11-.08,2.92-.91h0c.47-.62,1.41-.39,1.87-1a23.65,23.65,0,0,1,8.38-1.79c5.57-.18,11.11-.37,16.11-3.44,1-.59,2.49-.37,3.76-.38q7.2-.1,14.39-.11H1510.71c4.8,0,9.59.07,14.39.11a71.78,71.78,0,0,0,13.65,3.71c4.9.25,9.86.1,14.15,3.16a6.85,6.85,0,0,0,2.73.72c2.36.4,4.68.82,6.51,2.6a3.54,3.54,0,0,0,2.06,1.07,9.82,9.82,0,0,1,7.14,3.32,3.56,3.56,0,0,0,2.69.76,4.55,4.55,0,0,0,1.48.38,2.92,2.92,0,0,1,1,.27,3.12,3.12,0,0,1,.79.66l.31.42a3.69,3.69,0,0,0,.79.68l.48.26c.71.3,1.44.55,2.15.86,3.59,2.5,6.92,5.37,10.72,7.56l-.19.16.21-.12c5.83,6.6,12.62,12.29,17.77,19.56,3.74,5.27,6.32,11.17,9.88,16.51a10.16,10.16,0,0,1,.59,1.71,14.45,14.45,0,0,1,.4,1.57,5.81,5.81,0,0,0,.49.88l.62.78c.12.12.22.24.34.37a7,7,0,0,1,.67.76,5,5,0,0,1,.53.89,12.78,12.78,0,0,1,.62,2.11,7.32,7.32,0,0,0,.25,2.43,7.4,7.4,0,0,0,.69,2.15c.21.33.4.66.58,1a11.33,11.33,0,0,1,1.33,2.76c0,.45,0,.9,0,1.35V-46c-.2,3.75.45,7.44.75,11.15a117.92,117.92,0,0,1,3.47,14.49c0,2.56.11,5.12.11,7.68q0,554.59,0,1109.21c0,3.51-.1,7-.15,10.55-1.35,3.46-3.54,6.67-3.22,10.64a2.72,2.72,0,0,1-.46,2l-.09,1.82c-.8,1.58-.24,3.27-.41,4.9,0,.42,0,.83,0,1.24a5.28,5.28,0,0,1-.32,1.18,19.92,19.92,0,0,1-1.35,3.32,11,11,0,0,0-.8,2.75,5.13,5.13,0,0,1-.37,1.06,4.32,4.32,0,0,0-.53,2.11,5.23,5.23,0,0,1-.17,1.05,10.26,10.26,0,0,1-.44.95,6.17,6.17,0,0,1-.6.82l-.31.39a8.39,8.39,0,0,0-.71,1.32c-.12.32-.27.63-.42.94a14.23,14.23,0,0,0-.39,1.56c-.18.55-.31,1.11-.49,1.66a10.87,10.87,0,0,1-.79,1.65c-2.6,2.81-3.15,6.92-6,9.55a10.33,10.33,0,0,0-.67,1c-.18.34-.37.66-.58,1l-.36.42c-.24.27-.5.52-.76.77l-.38.38-.69.79c-.09.15-.2.29-.3.43a11.79,11.79,0,0,0-.53,1.55,10.16,10.16,0,0,1-.53,1,6.75,6.75,0,0,1-.69,1c-.15.15-.29.29-.43.45-.29.31-.59.61-.9.91-5.41,7.1-12,13.06-18.82,18.7a36.58,36.58,0,0,0-4.64,3.68,5,5,0,0,1-1.19.63c-6.52,3.6-12.89,7.46-19.69,10.54-4.14.78-7.76,3.14-11.9,3.91C1540.42,1204.78,1531.42,1206.89,1522.4,1208.87Z" transform="translate(-127 293)"/><path class="cls-27" d="M362.31-121.1c-3.32,1.74-6.85,3.19-10.11,4.92-6.33,3.36-12.77,6.75-18.13,11.8-2.5,2.36-5.59,4.1-8.42,6.12a1.52,1.52,0,0,1-.52-1.11c.62-1.34,1-2.81,2.53-3.52h0a3.77,3.77,0,0,0,2.92-1.4c6.44-6,14.36-9.8,21.95-14a4.71,4.71,0,0,0,4.17-1.58,4.4,4.4,0,0,1,3.33-1.37Z" transform="translate(-127 293)"/><path class="cls-28" d="M1538.75-125c-3.38.52-6.55-1-9.88-1-1.79,0-2.7-1.51-3.77-2.66,2.88-.33,5.69-.31,8,1.82C1534.71-125.44,1537.25-126.81,1538.75-125Z" transform="translate(-127 293)"/><path class="cls-27" d="M367.93-122.13c-.73,1.08-1.84.95-2.92.91C365.73-122.34,366.86-122.14,367.93-122.13Z" transform="translate(-127 293)"/><path class="cls-27" d="M369.78-123.14a1.9,1.9,0,0,1-1.87,1A1.87,1.87,0,0,1,369.78-123.14Z" transform="translate(-127 293)"/><path class="cls-29" d="M1576.1-112.49a2.94,2.94,0,0,1-2.06-.92l2.19-.15h0A.7.7,0,0,1,1576.1-112.49Z" transform="translate(-127 293)"/><path class="cls-30" d="M1630.77-20.39c-.45-.42-1.26-.84-1.28-1.28-.19-4.5-3.08-8.48-2.51-13.11l.5-.38.47.42c0,.61.07,1.21.1,1.82a1.84,1.84,0,0,1,.47.81,3,3,0,0,0,.57.75l.33.35c.22.23.44.46.65.7l.29.39a4,4,0,0,0,.4.87Q1630.76-24.71,1630.77-20.39Z" transform="translate(-127 293)"/><path class="cls-31" d="M1619.34-63.63l-.1-1.71a1.81,1.81,0,0,1,.19-2.25c.27.09.55.17.83.24.13.77,0,1.8.43,2.26,3.74,3.88,2.8,9.82,6.2,13.83.34.4.19,1.2.27,1.81-.08.4-.15.8-.23,1.2-.27.4-.52.42-.76,0a2.52,2.52,0,0,1-.14-.82,12.46,12.46,0,0,0-1.94-3l0,0c-.47-.59-.3-1.48-.93-2l-.12-3.52c-.3-.73-.19-1.61-.8-2.23h0a12.54,12.54,0,0,0-1-1h0a5.26,5.26,0,0,0-1-.94v0C1619.79-62.23,1620-63.13,1619.34-63.63Z" transform="translate(-127 293)"/><path class="cls-13" d="M1627.06,1117.8a16.83,16.83,0,0,1,1.08-7.73c.51-1.31,1-2.63,2.59-3l.06,4a9.07,9.07,0,0,1-.86,1c-.34.3-.63.65-1,1l0,.93q-.46.49-.9,1c0,.94-.07,1.88-.11,2.82C1627.67,1118.23,1627.38,1118.22,1627.06,1117.8Z" transform="translate(-127 293)"/><path class="cls-30" d="M1627-34.78c-1.85-4.09-.5-8.39-.84-12.57.37-.31.61-.22.74.22l.25,6.56a9.08,9.08,0,0,1,0,5.67Z" transform="translate(-127 293)"/><path class="cls-13" d="M1626.07,1127.38c.25-2-.51-4.07.89-5.85,0,1.91-.06,3.83-.08,5.74C1626.68,1127.82,1626.41,1127.83,1626.07,1127.38Z" transform="translate(-127 293)"/><path class="cls-32" d="M1627.12-34.9c0-1.89,0-3.78,0-5.67,1.56,1.76.64,3.87.82,5.83Z" transform="translate(-127 293)"/><path class="cls-32" d="M1627.06,1117.8a6.36,6.36,0,0,0,.87-.06,1.88,1.88,0,0,1-.88,2C1627.05,1119.07,1627.05,1118.44,1627.06,1117.8Z" transform="translate(-127 293)"/><path class="cls-32" d="M1629.93,1112c.28-.34.57-.67.86-1C1630.5,1111.37,1630.21,1111.7,1629.93,1112Z" transform="translate(-127 293)"/><path class="cls-32" d="M1629,1113l1-1Z" transform="translate(-127 293)"/><path class="cls-32" d="M1628,1114.92l.9-1Z" transform="translate(-127 293)"/><path class="cls-31" d="M1626.07,1127.38a2.78,2.78,0,0,0,.81-.11c.09.4.18.79.28,1.19v0a.76.76,0,0,1-1.13-.11A3.63,3.63,0,0,1,1626.07,1127.38Z" transform="translate(-127 293)"/><path class="cls-33" d="M1630.76-29l-.83-1c.32-.38.61-.35.87.08A5.5,5.5,0,0,1,1630.76-29Z" transform="translate(-127 293)"/><path class="cls-32" d="M1630.8-30a5.12,5.12,0,0,0-.87-.08h0l-.37-.48.37-.48Z" transform="translate(-127 293)"/><path class="cls-32" d="M1629-32l1,1h0a.65.65,0,0,1-1,0h0l-.35-.49Z" transform="translate(-127 293)"/><path class="cls-32" d="M1628-32c0-.31,0-.62,0-.94l.92,1,0,0A.58.58,0,0,1,1628-32Z" transform="translate(-127 293)"/><path class="cls-32" d="M1626.88-47.13a2.11,2.11,0,0,0-.74-.22,4.82,4.82,0,0,1,0-.93l.76,0C1626.91-47.87,1626.9-47.5,1626.88-47.13Z" transform="translate(-127 293)"/><path class="cls-34" d="M325.54-99.46c0,.4.08.8.11,1.2a93.24,93.24,0,0,0-16,19.06c-3.3,5.2-7.53,10.19-8.92,16.54-.58.52-.41,1.39-.89,2v0c-.66.46-.47,1.38-1,1.89h0a4.29,4.29,0,0,0-.91,1.08,4.14,4.14,0,0,1-.12.86c-.55.58-.37,1.43-.8,2.06l-.12,2.73c-.57.51-.38,1.39-.91,1.93h0a5.57,5.57,0,0,0-.95,1v0a2.41,2.41,0,0,0-.91,1.13,2.83,2.83,0,0,1-.07.77h-1c-.81-4,2.6-6.81,3-10.47h0c2.71-8.63,7.51-16.17,12.34-23.69a24.55,24.55,0,0,0,2.52-4c3.5-4.06,6.68-8.4,10.73-12C322.81-98.3,323.56-100.08,325.54-99.46Z" transform="translate(-127 293)"/><path class="cls-35" d="M289.34,1096.59a4.3,4.3,0,0,1,1.77,2.68,115.46,115.46,0,0,1,2.89,28.1c-.35.46-.62.44-.81-.13-.09-1.22-.19-2.43-.28-3.65-1-1.84.36-4-.84-5.79h0a11.59,11.59,0,0,1-1-3.45c-.45-2.73-.3-5.61-1.88-8.08-.06-1.21-.12-2.43-.17-3.64C289.15,1100.62,289.25,1098.6,289.34,1096.59Z" transform="translate(-127 293)"/><path class="cls-23" d="M296-57.78a11.45,11.45,0,0,1-1.78,6.6c-.71,1.22-1.45,2.37-1.24,3.87-.29.34-.57.69-.85,1A9.58,9.58,0,0,1,293.43-53a9.86,9.86,0,0,0,1.65-4.78A2,2,0,0,1,296-57.78Z" transform="translate(-127 293)"/><path class="cls-36" d="M363.05,1201.32c2.26-.2,4.43-.23,6.15,1.7,1.32,1.5,3.22,1.19,4.93,1.13a63.91,63.91,0,0,1,15.52,1.84c1.75.38,3,1,3.3,2.83l-5.94.2-1.79-.11c-4.53-3.75-10.21-2.82-15.43-3.75-.28-.06-.57-.11-.86-.15-.6-.43-1.45-.28-2-.86h0C366.11,1202.57,363.31,1203.7,363.05,1201.32Z" transform="translate(-127 293)"/><path class="cls-34" d="M1619.43-67.59c-.06.75-.12,1.5-.19,2.25-3.35-4.34-5.42-9.44-8.3-14a56.3,56.3,0,0,0-8.81-11.06c-3.07-2.9-5.69-6.25-9.05-8.86a3.9,3.9,0,0,1-1.32-3c5.19,3.21,8.79,8.1,13,12.3s7.4,9.4,10.47,14.49C1616.77-73,1618-70.23,1619.43-67.59Z" transform="translate(-127 293)"/><path class="cls-11" d="M1591.74-102.32c-3.76-.51-6.11-3.48-9.13-5.28a25.33,25.33,0,0,1-2.59-2.05l-.37-.53.4-.5A27.62,27.62,0,0,1,1591.74-102.32Z" transform="translate(-127 293)"/><path class="cls-11" d="M1576.1-112.49c0-.36.07-.72.11-1.08a2,2,0,0,1,2.11,1.72c0,.19-.09.38-.14.57a1.69,1.69,0,0,1-1.09-.28h0a2.56,2.56,0,0,0-1-1Z" transform="translate(-127 293)"/><path class="cls-11" d="M1578.32-111.85a2.79,2.79,0,0,1,1.73,1.17l-.14.15a1.5,1.5,0,0,1-1.86-.08h0a.74.74,0,0,1,0-.94Z" transform="translate(-127 293)"/><path class="cls-37" d="M292.07,1114v3.84a9.68,9.68,0,0,1-2.83-7.71C292.44,1109.73,290.93,1112.81,292.07,1114Z" transform="translate(-127 293)"/><path class="cls-37" d="M293.19,1127.24a2.85,2.85,0,0,0,.81.13c.95,3.21,3.87,5.83,2.9,9.61C296,1133.6,293.18,1131,293.19,1127.24Z" transform="translate(-127 293)"/><path class="cls-13" d="M292.07,1114c-1.33-1-.92-3.29-2.83-3.87,0-1.27,0-2.54,0-3.82C292.17,1108.1,292.15,1111,292.07,1114Z" transform="translate(-127 293)"/><path class="cls-37" d="M292.07,1117.8c1.57,1.74.83,3.82.84,5.79C291.62,1121.81,292.19,1119.75,292.07,1117.8Z" transform="translate(-127 293)"/><path class="cls-38" d="M323.75,1178.24a1.14,1.14,0,0,1,1,.88l-1,.06A4.92,4.92,0,0,1,323.75,1178.24Z" transform="translate(-127 293)"/><path class="cls-12" d="M1586.55,1185.82c5-4.56,10-9,14.72-13.85,1.65-1.68,2.47-4,4.6-5.24a7.8,7.8,0,0,0,1-1h0a2.32,2.32,0,0,0,.89-1.24,1.11,1.11,0,0,1,.08-.67c.62-.48.4-1.39,1-1.9v0c.31-.32.64-.63.94-1h0c.34-.3.65-.63,1-.94h0a5.94,5.94,0,0,0,.91-1h0a.78.78,0,0,1,1.14.08,56.7,56.7,0,0,1-10.66,14.37,9,9,0,0,1-2.88,2.88h0c-.33.31-.66.63-1,1h0a22.61,22.61,0,0,1-5.78,5.72h0c-.48.59-1.42.37-1.84,1.06l0,0c-.91.9-1.48,2.24-3,2.36A1.42,1.42,0,0,1,1586.55,1185.82Z" transform="translate(-127 293)"/><path class="cls-12" d="M1612.76,1159.09l-1.14-.08c2.31-3.82,3.91-8.07,6.88-11.49a2.39,2.39,0,0,0,.75-1.23c0-.54.09-1.08.13-1.63.59-.53.43-1.39.89-2l0,0c.68-.43.47-1.36,1.06-1.85v0a6.71,6.71,0,0,0,.9-1h0a.68.68,0,0,1,.86-.29l.28.43c-.17,3.29-2.43,5.78-3.76,8.52C1617.75,1152.19,1616.32,1156.4,1612.76,1159.09Z" transform="translate(-127 293)"/><path class="cls-12" d="M1626,1128.31l1.13.11a6.11,6.11,0,0,1-.76,4.61c-1.61,2.09-1.91,4.69-3.08,6.93l-.23-.2a2.2,2.2,0,0,1-.34-1.25,4.54,4.54,0,0,1,.38-2.57,4.14,4.14,0,0,1,.08-.87c.64-.55.39-1.41.74-2.06a5.31,5.31,0,0,0,.81-1.5c.71-1,.77-2.17,1.25-3.21Z" transform="translate(-127 293)"/><path class="cls-39" d="M1592.48,1183a18.35,18.35,0,0,1,5.78-5.72c0,.61-.11,1.21-.17,1.82C1596,1180.14,1595.16,1182.89,1592.48,1183Z" transform="translate(-127 293)"/><path class="cls-39" d="M1599.22,1176.34a5.35,5.35,0,0,1,2.88-2.88A2.84,2.84,0,0,1,1599.22,1176.34Z" transform="translate(-127 293)"/><path class="cls-39" d="M1598.26,1177.3a1,1,0,0,1,1-1A1.1,1.1,0,0,1,1598.26,1177.3Z" transform="translate(-127 293)"/><path class="cls-38" d="M369.79,1205.16c4.14-.43,8.18.45,12.26.9,1.78.19,3,.9,3.17,2.85-3.11.06-5.47-2.22-8.49-2.64C374.42,1206,371.9,1206.71,369.79,1205.16Z" transform="translate(-127 293)"/><path class="cls-38" d="M329.5,1183.06c3,2.1,6.79,3.13,8.69,6.65C334.76,1188.2,331.38,1186.61,329.5,1183.06Z" transform="translate(-127 293)"/><path class="cls-38" d="M350.6,1197.49c3.75-.73,6.26,1.41,8.69,3.75C355.8,1201.36,353.62,1198.46,350.6,1197.49Z" transform="translate(-127 293)"/><path class="cls-38" d="M343.9,1193.61c3.28-.52,5.15,1.39,6.68,3.88C348,1196.83,346,1195.11,343.9,1193.61Z" transform="translate(-127 293)"/><path class="cls-38" d="M363.05,1201.32c1,1.33,3.38.8,3.9,2.83-2.69-.63-5.37-1.28-7.67-2.91Z" transform="translate(-127 293)"/><path class="cls-38" d="M338.18,1189.71c2.93-.21,4.33,1.85,5.72,3.9C341.34,1193.27,340,1191.1,338.18,1189.71Z" transform="translate(-127 293)"/><path class="cls-38" d="M324.79,1179.1c1.85.09,2.61,1.27,2.89,2.91A4.58,4.58,0,0,1,324.79,1179.1Z" transform="translate(-127 293)"/><path class="cls-38" d="M327.66,1182a1.72,1.72,0,0,1,1.83,1.07C328.63,1183.13,327.93,1182.93,327.66,1182Z" transform="translate(-127 293)"/><path class="cls-38" d="M367,1204.15a2,2,0,0,1,2,.86A1.61,1.61,0,0,1,367,1204.15Z" transform="translate(-127 293)"/><path class="cls-22" d="M1569.69,1198.69c-3.75,2-7.32,4.12-11.7,4.93-2.53.46-4.57,3.35-7.76,2.42l-.28-.61a1.25,1.25,0,0,1,1-.74,72.91,72.91,0,0,1,11.36-4.17,10.29,10.29,0,0,0,1-.75,10.93,10.93,0,0,1,1.57-1,9.31,9.31,0,0,1,4.08-1A1.11,1.11,0,0,1,1569.69,1198.69Z" transform="translate(-127 293)"/><path class="cls-22" d="M1580,1192.64c-2.93,2.88-6.64,4.44-10.31,6l-.38-.49c1.58-2.61,4.19-3.79,6.82-4.93.34-.24.69-.46,1-.67a3.31,3.31,0,0,1,1.13-.51A1.87,1.87,0,0,1,1580,1192.64Z" transform="translate(-127 293)"/><path class="cls-39" d="M1580,1192.64l-1.76.11c-.23-2.74,2.71-1.71,3.64-3.07h0c1.93-.64,2.76-3,4.92-3.24a1.11,1.11,0,0,1,1.07.61C1585.8,1189.71,1583,1191.26,1580,1192.64Z" transform="translate(-127 293)"/><path class="cls-24" d="M1550.27,1205.13c0,.3,0,.6,0,.91l-.88.09-4.85-.08a.84.84,0,0,1,.34-1.3C1546.65,1204.79,1548.51,1204.22,1550.27,1205.13Z" transform="translate(-127 293)"/><path class="cls-39" d="M1587.72,1185.94c1.15-.35,1.62-1.77,2.93-1.87a3.23,3.23,0,0,1-2.79,3l-.41-.43A.43.43,0,0,1,1587.72,1185.94Z" transform="translate(-127 293)"/><path class="cls-39" d="M1590.63,1184.09c.27-1,1-1.15,1.84-1.06A1.7,1.7,0,0,1,1590.63,1184.09Z" transform="translate(-127 293)"/><path class="cls-24" d="M1543.66,1206.15c-2.89.95-5.55,2.57-8.64,2.94l-.17-.21c-.26-2.33,1.73-2.65,3.13-3.5a6.61,6.61,0,0,1,1.47-.22C1540.91,1205.26,1542.51,1204.75,1543.66,1206.15Z" transform="translate(-127 293)"/><path class="cls-14" d="M1543.66,1206.15l-5-.12c1.63-2.65,3.82-1.17,5.86-.8,0,.27,0,.55,0,.82A2.16,2.16,0,0,1,1543.66,1206.15Z" transform="translate(-127 293)"/><path class="cls-35" d="M1544.55,1205.23c-2,.11-4.07-.69-5.85.8a9.08,9.08,0,0,0-.91,0,21.11,21.11,0,0,0-5,2.73l-10.42.06c.18-.79.47-1.53,1.38-1.7,8.77-1.72,17.49-3.89,26.55-3,.27.22.36.43.25.63s-.21.29-.31.29Z" transform="translate(-127 293)"/><path class="cls-14" d="M1532.82,1208.81c.86-2.37,2.83-2.7,5-2.73-.74,1.18-2.39,1.41-2.94,2.8Z" transform="translate(-127 293)"/><path class="cls-23" d="M311.39-85.64c-.09,1.88-1.5,3-2.38,4.5-3.3,5.49-7.49,10.46-9.52,16.73-.76,2.34-2.3,4.43-3.49,6.63,0-1.28,0-2.56,0-3.84,1.24-1.78,2.93-3.33,2.89-5.75.86-.78.81-1.86.95-2.87,1.33-1,2.63-2.05,2.81-3.89l.75-1.07a5.07,5.07,0,0,0,.17-.88,9.55,9.55,0,0,1,.9-1h0a5.39,5.39,0,0,0,.91-.94c.38-.92.77-1.84,1.16-2.76l.84-1c.29-.35.58-.68.89-1,.05-.27.12-.55.19-.82l.92-1,.9-1A.59.59,0,0,1,311.39-85.64Z" transform="translate(-127 293)"/><path class="cls-17" d="M305.43-78l-.9.94Z" transform="translate(-127 293)"/><path class="cls-17" d="M304.51-77.09l-.9,1c0-.31,0-.63,0-.94Z" transform="translate(-127 293)"/><path class="cls-21" d="M325.54-99.46c-1.62.18-2.34,1.71-3.62,2.41a.67.67,0,0,1-.16-1.15c.06-.28.13-.55.2-.82.31-.31.62-.63.94-.94a3.49,3.49,0,0,0,3-2.83l1.81-.1Z" transform="translate(-127 293)"/><path class="cls-17" d="M321.76-98.2c.06.38.11.77.16,1.15L311.39-85.64h-1.05c0-.33,0-.65,0-1a3.9,3.9,0,0,0,1.87-1.95l1-1a2.2,2.2,0,0,0,1-1.89c.31-.32.62-.65.92-1l1-.93,1-1,.92-1,1-1c.33-.31.66-.62,1-.92l1-.94A8,8,0,0,1,321.76-98.2Z" transform="translate(-127 293)"/><path class="cls-17" d="M308.33-82.85c-.29.34-.59.67-.89,1,0-.32,0-.63,0-.94Z" transform="translate(-127 293)"/><path class="cls-40" d="M478.27-16.58l1.89,0c1.68.81,3.47.42,5.2.42q481.32,0,962.62,0h1.6c1.2-.13,2.32.4,3.49.52a4.55,4.55,0,0,1,1.2.33c.54.24,1.07.52,1.61.78.38.14.74.3,1.11.44a19.62,19.62,0,0,1,2.49.71,1.21,1.21,0,0,1,.51,1.88,4.55,4.55,0,0,1-1.56.73,7.31,7.31,0,0,1-4.28-.21c-6.74-2.79-13.81-2.19-20.82-2.19q-475.11,0-950.21-.07A77.67,77.67,0,0,0,446-3.66a16.2,16.2,0,0,0-8.88,4.4,12.18,12.18,0,0,1-1.11.77c-5.44,3.34-9.45,8.15-13.32,13.08a9.49,9.49,0,0,1-.74,1c-1.4,1.49-2.92,2.89-3.43,5a8.33,8.33,0,0,1-.53,1.18c-2.22,1.85-1.81,5.82-5.33,6.63a2.47,2.47,0,0,1,.18-2,6.32,6.32,0,0,1,.83-3.2,86.91,86.91,0,0,1,19-22.87c2.4-2,4.82-4.53,8.12-5.45.74-.89,2.13,0,2.83-1l0,0a6.7,6.7,0,0,1,3.91-2.8h0c3.34-.24,5.29-3.58,8.61-3.87h0C463.27-15.61,470.72-16.37,478.27-16.58Z" transform="translate(-127 293)"/><path class="cls-41" d="M1481.15,1085.12c-3.53,2.93-8.34,3.58-11.81,6.61-.12.1-.25.29-.37.29-5.81.24-10.45,4.6-16.29,4.67q-9.84.13-19.67.14h-950c-4.64,0-9.27,0-13.91-.08-3.83-.09-7.66-.25-10.71-3.17-.51-.49-1.48-.51-2.24-.75a1.09,1.09,0,0,1,.65-1.52,8.62,8.62,0,0,1,6.5.92c4.17,2.26,8.58,2.14,13.06,2.14q483.11,0,966.21,0l3.42,0c5.33,1,9.8-1.85,14.59-3.25a18.69,18.69,0,0,1,3.5-.5c2,.06,3.08-1.39,4.42-2.46,7-3,13.23-7.33,19.17-12.08a2.76,2.76,0,0,1,2.75.11,1,1,0,0,1,.32,1.29h0c-.53.53-1.43.35-1.91,1h0c-.63.47-.44,1.38-1,1.88h0c-.32.32-.63.64-1,.94h0C1484.5,1081.84,1483.13,1083.94,1481.15,1085.12Z" transform="translate(-127 293)"/><path class="cls-42" d="M1502.38,16c1.39,3.79,5.33,6.3,5.36,10.75,4.73,3.42,2.39,10,6.29,13.92,1.11,1.1.74,3.05.76,4.65.07,7.19.17,14.38.17,21.58q0,478.32,0,956.64c0,1,0,1.92,0,2.88-.08,6.81.71,13.79-3.84,19.73-1.27-.86-1.21-2.13-1.08-3.43a6.28,6.28,0,0,1,.46-1.47c2.21-2.87,2.2-6.2,2-9.58q0-486.69,0-973.36c0-12.95-4-24.57-10.14-35.68a15.53,15.53,0,0,1-2.14-5.8C1500.57,15.58,1501.36,15.47,1502.38,16Z" transform="translate(-127 293)"/><path class="cls-41" d="M412.88,26.44l.28,2.07c0,4-2.64,7.43-2.75,11.43a8.44,8.44,0,0,1-.33,1.22,15.89,15.89,0,0,1-1,2.18c-.16.35-.35.68-.54,1a13,13,0,0,0-.68,1.63c-.09.42-.19.83-.27,1.26a32.64,32.64,0,0,0,0,3.7q.09,297.95,0,595.88,0,186.63,0,373.25c0,3,.06,6.08-.05,9.12a5.88,5.88,0,0,1-.69,2.69,1.12,1.12,0,0,1-1.56.48l-.15-5.6a8.86,8.86,0,0,1,0-5.1c0-4,0-8,0-12q0-469.6,0-939.2,0-11.51.12-23c0-3.06.42-6,2.46-8.57a4.36,4.36,0,0,0,1.06-2.62C408.58,32.3,410.52,29.3,412.88,26.44Z" transform="translate(-127 293)"/><path class="cls-43" d="M1450.47-15.79q-480,0-960-.07c-3.44,0-7,.91-10.35-.68,1.91-.09,3.83-.26,5.74-.26q473.9,0,947.78,0c5.59,0,11.19.14,16.78.21.31.17.41.34.31.52S1450.57-15.79,1450.47-15.79Z" transform="translate(-127 293)"/><path class="cls-44" d="M405.33,1032.37l.87.05c1.81,2.19,1.47,5.29,3.17,7.52a8.52,8.52,0,0,1,.49,1.17c.31,1,.6,2,.94,3a17.58,17.58,0,0,1,.48,2.4c.15,1.51,1.19,2.52,2.07,3.62a7.55,7.55,0,0,1,.7,1.1c.78,4,3.34,7,5.4,10.29.89,1.41,2.42,2.63,1.38,4.62a1.05,1.05,0,0,1-1.25,0c-1.13-.24-2.29-.68-2.49-1.9-.39-2.45-1.12-4.6-3.45-5.87.19-4.63-4.75-7.2-4.73-11.8a4,4,0,0,0-.78-2.67C404.65,1040.58,405.08,1036.47,405.33,1032.37Z" transform="translate(-127 293)"/><path class="cls-45" d="M456.14,1092c0,.26,0,.53.05.79-2.72.14-5.47.51-7.26-2.38a3.5,3.5,0,0,0-2.06-1.12c-5.87-1.45-10-5.57-14.44-9.28-.32-.26-.35-.87-.51-1.31l.46-.54a4.1,4.1,0,0,1,3.06,1C441.89,1084.23,449.59,1087.21,456.14,1092Z" transform="translate(-127 293)"/><path class="cls-46" d="M1504.29,1060.31c.14,4.09-3.11,6.36-5.18,9.15s-4.77,4.86-7.2,7.26l-.56-.43a2.74,2.74,0,0,1-.29-2,125.16,125.16,0,0,1,12-14.31A1.34,1.34,0,0,1,1504.29,1060.31Z" transform="translate(-127 293)"/><path class="cls-47" d="M1502.38,16l-2.11.13-.67-.08a4.07,4.07,0,0,1-1.17-.65c-3.36-4-6.23-8.37-10.62-11.37a9.89,9.89,0,0,1-3-3.65,2.43,2.43,0,0,1-.12-1.33l.48-.48a2.83,2.83,0,0,1,2.17.73c3.22,4.12,7.46,7.24,10.91,11.11A68.66,68.66,0,0,1,1502.38,16Z" transform="translate(-127 293)"/><path class="cls-10" d="M1581.88,1189.68c-.7,1.63-3,1.38-3.64,3.07l-.07,0a2.87,2.87,0,0,0-1,.83c-3.05.79-5.35,2.86-7.86,4.57l-4.57,1.19a10,10,0,0,0-1,.91h0a1.26,1.26,0,0,1-1.86,0c.52-.58.94-1.52,1.57-1.7,5.87-1.63,10.62-5.32,15.74-8.34A9,9,0,0,1,1581.88,1189.68Z" transform="translate(-127 293)"/><path class="cls-43" d="M478.27-16.58c-2.34,1.49-4.95.72-7.43.81s-5,.32-7.3,1.73a10.5,10.5,0,0,1-7.36,1.27C463-17.34,470.59-17.1,478.27-16.58Z" transform="translate(-127 293)"/><path class="cls-48" d="M1460.05-11.7c0-.31,0-.62,0-.93a1.35,1.35,0,0,1,2-.2,3.28,3.28,0,0,1,.88.12c3.48-.11,5.81,2.46,8.7,3.73h0c1.57,1.35,5.58-.62,5,3.67-2,1.79-3.58-.38-5.37-.63A31,31,0,0,1,1460.05-11.7Z" transform="translate(-127 293)"/><path class="cls-49" d="M1504.29,1060.31l-1.12-.13c-1.78-3.45,1.52-5.47,2.56-8a68.61,68.61,0,0,0,3.79-10,1.07,1.07,0,0,1,1.31-.35c.09,1.42.18,2.84.28,4.26,0,.85-.11,1.71-.16,2.57-.57,1.83-1.07,3.72-2.88,4.81h0c-1,.75-.16,2.08-1,2.89h0c-.72.91-.69,2.32-1.94,2.88h0c-.34.31-.76.54-.91,1Z" transform="translate(-127 293)"/><path class="cls-28" d="M419.58,1066.07l1.11-.11a3,3,0,0,1,1.68.93c2.43,3.21,6.27,5.31,7.53,9.46a1.81,1.81,0,0,1-.59,1.14c-3.3-2.33-5.44-5.83-8.44-8.46C420.14,1068.38,420,1067.07,419.58,1066.07Z" transform="translate(-127 293)"/><path class="cls-24" d="M1561.82,1200.34l1.86,0a3,3,0,0,1-2,1.2c-2.89.7-5.91.94-8.22,3.25-.74.74-2.1.54-3.22.37a7,7,0,0,1,.06-.92A32.3,32.3,0,0,1,1561.82,1200.34Z" transform="translate(-127 293)"/><path class="cls-50" d="M1462-12.83l-2,.2-1.73-.22c-.64-.43-1.53-.29-2.09-.92h0c-.55-.52-1.44-.36-1.94-1h0c-.81-.8-2-.14-2.88-.82l-1-.25c0-.27,0-.53,0-.79C1454.88-17.08,1458.85-16.15,1462-12.83Z" transform="translate(-127 293)"/><path class="cls-50" d="M1471.62-9c-.77-.07-1.84.16-2.25-.25-1.8-1.88-4.33-2.28-6.45-3.48C1466.73-13.59,1469.48-12,1471.62-9Z" transform="translate(-127 293)"/><path class="cls-47" d="M1479.39-5.27c2.94-.26,4.49,1.61,5.8,3.83l-.41.43c-1.62.8-2.67-.45-3.91-1.06a6.72,6.72,0,0,1-1-.7,4.33,4.33,0,0,1-.79-.92l-.21-.57.06-.6Z" transform="translate(-127 293)"/><path class="cls-43" d="M456.18-12.77c-2.94,1.13-4.83,4.6-8.61,3.87,1.23-1.2,3.06-1.42,4.23-2.82S454.57-13,456.18-12.77Z" transform="translate(-127 293)"/><path class="cls-50" d="M1476.4-5.12a2.74,2.74,0,0,0-2.46-2.77c-.89-.12-1.82-.16-2.33-1.09,3.67-1,5.57,1.66,7.78,3.71l-.36.46a2,2,0,0,1-2.24.14Z" transform="translate(-127 293)"/><path class="cls-46" d="M1481.15,1085.12c1.41-2,2.84-4,5.76-3.81C1485,1082.56,1483.81,1085,1481.15,1085.12Z" transform="translate(-127 293)"/><path class="cls-10" d="M1587.72,1185.94a2.07,2.07,0,0,1-.27.69c-2.24.33-3,3.27-5.58,3.06,1.17-1.76,2.46-3.38,4.68-3.87Z" transform="translate(-127 293)"/><path class="cls-46" d="M1508.07,1053.52c.4-1.94,2-3.19,2.88-4.81C1511,1050.92,1511.16,1053.19,1508.07,1053.52Z" transform="translate(-127 293)"/><path class="cls-43" d="M447.56-8.89a13.72,13.72,0,0,1-3.91,2.8C443.87-8.53,445.41-9.14,447.56-8.89Z" transform="translate(-127 293)"/><path class="cls-13" d="M1626,1128.3a5.71,5.71,0,0,1-.9,3.86l-.51.41-.5-.43A6.13,6.13,0,0,1,1626,1128.3Z" transform="translate(-127 293)"/><path class="cls-44" d="M405.18,1021.67v5.1A4.67,4.67,0,0,1,405.18,1021.67Z" transform="translate(-127 293)"/><path class="cls-46" d="M1505.18,1059.28a6.34,6.34,0,0,1,1.94-2.88C1507.21,1057.85,1507.07,1059.15,1505.18,1059.28Z" transform="translate(-127 293)"/><path class="cls-32" d="M1624.09-52.07a2.68,2.68,0,0,1,1.94,3A3.61,3.61,0,0,1,1624.09-52.07Z" transform="translate(-127 293)"/><path class="cls-45" d="M429.31,1077.49l0-1c1.93-1,2.77-.11,3.1,1.73l-.51.51Z" transform="translate(-127 293)"/><path class="cls-46" d="M1507.12,1056.4c-.09-1.1-.24-2.22,1-2.89C1508.08,1054.58,1508.11,1055.66,1507.12,1056.4Z" transform="translate(-127 293)"/><path class="cls-13" d="M1624.2,1133.15a2.12,2.12,0,0,1-1,1.92c0-1.08-.13-2.18.89-2.93l.13.11a.56.56,0,0,1,.19.61C1624.35,1133.05,1624.27,1133.15,1624.2,1133.15Z" transform="translate(-127 293)"/><path class="cls-13" d="M1623.13,1135.94l-.06,2.86c-.22.43-.48.46-.81.11C1622.24,1137.83,1622.18,1136.74,1623.13,1135.94Z" transform="translate(-127 293)"/><path class="cls-43" d="M443.67-6.11c-.59,1.34-1.73,1.14-2.83,1A3.18,3.18,0,0,1,443.67-6.11Z" transform="translate(-127 293)"/><path class="cls-29" d="M1578.05-110.61l1.86.07a5.41,5.41,0,0,1,.11.89A2.17,2.17,0,0,1,1578.05-110.61Z" transform="translate(-127 293)"/><path class="cls-46" d="M1488.87,1078.48a1.75,1.75,0,0,1,1.91-1A2,2,0,0,1,1488.87,1078.48Z" transform="translate(-127 293)"/><path class="cls-46" d="M1487.88,1080.35a1.75,1.75,0,0,1,1-1.88A1.94,1.94,0,0,1,1487.88,1080.35Z" transform="translate(-127 293)"/><path class="cls-31" d="M1621.31,1140.86a1.84,1.84,0,0,1-1.06,1.85A1.88,1.88,0,0,1,1621.31,1140.86Z" transform="translate(-127 293)"/><path class="cls-31" d="M1620.27,1142.68a1.91,1.91,0,0,1-.89,2A2,2,0,0,1,1620.27,1142.68Z" transform="translate(-127 293)"/><path class="cls-12" d="M1608.82,1162a2,2,0,0,1-1,1.9A2,2,0,0,1,1608.82,1162Z" transform="translate(-127 293)"/><path class="cls-13" d="M295.93-50.17a2,2,0,0,1,.91-1.93A1.9,1.9,0,0,1,295.93-50.17Z" transform="translate(-127 293)"/><path class="cls-32" d="M1623.18-54a1.91,1.91,0,0,1,.93,2A2.07,2.07,0,0,1,1623.18-54Z" transform="translate(-127 293)"/><path class="cls-13" d="M297-54.83a2,2,0,0,1,.8-2.06A2.5,2.5,0,0,1,297-54.83Z" transform="translate(-127 293)"/><path class="cls-32" d="M1622.26-59.79a2,2,0,0,1,.81,2.22A3.47,3.47,0,0,1,1622.26-59.79Z" transform="translate(-127 293)"/><path class="cls-13" d="M298.79-58.83a1.86,1.86,0,0,1,1-1.89A2,2,0,0,1,298.79-58.83Z" transform="translate(-127 293)"/><path class="cls-13" d="M299.8-60.7a1.93,1.93,0,0,1,.89-2A2,2,0,0,1,299.8-60.7Z" transform="translate(-127 293)"/><path class="cls-34" d="M1619.34-63.63a1.93,1.93,0,0,1,1,2A2,2,0,0,1,1619.34-63.63Z" transform="translate(-127 293)"/><path class="cls-29" d="M1578-111.54a4.93,4.93,0,0,1,0,.94l-1-1A4.93,4.93,0,0,1,1578-111.54Z" transform="translate(-127 293)"/><path class="cls-31" d="M1622.26,1138.91a3.1,3.1,0,0,0,.81-.11l0,1-.46.06h-.46A4,4,0,0,1,1622.26,1138.91Z" transform="translate(-127 293)"/><path class="cls-31" d="M1622.22,1139.81l-.9,1Z" transform="translate(-127 293)"/><path class="cls-29" d="M1576.12-112.53l1,1Z" transform="translate(-127 293)"/><path class="cls-31" d="M1619.25,1146.29a1.39,1.39,0,0,1-.75,1.23Z" transform="translate(-127 293)"/><path class="cls-12" d="M1611.66,1159l-.91,1Z" transform="translate(-127 293)"/><path class="cls-12" d="M1610.74,1160l-1,.94Z" transform="translate(-127 293)"/><path class="cls-12" d="M1609.77,1161c-.31.33-.63.65-.94,1C1609.14,1161.62,1609.46,1161.3,1609.77,1161Z" transform="translate(-127 293)"/><path class="cls-12" d="M1607.76,1164.53a1.45,1.45,0,0,1-.89,1.24Z" transform="translate(-127 293)"/><path class="cls-12" d="M1606.89,1165.76l-1,1Z" transform="translate(-127 293)"/><path class="cls-46" d="M1504.28,1060.28a1.11,1.11,0,0,1,.91-1Z" transform="translate(-127 293)"/><path class="cls-13" d="M294.08-48.08a1.37,1.37,0,0,1,.91-1.13Z" transform="translate(-127 293)"/><path class="cls-13" d="M295-49.19l.95-1Z" transform="translate(-127 293)"/><path class="cls-13" d="M297.88-57.75l.91-1.08Z" transform="translate(-127 293)"/><path class="cls-34" d="M1620.28-61.68l1,.94Z" transform="translate(-127 293)"/><path class="cls-46" d="M1490.78,1077.5c-.06-.38-.13-.76-.2-1.14l.56-.22.51.31.26.27Z" transform="translate(-127 293)"/><path class="cls-46" d="M1486.91,1081.3l1-.94A1.11,1.11,0,0,1,1486.91,1081.3Z" transform="translate(-127 293)"/><path class="cls-34" d="M1621.28-60.74l1,1Z" transform="translate(-127 293)"/><path class="cls-33" d="M1629-31h1c0,.32,0,.64,0,.95Z" transform="translate(-127 293)"/><path class="cls-33" d="M1628-32l.92,0c0,.32,0,.64,0,1Z" transform="translate(-127 293)"/><path class="cls-31" d="M1624.2,1133.15a6.77,6.77,0,0,1,0-.9c.29,0,.59-.07.88-.09Z" transform="translate(-127 293)"/><path class="cls-24" d="M1563.7,1200.3l1-.91Z" transform="translate(-127 293)"/><path class="cls-39" d="M1577.17,1193.63a1.2,1.2,0,0,1,1-.83Z" transform="translate(-127 293)"/><path class="cls-1" d="M1460.05-11.7c2.31.47,4.54,1,6.31,2.79,1.37,1.41,3.58,1,5.23,1.89,2.69,2.92,6.76,3.3,9.92,5.54a72.53,72.53,0,0,1,24.65,30.59c5.33,12,7.25,24.26,7.25,37.31q-.2,479.65-.1,959.3c-.07,3.66-1.3,7.09-2.27,10.56a13.69,13.69,0,0,1-.36,1.4c-.86,5.23-2.12,10.33-4.91,14.91a7.84,7.84,0,0,1-.44,1.23c-.09.19-.19.38-.29.56a7.91,7.91,0,0,1-.76.95c-.14.14-.28.28-.41.43s-.52.55-.79.82l-.35.42a4,4,0,0,0-.55,2.08,3.59,3.59,0,0,1-.89,2l-.35.39a9.76,9.76,0,0,1-.73.71c-.11.12-.24.23-.36.34s-.46.45-.69.67c0,0-.32.34-.31.35a7.92,7.92,0,0,0-.72,1.18,3.11,3.11,0,0,1-.5.79,5.1,5.1,0,0,1-.62.7s-.33.33-.32.33a8,8,0,0,1-.64.66s-.33.32-.32.33c-.2.23-.41.45-.61.67,0,0-.28.36-.27.37-.16.26-.31.52-.45.8a4,4,0,0,1-.46.81,4.3,4.3,0,0,1-.61.73s-.34.33-.33.34c-.21.23-.44.45-.67.66,0,0-.35.32-.34.33-.21.23-.45.45-.68.66,0,0-.35.33-.34.34-.22.24-.45.47-.69.7l-.35.35c-.23.26-.47.5-.72.74l-.39.37a8.07,8.07,0,0,1-.92.6,9.8,9.8,0,0,0-1,.62c-1.12,1.39-2.21,2.82-4,3.33a11.21,11.21,0,0,1-1.62.6,11,11,0,0,0-.92.65c-.28.27-.57.53-.85.81l-.43.43a10.24,10.24,0,0,1-2.67,1.79c-5.74,3.58-11.51,7.06-18.48,7.73-5.38.53-10.23,3.67-15.83,3.3H485c-7.46,0-14.7-.41-22.15-2.43-16.8-4.55-30.32-13.31-40.87-26.94-3.11-5-7-9.52-8.52-15.36-2.55-3.26-2.94-7.34-4.24-11.08-2-7.15-2.44-14.43-2.44-21.84q.07-478.64,0-957.28c0-6.11,0-12.14,2.66-17.79,1-7.91,4.72-14.79,8.47-21.65v0c.55-2.44,2.46-3.94,3.93-5.74l0,0A83.56,83.56,0,0,1,436.06.69h0c2.91-1.06,4.37-4.42,7.7-4.81a3.24,3.24,0,0,0,2.56-1.11c1.29-1.54,2.73-2.65,4.87-2.6A2.63,2.63,0,0,0,453-8.4c2.81-2.95,6.63-2.71,10.17-3.37a6.28,6.28,0,0,0,1.88-.35c6.66-3.79,14-2.4,21.1-2.76,3.67-.19,7.36,0,11,0H1428l17.25,0a12.4,12.4,0,0,1,5.57,1.2A17.68,17.68,0,0,0,1460.05-11.7Z" transform="translate(-127 293)"/><path class="cls-51" d="M417.86,20.85c0,.47.16,1.07-.06,1.39-2,2.84-2.61,6.39-4.26,9.18-1.85,3.12-2.29,6.38-3.35,9.58-.32.4-.64.43-1,0a22.91,22.91,0,0,1,3.94-12.49A15.94,15.94,0,0,1,417.86,20.85Z" transform="translate(-127 293)"/><path class="cls-51" d="M436.06.69c-4.47,5.13-9.39,9.82-14.31,14.5-.2-2.84,2.33-4.06,3.79-5.68C428.6,6.12,431.38,2.22,436.06.69Z" transform="translate(-127 293)"/><path class="cls-51" d="M443.74-4.11c-3,1-4.26,4.6-7.7,4.81C438.35-1.31,439.85-4.61,443.74-4.11Z" transform="translate(-127 293)"/><path class="cls-51" d="M421.78,15.15c-.12,2.73-3.16,3.46-3.93,5.74C417.42,17.78,419.55,16.43,421.78,15.15Z" transform="translate(-127 293)"/><path class="cls-48" d="M1451.46-15.54c1,0,2.12-.16,2.88.83C1453.3-14.71,1452.2-14.49,1451.46-15.54Z" transform="translate(-127 293)"/><path class="cls-48" d="M1454.32-14.73a2.1,2.1,0,0,1,1.94,1A1.82,1.82,0,0,1,1454.32-14.73Z" transform="translate(-127 293)"/><path class="cls-48" d="M1456.23-13.77a2.83,2.83,0,0,1,2.09.93C1457.46-12.78,1456.66-12.87,1456.23-13.77Z" transform="translate(-127 293)"/><path class="cls-52" d="M421.64,1064.05c4.91,7.82,12.26,13.14,19.34,18.71,2.11,1.66,4.76,2.61,7.12,3.72,4.93,2.32,9.68,5.57,15.55,5.35a5.32,5.32,0,0,1,3.21.73c3.51,2.63,7.56,2.27,11.49,2.27q447,0,893.92,0l71.49,0c.27.15.37.33.31.52s-.14.31-.23.31c-3.51.07-7,.21-10.54.21H482.84c-1.12,0-2.24,0-3.35,0-5.87-.1-11.79.57-17.3-2.58a10.68,10.68,0,0,0-6.05-1.2,10.93,10.93,0,0,1-5.05-2.13c-2.59-2.15-6.28-2.68-9.07-4.82-3.12-2.39-6.39-4.58-9.59-6.86a3.81,3.81,0,0,0-3.1-1.73c-1.65-3-4.47-5-6.66-7.54-.53-.62-1.06-1.11-1.06-2A2.52,2.52,0,0,1,421.64,1064.05Z" transform="translate(-127 293)"/><path class="cls-53" d="M1443.84,1095.58a4.67,4.67,0,0,1-.08-.83,49.19,49.19,0,0,0,6.77-2.33,23.66,23.66,0,0,1,7.93-1.57c2.85,0,5.76-.06,7.75-2.68.19-.25.51-.56.76-.56,4.07,0,6.88-2.94,10.31-4.42a4.09,4.09,0,0,0,2-1.88h0a8,8,0,0,0,1-1h0c.53-.54,1.43-.34,1.93-.95,2.5-.42,3-3.71,5.69-3.9a.69.69,0,0,1,.33.71c-.07.27-.14.4-.23.4-1,1.83-2,3.51-4.31,4-2.67.58-4.27,3-6.47,4.49-2.73,1.78-5.62,2.67-8.49,3.84-1.32.88-2.37,2.15-3.89,2.75l-3.74.17c-4.94.79-9.32,3.76-14.47,3.7Z" transform="translate(-127 293)"/><path class="cls-54" d="M1487.92,1076.61c0-.37-.07-.74-.1-1.11l0,0c.43-.19.66-.61,1-.89h0c.3-.34.64-.64.92-1h0a3.85,3.85,0,0,0,.93-1h0a3.72,3.72,0,0,0,1-.94h0c.36-.27.66-.61,1-.91h0a6.94,6.94,0,0,0,.89-1.06,6.28,6.28,0,0,1,.12-.87c.28-.33.58-.66.88-1h0a8,8,0,0,0,1-1h0a8,8,0,0,0,1-1h0a4.91,4.91,0,0,0,.93-1h0c.67-.46.48-1.37,1-1.9h0a4,4,0,0,0,.93-1h0a4.37,4.37,0,0,0,1-.91h0a7.49,7.49,0,0,0,1-1,6.92,6.92,0,0,1,0-.91c.9-.76.09-2.09,1-2.86h0c.3-.33.63-.64.93-1h0a7.41,7.41,0,0,0,1-1h0a2.39,2.39,0,0,0,.87-1.11c.36-2.51.83-5,2.78-6.83,1.18-1.11,1-2.56,1.13-4,.22-1.82-.52-3.82,1-5.41,1.6,1.64,1.08,3.33.11,5a12.37,12.37,0,0,1-2.32,8.43c-2,2.86-3.07,6.37-4.55,9.59-.87,3.15-3.58,5.11-5.4,7.57s-3.58,5-6.1,6.78c-.55.5-.21,1.51-1.06,1.83h0Z" transform="translate(-127 293)"/><path class="cls-52" d="M1446.55,1095.58c5-.72,9.17-4.32,14.47-3.7C1456.42,1094,1452,1096.62,1446.55,1095.58Z" transform="translate(-127 293)"/><path class="cls-52" d="M1464.76,1091.71c1.06-1.24,2-2.7,3.89-2.75C1467.9,1090.65,1466.86,1091.93,1464.76,1091.71Z" transform="translate(-127 293)"/><path class="cls-25" d="M1510,1042.16c0-1.67-.08-3.35-.11-5v0c.9-3.28,2.76-6.28,2.8-9.8s0-7,0-10.56V67.31c0-3.67-.07-7.35,0-11,0-3.18,0-6-2.09-9-1.69-2.41-1.73-6.05-1.67-9.27,0-2-.13-3.81-1.85-5.2a3.27,3.27,0,0,1-1.23-2c-.27-4.19-3.24-7.29-5.07-10.59a55.78,55.78,0,0,0-8.34-11.35c-4.19-4.34-9.23-7.6-14-11.27a9.75,9.75,0,0,0-2.63-1.07,6.77,6.77,0,0,1-4.3-3.54c2-.32,2.85,2.15,4.81,1.9h0c.66,1,2.11,0,2.76,1.07h0c.4.21.68.6,1.09.79h0a14.26,14.26,0,0,0,4.66,3c4.72,3.7,8.56,8.34,12.9,12.44.77.73.56,2.16,1.59,2.83.27.37.62.69.89,1.06h-.06c2.28,3.91,4.43,7.89,6.51,11.91s2.56,8.42,4.27,12.36c2.8,6.44,2.84,13,2.83,19.71q0,479.82-.07,959.66c0,4.47,0,9-.07,13.42-.25,3.17-1.55,6-2.91,8.77v-.07A5.71,5.71,0,0,0,1510,1042.16Z" transform="translate(-127 293)"/><path class="cls-49" d="M1510.83,1042c-.31-3.35,2.15-5.77,2.91-8.77C1514.07,1036.54,1513.85,1039.71,1510.83,1042Z" transform="translate(-127 293)"/><path class="cls-21" d="M409.22,41h1c-.07,1.27.28,2.81-.3,3.77-3.65,6-2.7,12.71-2.7,19.17q0,229.11,0,458.21,0,241.82,0,483.64c0,5.91-.05,11.83-.1,17.74a21.42,21.42,0,0,0,1.22,7,30.72,30.72,0,0,1,1.93,10.3l-.27.46a.68.68,0,0,1-.87-.31h0a27.21,27.21,0,0,1-2.7-10.55c-.57-6.22-.23-12.46-.23-18.69q0-471.75,0-943.5c0-6.56.14-13.11.21-19.66.69-.84,0-2.06.81-2.88h0c.62-.49.44-1.39,1-1.92h0c.62-.53.43-1.42.91-2A3.06,3.06,0,0,1,409.22,41Z" transform="translate(-127 293)"/><path class="cls-55" d="M406.44,1030.49c.81,3.54,2.35,6.89,2.7,10.55-2.4-2.39-2.88-5.43-2.94-8.62Z" transform="translate(-127 293)"/><path class="cls-51" d="M407.22,45.76c0,1,.17,2.12-.81,2.88C406.33,47.58,406.22,46.52,407.22,45.76Z" transform="translate(-127 293)"/><path class="cls-51" d="M409.1,41.85a1.88,1.88,0,0,1-.91,2A2.37,2.37,0,0,1,409.1,41.85Z" transform="translate(-127 293)"/><path class="cls-51" d="M408.19,43.85a1.87,1.87,0,0,1-1,1.92A2,2,0,0,1,408.19,43.85Z" transform="translate(-127 293)"/><path class="cls-55" d="M421.64,1064.05l0,3-.92-1c-.48-2.79-2.59-4.87-4.16-6.8-2.17-2.68-2.8-5.53-3.52-8.56a.64.64,0,0,1,1,0A68.59,68.59,0,0,0,421.64,1064.05Z" transform="translate(-127 293)"/><path class="cls-21" d="M414,1050.6h-1c-.85-1.35-2-2.45-2.82-3.82l-.18-2.67a3.25,3.25,0,0,1,0-3l.25-.23C410.58,1044.49,413.64,1047,414,1050.6Z" transform="translate(-127 293)"/><path class="cls-55" d="M410.19,1046.78c1.47.89,2.75,1.9,2.82,3.82C411.62,1049.66,410.14,1048.78,410.19,1046.78Z" transform="translate(-127 293)"/><path class="cls-55" d="M410,1041.11c0,1,0,2,0,3a4.7,4.7,0,0,1-.88-3.08A3.78,3.78,0,0,1,410,1041.11Z" transform="translate(-127 293)"/><path class="cls-41" d="M1490.61,1076.36a1.88,1.88,0,0,1,1.06-1.82c0,.63,0,1.27,0,1.91Z" transform="translate(-127 293)"/><path class="cls-48" d="M1485-.21a4.5,4.5,0,0,1-4.66-3c1.87,0,2.73,2,4.49,2.23A1.32,1.32,0,0,1,1485-.21Z" transform="translate(-127 293)"/><path class="cls-42" d="M1500.33,16.12a1.14,1.14,0,0,1-.89-1.06C1499.73,15.42,1500,15.77,1500.33,16.12Z" transform="translate(-127 293)"/><path class="cls-48" d="M1479.16-4c-1,0-2.12,0-2.76-1.07l2.63.3A1.28,1.28,0,0,1,1479.16-4Z" transform="translate(-127 293)"/><path class="cls-48" d="M1480.27-3.25a1.2,1.2,0,0,1-1.09-.79A1.15,1.15,0,0,1,1480.27-3.25Z" transform="translate(-127 293)"/><path d="M1117.07,941.88c-2.25-.76-3.21-2.31-4.35-3.6-9.42-10.69-17.21-22.65-26-33.84-1.52-1.94-.48-3.23.3-4.73q12.45-24,24.94-48.05,41.92-80.52,83.92-161a7.22,7.22,0,0,0-.05-7.51q-51-97.93-101.9-195.93c-.87-1.67-1.83-3.29-3-5.37-3.44,6.65-6.66,12.87-9.87,19.11-73.57,143-145.63,286.76-217.78,430.47-1.93,3.85-4.07,5.14-8.28,5.18-10.7.1-21.41.78-32.11,1.26a110.33,110.33,0,0,1-11.5-.2c-4.65-.27-7.7-2.46-9.79-6.53-4.37-8.52-8.92-17-13.33-25.47-37.18-71.91-73.6-144.21-110.6-216.22-3-5.92-3-10.21,0-16.1q62.28-123.39,124-247l2.15-4.25c1.56-.35,1.92,1,2.52,1.77,9.19,12.09,18.27,24.26,27.13,36.6,2.22,3.1,2.15,5.4.51,8.56-18.75,36.14-37.33,72.38-56.09,108.53C761.6,609,745.21,640.41,729.06,672c-2.62,5.14-2.6,9.26-.22,14.26q12,25.32,24.81,50.25c22.12,43.22,44.54,86.29,68.24,128.67,3.34,6,6.58,12,10.85,17.75,2.19-2.11,3.18-4.65,4.44-7,14.14-26.13,27.77-52.52,41.47-78.88,63-121.16,124.6-243,186.07-364.92,1.71-3.39,3.58-4.79,7.54-4.71,13.43.3,26.87.19,40.3.06,2.88,0,4.5.71,5.89,3.45q64,126,128.27,251.85a6.46,6.46,0,0,1,0,6.64c-36.32,72-71.59,144.54-109.21,215.89-5.43,10.31-11.16,20.47-16.79,30.68C1119.66,937.94,1118.39,939.78,1117.07,941.88Z" transform="translate(-127 293)"/><path d="M787.42,208.58h37c3.79,0,4.14-.31,4,3.84-.67,14.57-1.74,29.07-7.62,42.7-11.82,27.42-33,42.28-62.28,46a100.21,100.21,0,0,1-38.06-2.4c-24.57-6.33-42.05-21.55-51.74-44.69-10.77-25.73-10.32-52,2-77.12,12-24.5,32.23-38.64,59.24-42.92a102.6,102.6,0,0,1,37.67.58c21.41,4.53,37.42,16.54,48.22,35.52,1.3,2.28,4,4.68,3.08,7.09-.81,2.08-4.29,2.31-6.62,3.28-9.56,4-19.18,7.93-28.71,12-2.17.93-3.45.92-4.33-1.56a28.85,28.85,0,0,0-2.49-4.64c-13.19-23-45.15-21.22-59-5.55-16.81,19-17.72,52.16-1.75,71.92,8.68,10.73,20,14.91,33.4,14.34,7.67-.33,14.79-2.33,20.88-7.31,5.36-4.38,8-10.25,9.4-16.8.45-2.06-.17-2.88-2.38-2.86-8.64.08-17.27,0-25.91,0-1.12,0-2.24,0-3.36,0-1.44,0-1.91-.75-1.91-2.11q0-13.66,0-27.35c0-1.43.61-2,2-2,1.12,0,2.24,0,3.36,0Z" transform="translate(-127 293)"/><path d="M1040.63,240.08h-7.93c-7.35,0-14.71,0-22.06,0-3.69,0-3.73,0-3.75-3.54q0-12.22,0-24.46c0-3.44.07-3.48,3.78-3.48H1085c.64,0,1.29,0,1.92,0,1.46-.08,1.91.63,1.91,2,0,20.43-2.88,40.15-14.4,57.7-11.2,17.06-27.14,27.3-46.87,31.48-18.67,4-37.29,3-55.2-3.78-21.57-8.13-36.49-23.55-44.27-45-10-27.55-8.58-54.75,6.64-80.26,12.35-20.7,31.08-32.58,54.77-36.54A102,102,0,0,1,1030,135q28.43,6.66,44.15,31.31c1.88,3,3.46,6.11,5.28,9.11.93,1.53.5,2.22-1,2.85q-17.71,7.26-35.39,14.64c-1.34.56-2,.38-2.58-.95-.78-1.74-1.77-3.39-2.69-5.07-13-23.69-46.15-22.37-60.09-5.22-16.06,19.76-17.09,51.36-.89,71.12,8.62,10.52,19.75,14.7,33,14.24a36.34,36.34,0,0,0,17-4.42C1035.3,257.74,1039.38,250.09,1040.63,240.08Z" transform="translate(-127 293)"/><path d="M1265.72,297.07c-10.89,0-21.9.05-32.91,0-3.48,0-7.74,1.38-10.23-.63-2.27-1.84-2.73-5.94-3.9-9.08-1.91-5.08-3.87-10.14-5.58-15.29-.73-2.23-1.94-2.82-4.16-2.81q-25.43.11-50.86,0c-2.41,0-3.65.66-4.53,3.06-2.68,7.34-5.68,14.56-8.54,21.85-.65,1.67-1.2,3-3.59,3-13.58-.13-27.17-.06-40.83-.06-.22-2.2.89-3.86,1.56-5.6q28.75-74.87,57.56-149.7c1.54-4,1.54-4,5.69-4,12.48,0,24.95.1,37.42-.08,2.9,0,4.1.95,5.1,3.6q28.5,76,57.16,151.9C1265.5,294.3,1266.44,295.42,1265.72,297.07Z" transform="translate(-127 293)"/><path d="M854.43,217.08V143.69a25,25,0,0,0,0-2.87c-.24-2.15.33-3.14,2.81-3.12,12,.12,24,.1,36,0,2.1,0,2.94.62,2.68,2.72a25,25,0,0,0,0,2.87V291.06a25,25,0,0,0,0,2.87c.32,2.57-.81,3.22-3.27,3.19-11.35-.12-22.7,0-34.05-.06-4.09,0-4.12,0-4.13-4.18Q854.42,255,854.43,217.08Z" transform="translate(-127 293)"/><path class="cls-54" d="M1512.72,1027.37c.63,3.71-1,6.79-2.8,9.8C1509.73,1033.58,1511.89,1030.66,1512.72,1027.37Z" transform="translate(-127 293)"/><path class="cls-56" d="M1479.23,1081.31a1.67,1.67,0,0,1-2,1.88A3.92,3.92,0,0,1,1479.23,1081.31Z" transform="translate(-127 293)"/><path class="cls-53" d="M1502.3,1056.39c0,1,.12,2.16-1,2.86C1501.33,1058.19,1501.18,1057.07,1502.3,1056.39Z" transform="translate(-127 293)"/><path class="cls-56" d="M1482.13,1079.4a2,2,0,0,1-1.93.95A2,2,0,0,1,1482.13,1079.4Z" transform="translate(-127 293)"/><path class="cls-53" d="M1498.42,1063.07a1.83,1.83,0,0,1-1,1.9A2.14,2.14,0,0,1,1498.42,1063.07Z" transform="translate(-127 293)"/><path class="cls-53" d="M1497.44,1065l-.93,1Z" transform="translate(-127 293)"/><path class="cls-53" d="M1505.05,1053.32a1.31,1.31,0,0,1-.87,1.11Z" transform="translate(-127 293)"/><path class="cls-53" d="M1504.18,1054.42l-1,1Z" transform="translate(-127 293)"/><path class="cls-53" d="M1503.24,1055.4l-.93,1Z" transform="translate(-127 293)"/><path class="cls-53" d="M1501.3,1060.16c-.31.34-.63.67-1,1C1500.67,1060.83,1501,1060.5,1501.3,1060.16Z" transform="translate(-127 293)"/><path class="cls-53" d="M1500.36,1061.16l-1,.91Z" transform="translate(-127 293)"/><path class="cls-53" d="M1499.35,1062.08l-.93,1Z" transform="translate(-127 293)"/><path class="cls-53" d="M1496.51,1066l-1,1Z" transform="translate(-127 293)"/><path class="cls-53" d="M1495.55,1066.91l-1,1Z" transform="translate(-127 293)"/><path class="cls-53" d="M1494.6,1067.87l-.88,1Z" transform="translate(-127 293)"/><path class="cls-53" d="M1493.6,1069.72l-.89,1.06Z" transform="translate(-127 293)"/><path class="cls-53" d="M1492.7,1070.79l-1,.92Z" transform="translate(-127 293)"/><path class="cls-53" d="M1491.71,1071.69l-1,.94Z" transform="translate(-127 293)"/><path class="cls-53" d="M1490.71,1072.63l-.93,1Z" transform="translate(-127 293)"/><path class="cls-53" d="M1489.79,1073.62l-.92,1Z" transform="translate(-127 293)"/><path class="cls-53" d="M1488.86,1074.63l-1,.89Z" transform="translate(-127 293)"/><path class="cls-56" d="M1480.2,1080.35l-1,1Z" transform="translate(-127 293)"/><path class="cls-57" d="M1200.63,237.49h-34.25c5.65-16.49,11.2-32.66,16.74-48.83l1,0C1189.56,204.81,1195,221,1200.63,237.49Z" transform="translate(-127 293)"/></svg>