<?xml version="1.0" encoding="utf-8"?>
<!-- Generator: Adobe Illustrator 25.1.0, SVG Export Plug-In . SVG Version: 6.00 Build 0)  -->
<svg version="1.1" id="레이어_1" xmlns="http://www.w3.org/2000/svg" xmlns:xlink="http://www.w3.org/1999/xlink" x="0px"
	 y="0px" viewBox="0 0 600 600" style="enable-background:new 0 0 600 600;" xml:space="preserve">
<style type="text/css">
	.st0{fill:#9B2F1C;}
	.st1{fill:#EEEEEE;}
</style>
<g>
	<g>
		<path d="M300,599.9c-98.64,0-197.27-0.02-295.91,0.1c-3.42,0-4.1-0.67-4.09-4.09C0.11,398.63,0.11,201.36,0,4.09
			C0,0.67,0.67,0,4.09,0c197.27,0.11,394.54,0.11,591.81,0c3.42,0,4.1,0.67,4.09,4.09c-0.11,197.27-0.11,394.54,0,591.81
			c0,3.42-0.67,4.1-4.09,4.09C497.27,599.88,398.64,599.9,300,599.9z M255.71,220.32c0.4,0.27,0.8,0.54,1.2,0.8
			c4.32,3.53,7.55,1.92,10.38-2.1c0.82-1.16,1.5-2.8,3.4-2.39c0.85,0.18,1.38,0.91,1.4,1.85c0.05,1.69-0.96,2.82-2.23,3.67
			c-2.15,1.43-4.66,1.56-7.15,1.85c-1.66,0.19-3.89,1.14-1.97,3.1c2.65,2.71,6.55,2.22,9.97,1.99c3.35-0.22-1-2.15,0.41-3.09
			c0.53-0.35,0.91-0.91,1.37-1.37c4.17-4.1,12.05-5.15,17.01-2.25c0.99-3.94-2.41-6.24-3.7-9.31c-0.47-1.11-0.63-1.66,0.03-2.36
			c2.22-2.36,4.61-3.35,7.19-0.44c3.48,3.92,3.97,8.67,3.54,13.56c-0.75,8.54-4.62,15.81-9.25,22.86
			c-10.19,15.5-18.78,31.79-23.36,49.94c-0.7,2.79-7.69,7.42-10.51,7.02c-1.96-0.28-1.17-1.63-0.91-2.66
			c0.95-3.7,2.15-7.34,2.9-11.08c0.62-3.15,1.82-4.9,5.34-4c1.85,0.47,3.26-0.2,4.04-2.02c1.46-3.41,1.94-6.79,0.04-10.35
			c-1.78,1.35-1.79,4.69-4.13,4.11c-2.6-0.65-3.27-3.49-3.7-6c-0.11-0.65-0.25-1.36-0.11-1.99c0.49-2.1-2.25-5.46,0.84-6.11
			c2.84-0.6,4,2.82,4.86,5.39c0.06,0.18,0.52,0.22,0.86,0.34c0.96-1.52,0.65-3.2,0.34-4.75c-0.75-3.73-6.51-9.6-8.2-8.25
			c-3.72,2.98-5.22,1.21-6.9-1.8c-0.13-0.23-0.59-0.26-0.89-0.39c-5.99-2.6-6.5,4.13-9.93,5.92c-1.23,0.64-2.64,1.84-2.41,3.5
			c0.14,1.07,0.94,2.12,1.63,3.04c6.83,9.13,10.99,18.67,5.32,30.05c-1.03,2.06-1.48,4.41-2.25,6.61c-1.54,4.42-3.35,5.18-7.3,2.71
			c-4.78-2.99-7.25-7.73-8.82-12.91c-4.75-15.72-4.59-31.86-3.53-47.99c0.5-7.61,0.43-14.94-3.46-21.8
			c-1.16-2.05-2.27-4.62-0.54-6.54c1.87-2.08,4.51-1.56,6.85-0.07c0.29,0.18,0.85-0.07,1.32-0.13c-0.97-3.3-8.81-6.83-11.5-5.36
			c-0.85,0.46-0.95,1.22-1.17,2.04c-1.42,5.38-3.78,10.04-8.67,13.3c-3.15,2.11-6,4.77-8.66,7.51
			c-33.51,34.56-47.25,76.44-42.43,123.66c3.79,37.15,20.58,68.58,50.23,92.18c10.18,8.1,21.46,14.53,34.49,17.15
			c0.36,0.22,0.72,0.46,1.09,0.65c0.03,0.01,0.18-0.23,0.28-0.35c-0.43-0.14-0.86-0.27-1.29-0.41c-4.26-4.36-8.64-8.62-12.77-13.12
			c-6.88-7.49-13.57-15.18-16.61-25.19c-1.34-4.42-1.92-9.18,1.23-12.89c3.05-3.59,1.61-5.52-1.07-8.17
			c-8.7-8.63-10.69-18.76-6.11-30.18c1.57-3.92,3.97-7.27,6.65-10.47c0.89-1.06,2.69-2.19,1.02-3.74
			c-4.67-4.34-1.81-7.91,1.23-11.11c6.47-6.81,14.57-11.35,22.89-16.19c1.47,6.31,2.77,12.07,7.52,16.8
			c1.73-5.67,5.61-7.14,10.59-6.84c2.66,0.16,5.41-0.25,7.97,0.3c5.16,1.1,11.05-0.57,15.49,2.87c8.35,6.47,18.12,8.84,28.09,10.89
			c3.56,0.73,7.26,1.11,10.05,3.85c-0.18,0.2-0.35,0.41-0.53,0.61c-4.74-0.87-9.47-1.75-14.21-2.6
			c-15.11-2.73-31.61,7.15-35.92,21.84c-0.84,2.86-2.09,3.57-4.76,3.6c-5.51,0.08-10.91,1.14-16.14,2.88
			c-11.92,3.97-18.58,12.79-17.72,25.26c1.29,18.6,11.5,31.73,27.88,39.64c23.28,11.24,48.24,11.28,73.36,9.49
			c6.25-0.44,12.34-3.55,18.68-1.74c20.55,5.86,41.35,5.8,62.33,3.2c23.38-2.9,37.34-21.62,33.16-44.85
			c-6.82,11.62-18.14,17.15-30.1,22.25c2.23,2.51,5.75,2.65,7.85,5.91c-12.58,4.97-24.84,2.63-37.43,0.3
			c16.52-7.5,22.48-21.43,23.2-38c0.93-21.37-3.9-41.92-10.39-62.13c-1.98-6.17-6.35-9.36-12.62-10.66c-4.83-1-9.15,0.46-13.68,1.5
			c-3.97,0.91-6.89,6.3-10.98,4.1c-3.44-1.85-5.67-5.95-8.43-9.07c-0.55-0.62-1.05-1.3-1.58-1.93c-1.22-1.44-1.74-3.38-0.37-4.53
			c4.4-3.65,1.92-7.14,0.3-10.83c-1.08-2.46-1.38-5.11-1.28-7.81c0.17-4.74,2.68-7.72,7.23-8.08c12.82-1.02,24.86,1.6,35.46,9.16
			c5.5,3.93,7.86,9.58,6.29,16.21c-0.72,3.06,0.42,4.08,2.71,5.28c15.69,8.24,22.37,23.89,13.73,40.22
			c-1.1,2.08-0.96,3.07,1.17,4.29c5.46,3.11,7.36,8.25,7.55,14.28c0.14,4.38-0.64,8.6-1.56,12.84c-2.52,11.49-7.9,21.85-12.61,32.49
			c-0.52,0.48-1.46,0.79-0.69,1.78c0.44-0.41,0.87-0.83,1.31-1.24c6.97-4.18,12.4-10.09,17.36-16.32
			c24.72-31.02,30.46-66.83,25.61-105.05c-2.78-21.95-12.22-41.39-24.27-59.58c-17.42-26.28-40.45-45.83-70.48-56.33
			c-6.19-2.17-11.54-4.79-14.99-10.53c-0.31-0.51-1.14-1.25-1.48-1.13c-3.27,1.13-6.6,2.41-8.94,5.01c-2.16,2.4-0.37,4.54,1.21,6.83
			c0.88-4.26,2.95-6.48,5.54-5.76c3.44,0.96,3.34,4.14,2.82,6.6c-1.48,6.98,1.06,13.04,3.34,19.32c5.55,15.3,8.97,31.05,7.72,47.41
			c-0.62,8.07-3.2,16.24-11.76,18.69c-8.25,2.36-17.48,3.94-23.41-5.64c-0.32-0.52-1-1.02-1.59-1.13c-4.72-0.87-4.3-4.32-3.86-7.67
			c0.41-3.12,0.9-6.26,1.64-9.32c2.59-10.64,6.9-20.85,8.12-31.85c0.05-0.49,0.13-1.25,0.42-1.39c3.43-1.62,1.88-4.18,1.54-6.71
			c-0.47-3.44,0.75-5.49,4.9-3.42c-0.36-4.67-1.6-7.97-6.27-8.94c-1.89-0.4-2.85-1.87-2.31-3.77c0.49-1.77,2.1-1.84,3.69-1.81
			c0.95,0.02,1.81,0.98,3,0.17c-0.05-0.55,0.05-1.25-0.19-1.8c-2.05-4.69-6.15-4.34-10.22-4.12c-1.39,0.07-3.41,0.69-3.51-1.53
			c-0.09-1.86,1.81-2.27,3.27-2.37c2.36-0.17,4.74-0.05,7.53-0.05c-1.94-5.06-5.38-6.26-9.45-6.12c-3.83,0.13-7.65,0.56-12.1,0.9
			c11.87-8.7,14.15-13.48,12.08-24.39c-1.89,11.2-3.77,13.4-13.51,15.78c-1.29,0.31-2.61,0.52-3.9,0.82
			c-3.73,0.84-7.69,1.41-10.67,3.93c-3.55,3.01-7.66,4.51-11.98,5.85c-4.4,1.36-8.48,3.36-9.77,8.35c-1.09,4.2-3.51,6.88-7.56,8.58
			c-3.19,1.34-5.33,3.88-4.49,7.84c-1.93,1.06-3.74-1.63-5.64-0.23c3.25,4.34,8.13,1.29,12.06,2.66
			C254.52,219.52,255.11,219.93,255.71,220.32z M265.85,154.45c-2.75-2.54-3.56-6.01-3.89-9.64c-0.16-1.78,0.11-3.4,2.27-3.77
			c1.91-0.32,2.66,0.98,3.15,2.49c0.93,2.84,1.5,5.74,1.71,8.75c0.22,3.17,2.68,1.87,4.15,1.54c1.15-0.26,4.04-1.18,2.79-2.31
			c-3.38-3.07-2.52-7.41-4.34-10.83c-1.63-3.07-3.81-4.57-7.28-2.83c-5.13,2.58-10.87,2.45-16.33,3.53
			c-3.41,0.68-4.29,1.96-2.71,5.27c1.35,2.83,2.29,5.85,1.87,9.07c-0.14,1.08-1.22,2.44,0.22,3.06c1.94,0.84,3.98,0.03,5.75-0.83
			c1.46-0.71,0.47-1.91,0.13-2.99c-0.7-2.21-1.21-4.47-1.84-6.71c-0.64-2.28,0.04-4.16,2.3-4.73c2.07-0.52,2.74,1.33,3.22,2.99
			c0.69,2.39,1.71,4.79,1.08,7.29c-0.8,3.2,0.5,3.52,3.06,2.63C262.7,155.91,264.58,156.32,265.85,154.45z M129.99,273.77
			c-4.26,2.81-8.47,4.3-12.48,6.24c-2.75,1.33-4.27,0.61-5.61-1.86c-1.62-2.99-3.4-5.9-5.49-9.5c-0.61,3.33-3.93,6.83-0.77,8.06
			c4.79,1.85,5.03,6,7.82,9.43c-3.6,0.21-6.28-0.51-8.3-2.58c-1.99-2.04-2.64-1.07-3.16,0.96c-0.37,1.44-0.73,2.88-1.04,4.34
			c-0.32,1.53-0.22,2.39,1.92,2.19c7.93-0.75,15.07,1.72,22,5.95c0.46-1.74,0.87-3.5,1.38-5.23c0.74-2.48,0.5-3.84-2.7-3.29
			c-2.36,0.41-5.83,0.8-6.16-2.14c-0.26-2.28,3.16-2.78,5.38-3.35c0.32-0.08,0.65-0.13,0.98-0.16
			C129.05,282.33,130.85,279.31,129.99,273.77z M310.54,151.9c8.13,0.86,16.18,5.02,22.8-3.01c3.21-3.9,3.62-10.51,1.14-14.54
			c-3.17-5.17-12.71-8.01-20.5-6.1C316.56,133,314.81,146.36,310.54,151.9z M476.37,298.32c2.12-4.93,4.81-9.79,8.95-11.8
			c4.76-2.31,8.93,2.61,13.61,4.49c-1.94-1.96,2.65-8.62-5.22-6.3c-1.45,0.43-4.03-0.27-4.57-2.16c-0.5-1.74,1.66-3.5,2.78-3.67
			c5.42-0.84,3.61-4.14,2.72-7.08c-0.31-1.02-0.26-2.61-1.62-2.85c-1.58-0.28-1.44,1.47-2.07,2.32c-7.78,10.35-6.17,9.88-17.77,4.47
			c-0.99-0.46-1.87-1.17-2.98-1.89c-0.43,6.58-0.03,6.98,5.14,6.88c1.95-0.04,4.4,0.33,5.16,2.18c0.65,1.59-1.64,2.58-2.67,3.8
			c-0.79,0.94-1.81,1.36-3.08,1.34c-1.73-0.03-1.89,1.2-1.5,2.4C474.05,292.9,474.05,295.66,476.37,298.32z M180.14,206.72
			c0.05-3.51-0.96-5.45-3.72-5.92c-2.2-0.37-3.67,1.17-5.24,2.4c-0.95,0.74-1.8,2.5-3.22,1.4c-1.26-0.98,0.25-1.98,0.69-2.94
			c1.11-2.48-0.56-10.86-2.54-12.48c-0.74-0.61-1.46-0.38-2.14,0.34c-2.28,2.4-4.84,4.58-6.87,7.17c-1.99,2.54-2.69,6.03,0.22,7.99
			c2.85,1.92,5.49,3.74,7.82,6.33c0.99,1.1,1.74,2.02,2.26,3.37c1.04,2.71,3.22,3.44,5.63,2.14
			C177.22,214.27,179.63,210.64,180.14,206.72z M407.92,183.92c1.36-0.9,1.98-0.1,2.65,0.21c3.8,1.76,13.83-0.25,13.98-3.25
			c0.16-3.31-4.26-3.95-6.24-6.25c-0.91-1.06-2.41-1.8-3.78-2.26c-2.81-0.95-5.96-0.36-6.79,2.37c-0.97,3.2-2.55,5.38-4.91,7.57
			c-1.07,1-1.57,2.44-3.28,3.13c-2.47,0.99-2.59,3.18-1.54,5.43c1.59,3.41,7.88,6.67,11.73,6.19c1.98-0.25,3.48-1.15,4.17-3.01
			c0.62-1.68,0.1-3.19-1.07-4.59C411.31,187.61,408.83,186.56,407.92,183.92z M181.33,178.93c0.41,3.75,2.09,7.04,5.83,8.97
			c2.81,1.45,5.61,1.12,7.85-1.06c1.73-1.68,3.1-3.47,5.62-4.35c1.31-0.46,5.45-2.62,0.19-4.34c-1.67-0.55-2.41-2.24-3.4-3.55
			c-3.09-4.13-6.09-8.33-9.17-12.47c-0.67-0.9-1.32-2.09-2.79-1.38c-1.54,0.74-2.89,1.84-3.43,3.44c-0.6,1.77,1.23,1.46,2.1,2.03
			c2.63,1.71,4.87,3.48,0.64,6.08C182.54,173.68,181.44,175.94,181.33,178.93z M144.85,241.38c1.34-1.54,2.12-2.39,2.84-3.28
			c2.18-2.71,2.62-4.6-1.74-5.59c-2.14-0.49-4.03-2.22-5.91-3.56c-1.6-1.14-1.69-2.92-0.8-4.47c1.05-1.82,2.66-1.53,4.31-0.62
			c2.61,1.45,5.25,2.84,7.07,5.34c0.53,0.72,1.28,1.37,2.06,0.71c1.65-1.41,2.77-3.25,3.39-5.34c0.2-0.67-0.1-1.64-0.79-1.44
			c-4.69,1.31-7.09-2.93-10.64-4.35c-3.62-1.45-6.01-0.28-7.32,2.81c-1.01,2.39-1.43,4.71-3.89,6.45c-1.34,0.94-3.82,3.84,1.42,4.65
			C139.1,233.33,143.11,235.91,144.85,241.38z M457.68,244.82c0.63-4.68,5.02-5.62,7.99-8.04c3.69-3,4.13-5.75,1.08-8.75
			c-1.71-1.68-3.65-2.87-3.66-5.84c0-0.95-2.16-4.77-3.9-2.28c-3.27,4.69-7.4,6.95-13.13,7.34c0.64,1.34,1.04,2.23,1.48,3.09
			c1.55,3.03,3.07,5.16,6.12,1.08c1.34-1.79,3.51-2.97,5.73-3.83c1.89-0.73,3.32-0.13,4.3,1.36c1,1.52,0.24,2.87-1.06,3.88
			c-2.1,1.62-4.17,3.57-6.79,3.99c-4.12,0.67-2.97,2.52-1.47,4.68C455.21,242.73,455.95,244.06,457.68,244.82z M381.15,161.58
			c-3.11-0.17-5.44,0.97-6,4.08c-0.58,3.22,1.58,4.97,4.41,5.6c2.4,0.53,4.5,1.07,6.27,3.1c0.89,1.02,4.34,1.9,3.99-0.36
			c-0.54-3.49,1.52-5.55,2.47-8.17c0.91-2.52,2.45-4.89,0.27-7.39c-2.47-2.83-5.71-3.81-9.38-3.52c-1.28,0.1-2.35,0.66-2.27,2.09
			c0.09,1.5,1.45,1.71,2.57,1.75c0.78,0.03,1.57-0.48,2.37-0.64c0.99-0.19,2.03-0.21,2.67,0.79c0.58,0.91,0.56,1.89-0.05,2.79
			c-0.74,1.1-1.7,1.38-3.01,0.94C384.07,162.18,382.59,161.93,381.15,161.58z M446.89,203.62c-0.12-4.76-4.74-9.08-9.52-8.91
			c-4.99,0.18-9.65,4.99-9.4,9.7c0.26,4.77,4.85,8.82,9.77,8.62C442.47,212.84,447,208.17,446.89,203.62z M229.23,161.32
			c-0.07-5.32-3.86-9.36-8.79-9.37c-5.09-0.01-9.42,4.11-9.36,8.9c0.07,5.36,4.32,9.83,9.22,9.69
			C225.6,170.38,229.3,166.56,229.23,161.32z M357.71,161.24c0.61-1.85-0.41-2.76-0.57-3.86c-0.44-2.96,0.52-5.65,2.35-7.84
			c1.66-1.98,3.21-0.11,4.78,0.66c1.33,0.65,2.29-0.12,2.62-1.39c0.51-1.96-0.73-3-2.39-2.85c-2.37,0.21-4.07-0.26-5.69-2.17
			c-1.07-1.25-3.2-1.28-4.71-0.69c-2.23,0.87,0.23,2.1,0.11,3.25c-0.32,3.01-0.65,6.58-2.57,8.39c-5.52,5.2-0.1,4.72,2.55,5.72
			C355.22,160.85,356.37,160.96,357.71,161.24z M121.09,254.89c6.37-1.55,10.63,1.89,14.63,6.75c1.21-2.65,2.3-4.85,3.19-7.13
			c0.29-0.73,0.65-2.26-1.08-1.81c-3.99,1.06-6.99-1.41-10.24-2.79C121.55,247.35,121.13,247.57,121.09,254.89z M119.04,247.83
			c0.01-1.82-0.83-2.91-2.6-2.92c-1.82-0.01-2.54,1.33-2.72,2.89c-0.22,1.85,1.04,2.87,2.59,2.91
			C117.96,250.75,118.71,249.32,119.04,247.83z"/>
		<path class="st0" d="M313.24,363.7c-2.79-2.75-6.49-3.12-10.05-3.85c-9.97-2.05-19.74-4.42-28.09-10.89
			c-4.44-3.44-10.33-1.77-15.49-2.87c-2.56-0.55-5.31-0.14-7.97-0.3c-4.98-0.3-8.86,1.17-10.59,6.84
			c-4.76-4.73-6.05-10.49-7.52-16.8c-8.31,4.84-16.42,9.37-22.89,16.19c-3.04,3.2-5.9,6.78-1.23,11.11
			c1.67,1.55-0.13,2.68-1.02,3.74c-2.68,3.2-5.08,6.55-6.65,10.47c-4.58,11.42-2.59,21.54,6.11,30.18c2.67,2.65,4.11,4.58,1.07,8.17
			c-3.15,3.71-2.57,8.47-1.23,12.89c3.04,10.01,9.73,17.7,16.61,25.19c4.12,4.49,8.5,8.75,12.77,13.12c0,0-0.09,0.1-0.09,0.1
			c-13.03-2.63-24.31-9.05-34.49-17.15c-29.66-23.6-46.44-55.03-50.23-92.18c-4.82-47.22,8.92-89.1,42.43-123.66
			c2.65-2.74,5.5-5.4,8.66-7.51c4.89-3.26,7.25-7.92,8.67-13.3c0.22-0.82,0.32-1.58,1.17-2.04c2.69-1.47,10.53,2.05,11.5,5.36
			c-0.47,0.06-1.03,0.31-1.32,0.13c-2.33-1.49-4.98-2.01-6.85,0.07c-1.73,1.92-0.62,4.49,0.54,6.54c3.89,6.86,3.96,14.19,3.46,21.8
			c-1.06,16.14-1.22,32.27,3.53,47.99c1.57,5.18,4.04,9.92,8.82,12.91c3.94,2.47,5.75,1.71,7.3-2.71c0.77-2.2,1.22-4.54,2.25-6.61
			c5.67-11.38,1.51-20.92-5.32-30.05c-0.69-0.92-1.49-1.97-1.63-3.04c-0.22-1.66,1.18-2.86,2.41-3.5c3.43-1.79,3.93-8.52,9.93-5.92
			c0.3,0.13,0.77,0.17,0.89,0.39c1.67,3.01,3.18,4.78,6.9,1.8c1.69-1.35,7.45,4.52,8.2,8.25c0.31,1.55,0.62,3.23-0.34,4.75
			c-0.34-0.13-0.81-0.17-0.86-0.34c-0.86-2.57-2.01-5.99-4.86-5.39c-3.08,0.65-0.35,4.01-0.84,6.11c-0.14,0.62,0,1.33,0.11,1.99
			c0.43,2.52,1.1,5.36,3.7,6c2.34,0.58,2.35-2.76,4.13-4.11c1.9,3.56,1.42,6.94-0.04,10.35c-0.78,1.81-2.19,2.49-4.04,2.02
			c-3.52-0.9-4.71,0.85-5.34,4c-0.74,3.74-1.94,7.38-2.9,11.08c-0.27,1.03-1.05,2.38,0.91,2.66c2.81,0.4,9.8-4.24,10.51-7.02
			c4.58-18.15,13.17-34.44,23.36-49.94c4.63-7.05,8.5-14.32,9.25-22.86c0.43-4.89-0.06-9.64-3.54-13.56
			c-2.58-2.9-4.96-1.91-7.19,0.44c-0.66,0.7-0.5,1.25-0.03,2.36c1.28,3.07,4.69,5.37,3.7,9.31c-4.96-2.89-12.84-1.85-17.01,2.25
			c-0.46,0.45-0.85,1.02-1.37,1.37c-1.41,0.94,2.95,2.87-0.41,3.09c-3.43,0.23-7.32,0.71-9.97-1.99c-1.92-1.96,0.31-2.91,1.97-3.1
			c2.5-0.29,5-0.42,7.15-1.85c1.27-0.85,2.28-1.98,2.23-3.67c-0.03-0.94-0.55-1.67-1.4-1.85c-1.9-0.4-2.58,1.23-3.4,2.39
			c-2.83,4.01-6.07,5.63-10.38,2.1l0.28-0.32c4,0.62,7.19,0.27,8.17-4.77c0.59-3.05,2.87-4.81,6.33-4.2
			c0.82,0.14,1.76,0.17,1.95-0.93c0.16-0.94-0.48-1.55-1.24-1.95c-3.09-1.6-6.44-0.36-7.41,2c-1.35,3.27-3.28,3.02-5.94,2.44
			c2.36,5.12-0.97,3.73-2.98,3.15c-2.63-0.75-3.21-0.39-1.59,2c-0.19,0.19-0.37,0.39-0.56,0.58c-3.92-1.37-8.81,1.67-12.06-2.67
			c1.91-1.4,3.71,1.29,5.64,0.23c-0.84-3.97,1.3-6.5,4.49-7.84c4.04-1.7,6.47-4.38,7.56-8.58c1.29-4.98,5.37-6.99,9.77-8.35
			c4.32-1.33,8.42-2.83,11.98-5.85c2.98-2.53,6.94-3.09,10.67-3.93c1.3-0.29,2.61-0.5,3.9-0.82c9.73-2.37,11.61-4.58,13.51-15.78
			c2.08,10.91-0.21,15.68-12.08,24.39c4.46-0.34,8.27-0.76,12.1-0.9c4.08-0.14,7.51,1.06,9.45,6.12c-2.79,0-5.17-0.12-7.53,0.05
			c-1.47,0.11-3.36,0.51-3.27,2.37c0.1,2.22,2.12,1.6,3.51,1.53c4.07-0.22,8.17-0.57,10.22,4.12c0.24,0.55,0.14,1.25,0.19,1.8
			c-1.19,0.81-2.05-0.15-3-0.17c-1.58-0.03-3.19,0.04-3.69,1.81c-0.53,1.9,0.42,3.37,2.31,3.77c4.66,0.97,5.91,4.27,6.27,8.94
			c-4.15-2.07-5.37-0.02-4.9,3.42c0.34,2.53,1.89,5.09-1.54,6.71c-0.3,0.14-0.37,0.9-0.42,1.39c-1.22,11-5.53,21.2-8.12,31.85
			c-0.74,3.06-1.23,6.19-1.64,9.32c-0.44,3.35-0.86,6.81,3.86,7.67c0.59,0.11,1.27,0.61,1.59,1.13c5.93,9.58,15.16,8,23.41,5.64
			c8.56-2.45,11.14-10.62,11.76-18.69c1.25-16.36-2.16-32.11-7.72-47.41c-2.28-6.28-4.83-12.34-3.34-19.32
			c0.52-2.46,0.63-5.64-2.82-6.6c-2.59-0.72-4.66,1.5-5.54,5.76c-1.58-2.28-3.37-4.43-1.21-6.83c2.34-2.6,5.67-3.88,8.94-5.01
			c0.33-0.11,1.17,0.62,1.48,1.13c3.45,5.75,8.79,8.37,14.99,10.53c30.03,10.5,53.06,30.05,70.48,56.33
			c12.06,18.19,21.49,37.63,24.27,59.58c4.85,38.23-0.89,74.03-25.61,105.05c-4.96,6.22-10.39,12.13-17.36,16.32
			c-0.21-0.18-0.41-0.36-0.62-0.54c4.71-10.63,10.09-21,12.61-32.49c0.93-4.24,1.7-8.46,1.56-12.84
			c-0.19-6.04-2.09-11.17-7.55-14.28c-2.13-1.22-2.27-2.21-1.17-4.29c8.64-16.33,1.96-31.99-13.73-40.22
			c-2.29-1.2-3.43-2.21-2.71-5.28c1.57-6.62-0.8-12.28-6.29-16.21c-10.6-7.57-22.64-10.19-35.46-9.16
			c-4.55,0.36-7.05,3.34-7.23,8.08c-0.1,2.71,0.19,5.35,1.28,7.81c1.62,3.68,4.1,7.18-0.3,10.83c-1.38,1.14-0.85,3.09,0.37,4.53
			c0.54,0.64,1.03,1.31,1.58,1.93c2.76,3.11,4.99,7.22,8.43,9.07c4.09,2.2,7.01-3.19,10.98-4.1c4.53-1.04,8.85-2.5,13.68-1.5
			c6.27,1.3,10.64,4.49,12.62,10.66c6.49,20.2,11.32,40.76,10.39,62.13c-0.72,16.56-6.68,30.49-23.2,38
			c12.59,2.33,24.85,4.67,37.43-0.3c-2.11-3.26-5.62-3.4-7.85-5.91c11.96-5.1,23.29-10.63,30.1-22.25
			c4.18,23.22-9.78,41.95-33.16,44.85c-20.98,2.6-41.78,2.66-62.33-3.2c-6.34-1.81-12.43,1.3-18.68,1.74
			c-25.12,1.79-50.08,1.75-73.36-9.49c-16.37-7.9-26.58-21.03-27.88-39.64c-0.87-12.47,5.79-21.29,17.72-25.26
			c5.23-1.74,10.63-2.81,16.14-2.88c2.67-0.04,3.92-0.75,4.76-3.6c4.32-14.69,20.81-24.57,35.92-21.84
			c4.74,0.86,9.47,1.74,14.21,2.6c0.46,0.46,1.26,0.83,1.55,0.31C314.67,363.86,313.65,363.96,313.24,363.7z M281.27,430.08
			c-6.22-4.68-12.4-9.42-18.69-14.01c-1.14-0.83-2.94-1.77-4.06-0.29c-0.97,1.29,0.55,2.43,1.44,3.34
			C265.79,425.07,272.94,428.66,281.27,430.08z"/>
		<path class="st1" d="M265.85,154.45c-1.27,1.87-3.15,1.46-4.67,1.98c-2.56,0.89-3.87,0.56-3.06-2.63
			c0.63-2.51-0.38-4.91-1.08-7.29c-0.48-1.66-1.16-3.51-3.22-2.99c-2.26,0.57-2.94,2.45-2.3,4.73c0.63,2.23,1.14,4.5,1.84,6.71
			c0.34,1.08,1.33,2.28-0.13,2.99c-1.77,0.86-3.82,1.68-5.75,0.83c-1.44-0.62-0.36-1.98-0.22-3.06c0.42-3.22-0.52-6.24-1.87-9.07
			c-1.58-3.31-0.7-4.59,2.71-5.27c5.45-1.09,11.2-0.96,16.33-3.53c3.47-1.74,5.65-0.24,7.28,2.83c1.81,3.42,0.95,7.76,4.34,10.83
			c1.25,1.14-1.64,2.05-2.79,2.31c-1.47,0.34-3.93,1.64-4.15-1.54c-0.2-3.01-0.78-5.91-1.71-8.75c-0.49-1.51-1.25-2.81-3.15-2.49
			c-2.16,0.36-2.43,1.99-2.27,3.77C262.29,148.44,263.1,151.91,265.85,154.45z"/>
		<path class="st1" d="M129.99,273.77c0.85,5.55-0.95,8.57-6.22,9.03c-0.33,0.03-0.66,0.08-0.98,0.16
			c-2.21,0.57-5.63,1.07-5.38,3.35c0.33,2.94,3.8,2.55,6.16,2.14c3.2-0.55,3.44,0.81,2.7,3.29c-0.51,1.73-0.92,3.49-1.38,5.23
			c-6.92-4.22-14.07-6.69-22-5.95c-2.15,0.2-2.24-0.65-1.92-2.19c0.3-1.46,0.67-2.9,1.04-4.34c0.52-2.03,1.16-3,3.16-0.96
			c2.02,2.07,4.7,2.8,8.3,2.58c-2.79-3.43-3.03-7.58-7.82-9.43c-3.16-1.22,0.16-4.73,0.77-8.06c2.09,3.6,3.87,6.51,5.49,9.5
			c1.33,2.46,2.86,3.18,5.61,1.86C121.52,278.07,125.74,276.57,129.99,273.77z"/>
		<path class="st1" d="M310.54,151.9c4.26-5.54,6.01-18.9,3.44-23.65c7.79-1.91,17.33,0.93,20.5,6.1
			c2.47,4.03,2.07,10.64-1.14,14.54C326.73,156.92,318.67,152.76,310.54,151.9z M329.95,140.17c0.09-2.74-0.44-5.29-2.49-7.29
			c-1.52-1.48-3.4-2.29-5.45-1.77c-2.11,0.53-1.56,2.69-1.8,4.18c-0.62,3.93-0.83,7.93-1.53,11.84c-0.61,3.45,1.09,4.11,3.89,3.85
			C327.07,150.57,329.86,146.47,329.95,140.17z"/>
		<path class="st1" d="M476.37,298.32c-2.32-2.66-2.32-5.42-3.13-7.86c-0.39-1.2-0.23-2.43,1.5-2.4c1.27,0.02,2.3-0.4,3.08-1.34
			c1.03-1.22,3.32-2.21,2.67-3.8c-0.75-1.85-3.2-2.22-5.16-2.18c-5.17,0.1-5.57-0.3-5.14-6.88c1.11,0.71,1.99,1.43,2.98,1.89
			c11.59,5.41,9.99,5.88,17.77-4.47c0.64-0.85,0.5-2.59,2.07-2.32c1.36,0.24,1.31,1.82,1.62,2.85c0.89,2.95,2.7,6.24-2.72,7.08
			c-1.12,0.17-3.28,1.92-2.78,3.67c0.54,1.89,3.12,2.59,4.57,2.16c7.88-2.33,3.28,4.34,5.22,6.3c-4.68-1.88-8.85-6.79-13.61-4.49
			C481.18,288.53,478.49,293.39,476.37,298.32z"/>
		<path class="st1" d="M180.14,206.72c-0.51,3.91-2.92,7.54-7.1,9.8c-2.41,1.3-4.59,0.57-5.63-2.14c-0.52-1.35-1.27-2.27-2.26-3.37
			c-2.33-2.59-4.98-4.41-7.82-6.33c-2.91-1.96-2.21-5.45-0.22-7.99c2.03-2.59,4.59-4.77,6.87-7.17c0.68-0.72,1.39-0.95,2.14-0.34
			c1.97,1.62,3.65,10,2.54,12.48c-0.43,0.97-1.95,1.97-0.69,2.94c1.42,1.1,2.27-0.66,3.22-1.4c1.57-1.22,3.03-2.77,5.24-2.4
			C179.18,201.27,180.19,203.21,180.14,206.72z M172.05,212.67c2.7-0.8,4.25-2.82,4.76-5.56c0.26-1.4-0.83-3.16-2.05-2.69
			c-2.42,0.94-4.6,2.73-5.16,5.52C169.3,211.39,170.43,212.32,172.05,212.67z M165.9,200.21c-0.88-2.09-2.24-3.88-4.79-4.3
			c-1.64-0.27-2.72,0.58-2.38,2.24c0.52,2.54,2.41,3.93,4.87,4.31C164.88,202.65,165.77,201.81,165.9,200.21z M167.69,205.17
			c-0.21,0.12-0.43,0.24-0.64,0.36c0.11,0.11,0.25,0.33,0.33,0.31c0.23-0.05,0.45-0.2,0.67-0.31
			C167.93,205.42,167.82,205.31,167.69,205.17z"/>
		<path class="st1" d="M407.92,183.92c0.91,2.64,3.39,3.69,4.93,5.55c1.16,1.4,1.69,2.91,1.07,4.59c-0.69,1.86-2.19,2.76-4.17,3.01
			c-3.85,0.49-10.14-2.78-11.73-6.19c-1.05-2.25-0.93-4.44,1.54-5.43c1.71-0.69,2.21-2.14,3.28-3.13c2.36-2.19,3.94-4.37,4.91-7.57
			c0.83-2.74,3.98-3.32,6.79-2.37c1.37,0.46,2.86,1.2,3.78,2.26c1.98,2.3,6.39,2.94,6.24,6.25c-0.14,2.99-10.18,5-13.98,3.25
			C409.9,183.82,409.28,183.02,407.92,183.92z M405.12,186.98c-1.81-0.04-3.19,0.69-3.08,2.15c0.25,3.2,2.89,4.16,5.53,4.69
			c1.49,0.3,3.06-0.8,2.63-2.14C409.43,189.25,407.3,187.79,405.12,186.98z M413.45,182.08c2.46-0.73,3.66-2.82,4-5.32
			c0.16-1.18-0.92-2.28-2.21-1.96c-2.65,0.66-4.06,2.6-4.23,5.3C410.92,181.5,411.84,182.11,413.45,182.08z"/>
		<path class="st1" d="M181.33,178.93c0.11-2.99,1.2-5.26,3.45-6.64c4.23-2.6,1.99-4.37-0.64-6.08c-0.87-0.57-2.7-0.26-2.1-2.03
			c0.54-1.6,1.89-2.7,3.43-3.44c1.47-0.7,2.12,0.49,2.79,1.38c3.07,4.14,6.08,8.34,9.17,12.47c0.98,1.31,1.73,3.01,3.4,3.55
			c5.25,1.73,1.11,3.89-0.19,4.34c-2.52,0.88-3.89,2.67-5.62,4.35c-2.24,2.18-5.04,2.5-7.85,1.06
			C183.42,185.98,181.74,182.68,181.33,178.93z M195.46,182.05c-1.53-3.54-3.38-6.62-6.47-8.76c-0.41-0.28-1.34-0.09-1.88,0.17
			c-1.25,0.62-2.17,1.61-2.03,3.14c0.31,3.4,2.13,5.88,4.95,7.62c1.33,0.82,2.85,1.14,4.13-0.14
			C194.71,183.54,195.02,182.76,195.46,182.05z"/>
		<path class="st1" d="M144.85,241.38c-1.74-5.46-5.75-8.04-10-8.7c-5.23-0.81-2.75-3.71-1.42-4.65c2.46-1.73,2.88-4.06,3.89-6.45
			c1.3-3.09,3.7-4.25,7.32-2.81c3.54,1.42,5.95,5.65,10.64,4.35c0.69-0.19,0.99,0.77,0.79,1.44c-0.62,2.09-1.74,3.94-3.39,5.34
			c-0.78,0.66-1.53,0.01-2.06-0.71c-1.82-2.49-4.45-3.89-7.07-5.34c-1.65-0.91-3.26-1.2-4.31,0.62c-0.89,1.55-0.8,3.32,0.8,4.47
			c1.88,1.34,3.78,3.07,5.91,3.56c4.36,0.99,3.92,2.89,1.74,5.59C146.97,238.99,146.19,239.83,144.85,241.38z"/>
		<path class="st1" d="M457.68,244.82c-1.73-0.75-2.46-2.09-3.31-3.31c-1.5-2.16-2.65-4.02,1.47-4.68c2.62-0.42,4.7-2.37,6.79-3.99
			c1.3-1,2.06-2.36,1.06-3.88c-0.98-1.49-2.41-2.09-4.3-1.36c-2.22,0.86-4.39,2.04-5.73,3.83c-3.05,4.07-4.57,1.95-6.12-1.08
			c-0.44-0.86-0.84-1.75-1.48-3.09c5.73-0.4,9.86-2.66,13.13-7.34c1.74-2.49,3.89,1.33,3.9,2.28c0.01,2.97,1.95,4.15,3.66,5.84
			c3.05,3,2.61,5.75-1.08,8.75C462.7,239.19,458.31,240.13,457.68,244.82z"/>
		<path class="st1" d="M381.15,161.58c1.44,0.35,2.92,0.6,4.32,1.07c1.31,0.44,2.28,0.15,3.01-0.94c0.6-0.9,0.63-1.88,0.05-2.79
			c-0.64-1-1.67-0.98-2.67-0.79c-0.81,0.15-1.59,0.67-2.37,0.64c-1.12-0.04-2.49-0.25-2.57-1.75c-0.08-1.43,0.98-1.99,2.27-2.09
			c3.67-0.29,6.92,0.7,9.38,3.52c2.18,2.5,0.65,4.87-0.27,7.39c-0.95,2.62-3.01,4.67-2.47,8.17c0.35,2.26-3.1,1.38-3.99,0.36
			c-1.77-2.03-3.87-2.57-6.27-3.1c-2.83-0.63-4.99-2.38-4.41-5.6C375.71,162.55,378.05,161.41,381.15,161.58z M383.47,164.27
			c-1.79,0.23-3.22,0.94-3.42,2.9c-0.18,1.78,1.4,2.27,2.59,2.39c2.23,0.23,3.25-1.57,3.53-3.35
			C386.44,164.44,384.45,164.87,383.47,164.27z"/>
		<path class="st1" d="M446.89,203.62c0.12,4.55-4.42,9.22-9.15,9.41c-4.92,0.2-9.51-3.85-9.77-8.62c-0.26-4.71,4.41-9.52,9.4-9.7
			C442.15,194.54,446.77,198.86,446.89,203.62z M442.8,200.79c-0.31-1.49-1.02-2.81-3.16-2.72c-2.98,0.13-7.92,4.98-7.97,7.9
			c-0.03,1.98,0.92,3.05,2.95,3.17C437.76,209.33,443,204.19,442.8,200.79z"/>
		<path class="st1" d="M229.23,161.32c0.07,5.24-3.63,9.07-8.93,9.22c-4.9,0.14-9.15-4.33-9.22-9.69c-0.06-4.79,4.27-8.9,9.36-8.9
			C225.37,151.96,229.16,155.99,229.23,161.32z M217.96,154.99c-0.47,0.29-1.33,0.55-1.79,1.13c-1.9,2.4-0.54,4.75,0.44,6.97
			c1.03,2.34,2.62,4.3,5.44,4.41c0.66,0.03,1.57-0.62,1.99-1.23c1.76-2.48,0.31-4.71-0.78-6.93
			C222.21,157.22,220.96,155.31,217.96,154.99z"/>
		<path class="st1" d="M357.71,161.24c-1.34-0.29-2.48-0.4-3.53-0.79c-2.66-1-8.08-0.52-2.55-5.72c1.92-1.81,2.25-5.39,2.57-8.39
			c0.12-1.15-2.34-2.38-0.11-3.25c1.52-0.59,3.65-0.56,4.71,0.69c1.62,1.91,3.32,2.38,5.69,2.17c1.67-0.15,2.9,0.9,2.39,2.85
			c-0.33,1.28-1.29,2.05-2.62,1.39c-1.57-0.77-3.12-2.64-4.78-0.66c-1.84,2.19-2.8,4.88-2.35,7.84
			C357.3,158.48,358.32,159.4,357.71,161.24z"/>
		<path class="st1" d="M121.09,254.89c0.04-7.32,0.46-7.54,6.51-4.98c3.25,1.37,6.24,3.85,10.24,2.79c1.73-0.46,1.37,1.07,1.08,1.81
			c-0.89,2.28-1.99,4.48-3.19,7.13C131.72,256.78,127.46,253.33,121.09,254.89z"/>
		<path class="st1" d="M119.04,247.83c-0.33,1.49-1.08,2.92-2.74,2.88c-1.54-0.04-2.81-1.06-2.59-2.91c0.19-1.57,0.9-2.91,2.72-2.89
			C118.22,244.92,119.06,246.01,119.04,247.83z"/>
		<path class="st0" d="M404.42,437.35c-0.44,0.41-0.87,0.83-1.31,1.24c-0.77-0.98,0.18-1.3,0.69-1.78
			C404.01,436.99,404.21,437.17,404.42,437.35z"/>
		<path class="st0" d="M255.71,220.33c-0.59-0.4-1.19-0.81-1.78-1.21c0.19-0.2,0.37-0.39,0.56-0.58c0.53,0.47,1.07,0.93,1.61,1.4
			C255.97,220.07,255.84,220.2,255.71,220.33z"/>
		<path class="st0" d="M237.08,466.88c0.43,0.14,0.86,0.27,1.29,0.41c-0.1,0.12-0.26,0.36-0.28,0.35c-0.37-0.2-0.73-0.43-1.09-0.65
			C236.99,466.99,237.08,466.88,237.08,466.88z"/>
		<path class="st0" d="M256.92,221.13c-0.4-0.27-0.8-0.53-1.21-0.8c0.13-0.13,0.26-0.26,0.38-0.39c0.37,0.29,0.73,0.58,1.1,0.86
			L256.92,221.13z"/>
		<path d="M281.27,430.08c-8.33-1.42-15.48-5.01-21.31-10.96c-0.88-0.9-2.41-2.04-1.44-3.34c1.11-1.48,2.92-0.54,4.06,0.29
			C268.87,420.66,275.06,425.39,281.27,430.08z"/>
		<path d="M257.19,220.8c-0.37-0.29-0.74-0.58-1.1-0.86c-0.54-0.46-1.08-0.93-1.61-1.4c-1.62-2.39-1.04-2.76,1.59-2.01
			c2,0.58,5.34,1.97,2.98-3.15c2.65,0.59,4.58,0.84,5.94-2.44c0.97-2.36,4.32-3.6,7.41-2c0.76,0.4,1.41,1.01,1.24,1.95
			c-0.19,1.1-1.13,1.08-1.95,0.93c-3.46-0.6-5.74,1.15-6.33,4.2C264.39,221.07,261.2,221.42,257.19,220.8z"/>
		<path d="M313.24,363.7c0.41,0.26,1.43,0.15,1.02,0.91c-0.29,0.52-1.08,0.15-1.55-0.31C312.88,364.11,313.06,363.91,313.24,363.7z"
			/>
		<path d="M329.95,140.18c-0.09,6.29-2.88,10.39-7.37,10.8c-2.8,0.26-4.5-0.4-3.89-3.85c0.69-3.91,0.91-7.91,1.53-11.84
			c0.23-1.49-0.32-3.65,1.8-4.18c2.04-0.51,3.93,0.29,5.45,1.77C329.51,134.89,330.04,137.43,329.95,140.18z"/>
		<path d="M172.05,212.67c-1.62-0.35-2.75-1.28-2.45-2.73c0.57-2.78,2.74-4.58,5.16-5.52c1.22-0.47,2.32,1.29,2.05,2.69
			C176.3,209.85,174.74,211.87,172.05,212.67z"/>
		<path d="M165.9,200.21c-0.13,1.6-1.02,2.44-2.3,2.24c-2.46-0.38-4.34-1.77-4.87-4.31c-0.34-1.66,0.74-2.51,2.38-2.24
			C163.66,196.33,165.02,198.12,165.9,200.21z"/>
		<path d="M167.69,205.17c0.13,0.13,0.24,0.24,0.36,0.36c-0.22,0.11-0.44,0.26-0.67,0.31c-0.08,0.02-0.22-0.2-0.33-0.31
			C167.26,205.41,167.48,205.29,167.69,205.17z"/>
		<path d="M405.12,186.98c2.17,0.82,4.31,2.28,5.09,4.69c0.43,1.34-1.14,2.44-2.63,2.14c-2.64-0.53-5.28-1.49-5.53-4.69
			C401.93,187.66,403.31,186.93,405.12,186.98z"/>
		<path d="M413.45,182.08c-1.61,0.04-2.53-0.58-2.44-1.98c0.17-2.7,1.59-4.64,4.23-5.3c1.29-0.32,2.37,0.78,2.21,1.96
			C417.11,179.26,415.91,181.34,413.45,182.08z"/>
		<path d="M195.46,182.05c-0.44,0.72-0.75,1.5-1.3,2.04c-1.28,1.27-2.8,0.96-4.13,0.14c-2.82-1.74-4.64-4.22-4.95-7.62
			c-0.14-1.53,0.78-2.52,2.03-3.14c0.54-0.27,1.47-0.45,1.88-0.17C192.08,175.42,193.93,178.51,195.46,182.05z"/>
		<path d="M383.47,164.27c0.98,0.6,2.97,0.17,2.7,1.94c-0.28,1.77-1.3,3.57-3.53,3.35c-1.19-0.12-2.77-0.6-2.59-2.39
			C380.25,165.21,381.68,164.49,383.47,164.27z"/>
		<path d="M442.8,200.79c0.19,3.39-5.04,8.53-8.18,8.35c-2.02-0.12-2.98-1.19-2.95-3.17c0.05-2.92,4.98-7.77,7.97-7.9
			C441.78,197.98,442.49,199.31,442.8,200.79z"/>
		<path d="M217.96,154.99c3,0.31,4.25,2.22,5.3,4.35c1.09,2.22,2.54,4.45,0.78,6.93c-0.42,0.6-1.33,1.25-1.99,1.23
			c-2.83-0.11-4.41-2.07-5.44-4.41c-0.98-2.23-2.34-4.57-0.44-6.97C216.63,155.54,217.49,155.28,217.96,154.99z"/>
	</g>
</g>
</svg>
