<?xml version="1.0" encoding="utf-8"?>
<!-- Generator: Adobe Illustrator 25.1.0, SVG Export Plug-In . SVG Version: 6.00 Build 0)  -->
<svg version="1.1" id="레이어_1" xmlns="http://www.w3.org/2000/svg" xmlns:xlink="http://www.w3.org/1999/xlink" x="0px"
	 y="0px" viewBox="0 0 600 600" style="enable-background:new 0 0 600 600;" xml:space="preserve">
<style type="text/css">
	.st0{fill:#FEFEFE;}
	.st1{fill:#9D311D;}
	.st2{fill:#101010;}
</style>
<g>
	<g>
		<path class="st0" d="M599.9,300.5c0,98.47-0.02,196.94,0.1,295.41c0,3.42-0.67,4.1-4.09,4.09c-197.27-0.11-394.54-0.11-591.81,0
			c-3.42,0-4.1-0.67-4.09-4.09C0.11,398.64,0.11,201.36,0,4.09C0,0.67,0.67,0,4.09,0c197.27,0.11,394.54,0.11,591.81,0
			c3.42,0,4.1,0.67,4.09,4.09C599.88,102.9,599.9,201.7,599.9,300.5z M256.11,220.11l-0.12-0.11c4.01,4.59,7.18,4.26,11.5-1.17
			c0.81-1.02,1.42-2.49,2.99-2.26c0.64,0.09,1.48,0.93,1.65,1.59c0.44,1.7-0.81,2.78-1.98,3.7c-2.22,1.74-4.92,1.89-7.59,1.99
			c-1.33,0.05-2.35,0.92-2.66,1.81c-0.46,1.35,0.96,1.89,2.01,2.37c2.82,1.3,5.84,1.18,8.83,1.19c0.52,0,2.17,0.1,0.94-1.22
			c-2.06-2.21,0.24-2.54,1.25-3.64c2.3-2.52,5.6-2.56,8.42-3.78c3.27-1.42,5.78,0.28,8.17,2.22c1.88-4.05-3.89-5.98-1.96-9.7
			c-1.31-0.22-4.1,0.62-1.87-2.3c1.54-2.02,3.69-3,6.14-1.57c1.76,1.04,2.85,2.76,3.52,4.71c1.15,3.35,1.57,6.78,1.2,10.31
			c-0.8,7.64-3.93,14.35-8.13,20.66c-9.81,14.72-18.68,30.06-23.05,47.25c-1.97,7.76-6.22,10.29-13.24,11.49
			c0.6-5.73,2.6-10.84,3.95-16.09c0.59-2.29,2.36-2.51,4.35-1.74c2.47,0.96,3.74-0.37,4.61-2.43c1.43-3.37,1.39-6.69-0.25-10.14
			c-1.53,1.66-1.73,5.07-4.13,4.59c-2.54-0.51-3.18-3.53-3.65-6.01c-0.18-0.98-0.24-1.99-0.22-2.98c0.05-1.85-1.88-4.61,0.61-5.33
			c2.4-0.69,3.82,1.92,4.76,4.12c0.28,0.65-0.03,1.77,1.25,1.72c0.93-5.47-1.01-9.33-5.18-12.28c-3.31-2.35-4.62,0.58-6.98,2.26
			c-0.72-4.68-3.36-5.7-7.51-5.38c-4.57,0.35-1.88,3.82-3.02,5.57l0.03-0.1c-4.64,0.53-6.71,3.45-4,6.27
			c2.66,2.77,3.02,6.49,5.09,9.23c4.61,6.11,3.9,12.23,1.41,18.73c-1.19,3.09-1.99,6.33-3.06,9.47c-1.73,5.07-3.58,5.7-8.04,2.46
			c-5.29-3.84-7.61-9.59-9.09-15.63c-3.46-14.22-3.5-28.69-2.72-43.19c0.43-7.99,1.21-15.97-3.25-23.31
			c-1.28-2.11-2.59-4.93-0.58-6.96c2.14-2.17,4.92-1.1,7.31,0.43c0.16,0.1,0.56-0.18,0.84-0.29c-0.68-3.31-8.46-7.11-11.45-5.64
			c-0.87,0.43-1.05,1.12-1.23,1.97c-1.24,5.87-4.1,10.56-9.22,14.01c-3.15,2.12-5.88,4.9-8.61,7.58
			c-40.87,40-60.13,117.19-23.69,178.3c14.82,24.85,34.55,43.7,62.29,53.34c1.29,0.45,2.57,1.35,3.3,0.81
			c-4.26-4.73-8.5-9.38-12.67-14.1c-6.51-7.37-13-14.79-15.82-24.53c-1.44-4.99-1.55-10.01,2.24-14.1c2.15-2.32,1.13-3.42-0.67-5.12
			c-4.53-4.3-8.02-9.31-9.22-15.63c-1.98-10.36,1.9-18.87,8.29-26.64c0.84-1.02,3.31-1.98,1.01-3.94c-4.19-3.55-2.04-6.95,0.55-9.93
			c6.54-7.53,15.14-12.21,23.83-17.2c1.27,6.27,2.61,11.97,7.09,16.45c3.53-5.84,4.83-6.68,11.45-6.51
			c4.32,0.11,8.63,0.56,12.93,1.01c3.27,0.34,6.85-0.3,9.65,1.92c8.52,6.75,18.58,9.37,28.98,11.22c3.43,0.61,6.87,1.28,9.59,3.74
			c-0.25,0.29-0.5,0.59-0.76,0.88c-3.57-0.76-7.14-1.56-10.72-2.29c-15.33-3.12-31.71,2.91-36.68,16.09
			c-3.11,8.26-7.88,9.36-14.68,9.66c-0.33,0.01-0.67,0.05-0.99,0.1c-21.97,3.44-31.37,20.25-22.57,40.69
			c5.8,13.47,15.58,22.96,29.38,28.24c24.65,9.43,50.04,9.76,75.77,6.46c3.89-0.5,7.66-2.15,11.79-0.92
			c20.51,6.1,41.38,6.02,62.35,3.26c23.76-3.13,37.14-21.19,33.27-44.81c-6.9,11.73-18.36,17.25-30.22,22.28
			c2.3,2.35,5.77,2.77,7.78,5.37c-6.69,4.32-26.17,4.65-37.95,0.47c17.19-7.02,23.07-21.02,23.79-37.58
			c0.94-21.35-3.89-41.91-10.39-62.11c-2.46-7.64-8.16-10.56-15.52-11.04c-3.85-0.25-7.54,0.91-11.23,2.01
			c-3.68,1.09-6.71,5.8-10.22,4.26c-3.32-1.46-5.44-5.65-8.09-8.65c-0.66-0.75-1.23-1.59-1.96-2.27c-2.01-1.87-1.93-4.49-0.28-5.75
			c3.72-2.84,1.98-5.44,0.64-8.4c-0.81-1.8-1.46-3.74-1.8-5.68c-1.34-7.82,1.73-12.07,9.66-12.21c11.34-0.19,22.17,2.29,31.76,8.69
			c5.69,3.8,9.1,9.22,7.46,16.14c-0.94,3.96,0.7,5,3.51,6.6c15.96,9.06,20.46,23.04,12.92,39.78c-0.83,1.84-1.53,2.95,0.98,4.21
			c5.49,2.77,7.31,7.91,7.63,13.68c0.4,7.09-1.34,13.86-3.41,20.55c-2.82,9.11-7.18,17.59-11.3,26.22c1.44,0.41,1.99-0.33,2.6-0.82
			c10.46-8.45,19.72-18.12,25.93-30.07c23.18-44.57,23.87-89.59,0.72-134.32c-17.61-34.03-43.47-59.49-80.26-72.38
			c-6.04-2.12-11.14-4.75-14.45-10.28c-1-1.67-2.16-1.84-3.69-0.76c-1.08,0.76-2.17,1.52-3.34,2.12c-5.35,2.74-5.69,4.15-2.04,8.93
			c0.48-1.52-0.42-3.56,1.5-4.48c1.46-0.7,3.02-1.69,4.71-0.84c2.18,1.1,2.29,3.33,1.93,5.25c-1.41,7.58,1.11,14.26,3.62,21.24
			c4.92,13.66,8.06,27.8,7.68,42.49c-0.5,19.48-8.92,26.47-27.96,23.26c-2.83-0.48-5.56-1.01-6.51-4.46
			c-0.27-0.98-1.37-2.22-2.3-2.44c-5.04-1.18-4.52-4.75-4.03-8.48c0.69-5.29,1.73-10.46,3.4-15.55c2.59-7.89,5.04-15.84,6.15-24.12
			c0.15-1.13-0.07-2.8,1.12-3.12c3.26-0.87,1.92-2.5,1.23-4.41c-0.67-1.87-0.95-3.99,0.83-5.55c4.25-3.72,3.84-5.96-1.76-7.94
			c-1.96-0.69-3.48-1.45-3.13-3.72c0.37-2.41,2.18-2.56,4.18-2.3c0.87,0.11,1.99,1.32,2.59,0.03c0.51-1.08-0.23-2.23-1-3.17
			c-2.62-3.2-6.13-2.88-9.64-2.44c-1.51,0.19-3.31,0.68-3.48-1.48c-0.15-1.91,1.7-2.37,3.16-2.48c2.58-0.18,5.18-0.05,7.9-0.05
			c-0.64-3.17-2.84-4.76-5.64-5.68c-2.59-0.86-5.27-0.43-7.93-0.43c-2.62-0.01-5.15,1.74-8.14,0.57
			c11.07-6.89,14.45-13.27,12.27-22.78c-2.64,10.89-4.75,12.89-16.12,15.12c-3.76,0.74-7.87,1.03-10.83,3.42
			c-4.41,3.56-9.41,5.41-14.63,7.11c-4.54,1.48-7.76,4.31-8.81,9.27c-0.62,2.94-2.52,5.06-5.31,6.2c-3.59,1.46-5.78,5.79-10.42,5.09
			c-0.07-0.01-0.16,0.09,0.09-0.06c1.74,0.66,4.12,0.71,4.58,3.55c-1.7,0.93-3.5-0.25-5.01,1.06
			C247.08,220.3,252.11,217.63,256.11,220.11z M265.98,154.29c-3.1-2.2-3.49-5.71-3.98-9.16c-0.24-1.72-0.15-3.48,1.92-4.03
			c2.48-0.66,3.28,1.31,3.73,3.04c0.67,2.55,1,5.2,1.36,7.82c0.15,1.06,0.26,2.05,1.51,2.19c1.88,0.2,3.64-0.34,5.2-1.35
			c0.47-0.31,1.09-1.09,0.31-1.62c-3.53-2.39-2.59-6.58-4.04-9.79c-1.48-3.26-3.5-5.5-7.3-3.63c-5.32,2.6-11.27,2.08-16.75,3.76
			c-2.19,0.67-6.03,0.54-2.8,4.91c1.94,2.62,2.59,6.04,2.08,9.44c-0.16,1.07-1.19,2.37,0.39,2.96c1.8,0.67,3.6-0.08,5.31-0.74
			c1.65-0.63,0.96-1.71,0.6-2.83c-0.79-2.52-1.51-5.08-2.15-7.64c-0.48-1.9,0.46-3.44,2.11-4.03c2.06-0.74,3,0.9,3.46,2.59
			c0.74,2.69,1.86,5.34,1.08,8.26c-0.55,2.06,0.35,2.92,2.35,2.2C262.19,155.99,264.48,156.55,265.98,154.29z M102.87,281.22
			c-0.82,3.28-1.4,5.48-1.91,7.69c-0.38,1.64-0.06,2.32,1.99,2.13c7.91-0.75,15.05,1.73,21.95,5.95c0.47-1.82,0.85-3.58,1.38-5.31
			c0.8-2.62,0.29-3.78-2.77-3.19c-2.29,0.44-5.75,0.57-6.11-1.75c-0.44-2.91,3.19-3.04,5.45-3.77c0.47-0.15,0.97-0.25,1.46-0.29
			c5.36-0.45,6.21-3.91,5.77-9.05c-3.88,2.78-8.01,4.01-11.7,6.08c-3.65,2.05-5.45,0.6-7.07-2.44c-1.43-2.69-2.98-5.32-4.48-7.97
			c-0.66,2.75-4.48,6.12-1.18,7.43c4.73,1.89,5.04,5.96,7.88,9.56C109.07,286.25,106.05,284.93,102.87,281.22z M310.24,151.87
			c8.66,0.93,17.04,5.14,23.5-3.5c3.22-4.31,3.09-10.92,0.06-14.93c-3.49-4.61-13.26-7.1-19.8-5.05
			C316.58,133.05,314.75,146.74,310.24,151.87z M476.2,298.12c2.47-4.6,4.94-9.62,9.12-11.62c4.78-2.29,8.89,2.77,13.62,4.43
			c-1.8-2.06,2.4-8.61-5.33-6.21c-1.39,0.43-4.1-0.32-4.55-2.21c-0.39-1.61,1.66-3.43,2.89-3.67c6.35-1.25,2.77-5.04,2.3-8
			c-0.12-0.73-0.2-1.74-1.26-1.92c-1.13-0.19-1.24,0.88-1.68,1.5c-7.81,11.06-6.24,11.42-19.41,4.49c-0.54-0.28-1.06-0.59-1.74-0.98
			c-0.39,6.54-0.03,6.88,5.22,6.8c1.94-0.03,4.41,0.35,5.12,2.23c0.59,1.55-1.65,2.59-2.71,3.79c-0.67,0.76-1.49,1.38-2.58,1.3
			c-1.87-0.13-2.48,0.83-1.95,2.44C474.05,292.93,474.03,295.7,476.2,298.12z M180.18,205.8c0.18-2.1-0.76-3.7-2.43-4.61
			c-1.75-0.95-3.55-0.44-5.08,0.82c-0.89,0.74-1.76,1.5-2.66,2.23c-0.64,0.52-1.32,1.04-2.14,0.27c-0.65-0.61-0.3-1.34,0.09-1.76
			c4.86-5.11-1.61-8.82-1.7-13.32c-0.02-0.86-1.47-0.85-2.03-0.17c-2.42,2.94-5.9,4.93-7.75,8.35c-1.36,2.53-1.64,5.44,0.88,7.2
			c2.66,1.85,5.79,2.72,7.47,6.12c0.47,0.96,2.04,1.95,2.62,3.52c1.01,2.74,3.26,3.34,5.65,2.02
			C177.28,214.19,179.67,210.56,180.18,205.8z M407.95,183.96c1.32-0.95,1.95-0.14,2.62,0.16c3.86,1.76,13.8-0.19,13.95-3.22
			c0.17-3.48-4.51-4.11-6.55-6.57c-0.87-1.05-2.47-1.69-3.86-2.09c-2.42-0.69-5.25-0.22-6.07,2.06c-1.2,3.32-3.07,5.84-5.35,8.4
			c-0.96,1.08-1.61,2.06-3.05,2.69c-2.73,1.21-2.88,3.73-1.39,5.82c2.6,3.65,6.24,5.87,10.93,5.87c2.17,0,3.92-0.89,4.73-2.97
			c0.74-1.9-0.01-3.51-1.34-4.98C411.05,187.47,408.8,186.44,407.95,183.96z M190.36,188.83c0.78-0.2,1.91-0.2,2.67-0.73
			c3.12-2.17,6.18-4.43,9.15-6.81c1.12-0.9,1.85-2.33-0.39-2.81c-2.46-0.53-3.36-2.59-4.62-4.24c-3.11-4.08-6.08-8.28-9.12-12.42
			c-0.72-0.98-1.57-1.79-2.88-0.94c-1.39,0.91-2.86,1.86-3.2,3.59c-0.27,1.39,1.17,1.22,1.97,1.68c3.06,1.74,4.89,3.51,0.68,6.32
			c-3.26,2.18-4.01,5.55-2.68,9.26C183.33,185.62,185.97,188.11,190.36,188.83z M155.94,223.15c-4.52,1.4-7.17-2.27-10.55-4.01
			c-3.73-1.91-6.77-1.15-8.12,2.6c-0.92,2.54-1.86,4.52-3.92,6.4c-1.44,1.32-3.64,4.18,1.67,4.54c3.27,0.22,6.34,2.67,8.52,5.54
			c0.61,0.8,0.23,2.98,1.87,2.19c2.13-1.03,3.25-3.35,3.99-5.53c0.52-1.53-1.21-1.56-2.23-1.85c-2.6-0.75-4.8-2.22-6.92-3.84
			c-1.73-1.32-2.05-3.06-0.94-4.84c1.15-1.84,2.72-1.33,4.33-0.43c2.47,1.38,5.02,2.64,6.72,5.01c1.29,1.79,2.47,1.45,3.43-0.18
			C154.78,227.09,156.47,225.68,155.94,223.15z M446.24,226.88c0.8,3.26,2.28,5.38,4.35,7.36c2.47-2.31,4.76-4.71,7.75-6.22
			c1.98-0.99,3.93-1.21,5.28,0.83c1.35,2.04-0.07,3.41-1.65,4.51c-2.03,1.41-3.93,3.22-6.45,3.57c-3.32,0.45-2.86,2.06-1.49,4.03
			c0.98,1.4,1.64,3.19,3.79,3.7c0.56-4.66,4.92-5.45,7.75-7.77c3.73-3.06,4.24-5.69,1.3-8.75c-1.63-1.7-3.35-2.85-3.76-5.75
			c-0.33-2.33-2.24-5.4-5.32-0.65C455.55,225.16,451.56,227.6,446.24,226.88z M381.18,161.58c-3.09-0.18-5.45,0.93-6.02,4.05
			c-0.58,3.19,1.52,4.96,4.37,5.64c2.36,0.57,4.54,0.99,6.29,3.09c0.88,1.05,4.37,1.85,3.99-0.34c-0.61-3.52,1.52-5.55,2.46-8.17
			c0.91-2.52,2.45-4.87,0.29-7.38c-2.46-2.84-5.69-3.82-9.36-3.54c-1.28,0.1-2.36,0.61-2.29,2.06c0.07,1.51,1.41,1.75,2.54,1.79
			c0.78,0.03,1.57-0.46,2.38-0.62c1.19-0.23,2.46-0.22,2.88,1.18c0.21,0.7,0.08,1.67-0.26,2.34c-0.59,1.16-1.64,1.44-2.95,0.99
			C384.1,162.18,382.62,161.93,381.18,161.58z M446.9,203.72c-0.05-4.73-4.66-9.14-9.43-9.01c-4.99,0.13-9.69,4.88-9.51,9.6
			c0.19,4.74,4.79,8.89,9.68,8.73C442.38,212.88,446.94,208.29,446.9,203.72z M229.23,161.43c-0.02-5.36-3.72-9.41-8.67-9.48
			c-5.1-0.07-9.47,3.97-9.48,8.77c-0.01,5.32,4.25,9.93,9.11,9.84C225.47,170.47,229.25,166.65,229.23,161.43z M353.31,143.18
			c1.49,5.16,0.24,9.46-3.13,13.2c-0.53,0.58-1.78,1.25-1.1,1.86c2.15,1.89,5.08,2.96,7.71,2.66c2.64-0.3,0.42-2.47,0.25-3.77
			c-0.69-5.23,2.36-8.39,6.97-6.98c1.67,0.51,2.61-0.01,2.94-1.57c0.36-1.68-0.76-2.27-2.19-2.7c-1.53-0.46-3.48,1.25-4.57-0.54
			C358.44,142.47,356.01,142.87,353.31,143.18z M135.64,261.22c1.55-2.53,3.61-5.13,3.13-7.96c-0.25-1.48-3.33,0.31-5.16-0.66
			c-2.9-1.54-6.05-2.62-9.02-4.03c-3.04-1.45-2.92,1.22-3.32,2.66c-0.32,1.18-1.28,4.03,0.51,3.62
			C128.21,253.37,131.6,257.49,135.64,261.22z M119.1,247.33c-0.2-1.4-0.99-2.53-2.8-2.42c-1.8,0.11-2.5,1.46-2.59,3.04
			c-0.11,1.83,1.21,2.86,2.75,2.78C118.04,250.64,118.86,249.24,119.1,247.33z"/>
		<path class="st1" d="M313.31,363.62c-2.72-2.46-6.16-3.13-9.59-3.74c-10.4-1.85-20.46-4.47-28.98-11.22
			c-2.8-2.22-6.38-1.57-9.65-1.92c-4.3-0.45-8.61-0.9-12.93-1.01c-6.62-0.17-7.92,0.67-11.45,6.51c-4.48-4.47-5.82-10.18-7.09-16.45
			c-8.69,4.99-17.29,9.67-23.83,17.2c-2.59,2.98-4.74,6.38-0.55,9.93c2.31,1.95-0.17,2.92-1.01,3.94
			c-6.4,7.77-10.27,16.28-8.29,26.64c1.21,6.31,4.69,11.33,9.22,15.63c1.8,1.71,2.82,2.8,0.67,5.12c-3.78,4.09-3.68,9.11-2.24,14.1
			c2.82,9.73,9.3,17.15,15.82,24.53c4.17,4.72,8.41,9.36,12.67,14.1c-0.74,0.54-2.01-0.36-3.3-0.81
			c-27.74-9.64-47.47-28.49-62.29-53.34c-36.45-61.11-17.18-138.3,23.69-178.3c2.73-2.67,5.46-5.46,8.61-7.58
			c5.12-3.45,7.98-8.14,9.22-14.01c0.18-0.85,0.36-1.54,1.23-1.97c2.99-1.46,10.77,2.33,11.45,5.64c-0.28,0.1-0.68,0.39-0.84,0.29
			c-2.38-1.53-5.17-2.6-7.31-0.43c-2.01,2.03-0.7,4.85,0.58,6.96c4.46,7.34,3.68,15.32,3.25,23.31c-0.78,14.5-0.74,28.97,2.72,43.19
			c1.47,6.05,3.79,11.8,9.09,15.63c4.46,3.24,6.31,2.61,8.04-2.46c1.07-3.14,1.87-6.38,3.06-9.47c2.5-6.5,3.2-12.62-1.41-18.73
			c-2.07-2.74-2.43-6.46-5.09-9.23c-2.71-2.82-0.64-5.74,4-6.28c0.28-0.02,0.55-0.03,0.83-0.04c-0.01-0.1-0.03-0.2-0.04-0.3
			c-0.27,0.15-0.55,0.3-0.82,0.45c1.13-1.75-1.55-5.22,3.02-5.57c4.15-0.31,6.79,0.7,7.51,5.38c2.36-1.68,3.66-4.6,6.98-2.26
			c4.17,2.95,6.11,6.81,5.18,12.28c-1.27,0.05-0.97-1.07-1.25-1.72c-0.94-2.2-2.36-4.81-4.76-4.12c-2.49,0.72-0.56,3.47-0.61,5.33
			c-0.03,0.99,0.04,2.01,0.22,2.98c0.46,2.48,1.11,5.5,3.65,6.01c2.4,0.48,2.6-2.93,4.13-4.59c1.63,3.45,1.68,6.77,0.25,10.14
			c-0.88,2.06-2.14,3.39-4.61,2.43c-1.99-0.77-3.76-0.55-4.35,1.74c-1.35,5.25-3.36,10.36-3.95,16.09
			c7.01-1.2,11.26-3.73,13.24-11.49c4.37-17.19,13.24-32.53,23.05-47.25c4.2-6.3,7.33-13.02,8.13-20.66
			c0.37-3.53-0.05-6.96-1.2-10.31c-0.67-1.95-1.76-3.67-3.52-4.71c-2.44-1.44-4.59-0.45-6.14,1.57c-2.23,2.91,0.56,2.08,1.87,2.3
			c-1.93,3.71,3.84,5.65,1.96,9.7c-2.39-1.94-4.9-3.64-8.17-2.22c-2.82,1.22-6.12,1.26-8.42,3.78c-1.01,1.11-3.32,1.43-1.25,3.64
			c1.23,1.31-0.41,1.22-0.94,1.22c-2.99-0.01-6.01,0.1-8.83-1.19c-1.05-0.48-2.48-1.02-2.01-2.37c0.31-0.9,1.33-1.76,2.66-1.81
			c2.67-0.1,5.37-0.25,7.59-1.99c1.17-0.91,2.42-2,1.98-3.7c-0.17-0.65-1.02-1.49-1.65-1.59c-1.57-0.23-2.18,1.24-2.99,2.26
			c-4.32,5.43-7.49,5.76-11.51,1.17c6.62,1.9,6.9,1.79,9.31-4.54c0.93-2.44,2.63-3.71,5.13-4.07c1.11-0.16,3.29,2.07,3.06-0.96
			c-0.14-1.89-2.28-1.82-3.98-2.07c-4.63-0.68-4.68,7.81-10.25,4.99c0,0-0.12,0.24-0.34,0.67c0.49,0.81,1.06,1.78,1.59,2.66
			c-2.77,1.06-4.85-0.74-7.17-0.58c0.15,1.98,2.42,2.32,2.77,4.01c-4-2.49-9.03,0.19-13.14-2.49c1.51-1.31,3.31-0.13,5.01-1.06
			c-0.47-2.84-2.84-2.89-4.58-3.55c-0.24,0.15-0.16,0.05-0.09,0.06c4.64,0.7,6.83-3.63,10.42-5.09c2.79-1.14,4.7-3.26,5.31-6.2
			c1.04-4.97,4.27-7.8,8.81-9.27c5.22-1.7,10.22-3.55,14.63-7.11c2.96-2.39,7.07-2.68,10.83-3.42c11.37-2.23,13.47-4.23,16.12-15.12
			c2.18,9.51-1.19,15.9-12.27,22.78c2.99,1.17,5.52-0.58,8.14-0.57c2.66,0.01,5.34-0.43,7.93,0.43c2.8,0.93,5,2.51,5.64,5.68
			c-2.71,0-5.32-0.13-7.9,0.05c-1.46,0.1-3.31,0.57-3.16,2.48c0.17,2.17,1.97,1.67,3.48,1.48c3.52-0.43,7.03-0.76,9.64,2.44
			c0.77,0.94,1.51,2.09,1,3.17c-0.6,1.29-1.72,0.08-2.59-0.03c-2.01-0.25-3.82-0.1-4.18,2.3c-0.35,2.27,1.18,3.03,3.13,3.72
			c5.6,1.98,6.01,4.22,1.76,7.94c-1.78,1.56-1.51,3.68-0.83,5.55c0.69,1.91,2.03,3.54-1.23,4.41c-1.19,0.32-0.97,1.98-1.12,3.12
			c-1.11,8.28-3.56,16.23-6.15,24.12c-1.67,5.09-2.71,10.27-3.4,15.55c-0.49,3.74-1.01,7.3,4.03,8.48c0.93,0.22,2.04,1.46,2.3,2.44
			c0.95,3.45,3.68,3.98,6.51,4.46c19.05,3.21,27.46-3.78,27.96-23.26c0.38-14.69-2.76-28.82-7.68-42.49
			c-2.51-6.99-5.03-13.67-3.62-21.24c0.36-1.91,0.25-4.15-1.93-5.25c-1.68-0.85-3.25,0.14-4.71,0.84c-1.91,0.92-1.02,2.96-1.5,4.48
			c-3.66-4.79-3.31-6.2,2.04-8.93c1.17-0.6,2.26-1.36,3.34-2.12c1.53-1.07,2.7-0.91,3.69,0.76c3.31,5.54,8.41,8.17,14.45,10.28
			c36.79,12.89,62.65,38.35,80.26,72.38c23.15,44.74,22.46,89.75-0.72,134.32c-6.21,11.94-15.47,21.62-25.93,30.07
			c-0.61,0.49-1.16,1.23-2.6,0.82c4.12-8.63,8.48-17.11,11.3-26.22c2.08-6.69,3.81-13.46,3.41-20.55
			c-0.33-5.77-2.15-10.91-7.63-13.68c-2.51-1.26-1.81-2.37-0.98-4.21c7.54-16.74,3.04-30.72-12.92-39.78
			c-2.81-1.59-4.45-2.63-3.51-6.6c1.64-6.92-1.77-12.35-7.46-16.14c-9.59-6.4-20.42-8.88-31.76-8.69c-7.92,0.13-11,4.39-9.66,12.21
			c0.33,1.94,0.98,3.88,1.8,5.68c1.34,2.96,3.09,5.55-0.64,8.4c-1.65,1.26-1.73,3.89,0.28,5.75c0.73,0.68,1.3,1.52,1.96,2.27
			c2.64,3,4.77,7.19,8.09,8.65c3.5,1.54,6.54-3.17,10.22-4.26c3.69-1.1,7.38-2.26,11.23-2.01c7.36,0.48,13.06,3.41,15.52,11.04
			c6.5,20.21,11.32,40.76,10.39,62.11c-0.73,16.56-6.61,30.56-23.79,37.58c11.78,4.18,31.26,3.85,37.95-0.47
			c-2-2.6-5.48-3.02-7.78-5.37c11.86-5.03,23.33-10.56,30.22-22.28c3.87,23.63-9.51,41.68-33.27,44.81
			c-20.97,2.76-41.84,2.84-62.35-3.26c-4.13-1.23-7.9,0.42-11.79,0.92c-25.74,3.3-51.12,2.98-75.77-6.46
			c-13.8-5.28-23.58-14.77-29.38-28.24c-8.8-20.44,0.61-37.25,22.57-40.69c0.33-0.05,0.66-0.08,0.99-0.1
			c6.8-0.31,11.57-1.4,14.68-9.66c4.97-13.18,21.35-19.2,36.68-16.09c3.58,0.73,7.14,1.52,10.72,2.29c0.7,0.44,1.41,0.69,2.16,0.11
			C314.24,364.28,313.77,363.95,313.31,363.62z M280.93,429.94c-5.92-4.49-11.79-9.02-17.78-13.42c-1.26-0.93-3.21-2.3-4.48-0.88
			c-1.52,1.71,0.76,2.92,1.79,3.92C266.13,425.07,272.96,428.57,280.93,429.94z"/>
		<path class="st2" d="M265.98,154.29c-1.5,2.26-3.79,1.69-5.6,2.34c-2,0.72-2.9-0.14-2.35-2.2c0.78-2.92-0.34-5.57-1.08-8.26
			c-0.46-1.69-1.4-3.33-3.46-2.59c-1.65,0.59-2.59,2.13-2.11,4.03c0.64,2.57,1.36,5.12,2.15,7.64c0.35,1.13,1.05,2.21-0.6,2.83
			c-1.71,0.65-3.51,1.41-5.31,0.74c-1.59-0.59-0.55-1.89-0.39-2.96c0.51-3.4-0.14-6.83-2.08-9.44c-3.23-4.37,0.61-4.24,2.8-4.91
			c5.47-1.68,11.43-1.15,16.75-3.76c3.81-1.86,5.83,0.38,7.3,3.63c1.46,3.21,0.52,7.4,4.04,9.79c0.78,0.53,0.16,1.31-0.31,1.62
			c-1.56,1.01-3.32,1.55-5.2,1.35c-1.25-0.14-1.36-1.14-1.51-2.19c-0.36-2.62-0.69-5.27-1.36-7.82c-0.45-1.73-1.25-3.7-3.73-3.04
			c-2.07,0.55-2.16,2.32-1.92,4.03C262.49,148.58,262.88,152.1,265.98,154.29z"/>
		<path class="st2" d="M102.87,281.22c3.18,3.71,6.19,5.03,10.67,5.06c-2.84-3.6-3.16-7.67-7.88-9.56
			c-3.29-1.32,0.53-4.68,1.18-7.43c1.5,2.66,3.04,5.28,4.48,7.97c1.62,3.04,3.42,4.49,7.07,2.44c3.69-2.07,7.82-3.3,11.7-6.08
			c0.44,5.14-0.41,8.6-5.77,9.05c-0.49,0.04-0.99,0.14-1.46,0.29c-2.26,0.73-5.89,0.87-5.45,3.77c0.35,2.32,3.82,2.19,6.11,1.75
			c3.06-0.59,3.57,0.58,2.77,3.19c-0.53,1.72-0.91,3.49-1.38,5.31c-6.91-4.22-14.04-6.7-21.95-5.95c-2.05,0.19-2.37-0.49-1.99-2.13
			C101.48,286.7,102.05,284.5,102.87,281.22z"/>
		<path class="st2" d="M310.24,151.87c4.51-5.13,6.33-18.82,3.75-23.48c6.55-2.05,16.32,0.44,19.8,5.05
			c3.03,4.01,3.16,10.61-0.06,14.93C327.28,157.01,318.9,152.8,310.24,151.87z M329.96,140.34c0.08-3.1-0.48-5.98-3.13-8
			c-3.53-2.68-6.07-1.62-6.64,2.77c-0.51,3.95-0.75,7.95-1.48,11.86c-0.72,3.84,1.29,4.34,4.2,3.98
			C327.18,150.42,329.82,146.38,329.96,140.34z"/>
		<path class="st2" d="M476.2,298.12c-2.17-2.42-2.15-5.19-2.94-7.63c-0.53-1.62,0.08-2.57,1.95-2.44c1.09,0.07,1.91-0.54,2.58-1.3
			c1.06-1.2,3.3-2.23,2.71-3.79c-0.72-1.89-3.18-2.26-5.12-2.23c-5.25,0.07-5.6-0.26-5.22-6.8c0.68,0.38,1.21,0.69,1.74,0.98
			c13.16,6.93,11.6,6.57,19.41-4.49c0.44-0.62,0.55-1.68,1.68-1.5c1.07,0.18,1.15,1.19,1.26,1.92c0.47,2.96,4.05,6.76-2.3,8
			c-1.23,0.24-3.28,2.07-2.89,3.67c0.45,1.89,3.17,2.64,4.55,2.21c7.73-2.39,3.53,4.16,5.33,6.21c-4.73-1.66-8.84-6.72-13.62-4.43
			C481.14,288.5,478.68,293.52,476.2,298.12z"/>
		<path class="st2" d="M180.18,205.8c-0.51,4.76-2.9,8.39-7.06,10.68c-2.39,1.32-4.63,0.72-5.65-2.02
			c-0.58-1.57-2.15-2.57-2.62-3.52c-1.68-3.4-4.82-4.26-7.47-6.12c-2.52-1.76-2.24-4.67-0.88-7.2c1.84-3.43,5.33-5.41,7.75-8.35
			c0.56-0.68,2.01-0.69,2.03,0.17c0.08,4.51,6.55,8.21,1.7,13.32c-0.4,0.42-0.75,1.14-0.09,1.76c0.81,0.77,1.49,0.25,2.14-0.27
			c0.9-0.73,1.77-1.49,2.66-2.23c1.53-1.27,3.34-1.77,5.08-0.82C179.42,202.1,180.36,203.7,180.18,205.8z M176.88,207.39
			c-0.03-1.53-0.67-3.31-1.97-2.93c-2.54,0.74-4.57,2.67-5.31,5.34c-0.4,1.42,0.74,2.83,2.13,2.75
			C174.83,212.36,175.9,209.8,176.88,207.39z M165.86,199.75c-1.13-1.53-2.2-3.62-4.9-3.86c-1.75-0.15-2.59,0.8-2.18,2.4
			c0.63,2.49,2.46,3.92,4.98,4.15C165.07,202.56,165.89,201.68,165.86,199.75z M167.54,205.03c-0.11,0.11-0.33,0.25-0.31,0.33
			c0.05,0.24,0.2,0.45,0.31,0.67c0.11-0.11,0.33-0.24,0.31-0.33C167.81,205.46,167.66,205.25,167.54,205.03z"/>
		<path class="st2" d="M407.95,183.96c0.85,2.48,3.1,3.51,4.61,5.18c1.33,1.47,2.07,3.08,1.34,4.98c-0.81,2.08-2.56,2.97-4.73,2.97
			c-4.68,0-8.32-2.21-10.93-5.87c-1.49-2.09-1.34-4.61,1.39-5.82c1.44-0.64,2.09-1.61,3.05-2.69c2.28-2.56,4.15-5.08,5.35-8.4
			c0.83-2.28,3.66-2.76,6.07-2.06c1.39,0.4,2.99,1.04,3.86,2.09c2.04,2.46,6.72,3.09,6.55,6.57c-0.15,3.03-10.08,4.98-13.95,3.22
			C409.9,183.82,409.27,183.01,407.95,183.96z M404.84,186.9c-1.63,0.17-3.02,0.91-2.82,2.38c0.42,3.15,3.06,4.11,5.73,4.53
			c1.42,0.22,3-0.86,2.43-2.3C409.26,189.18,407.25,187.61,404.84,186.9z M417.64,176.75c-0.46-1.07-0.98-2.27-2.36-1.95
			c-2.69,0.62-4.06,2.58-4.29,5.26c-0.12,1.39,0.8,2.2,2.15,1.98C416.05,181.57,416.75,179.12,417.64,176.75z"/>
		<path class="st2" d="M190.36,188.83c-4.39-0.72-7.03-3.21-8.42-7.1c-1.33-3.71-0.58-7.09,2.68-9.26c4.21-2.81,2.38-4.58-0.68-6.32
			c-0.8-0.46-2.24-0.28-1.97-1.68c0.34-1.73,1.81-2.68,3.2-3.59c1.32-0.86,2.16-0.04,2.88,0.94c3.04,4.14,6.01,8.33,9.12,12.42
			c1.26,1.66,2.17,3.72,4.62,4.24c2.24,0.48,1.51,1.92,0.39,2.81c-2.97,2.38-6.03,4.64-9.15,6.81
			C192.26,188.63,191.14,188.63,190.36,188.83z M195.21,181.39c-1.28-2.87-3.04-5.9-5.93-7.96c-1.52-1.09-3.02,0.13-3.72,1.46
			c-1.4,2.63,0.2,4.78,1.67,6.82c1.42,1.97,3.17,3.57,5.82,3.02C194.42,184.44,195.29,183.37,195.21,181.39z"/>
		<path class="st2" d="M155.94,223.15c0.53,2.53-1.16,3.94-2.14,5.6c-0.96,1.64-2.14,1.97-3.43,0.18c-1.71-2.37-4.26-3.63-6.72-5.01
			c-1.6-0.9-3.18-1.4-4.33,0.43c-1.11,1.77-0.78,3.52,0.94,4.84c2.12,1.62,4.32,3.08,6.92,3.84c1.02,0.29,2.74,0.32,2.23,1.85
			c-0.74,2.18-1.86,4.5-3.99,5.53c-1.65,0.79-1.27-1.39-1.87-2.19c-2.18-2.87-5.25-5.32-8.52-5.54c-5.31-0.35-3.12-3.22-1.67-4.54
			c2.06-1.88,3-3.86,3.92-6.4c1.35-3.75,4.4-4.52,8.12-2.6C148.78,220.88,151.43,224.55,155.94,223.15z"/>
		<path class="st2" d="M446.24,226.88c5.32,0.72,9.31-1.72,11.54-5.15c3.08-4.75,4.99-1.68,5.32,0.65c0.41,2.9,2.12,4.05,3.76,5.75
			c2.94,3.06,2.43,5.69-1.3,8.75c-2.84,2.33-7.19,3.11-7.75,7.77c-2.15-0.51-2.81-2.29-3.79-3.7c-1.38-1.97-1.83-3.58,1.49-4.03
			c2.53-0.35,4.42-2.16,6.45-3.57c1.58-1.1,3-2.47,1.65-4.51c-1.35-2.03-3.3-1.82-5.28-0.83c-2.99,1.5-5.28,3.91-7.75,6.22
			C448.52,232.26,447.04,230.14,446.24,226.88z"/>
		<path class="st2" d="M381.18,161.58c1.44,0.35,2.92,0.6,4.32,1.08c1.32,0.44,2.36,0.17,2.95-0.99c0.34-0.66,0.47-1.63,0.26-2.34
			c-0.42-1.4-1.69-1.4-2.88-1.18c-0.81,0.15-1.6,0.65-2.38,0.62c-1.13-0.04-2.47-0.28-2.54-1.79c-0.06-1.44,1.01-1.96,2.29-2.06
			c3.67-0.28,6.91,0.7,9.36,3.54c2.16,2.51,0.63,4.85-0.29,7.38c-0.95,2.62-3.07,4.65-2.46,8.17c0.38,2.19-3.12,1.39-3.99,0.34
			c-1.75-2.1-3.93-2.52-6.29-3.09c-2.85-0.68-4.95-2.45-4.37-5.64C375.73,162.51,378.09,161.39,381.18,161.58z M383.17,169.74
			c1.78-0.58,3.08-2.03,3.05-3.86c-0.02-1.29-1.88-1.62-3.07-1.53c-1.77,0.13-3.2,1.13-3.11,3.13
			C380.13,169.19,381.77,169.22,383.17,169.74z"/>
		<path class="st2" d="M446.9,203.72c0.05,4.57-4.51,9.16-9.26,9.32c-4.89,0.16-9.49-3.99-9.68-8.73c-0.19-4.72,4.52-9.48,9.51-9.6
			C442.24,194.58,446.85,198.99,446.9,203.72z M442.83,201.15c-0.19-1.51-0.71-2.96-2.85-3.07c-3.08-0.16-8.4,4.98-8.3,8.06
			c0.06,2,1.11,2.97,3.12,3C437.76,209.19,442.74,204.43,442.83,201.15z"/>
		<path class="st2" d="M229.23,161.43c0.02,5.22-3.76,9.04-9.04,9.13c-4.86,0.09-9.12-4.52-9.11-9.84c0.01-4.8,4.38-8.84,9.48-8.77
			C225.51,152.02,229.21,156.07,229.23,161.43z M217.94,154.99c-0.47,0.29-1.34,0.56-1.77,1.15c-1.9,2.62-0.41,5.01,0.71,7.4
			c1.04,2.22,2.6,3.88,5.19,3.95c0.67,0.02,1.57-0.62,1.99-1.22c1.74-2.49,0.27-4.72-0.8-6.94
			C222.23,157.17,220.94,155.29,217.94,154.99z"/>
		<path class="st2" d="M353.31,143.18c2.7-0.31,5.14-0.71,6.88,2.16c1.09,1.79,3.04,0.08,4.57,0.54c1.43,0.43,2.55,1.02,2.19,2.7
			c-0.33,1.57-1.27,2.08-2.94,1.57c-4.61-1.41-7.66,1.75-6.97,6.98c0.17,1.3,2.39,3.47-0.25,3.77c-2.63,0.3-5.56-0.77-7.71-2.66
			c-0.69-0.6,0.57-1.27,1.1-1.86C353.55,152.64,354.8,148.34,353.31,143.18z"/>
		<path class="st2" d="M135.64,261.22c-4.04-3.73-7.43-7.85-13.85-6.36c-1.79,0.41-0.83-2.44-0.51-3.62
			c0.39-1.44,0.27-4.11,3.32-2.66c2.97,1.42,6.12,2.49,9.02,4.03c1.83,0.97,4.91-0.83,5.16,0.66
			C139.25,256.09,137.19,258.69,135.64,261.22z"/>
		<path class="st2" d="M119.1,247.33c-0.23,1.91-1.06,3.31-2.65,3.39c-1.54,0.08-2.85-0.95-2.75-2.78c0.09-1.58,0.79-2.92,2.59-3.04
			C118.11,244.8,118.9,245.93,119.1,247.33z"/>
		<path class="st0" d="M280.93,429.94c-7.97-1.37-14.79-4.88-20.47-10.39c-1.03-1-3.31-2.2-1.79-3.92c1.26-1.42,3.21-0.05,4.48,0.88
			C269.13,420.92,275.01,425.45,280.93,429.94z"/>
		<path class="st0" d="M256.11,220.11c-0.35-1.69-2.63-2.03-2.77-4.01c2.33-0.17,4.41,1.64,7.17,0.58c-0.53-0.88-1.1-1.85-1.59-2.66
			c0.22-0.43,0.34-0.67,0.34-0.67c5.57,2.82,5.62-5.67,10.25-4.99c1.69,0.25,3.83,0.18,3.98,2.07c0.23,3.04-1.95,0.81-3.06,0.96
			c-2.5,0.36-4.2,1.63-5.13,4.07c-2.41,6.33-2.69,6.43-9.31,4.54C255.99,220,256.11,220.11,256.11,220.11z"/>
		<path class="st0" d="M313.31,363.62c0.47,0.33,0.94,0.66,1.4,0.99c-0.75,0.58-1.46,0.32-2.16-0.11
			C312.8,364.2,313.05,363.91,313.31,363.62z"/>
		<path class="st0" d="M240.76,259.5c0.27-0.15,0.55-0.3,0.82-0.45c0.01,0.1,0.03,0.2,0.04,0.3c-0.27,0.01-0.55,0.02-0.83,0.04
			C240.79,259.4,240.76,259.5,240.76,259.5z"/>
		<path class="st0" d="M329.96,140.34c-0.13,6.03-2.77,10.07-7.04,10.6c-2.91,0.36-4.92-0.14-4.2-3.98
			c0.73-3.91,0.97-7.91,1.48-11.86c0.57-4.39,3.11-5.45,6.64-2.77C329.48,134.36,330.04,137.24,329.96,140.34z"/>
		<path class="st0" d="M176.88,207.39c-0.97,2.41-2.05,4.97-5.15,5.15c-1.4,0.08-2.53-1.33-2.13-2.75c0.75-2.66,2.78-4.6,5.31-5.34
			C176.2,204.08,176.85,205.86,176.88,207.39z"/>
		<path class="st0" d="M165.86,199.75c0.03,1.93-0.79,2.81-2.1,2.69c-2.53-0.22-4.35-1.65-4.98-4.15c-0.41-1.6,0.43-2.56,2.18-2.4
			C163.65,196.13,164.73,198.22,165.86,199.75z"/>
		<path class="st0" d="M167.55,205.03c0.11,0.22,0.26,0.44,0.31,0.67c0.02,0.08-0.2,0.22-0.31,0.33c-0.11-0.22-0.26-0.44-0.31-0.67
			C167.21,205.28,167.43,205.14,167.55,205.03z"/>
		<path class="st0" d="M404.84,186.9c2.41,0.7,4.42,2.28,5.34,4.61c0.57,1.44-1.01,2.52-2.43,2.3c-2.67-0.42-5.31-1.38-5.73-4.53
			C401.82,187.81,403.21,187.07,404.84,186.9z"/>
		<path class="st0" d="M417.64,176.75c-0.89,2.37-1.59,4.82-4.49,5.29c-1.35,0.22-2.27-0.58-2.15-1.98c0.23-2.68,1.6-4.63,4.29-5.26
			C416.66,174.48,417.18,175.68,417.64,176.75z"/>
		<path class="st0" d="M195.21,181.39c0.09,1.98-0.78,3.05-2.16,3.34c-2.65,0.55-4.4-1.05-5.82-3.02c-1.47-2.04-3.06-4.19-1.67-6.82
			c0.7-1.33,2.2-2.55,3.72-1.46C192.17,175.49,193.93,178.52,195.21,181.39z"/>
		<path class="st0" d="M383.17,169.74c-1.4-0.52-3.05-0.55-3.12-2.25c-0.09-2.01,1.34-3,3.11-3.13c1.18-0.09,3.05,0.24,3.07,1.53
			C386.26,167.71,384.96,169.16,383.17,169.74z"/>
		<path class="st0" d="M442.83,201.15c-0.09,3.28-5.06,8.04-8.03,7.99c-2.01-0.03-3.06-1.01-3.12-3c-0.1-3.09,5.23-8.23,8.3-8.06
			C442.11,198.19,442.64,199.64,442.83,201.15z"/>
		<path class="st0" d="M217.94,154.99c3,0.3,4.29,2.18,5.32,4.32c1.07,2.22,2.54,4.45,0.8,6.94c-0.42,0.6-1.33,1.24-1.99,1.22
			c-2.59-0.07-4.15-1.73-5.19-3.95c-1.12-2.38-2.61-4.77-0.71-7.4C216.6,155.55,217.47,155.28,217.94,154.99z"/>
	</g>
</g>
</svg>
