<?xml version="1.0" encoding="utf-8"?>
<!DOCTYPE svg PUBLIC "-//W3C//DTD SVG 20010904//EN" "http://www.w3.org/TR/2001/REC-SVG-20010904/DTD/svg10.dtd">
<svg version="1.0" xmlns="http://www.w3.org/2000/svg" width="10000px" height="4254px" viewBox="0 0 10000 4254" preserveAspectRatio="xMidYMid meet">
 <g fill="#ffffff">
  <path d="M2392.4 4002.6 c-16.3 -10.1 -19.2 -16 -18.3 -35.9 0.7 -11.7 17.3 -26.7 30 -26.7 34.9 0 48.3 41.4 19.6 61 -13.4 9.1 -18.6 9.1 -31.3 1.6z"/>
  <path d="M3106.3 4003.3 c-11.7 -5.5 -20.9 -19.9 -20.9 -32.3 0 -12.7 19.2 -31 32.6 -31 37.5 0 48.9 47 15 63.3 -13.4 6.2 -14 6.2 -26.7 0z"/>
  <path d="M2720.5 3801.7 c-15 -5.2 -29 -20.2 -33.6 -35.2 -7.5 -25.1 10.1 -53.5 38.2 -61.3 13.4 -3.6 15.7 -3.3 30 3.6 19.9 9.8 30.3 25.1 30.3 44.4 0 23.5 -13.4 42.1 -35.6 49.6 -13.4 4.2 -15 4.2 -29.4 -1z"/>
  <path d="M1695.4 3732.6 c-10.4 -5.5 -18.9 -20.2 -18.9 -32.6 0 -12.4 19.2 -30.7 32.3 -30.7 20.2 0 36.2 14.4 36.2 32.6 0 11.1 -9.1 25.4 -19.6 31 -11.7 6.2 -18.6 5.9 -30 -0.3z"/>
  <path d="M3779.5 3731.9 c-11.7 -6.8 -20.2 -24.8 -17.3 -35.6 2.9 -12.4 20.2 -27.1 31.3 -27.1 13.4 0 25.8 6.5 31 16.6 9.5 18.9 3.6 37.2 -15 47 -12.1 6.2 -18.9 6.2 -30 -1z"/>
  <path d="M3319.6 3691.1 c-29 -13 -39.8 -42.7 -25.4 -70.8 12.4 -24.1 46.6 -33.6 68.5 -18.6 17.9 12.1 24.5 23.5 24.5 42.7 -0.3 21.2 -10.1 35.9 -29 44.7 -15.3 6.8 -25.8 7.5 -38.5 2z"/>
  <path d="M2084.1 3675.5 c-4.6 -2 -11.7 -6.5 -15.7 -10.4 -25.8 -24.1 -21.9 -58.7 9.1 -79.3 44.7 -29.7 97.5 32.6 62.9 74 -14.7 17 -36.9 23.5 -56.4 15.7z"/>
  <path d="M2485.3 3547.6 c-16 -5.2 -40.1 -30.3 -45 -46.6 -5.5 -18.6 -4.9 -26.7 2.9 -43.7 12.7 -28 33.6 -42.4 61.6 -42.4 40.8 0 68.5 27.1 68.5 66.9 0 29.7 -13.7 50.2 -42.4 63.3 -16.3 7.5 -28.4 8.2 -45.7 2.6z"/>
  <path d="M3012.7 3524.5 c-21.9 -7.8 -35.9 -22.8 -43.7 -47 -5.2 -16.3 -5.2 -17.9 0.3 -34.9 14 -40.4 56.1 -61 91.7 -44.4 53.5 24.8 55.8 96.5 3.9 122.6 -18.3 9.1 -33.6 10.1 -52.2 3.6z"/>
  <path d="M3848.3 3355.5 c-27.1 -15.3 -33.3 -49.6 -13.7 -73.7 40.4 -50.2 115.1 6.5 78.6 59.7 -14 20.9 -42.7 27.1 -64.9 14z"/>
  <path d="M2718.5 3354.9 c-36.5 -9.1 -63.6 -30.3 -80.2 -62.6 -10.4 -20.5 -11.1 -24.1 -11.1 -53.5 0 -29.4 0.7 -32.9 11.1 -53.5 13 -25.4 29.7 -41.4 57.4 -54.5 28 -13.4 50.9 -15.3 79.3 -6.5 37.8 11.4 67.2 38.2 80.9 73.7 9.5 25.1 8.5 63.3 -2.6 87.1 -16.6 36.2 -49.2 62.6 -86.8 70.8 -20.9 4.2 -26.7 4.2 -47.9 -1z"/>
  <path d="M3465.4 3329.4 c-17.6 -9.1 -24.1 -15 -31.3 -29.4 -13 -25.4 -11.4 -47 5.2 -71.4 19.2 -27.4 61.6 -36.5 88.7 -18.6 22.2 14.7 31 28.7 32.6 52.8 1.6 17.6 0.7 23.5 -5.2 34.9 -17.6 33.6 -58.4 48.3 -90 31.6z"/>
  <path d="M1990.9 3319 c-31.3 -14.7 -48.3 -47.3 -40.4 -77.3 5.2 -19.2 14.4 -31.3 32 -42.4 12.4 -7.8 18.6 -9.5 35.2 -9.5 17.3 0 22.5 1.6 35.9 10.8 29 19.2 39.8 56.4 24.8 85.8 -8.5 16.3 -18.3 25.4 -36.5 33.6 -19.2 8.8 -30.7 8.5 -50.9 -1z"/>
  <path d="M1568.8 3267.4 c-45.7 -23.2 -35.9 -86.1 15 -95.9 14 -2.6 38.5 9.5 47 23.5 10.8 17.3 11.7 31.3 3.3 48.6 -6.2 12.7 -10.4 17 -24.1 23.2 -20.5 9.5 -23.2 9.5 -41.1 0.7z"/>
  <path d="M2312.5 3269.7 c-35.6 -10.1 -62 -31.6 -78.9 -64.6 -9.8 -18.6 -10.4 -22.8 -10.4 -51.2 -0.3 -27.1 1 -33.3 8.8 -49.6 21.5 -45.3 74 -75.3 121 -69.8 75 9.5 124.6 87.4 99.8 157.5 -20.2 57.1 -84.5 93 -140.2 77.6z"/>
  <path d="M3119.4 3263.9 c-48.3 -16 -82.8 -62.9 -82.8 -113.2 0 -78.9 76 -137.3 150 -115.5 35.9 10.8 62 33.6 78.9 69.8 11.1 22.8 10.4 67.2 -1 91.3 -12.1 25.1 -31.6 46 -55.8 58.7 -17.9 9.8 -24.1 11.1 -48.3 12.1 -17 0.7 -32.9 -0.7 -41.1 -3.3z"/>
  <path d="M4321.3 3244.3 c-28.4 -19.2 -15 -61 19.6 -61 11.7 0 28 13 31 24.8 3.3 13 -3.6 29.7 -15.7 37.2 -14 8.5 -21.2 8.2 -34.9 -1z"/>
  <path d="M1198 3176.8 c-4.2 -1.6 -10.4 -7.8 -14 -13.7 -8.5 -13.7 -6.5 -27.1 6.2 -39.8 7.5 -7.5 12.4 -9.5 23.5 -9.5 12.1 0 15.3 1.6 23.2 11.1 23.8 28.4 -4.2 65.6 -38.8 51.9z"/>
  <path d="M5304.3 3083.2 c-6.8 -3.6 -12.1 -9.5 -14.7 -17 -3.6 -9.5 -3.9 -172.5 -2.6 -869.5 l1.6 -857.8 8.2 -16.3 c5.9 -12.1 12.1 -18.6 22.8 -24.5 l14.7 -8.2 319.6 -0.3 c205.8 -0.3 325.8 -1.6 337.2 -3.6 35.9 -6.8 57.1 8.5 57.1 41.1 -0.3 33.3 -16 45.3 -54.5 41.1 -34.9 -3.6 -562 -4.2 -581.2 -0.7 -19.9 3.9 -35.6 18.3 -40.1 36.9 -1.6 7.5 -2.9 135.4 -2.6 317.7 0.3 288.3 0.7 305.6 6.2 314.1 11.7 17.9 23.2 21.9 63.6 21.9 l36.5 0 12.4 -11.1 12.1 -11.1 0.3 -248.5 c0.3 -136.7 1.6 -254.4 2.6 -261.6 1.3 -7.5 5.2 -17.6 9.1 -23.2 14.4 -20.2 6.8 -19.6 267.1 -20.2 159.2 -0.3 240.7 0.7 249.2 2.9 31.3 8.8 30.3 58.4 -1.3 71.1 -5.5 2.3 -78.3 3.6 -204.5 3.9 -187.5 0.7 -196.3 1 -206.8 6.8 -23.2 14 -23.8 15.3 -24.5 100.1 -0.7 46.6 -2.9 91.7 -6.2 116.8 -7.2 56.1 -10.4 149.1 -5.5 178.1 8.2 51.9 31.6 86.8 67.2 100.5 25.8 9.8 109.9 10.8 190.2 2.3 42.7 -4.6 84.8 -6.8 129.5 -6.8 l66.2 0 8.5 10.1 c6.8 8.2 8.5 13.4 8.5 27.7 0 14.4 -1.6 19.2 -8.8 27.4 l-9.1 10.1 -309.8 0.7 c-297.5 0.7 -310.5 1 -322.2 6.8 -7.2 3.6 -16.6 12.1 -21.2 18.9 l-8.5 13 -0.3 293.9 c-0.3 174.2 0.7 299.4 2.3 306.9 6.5 26.4 27.4 36.5 74.7 35.6 28.4 -0.7 42.7 -6.8 49.9 -21.9 5.2 -10.8 5.5 -30.7 4.9 -252.4 -0.3 -255.4 -0.7 -250.2 14.4 -268.8 12.7 -15.7 12.4 -15.7 270.1 -16 214.3 0 242.3 0.3 249.2 4.9 10.8 7.2 15.3 16.6 15.3 32.9 0.3 16.6 -7.2 30 -18.9 34.2 -4.9 2 -86.8 3.3 -201.6 3.3 -197.7 0 -207.8 0.7 -221.8 12.7 -15.7 13.7 -15.3 9.8 -15.7 235.5 0 209.7 0 211.7 6.8 222.8 13.4 21.5 20.5 22.8 114.5 20.2 335.3 -9.1 320.3 -9.8 330.7 10.8 11.1 20.9 3.6 54.1 -13.7 62.3 -6.5 2.9 -55.4 4.6 -201.2 5.5 -118.7 0.7 -198.3 2.6 -208.1 4.6 -23.8 5.5 -30 16.3 -30 53.8 0.3 27.4 1 30.7 9.1 41.4 4.9 6.5 14 13.4 20.9 15.7 9.1 2.9 62.6 3.9 208.1 4.2 184 0.3 196.7 0.7 205.2 6.2 13 8.8 19.2 25.4 15 41.1 -1.6 6.8 -6.2 15 -10.1 18.6 -6.5 5.9 -17.6 6.2 -366.3 6.8 -323.9 0.7 -360.1 0 -369.5 -4.6z m181.3 -74.4 c12.7 -11.1 17.6 -26.4 17.9 -60.3 0.7 -44.4 -10.4 -55.8 -56.4 -58.1 -34.9 -1.6 -53.5 2.9 -67.8 17.3 -10.8 10.8 -10.8 11.1 -10.8 42.1 0 33.6 2.9 43.7 17 56.4 10.1 9.1 14.4 9.8 55.4 10.4 32.6 0.3 35.2 0 44.7 -7.8z"/>
  <path d="M6689.5 3085.5 c-55.4 -7.2 -82.8 -20.2 -99.5 -47 -8.8 -14.4 -9.8 -18.6 -9.1 -39.1 2.9 -110.6 3.6 -102.7 -7.8 -126.5 -12.4 -26.4 -40.4 -55.1 -77.6 -80.6 -38.5 -26.1 -52.2 -37.8 -71.8 -62 -24.1 -30 -42.7 -68.5 -50.9 -105.3 -6.2 -27.4 -6.8 -36.9 -4.9 -95.6 1 -35.9 1.6 -265.5 1.3 -510.4 -1.3 -613.8 -2 -549.9 6.2 -570.1 18.6 -46 48.9 -69.1 136.3 -103.4 101.4 -39.5 216.9 -53.5 316.4 -37.8 64.9 10.1 106 23.5 172.9 56.1 41.7 20.2 56.1 28.7 110.9 66.2 27.7 19.2 85.1 77.6 108.9 111.2 34.2 48.6 57.4 100.1 70.8 156.6 4.9 20.9 6.2 38.5 6.2 88.1 0 54.1 -1.3 67.8 -9.1 107.3 -20.2 103.4 -6.8 166 55.1 257 43.4 63.6 75 128.2 92.6 190.2 28.4 98.2 26.1 201.9 -6.8 300.1 -20.2 60 -62 138 -98.8 184.9 -3.9 4.6 -10.4 13.4 -15 19.2 -64.3 84.8 -162.8 157.9 -267.4 197.7 -44.4 17 -113.8 34.6 -150 38.5 -9.8 1 -28 2.9 -40.8 4.9 -26.1 3.6 -141.2 3.6 -168 0z m117.4 -73.4 c69.1 -7.2 90.3 -10.4 127.9 -19.2 184.6 -43.7 312.5 -147.7 387.1 -315.1 31 -69.8 46 -138.6 46 -211 -0.3 -129.2 -47.3 -234.2 -157.9 -354.5 -23.5 -25.4 -38.8 -55.4 -40.4 -80.6 -1.6 -22.2 2 -38.5 17.9 -81.2 19.9 -53.5 27.1 -92.3 27.1 -147.7 0 -53.2 -4.6 -81.2 -19.9 -125.6 -27.7 -80.6 -93 -161.4 -178.4 -221.8 -28.7 -20.2 -91 -47 -139.6 -59.7 -148.1 -38.8 -351.6 -3.6 -401.8 69.5 -20.2 29.4 -18.9 -4.6 -18.6 594.6 0.7 434.1 1.6 551.2 4.9 564.3 10.8 42.4 44 83.8 93 115.5 l26.1 17.3 1.6 -594.9 c1 -338.6 2.9 -598.2 4.6 -602.7 15.7 -42.7 64.3 -62.9 153.6 -62.9 35.9 0.3 52.2 1.6 76.6 7.5 110.2 26.1 198 93.9 241.7 187.2 32.3 68.8 36.5 133.1 13.7 205.8 -17 53.8 -41.4 91.3 -93 142.9 -21.2 21.2 -38.5 39.1 -38.5 39.8 0 1 6.2 4.6 14 8.5 14.4 7.5 65.6 41.1 82.2 54.1 5.5 4.2 11.4 8.8 13 10.1 16 11.7 58.7 49.2 72.1 63.3 58.1 60.7 93.6 123.6 111.2 198 7.8 33.3 6.8 102.1 -2 138.9 -23.5 98.5 -65.9 169.3 -135.7 225.4 -85.8 69.5 -196.7 105.7 -339.2 110.9 -58.1 2 -64.3 3.3 -74 12.1 -10.1 9.5 -13.4 31 -9.1 62.3 2.9 24.5 9.1 35.2 26.1 47 13.4 8.8 38.2 9.5 107.6 2.3z m49.2 -202.2 c79.3 -14.7 145.8 -49.9 202.5 -106.7 39.8 -39.8 70.1 -92.6 84.8 -147.1 9.8 -35.6 10.4 -122.3 1.6 -155.6 -26.7 -99.8 -94.9 -179.4 -192.1 -225 -60.3 -28.4 -129.2 -39.8 -197.3 -32.6 -52.5 5.2 -73.7 16 -81.2 40.8 -1.6 5.5 -2.9 134.4 -2.6 296.8 0.3 261.3 0.7 288 5.5 298.4 12.1 25.1 43.7 35.2 110.2 35.6 24.5 0.3 52.5 -1.6 68.5 -4.6z m-52.5 -761.9 c16.6 -3.9 41.4 -13 62 -23.2 30 -15 37.8 -20.9 65.2 -48.3 49.6 -49.9 68.5 -94.3 68.5 -161.4 0 -51.9 -12.4 -91 -42.4 -135.4 -43.1 -62.9 -131.1 -108.3 -212 -108.9 -35.6 -0.3 -43.4 2.9 -57.1 23.5 -15.3 23.2 -16.3 37.5 -16 237.4 0 179.4 0.3 186.6 6.5 197 16.6 28.7 56.8 34.9 125.2 19.2z"/>
  <path d="M8017 3082.2 c-98.2 -16.6 -196.7 -58.1 -291.9 -123.3 -22.8 -15.7 -42.7 -31.6 -105.3 -83.2 -18.3 -15 -23.5 -23.5 -21.2 -34.9 2.9 -17.9 35.2 -41.4 51.2 -37.2 9.8 2.3 32.3 17.9 51.5 35.6 22.5 20.9 80.2 62.9 112.9 82.2 78.9 46.6 168.6 76.6 250.2 84.5 34.9 3.3 114.5 2.3 141.9 -1.6 107 -15.3 194.7 -59.4 266.8 -134.1 98.5 -102.4 138 -254.7 102.1 -393.7 -6.5 -25.8 -25.1 -71.8 -35.6 -89 -42.1 -69.1 -103.4 -129.8 -183.3 -181 -69.5 -44.4 -105.3 -64.6 -239.7 -133.7 -113.8 -58.7 -127.2 -66.5 -171.2 -99.8 -67.2 -50.9 -107.3 -116.4 -115.5 -188.8 -2.9 -26.1 5.9 -71.4 20.5 -104.4 30.7 -70.1 90 -123.6 165 -149.4 41.1 -14 69.8 -18.3 119 -18.3 78.3 0.3 148.7 19.2 214.6 58.1 31.6 18.6 75 72.7 71.1 88.7 -2.3 8.5 -21.5 22.2 -41.4 29.4 -17.3 5.9 -24.1 2.6 -57.7 -28.4 -33.6 -31.3 -79.6 -55.8 -119.7 -63.9 -36.5 -7.5 -103.7 -7.2 -135.4 0 -91.7 21.5 -161.4 118.4 -147.1 203.2 11.1 63.9 54.1 104 193.7 180.4 35.2 19.2 56.1 30.7 77.3 42.1 74.7 40.4 97.5 53.2 135.4 75 92.3 53.5 158.5 101.4 208.7 152 44.4 44.7 70.1 78.9 93.9 124.6 18.3 35.6 23.2 48.6 35.6 94.3 9.1 33.3 9.8 39.8 10.1 94.6 0.3 48.9 -0.7 64.9 -7.2 96.2 -18.6 94.3 -50.2 164.1 -104.4 229.9 -48.6 59.7 -98.5 98.5 -174.5 136 -25.8 12.7 -32 15.3 -75.3 30.7 -84.1 29.7 -210.7 41.4 -295.2 27.4z"/>
  <path d="M1985 3033.3 c-37.8 -13.7 -63.9 -41.1 -77 -81.5 -9.8 -30.3 -7.8 -51.9 8.2 -83.8 13 -26.7 29.7 -43.1 57.1 -56.1 15.3 -7.2 22.2 -8.5 48.9 -8.5 27.4 0 33.3 1 50.2 9.1 25.1 12.4 45.7 33.6 58.1 60 8.8 18.6 10.1 24.8 9.8 48.3 0 23.2 -1.3 30 -10.1 47.9 -26.4 55.8 -90 83.8 -145.1 64.6z"/>
  <path d="M3448.5 3034.9 c-43.7 -13.4 -77.3 -51.2 -85.8 -96.9 -9.1 -47.6 19.6 -100.8 67.5 -124.9 17.3 -8.8 21.9 -9.8 51.5 -9.8 29.4 0 34.2 1 50.2 9.5 23.5 12.1 46.6 35.9 57.7 59.4 7.8 16.6 9.1 23.5 9.1 48.6 0 26.4 -1 31.3 -10.1 48.9 -17 32.9 -36.9 50.9 -70.5 63.3 -21.5 7.8 -48.9 8.8 -69.8 2z"/>
  <path d="M3838.9 2966.1 c-8.2 -4.6 -17.3 -11.4 -20.5 -15.3 -23.5 -29 -19.2 -72.4 9.5 -96.2 39.8 -32.9 95.6 -13 109.3 38.8 14.4 53.5 -49.2 100.5 -98.2 72.7z"/>
  <path d="M1648.7 2954 c-25.1 -11.4 -39.8 -31.6 -43.1 -58.4 -1.6 -12.4 -0.3 -18.9 6.8 -33.3 21.9 -44.4 74 -53.8 108.3 -19.6 22.2 22.2 26.7 50.2 12.7 78.6 -11.4 22.5 -29 33.9 -55.1 35.9 -12.7 0.7 -23.5 -0.7 -29.7 -3.3z"/>
  <path d="M8087.1 2882.6 c-66.9 -4.9 -136 -28.4 -202.2 -68.2 -55.4 -33.3 -122.3 -90 -122.3 -103.4 0 -14.4 33.6 -43.1 50.6 -43.1 11.7 0 19.9 4.9 41.1 24.5 57.4 52.8 119.4 85.8 197 104.7 43.4 10.4 105.3 11.1 143.8 1.3 72.7 -18.6 121 -57.1 151.3 -121.3 29.4 -62.3 24.8 -145.8 -11.7 -205.2 -40.8 -65.9 -109.9 -113.8 -304.3 -211.4 -50.6 -25.4 -96.9 -49.2 -103.1 -52.5 -28 -16 -33.6 -19.2 -50.6 -29.7 -143.5 -87.7 -227.3 -191.1 -256 -316.4 -3.3 -15 -4.9 -41.4 -4.9 -89.7 -0.3 -58.7 0.7 -72.1 6.5 -97.2 40.1 -168 164.4 -290.9 347.4 -344.1 56.4 -16.3 93.9 -21.2 169.6 -21.2 82.2 -0.3 115.8 4.9 185.9 28 74.4 24.5 140.9 64.3 216.9 129.8 11.7 10.1 29.4 24.1 39.5 31.6 18.6 13.7 29.4 30 26.7 40.1 -2.9 10.8 -23.5 32 -38.2 38.8 -19.9 9.8 -26.4 6.2 -62 -31 -34.2 -36.2 -89.4 -78.9 -130.8 -101.4 -46.6 -25.4 -92.3 -41.7 -147.4 -52.8 -46.6 -9.5 -136 -9.8 -185.9 -0.3 -91 17.3 -163.1 51.9 -228 109.3 -19.2 17 -58.1 62.3 -68.5 80.2 -15.3 26.4 -31.6 65.2 -39.5 93 -8.2 29.7 -8.8 37.2 -8.8 91 0 49.9 1 62.9 7.2 86.8 14 55.4 44 112.2 79.6 151.7 47.3 52.2 98.8 89.4 196.7 141.6 14.4 7.8 33.6 17.9 42.4 22.8 9.1 4.9 33.9 17.9 55.4 29.4 66.5 34.9 86.4 45.7 140.9 77 79.9 46 114.5 71.4 153.9 113.2 61.3 64.6 91 156.6 77 238.4 -11.7 69.5 -50.2 135 -105.7 180 -25.4 20.9 -28.4 22.5 -67.2 41.4 -60.3 29.7 -119 39.8 -192.4 34.2z"/>
  <path d="M4236.1 2857.5 c-26.4 -16.6 -32.3 -47 -13.7 -71.1 17.6 -23.2 46 -27.4 69.1 -10.8 32 23.2 25.4 71.1 -11.4 86.8 -16 6.8 -27.4 5.5 -44 -4.9z"/>
  <path d="M1259 2744 c-13.4 -6.8 -25.1 -23.5 -28 -39.5 -2.9 -15 8.8 -38.2 24.5 -48.6 20.2 -13.7 49.6 -7.5 65.9 13.4 11.1 14 12.4 39.5 2.3 53.8 -16.3 23.8 -42.1 32.3 -64.6 20.9z"/>
  <path d="M1747.2 2697.3 c-36.9 -13 -59 -33.3 -75.3 -68.5 -6.8 -14.7 -8.5 -22.8 -8.5 -45.7 0 -23.8 1.3 -30.3 9.5 -47.9 17.6 -36.9 50.2 -62 90.7 -69.1 51.2 -9.5 108.6 23.8 128.8 74.7 11.1 26.7 10.4 63.9 -1.3 88.7 -26.4 56.4 -90.3 86.8 -143.8 67.8z"/>
  <path d="M3663.7 2696 c-34.6 -13 -55.1 -31.6 -70.8 -63.9 -8.8 -18.6 -10.1 -24.5 -10.1 -48.9 0 -23.2 1.6 -31 8.8 -46 29.4 -63.3 102.7 -90.3 162.1 -60 34.9 17.6 57.7 49.2 65.9 90 5.5 28 -5.5 66.2 -26.7 92 -13.7 16.6 -33.9 30 -57.7 37.8 -25.8 8.8 -46 8.5 -71.4 -1z"/>
  <path d="M4592 2558.7 c-8.5 -4.6 -19.2 -22.5 -19.2 -31.6 0 -6.8 11.7 -22.8 20.2 -27.4 13.4 -7.5 25.1 -5.5 37.2 6.5 12.7 12.7 14.7 26.1 5.5 41.1 -9.1 15.7 -27.1 20.5 -43.7 11.4z"/>
  <path d="M945.9 2509.1 c-12.7 -8.8 -16 -14.7 -16.3 -28 0 -10.1 2.3 -15 11.1 -23.8 12.4 -12.4 20.2 -13.7 36.2 -5.9 22.8 10.8 24.8 43.7 3.3 56.8 -13 7.8 -23.8 8.2 -34.2 1z"/>
  <path d="M4052.2 2488.6 c-17 -8.5 -28.4 -20.9 -35.2 -38.5 -6.5 -17.3 -6.5 -25.4 -0.3 -43.4 10.8 -30 46.3 -52.5 74.4 -47.3 17.9 3.3 41.4 21.2 50.6 37.8 15.7 29.4 4.2 70.8 -24.5 88.4 -16.6 10.4 -47.6 11.7 -64.9 2.9z"/>
  <path d="M1439.7 2470.3 c-24.8 -8.8 -46.6 -38.2 -47 -62.6 0 -23.8 17.9 -51.5 40.4 -62.3 26.4 -12.4 57.1 -6.5 78.3 14.7 34.6 34.6 17.3 97.5 -30.3 111.9 -16 4.6 -24.8 4.2 -41.4 -1.6z"/>
  <path d="M1674.2 2296.5 c-48.9 -17.9 -78.6 -57.1 -81.9 -107.3 -1.3 -20.5 -0.3 -27.1 7.2 -46 38.5 -98.2 167.3 -105.3 217.5 -12.7 10.4 19.6 11.1 22.2 11.1 53.2 0 29.4 -1 34.2 -9.1 49.9 -21.9 41.7 -58.7 66.2 -103.4 68.2 -18.3 1 -28.7 -0.3 -41.4 -5.2z"/>
  <path d="M3766.8 2296.8 c-41.7 -11.7 -69.8 -38.5 -84.8 -80.6 -18.3 -51.5 9.1 -115.1 60.3 -140.2 28.4 -14 50.2 -17 76.6 -10.4 25.1 5.9 53.2 22.2 67.2 38.8 25.8 30.3 34.9 81.2 21.5 117.4 -21.9 57.7 -83.8 90.7 -140.9 75z"/>
  <path d="M4369.9 2230.9 c-16.3 -8.8 -25.4 -24.8 -25.4 -44.4 0 -40.4 47.3 -63.9 79.6 -39.1 48.9 37.2 0.7 112.2 -54.1 83.5z"/>
  <path d="M1136 2110.6 c-29.7 -21.5 -31 -58.7 -2.9 -80.2 32.6 -24.8 80.2 -1.6 80.2 39.1 0 39.8 -45.7 64.3 -77.3 41.1z"/>
  <path d="M4053.8 1975.2 c-45.7 -16.3 -62 -67.5 -33.3 -104.7 32 -42.1 90.7 -35.6 115.8 12.7 5.2 9.8 6.2 17.3 5.2 32 -2 25.4 -14.4 43.4 -38.2 55.8 -19.6 9.8 -31.6 10.8 -49.6 4.2z"/>
  <path d="M1466.4 1955.3 c-24.5 -8.5 -40.8 -26.1 -48.3 -51.2 -7.5 -24.8 6.8 -55.8 33.6 -73.4 17.9 -11.7 44.7 -12.1 65.2 -0.7 55.1 30.3 43.7 109.3 -18.3 126.5 -16 4.2 -16.6 4.2 -32.3 -1.3z"/>
  <path d="M1744 1901.5 c-47 -16.6 -74 -47.6 -83.8 -95.2 -4.6 -23.8 -0.3 -48.6 14 -75.3 22.8 -43.7 74.7 -69.5 122 -60.7 49.2 9.1 85.8 43.7 97.8 93 20.9 84.1 -69.1 167 -150 138.3z"/>
  <path d="M3674.2 1895.3 c-52.2 -13.7 -93 -70.1 -88.7 -122.6 3.3 -41.7 33.3 -83.5 73.4 -102.1 25.1 -11.4 62 -12.1 90 -1 27.7 11.1 57.1 40.8 67.2 68.8 16.3 44 5.9 92 -27.1 125.2 -23.2 22.8 -44 32 -77.3 33.3 -15.3 0.7 -32 0 -37.5 -1.6z"/>
  <path d="M4625.2 1845.4 c-4.6 -2.3 -11.1 -9.1 -14.4 -15 -5.5 -9.5 -5.9 -12.7 -2.6 -23.2 5.2 -17.6 14.4 -24.8 31.6 -24.8 40.8 0 45 59.7 4.2 65.6 -5.9 0.7 -14.7 -0.3 -18.9 -2.6z"/>
  <path d="M940 1765.8 c-3.9 -2.6 -9.5 -9.5 -12.4 -14.7 -17.3 -33.9 34.9 -63.6 57.1 -32.6 15.7 21.9 1.3 52.5 -24.8 52.5 -6.8 0 -16 -2.3 -19.9 -5.2z"/>
  <path d="M4300.4 1624.3 c-14.7 -4.6 -30 -20.2 -34.6 -35.6 -7.5 -25.8 9.1 -54.5 36.2 -62.6 24.8 -7.5 55.8 12.1 60.7 37.8 7.2 38.2 -26.7 70.8 -62.3 60.3z"/>
  <path d="M1969.3 1557.7 c-32 -11.4 -59.7 -36.2 -74.7 -66.5 -6.5 -13 -7.8 -20.5 -7.8 -47.9 0 -29.7 1 -34.2 9.5 -51.5 11.7 -23.2 35.2 -45.7 60 -57.1 25.1 -11.7 69.1 -12.4 92 -1.6 46.3 22.2 75 64.6 75 111.5 0 31.6 -19.6 71.1 -46 91.7 -29.4 23.5 -76 32.9 -108 21.5z"/>
  <path d="M3449.8 1554.5 c-50.2 -20.9 -80.2 -67.8 -76.6 -119 3.3 -41.7 32 -82.8 70.5 -100.8 16 -7.5 22.8 -8.8 47.9 -8.8 24.8 0 32 1.3 47.3 8.5 25.1 12.1 46 31.6 59 55.8 10.4 19.6 11.1 22.2 11.1 53.2 0 31 -0.7 33.6 -11.1 53.2 -22.2 40.8 -58.1 63.3 -103.1 65.2 -21.5 0.7 -29.4 -0.7 -45 -7.2z"/>
  <path d="M1311.2 1509.8 c-11.4 -4.9 -19.2 -12.7 -26.4 -26.4 -8.2 -16 -7.8 -27.4 1.3 -43.4 15 -26.1 42.4 -34.9 67.2 -20.9 18.9 10.8 24.8 21.2 24.8 43.7 0 20.5 -4.6 30.3 -20.2 42.1 -9.1 6.8 -35.6 9.8 -46.6 4.9z"/>
  <path d="M3863 1487.3 c-13.4 -7.5 -18.9 -13.4 -25.4 -26.7 -23.5 -47 7.8 -98.5 60 -98.5 28.7 0 50.2 14.7 62.3 43.1 25.1 58.1 -41.1 114.5 -96.9 82.2z"/>
  <path d="M1632.1 1463.8 c-45 -30.7 -40.4 -93 8.2 -117.4 9.8 -5.2 22.2 -9.1 27.7 -9.1 14.4 0 41.4 13.7 51.9 26.1 19.2 22.8 23.2 46.3 11.7 69.5 -14.7 29 -33.9 41.4 -64.3 41.4 -16.6 0 -21.9 -1.6 -35.2 -10.4z"/>
  <path d="M2317.4 1331.4 c-23.5 -8.8 -30 -12.7 -46 -27.4 -30 -27.7 -45 -70.8 -37.2 -106.3 8.8 -39.8 32 -70.1 67.2 -87.4 26.1 -12.7 62.9 -15 89.4 -4.9 39.1 15 66.9 45.7 77 85.8 9.5 36.5 -1 75 -28.4 105.3 -32.6 35.2 -82.2 49.6 -122 34.9z"/>
  <path d="M3112.5 1332.7 c-33.9 -11.1 -63.6 -37.5 -78.6 -69.8 -6.8 -15 -8.5 -23.5 -8.8 -45 0 -24.8 1 -28.4 13 -52.2 23.2 -45.3 61.3 -68.2 110.9 -65.9 32.3 1.3 56.8 11.7 78.3 33.6 33.6 33.3 44 81.9 27.4 126.2 -9.5 26.1 -36.5 54.5 -63.6 66.9 -22.8 10.4 -57.7 13 -78.6 6.2z"/>
  <path d="M2695.7 1264.5 c-26.7 -13 -47 -32.6 -59.4 -57.7 -8.2 -16 -9.1 -21.5 -9.1 -50.6 0 -31 0.7 -33.6 11.1 -53.2 13 -24.1 33.9 -43.7 59 -55.8 15.3 -7.2 22.2 -8.5 47.3 -8.5 25.8 0.3 31.6 1.3 48.9 9.8 25.1 12.4 46.6 33.9 58.7 58.7 8.2 17 9.5 23.2 9.5 48.9 0.3 25.1 -1 32 -8.5 47.9 -11.1 24.1 -36.5 49.6 -60.7 60.7 -14.7 6.8 -24.5 8.8 -46.3 9.8 -26.1 1 -29 0.3 -50.6 -10.1z"/>
  <path d="M4330.7 1148.4 c-12.4 -9.8 -17.3 -26.7 -11.4 -38.5 10.1 -19.2 26.1 -26.4 43.1 -19.2 21.5 9.1 28 34.2 13.7 51.9 -10.1 13 -32.6 15.7 -45.3 5.9z"/>
  <path d="M3489.9 1118.4 c-17.3 -10.4 -29 -25.1 -34.6 -44 -5.2 -18.3 -3.9 -28.4 5.2 -47 7.5 -15 17.9 -24.1 35.9 -32.3 19.2 -8.8 30.7 -8.5 50.9 1 31.3 14.7 47.6 46 39.8 77 -4.9 19.6 -13.7 31.3 -31.3 42.7 -19.2 12.1 -47.9 13.4 -65.9 2.6z"/>
  <path d="M1250.5 1116.4 c-22.8 -11.4 -26.7 -38.5 -7.5 -54.5 13.4 -11.4 27.7 -12.4 40.8 -2.6 20.9 15.7 17.6 46 -6.5 57.4 -13.4 6.2 -13.7 6.2 -26.7 -0.3z"/>
  <path d="M2009.5 1113.5 c-20.2 -10.1 -34.6 -30 -38.2 -52.2 -3.6 -24.1 9.1 -49.2 33.6 -66.2 10.4 -6.8 16 -8.5 33.6 -8.5 31 0.3 49.6 11.7 62.3 39.1 20.5 44.4 -13.7 96.2 -64.3 96.2 -5.2 0 -17.6 -3.9 -27.1 -8.5z"/>
  <path d="M3941.3 1073.7 c-22.2 -14 -32 -37.5 -24.1 -59 11.7 -33.6 49.2 -45.7 76.6 -24.8 28 21.2 28 58.4 0.3 80.2 -13 10.4 -39.1 12.1 -52.8 3.6z"/>
  <path d="M1649.7 989.9 c-28.7 -19.2 -31.6 -54.1 -7.2 -78 16 -15.7 34.6 -18.3 54.8 -8.5 18.9 8.8 28 23.5 28 44 0 40.4 -43.1 64.6 -75.7 42.4z"/>
  <path d="M3022.8 941 c-19.6 -7.2 -28.7 -15 -38.8 -32.3 -21.9 -38.5 -2.9 -84.1 41.4 -98.2 20.2 -6.2 34.2 -3.6 56.1 10.4 16.6 11.1 30 35.2 30 54.8 0 29.4 -23.5 58.4 -53.8 66.5 -16 4.2 -19.9 4.2 -34.9 -1.3z"/>
  <path d="M2512.7 915.5 c-17.6 -6.8 -30 -18.3 -38.5 -35.6 -10.4 -20.9 -10.8 -35.2 -0.7 -56.8 24.8 -53.5 98.8 -53.2 123 0 24.1 53.2 -30 112.9 -83.8 92.3z"/>
  <path d="M3434.4 731.9 c-6.2 -2.6 -14 -7.5 -17.3 -10.4 -32.6 -29.4 -10.8 -85.5 32.9 -85.5 16.6 0 29.7 6.2 40.8 19.2 19.9 23.5 11.4 60 -17.3 74.7 -16.6 8.5 -23.5 8.8 -39.1 2z"/>
  <path d="M2203.2 665 c-13.4 -4.2 -22.5 -12.4 -30.7 -27.7 -8.5 -16 -8.5 -25.1 0 -42.7 8.5 -17.6 33.3 -32 49.9 -29 46 8.8 60.3 63.6 24.1 91.3 -12.7 9.5 -29.7 12.7 -43.4 8.2z"/>
  <path d="M3827.5 666.3 c-15 -3.6 -29.4 -24.8 -25.8 -38.5 1 -4.6 6.2 -12.7 11.1 -17.9 16 -17 41.4 -11.7 53.2 10.8 5.2 10.4 5.5 13.7 2.3 21.5 -7.2 17.6 -24.5 27.7 -40.8 24.1z"/>
  <path d="M1745.6 591 c-5.5 -5.2 -11.1 -13 -12.1 -17.6 -3.3 -12.4 5.5 -29.7 18.6 -36.5 14 -7.5 25.8 -5.2 38.8 7.8 13.7 13.4 13 29.7 -1.6 44.4 -14.7 14.7 -29.7 15 -43.7 2z"/>
  <path d="M2827.5 566.9 c-26.7 -15.3 -33.3 -49.6 -14 -73.4 13.7 -16.6 30.7 -22.8 49.9 -17.6 27.4 7.2 42.4 29.7 38.2 56.8 -5.2 33.6 -44.4 51.5 -74 34.2z"/>
  <path d="M3169.9 346.1 c-17.3 -17.3 -11.1 -44.7 12.1 -54.5 21.2 -8.8 43.7 7.8 43.7 32.3 0 28.7 -35.2 42.7 -55.8 22.2z"/>
  <path d="M2431.8 319.3 c-11.4 -13.4 -13.4 -23.2 -7.2 -35.2 7.8 -15 19.2 -21.2 35.6 -18.9 41.1 5.5 36.5 64.3 -5.2 64.3 -12.4 0 -16 -1.6 -23.2 -10.1z"/>
 </g>
</svg>