<?xml version="1.0" encoding="utf-8"?>
<!-- Generator: Adobe Illustrator 25.1.0, SVG Export Plug-In . SVG Version: 6.00 Build 0)  -->
<svg version="1.1" id="레이어_1" xmlns="http://www.w3.org/2000/svg" xmlns:xlink="http://www.w3.org/1999/xlink" x="0px"
	 y="0px" viewBox="0 0 310.2 297" style="enable-background:new 0 0 310.2 297;" xml:space="preserve">
<style type="text/css">
	.st0{fill:#1C1C1C;}
	.st1{fill:#FEFEFE;}
	.st2{fill:#B22519;}
</style>
<g>
	<g>
		<path class="st0" d="M310.13,0.75c0,97.78-0.01,195.57,0.07,293.35c0,2.43-0.49,2.91-2.91,2.9
			c-102.18-0.08-204.36-0.07-306.54-0.07c-0.56-1.04-0.28-2.15-0.28-3.23C0.45,197.18,0.45,100.65,0.45,4.13
			c0-4.11-0.44-3.67,3.67-3.67C105.05,0.45,205.97,0.45,306.9,0.46C307.97,0.46,309.1,0.19,310.13,0.75z"/>
		<path class="st1" d="M310.13,0.75C208.1,0.74,106.08,0.76,4.05,0.68c-2.71,0-3.37,0.66-3.37,3.37
			c0.08,97.63,0.07,195.26,0.07,292.89c-1.24-0.54-0.56-1.62-0.56-2.39c-0.05-15.65-0.04-31.3-0.04-46.95
			c0-81.64,0.01-163.27-0.06-244.91c0-2.17,0.46-2.6,2.6-2.6c101.68,0.07,203.37,0.06,305.05,0.09
			C308.52,0.18,309.59-0.49,310.13,0.75z"/>
		<path class="st1" d="M139.32,169.18c0-15.95-0.08-31.91,0.07-47.86c0.03-2.85-0.87-3.53-3.55-3.45
			c-5.98,0.18-11.97-0.02-17.95,0.1c-1.99,0.04-2.65-0.62-2.54-2.57c0.13-2.29,0.16-4.59-0.01-6.88c-0.17-2.22,0.8-2.65,2.79-2.62
			c6.08,0.11,12.17-0.07,18.25,0.09c2.43,0.07,3.04-0.75,2.99-3.07c-0.14-6.78,0.02-13.56-0.09-20.34c-0.03-2.1,0.55-3.48,2.4-4.67
			c5.88-3.76,11.69-7.64,17.41-11.62c2.61-1.82,5.4-1.06,8.1-0.99c1.51,0.04,0.98,1.73,0.98,2.72c0.04,11.37,0.02,22.73,0.03,34.1
			c0,3.79,0.01,3.8,3.94,3.8c12.17,0,24.33,0.05,36.5-0.05c2.17-0.02,3.1,0.52,2.91,2.83c-0.19,2.18-0.17,4.39-0.01,6.57
			c0.16,2.16-0.72,2.68-2.75,2.67c-12.46-0.08-24.93,0.02-37.4-0.09c-2.39-0.02-3.26,0.52-3.25,3.1
			c0.09,30.11,0.05,60.23,0.07,90.34c0,5.91,0.47,11.75,2.55,17.36c2.79,7.51,8.14,11.88,16.07,13c5.42,0.77,10.75,0.35,15.9-1.61
			c6.97-2.66,11.47-7.53,12.79-14.93c0.46-2.56,1.55-3.34,3.97-3.06c1.47,0.17,3,0.16,4.48,0c2.38-0.26,2.57,0.85,2.26,2.82
			c-2.28,14.34-11.16,22.6-24.66,26.13c-13.68,3.58-27.33,2.69-40.6-2.11c-12.37-4.47-18.86-13.78-20.84-26.54
			c-0.63-4.06-0.77-8.14-0.78-12.23C139.31,196.5,139.32,182.84,139.32,169.18z"/>
		<path class="st1" d="M79.68,169.78c0,20.34-0.01,40.69,0,61.03c0,6.03,1.99,8.67,7.76,10.44c3.78,1.16,7.68,1.25,11.56,1.07
			c2.26-0.11,2.94,0.63,2.86,2.87c-0.22,5.71,0.62,4.79-4.71,4.8c-21.74,0.04-43.48-0.05-65.22,0.1c-3.27,0.02-3.41-1.37-3.41-3.91
			c0-2.55,0.17-4.14,3.45-3.88c4.18,0.33,8.38,0.05,12.38-1.48c4.66-1.78,6.47-4.28,6.47-9.27c0.02-33.8,0.02-67.61-0.01-101.41
			c-0.01-6.45-3.33-8.83-9.53-7.04c-0.48,0.14-0.95,0.3-1.43,0.45c-4.99,1.61-4.04,2.07-5.77-2.92c-0.72-2.1-0.3-2.96,1.8-3.67
			c11.33-3.84,22.63-7.77,33.9-11.8c2.75-0.98,5.51-0.67,8.28-0.75c1.89-0.05,1.6,1.39,1.6,2.54c0.02,6.58,0.01,13.16,0,19.74
			C79.67,141.06,79.67,155.42,79.68,169.78z"/>
		<path class="st2" d="M280.23,209.6c12.59,0.08,21.04,8.74,20.94,21.46c-0.1,12.25-9.13,21.05-21.64,20.92
			c-12.7-0.14-21.77-9.07-21.48-22.06C258.32,217.87,267.27,209.52,280.23,209.6z"/>
		<path class="st1" d="M62.67,44.37c10.38-0.02,17.2,6.5,17.26,16.49C79.99,71.21,73.1,78.04,62.63,78
			c-10.27-0.03-17.26-6.74-17.28-16.58C45.32,50.96,51.99,44.39,62.67,44.37z"/>
	</g>
</g>
</svg>
