<?xml version="1.0" encoding="utf-8"?>
<!-- Generator: Adobe Illustrator 25.1.0, SVG Export Plug-In . SVG Version: 6.00 Build 0)  -->
<svg version="1.1" id="레이어_1" xmlns="http://www.w3.org/2000/svg" xmlns:xlink="http://www.w3.org/1999/xlink" x="0px"
	 y="0px" viewBox="0 0 281.44 281.44" style="enable-background:new 0 0 281.44 281.44;" xml:space="preserve">
<style type="text/css">
	.st0{fill:#F0F0F0;}
	.st1{fill:#303841;}
	.st2{fill:#565D64;}
	.st3{fill:#585F66;}
	.st4{fill:#F2F2F2;}
	.st5{fill:#EFEFEF;}
	.st6{fill:#F1F1F1;}
	.st7{fill:#EEEFEF;}
</style>
<g>
	<g>
		<path class="st0" d="M0.03,140.75c0-46.54,0-93.08-0.03-139.63C0,0.13,0.25,0,1.16,0C94.2,0.03,187.24,0.03,280.28,0
			c0.93,0,1.15,0.16,1.15,1.13c-0.03,93.04-0.03,186.09,0,279.13c0,1.04-0.28,1.18-1.22,1.18c-93.04-0.02-186.08-0.02-279.12,0
			c-0.85,0-1.09-0.16-1.09-1.07C0.03,233.83,0.03,187.29,0.03,140.75z"/>
		<path class="st1" d="M139.77,66.82c-0.64,0.85-0.38,1.55,0.19,2.37c3.87,5.57,7.68,11.18,11.51,16.78
			c0.26,0.38,0.55,0.74,0.87,1.16c0.26-0.37,0.49-0.68,0.71-1c0.46,0.13,0.5,0.67,0.95,0.96c1.6-2.95,3.19-5.87,4.78-8.79
			c1.94-3.56,3.9-7.1,5.8-10.67c0.37-0.7,0.67-0.72,1.3-0.35c5.54,3.26,11.09,6.5,16.64,9.72c0.5,0.29,0.67,0.64,0.67,1.21
			c-0.02,8.5-0.01,17,0,25.5c0,0.56-0.14,1.06-0.41,1.56c-2.36,4.3-4.71,8.61-7.06,12.92c-0.05,0.09-0.13,0.16-0.27,0.33
			c-7.17-10.45-14.31-20.86-21.47-31.3c-0.26,0.41-0.49,0.77-0.74,1.18c-0.27-0.33-0.53-0.64-0.89-1.08
			c-6.63,12.17-13.2,24.24-19.84,36.42c-4.17-5.08-8.22-10.01-12.32-15c-0.25,0.46-0.45,0.83-0.74,1.37
			c-0.3-0.41-0.55-0.76-0.87-1.19c-2.14,4.58-4.21,9.01-6.28,13.44c-1.45,3.1-2.94,6.18-4.35,9.31c-0.32,0.71-0.62,0.61-1.13,0.31
			c-2.65-1.56-5.3-3.12-7.96-4.67c-0.41-0.24-0.62-0.5-0.62-1.01c0.02-13.92,0.03-27.84,0.04-41.76c0-0.03,0.03-0.06,0.13-0.23
			c6.72,8.19,13.4,16.34,20.14,24.56c0.25-0.45,0.46-0.83,0.68-1.23c0.34,0.32,0.65,0.62,0.98,0.93c2.91-6.18,5.82-12.33,8.71-18.49
			c3.29-7.01,6.56-14.04,9.83-21.05c0.08-0.18,0.17-0.35,0.26-0.53c0.35-0.65-0.13-1.17-0.52-1.38c-0.47-0.26-0.5,0.42-0.64,0.72
			c-4.06,8.62-8.1,17.25-12.15,25.88c-2.13,4.54-4.26,9.08-6.47,13.79c-1.44-1.73-2.82-3.39-4.19-5.06
			C109.7,95.95,104.38,89.41,99,82.94c-0.72-0.86-0.63-1.75-0.77-2.69c-0.32-2.09,0.49-3.21,2.35-4.26
			c10.25-5.84,20.42-11.84,30.59-17.82c0.78-0.46,1.11-0.29,1.55,0.37c1.82,2.71,3.67,5.4,5.52,8.1c0.48-0.28,0.41-0.81,0.74-1.12
			c0.37,0.28,0.61,0.67,0.82,1.08c0.07,0.06,0.09,0.11,0.06,0.15C139.82,66.8,139.8,66.82,139.77,66.82z"/>
		<path class="st1" d="M131.66,125.31c-2.5,4.59-5.06,9.27-7.6,13.95c-1.12,2.06-1.1,2.08-3.16,0.89c-3.74-2.16-7.48-4.32-11.21-6.5
			c-0.47-0.28-1.04-0.44-0.63-1.3c3.45-7.24,6.84-14.5,10.25-21.76c0.06-0.13,0.12-0.25,0.24-0.49c2.01,2.43,3.94,4.76,5.86,7.1
			c1.86,2.26,3.72,4.51,5.55,6.79c0.58,0.72,1.06,1.28,1.45-0.1c0.56,0.07,0.54,0.69,1.09,0.84c6.53-11.99,13.1-24.04,19.73-36.23
			c7.22,10.52,14.35,20.92,21.53,31.37c0.29-0.44,0.51-0.79,0.76-1.17c0.28,0.35,0.53,0.66,0.87,1.08c2.23-4.08,4.4-8.05,6.57-12.02
			c0.07,0.01,0.15,0.03,0.22,0.04c0,0.33,0,0.65,0,0.98c0,5.73,0,11.46,0,17.19c0,0.45,0.1,0.88-0.41,1.24
			c-0.66,0.46-1.04,0.54-1.55-0.24c-1.53-2.35-3.15-4.64-4.73-6.94c-0.56,0.09-0.44,0.74-0.93,0.96c-0.23-0.31-0.48-0.63-0.79-1.04
			c-1.62,2.97-3.19,5.88-4.77,8.78c-1.47,2.7-2.96,5.39-4.41,8.1c-0.26,0.49-0.65,0.76-1.09,1.02c-4.33,2.54-8.68,5.05-13,7.61
			c-0.62,0.37-0.95,0.34-1.42-0.23c-5.34-6.56-10.71-13.1-16.06-19.65c-0.38-0.46-0.56-0.77-1.03-0.01
			C132.37,126.61,132.33,125.13,131.66,125.31z"/>
		<path class="st1" d="M139.77,66.82c0.01-0.07,0.01-0.15,0.02-0.22c1.5-2.63,2.57-5.47,3.94-8.16c0.26-0.52,0.49-1.06,0.74-1.59
			c0.78-1.63,0.78-1.63,2.29-0.74c5.44,3.18,10.89,6.36,16.33,9.55c0.36,0.21,0.9,0.28,0.5,1c-3.47,6.31-6.9,12.64-10.35,18.96
			c-0.03,0.06-0.12,0.1-0.22,0.19c-3.06-4.46-6.12-8.92-9.18-13.38c-1.17-1.7-2.34-3.41-3.52-5.1
			C140.19,67.13,140.13,66.8,139.77,66.82z"/>
		<path class="st1" d="M132.73,126.15c3.62,4.42,7.15,8.72,10.68,13.02c1.83,2.23,3.64,4.47,5.49,6.68
			c0.47,0.56,0.59,0.84-0.19,1.26c-2.28,1.25-4.52,2.59-6.76,3.92c-0.81,0.48-1.59,0.51-2.41,0.02c-4.9-2.87-9.79-5.75-14.71-8.58
			c-0.61-0.35-0.67-0.6-0.34-1.2C127.22,136.29,129.93,131.3,132.73,126.15z"/>
		<path class="st1" d="M144,185.04c0-3.26,0.04-6.52-0.02-9.78c-0.02-0.94,0.18-1.4,1.19-1.22c0.23,0.04,0.47,0.04,0.7,0
			c0.88-0.16,1.14,0.22,1.14,1.07c-0.04,4.77-0.03,9.53-0.04,14.3c0,0.08-0.01,0.16-0.01,0.23c0,2.23,0,2.18-2.18,2.22
			c-0.87,0.02-1.02-0.45-1.21-1.06c-1.04-3.28-2.1-6.56-3.33-9.84c-0.03,0.31-0.08,0.62-0.08,0.93c-0.01,2.97-0.03,5.93,0.01,8.9
			c0.01,0.78-0.14,1.09-1.01,1.07c-2-0.04-2.01,0.01-2.01-2.03c0-4.92,0.02-9.84-0.02-14.76c-0.01-0.81,0.2-1.07,1.03-1.05
			c2.06,0.04,2.07-0.01,2.69,1.91c0.99,3.05,1.98,6.09,2.96,9.14C143.89,185.07,143.94,185.06,144,185.04z"/>
		<path class="st1" d="M122.95,182.95c0-2.6,0.02-5.2-0.01-7.79c-0.01-0.79,0.14-1.18,1.09-1.13c2.03,0.1,4.06,0.01,6.09,0.11
			c1.84,0.09,2.62,0.91,2.64,2.72c0.04,4.06,0.04,8.13,0.01,12.19c-0.01,1.87-0.94,2.75-2.87,2.79c-1.99,0.04-3.99-0.03-5.98,0.03
			c-0.81,0.03-0.99-0.27-0.98-1c0.03-2.64,0.01-5.27,0.01-7.91C122.96,182.95,122.96,182.95,122.95,182.95z"/>
		<path class="st1" d="M153.35,184.22c0-2.22-0.02-4.44,0.01-6.66c0.01-0.71-0.12-1.14-0.95-1c-0.19,0.03-0.39,0-0.58,0
			c-1.59,0-1.95-0.48-1.59-2.07c0.09-0.41,0.31-0.46,0.66-0.46c2.69,0.01,5.38,0.01,8.07,0c0.55,0,0.73,0.19,0.75,0.75
			c0.07,1.78,0.09,1.85-1.78,1.75c-1.13-0.06-1.43,0.25-1.41,1.39c0.08,4.25,0.01,8.5,0.05,12.75c0.01,0.88-0.17,1.21-1.13,1.18
			c-2.11-0.07-2.11-0.01-2.11-2.16C153.34,187.88,153.34,186.05,153.35,184.22C153.34,184.22,153.35,184.22,153.35,184.22z"/>
		<path class="st2" d="M146.44,216.59c0.67,0.79,1.33,1.55,1.99,2.33c0.48-0.33-0.12-1.07,0.61-1.26c0.93-0.23,1.37,0.06,1.34,1.07
			c-0.03,1.52-0.21,3.07,1.39,4.12c-0.98,0.11-1.91,0.57-2.67-0.37c-0.23-0.28-0.59-0.15-0.89-0.15c-1.48-0.01-2.97,0.02-4.45-0.01
			c-1.45-0.03-2.05-0.65-2.1-2.08c-0.05-1.5-0.2-3.02,1.5-3.84c0.41-0.2,0.29-0.44,0.03-0.71c-1.04-1.09-1.08-2.45-1-3.83
			c0.07-1.24,0.64-1.83,1.88-1.95c0.27-0.02,0.55-0.03,0.82,0c1.29,0.11,2.9-0.51,3.5,1.3c0.67,2.04,0,3.92-1.69,5.12
			C146.62,216.37,146.57,216.44,146.44,216.59z"/>
		<path class="st1" d="M138.98,65.35c-1.87-2.73-3.61-5.3-5.4-7.84c-0.42-0.59-0.04-0.71,0.34-0.94c1.71-1,3.44-1.97,5.11-3.04
			c1.15-0.73,2.17-0.75,3.34-0.02c1.7,1.07,1.73,1.01,0.86,2.84C141.84,59.3,140.45,62.25,138.98,65.35z"/>
		<path class="st1" d="M167.57,136.01c2.75-5.06,5.36-9.85,8.07-14.83c1.37,2,2.66,3.87,3.95,5.75c1.06,1.55,1.04,1.53-0.58,2.47
			c-3.41,1.96-6.8,3.95-10.2,5.93C168.49,135.52,168.16,135.69,167.57,136.01z"/>
		<path class="st2" d="M218.12,218.04c0,1.13-0.06,2.27,0.02,3.4c0.07,0.91-0.41,0.9-1.06,0.89c-0.65-0.01-1.21,0.1-1.17-0.91
			c0.08-1.99,0.01-3.99,0.03-5.98c0-0.6-0.03-1.07-0.84-1.09c-0.83-0.02-0.98,0.42-0.98,1.1c0.01,1.99-0.05,3.99,0.03,5.98
			c0.03,0.89-0.4,0.92-1.05,0.9c-0.64-0.02-1.21,0.11-1.17-0.9c0.08-1.95,0.03-3.91,0.02-5.86c0-0.59,0.04-1.19-0.86-1.21
			c-0.94-0.02-0.95,0.56-0.95,1.24c0.01,1.91-0.04,3.83,0.03,5.74c0.03,0.87-0.3,1.01-1.07,1.01c-0.79,0-1.19-0.09-1.16-1.06
			c0.08-2.42,0.02-4.84,0.03-7.27c0-1.3,0.94-1.92,2.05-1.2c0.35,0.22,0.44,0.16,0.7,0.06c0.99-0.34,1.98-0.38,2.9,0.23
			c0.22,0.15,0.35,0.41,0.62,0.03c0.37-0.5,0.95-0.46,1.5-0.47c1.87-0.03,2.37,0.45,2.38,2.32
			C218.12,216.01,218.12,217.03,218.12,218.04z"/>
		<path class="st2" d="M63.7,215.96c0-1.76,0.08-3.52-0.04-5.26c-0.05-0.79,0.24-0.82,0.82-0.81c1.32,0.02,2.65-0.02,3.98,0.01
			c1.45,0.03,2.08,0.66,2.09,2.07c0.02,2.77,0.02,5.54,0,8.3c-0.01,1.37-0.63,1.99-2.01,2.03c-1.36,0.04-2.73-0.04-4.09,0.03
			c-0.75,0.04-0.81-0.35-0.82-0.9c0-0.91,0-1.83,0-2.74c0-0.91,0-1.83,0-2.74C63.65,215.96,63.68,215.96,63.7,215.96z"/>
		<path class="st2" d="M167.7,213.12c0.39-0.17,0.66-0.34,0.95-0.41c2.03-0.46,3.03,0.35,3.04,2.43c0,2.11-0.05,4.22,0.02,6.33
			c0.04,0.97-0.51,0.86-1.1,0.84c-0.57-0.01-1.17,0.17-1.13-0.82c0.07-1.95,0.03-3.91,0.02-5.86c0-0.63,0.08-1.29-0.91-1.28
			c-0.97,0-0.9,0.64-0.9,1.28c0,1.95-0.05,3.91,0.02,5.86c0.04,1-0.55,0.81-1.12,0.82c-0.59,0.01-1.12,0.12-1.11-0.84
			c0.06-3.83,0.05-7.66,0-11.49c-0.01-0.99,0.57-0.8,1.14-0.82c0.61-0.02,1.17-0.09,1.09,0.86C167.63,211,167.7,211.98,167.7,213.12
			z"/>
		<path class="st2" d="M189.91,217.6c-0.07,0.91,0.05,1.99-0.09,3.09c-0.14,1.12-0.8,1.55-1.78,1.62c-0.77,0.06-1.56,0.02-2.34,0.01
			c-1.62-0.02-2.23-0.56-2.26-2.14c-0.04-1.78-0.04-3.57,0-5.36c0.04-1.6,0.62-2.12,2.25-2.15c0.58-0.01,1.17-0.01,1.75,0
			c1.95,0.03,2.45,0.54,2.47,2.53C189.92,215.94,189.91,216.68,189.91,217.6z"/>
		<path class="st2" d="M118.97,217.44c0-1.01-0.05-2.02,0.01-3.03c0.07-1.09,0.7-1.7,1.82-1.72c0.86-0.02,1.71-0.03,2.57,0
			c1.36,0.04,1.93,0.45,2,1.76c0.11,2.06,0.14,4.12-0.04,6.18c-0.1,1.18-0.8,1.62-1.84,1.68c-0.85,0.05-1.71,0.04-2.57,0
			c-1.28-0.05-1.85-0.56-1.94-1.85C118.91,219.46,118.96,218.45,118.97,217.44C118.96,217.44,118.97,217.44,118.97,217.44z"/>
		<path class="st2" d="M198.92,217.42c0-0.97-0.06-1.95,0.01-2.91c0.09-1.25,0.62-1.75,1.85-1.81c0.93-0.04,1.87-0.04,2.8,0
			c1.01,0.04,1.59,0.6,1.64,1.62c0.04,1.05,0.01,2.11,0.04,3.16c0.02,0.54-0.23,0.66-0.71,0.65c-0.9-0.02-1.79,0.02-2.69-0.01
			c-0.56-0.02-0.95,0.09-0.82,0.75c0.12,0.64-0.42,1.61,0.72,1.77c0.54,0.08,1.24,0.3,1.36-0.75c0.11-0.97,1.01-0.36,1.53-0.5
			c0.52-0.13,0.58,0.25,0.59,0.69c0.03,1.49-0.56,2.17-2.04,2.24c-4.06,0.2-4.32-0.04-4.32-4.09c0-0.27,0-0.54,0-0.81
			C198.9,217.42,198.91,217.42,198.92,217.42z"/>
		<path class="st2" d="M73.23,217.55c0-0.97-0.05-1.94,0.01-2.91c0.08-1.38,0.61-1.89,1.96-1.94c0.89-0.03,1.79-0.03,2.69,0.01
			c1,0.04,1.6,0.59,1.65,1.61c0.05,1.05,0.01,2.11,0.04,3.16c0.02,0.52-0.2,0.68-0.69,0.66c-0.94-0.02-1.87,0.03-2.81-0.02
			c-0.69-0.04-0.81,0.33-0.72,0.86c0.1,0.61-0.39,1.54,0.71,1.67c0.54,0.06,1.26,0.32,1.37-0.74c0.11-1,1-0.37,1.52-0.51
			c0.5-0.13,0.59,0.21,0.6,0.68c0.03,1.49-0.56,2.18-2.03,2.25c-4.07,0.21-4.33-0.04-4.33-4.07c0-0.23,0-0.47,0-0.7
			C73.21,217.55,73.22,217.55,73.23,217.55z"/>
		<path class="st2" d="M174.53,217.47c0-0.97-0.05-1.95,0.01-2.91c0.09-1.31,0.62-1.81,1.92-1.86c0.89-0.04,1.79-0.03,2.69,0
			c1.07,0.04,1.63,0.62,1.7,1.69c0,0.08,0.02,0.16,0.02,0.23c-0.01,1.09,0.37,2.45-0.14,3.2c-0.57,0.83-2.02,0.15-3.07,0.31
			c-0.34,0.05-0.9-0.24-0.96,0.34c-0.07,0.68-0.29,1.47,0.23,2.03c0.35,0.38,0.96,0.18,1.45,0.11c0.11-0.02,0.29-0.21,0.29-0.32
			c-0.08-1.49,1.06-0.72,1.67-0.89c0.37-0.1,0.49,0.13,0.53,0.52c0.15,1.53-0.54,2.35-2.11,2.41c-0.58,0.02-1.17,0.01-1.75,0
			c-1.93-0.01-2.46-0.55-2.49-2.52c-0.01-0.78,0-1.55,0-2.33C174.52,217.47,174.53,217.47,174.53,217.47z"/>
		<path class="st2" d="M128.24,217.54c0-1.17,0-2.34,0-3.51c0-1.27,0.95-1.91,2.05-1.23c0.32,0.2,0.41,0.2,0.69,0.09
			c2.11-0.85,3.42,0.03,3.43,2.28c0,2.11-0.05,4.21,0.02,6.32c0.04,0.98-0.52,0.84-1.1,0.84c-0.57-0.01-1.16,0.17-1.12-0.82
			c0.07-1.99,0.02-3.98,0.02-5.97c0-0.61-0.01-1.18-0.89-1.18c-0.85,0-0.92,0.49-0.92,1.15c0.02,1.95-0.04,3.9,0.03,5.85
			c0.03,0.89-0.33,1.02-1.08,0.99c-0.67-0.03-1.2,0.04-1.14-0.94C128.3,220.12,128.24,218.83,128.24,217.54z"/>
		<path class="st2" d="M99.7,218.02c0,1.13-0.06,2.27,0.02,3.39c0.06,0.85-0.34,0.97-1.03,0.92c-0.59-0.05-1.24,0.18-1.2-0.87
			c0.08-1.87,0.04-3.74,0.01-5.61c-0.01-0.65,0.23-1.5-0.93-1.48c-1.08,0.02-0.86,0.8-0.86,1.42c-0.01,1.87-0.06,3.75,0.02,5.61
			c0.04,0.97-0.45,0.92-1.13,0.94c-0.75,0.02-1.12-0.09-1.1-0.98c0.06-2.46,0.02-4.91,0.02-7.37c0-1.24,0.87-1.83,1.99-1.21
			c0.34,0.19,0.45,0.2,0.79,0.11c2.39-0.64,3.6,0.1,3.4,2.22C99.62,216.07,99.7,217.05,99.7,218.02z"/>
		<path class="st2" d="M158.95,216.95c0-1.33-0.06-2.66,0.02-3.98c0.06-1.02-0.17-1.59-1.32-1.38c-0.83,0.15-0.98-0.3-0.95-1.01
			c0.02-0.49,0.16-0.69,0.68-0.69c1.79,0.02,3.59,0.03,5.38,0c0.65-0.01,0.66,0.35,0.66,0.82c0,0.5,0,0.87-0.71,0.91
			c-1.54,0.07-1.54,0.11-1.54,1.71c0,2.69-0.04,5.38,0.02,8.07c0.02,0.96-0.44,0.95-1.13,0.95c-0.69,0-1.18,0.01-1.13-0.95
			C159.02,219.91,158.95,218.43,158.95,216.95z"/>
		<path class="st2" d="M82.54,218.36c0-0.93,0.02-1.87-0.01-2.8c-0.01-0.53,0.24-1.17-0.73-1.27c-0.43-0.04-0.31-1.49,0.18-1.57
			c0.67-0.11,0.59-0.55,0.55-0.94c-0.24-2.39,1.07-2.7,2.95-2.61c0.51,0.02,0.72,0.21,0.65,0.69c-0.06,0.4,0.26,1.05-0.54,1.02
			c-0.79-0.03-0.84,0.42-0.88,1.04c-0.05,0.79,0.41,0.78,0.95,0.77c0.65-0.01,0.46,0.5,0.47,0.85c0.01,0.35,0.14,0.89-0.49,0.82
			c-0.99-0.12-0.92,0.5-0.91,1.16c0.02,1.99-0.05,3.98,0.03,5.97c0.04,0.97-0.51,0.86-1.11,0.84c-0.56-0.01-1.21,0.19-1.13-0.81
			C82.59,220.47,82.53,219.41,82.54,218.36C82.53,218.36,82.53,218.36,82.54,218.36z"/>
		<path class="st2" d="M108.05,217.72c0-0.76,0.03-1.52-0.01-2.27c-0.03-0.47,0.2-1.12-0.73-1.13c-0.51,0-0.28-0.55-0.3-0.86
			c-0.02-0.32-0.14-0.75,0.42-0.78c0.54-0.02,0.65-0.4,0.59-0.81c-0.16-1.04,0.49-0.96,1.2-1.01c0.84-0.05,1.13,0.26,1.01,1.06
			c-0.06,0.44,0.06,0.81,0.6,0.75c0.8-0.09,0.74,0.42,0.76,0.96c0.02,0.55-0.17,0.81-0.74,0.74c-0.55-0.07-0.64,0.24-0.64,0.7
			c0.02,1.56,0.01,3.12,0.01,4.68c0,0.37,0.04,0.76,0.53,0.73c1.06-0.05,0.8,0.71,0.81,1.29c0.02,0.82-0.62,0.53-1.02,0.54
			c-2,0.05-2.5-0.44-2.52-2.43C108.04,219.16,108.05,218.44,108.05,217.72C108.05,217.72,108.05,217.72,108.05,217.72z"/>
		<path class="st2" d="M194.96,213.49c0.29-0.25,0.45-0.41,0.63-0.55c0.36-0.29,0.85-0.44,1.2-0.21c0.43,0.29,0.16,0.86,0.19,1.3
			c0.04,0.64-0.48,0.49-0.83,0.51c-0.96,0.05-1.25,0.63-1.25,1.48c0,1.83-0.06,3.66,0.02,5.49c0.04,1-0.57,0.8-1.12,0.81
			c-0.59,0.01-1.13,0.12-1.1-0.84c0.07-2.61,0.02-5.22,0.03-7.83c0-0.42-0.19-1.07,0.58-0.96
			C193.91,212.77,194.88,212.15,194.96,213.49z"/>
		<path class="st2" d="M116.11,217.63c0,1.32-0.04,2.65,0.02,3.97c0.04,0.81-0.45,0.79-0.96,0.72c-0.48-0.07-1.25,0.39-1.24-0.68
			c0.02-2.76,0.02-5.53,0-8.29c0-1.05,0.77-0.59,1.25-0.67c0.54-0.08,0.97-0.03,0.94,0.75
			C116.08,214.82,116.11,216.23,116.11,217.63z"/>
		<path class="st2" d="M104.86,217.51c0,1.36-0.04,2.73,0.01,4.09c0.04,0.94-0.59,0.73-1.08,0.71c-0.47-0.01-1.13,0.28-1.12-0.68
			c0.03-2.76,0.02-5.53,0.01-8.29c0-1.05,0.78-0.59,1.26-0.66c0.54-0.09,0.97-0.03,0.94,0.75
			C104.82,214.79,104.86,216.15,104.86,217.51z"/>
		<path class="st2" d="M90.56,217.51c0,1.36-0.04,2.73,0.01,4.09c0.04,0.94-0.59,0.73-1.08,0.71c-0.47-0.01-1.13,0.28-1.12-0.68
			c0.03-2.76,0.02-5.53,0.01-8.29c0-1.05,0.78-0.59,1.26-0.66c0.55-0.09,0.97-0.02,0.94,0.75
			C90.52,214.79,90.56,216.15,90.56,217.51z"/>
		<path class="st3" d="M89.62,209.14c0.72-0.16,0.97,0.15,1.01,0.99c0.06,1.22-0.73,0.87-1.37,0.95c-0.83,0.1-1.03-0.23-1.05-1.04
			C88.18,208.91,88.9,209.15,89.62,209.14z"/>
		<path class="st3" d="M115.02,211.04c-0.84,0.14-1.25,0-1.26-0.98c0-1.11,0.66-0.89,1.3-0.94c0.74-0.06,1.11,0.07,1.12,0.98
			C116.2,211.12,115.72,211.2,115.02,211.04z"/>
		<path class="st3" d="M103.77,211.05c-0.73,0.07-1.26,0.1-1.26-0.95c0-1.06,0.57-0.97,1.26-0.98c0.67-0.01,1.16-0.04,1.17,0.93
			C104.94,211.03,104.54,211.19,103.77,211.05z"/>
		<path class="st4" d="M126.2,182.97c0-1.88,0.03-3.75-0.01-5.63c-0.01-0.7,0.18-0.95,0.92-0.96c2.4-0.04,2.41-0.07,2.41,2.26
			c0,3.22-0.04,6.43,0.02,9.65c0.02,0.97-0.34,1.2-1.23,1.2c-2.1-0.01-2.1,0.02-2.1-2.07C126.2,185.94,126.2,184.46,126.2,182.97z"
			/>
		<path class="st5" d="M147.54,220.68c-0.95,0-1.61,0.04-2.26-0.01c-0.47-0.04-1.15,0.29-1.36-0.31c-0.24-0.68-0.29-1.49,0.09-2.14
			c0.25-0.43,0.67-0.91,1.24-0.16C145.9,218.9,146.65,219.68,147.54,220.68z"/>
		<path class="st0" d="M146.31,212.71c0,0.35,0.01,0.55,0,0.74c-0.05,0.72-0.41,1.45-1.08,1.46c-0.72,0-0.72-0.85-0.8-1.45
			c-0.02-0.19-0.02-0.39-0.01-0.58c0.05-0.6-0.24-1.34,0.88-1.36C146.42,211.49,146.35,212.14,146.31,212.71z"/>
		<path class="st4" d="M68.26,216.12c0,1.21-0.04,2.42,0.01,3.62c0.05,1.2-0.8,0.86-1.44,0.94c-0.71,0.09-0.93-0.18-0.92-0.91
			c0.05-2.45,0.05-4.91,0-7.36c-0.02-0.76,0.26-0.97,0.94-0.88c0.59,0.08,1.43-0.31,1.41,0.84
			C68.24,213.62,68.26,214.87,68.26,216.12z"/>
		<path class="st6" d="M185.63,217.56c0-0.67,0.03-1.34-0.01-2.01c-0.04-0.73-0.02-1.24,0.99-1.23c0.94,0,1.1,0.38,1.07,1.19
			c-0.05,1.4-0.04,2.79-0.01,4.19c0.02,0.78-0.34,0.97-1.06,0.99c-0.78,0.03-1.04-0.28-1.02-1c0.02-0.71,0.01-1.42,0.01-2.12
			C185.61,217.56,185.62,217.56,185.63,217.56z"/>
		<path class="st6" d="M121.14,217.42c0-0.63,0.03-1.27-0.01-1.9c-0.05-0.76,0.06-1.2,1.03-1.2c0.98,0,1.05,0.46,1.03,1.22
			c-0.04,1.36-0.04,2.72,0,4.07c0.03,0.82-0.29,1.07-1.09,1.08c-0.81,0.01-1.01-0.34-0.99-1.04c0.02-0.74,0-1.49,0-2.24
			C121.13,217.42,121.13,217.42,121.14,217.42z"/>
		<path class="st7" d="M203.11,215.73c0.22,0.84-0.24,0.99-1.08,1c-0.86,0.01-1.06-0.29-1.02-1.08c0.04-0.82,0.1-1.39,1.19-1.36
			C203.31,214.31,203.11,214.99,203.11,215.73z"/>
		<path class="st7" d="M77.42,215.65c0.17,0.76-0.08,1.12-1.02,1.08c-0.77-0.03-1.15-0.15-1.07-1.02c0.07-0.76-0.02-1.43,1.13-1.42
			C77.53,214.3,77.47,214.89,77.42,215.65z"/>
		<path class="st7" d="M178.73,215.75c0.22,0.85-0.27,0.96-1.09,0.98c-0.87,0.02-1.04-0.31-1.01-1.09c0.03-0.84,0.13-1.38,1.2-1.36
			C178.94,214.32,178.71,215.01,178.73,215.75z"/>
	</g>
</g>
</svg>
