<?xml version="1.0" encoding="utf-8"?>
<!-- Generator: Adobe Illustrator 25.1.0, SVG Export Plug-In . SVG Version: 6.00 Build 0)  -->
<svg version="1.1" id="레이어_1" xmlns="http://www.w3.org/2000/svg" xmlns:xlink="http://www.w3.org/1999/xlink" x="0px"
	 y="0px" viewBox="0 0 814.29 814.29" style="enable-background:new 0 0 814.29 814.29;" xml:space="preserve">
<style type="text/css">
	.st0{fill:#FCFCFC;}
	.st1{fill:#645FCD;}
	.st2{fill:#40356F;}
	.st3{fill:#827FD6;}
	.st4{fill:#A19EE0;}
	.st5{fill:#665E89;}
	.st6{fill:#766DA4;}
	.st7{fill:#010101;}
	.st8{fill:#020202;}
	.st9{fill:#8D88A0;}
	.st10{fill:#030203;}
	.st11{fill:#030304;}
	.st12{fill:#030303;}
	.st13{fill:#020203;}
	.st14{fill:#040405;}
	.st15{fill:#060608;}
	.st16{fill:#050506;}
	.st17{fill:#0D0C10;}
	.st18{fill:#121018;}
	.st19{fill:#FEFEFE;}
	.st20{fill:#FCFCFD;}
	.st21{fill:#FDFDFD;}
	.st22{fill:#FAFAFB;}
</style>
<g>
	<g>
		<path class="st0" d="M0.06,407.15C0.06,272.47,0.07,137.79,0,3.12C0,0.57,0.57,0,3.12,0c269.35,0.07,538.71,0.07,808.06,0
			c2.54,0,3.12,0.57,3.12,3.12c-0.07,269.35-0.07,538.71,0,808.06c0,2.54-0.57,3.12-3.12,3.12c-269.35-0.07-538.71-0.07-808.06,0
			c-2.54,0-3.12-0.57-3.12-3.12C0.07,676.5,0.06,541.82,0.06,407.15z"/>
		<path class="st1" d="M571.54,177.83c0,22.42,0,44.17,0,65.92c0,67.54,0.01,135.09-0.03,202.63c0,5.13,0.98,4.78-4.59,4.78
			c-14.36,0.01-28.71-0.06-43.07,0.06c-2.53,0.02-3.27-0.7-3.26-3.24c0.06-72.46,0.05-144.92,0.02-217.39
			c0-1.58,0.42-2.76,1.55-3.89c15.95-15.85,31.86-31.73,47.78-47.6C570.25,178.81,570.61,178.57,571.54,177.83z"/>
		<path class="st2" d="M243.74,177.86c4.19,4.38,8.3,8.84,12.57,13.13c11.72,11.77,23.47,23.5,35.29,35.18
			c1.49,1.47,2.07,2.94,2.07,5.03c-0.05,66.8-0.05,133.6-0.01,200.41c0,2.05-0.44,3.56-2,5.03c-4.43,4.19-8.71,8.56-12.96,12.93
			c-1.12,1.15-2.26,1.6-3.85,1.59c-9.71-0.06-19.42-0.11-29.13,0.03c-2.41,0.03-2.99-0.7-2.98-3.03c0.1-15.82,0.05-31.65,0.05-47.47
			c0-72.79,0-145.59,0-218.38c0-1.3,0-2.6,0-3.9C243.11,178.22,243.42,178.04,243.74,177.86z"/>
		<path class="st3" d="M502.23,258.84c0,1.39,0,2.63,0,3.86c0,61.39,0,122.77,0,184.16c0,4.29,0,4.29-4.43,4.29
			c-14.36,0-28.72-0.06-43.07,0.05c-2.59,0.02-3.46-0.56-3.46-3.34c0.09-45.56,0.07-91.12,0.04-136.68c0-1.79,0.37-3.16,1.72-4.49
			c15.57-15.44,31.07-30.95,46.6-46.43C500.23,259.67,500.68,258.77,502.23,258.84z"/>
		<path class="st4" d="M432.96,316.31c0,2.28,0,4.07,0,5.86c0,41.64-0.03,83.29,0.08,124.93c0.01,3.21-0.73,4.21-4.06,4.16
			c-14.35-0.19-28.7-0.15-43.05-0.02c-2.87,0.03-3.94-0.64-3.92-3.74c0.11-26.09,0.07-52.19,0.05-78.28c0-1.51,0.15-2.79,1.34-3.98
			c16.1-16.02,32.15-32.09,48.22-48.14C431.84,316.89,432.17,316.78,432.96,316.31z"/>
		<path class="st5" d="M312.12,405.87c0-52.78,0-104.96,0-157.17c1.32-0.33,1.75,0.84,2.39,1.47c15.4,15.25,30.74,30.54,46.16,45.77
			c1.67,1.64,2.32,3.35,2.31,5.67c-0.08,16.95-0.06,33.89-0.02,50.84c0,1.74-0.17,3.22-1.54,4.58
			c-15.87,15.76-31.68,31.58-47.51,47.38C313.52,404.8,313.06,405.11,312.12,405.87z"/>
		<path class="st6" d="M297.73,451.19c21.9-22.17,43.61-44.15,66-66.83c0,5.98,0,11.09,0,16.2c0.01,15.9,0.03,31.8,0.02,47.69
			c0,1.35,0.51,2.97-1.98,2.97C340.45,451.16,319.12,451.19,297.73,451.19z"/>
		<path class="st6" d="M360.46,177.75c31.26,0,62.12,0,92.98,0c0.22,0.27,0.45,0.54,0.67,0.81c-1.6,1.34-3.31,2.58-4.79,4.05
			c-13.31,13.19-26.58,26.42-39.86,39.63c-1.15,1.14-1.99,2.73-4,0.71c-14.72-14.79-29.54-29.48-44.33-44.21
			C360.98,178.59,360.89,178.39,360.46,177.75z"/>
		<path class="st7" d="M415.37,539.63c0-6.26-0.01-12.52,0-18.78c0.01-3.95,1.35-5.22,5.34-5.15c3.79,0.07,4.85,1.18,4.85,5.17
			c0.01,12.21-0.03,24.42,0.03,36.64c0.01,2.51,0.06,4.91-3.09,5.45c-3,0.51-5.93,0.49-7.7-2.68c-3.47-6.19-6.94-12.39-10.41-18.58
			c-0.47-0.83-0.96-1.65-1.95-3.37c0,7.41,0.01,13.8-0.01,20.19c-0.01,3.43-1.39,4.68-5.05,4.67c-3.66-0.01-5.07-1.28-5.08-4.73
			c-0.02-12.21,0-24.42-0.02-36.64c-0.01-2.51-0.38-5.03,3.02-5.88c3.5-0.88,6.66-0.14,8.33,2.76c2.69,4.68,5.1,9.52,7.63,14.3
			c1.18,2.24,2.36,4.48,3.54,6.73C415,539.7,415.19,539.66,415.37,539.63z"/>
		<path class="st7" d="M378.75,539.43c0,3.25,0.09,6.5-0.02,9.75c-0.27,8.18-4.93,13.22-13.19,13.85c-4.83,0.36-9.71,0.2-14.56,0.14
			c-2.64-0.03-4.16-1.35-4.15-4.21c0.04-12.99,0.04-25.97-0.01-38.96c-0.01-2.49,1.17-4.16,3.44-4.17
			c5.96-0.03,11.99-0.85,17.88,0.55c6.84,1.62,10.35,6.01,10.56,12.98c0.1,3.36,0.02,6.73,0.02,10.09
			C378.73,539.43,378.74,539.43,378.75,539.43z"/>
		<path class="st7" d="M448.28,542.73c0-5.31-0.06-10.61,0.03-15.92c0.03-1.71-0.37-2.47-2.23-2.33c-2.02,0.15-4.06,0-6.09,0.04
			c-3.15,0.07-3.71-2.05-3.74-4.47c-0.03-2.5,0.7-4.4,3.82-4.38c8.81,0.07,17.61,0.07,26.42,0c3.14-0.03,3.83,1.88,3.83,4.37
			c0,2.45-0.55,4.52-3.72,4.49c-2.7-0.03-6.86-0.87-7.75,0.43c-1.35,1.99-0.47,5.52-0.48,8.4c-0.01,8.33,0.02,16.65,0,24.98
			c-0.01,3.57-1.52,4.91-5.26,4.84c-3.58-0.07-4.81-1.29-4.82-4.88C448.27,553.12,448.28,547.93,448.28,542.73z"/>
		<path class="st8" d="M423.63,622.24c1.03-1.95,1.15-3.7,1.2-5.47c0.03-1.18,0.17-2.56,1.61-2.49c1.75,0.08,1.49,1.68,1.43,2.89
			c-0.05,1.01-0.05,2.11-0.45,2.99c-1.44,3.19-1.46,5.95,1.67,8.2c0.67,0.48,0.79,1.37,0.09,2.08c-0.86,0.87-1.61,0.48-2.29-0.27
			c-0.3-0.33-0.6-0.68-0.85-1.05c-1.1-1.66-2.05-2.26-3.78-0.4c-2.04,2.19-4.92,2.66-7.83,2.24c-3.76-0.54-6.49-2.55-7.61-6.27
			c-1.07-3.56-0.28-6.85,2.63-9.15c1.92-1.51,1.99-2.36,0.57-4.36c-2.45-3.46-1.77-7.39,1.13-9.71c2.82-2.25,8.07-2.22,10.7,0.17
			c0.85,0.77,2.24,1.67,1.09,3.07c-1.23,1.51-2.11,0.18-3-0.65c-2-1.87-4.32-2.21-6.4-0.5c-2.15,1.76-2.04,4.28-0.62,6.44
			C415.9,614.51,419.89,618.14,423.63,622.24z"/>
		<path class="st8" d="M202.33,616.19c0-3.95,0.07-7.9-0.03-11.85c-0.06-2.24,0.6-3.38,3.08-3.19c2.24,0.18,4.52-0.07,6.77,0.08
			c4.94,0.34,7.6,3.05,7.73,8.02c0.13,4.62,0.13,9.26-0.01,13.88c-0.13,4.42-2.31,7.1-6.57,7.68c-3,0.41-6.08,0.21-9.12,0.2
			c-1.75,0-1.84-1.35-1.84-2.63C202.32,624.32,202.33,620.26,202.33,616.19z"/>
		<path class="st9" d="M381.27,307.49c5.4,5.42,10.12,10.16,14.86,14.89c0.7,0.7,0.74,1.24,0.03,1.96
			c-4.68,4.79-9.33,9.61-13.99,14.42c-0.3-0.18-0.61-0.36-0.91-0.54c0-0.96,0-1.92,0-2.88
			C381.27,326.39,381.27,317.44,381.27,307.49z"/>
		<path class="st10" d="M587.95,614.08c4.93-3.97,7.29-3.68,10.89,1.35c2.12-2.84,4.51-5.11,8.45-3.6c3.2,1.23,4.67,3.9,4.67,8.52
			c0,2.82-0.02,5.65,0.01,8.47c0.02,1.33-0.38,2.24-1.88,2.16c-1.39-0.07-1.49-1.1-1.49-2.19c0.01-2.94,0.02-5.87-0.01-8.81
			c-0.03-2.82-1.19-4.87-4.2-5.18c-2.53-0.26-4.39,1.96-4.48,5.23c-0.08,2.93-0.04,5.87-0.01,8.81c0.01,1.13-0.16,2.07-1.53,2.15
			c-1.53,0.08-1.86-0.86-1.85-2.18c0.03-3.05,0.04-6.1,0-9.15c-0.03-2.71-1.17-4.75-4.09-4.81c-2.85-0.07-4.27,1.78-4.37,4.54
			c-0.11,3.02-0.11,6.04-0.11,9.06c0,1.34-0.05,2.64-1.83,2.55c-1.62-0.08-1.47-1.42-1.47-2.54c-0.01-4.74-0.02-9.49,0.01-14.23
			c0.01-1.07-0.28-2.48,1.24-2.77C587.97,611.05,587.47,613.03,587.95,614.08z"/>
		<path class="st11" d="M476.09,614.39c2.47-2.7,4.88-3.92,7.83-2.44c3.26,1.63,4.67,4.39,4.65,7.98c-0.02,2.71,0,5.42-0.01,8.13
			c-0.01,1.34,0.22,2.98-1.82,2.92c-1.79-0.05-1.58-1.54-1.57-2.78c0.01-2.71,0.06-5.42-0.02-8.13c-0.09-3.05-2.11-5.3-4.58-5.29
			c-2.64,0.02-4.37,1.99-4.46,5.27c-0.08,2.82-0.02,5.64-0.02,8.47c0,1.2-0.18,2.39-1.66,2.48c-1.63,0.11-1.71-1.18-1.71-2.33
			c-0.02-9.03-0.02-18.06,0-27.09c0-1.13,0.02-2.45,1.67-2.38c1.5,0.06,1.7,1.23,1.7,2.44
			C476.09,605.66,476.09,609.69,476.09,614.39z"/>
		<path class="st12" d="M362.42,621.38c-0.01,5.05-1.78,7.95-5.64,9.27c-3.11,1.06-6.45-0.02-8.69-2.83
			c-2.42-3.03-2.44-10.36-0.03-13.38c2.11-2.65,5.68-3.74,8.8-2.69c3.45,1.16,5.48,3.92,5.56,7.6
			C362.43,620.03,362.42,620.71,362.42,621.38z"/>
		<path class="st12" d="M535.4,620.97c1.13,7.45-5.98,11.68-11,9.47c-5.46-2.42-6.14-8.89-4.21-14.34c1.45-4.1,6.46-5.87,10.42-4.05
			C534.5,613.84,535.91,617.03,535.4,620.97z"/>
		<path class="st12" d="M454.72,617.61c0-3.61-0.1-7.22,0.04-10.83c0.07-1.79-0.49-2.44-2.26-2.22c-1,0.12-2.03,0-3.04,0.03
			c-1.19,0.02-2.32,0.03-2.37-1.62c-0.05-1.59,0.93-1.8,2.21-1.79c4.85,0.03,9.7,0.03,14.55,0c1.19-0.01,2.11,0.36,2.1,1.6
			c-0.01,1.33-0.87,1.76-2.25,1.85c-5.56,0.34-5.55,0.4-5.55,5.98c0,5.87,0.01,11.73,0,17.6c0,1.22,0.25,2.71-1.59,2.78
			c-2.07,0.07-1.82-1.53-1.82-2.88C454.72,624.6,454.72,621.11,454.72,617.61z"/>
		<path class="st13" d="M560.77,621.22c-0.09-7.4,5.25-11.7,11.42-9.18c2.23,0.91,3.74,2.57,4.39,4.85
			c0.84,2.92-0.42,4.55-3.49,4.64c-2.37,0.07-4.75,0.08-7.12-0.01c-1.5-0.06-1.92,0.37-1.72,1.93c0.51,3.98,4.46,6,8.45,4.24
			c1.06-0.47,2.43-2.22,3.27-0.07c0.68,1.71-1.15,2.23-2.32,2.73C566.96,633.22,560.87,628.88,560.77,621.22z"/>
		<path class="st13" d="M228.33,621.31c-0.13-7.45,5.11-11.75,11.32-9.29c1.99,0.79,3.41,2.18,4.2,4.16
			c1.34,3.33,0.08,5.28-3.47,5.36c-2.03,0.05-4.09,0.19-6.1-0.03c-2.94-0.33-2.84,1.23-2.24,3.19c0.99,3.24,4.85,4.53,8.41,2.89
			c1-0.46,2.19-1.92,3.05-0.04c0.74,1.61-0.91,2.18-1.91,2.68C235.08,633.52,228.46,629.05,228.33,621.31z"/>
		<path class="st13" d="M496.34,621.37c-0.13-7.49,5-11.77,11.25-9.38c2.13,0.82,3.6,2.32,4.37,4.43c1.17,3.19-0.11,5.03-3.51,5.11
			c-2.15,0.05-4.31,0.19-6.44-0.04c-2.55-0.27-2.5,1.03-2.07,2.8c0.85,3.5,4.74,5.01,8.45,3.31c1-0.46,2.23-1.96,3.07-0.13
			c0.82,1.77-1,2.31-2.13,2.83C502.76,633.3,496.47,628.95,496.34,621.37z"/>
		<path class="st11" d="M374.28,614.17c2.35-2.33,4.62-3.66,7.57-2.32c3.17,1.45,4.78,3.98,4.86,7.45c0.06,3.04,0.04,6.09,0.06,9.14
			c0.01,1.3-0.03,2.63-1.85,2.55c-1.63-0.07-1.56-1.31-1.56-2.47c0-2.83,0.06-5.65-0.02-8.48c-0.08-3.06-2.05-5.35-4.58-5.24
			c-3.05,0.14-4.35,2.07-4.43,4.93c-0.08,3.02-0.14,6.05-0.1,9.07c0.02,1.37-0.37,2.26-1.84,2.19c-1.39-0.07-1.45-1.16-1.45-2.24
			c0-4.86-0.02-9.72,0.02-14.58c0.01-1.07-0.26-2.48,1.28-2.74C374.09,611.12,373.84,612.8,374.28,614.17z"/>
		<path class="st11" d="M284.6,614.27c2.52-2.54,5.03-3.89,8.14-2.22c3.06,1.64,4.46,4.29,4.44,7.75c-0.02,2.82,0.02,5.64,0.02,8.46
			c0,1.25,0.13,2.69-1.67,2.74c-1.84,0.06-1.74-1.35-1.74-2.63c0.01-2.6,0.03-5.2,0-7.8c-0.04-3.56-1.96-5.87-4.75-5.78
			c-2.74,0.09-4.29,2.1-4.36,5.78c-0.06,2.69-0.07,5.38-0.01,8.06c0.03,1.28-0.15,2.35-1.66,2.37c-1.62,0.03-1.63-1.21-1.63-2.39
			c0.01-4.86-0.02-9.72,0.02-14.58c0.01-1.08-0.19-2.47,1.43-2.6C284.5,611.29,284.37,612.69,284.6,614.27z"/>
		<path class="st14" d="M252.2,617.33c0-3.61-0.14-7.22,0.04-10.82c0.23-4.53,3.89-7.77,7.96-7.38c0.98,0.1,1.87,0.22,1.82,1.45
			c-0.04,0.97-0.77,1.13-1.62,1.32c-4.01,0.89-6.15,4.9-4.8,8.65c0.33,0.92,0.93,0.79,1.56,0.8c1.01,0.03,2.03,0.02,3.04,0.01
			c0.95-0.01,1.84,0.03,1.85,1.35c0.01,1.31-0.86,1.3-1.82,1.39c-4.64,0.45-4.64,0.47-4.64,5.18c0,3.04,0.02,6.09-0.01,9.13
			c-0.01,1.26-0.02,2.66-1.83,2.59c-1.63-0.06-1.52-1.41-1.53-2.51C252.18,624.77,252.2,621.05,252.2,617.33z"/>
		<path class="st15" d="M317.84,615.1c0-3.27,0-6.55,0-9.82c0-1.29,0.06-2.69,1.79-2.68c1.86,0.01,1.52,1.6,1.6,2.77
			c0.06,0.79,0.12,1.6-0.01,2.37c-0.5,2.93,0.55,4.17,3.6,3.66c1.04-0.17,2.53-0.33,2.45,1.41c-0.08,1.74-1.61,1.38-2.6,1.24
			c-2.84-0.41-3.81,0.63-3.48,3.48c0.26,2.23,0.09,4.51,0.04,6.77c-0.05,2.5,0.67,4.23,3.62,4.05c1-0.06,2.26-0.17,2.28,1.28
			c0.03,1.73-1.42,1.39-2.49,1.42c-4.52,0.11-6.59-1.86-6.8-6.46c-0.01-0.23,0-0.45,0-0.68
			C317.84,620.97,317.84,618.04,317.84,615.1z"/>
		<path class="st16" d="M547.25,614.4c1.83-1.86,3.42-3.21,5.83-3.07c1.28,0.08,1.91,0.6,1.94,1.8c0.04,1.11-0.66,1.45-1.7,1.65
			c-4.93,0.94-6.03,2.25-6.09,7.15c-0.03,2.24,0.03,4.48,0.06,6.72c0.02,1.26-0.27,2.35-1.77,2.35c-1.61,0-1.61-1.25-1.61-2.43
			c0.01-4.75-0.02-9.5,0.02-14.24c0.01-1.16-0.37-2.76,1.45-2.91C547.32,611.28,546.83,613.02,547.25,614.4z"/>
		<path class="st17" d="M272.55,621.68c0,2.34-0.01,4.67,0,7.01c0.01,1.25-0.29,2.33-1.77,2.34c-1.58,0.01-1.65-1.18-1.65-2.37
			c0.01-4.94,0.01-9.89,0-14.83c0-1.18,0.01-2.41,1.59-2.42c1.77-0.02,1.78,1.31,1.77,2.61c-0.02,2.56-0.01,5.12-0.01,7.67
			C272.51,621.68,272.53,621.68,272.55,621.68z"/>
		<path class="st17" d="M309.18,621.56c0,2.33-0.02,4.67,0.01,7c0.01,1.22-0.16,2.34-1.65,2.45c-1.58,0.11-1.76-1.02-1.76-2.25
			c0.01-5.06,0.01-10.11,0-15.17c0-1.08,0.11-2.13,1.48-2.2c1.45-0.07,1.9,0.79,1.87,2.16c-0.06,2.67-0.02,5.34-0.02,8.01
			C309.13,621.56,309.15,621.56,309.18,621.56z"/>
		<path class="st17" d="M338.35,621.56c0,2.33-0.02,4.67,0.01,7c0.01,1.22-0.16,2.34-1.65,2.45c-1.58,0.11-1.76-1.02-1.76-2.25
			c0.01-5.06,0.01-10.11,0-15.17c0-1.08,0.11-2.13,1.48-2.2c1.45-0.07,1.9,0.79,1.87,2.16c-0.06,2.67-0.02,5.34-0.02,8.01
			C338.3,621.56,338.33,621.56,338.35,621.56z"/>
		<path class="st18" d="M309.48,603.97c-0.23,1.15-0.85,1.94-2.01,1.95c-1.32,0.01-2.09-0.81-2.09-2.13
			c-0.01-1.22,0.84-1.86,1.94-1.9C308.66,601.84,309.32,602.71,309.48,603.97z"/>
		<path class="st18" d="M272.85,603.97c-0.23,1.15-0.85,1.94-2.01,1.95c-1.32,0.01-2.09-0.81-2.09-2.13
			c-0.01-1.22,0.84-1.86,1.95-1.9C272.02,601.84,272.68,602.71,272.85,603.97z"/>
		<path class="st18" d="M338.66,604c-0.24,1.13-0.87,1.93-2.03,1.92c-1.32-0.01-2.08-0.83-2.07-2.16c0.01-1.22,0.87-1.85,1.97-1.87
			C337.86,601.86,338.52,602.73,338.66,604z"/>
		<path class="st19" d="M356.99,539.47c0-4.29,0.07-8.58-0.03-12.87c-0.04-1.6,0.4-2.26,2.06-2.1c1.34,0.13,2.71-0.04,4.06,0.04
			c3.41,0.2,5.34,1.89,5.42,5.24c0.15,6.43,0.15,12.87,0,19.3c-0.08,3.49-2.06,5.12-5.72,5.3c-5.79,0.28-5.79,0.28-5.79-5.42
			C356.99,545.79,356.99,542.63,356.99,539.47z"/>
		<path class="st20" d="M416.78,627.69c-3.44-0.11-5.74-1.36-6.66-4.28c-0.77-2.47,0.01-4.62,2.06-6.34c1.07-0.9,1.77-1.05,2.76,0.1
			c1.62,1.88,3.37,3.64,5.08,5.45c2.24,2.37,2.03,3.4-1.05,4.62C418.16,627.55,417.24,627.59,416.78,627.69z"/>
		<path class="st21" d="M205.84,616.18c0-2.8,0.24-5.63-0.07-8.4c-0.32-2.9,0.9-3.31,3.39-3.25c6.08,0.15,7.32,1.26,7.35,7.33
			c0.01,3.38,0.04,6.76-0.03,10.14c-0.08,3.92-1.67,5.5-5.56,5.65c-5.13,0.2-5.13,0.2-5.12-4.75c0-2.24,0-4.48,0-6.72
			C205.82,616.18,205.83,616.18,205.84,616.18z"/>
		<path class="st0" d="M359.04,621.28c0.27,2.22-0.08,4.41-2.38,5.7c-2.32,1.3-4.38,0.75-5.94-1.34c-1.81-2.42-1.39-8.12,0.75-9.76
			c2.05-1.57,4.16-1.53,6.14,0.24C359.15,617.48,359.12,619.29,359.04,621.28z"/>
		<path class="st0" d="M532.03,621.11c0.28,2.44-0.09,4.73-2.6,6c-2.24,1.13-4.18,0.53-5.67-1.41c-1.7-2.22-1.5-7.81,0.41-9.55
			c1.76-1.61,3.79-1.92,5.87-0.51C531.99,616.95,532.23,618.92,532.03,621.11z"/>
		<path class="st22" d="M568.49,619.71c-1.31-1-4.02,1.33-4.15-1.62c-0.12-2.64,1.98-4,4.53-3.96c2.32,0.03,4.55,1.14,4.4,3.68
			C573.07,621.3,569.98,618.57,568.49,619.71z"/>
		<path class="st22" d="M236.1,619.72c-1.34-1.03-4.05,1.36-4.22-1.58c-0.16-2.62,1.92-4.02,4.48-4.01
			c2.33,0.01,4.54,1.09,4.46,3.62C240.7,621.36,237.55,618.53,236.1,619.72z"/>
		<path class="st22" d="M503.96,619.51c-0.34,0-0.7,0.08-1.01-0.01c-1.08-0.31-2.84,0.84-3.16-0.81c-0.3-1.54,0.52-3.05,2.1-3.91
			c1.49-0.81,2.95-0.89,4.52-0.19c1.62,0.72,2.65,1.91,2.47,3.63c-0.23,2.11-2.08,1.03-3.24,1.28
			C505.11,619.6,504.53,619.51,503.96,619.51z"/>
	</g>
</g>
</svg>
