<?xml version="1.0" encoding="utf-8"?>
<!-- Generator: Adobe Illustrator 25.1.0, SVG Export Plug-In . SVG Version: 6.00 Build 0)  -->
<svg version="1.1" id="레이어_1" xmlns="http://www.w3.org/2000/svg" xmlns:xlink="http://www.w3.org/1999/xlink" x="0px"
	 y="0px" viewBox="0 0 651.96 651.96" style="enable-background:new 0 0 651.96 651.96;" xml:space="preserve">
<style type="text/css">
	.st0{fill:#303740;}
	.st1{fill:#F2F2F2;}
	.st2{fill:#F1F1F1;}
	.st3{fill:#303841;}
	.st4{fill:#303840;}
	.st5{fill:#A3A6AA;}
	.st6{fill:#A1A4A8;}
	.st7{fill:#95999D;}
	.st8{fill:#8E9296;}
	.st9{fill:#94989C;}
	.st10{fill:#313942;}
	.st11{fill:#333A43;}
</style>
<g>
	<g>
		<path class="st0" d="M325.98,651.9c-107.83,0-215.65-0.01-323.48,0.05c-2.04,0-2.5-0.46-2.49-2.5C0.05,433.8,0.05,218.15,0,2.49
			C0,0.46,0.46,0,2.49,0C218.15,0.05,433.8,0.05,649.46,0c2.04,0,2.5,0.46,2.5,2.49c-0.05,215.65-0.05,431.31,0,646.96
			c0,2.04-0.46,2.5-2.5,2.5C541.63,651.9,433.8,651.9,325.98,651.9z"/>
		<path class="st1" d="M325.84,472.64c-80.84,0-161.67-0.01-242.51,0.06c-2.54,0-3.31-0.58-3.45-3.2
			c-0.95-17.59-12.14-29.57-29.82-32.19c-5.19-0.77-5.19-0.77-5.19-5.97c0-70.88,0.02-141.76-0.06-212.64
			c0-2.67,0.46-3.49,3.39-3.67c16.48-1,28.2-11.9,31.08-28.49c0.17-0.98,0.37-1.96,0.51-2.94c0.62-4.29,0.61-4.29,4.83-4.29
			c161.22,0,322.44,0.01,483.67-0.06c2.75,0,3.59,0.63,3.71,3.46c0.79,18.08,12.35,28.71,28.84,31.86c0.53,0.1,1.09,0.1,1.6,0.28
			c1.46,0.51,3.67-0.46,4.33,0.74c0.73,1.33,0.29,3.34,0.29,5.05c0.01,70.97-0.01,141.94,0.06,212.91c0,2.5-0.49,3.26-3.15,3.41
			c-19.07,1.07-29.1,13.5-31.9,31.06c-0.73,4.6-0.58,4.62-5.09,4.62C486.61,472.64,406.23,472.64,325.84,472.64z"/>
		<path class="st1" d="M302.73,158.2c-2.31-3.64-3.64-7.09-2.31-11.04c1.15-3.44,3.73-5.35,7.1-5.97c3.17-0.58,6.13,0.24,8.32,2.84
			c0.49,0.58,1.79,1.32,0.47,2.12c-0.92,0.56-1.83,1.85-3.28,0.83c-3.65-2.57-6.8-2.26-8.46,0.79c-1.6,2.94,0.09,7.25,3.48,8.8
			c2.24,1.02,4.58,1.64,7.07,1.63c6.7-0.02,13.4,0,20.1-0.01c2.96,0,5.73-0.78,8.26-2.28c2.29-1.37,2.81-3.68,2.74-6.11
			c-0.05-2.09-1.2-3.5-3.18-4.3c-1.99-0.81-3.87-0.53-5.23,0.98c-1.65,1.81-2.97,0.43-3.89-0.41c-1.34-1.23,0.38-2.04,1.1-2.7
			c3.01-2.73,7.58-3.05,11.1-0.93c3.25,1.96,4.86,5.91,4.02,9.89c-0.41,1.96-1.19,3.77-2.74,5.87c1.42,0,2.43,0,3.44,0
			c53.57-0.02,107.14-0.05,160.71-0.06c5.97,0,11.94,0.11,17.91,0.18c1.35,0.01,2.66-0.21,2.63,1.98c-0.03,2.05-0.91,2.22-2.62,2.21
			c-87.17-0.06-174.35-0.06-261.53-0.11c-42.35-0.02-84.69-0.14-127.04-0.19c-6.51-0.01-13.02,0.22-19.53,0.21
			c-1.21,0-3.15,1.11-3.23-1.75c-0.08-2.68,1.54-2.35,3.15-2.35c23.16-0.05,46.33-0.13,69.49-0.14
			c36.64-0.02,73.28,0.02,109.92,0.03C301.23,158.2,301.78,158.2,302.73,158.2z"/>
		<path class="st1" d="M302.74,493.16c-8.24,0-16.09,0-23.93,0c-52.47-0.02-104.95,0.37-157.42-0.1c-1.08-0.01-2.66,0.69-3.15-1.13
			c-0.61-2.27,0.02-3.03,2.48-2.99c32.65,0.57,65.3,0.13,97.95,0.15c67.45,0.05,134.89-0.07,202.34-0.07
			c29.72,0,59.45,0.15,89.17,0.18c6.42,0.01,12.84-0.17,19.26-0.27c1.35-0.02,2.67-0.33,2.67,1.89c0,2.1-1.03,2.29-2.68,2.29
			c-23.06,0.01-46.12,0.11-69.18,0.09c-36.89-0.03-73.79-0.13-110.68-0.2c-0.53,0-1.06,0-1.98,0c1.17,2.29,2.3,4.29,2.67,6.58
			c0.68,4.17-1.41,8.13-5.33,10.02c-3.34,1.62-8.06,0.7-10.45-2.11c-0.5-0.59-1.72-1.41-0.63-2.16c0.96-0.66,1.92-2.26,3.6-0.81
			c2.78,2.41,5.85,2.21,7.81-0.33c1.89-2.44,0.97-7.07-1.87-8.87c-2.59-1.64-5.58-2.22-8.56-2.21c-8.04,0.03-16.11-0.87-24.1,0.69
			c-4.14,0.81-6.33,2.98-6.68,6.41c-0.23,2.24,0.45,4.11,2.49,5.3c2.04,1.19,4.19,1.09,5.71-0.58c1.33-1.46,2.19-0.74,3.4-0.18
			c1.47,0.69,1.26,1.4,0.38,2.46c-2.59,3.1-7.17,4.11-10.85,2.32c-4.1-2-6.12-6.36-5.02-10.9
			C300.63,496.78,301.49,495.1,302.74,493.16z"/>
		<path class="st2" d="M325.7,152.41c-0.81-4.46-1.4-8.29-3.71-11.57c-0.54-0.77-0.59-1.75,0.09-2.52c1.7-1.9,2.68-4.19,3.64-6.81
			c1.05,2.61,2.07,4.91,3.69,6.88c0.58,0.7,0.68,1.66,0.23,2.28C327.25,144,326.54,147.88,325.7,152.41z"/>
		<path class="st2" d="M325.72,499.02c0.89,4.57,1.34,8.35,3.78,11.48c0.55,0.7,0.61,1.72-0.09,2.5c-1.65,1.82-2.53,4.09-3.66,6.65
			c-1.1-2.63-2.17-4.87-3.75-6.82c-0.54-0.67-0.53-1.55-0.01-2.28C324.3,507.29,324.88,503.45,325.72,499.02z"/>
		<path class="st3" d="M325.98,464.5c-78.39,0-156.78-0.01-235.17,0.04c-2.19,0-3.13-0.36-3.65-2.82
			c-3.54-16.96-14.39-27-30.78-31.34c-2.74-0.72-3.45-1.73-3.44-4.48c0.09-66.35,0.09-132.7,0-199.05c0-2.99,0.58-4.15,3.77-4.91
			c16.94-4.02,26.21-15.61,30.14-31.96c0.54-2.24,1.42-2.56,3.41-2.56c156.96,0.04,313.92,0.04,470.89-0.01
			c2.26,0,3.12,0.49,3.63,2.91c3.57,17.1,14.57,27.06,31.09,31.31c2.55,0.66,3.16,1.66,3.15,4.17c-0.07,66.62-0.07,133.25,0,199.87
			c0,2.58-0.52,3.53-3.26,4.17c-17.15,3.99-26.69,15.54-30.65,32.15c-0.54,2.28-1.43,2.55-3.4,2.55
			C483.12,464.49,404.55,464.5,325.98,464.5z"/>
		<path class="st1" d="M325.91,199.69c74.86,0,149.72,0.01,224.58-0.06c2.71,0,3.58,0.57,3.72,3.48
			c0.61,12.96,9.29,22.69,22.85,26.1c2.46,0.62,4.94,1.09,7.46,1.21c1.67,0.08,2.28,0.67,2.24,2.46
			c-0.13,5.79-0.05,11.59-0.05,17.38c0,55.94-0.03,111.88,0.08,167.82c0.01,2.82-0.84,3.36-3.42,3.5
			c-16.43,0.85-27.58,11.5-29.24,27.92c-0.22,2.21-0.9,2.81-3.09,2.81c-150.08-0.05-300.17-0.05-450.25-0.04
			c-1.56,0-2.91,0.25-3.01-2.19c-0.67-15.75-10.82-24.87-25.21-27.86c-1.59-0.33-3.21-0.65-4.82-0.67
			c-2.13-0.03-2.56-0.96-2.56-2.96c0.05-59.65,0.04-119.31,0.04-178.96c0-2.26,0.13-4.54-0.04-6.79c-0.13-1.81,0.54-2.31,2.26-2.38
			c5.66-0.22,11.07-1.35,16.02-4.35c8.94-5.41,12.97-13.8,14.23-23.7c0.32-2.56,1.29-2.75,3.36-2.75
			C176.01,199.7,250.96,199.69,325.91,199.69z"/>
		<path class="st4" d="M325.95,448.2c-73.51,0-147.02-0.01-220.53,0.05c-2.53,0-3.66-0.32-4.12-3.27
			c-2.42-15.45-14.22-23.79-27.75-26.74c-0.79-0.17-1.6-0.4-2.4-0.41c-1.61-0.01-1.97-0.89-1.86-2.28c0.07-0.9,0.01-1.81,0.01-2.71
			c0-58.39,0.01-116.79-0.05-175.18c0-2.32,0.52-3.19,2.98-3.51c15.01-1.96,25.54-11.76,28.77-26.92c0.62-2.92,1.69-3.54,4.51-3.54
			c112.35,0.08,224.7,0.07,337.05,0.07c34.76,0,69.53,0.02,104.29-0.05c2.4-0.01,3.23,0.44,3.67,3.07
			c2.3,13.64,10.94,21.68,23.75,25.73c2.15,0.68,4.36,1.23,6.58,1.61c1.34,0.22,1.97,0.68,1.81,2.06c-0.05,0.45-0.01,0.9-0.01,1.36
			c0,58.94-0.01,117.87,0.05,176.81c0,2.37-0.61,3.16-3.02,3.48c-15.58,2.06-25.62,11.74-29.12,28.18c-0.45,2.13-1.31,2.25-3,2.24
			c-33.32-0.03-66.63-0.02-99.95-0.02C407.07,448.2,366.51,448.2,325.95,448.2z"/>
		<path class="st1" d="M270.38,330.49c-3.13,0-6.27,0.03-9.4-0.02c-0.69-0.01-1.8,0.43-1.77-0.96c0.02-0.99,0.63-1.44,1.59-1.45
			c2.63-0.04,3.4-1.73,3.83-4c1.9-10.01,3.91-20,5.86-30c0.35-1.78,0.19-3.28-2.21-3.32c-0.66-0.01-1.59,0.07-1.37-1.11
			c0.15-0.81,0.59-1.27,1.49-1.22c7.03,0.39,14.12-0.69,21.1,0.27c10.47,1.44,16.05,10,14.01,20.81
			c-2.37,12.52-10.58,19.87-23.44,20.79c-3.21,0.23-6.46,0.03-9.69,0.03C270.38,330.37,270.38,330.43,270.38,330.49z"/>
		<path class="st1" d="M319.03,297.44c-1.67,9.14-3.2,17.67-4.82,26.18c-0.47,2.48,0.05,4.07,2.86,4.34c0.7,0.07,1.76,0.01,1.63,1.3
			c-0.13,1.33-1.07,1.23-1.99,1.15c-3.79-0.36-7.58-0.35-11.38-0.03c-0.57,0.05-1.59,0.56-1.62-0.72c-0.02-0.83,0.41-1.45,1.27-1.48
			c4.49-0.11,5.19-3.43,5.85-6.81c1.67-8.51,3.34-17.01,4.97-25.52c0.48-2.5,0.36-4.78-2.96-5.14c-0.83-0.09-1.02-0.56-0.99-1.29
			c0.05-0.99,0.66-1.19,1.48-1.1c3.61,0.37,7.23,0.33,10.84,0.07c1.25-0.09,1.45,0.68,1.81,1.54c3.49,8.25,8.44,15.73,12.71,23.56
			c0.11,0.2,0.41,0.3,0.76,0.54c1.33-6.83,2.81-13.51,3.69-20.31c0.3-2.29-0.86-2.83-2.72-3.05c-0.73-0.09-2.01,0.39-1.69-1.28
			c0.24-1.27,1.02-1.25,2-1.13c3.7,0.46,7.39,0.4,11.1,0.06c0.64-0.06,1.78-0.67,1.84,0.76c0.05,1.14-0.67,1.63-1.74,1.58
			c-3.19-0.16-4.34,1.73-4.99,4.52c-2.53,10.81-4.52,21.73-6.37,32.68c-0.17,1.01,0.15,2.36-1.28,2.68
			c-1.53,0.35-1.94-0.96-2.51-1.98c-5.59-9.9-11.19-19.79-16.79-29.68C319.84,298.57,319.62,298.31,319.03,297.44z"/>
		<path class="st1" d="M365.84,330.39c-2.17,0-4.34,0.03-6.5-0.02c-0.62-0.01-1.62,0.49-1.71-0.65c-0.06-0.81,0.24-1.62,1.37-1.6
			c2.75,0.05,3.65-1.7,4.1-4.07c2-10.37,4.05-20.74,6.15-31.09c0.29-1.41-0.15-1.58-1.43-1.74c-5.5-0.71-8.96,1.8-11.11,6.63
			c-0.37,0.84-0.58,2.17-2,1.55c-1.32-0.57-0.35-1.52-0.13-2.27c0.83-2.76,1.78-5.49,2.58-8.26c0.38-1.33,1.11-1.88,2.35-1.29
			c2.32,1.1,4.76,0.92,7.2,0.92c5.25,0.01,10.5-0.02,15.75,0.01c2.27,0.01,4.53-0.03,6.68-0.85c1.35-0.52,2.07-0.39,1.92,1.32
			c-0.25,2.97-0.42,5.95-0.58,8.93c-0.05,0.95-0.38,1.54-1.41,1.58c-1.18,0.04-0.9-0.87-1.01-1.52c-0.95-5.97-3.08-7.5-9.07-6.74
			c-1.12,0.14-1.28,0.7-1.44,1.55c-2.1,10.9-4.21,21.8-6.32,32.7c-0.36,1.87,0.77,2.4,2.27,2.61c0.71,0.1,1.48,0,1.35,1.15
			c-0.13,1.09-0.73,1.24-1.68,1.21c-2.44-0.06-4.87-0.02-7.31-0.02C365.84,330.41,365.84,330.4,365.84,330.39z"/>
		<path class="st5" d="M341.03,379.17c-2.27-2.47-1.87-4.73,1.09-6.43c2.11-1.22,4.38-2.15,6.47-3.4c3.55-2.14,5.53-5.34,5.68-9.72
			c2.39,2.52,2.34,6.94-0.01,9.67c-0.82,0.95-1.81,1.77-2.79,2.55c-0.68,0.54-1.11,1.08-1.07,2.02c0.28,6.36-6.46,10.93-11.42,11.38
			c-3.85,0.35-7.58,0.1-10.6-2.85c-1.57-1.54-2.19-3.45-2.65-5.5c-0.14-0.61,0.32-1.82-0.67-1.78c-1.32,0.05-2.69,0.51-3.6,1.61
			c-0.58,0.7-0.54,1.51,0.12,2.21c0.25,0.26,0.54,0.5,0.73,0.8c0.74,1.2,0.62,2.27-0.7,2.94c-1.39,0.7-2.22-0.04-2.73-1.29
			c-1.08-2.68,0.83-6.18,4.39-7.29c1.86-0.58,2.42-1.51,2.89-3.26c1.51-5.59,4.8-9.65,10.73-10.99c2.04-0.46,4.05-0.37,5.27,1.67
			c1.2,2,0.86,3.98-0.53,5.81c-2.48,3.28-6.07,4.81-9.82,5.84c-2.09,0.57-2.34,1.61-2.04,3.42c0.76,4.5,4.13,7.42,8.63,7.34
			c4.49-0.08,8.36-3.23,8.93-7.19c0.14-0.95,0.18-1.95-0.53-2.49c-0.68-0.51-1.49,0.21-2.22,0.52
			C342.63,375.58,341.22,376.82,341.03,379.17z"/>
		<path class="st5" d="M123.89,384.18c4.76-0.01,4.48-3.34,5.01-6.2c1.1-5.86,2.29-11.69,3.42-17.54c0.46-2.38,2.01-5.09-1.99-6.01
			c0.67-1.04,1.47-0.72,2.12-0.72c3.35-0.02,6.69,0,10.04,0.04c9.33,0.12,14.47,6.39,12.76,15.56c-1.82,9.73-8.53,15.57-18.43,15.88
			c-4.08,0.13-8.17,0.02-12.26,0.02C124.34,384.87,124.12,384.52,123.89,384.18z"/>
		<path class="st5" d="M193.99,383.58c-0.57,0.43-1.09,0.97-1.71,1.29c-2.11,1.08-3.36,0.36-3.34-2.01
			c0.03-3.29,1.26-6.37,1.81-9.57c0.15-0.89,0.42-1.76,0.53-2.65c0.26-2.02-0.46-2.95-2.7-2.92c-5.58,0.09-5.52,0.02-6.67,5.55
			c-0.95,4.59-1.37,9.31-2.88,13.77c-1.3,3.85-3.16,7.33-7.35,8.8c-1.62,0.57-3.19,0.48-4.68-0.46c-0.82-0.52-0.95-1.24-0.79-2.12
			c0.14-0.78,0.54-1.36,1.3-1.59c0.85-0.26,1.27,0.32,1.76,0.91c2.03,2.41,3.44,2.24,4.94-0.75c2.44-4.85,2.85-10.23,3.84-15.45
			c0.32-1.69,0.38-3.44,0.88-5.07c0.71-2.34,0.62-3.89-2.39-3.58c-0.03-0.89,0.42-1.5,1.03-1.53c2.71-0.13,2.86-2.22,3.33-4.1
			c0.83-3.36,2.61-6.13,5.21-8.38c3.07-2.65,7.32-2.5,9.7,0.2c1.19,1.35,0.85,2.61-0.18,3.57c-1.28,1.21-2.28,0.3-3.03-0.91
			c-0.43-0.69-0.82-1.43-1.37-2.02c-1.09-1.18-2.35-1.36-3.53-0.12c-2.69,2.83-3.54,6.42-4.13,10.12c-0.19,1.16,0.6,1.11,1.33,1.09
			c2.53-0.07,5.11,0.1,7.58-0.31c2.73-0.46,3.03,0.86,2.64,2.86c-0.79,3.98-1.74,7.93-2.54,11.92c-0.19,0.94-0.94,2.17,0.65,2.75
			C193.85,382.75,194.06,383.02,193.99,383.58z"/>
		<path class="st5" d="M493.2,369.14c1.32-1.98,2.82-3.48,4.87-4.35c1.83-0.77,2.89,0.02,2.91,1.86c0.02,1.69-0.33,3.39-0.54,5.27
			c1.43-0.65,1.73-2.07,2.57-3.02c1.01-1.15,1.98-2.35,3.09-3.39c0.96-0.89,2.2-1.37,3.51-0.86c1.25,0.49,1.61,1.69,1.69,2.88
			c0.1,1.34,0.02,2.7,0.02,4.49c1.42-1.69,2.61-3.18,3.88-4.59c0.66-0.73,1.45-1.35,2.21-1.99c1.12-0.96,2.45-1.36,3.77-0.69
			c1.41,0.72,1.53,2.25,1.34,3.58c-0.48,3.3-1.16,6.57-1.77,9.85c-0.08,0.44-0.26,0.87-0.31,1.31c-0.11,1.02-1.01,2.32,0.18,2.97
			c1.01,0.55,1.63-0.8,2.38-1.39c0.28-0.22,0.56-0.43,0.91-0.7c-0.33,2.18-3.65,5.1-5.51,4.94c-1.6-0.13-1.92-1.27-1.73-2.52
			c0.44-2.85,1.03-5.68,1.53-8.52c0.25-1.42,0.48-2.85,0.64-4.28c0.07-0.6,0.18-1.31-0.5-1.71c-0.75-0.46-1.44-0.12-1.99,0.36
			c-3.18,2.79-5.7,6.04-6.72,10.25c-0.38,1.58-0.75,3.17-0.91,4.78c-0.18,1.8-1.4,1.67-2.55,1.54c-1.48-0.17-0.9-1.33-0.75-2.1
			c0.7-3.73,1.52-7.43,2.19-11.16c0.22-1.25,1.09-2.97-0.47-3.69c-1.47-0.67-2.37,0.98-3.24,1.93c-3.05,3.35-5,7.25-5.67,11.77
			c-0.13,0.89-0.34,1.79-0.67,2.61c-0.46,1.14-1.47,0.74-2.34,0.62c-1.17-0.16-0.8-0.95-0.66-1.64c0.88-4.43,1.78-8.85,2.63-13.28
			c0.18-0.92,0.89-2.11-0.09-2.76c-1.14-0.76-1.62,0.71-2.38,1.22C494.38,368.98,494.15,369.44,493.2,369.14z"/>
		<path class="st5" d="M417.25,383.04c-0.1,0.15-0.18,0.33-0.31,0.44c-1.35,1.04-2.85,2.56-4.54,1.55
			c-1.45-0.87-0.82-2.82-0.57-4.28c0.55-3.2,1.32-6.36,1.86-9.56c0.17-0.99,0.65-2.4-0.55-2.95c-1.08-0.49-2.04,0.5-2.79,1.26
			c-3.12,3.12-5.58,6.62-6.22,11.13c-0.17,1.16-0.4,2.31-0.7,3.45c-0.37,1.39-1.51,1.4-2.62,1.22c-1.37-0.22-0.73-1.21-0.6-1.91
			c1.53-8.16,3.06-16.32,4.67-24.46c0.4-2.04,1.21-4.09-2.78-4.05c2.35-1.53,4.39-1.76,6.2-1.97c1.64-0.19,0.77,1.71,0.63,2.5
			c-0.84,4.8-1.88,9.56-2.83,14.33c-0.17,0.83-0.57,1.68-0.03,2.63c1.83-2.05,3.54-4.12,5.42-6.02c1.2-1.21,2.65-2.51,4.52-1.59
			c1.8,0.89,1.56,2.8,1.31,4.35c-0.59,3.74-1.5,7.42-2.11,11.16c-0.14,0.86-1.25,2.96,1.45,2.2
			C417.2,382.31,417.4,382.51,417.25,383.04z"/>
		<path class="st5" d="M387.22,384.95c-3.37,0-6.73,0-10.1,0c-0.2-0.21-0.39-0.41-0.59-0.62c5.27-0.34,4.51-4.34,5.17-7.36
			c1.36-6.26,2.49-12.57,3.8-18.84c0.41-1.96,0.01-2.61-2.18-2.73c-3.72-0.21-6.31,1-7.81,4.44c-0.31,0.71-0.53,1.56-1.89,1.73
			c0.42-2.86,1.62-5.35,2.45-7.93c0.17-0.52,0.68-0.31,1.15-0.26c7.32,0.8,14.65,0.77,21.98,0.01c0.57-0.06,1.18-0.28,1.13,0.55
			c-0.15,2.54-0.38,5.07-0.58,7.63c-1.39-0.22-1.1-1.02-1.22-1.55c-0.9-3.99-3.91-5.72-7.8-4.49c-0.96,0.3-1.11,1.02-1.28,1.86
			c-1.55,7.97-3.03,15.96-4.76,23.89C384.15,383.81,386.16,383.65,387.22,384.95z"/>
		<path class="st5" d="M207.57,372.17c2.01-2.19,3.63-4.12,5.42-5.86c1.37-1.34,3.03-2.59,5.06-1.43c1.84,1.05,1.32,2.87,1.17,4.6
			c-0.29,3.53-1.42,6.89-1.96,10.36c-0.14,0.94-0.84,2.14,0.29,2.67c0.89,0.42,1.52-0.72,2.18-1.29c0.33-0.29,0.69-0.55,1.14-0.9
			c-0.49,2.18-3.5,4.81-5.42,4.98c-1.73,0.15-1.92-0.98-1.97-2.23c-0.1-2.75,1-5.3,1.41-7.97c0.22-1.43,0.65-2.83,0.75-4.26
			c0.06-0.89,0.58-2.12-0.65-2.65c-0.95-0.41-1.77,0.29-2.43,0.86c-3.33,2.92-5.88,6.34-6.69,10.84c-0.25,1.42-0.56,2.83-0.88,4.24
			c-0.34,1.55-1.56,1.29-2.6,1.11c-1.31-0.23-0.71-1.2-0.56-1.93c0.87-4.42,1.76-8.85,2.61-13.27c0.16-0.85,0.76-1.94-0.11-2.51
			c-1.17-0.77-1.64,0.66-2.38,1.18c-0.35,0.25-0.6,0.68-1.76,0.47c1.76-2.1,3.24-4.01,5.8-4.59c1.76-0.4,2.25,0.92,2.21,2.28
			C208.16,368.47,207.84,370.06,207.57,372.17z"/>
		<path class="st5" d="M281.89,369.18c1.18-1.88,2.55-3.25,4.36-4.14c2.28-1.12,3.54-0.37,3.45,2.12c-0.05,1.51-0.4,3.01-0.7,5.12
			c1.74-1.95,3.07-3.55,4.51-5.04c0.81-0.84,1.73-1.59,2.71-2.22c1.13-0.74,2.41-0.82,3.57-0.01c1.2,0.84,1.28,2.19,1.08,3.42
			c-0.61,3.64-1.39,7.26-2.03,10.9c-0.18,1.02-1.01,2.41,0.01,3.03c1.27,0.78,1.87-0.93,2.78-1.52c0.22-0.14,0.46-0.24,0.72-0.38
			c-0.51,2.07-3.53,4.7-5.43,4.85c-1.74,0.14-1.89-1.01-1.95-2.25c-0.12-2.66,0.98-5.12,1.35-7.71c0.22-1.52,0.67-3,0.82-4.52
			c0.08-0.83,0.48-1.92-0.44-2.51c-1.05-0.67-1.95,0.14-2.66,0.76c-3.33,2.92-5.89,6.34-6.67,10.84c-0.22,1.24-0.52,2.47-0.71,3.72
			c-0.23,1.54-1.19,1.88-2.53,1.68c-1.73-0.27-0.89-1.41-0.73-2.28c0.84-4.34,1.71-8.67,2.54-13.01c0.16-0.84,0.77-1.93-0.12-2.5
			c-1.17-0.75-1.63,0.69-2.38,1.21C283.09,368.97,282.85,369.42,281.89,369.18z"/>
		<path class="st5" d="M278.8,372.51c-0.23,4.34-2.41,8.61-6.78,11.64c-4.11,2.85-8.46,1.04-9.39-3.82
			c-1.03-5.39,2.77-12.86,7.75-15.22C275.11,362.87,278.88,365.76,278.8,372.51z"/>
		<path class="st5" d="M455.93,371.87c-0.36,5.11-2.52,9.3-6.8,12.27c-4.2,2.91-8.81,1.01-9.42-4.04
			c-0.64-5.28,1.48-9.71,5.27-13.31c2.17-2.06,4.83-3.1,7.69-1.88C455.61,366.16,455.82,369.03,455.93,371.87z"/>
		<path class="st5" d="M170.82,379.84c-1.81,2.59-3.6,4.52-6.25,5.37c-2.51,0.8-4.65-0.34-5.73-2.79
			c-2.84-6.43,3.24-17.09,10.22-17.87c1.34-0.15,2.81-0.3,3.66,1.08c0.91,1.47,0.6,3.01-0.31,4.34c-2.05,2.97-5.1,4.49-8.42,5.58
			c-2.23,0.74-2.67,1.99-1.68,4.81c0.73,2.08,2.2,2.73,4.28,1.83c0.65-0.28,1.18-0.82,1.81-1.17
			C169.02,380.68,169.33,379.88,170.82,379.84z"/>
		<path class="st5" d="M434.75,379.88c-1.64,2.53-3.44,4.34-5.95,5.26c-2.47,0.91-4.72-0.14-5.85-2.52
			c-3.07-6.43,3.03-17.32,10.14-18.08c1.34-0.14,2.8-0.29,3.65,1.11c0.89,1.48,0.57,3.01-0.35,4.34c-2.06,2.96-5.12,4.47-8.43,5.57
			c-2.19,0.73-2.63,2.03-1.63,4.83c0.74,2.06,2.21,2.7,4.3,1.78c0.65-0.29,1.18-0.82,1.81-1.17
			C433.05,380.66,433.34,379.84,434.75,379.88z"/>
		<path class="st5" d="M487.95,379.78c-1.26,2.78-3.12,4.91-6.08,5.5c-2.36,0.48-4.2-0.45-5.24-2.81
			c-2.84-6.42,3.15-17.07,10.16-17.92c1.34-0.16,2.83-0.33,3.69,1.03c0.97,1.55,0.61,3.14-0.41,4.56c-2.05,2.85-5.02,4.32-8.24,5.39
			c-2.27,0.76-2.76,2.23-1.65,5.04c0.78,1.97,2.35,2.58,4.4,1.52C485.77,381.47,486.83,380.56,487.95,379.78z"/>
		<path class="st5" d="M466.17,371.42c1.59-2.08,2.8-4.19,4.53-5.93c1.28-1.3,2.69-1.43,4.07-0.18c0.87,0.79,0.77,1.8,0.2,2.71
			c-0.5,0.79-1.3,1.05-2.1,0.47c-1.77-1.28-2.79-0.25-3.77,1.1c-2.9,3.95-4.35,8.46-5.1,13.23c-0.13,0.8-0.11,1.68-0.8,2.21
			c-0.72,0.56-1.62,0.31-2.34,0.04c-0.84-0.32-0.27-1.1-0.18-1.64c0.74-4.35,1.52-8.7,2.3-13.05c0.19-1.03,0.83-2.35-0.28-2.94
			c-1.04-0.55-1.55,0.93-2.33,1.45c-0.28,0.18-0.57,0.35-1.02,0.33c0.96-2.27,2.64-3.89,4.94-4.62c1.74-0.55,2.5,0.77,2.48,2.3
			C466.71,368.41,466.38,369.92,466.17,371.42z"/>
		<path class="st5" d="M243.98,383.05c-1.43,1.21-2.97,3.09-4.87,1.97c-1.79-1.05-0.8-3.29-0.51-4.99c0.53-3.19,1.2-6.37,1.89-9.53
			c0.45-2.06,0.69-3.86-2.39-3.35c0.06-0.33,0.07-0.65,0.12-0.66c3.31-0.55,3.51-4.05,5.53-5.81c0.45-0.39,0.74-1.24,1.49-0.82
			c0.66,0.37,0.29,1.14,0.26,1.73c-0.03,0.53-0.19,1.06-0.32,1.59c-0.35,1.49-0.17,2.54,1.76,2.35c0.62-0.06,1.38-0.04,1.37,0.86
			c-0.01,0.88-0.77,0.96-1.39,0.86c-2.38-0.4-2.76,1-3.06,2.92c-0.53,3.47-1.41,6.88-2,10.34c-0.15,0.88-0.86,2.72,1.48,1.92
			C243.91,382.28,244.1,382.51,243.98,383.05z"/>
		<path class="st5" d="M250.07,369.33c1.06-2.45,2.9-3.82,5.07-4.67c1.73-0.68,3.04,0.66,2.66,2.78c-0.72,3.99-1.67,7.93-2.44,11.91
			c-0.19,1.01-0.98,2.36,0.06,3.03c1.17,0.75,1.75-0.82,2.59-1.38c0.26-0.17,0.54-0.31,0.99-0.24c-1.15,2.18-2.91,3.76-5.24,4.42
			c-2.18,0.62-2.46-1.14-2.24-2.62c0.43-2.94,1.11-5.84,1.71-8.75c0.29-1.41,0.65-2.81,0.91-4.23c0.14-0.75,0.52-1.72-0.33-2.18
			c-0.75-0.41-1.24,0.53-1.84,0.86C251.43,368.55,251.34,369.42,250.07,369.33z"/>
		<path class="st5" d="M224.4,369.18c1.47-2.26,3.12-4.13,5.66-4.56c2.06-0.35,2.54,1.26,2.19,3.01c-0.78,3.89-1.68,7.75-2.41,11.65
			c-0.2,1.06-1.12,2.54,0.19,3.2c1.07,0.54,1.73-0.99,2.57-1.59c0.2-0.14,0.45-0.21,1.38-0.61c-1.6,2.7-3.4,4.19-5.69,4.9
			c-2.14,0.67-2.55-1.01-2.33-2.52c0.44-3.03,1.14-6.02,1.76-9.02c0.31-1.5,0.7-2.99,0.96-4.5c0.1-0.57,0.33-1.35-0.33-1.72
			c-0.69-0.39-1.1,0.4-1.65,0.62C225.99,368.33,225.93,369.58,224.4,369.18z"/>
		<path class="st6" d="M233.03,356.37c-0.41,1.3-0.78,2.68-2.5,2.69c-1.3,0.01-1.67-1.08-1.63-2.04c0.06-1.44,0.8-2.63,2.42-2.67
			C232.53,354.32,232.89,355.31,233.03,356.37z"/>
		<path class="st6" d="M258.56,356.41c-0.43,1.3-0.81,2.68-2.54,2.65c-1.29-0.02-1.64-1.12-1.58-2.08c0.09-1.43,0.83-2.63,2.46-2.62
			C258.09,354.36,258.45,355.35,258.56,356.41z"/>
		<path class="st7" d="M193.99,383.58c-0.25-0.23-0.49-0.46-0.74-0.69c0.96-0.86,1.93-1.72,3.38-3.02
			C196.28,382.09,194.97,382.71,193.99,383.58z"/>
		<path class="st8" d="M243.98,383.05c-0.21-0.21-0.42-0.42-0.63-0.63c0.58-0.78,1.16-1.55,2.28-2.05
			C245.91,381.91,244.79,382.39,243.98,383.05z"/>
		<path class="st9" d="M417.25,383.04c-0.2-0.2-0.39-0.39-0.59-0.59c0.57-0.91,1.3-1.65,2.62-2.31
			C419.15,381.83,418.11,382.37,417.25,383.04z"/>
		<path class="st3" d="M294.53,305.75c-0.33,4.75-1.42,10.48-4.71,15.53c-3.35,5.15-8.41,6.82-14.29,6.44
			c-2.14-0.14-2.96-1.31-2.53-3.49c2.02-10.17,4.01-20.35,5.92-30.55c0.39-2.11,1.41-2.79,3.5-2.78
			C290.21,290.92,294.62,295.83,294.53,305.75z"/>
		<path class="st10" d="M329.53,371.88c0.03-3.38,1.12-6.19,3.18-8.55c1.24-1.42,3.13-2.54,4.77-1.18c1.66,1.39,1.22,3.5-0.1,5.14
			C335.41,369.76,332.78,371.18,329.53,371.88z"/>
		<path class="st3" d="M151.12,366.13c-0.09,8.16-3.88,14.36-10.32,16.88c-0.58,0.23-1.19,0.41-1.81,0.54
			c-6.58,1.46-7.53,0.52-6.2-5.97c1.3-6.36,2.54-12.72,3.77-19.09c0.6-3.13,1.2-3.65,4.28-3.48
			C147.92,355.41,151.2,358.95,151.12,366.13z"/>
		<path class="st3" d="M266.16,377.54c0.35-3.48,0.9-6.82,3.09-9.68c0.94-1.23,2.07-2.1,3.65-1.76c1.61,0.35,1.82,1.83,2.02,3.16
			c0.64,4.31-0.05,8.42-2.3,12.17c-0.84,1.39-1.98,2.75-3.89,2.37c-1.9-0.38-1.94-2.17-2.3-3.62
			C266.22,379.32,266.24,378.4,266.16,377.54z"/>
		<path class="st3" d="M443.25,377.56c0.35-3.48,0.9-6.83,3.08-9.69c0.94-1.23,2.06-2.11,3.65-1.77c1.62,0.34,1.83,1.82,2.03,3.15
			c0.64,4.31-0.04,8.42-2.29,12.17c-0.83,1.39-1.97,2.75-3.88,2.39c-1.9-0.36-1.95-2.16-2.31-3.6
			C443.31,379.33,443.33,378.41,443.25,377.56z"/>
		<path class="st11" d="M163.18,374.63c-1.04,0.02-0.97-0.47-0.83-1.08c0.54-2.42,1.45-4.63,3.35-6.32c1.06-0.94,2.31-1.3,3.4-0.28
			c0.96,0.89,0.77,2.1,0.09,3.2C167.73,372.5,165.46,373.69,163.18,374.63z"/>
		<path class="st11" d="M427.18,374.62c-0.82,0.07-1.02-0.25-0.85-0.96c0.56-2.51,1.49-4.81,3.5-6.53c0.99-0.85,2.18-1.12,3.2-0.24
			c1.02,0.88,0.87,2.08,0.21,3.18C431.82,372.42,429.56,373.66,427.18,374.62z"/>
		<path class="st11" d="M487.52,368.91c-0.01,1.66-4.48,5.7-6.67,5.72c-0.77,0.01-0.89-0.32-0.74-1c0.58-2.6,1.56-4.99,3.73-6.68
			c0.74-0.58,1.59-0.73,2.54-0.35C487.31,366.98,487.4,367.76,487.52,368.91z"/>
	</g>
</g>
</svg>
