<?xml version="1.0" encoding="utf-8"?>
<!-- Generator: Adobe Illustrator 25.1.0, SVG Export Plug-In . SVG Version: 6.00 Build 0)  -->
<svg version="1.1" id="레이어_1" xmlns="http://www.w3.org/2000/svg" xmlns:xlink="http://www.w3.org/1999/xlink" x="0px"
	 y="0px" viewBox="0 0 493.26 493.26" style="enable-background:new 0 0 493.26 493.26;" xml:space="preserve">
<style type="text/css">
	.st0{fill:#FDFDFD;}
	.st1{fill:#2A2A2A;}
	.st2{fill:#2B2B2B;}
	.st3{fill:#333333;}
	.st4{fill:#343434;}
	.st5{fill:#1C1C1C;}
	.st6{fill:#383838;}
	.st7{fill:#424242;}
	.st8{fill:#212121;}
	.st9{fill:#3C3C3C;}
	.st10{fill:#454545;}
	.st11{fill:#373737;}
	.st12{fill:#252525;}
	.st13{fill:#353535;}
	.st14{fill:#2E2E2E;}
	.st15{fill:#2F2F2F;}
	.st16{fill:#2D2D2D;}
	.st17{fill:#363636;}
	.st18{fill:#101010;}
	.st19{fill:#090909;}
	.st20{fill:#3F3F3F;}
	.st21{fill:#222222;}
	.st22{fill:#1F1F1F;}
	.st23{fill:#FEFEFE;}
	.st24{fill:#F5F5F5;}
	.st25{fill:#F1F1F1;}
	.st26{fill:#FCFCFC;}
	.st27{fill:#FAFAFA;}
	.st28{fill:#E1E1E1;}
	.st29{fill:#F3F3F3;}
</style>
<g>
	<g>
		<path class="st0" d="M246.65,493.22c-81.42,0-162.84-0.01-244.26,0.04c-1.82,0-2.38-0.24-2.38-2.28
			C0.06,328.05,0.06,165.13,0.01,2.2C0.01,0.32,0.42,0,2.24,0c162.92,0.05,325.84,0.05,488.75,0c1.76,0,2.27,0.23,2.26,2.17
			c-0.06,163-0.06,326-0.01,489.01c0,1.75-0.44,2.08-2.11,2.08C409.64,493.21,328.14,493.22,246.65,493.22z"/>
		<path d="M261.15,221.48c0.67-4.23,2.7-7.99,3.82-12.04c1.35-4.86,3.77-9.42,6.4-13.76c2.36-3.87,3.84-8.31,7.13-11.58
			c4.18-4.16,8.45-8.22,12.68-12.32c0.4-0.38,0.78-0.79,1.36-0.36c0.51,0.38,0.47,0.93,0.29,1.45c-0.15,0.43-0.25,0.97-0.57,1.23
			c-1.77,1.46-1.7,3.42-1.6,5.41c0.04,0.78-0.08,1.46-0.59,2.13c-1,1.31-1.46,2.81-1.15,4.48c0.17,0.91,0.12,1.84-0.26,2.69
			c-1.55,3.37-2.89,6.87-4.77,10.05c-2.44,4.15-3.74,8.73-5.45,13.14c-2.25,5.77-3.31,11.93-4.79,17.95
			c-1.84,7.5-3.17,15.06-3.98,22.73c-0.14,1.33-0.15,2.75-1.03,3.91c-1.63,2.17-3.94,2.44-5.93,0.67c-1.41-1.25-2.98-2.27-4.32-3.66
			c-2.1-2.17-2.79-4.95-4.04-7.5c-0.22-0.46-0.51-1.19-0.31-1.51c2.26-3.6-0.04-6.84-0.96-10.01c-3.31-11.45-5.54-23.14-8.09-34.76
			c-0.11-0.5-0.08-1.17-0.81-1.15c-0.62,0.02-0.51,0.66-0.63,1.05c-1.52,4.67-2.8,9.41-4.05,14.16c-1.14,4.32-2.26,8.69-4,12.78
			c-3.69,8.66-6.81,17.57-11.2,25.93c-0.74,1.41-1.32,2.88-1.43,4.52c-0.03,0.43,0.06,1.22-0.68,1.21c-0.8-0.02-0.74-0.79-0.9-1.36
			c-1.68-6-2.07-12.09-1.39-18.27c1.09-9.89,2.39-19.76,5.45-29.24c1.55-4.8,3.72-9.41,5.37-14.22c1.85-5.37,4.56-10.39,7.6-15.17
			c2.18-3.43,3.64-3.28,6.17,0c1.6,2.08,2.9,4.26,2.93,6.99c0,0.56,0.11,1.09,0.58,1.42c4.21,2.97,5.3,7.84,7.06,12.17
			c2.55,6.31,4.15,12.95,5.61,19.61C260.75,220.67,260.98,221.07,261.15,221.48z"/>
		<path d="M215.02,190.93c-0.24,8.69-3.38,15.24-8.13,21.07c-2.96,3.63-5.97,7.31-9.49,10.36c-3.13,2.72-6.3,5.42-9.4,8.18
			c-6.91,6.15-13.73,12.4-20.59,18.6c-1.41,1.27-2.89,2.46-4.25,3.78c-1.08,1.05-2.21,2.12-1.55,3.94c0.46,1.28-0.37,1.48-1.35,1.22
			c-1.96-0.52-3.85-0.72-5.67,0.51c-0.33,0.22-0.91,0.22-1.33,0.13c-1.78-0.39-3.46-0.25-5.06,0.67c-0.42,0.25-0.89,0.28-1.28-0.05
			c-0.57-0.48,0.08-0.78,0.23-1.14c0.56-1.36,1.46-2.44,2.63-3.36c2.93-2.29,3.54-3.81,2.25-7.2c-2.12-5.58-2.52-11.34-2.48-17.21
			c0.06-7.81-0.43-15.66,1.86-23.3c0.2-0.65,0.35-1.31,0.57-1.95c0.61-1.78,0.94-3.04-1.31-4.4c-3.17-1.91-4.08-5.68-5.15-9.06
			c-0.42-1.33,0.84-1.97,1.97-2.35c2.44-0.82,4.84-1.93,7.35-2.34c4.02-0.66,4.99-3.7,6.09-6.79c0.2-0.56,0.24-1.2,0.52-1.71
			c1.7-2.99,4.98-3.48,7.73-0.79c2.12,2.07,3.96,2.28,6.46,0.85c1.34-0.77,3.02-0.98,4.57-1.32c10-2.2,19.58-1.02,28.64,3.8
			C212.37,182.97,215.44,186.55,215.02,190.93z"/>
		<path d="M318.99,243.55c-0.04-10.4,1.87-20.49,4.51-30.5c1.22-4.63,2.64-9.16,4.22-13.67c1.43-4.1,1.18-4.25-3-3.8
			c-4.62,0.49-9.12,1.5-13.59,2.68c-1.99,0.52-3.94,0.12-5.87-0.14c-3.49-0.46-7-0.65-10.07-2.97c-2.92-2.2-3.44-6.32-0.94-8.99
			c2.18-2.32,4.81-3.89,7.49-5.41c1.96-1.11,4.31-0.53,6.44-1.02c5.18-1.19,10.47-1.53,15.73-1.68c4.52-0.13,9.08,0.4,13.59,0.91
			c5.48,0.63,11.05,1.03,16.13,3.54c2.55,1.26,4.84,2.83,6.45,5.26c1,1.51,0.56,3-1.2,2.96c-4.48-0.1-8.68,1.45-13.05,1.79
			c-2.57,0.2-4.99,1.22-7.62,1.12c-1.04-0.04-1.75,0.5-0.71,1.72c1.49,1.74,1.47,3.53,0.83,5.86c-2.73,10.01-5.61,19.98-7.12,30.3
			c-0.71,4.82-1.93,9.62-2.98,14.39c-1.14,5.17-2.76,10.41-2.52,15.86c0.02,0.44,0.21,0.98-0.26,1.25
			c-0.68,0.38-0.89-0.35-1.22-0.69c-4.22-4.35-4.86-9.93-5.24-15.57C318.93,245.68,318.99,244.61,318.99,243.55z"/>
		<path class="st1" d="M135.03,290.12c2.5,0.49,3.63,1.88,3.7,4.56c0.08,2.71-1.14,4.57-3.46,5.16c-0.87,0.22-1.74,0.42-2.68,0.31
			c-0.89-0.11-1.81-0.02-2.75-0.02c1.21-1.82,1.21-8.76-0.06-10.37c1.84,0.15,3.62-0.58,5.31,0.43c-0.61,0.88-2.34,0.25-2.46,1.67
			c-0.18,2.03-0.29,4.09,0.1,6.11c0.12,0.62,0.75,0.69,1.3,0.66c1.07-0.07,1.96-0.58,2.33-1.56c0.66-1.77,0.66-3.55-0.44-5.21
			C135.55,291.3,134.8,290.96,135.03,290.12z"/>
		<path class="st2" d="M256.01,298.36c-0.47,1.46-1.7,1.8-2.98,1.77c-0.93-0.03-1.69-0.64-1.99-1.62c-0.41-1.36-0.18-2.66,0.95-3.49
			c1.04-0.77,1.5-1.35,0.89-2.71c-0.45-0.99-0.1-2.16,1.14-2.58c1.12-0.38,2.32-0.42,3.03,0.75c0.69,1.15,0.39,2.37-0.75,2.94
			c-1.52,0.77-0.96,1.43-0.25,2.33c0.55,0.71,1.18,1.32,1.59,2.2c0.68,1.48,1.9,1.78,3.17,0.16c-1.11,2.31-1.96,2.56-3.61,1.27
			c-0.41-0.32-0.82-0.65-1.23-0.98c-0.56-0.51-0.95-1.16-1.39-1.77c-0.34-0.48-0.67-1.13-1.41-0.81c-0.66,0.28-0.72,0.93-0.59,1.55
			c0.16,0.79,0.69,1.12,1.49,1.03C254.71,298.33,255.35,297.86,256.01,298.36z"/>
		<path class="st3" d="M291.11,293.52c3.83-0.85,4.47-0.32,4.5,3.45c0.01,0.96-0.26,1.99,0.6,2.89c-0.64,0.37-1.27,0.17-1.96,0.15
			c0.66-1.58,0.39-3.2,0.34-4.8c-0.03-0.88-0.62-1.32-1.53-1.33c-0.92-0.01-1.8,0.22-1.86,1.23c-0.1,1.61-0.43,3.27,0.41,4.89
			c-0.62,0-1.21,0-1.8,0c-0.21-0.06-0.12-0.15-0.08-0.33c0.76-3.25,0.66-6.57,0.05-9.78c-0.17-0.87,0.24-0.79,0.46-0.92
			c0.47-0.29,0.86-0.13,0.86,0.52C291.11,290.79,291.11,292.07,291.11,293.52z"/>
		<path class="st4" d="M353.65,293.87c0.03-0.13,0.05-0.38,0.08-0.38c2.25-0.09,4.5-0.31,6.74-0.16c1.19,0.08,1.14,1.38,1.23,2.37
			c0.12,1.39-0.44,2.87,0.61,4.29c-0.75,0.03-1.47,0.06-2.21,0.1c1.05-1.68,0.59-3.42,0.5-5.11c-0.04-0.79-0.66-1.13-1.45-1.13
			c-0.83,0-1.66,0.29-1.73,1.13c-0.13,1.62-0.4,3.3,0.29,4.96c-0.51,0.29-1.16,0.12-1.9,0.05c0.75-1.1,0.35-2.31,0.5-3.45
			c0.29-2.13-0.66-2.94-2.7-2.73L353.65,293.87z"/>
		<path class="st5" d="M275.37,291.95c-0.39-1.79,0.05-2.63,2.06-2.27c1.32,0.23,2.77,0.28,4.07-0.01c1.87-0.42,2.15,0.31,1.76,2.1
			c-0.55-1.46-1.69-1.74-2.79-1.38c-1.16,0.38-0.59,1.58-0.57,2.38c0.06,2.37-0.4,4.8,0.32,7.19c-0.41,0-1.03,0-1.75,0
			c-0.29-0.25,0.2-0.4,0.23-0.64c0.41-2.71,0.29-5.44,0.1-8.13c-0.11-1.59-1.56-0.93-2.44-0.55
			C275.93,290.82,275.7,291.49,275.37,291.95z"/>
		<path class="st6" d="M338.09,296.41c0.07-2.02,1.48-3.44,3.42-3.44c2.04,0,3.5,1.53,3.48,3.65c-0.02,2.13-1.48,3.57-3.57,3.51
			C339.3,300.06,338.02,298.64,338.09,296.41z"/>
		<path class="st7" d="M150.17,299.54c-1.48,0.96-2.9,0.78-4.12-0.34c-1.27-1.18-1.29-2.72-0.61-4.21c0.67-1.47,1.97-2.13,3.53-1.99
			c1.44,0.14,2.54,1.07,2.39,2.54c-0.14,1.36-1.45,0.5-2.24,0.67c-0.07,0.02-0.16-0.02-0.23,0c-0.88,0.25-2.42-0.8-2.56,0.69
			c-0.14,1.58,1.19,2.31,2.77,2.34C149.44,299.25,149.84,299.06,150.17,299.54z"/>
		<path class="st8" d="M307.87,298.98c-1.61,1.43-3.26,1.49-4.64,0.01c-1.22-1.31-1.17-2.97-0.19-4.41
			c0.98-1.44,2.35-1.95,4.12-1.22c1.1,0.46,1.6,1.29,1.46,2.28c-0.16,1.12-1.22,0.44-1.88,0.55c-0.22,0.04-0.47-0.05-0.68,0.01
			c-0.86,0.23-2.4-0.9-2.47,0.78c-0.07,1.59,1.24,2.31,2.81,2.29C306.89,299.25,307.38,299.08,307.87,298.98z"/>
		<path class="st9" d="M157.79,299.99c1.59-3.59-1.22-7.81,1.77-11.34c0.19,1.94-1.74,4.26,1.47,4.99
			c-1.98,0.57-2.51,3.39-1.14,6.36C159.2,299.99,158.55,299.99,157.79,299.99z"/>
		<path class="st10" d="M330.27,300.08c-0.75,0-1.43,0-2.13,0c0.69-1.82,0.7-3.77,0.21-5.51c-0.27-0.96,0.26-1.23,0.53-1.12
			c1.01,0.42,1.86-0.27,2.79-0.19c0.38,0.03,0.82,0.11,0.81,0.58c0,0.23-0.26,0.57-0.48,0.65c-0.74,0.27-2.03-0.84-2.24,0.59
			c-0.21,1.45-0.42,2.99,0.21,4.45C330.04,299.69,330.15,299.85,330.27,300.08z"/>
		<path class="st11" d="M220.41,293.41c2.05,0.42,2.97,1.83,2.56,3.92c-0.44,2.27-2.07,3.1-4.85,2.45c0.08-0.34,0.29-0.56,0.62-0.68
			c2.43-0.67,3.04-1.86,2.09-4.16c-0.17-0.42-0.48-0.77-0.53-1.24C220.34,293.6,220.37,293.5,220.41,293.41z"/>
		<path class="st11" d="M318.94,293.41c2.05,0.42,2.97,1.83,2.56,3.92c-0.44,2.27-2.07,3.1-4.85,2.45c0.08-0.34,0.29-0.56,0.62-0.68
			c2.43-0.67,3.04-1.86,2.09-4.16c-0.17-0.42-0.48-0.77-0.53-1.24C318.87,293.6,318.91,293.5,318.94,293.41z"/>
		<path class="st12" d="M201.39,293.6c-0.98,0.32-1.92,0.15-1.92,1.7c0,3.64-0.07,3.77,1.58,4.28c-1.86,0.83-2.6,0.59-2.45-1.15
			c0.18-2.11-1.04-4.36,0.73-6.79C199.23,293.49,200.32,293.45,201.39,293.6z"/>
		<path class="st9" d="M231.84,293.87c2.1-1.43,3.58-0.81,3.81,1.58c0.13,1.34,0,2.68,0.19,4.04c0.15,1.07-1.07,0.41-1.82,0.62
			c1.02-1.77,0.76-3.55,0.45-5.26c-0.28-1.48-1.73-0.79-2.68-1.04L231.84,293.87z"/>
		<path class="st13" d="M178.47,293.88c0.53-1.25,1.51-0.81,2.38-0.58c0.96,0.25,1.16,1.07,1.27,1.94c0.19,1.54-0.4,3.17,0.54,4.74
			c-0.67,0-1.3,0-2.03,0c0.76-1.07,0.44-2.27,0.55-3.42c0.2-2.07-0.7-2.96-2.75-2.72L178.47,293.88z"/>
		<path class="st14" d="M178.43,293.84c-1.4,1.44-1.1,3.34-0.75,4.88c0.43,1.9-0.53,1.35-1.53,1.28c0.74-1.54,0.67-3.25,0.32-4.73
			c-0.65-2.74,0.81-1.71,2-1.39C178.47,293.88,178.43,293.84,178.43,293.84z"/>
		<path class="st15" d="M353.61,293.83c-1.26,1.94-0.89,3.97-0.45,6.11c-0.51,0.28-1.15,0.15-1.8,0.03c0.87-1.57,0.79-3.35,0.4-4.82
			c-0.76-2.9,0.84-1.49,1.88-1.27C353.65,293.87,353.61,293.83,353.61,293.83z"/>
		<path class="st16" d="M231.8,293.82c-1.15,1.95-0.83,3.98-0.41,6.1c-0.53,0.29-1.15,0.17-1.8,0.05c0.87-1.56,0.68-3.29,0.38-4.78
			c-0.48-2.41,0.58-1.84,1.87-1.31C231.84,293.87,231.8,293.82,231.8,293.82z"/>
		<path class="st17" d="M167.45,300c0.79-1.83,0.79-3.77,0.19-5.46c-0.25-0.7-0.19-0.68,0.24-0.91c0.59-0.32,0.95-0.3,1.03,0.52
			c0.18,1.86-0.32,3.73,0.31,5.61C169.36,300.17,168.09,300.03,167.45,300z"/>
		<path class="st5" d="M317.1,299.37c-0.15,0.13-0.29,0.27-0.44,0.4c-1.88-1.29-2.57-3.22-1.57-4.94c0.84-1.44,2.02-2.42,3.85-1.43
			c0,0,0.01-0.05,0.01-0.05C315.95,295.55,315.95,295.55,317.1,299.37z"/>
		<path class="st5" d="M218.57,299.37c-0.15,0.13-0.29,0.27-0.44,0.4c-1.88-1.29-2.57-3.22-1.57-4.94c0.84-1.44,2.03-2.42,3.85-1.43
			c0,0,0.01-0.05,0.01-0.05C217.41,295.55,217.41,295.55,218.57,299.37z"/>
		<path class="st18" d="M190.88,296.92c-0.44,0.84,0.58,2.94-0.29,2.84c-1.48-0.17-0.18-2.01-0.53-3.09
			c-0.24-0.75,0.29-1.63-0.38-2.35c-0.61-0.66,0.26-0.59,0.48-0.74c0.4-0.28,0.71-0.08,0.72,0.42
			C190.9,294.9,190.88,295.81,190.88,296.92z"/>
		<path class="st19" d="M209.22,297.02c-0.55,0.78,0.98,2.59-0.54,2.74c-0.9,0.09,0.02-1.85-0.26-2.86
			c-0.22-0.78,0.33-1.78-0.28-2.39c-0.59-0.59-0.21-0.64,0.18-0.85c0.51-0.27,0.88-0.23,0.89,0.45
			C209.24,295.01,209.22,295.93,209.22,297.02z"/>
		<path class="st20" d="M191.18,291.41c-0.04,0.56-0.4,0.74-0.9,0.72c-0.4-0.02-0.74-0.21-0.75-0.64c-0.01-0.49,0.26-0.82,0.78-0.86
			C190.87,290.59,191.1,290.92,191.18,291.41z"/>
		<path class="st21" d="M169.07,291.46c-0.05,0.43-0.31,0.64-0.73,0.65c-0.5,0-0.89-0.2-0.83-0.76c0.06-0.5,0.42-0.76,0.94-0.68
			C168.88,290.74,169.04,291.06,169.07,291.46z"/>
		<path class="st22" d="M208.75,292.1c-0.52,0.03-0.88-0.19-0.84-0.73c0.02-0.37,0.26-0.67,0.7-0.7c0.55-0.04,0.81,0.27,0.83,0.77
			C209.46,291.87,209.17,292.07,208.75,292.1z"/>
		<path class="st23" d="M163.35,242.34c-0.81-0.84-0.48-1.56-0.43-2.19c0.67-8.84,1.78-17.61,3.62-26.3
			c1.5-7.06,3.89-13.82,5.86-20.72c0.56-1.98,1.89-2.89,3.59-3.42c5.12-1.6,10.15-3.55,15.59-3.99c4.26-0.34,8.1,0.93,11.66,3
			c2.74,1.59,3.21,4.12,2.23,7.6c-1.41,5.02-4.23,9.17-7.51,13.1c-6.35,7.59-13.69,14.18-20.91,20.88
			C172.62,234.41,167.98,238.29,163.35,242.34z"/>
		<path class="st0" d="M135.03,290.12c1.98,1.54,2.89,3.51,2.44,6.04c-0.4,2.28-2.35,3.65-4.65,3.35c-0.92-0.12-1.09-0.59-1.09-1.37
			c0.02-1.97,0.1-3.95-0.03-5.91c-0.1-1.59,0.43-2.24,2.03-2.01c0.44,0.07,0.9-0.03,1.34-0.05
			C135.09,290.18,135.03,290.12,135.03,290.12z"/>
		<path class="st24" d="M256.01,298.36c-0.61,0.25-1.19,0.59-1.83,0.73c-1.22,0.27-2.07-0.29-2.32-1.5
			c-0.26-1.25,0.26-2.21,1.41-2.77c0.65-0.31,0.96,0.23,1.23,0.68c0.55,0.94,1.53,1.67,1.47,2.92
			C255.96,298.41,256.01,298.36,256.01,298.36z"/>
		<path class="st25" d="M254.84,290.07c0.87,0.07,1.46,0.52,1.45,1.41c-0.01,0.87-0.36,1.79-1.3,1.89c-1.09,0.12-1.2-0.97-1.34-1.72
			C253.49,290.8,253.89,290.18,254.84,290.07z"/>
		<path class="st26" d="M343.83,296.22c-0.04,1.69-0.49,3.22-2.19,3.33c-1.75,0.11-2.34-1.41-2.39-2.94
			c-0.05-1.55,0.49-3.01,2.27-3.05C343.17,293.52,343.72,294.87,343.83,296.22z"/>
		<path class="st27" d="M148.26,295.76c-0.73-0.3-1.82,0.38-1.83-0.54c-0.01-1.12,1.15-1.54,2.14-1.57
			c0.73-0.02,1.66,0.33,1.62,1.22C150.1,296.43,148.67,295.03,148.26,295.76z"/>
		<path class="st28" d="M303.43,295.63c1.22-2.13,2.47-2.61,3.65-1.63c0.38,0.31,0.64,0.71,0.57,1.17
			c-0.09,0.63-0.66,0.46-1.09,0.49c-0.6,0.04-1.21,0.08-1.82,0.08C304.38,295.75,304.01,295.69,303.43,295.63z"/>
		<path class="st29" d="M218.57,299.37c-1.39-1.13-1.61-2.61-1.12-4.21c0.44-1.44,1.62-1.79,2.97-1.8c1.12,1.18,1.8,2.52,1.31,4.19
			C221.27,299.15,220.28,299.91,218.57,299.37z"/>
		<path class="st29" d="M317.1,299.37c-1.39-1.13-1.61-2.61-1.12-4.21c0.44-1.44,1.62-1.79,2.97-1.8c1.12,1.18,1.8,2.52,1.31,4.19
			C319.81,299.15,318.82,299.91,317.1,299.37z"/>
	</g>
</g>
</svg>
