<?xml version="1.0" encoding="utf-8"?>
<!-- Generator: Adobe Illustrator 25.1.0, SVG Export Plug-In . SVG Version: 6.00 Build 0)  -->
<svg version="1.1" id="레이어_1" xmlns="http://www.w3.org/2000/svg" xmlns:xlink="http://www.w3.org/1999/xlink" x="0px"
	 y="0px" viewBox="0 0 736 693" style="enable-background:new 0 0 736 693;" xml:space="preserve">
<style type="text/css">
	.st0{fill:#000000;}
	.st1{fill:#FBFBFB;}
	.st2{fill:#2C2C2C;}
	.st3{fill:#A9A9A9;}
	.st4{fill:#686868;}
</style>
<g>
	<g>
		<path class="st0" d="M368,0.09c121.14,0,242.27,0.02,363.41-0.09c3.75,0,4.59,0.84,4.59,4.59c-0.1,227.94-0.1,455.88,0,683.81
			c0,3.75-0.84,4.59-4.59,4.59c-242.27-0.1-484.54-0.1-726.82,0C0.84,693,0,692.16,0,688.41C0.1,460.47,0.1,232.53,0,4.59
			C0,0.84,0.84,0,4.59,0C125.73,0.11,246.86,0.09,368,0.09z"/>
		<path class="st1" d="M177,403.88c-9.63,1.87-18.83,3.88-26.35,11.51c-8.7,8.83-19.9,11.69-32.24,8.61
			c-3.71-0.93-7.54-1.51-11.14-2.74c-6.37-2.17-11.58-0.67-16.45,3.78c-5.56,5.08-11.88,9.11-18.8,12.13
			c-1.82,0.79-3.75,1.32-5.61,2.01c-1.17,0.43-2.39,0.62-3.1-0.59c-0.87-1.5,0.19-2.53,1.31-3.33c2.58-1.83,5.11-3.74,7.83-5.34
			c6.05-3.56,11.53-7.9,16.96-12.28c5.51-4.45,11.65-5.38,18.34-3.97c3.09,0.65,6.2,1.27,9.22,2.19
			c10.34,3.15,19.28,0.01,25.56-7.88c10.05-12.62,23.48-16.03,38.38-16.71c4.99-0.23,9.99-0.24,14.98-0.5
			c3.31-0.17,4.76-1.51,4.22-5.38c-1.81-12.98-4.44-25.86-2.62-39.2c2.66-19.48,8.49-37.85,16.44-55.77
			c11.96-26.93,26.37-52.36,45.36-74.89c17.05-20.24,33.07-41.32,50.34-61.37c3.45-4,7.85-6.6,12.35-9.11
			c1.38-0.77,2.85-1.43,4,0.09c1.48,1.97-0.67,2.5-1.67,3.33c-7.37,6.12-11.87,14.4-16.95,22.43c10.19-6.46,21.46-10.33,32.26-15.24
			c10.99-5,22.77-5.97,34.42-7.76c5.42-0.83,10.89-1.36,16.35-1.9c1.75-0.17,4-0.53,4.42,2c0.37,2.24-1.8,2.56-3.26,3.1
			c-11.51,4.33-22.9,8.88-33.48,15.28c-23.21,14.04-43.59,30.66-60.58,52.53c-26.22,33.76-45.91,70.83-62.94,109.6
			c-5.66,12.88-8.46,26.61-8.64,40.77c-0.07,5.2,0.67,5.7,5.19,2.9c9.12-5.66,16.55-13.41,24.39-20.58
			c13.9-12.71,28.35-24.69,43.66-35.67c6.05-4.34,11.16-9.88,18.14-13.07c13.41-6.13,25.13-3.17,33.24,9.14
			c2.15,3.26,3.44,4.02,6.78,1.04c18.34-16.39,40.26-26.19,63.45-33.45c2.99-0.94,6.2-1.19,9.31-1.76
			c8.15-1.49,16.44-2.21,24.28-5.34c4.21-1.68,8.92-1.69,13.3-0.32c5.74,1.8,11.76,2.38,17.43,4.04c6.65,1.95,12.16,0.35,18.24-1.98
			c15.35-5.86,30.62-12.09,47.49-12.58c10.25-0.29,19.23,2.94,28,7.7c18.5,10.04,38.12,12.1,58.54,7.73
			c5.98-1.28,11.13-4.3,15.99-7.87c1.19-0.87,2.51-2.17,3.9-0.62c1.34,1.49-0.02,2.71-0.88,3.93c-6.92,9.84-16.98,13.46-28.41,14.22
			c-18.83,1.25-36.78-2.01-53.77-10.45c-4.12-2.05-8.27-4.36-13.11-4.41l0.03,0.01c-5.77-1.5-11.59-1.01-17.23,0.33
			c-10.68,2.55-20.64,7.23-31.6,11.12c5.08,2.59,9.72,4.47,13.36,8.01c1.8,1.75,3.75,0.71,5.5-0.3c12.39-7.16,24.38-6.63,36.76,0.63
			c14.64,8.6,29.98,15.79,46.77,19.44c2.31,0.5,6.66,0.91,5.85,3.92c-0.79,2.91-4.56,0.65-7,0.41
			c-17.81-1.75-33.51-8.59-48.18-18.78c-9.05-6.28-19.08-4.86-28.22,0.79c-4.44,2.75-8.79,4.66-14.06,3.42
			c-1.16-0.42-1.53-0.04-1.14,1.12c9.25,7.93,19.34,12.96,32.15,12.15c11.28-0.72,22.01,2.85,32.53,6.72
			c10.94,4.02,17.62,12.79,24.2,21.62c3.97,5.33,7.69,10.87,11.35,16.43c5.13,7.8,11.67,14.05,19.79,18.66
			c0.72,0.41,1.42,0.87,2.11,1.34c1.12,0.77,2.35,1.64,1.64,3.21c-0.75,1.66-2.27,1.09-3.49,0.69c-9.15-3.03-17.51-7.3-23.61-15.1
			c-5.54-7.08-11.41-13.92-16.53-21.3c-9.19-13.24-22.25-18.85-37.64-20.63c-6.65-0.77-13.3-0.64-19.96-0.77
			c-6.1-0.12-11.83-1.36-17.02-4.84c-7.04-4.71-14.6-8.63-20.78-14.61c-3.14-3.04-7.07-4.9-11.47-5.69
			c-7.21-1.29-14.45-2.35-21.77-2.79c-3.93-0.24-4.92,1.79-3.13,4.9c5.57,9.67,5.74,20.63,8.16,31.1
			c5.68,24.55-6.85,43.2-18.39,62.19c-14.9,24.52-36.12,43.36-57.59,61.87c-20.21,17.43-41.7,33.1-64.3,47.27
			c-1.69,1.06-3.39,2.14-5.21,2.94c-1.5,0.66-3.38,2.71-4.75,0.43c-1.06-1.75,1.03-2.91,2.25-3.93c4.72-3.95,9.44-7.9,14.27-11.72
			c7.18-5.68,14.18-11.55,19.78-19.17c-7.29,4.28-14.45,8.8-21.91,12.78c-12.77,6.81-24.42,15.56-37.6,21.64
			c-8.75,4.04-17.45,8.31-26.49,11.57c-9.99,3.6-20.3,6.52-31,7.15c-6.81,0.4-13.65,0.2-20.48,0.2c-1.59,0-3.56,0.41-4.16-1.79
			c-0.66-2.43,1.24-3.23,2.94-3.91c14.88-5.97,27.83-15.62,42.33-22.31c8.85-4.08,16.26-10.38,24.12-15.93
			c19.87-14.04,41.18-25.81,61.36-39.33c22.39-14.99,45.17-29.62,63.36-49.91c15.87-17.7,26.74-38.1,30.41-61.79
			c1.23-7.96,0.7-15.98-5.74-22.34c-2.71-2.68-5.58-3.81-9.38-3.56c-9.76,0.66-19.18,3.05-27.95,7.01
			c-11.53,5.21-23.71,8.73-35.06,14.43c-3.94,1.98-5.16,4.52-6.18,8.09c-5.01,17.59-9.49,35.34-15.85,52.52
			c-8.3,22.44-20.02,43.1-32.76,63.25c-4.39,6.94-9.17,13.48-15.94,18.32c-2.26,1.62-4.46,4.21-7.51,2.4
			c-3.29-1.96-1.5-5.26-0.85-7.75c3.76-14.38,9.6-27.96,16.5-41.11c9.36-17.84,18.23-35.91,24.6-55.08c0.3-0.91,1.09-1.72,0.35-3.3
			c-4.45,1.92-8.99,3.72-13.39,5.81c-14.01,6.66-24.79,0.52-26.34-15.06c-0.08-0.8-0.18-1.6-0.37-3.18
			c-3.98,3.44-7.53,6.54-11.11,9.6c-11.45,9.78-23.91,17.95-37.39,24.71c-5.31,2.66-10.21,6.3-14.89,10.01
			c-11.43,9.06-24.97,13.68-38.32,18.68c-4.44,1.66-8.49,3.55-12.01,6.81c-7.54,6.96-16.27,11.29-26.21,14.63
			c-11.27,3.79-22.62,7.53-33.81,11.65c-6.81,2.51-11.56,8.36-17.73,11.99c-1.34,0.79-2.58,2.77-4.29,1.07
			c-1.97-1.96,0.17-3.32,1.24-4.6c10.34-12.42,23.16-20.23,39.61-21.51c9.53-0.74,17.47-5.04,24.04-11.88
			c6.1-6.34,11.63-13.29,19.3-17.96C179.81,402.4,178.18,403.74,177,403.88z"/>
		<path class="st2" d="M561.11,271.89c-3.39,2.09-7.02,0.78-10.59,0.01c3.54,0,7.07,0,10.61,0
			C561.13,271.9,561.11,271.89,561.11,271.89z"/>
		<path class="st2" d="M195.81,353.8c0,2.87,0,5.74,0,8.6c-0.16,0-0.32,0-0.48,0c0-2.93,0-5.85,0-8.78
			C195.49,353.68,195.65,353.74,195.81,353.8z"/>
		<path class="st3" d="M177,403.88c1.04-0.28,2.06-0.67,3.11-0.8c0.63-0.08,1.82-0.45,1.73,0.76c-0.05,0.69-0.89,1.24-1.81,1.13
			C179.37,403.63,177.9,404.54,177,403.88z"/>
		<path class="st4" d="M521.95,302.03c-1.35-0.29-2.12-1.26-3.01-2.52c1.92-0.63,3.02,0.43,4.15,1.4
			C522.71,301.28,522.33,301.66,521.95,302.03z"/>
		<path class="st0" d="M338.64,330.25c-0.36,14.31-8.64,23.68-22.66,25.74c-3.31,0.49-5.57-0.99-5.5-4.07
			c0.28-12.19,4-24.05,16.99-29.45C335.07,319.31,338.85,321.97,338.64,330.25z"/>
	</g>
</g>
</svg>
