<?xml version="1.0" encoding="utf-8"?>
<!-- Generator: Adobe Illustrator 25.1.0, SVG Export Plug-In . SVG Version: 6.00 Build 0)  -->
<svg version="1.1" id="레이어_1" xmlns="http://www.w3.org/2000/svg" xmlns:xlink="http://www.w3.org/1999/xlink" x="0px"
	 y="0px" viewBox="0 0 626 602" style="enable-background:new 0 0 626 602;" xml:space="preserve">
<style type="text/css">
	.st0{fill:#FEFEFE;}
	.st1{fill:#010101;}
	.st2{fill:#020202;}
	.st3{fill:#030303;}
	.st4{fill:#040404;}
	.st5{fill:#FCFCFC;}
	.st6{fill:#F9F9F9;}
	.st7{fill:#0A0A0A;}
	.st8{fill:#F3F3F3;}
	.st9{fill:#0B0B0B;}
	.st10{fill:#BBBBBB;}
	.st11{fill:#060606;}
	.st12{fill:#FDFDFD;}
	.st13{fill:#6E6E6E;}
</style>
<g>
	<g>
		<path class="st0" d="M312.5,601.9c-102.8,0-205.6-0.02-308.41,0.1c-3.42,0-4.1-0.67-4.09-4.09C0.11,399.97,0.11,202.03,0,4.09
			C0,0.67,0.67,0,4.09,0c205.94,0.11,411.88,0.11,617.81,0c3.42,0,4.1,0.67,4.09,4.09c-0.11,197.94-0.11,395.87,0,593.81
			c0,3.42-0.67,4.1-4.09,4.09C518.77,601.88,415.64,601.9,312.5,601.9z"/>
		<path d="M319.02,440.95c-17.19,10.08-34.01,20.84-51.65,30.06c-19.24,10.05-38.9,19.57-60.82,22.65
			c-8.78,1.23-17.63,0.13-26.43,0.68c-1.57,0.1-3.06-0.2-3.33-2.18c-0.25-1.9,1.1-2.63,2.51-3.25c7.76-3.44,15.23-7.4,22.61-11.6
			c15.29-8.69,30.98-16.6,45.17-27.21c19.33-14.46,40.77-25.73,60.79-39.15c22.1-14.81,44.56-29.28,62.62-49.21
			c16.07-17.73,27.09-38.22,30.88-62.05c1.29-8.12,0.85-16.32-5.79-22.77c-2.57-2.49-5.25-3.68-8.91-3.44
			c-11.47,0.75-22.26,4.06-32.57,8.78c-10.13,4.63-20.96,7.48-30.87,12.71c-3.32,1.75-4.95,3.71-5.91,7.13
			c-5.28,18.87-10.3,37.81-16.99,56.28c-2.75,7.59-6.88,14.39-10.28,21.6c-1.19,1.15-1.44,2.73-1.96,4.19
			c-8.31,17.03-17.39,33.59-29.86,48.04c-2.41,2.79-5.45,4.86-8.48,6.91c-1.46,0.99-3.13,1.42-4.69,0.41
			c-1.73-1.13-1.89-2.79-1.45-4.83c3.26-15.25,9.58-29.3,16.59-43.09c0.81-1.59,1.7-3.15,2.55-4.72c1.43-0.94,1.88-2.42,2.23-3.96
			c3.58-9.3,9.26-17.63,12.57-27.05c0.54-1.55,1.03-3.13,1.54-4.69c0.07-5.89,4.14-10.61,4.94-16.68c-2.91,0.8-5.41,2.16-8.22,2.33
			l0.09-0.05c-1.41,1.27-3.39,1.24-4.94,2.2c-0.81-0.06-1.66-0.2-2.03,0.82c-0.65,1.46-2.17,0.48-3.11,1.11
			c-13.36,0.1-18.57-5.17-20.22-21.11c-4.1,3.55-7.87,6.87-11.7,10.11c-11.22,9.5-23.47,17.38-36.57,24.12
			c-6.01,3.09-11.61,7.19-16.84,11.51c-4.87,4.03-10.4,6.38-16.13,8.56c-6.15,2.01-12.14,4.47-18.15,6.84
			c-2.77,1.1-4.99,1.8-7.94,0.25c-1.48-0.78-3.61-2.72-5.89-0.47c-0.97,0.95-1.84-0.17-1.78-1.32c0.13-2.67,1.35-4.36,4.3-4.44
			c0.95-0.03,2.69,1,2.66-1.04c-0.02-1.62-1.36-2.12-2.88-1.95c-1.16,0.13-2.32,0.2-3.48-0.02c-1.26-0.22-2.41-0.77-3.82-0.21
			c-2.08,0.83-4.8,2.3-4.42-2.19c0.01-0.12-1.17-0.15-1.58,0.17c-3.67,2.82-5.65-0.68-7.93-2.28c-1.52-1.06-0.98-2.55,0.68-3.5
			c1.56-0.88,3.43-0.96,4.94-1.94c7.02-3.46,14.62-2.65,22.04-2.89c13.61-0.43,14.39-0.5,11.84-13.74
			c-5.74-29.92,2.36-57.25,13.88-84.22c11.29-26.44,25.44-51.19,43.27-73.76c7.07-8.96,14.57-17.59,21.87-26.36
			c1.95-0.88,2.77-2.77,3.91-4.38c5.34-6.88,10.69-13.76,16.03-20.64c2.4-0.16,5.18-0.74,3.68,3.37c2.12-0.1,2.97,1.99,4.64,2.67
			c0.36-0.97-0.33-2.23,0.8-3c2.92,0.38,4.34-2.2,6.41-3.4c23.37-13.53,48.84-19.6,75.49-21.6c0.5-0.04,1-0.06,1.5-0.05
			c1.76,0.05,4-0.52,4.4,2.03c0.35,2.24-1.78,2.53-3.26,3.09c-11.48,4.37-22.91,8.81-33.44,15.26
			c-22.65,13.87-42.85,29.89-59.62,51.3c-26.86,34.3-46.89,72.06-64.27,111.55c-4.85,11.02-6.92,22.86-8.33,34.79
			c-0.21,3.31-1.32,6.65,0.32,9.9c4.87-0.62,8.32-3.82,11.84-6.75c6.39-5.33,12.52-10.95,18.31-16.93c1.44-1.49,3.14-2.72,4.72-4.07
			c1.02-2.07,3.47-2.49,4.8-4.2c12.97-11.68,27.48-21.41,40.96-32.45c9.44-7.74,20.12-13.09,33.09-7.53c4.9,2.1,8.23,5.4,10.63,9.95
			c1.66,3.15,3.09,4.4,6.64,1.22c18.27-16.38,40.11-26.25,63.28-33.44c3.46-1.07,7.18-1.3,10.76-2.02
			c7.77-1.57,15.68-2.27,23.23-5.21c4.56-1.78,9.75-1.91,14.56,0.34c0.85,1.95,4.68,0.54,4.34,3.84c-0.21,0.43-0.53,0.73-0.97,0.91
			c-0.92,0.52-2.65,0.31-2.31,1.98c0.23,1.13,1.57,1.25,2.5,1.09c5.37-0.96,10.89,1.22,16.25-0.95c1.99-0.8,4.34-0.21,6.37,0.27
			c3.53,0.83,6.75,1.03,10.05-0.94c1.83-1.09,4.35-0.49,3.5,1.98c-1.98,5.81,0.1,11.5-0.39,17.21c-1.82,4.24-6.32,2.57-8.04,1.76
			c-4.63-2.19-9.31-1.12-13.89-1.86c-4.14-0.33-8.26-0.79-12.41-0.97c-4.72-0.2-5.79,1.18-3.6,5.12c5.24,9.42,5.57,19.98,7.94,30.12
			c5.8,24.85-6.64,43.85-18.43,63.11c-13.26,21.67-31.36,39.12-50.5,55.54c-11.22,9.63-22.25,19.51-34.46,27.93
			c-1.93,0.64-1.73-1.48-2.97-2.26c1.82,3.09-1.04,4.26-2.11,6.14l-0.08,0.05c-0.8,0.87-2.56,0.22-2.9,1.82
			c-1.07,0.74-2.15,1.48-3.22,2.23c-1.73,0.75-3.74,1.17-4.86-0.5c-1.07-1.6,1.3-2.32,1.84-3.59c1.38-3.26,1.96-6.94,4.99-9.33
			c0.02-0.01-0.12-0.3-0.24-0.39C319.36,441.03,319.18,441,319.02,440.95z"/>
		<path class="st1" d="M426.97,245.02c-0.28-1.99-1.42-2.51-3.36-2.36c-1.97,0.15-0.55-1.16-0.56-1.84c5.52,1.1,11.2,1.7,16.52,3.43
			c6.05,1.97,11.24,0.74,16.8-1.61c12.25-5.18,24.82-9.47,37.93-11.95c13.61-2.57,26.26-0.34,38.44,6.55
			c18.47,10.44,38.35,12.27,58.91,7.77c5.79-1.27,10.8-4.2,15.52-7.69c1.15-0.85,2.42-2.3,3.92-0.87c1.76,1.67,0.07,3.02-0.85,4.29
			c-7,9.71-17.05,13.31-28.48,14.03c-18.81,1.19-36.83-1.9-53.64-10.61c-12.54-6.5-25.22-6.35-38.14-1.65
			c-7.64,2.78-15.24,5.69-23.88,8.92c5.58,2.44,10.14,4.81,14.09,8.27c1.85,1.63,4.05-0.14,5.95-1.17
			c10.66-5.75,21.44-6.64,32.31-0.62c16.01,8.87,32.18,17.31,50.3,21.25c2.29,0.5,6.67,0.82,5.79,3.94
			c-0.8,2.83-4.61,0.78-7.01,0.29c-10.06-2.06-20.57-2.48-29.76-7.75c-5.77-3.3-11.39-6.85-17.03-10.37
			c-9.94-6.21-19.92-5.71-29.64,0.2c-4.44,2.7-8.75,4.75-14.03,3.44c-1.16-0.43-1.77-0.3-1.12,1.11c0.65,0.67,1.3,1.33,1.95,2
			c-3.63,2.72-6.3,0.77-8.48-2.02c-1.96-2.5-3.66-5.08-7.45-3.99c-1.01-5.68-2.81-11.36-0.18-17.06c0.21-0.45,0.54-0.75,0.17-1.18
			c-0.51-0.58-1.28-0.7-1.77-0.21c-4.8,4.74-10.17,1.74-15.26,0.96c-2.42-0.37-3.68,1.72-6.01,1.63c-4.08-0.16-8.16-1.03-12.3-0.18
			c-2.3,0.47-5.01-0.29-4.74-2.91C422.08,244.96,424.58,244.06,426.97,245.02c0.29,0.37,0.57,0.76,1.06,0.87
			C427.84,245.39,427.29,245.34,426.97,245.02z"/>
		<path class="st1" d="M461.96,266.01c4.15-5.42,6.75,0.45,7.51,2.11c1.94,4.26,5.03,3.94,8.42,3.9c0.46,0.16,1.04,0.19,1.37,0.49
			c8.81,8.15,19.44,9.91,31,9.69c10.95-0.22,21.31,3.22,31.44,7.14c10.49,4.07,16.85,12.72,23.19,21.3
			c4.44,6.02,8.61,12.24,12.82,18.43c4.78,7.03,11.08,12.31,18.34,16.61c1.69,1,4.82,1.8,3.51,4.5c-1.14,2.36-3.51,0.46-5.3-0.06
			c-13.09-3.82-21.4-13.31-29.12-23.85c-6.63-9.06-12.75-18.81-22.62-24.92c-10.55-6.52-22.61-8.96-34.53-7.99
			c-18.38,1.5-32.2-6.91-44.89-17.99c-6.75-5.89-14.49-7.61-22.6-9.27c2.11-0.17,4.25,0.04,6.29-0.89c1.72-0.78,3.12-0.54,4.88,0.74
			C454.84,268.3,458.5,267.87,461.96,266.01z"/>
		<path class="st1" d="M119.06,361.99c-0.34,0.79-1.58,1.32-1.62,1.56c-0.38,2.36-4.92-0.11-3.62,2.67c0.56,1.2,2.78,4.25,6.17,2.47
			c1.45-0.76,3.73,0.06,5.66,0.16c-0.33,1.69-2.12,0.62-2.79,1.68c2.62,3.54,5.89-3.64,8.4,0.53c0.16,0.55,0.02,1.01-0.41,1.38
			c-6.44,2.41-13.13,3.94-19.81,5.51c-1.8,0.79-3.02,2.2-4.04,3.81c-3.65,6.13-9.2,9.22-16.13,10.11c-10.1,2.94-19.8,0.3-29.32-2.57
			c-6.64-2-11.86-0.74-16.89,3.81c-6.69,6.07-14.31,10.8-22.93,13.7c-1.39,0.47-3.36,1.74-4.43-0.37c-1.04-2.06,0.92-2.85,2.25-3.79
			c8.68-6.1,17.61-11.86,25.95-18.46c4.41-3.49,9.86-3.73,15.26-2.79c2.94,0.51,5.91,1.06,8.73,2.01
			c11.64,3.93,20.89-0.01,28.44-8.79C103.63,368.02,109.94,362.75,119.06,361.99z"/>
		<path class="st2" d="M135.05,370.82c3.1-1,4.29,1.25,4.43,3.39c0.08,1.26-1.28,2.86-3.75,1.94c-3.03-1.12-3.96,1.22-4.36,4.01
			c2.94-3.41,5.8-1.13,8.3,0.14c1.56,0.79,2.76,1.98,4.36,0.63c4.75-4.02,11.47-2.99,16.44-6.51c0.92-0.65,2.57-0.25,3.88-0.34
			c-6.05,3.04-11.98,6.37-18.6,8.1c-5.9,1.55-10.87,4.5-15.4,8.67c-6.76,6.22-14.72,9.98-23.65,13
			c-11.71,3.96-23.49,7.88-35.12,12.13c-6.78,2.47-11.5,8.37-17.64,12c-1.36,0.8-2.64,2.63-4.27,0.83
			c-1.56-1.73,0.13-3.05,1.14-4.27c10.44-12.47,23.24-20.54,39.87-21.79c3.56-0.27,7.25-0.6,10.43-2.66c0.7-1.16,1.6-1.97,3.08-1.75
			c1.95-1.2,3.9-2.4,5.85-3.6c0.97-1,1.7-2.28,3.19-2.64l-0.03,0.03c0.57-2.82,2.84-4.39,4.73-6.15
			c4.93-4.57,8.88-10.21,14.87-13.62C133.57,371.88,134.86,372.14,135.05,370.82z"/>
		<path class="st3" d="M319.02,440.95c0.95-0.6,1.89-1.21,2.84-1.81c-4.86,3.69-3.85,10.76-7.79,14.95
			c0.77,0.18,2.22,0.52,3.68,0.86c-10.11,7.8-20.69,14.89-31.88,21.04c-1.15,0.63-2.66,1.52-3.59,0.1c-1.07-1.63,0.47-2.76,1.6-3.7
			c8.8-7.34,17.71-14.57,26.43-22.02C313.55,447.6,316.91,444.82,319.02,440.95z"/>
		<path class="st4" d="M261.02,139.03c0.2,1.42,0.39,2.84,0.59,4.26c-3.14,0.21-4.53-3.18-7.4-3.36c2.67-3.33-0.94-2.97-2.31-3.93
			c6.67-7.55,12.05-16.39,21.29-21.39c1.46-0.79,2.87-1.69,4.38-2.35c1.05-0.45,1.98,0.28,2.61,1.03c0.9,1.07-0.02,1.88-0.78,2.45
			C271.26,121.92,266.35,130.64,261.02,139.03z"/>
		<path class="st5" d="M134.03,372.96c-6.66,4.01-11.63,9.88-16.93,15.38c-1.26,1.3-2.59,2.53-3.89,3.8
			c-2.59-2.13-4.54-4.28-1.54-7.66c1.03-1.16-2.66-4.32,2.05-4.74c0.96-0.09-2.15-0.6-2.71-1.78c6.21-3.48,13.03-4.95,19.96-6.09
			C132.19,371.69,133.76,370.51,134.03,372.96z"/>
		<path class="st5" d="M90.85,391.88c6.01-2.35,11.37-5.75,16.13-10.11c1.95,7.22,1.44,8.94-3.2,10.69
			c-1.37-2.08,2.37-2.06,1.24-4.84C101.29,392.99,97.1,396.95,90.85,391.88z"/>
		<path class="st6" d="M275.82,336.82c0.38-0.3,0.72-0.69,1.16-0.87c2.88-1.25,5.78-2.47,9.55-4.06
			c-2.34,6.99-4.35,13.32-7.43,19.29c-1.35-2.29-1.61-4.76-0.22-7C281.37,340.13,279.57,338.13,275.82,336.82z"/>
		<path class="st3" d="M323.95,450.85c-0.51-2.04,4.21-3.66,0.52-6.1c-0.17-0.11,1.35-1.53,2.21-0.86c0.98,0.77,1.58,2.03,2.35,3.08
			C327.64,448.66,325.83,449.8,323.95,450.85z"/>
		<path class="st7" d="M180.22,341.91c-0.96,0.17-3.25,0.87-2.37-0.5c1.97-3.06-0.02-6.64,2.05-9.41
			C180.01,335.3,180.12,338.6,180.22,341.91z"/>
		<path class="st5" d="M104.21,398.36c-1.03,0.58-2.06,1.17-3.08,1.75c0.04-1.48-2.26-3.22-0.3-4.29
			C102.75,394.76,103.41,397.02,104.21,398.36z"/>
		<path class="st8" d="M219.9,309.95c-1.27,1.78-2.82,3.23-4.8,4.2C214.87,310.66,218.12,311.15,219.9,309.95z"/>
		<path class="st9" d="M235.87,156.64c-0.59,2.09-1.08,4.28-3.91,4.38C233.27,159.56,233.96,157.56,235.87,156.64z"/>
		<path class="st10" d="M475.94,270.03c-1.36-0.34-2.19-1.29-2.97-2.62c1.86-0.59,2.97,0.5,4.1,1.51
			C476.69,269.29,476.31,269.66,475.94,270.03z"/>
		<path class="st6" d="M270.97,338.97c1.45-1.17,3.02-2.08,4.94-2.2C274.81,338.74,272.96,339.02,270.97,338.97z"/>
		<path class="st7" d="M264.99,382.92c1.26,2.45-0.42,3.24-2.23,3.96C263.5,385.56,264.25,384.24,264.99,382.92z"/>
		<path class="st3" d="M320.97,452.72c-1.26-4.17,1.82-1.39,2.9-1.82C323.18,451.93,322.2,452.53,320.97,452.72z"/>
		<path class="st6" d="M265.82,340.9c1.04-0.37,2.08-0.74,3.11-1.11C268.84,342.78,267.17,341.4,265.82,340.9z"/>
		<path class="st11" d="M288.08,384.16c-0.21-1.8,0.03-3.39,1.96-4.19C290.17,381.73,289.19,382.98,288.08,384.16z"/>
		<path class="st5" d="M113.25,392.11c-0.74,1.27-1.56,2.45-3.19,2.64C110.27,392.85,111.31,391.94,113.25,392.11z"/>
		<path class="st12" d="M292.62,298.35c-0.44,14.68-10.54,25.07-25.66,26.5c-1.65,0.16-2.61-0.24-2.62-2
			c-0.04-13.14,3.17-26.72,17.21-32.44C289.19,287.3,292.88,289.98,292.62,298.35z"/>
		<path class="st13" d="M134.03,372.96c-0.61-1.51-2.16-0.36-3.05-1.09c0.05-0.28,0.13-0.55,0.27-0.8c1.27-0.08,2.53-0.16,3.8-0.25
			C136.6,372.44,135.28,372.68,134.03,372.96z"/>
		<path d="M463.67,255.29c2.82,1.2,5.85,2.85,4.84,5.15c-1.22,2.78-4.13,2.91-4.32-1.21C464.14,258.1,463.49,256.89,463.67,255.29z"
			/>
		<path d="M426.97,245.02c1.12-0.42,2.46-1.61,3.26,0.13c0.6,1.3-0.73,2.21-1.74,2.28C427.04,247.52,426.03,246.73,426.97,245.02
			L426.97,245.02z"/>
		<path d="M453.73,245.32c0.99,0.15,1.22,0.75,1.04,1.41c-0.07,0.26-0.71,0.59-1.01,0.52c-0.55-0.12-1.41-0.31-1-1.2
			C452.92,245.7,453.46,245.52,453.73,245.32z"/>
	</g>
</g>
</svg>
