<?xml version="1.0" encoding="utf-8"?>
<!DOCTYPE svg PUBLIC "-//W3C//DTD SVG 20010904//EN" "http://www.w3.org/TR/2001/REC-SVG-20010904/DTD/svg10.dtd">
<svg version="1.0" xmlns="http://www.w3.org/2000/svg" width="558px" height="558px" viewBox="0 0 558 558" preserveAspectRatio="xMidYMid meet">
 <g fill="#03a304">
  <path d="M314.2 518.8 c-1.3 -1.6 -3.2 -15 -3.2 -22.3 0 -3.5 0.5 -5.9 1.6 -6.9 3.4 -3.4 5.2 -1 5.3 6.9 0 3.4 0.5 9.4 1.1 13.4 0.8 5.4 0.7 7.7 -0.1 8.7 -1.4 1.7 -3.3 1.8 -4.7 0.2z"/>
  <path d="M285.4 517.6 c-1.7 -1.3 -1.9 -3.1 -2.2 -14.6 -0.4 -13.2 0.2 -16 3.4 -16 2.5 0 3.2 3.4 3.5 16.8 0.3 11.4 0.2 13.5 -1.2 14.2 -1.1 0.6 -2.3 0.5 -3.5 -0.4z"/>
  <path d="M337.6 517.7 c-1 -0.7 -1.7 -2.2 -1.4 -3.3 0.3 -1.6 1.3 -2 6.1 -2.2 7.6 -0.4 7.7 -2.6 0.5 -7.3 -5.6 -3.6 -7 -6.8 -4.9 -10.7 2.3 -4.3 15.4 -5 16.7 -0.9 0.8 2.6 -2.2 5 -5.3 4.2 -3.4 -0.8 -2.9 1.7 0.8 3.9 1.6 1 3.7 3.3 4.6 5.1 3.2 6.7 -2.2 12.5 -11.5 12.5 -2.1 0 -4.6 -0.6 -5.6 -1.3z"/>
  <path d="M256.5 517.4 c-7.4 -1.6 -10.8 -3 -12.5 -5.2 -4.2 -5.3 -1.2 -19 4.6 -21.2 4 -1.5 12.7 -1.2 15.2 0.6 1.6 1.1 2.2 2.5 2.2 5.5 0 5.2 -4.3 9.9 -8.9 9.9 -2 0 -3.1 0.5 -3.1 1.5 0 1.4 2.6 2.1 9.5 2.7 2 0.2 3.1 0.9 3.4 2.2 0.6 3.6 -3.9 5.3 -10.4 4z m2.5 -19 c0 -2.6 -0.2 -2.6 -4.2 -2 -4.9 0.8 -5.2 1 -4.5 3.1 0.4 1 2 1.5 4.7 1.5 3.7 0 4 -0.2 4 -2.6z"/>
  <path d="M206.8 514.2 c-6 -4.4 -7 -8.2 -4.2 -15.2 2 -5 6.1 -7.4 12.5 -7.3 5.9 0.1 9.1 1.8 8.7 4.6 -0.3 2 -0.9 2.2 -6.7 2.3 -6.9 0.1 -9.1 1.5 -9.1 6 0 3.1 6 5.8 11.7 5.1 4.2 -0.4 7.3 0.9 7.3 3.3 0 2.2 -4.7 4 -10.5 4 -4.9 -0.1 -6.7 -0.6 -9.7 -2.8z"/>
  <path d="M382.9 512.7 c-4.6 -3.1 -10 -12.4 -14.3 -24.6 -1.9 -5.6 -4.1 -10.8 -4.9 -11.5 -3.7 -3.7 -50.6 -4.5 -96.7 -1.5 -8.5 0.5 -27.9 1.2 -43 1.6 -18.1 0.4 -27.8 0.9 -28.5 1.7 -0.6 0.6 -3.3 4.5 -6 8.6 -2.8 4.1 -6.2 8.8 -7.6 10.5 -1.5 1.6 -4.6 5.5 -7.1 8.5 -5.1 6.3 -7.8 8 -13 8 -4.8 0 -9.6 -4.1 -10.7 -9.2 -1.1 -4.7 1.1 -9.6 7.3 -16.3 4.4 -4.8 13.1 -17.3 18.8 -27 4.5 -7.5 5.8 -7.8 38.8 -8.6 15.7 -0.4 37.3 -1.2 48 -1.8 10.7 -0.7 36.8 -1.5 58 -2 33.1 -0.6 39 -1 41.7 -2.4 6.5 -3.4 14.9 -0.9 17 4.9 0.5 1.6 1.8 5.2 2.8 7.9 5.9 16.9 10.8 29.4 13.5 34.1 3.5 6.2 3.8 10.6 1 15.1 -1.8 2.9 -7.4 6.3 -10.5 6.3 -0.7 0 -2.7 -1 -4.6 -2.3z"/>
  <path d="M416.5 507.6 c-4.6 -2 -8.5 -8.3 -13.6 -22.6 -1.7 -4.7 -4.9 -11.9 -7 -16 -5.8 -11.4 -7.1 -15.6 -5.9 -19.9 1.2 -4.4 1.8 -5.2 5.3 -7.4 2.7 -1.7 10.3 -16.3 15.7 -30.2 1.3 -3.3 3.4 -7.7 4.7 -9.7 1.3 -2.1 2.3 -4 2.3 -4.3 0 -0.3 1.5 -2.6 3.4 -5.2 5.1 -7.3 21.3 -40.3 26.2 -53.7 5.4 -14.6 14.4 -33.5 17 -35.8 1.1 -0.9 6.7 -2.6 12.9 -3.8 6.1 -1.1 13.2 -2.5 15.8 -3 8.4 -1.7 18.8 -1.2 22.1 0.9 10.5 7 5 22.1 -8 22.1 -2.7 0 -9.9 0.8 -16.1 1.7 l-11.2 1.7 -3.4 7.5 c-1.9 4.2 -4.7 11.2 -6.1 15.6 -2.1 6.4 -12.6 29.4 -16.7 36.5 -0.5 0.8 -1.8 3.5 -2.9 6 -1.1 2.4 -5.3 9.8 -9.2 16.3 -6.4 10.7 -9.5 17.1 -13 26 -1.5 4 -9.3 19.7 -11.5 23 -1.8 2.7 -1.8 2.8 2.3 11 2.3 4.5 5.2 10.9 6.4 14.2 1.3 3.3 3.5 8.6 5.1 11.8 2.4 5.2 2.6 6.2 1.6 9.1 -1.7 4.4 -3.7 6.9 -7 8.4 -3.5 1.5 -5.4 1.5 -9.2 -0.2z"/>
  <path d="M132.4 494.3 c-3.4 -1.7 -6.4 -6.8 -6.4 -10.9 0 -1.4 2.9 -6.9 6.9 -12.9 3.8 -5.7 7.5 -12 8.2 -14 0.7 -1.9 1.6 -3.5 2 -3.5 2.1 0 1.4 -3.9 -2.2 -12.1 -2.1 -5.1 -3.9 -9.7 -3.9 -10.1 0 -0.5 -2.9 -7.3 -6.4 -15.1 -8.8 -19.6 -11.1 -26.9 -19.2 -61.7 -3 -12.4 -10.3 -35 -11.4 -35 -0.7 0 -4.9 1.8 -19 8.2 -15 6.9 -22 7.8 -27.3 3.5 -3.9 -3.1 -5.4 -10.6 -2.9 -14.5 2.3 -3.7 4.1 -5 8.6 -6.3 2.1 -0.6 4.6 -1.4 5.5 -1.8 0.9 -0.4 3.9 -1.8 6.6 -3 2.8 -1.3 6.8 -3.1 9 -4.1 17 -7.8 18.9 -8.4 26.4 -8.4 l7.3 -0.1 3.8 4.2 c2.7 3 3.9 5.5 4.3 8.7 0.4 2.4 3.1 12.4 6.1 22.2 3 9.9 6 19.9 6.5 22.4 6.3 28.1 9.6 38.8 17.3 56 3.3 7.4 7.3 16.8 8.9 21 1.5 4.1 3.9 10.2 5.3 13.5 3.8 9 3.5 12.4 -2.5 24 -6.9 13.4 -15.8 26.5 -19.9 29.2 -3.8 2.6 -7.2 2.8 -11.6 0.6z"/>
  <path d="M428.2 459.8 c-1.4 -1.4 -1.6 -4.4 -0.3 -5.3 0.8 -0.5 20.1 -39 20.1 -40.1 0 -0.2 1.5 -3.7 3.4 -7.7 4.4 -9.5 5.9 -12.9 9.1 -20.7 3.3 -8 16.6 -33.5 21.3 -41 2 -3 4.3 -7.5 5.3 -10 0.9 -2.4 2.3 -4.9 3.2 -5.4 2.2 -1.4 4.7 0 4.7 2.6 0 2.5 -4.3 12.3 -6.4 14.8 -0.7 0.8 -2.9 4.4 -4.8 8 -1.9 3.6 -5.5 10.3 -8.1 15 -2.5 4.7 -6.4 13 -8.7 18.5 -6.6 16 -16.9 38.1 -29.2 63 -2.8 5.5 -6 9.5 -7.7 9.5 -0.4 0 -1.2 -0.5 -1.9 -1.2z"/>
  <path d="M123.8 447.2 c-1.5 -3.1 -3.9 -8.8 -5.3 -12.7 -1.5 -3.8 -3.9 -9.5 -5.4 -12.5 -1.5 -3 -3.4 -7.3 -4.1 -9.5 -0.7 -2.2 -1.6 -4.4 -2 -5 -0.3 -0.5 -2.2 -6.2 -4 -12.5 -1.8 -6.3 -4.8 -16.2 -6.7 -22 -1.9 -5.8 -3.9 -13 -4.4 -16 -0.6 -3 -2.1 -9.7 -3.6 -14.7 -1.4 -5.1 -2.3 -10 -1.9 -10.8 0.3 -0.8 1.6 -1.5 3 -1.5 2 0 2.7 0.8 3.9 4.8 2.3 7 4.4 15.2 5.2 19.7 0.3 2.2 2.2 9.2 4.1 15.5 8.5 28 13 41.1 17 49.7 2.4 5.1 4.4 9.6 4.4 10 0 0.5 2.1 5.2 4.7 10.5 3.8 8.1 4.4 10 3.3 11.3 -2.6 3.1 -5.3 1.7 -8.2 -4.3z"/>
  <path d="M251.3 440 c-3.4 -0.5 -7.2 -1.4 -8.5 -2.1 -3 -1.5 -8.8 -7 -8.8 -8.3 0 -0.6 -1.5 -4.4 -3.4 -8.6 -1.9 -4.1 -4.2 -10.4 -5.1 -14 -2.1 -8 -3.6 -12.4 -7 -21.5 -3 -7.7 -6 -16.4 -10.4 -30 -1.6 -4.9 -5.6 -16.9 -8.9 -26.5 -9.9 -29 -10.5 -31.3 -9.9 -39.4 0.6 -7.5 5.3 -21.7 16.2 -48.1 2.9 -7.1 5.6 -14.6 6 -16.5 0.4 -1.9 2.9 -9.1 5.7 -15.9 2.7 -6.9 6.5 -16.9 8.4 -22.3 1.9 -5.4 5 -13.1 6.8 -17.1 1.9 -4 4.6 -11 6.1 -15.6 5.3 -16.3 12.9 -31.7 16.5 -33.6 1.8 -0.9 8.1 -1.4 20.6 -1.7 15.4 -0.3 18.3 -0.1 19.6 1.3 2.9 2.9 2.4 9 -1 10.8 -0.9 0.5 -8.6 1.2 -17 1.6 l-15.2 0.8 -2.9 5.7 c-1.6 3.1 -5 11.7 -7.7 19.1 -2.6 7.4 -5.8 15.7 -7 18.4 -3.6 7.7 -16 40.6 -20.4 54 -2.2 6.7 -5.5 15.4 -7.4 19.5 -4.3 9.6 -9.6 25.2 -9.6 28.6 l0 2.6 19.5 -0.4 c21.7 -0.3 21.5 -0.4 21.5 6.2 0 1.9 -0.4 4.1 -0.9 4.8 -1 1.7 -15.3 3.2 -31 3.2 l-12.3 0 0.5 3.8 c0.6 4.8 7.5 26.9 12.7 40.9 2.3 5.9 5.5 15.5 7.1 21.3 1.7 5.7 3.9 12 4.9 14 2.1 4.2 7.2 19 9.6 28 0.9 3.6 2 7 2.4 7.5 0.4 0.6 1 2.2 1.4 3.8 0.3 1.5 1.1 2.7 1.6 2.7 0.6 0 1 1 1 2.3 0 5.8 3.3 6.9 23 7.4 13.8 0.4 14.6 0.6 16.2 2.7 1.4 1.9 1.5 3 0.7 5.9 -0.5 1.9 -1.7 3.8 -2.7 4.2 -2.8 1.1 -24.2 1.5 -30.9 0.5z"/>
  <path d="M203 437 c-8 -0.4 -16 -1 -17.7 -1.5 -3.6 -0.8 -6.7 -4.4 -10.6 -12.1 -4.6 -9.2 -15.7 -40.7 -18.3 -52.3 -1.4 -6.3 -4.1 -16.6 -6.1 -23 -3.4 -11.2 -6.9 -24 -13.4 -50 -2.8 -11.4 -3 -12.8 -2 -19 1.1 -6.5 6 -20.7 14.6 -42.6 2.4 -6 4.8 -12.6 5.3 -14.5 1.5 -5.2 6.5 -18.3 11 -28.5 2.1 -4.9 4.4 -11.2 5.1 -14 1.3 -5.5 13 -35.3 16.6 -42.5 3.5 -6.9 9.9 -12.2 17 -14.2 8.6 -2.4 27.5 -4.7 30.3 -3.7 5.1 1.9 4.7 10.8 -0.6 12.7 -1.5 0.5 -7.2 1.5 -12.7 2.2 -19.4 2.2 -19.3 2.2 -27.1 21.5 -3 7.7 -6.4 16 -7.4 18.5 -1 2.5 -2.5 7.2 -3.4 10.5 -1 3.3 -3.9 11.2 -6.6 17.5 -2.7 6.3 -5.7 13.8 -6.6 16.5 -1.5 4.7 -9.2 25.7 -17 46 -6.2 16.5 -6.3 18 -2 35.1 2.1 8.2 4.6 18.7 5.7 23.2 1.1 4.6 2.8 10.9 4 14 2.9 8.3 6.8 22.2 9.5 34.2 2.9 12.5 14.6 44.5 17.9 48.5 2.2 2.9 2.3 2.9 17.9 3.7 8.6 0.4 16.5 1.2 17.6 1.8 3.1 1.7 4.1 4.4 2.9 7.9 -1.2 3.5 -3.6 5.2 -7.1 4.9 -1.3 -0.1 -8.8 -0.5 -16.8 -0.8z"/>
  <path d="M325.5 434.9 c-14.8 -1.3 -16.8 -1.8 -18.8 -4.5 -1 -1.3 -3.3 -7.7 -5.2 -14.2 -1.9 -6.4 -4.9 -16.5 -6.8 -22.4 -2 -5.8 -4 -13.2 -4.7 -16.5 -4.7 -23 -19.1 -71.1 -25.4 -84.3 -3.7 -7.8 -3.4 -13 1.9 -33.2 5.9 -22.3 6.6 -24.3 11.7 -35.8 2.7 -6.1 8.4 -21.7 11.8 -32.3 1.2 -3.8 4.8 -12.6 7.9 -19.5 3.2 -7 6.8 -16.1 8 -20.2 8.1 -27.8 11.2 -34 16.4 -32.6 5.4 1.3 7.4 6.9 4.4 12.6 -1.5 2.8 -3.1 7.6 -7.7 23 -1.8 5.8 -6.1 16.9 -9.6 24.8 -3.5 7.9 -7.1 17.1 -8 20.5 -1.5 5.9 -8.5 24.6 -12.4 33.1 -3.9 8.8 -13 41.8 -13 47.5 0 2.1 1.1 6.3 2.4 9.2 2 4.7 9.6 27.5 16.6 50.4 2.2 7 4.7 17.6 7.6 31.5 0.8 4.1 3.7 14.3 6.4 22.5 2.7 8.3 5.4 17.1 6.1 19.7 0.6 2.6 1.6 5.2 2.3 5.7 0.6 0.5 5.5 1.1 10.9 1.3 9.4 0.3 10 0.4 12.3 3.1 2.8 3.3 3 5.7 0.7 8.5 -2.4 2.8 -5 3.1 -15.8 2.1z"/>
  <path d="M363.5 431.3 c-3.6 -0.5 -8 -4.5 -10.5 -9.3 -2 -4 -7.6 -23.9 -11.4 -41 -1.4 -6.3 -3.9 -15.2 -5.6 -19.8 -1.6 -4.5 -5.3 -17.4 -8.1 -28.5 -4.5 -18 -8 -28.2 -14 -41.3 -3 -6.4 -2.5 -14.4 1.6 -27.1 7.6 -23.1 8.5 -26.2 11.6 -38.8 1.7 -7.1 5.7 -20.9 8.9 -30.5 3.3 -9.6 7.1 -22.4 8.5 -28.5 2.7 -11.2 5 -19.4 6.5 -23 0.4 -1.1 1.6 -4.2 2.5 -7 5.3 -15.2 8.2 -18.7 13.7 -16.4 4 1.6 5.2 4.9 3.4 9.7 -6.5 17.3 -9.9 27.6 -11.7 35.5 -1.1 5.1 -5.4 19.6 -9.4 32.2 -4 12.7 -8.3 27.3 -9.5 32.5 -1.2 5.2 -4.8 17.8 -8 28 -3.2 10.2 -6.1 19.7 -6.4 21.3 -0.5 2 0.8 6.3 4.7 16 3 7.2 6.2 16.1 7.1 19.7 0.9 3.6 3 11.7 4.7 18 1.7 6.3 3.5 13.3 3.9 15.5 0.5 2.2 2 6.8 3.3 10.2 1.4 3.4 3.7 11.2 5.1 17.5 6.6 28.7 10.2 40.5 12.4 41.2 0.9 0.3 6 0.6 11.2 0.7 5.2 0.2 10.7 0.9 12.1 1.6 3.6 1.7 4.6 5.9 2.1 9.2 -1.9 2.5 -2.3 2.6 -13.8 2.7 -6.5 0.1 -13.2 -0.1 -14.9 -0.3z"/>
  <path d="M380.9 407.4 c-4 -1.7 -4.7 -2.7 -8.4 -12.9 -3.1 -8.3 -3.5 -9.5 -7.9 -25 -1.9 -6.6 -5.3 -17.4 -7.5 -24 -2.2 -6.6 -4.7 -14.7 -5.6 -18 -0.9 -3.3 -3.2 -10.3 -5.2 -15.5 -11.4 -30.4 -12 -33.6 -7.2 -37.2 2.4 -1.9 2.8 -1.9 5.6 -0.4 2.8 1.4 6.3 7.5 6.3 10.7 0 0.6 2.4 7.3 5.4 14.8 2.9 7.5 6.6 18.1 8.1 23.6 1.5 5.5 5.1 17.2 8 26 3 8.8 6.3 19.5 7.4 23.8 1.1 4.3 2.3 8.2 2.6 8.7 1.1 1.8 3.1 1 4.6 -1.7 0.7 -1.6 3.1 -5.4 5.2 -8.5 2.1 -3.2 4.7 -7.9 5.7 -10.4 1.1 -2.5 2.9 -5.7 4 -7.1 2.4 -3.1 2.5 -5.4 0.5 -9.6 -0.8 -1.8 -2.8 -7.2 -4.6 -12.2 -1.7 -4.9 -5.1 -13.6 -7.5 -19.3 -2.5 -5.7 -5.8 -14.2 -7.4 -19 -3.1 -9.6 -4.5 -13 -9.5 -24.2 -1.9 -4.1 -5.3 -12.9 -7.6 -19.5 -2.3 -6.6 -5.9 -15.3 -8.1 -19.4 -2.9 -5.7 -3.8 -8.5 -3.8 -12.5 0 -8.4 19.8 -77.5 23.4 -81.8 2.3 -2.7 7.4 -2.1 9.7 1.2 1.1 1.4 3.5 9.5 5.4 18 3.7 16.4 5.9 24.6 8 29.5 2.6 6.2 8.5 23.4 11.6 33.5 1.7 5.8 3.7 11.6 4.4 13 1.5 3 7.8 19.8 9.5 25.5 0.7 2.2 3.7 9.4 6.7 16 8.1 17.7 8.3 18.2 8.3 22.4 0 4.6 -2.4 7.1 -6.8 7.1 -3.1 0 -6.2 -2.9 -6.2 -5.7 0 -0.6 -2.5 -6.7 -5.6 -13.5 -3.1 -6.8 -6.9 -16 -8.5 -20.4 -1.6 -4.5 -5 -13.7 -7.7 -20.5 -2.7 -6.8 -6.1 -16.4 -7.6 -21.4 -2.8 -9.4 -7.9 -23.9 -10.2 -29 -0.7 -1.6 -2.4 -6.8 -3.7 -11.5 -1.4 -4.6 -2.9 -8.6 -3.5 -8.8 -0.6 -0.2 -2.3 3.6 -3.7 8.5 -1.4 4.8 -4 13.3 -5.6 18.8 -4.9 16.2 -4.9 18.9 -0.1 29.3 2.2 4.8 5.6 13.2 7.5 18.7 1.9 5.5 4.5 12.3 5.7 15 4.1 9.2 7.2 16.9 10.5 26.5 1.8 5.2 5.3 14.3 7.8 20.1 2.5 5.9 5.9 14.5 7.6 19.2 1.6 4.7 4.1 10.8 5.5 13.6 3.4 6.7 3.3 10.8 -0.3 15.9 -1.7 2.2 -4.3 6.6 -5.9 9.9 -1.7 3.2 -5.8 10.3 -9.1 15.8 -3.4 5.4 -6.1 10.3 -6.1 10.8 0 2.1 -4.4 10.2 -6.7 12.3 -3 2.8 -2.7 2.7 -7.4 0.8z"/>
  <path d="M52.8 298.7 c-5.8 -4.9 -6.5 -11.7 -1.7 -17.2 3.5 -4 6.4 -5.4 22.9 -11.4 6.3 -2.3 12.9 -4.8 14.5 -5.5 1.7 -0.8 4.4 -1.9 6.1 -2.6 3.6 -1.3 6.4 -6.3 12.4 -22.4 2.1 -5.6 4.9 -12.6 6.3 -15.6 1.3 -3 3.8 -9.5 5.5 -14.5 1.7 -4.9 4.5 -12.6 6.2 -17 1.7 -4.4 4.6 -13.2 6.5 -19.6 3.1 -10.4 7.2 -21 12.5 -32.4 1 -2.2 3.5 -7.9 5.5 -12.6 l3.6 -8.6 -1.6 -5.9 c-0.9 -3.3 -3.9 -11.6 -6.6 -18.5 -5 -12.9 -8.9 -27.1 -8.9 -32.4 0 -1.7 1.2 -5 2.7 -7.3 2.2 -3.4 3.4 -4.2 6.8 -4.7 8.5 -1.3 12.8 2.7 15 14.1 1.5 8 4.5 17.6 7 22.5 0.8 1.4 3.1 7.8 5.2 14 2.8 8.5 3.8 13 3.8 17.9 0 6.5 -1.3 10.2 -10.5 30.5 -6.5 14.3 -8.4 19 -11.6 29.9 -3.5 11.7 -7.6 24 -9.5 28.1 -0.8 1.8 -3.4 8.6 -14.9 39 -2.3 6.1 -5.5 13.8 -7.1 17.3 -1.6 3.4 -2.9 6.9 -2.9 7.7 0 2.6 -5.9 8.2 -11.3 10.7 -2.8 1.4 -12.6 5.3 -21.7 8.6 -9.1 3.3 -18.3 7 -20.5 8.1 -5.2 2.8 -10.3 2.7 -13.7 -0.2z"/>
  <path d="M465.3 287.5 c-2 -0.9 -4 -2.9 -5.3 -5.6 -1.2 -2.3 -3 -5.1 -4.1 -6.2 -1 -1.1 -2.6 -4.1 -3.5 -6.6 -0.9 -2.5 -2.8 -7.3 -4.1 -10.6 -1.4 -3.3 -4 -10.5 -5.7 -16 -1.8 -5.5 -5.6 -14.7 -8.3 -20.5 -6.1 -12.7 -5.5 -11.1 -10.8 -29.5 -2.4 -8.2 -7.5 -24.4 -11.5 -36 -8.1 -24 -10.4 -32.6 -10.4 -40.7 -0.1 -5.2 0.2 -6 3.5 -9.5 5 -5.1 13.6 -18.8 18.9 -29.8 7.4 -15.3 8.3 -16.9 10.7 -19.2 6.9 -6.6 19.3 -1.5 19.3 8 0 4.9 -11.4 29 -19.6 41.2 -3 4.5 -5.4 8.7 -5.4 9.3 0 0.7 -0.4 1.2 -1 1.2 -2.2 0 -0.9 10.1 2.4 19.2 4.7 12.8 11.7 34.8 16.1 50.2 2 7.1 6.2 18.6 9.5 25.6 3.2 7 7.2 16.9 8.8 22.1 1.7 5.2 4.4 12.7 6.1 16.8 1.7 4.1 3.1 7.9 3.1 8.5 0.1 3.3 1.6 3.7 7.6 2.1 27.9 -7.5 27.4 -7.4 31.9 -5.8 5.3 1.8 8.2 7 7 12.9 -1.1 6 -5.5 9.1 -17 11.8 -7.5 1.9 -14.4 3.8 -23.9 6.8 -7 2.1 -10 2.2 -14.3 0.3z"/>
  <path d="M83.1 256.6 c-1.2 -1.4 0.6 -8 3.3 -12.1 0.8 -1.2 3.3 -7.5 5.6 -14.1 2.3 -6.5 5 -13.5 6 -15.4 1 -2 3.3 -8.1 5 -13.5 1.8 -5.5 4.1 -12 5.1 -14.5 1 -2.5 3.9 -10.3 6.4 -17.5 4.9 -13.5 7.3 -19.8 10.8 -27.5 1.1 -2.5 3.1 -7.6 4.4 -11.5 1.4 -3.8 3.1 -7.7 3.8 -8.5 0.8 -0.9 2.3 -3.7 3.5 -6.2 2.1 -4.9 5.6 -7.1 7.1 -4.7 0.5 0.8 0.9 1.9 0.9 2.5 0 1.7 -3 8.7 -4.5 10.4 -0.7 0.8 -2.3 4 -3.5 7 -1.2 3 -4.1 10.2 -6.6 16 -4.3 10.3 -8.4 21.4 -18.9 51.5 -2.9 8.3 -6.4 17.5 -7.7 20.5 -1.4 3 -3.7 9.3 -5.3 14 -2.9 8.7 -8.4 20.9 -10.5 23.5 -1.6 1.9 -3.4 1.9 -4.9 0.1z"/>
  <path d="M480.7 246.3 c-4 -6.4 -6.4 -11.3 -11.6 -24.3 -11.6 -29 -14.5 -37.1 -17.2 -47.5 -4.2 -16.2 -10.3 -36.1 -13.2 -43.2 -3.4 -8.4 -4.2 -13.6 -2.3 -15.2 2.5 -2.1 5.3 -0.4 5.9 3.5 0.6 3.4 4.8 15.2 6.7 18.6 0.6 1 1 2.7 1 3.8 0 1.1 1.6 6.9 3.5 12.8 1.9 5.9 4.4 14.8 5.5 19.7 1.2 5 3.9 13.2 6.1 18.2 2.1 5.1 3.9 9.5 3.9 9.8 0 0.7 6 15.8 9.3 23.5 1.3 3 4.1 9 6.2 13.2 3.3 6.5 3.7 7.9 2.6 9.2 -2.1 2.5 -3.9 1.9 -6.4 -2.1z"/>
  <path d="M196.2 111.7 c-4.4 -1.4 -7 -5 -13.6 -18.7 -6.3 -13.4 -11.6 -33.3 -11.6 -44 0 -8.2 9.3 -13.3 17.2 -9.6 4.5 2.1 5.2 3.8 7.8 16.8 2.4 12.3 5 20.8 8.3 27 l2.3 4.3 8.9 -0.3 c44.8 -1.3 92.9 -2.2 122 -2.3 33.8 -0.2 38.2 -0.6 41 -3.4 1.9 -1.9 12.6 -18.8 15.3 -24.2 2.8 -5.5 6.9 -8.3 12.1 -8.3 3.4 0 4.7 0.6 7.1 3.2 3.2 3.6 4.5 8.1 3.6 12.5 -0.9 4 -16.5 28.7 -22.8 35.9 -2.9 3.4 -6.2 6.5 -7.3 6.8 -2.5 0.8 -26.8 1.4 -86 2.1 -55.4 0.6 -80.2 1.3 -87.4 2.6 -6.8 1.1 -12.6 1 -16.9 -0.4z"/>
  <path d="M239 76.3 c-3.2 -0.6 -6 -3.1 -6 -5.4 0 -1 2.3 -3.7 5 -6 3.8 -3.2 5 -4.9 5 -7.1 0 -2.2 -0.5 -2.8 -2.2 -2.8 -1.2 0 -2.9 0.7 -3.8 1.5 -2 1.8 -4.7 1.1 -5.3 -1.3 -1.1 -5 4.9 -8.9 11.8 -7.6 6.1 1.1 7.5 6 4.9 18.2 -0.5 2.7 -0.4 3.1 1 2.6 2 -0.8 4.6 1.2 4.6 3.6 0 2.8 -9.1 5.4 -15 4.3z"/>
  <path d="M348.5 74.3 c-0.4 -1 -1 -7.4 -1.2 -14.4 -0.5 -10.9 -0.3 -12.7 1.1 -14.2 1.3 -1.3 2.2 -1.5 3.7 -0.7 1.7 1 1.9 2.3 2.1 13 0.1 6.6 0.2 13.2 0.2 14.8 0.1 2.2 -0.4 2.8 -2.5 3 -1.8 0.2 -2.9 -0.3 -3.4 -1.5z"/>
  <path d="M310.2 72.4 c-3.1 -2.2 -2.7 -4.8 1.4 -9.4 3.8 -4.2 3.8 -6 -0.1 -6 -5 0 -4.4 -5.6 0.8 -8.5 9 -4.8 15.1 5.5 8.7 14.5 -2.7 3.8 -2.6 4.1 1.8 3.4 4.2 -0.7 6.6 1.1 6 4.3 -0.6 3.2 -14.6 4.5 -18.6 1.7z"/>
  <path d="M273.1 71.6 c-5.1 -2.8 -6.4 -9.2 -3.2 -16.2 3.3 -7.4 8 -9 15.7 -5.5 4.7 2.2 7.4 5.4 7.4 9.1 -0.1 4.3 -3.6 10.8 -6.9 12.4 -3.6 1.9 -9.7 2 -13 0.2z m10.8 -7 c0.7 -0.8 1.1 -3 0.9 -4.8 -0.2 -2.6 -0.9 -3.5 -3.2 -4.3 -2.4 -0.8 -3.1 -0.6 -4.7 1.4 -2.1 2.6 -2.5 7.7 -0.6 8.4 2.5 1.1 6.5 0.7 7.6 -0.7z"/>
 </g>
</svg>