<?xml version="1.0" encoding="utf-8"?>
<!-- Generator: Adobe Illustrator 25.1.0, SVG Export Plug-In . SVG Version: 6.00 Build 0)  -->
<svg version="1.1" id="레이어_1" xmlns="http://www.w3.org/2000/svg" xmlns:xlink="http://www.w3.org/1999/xlink" x="0px"
	 y="0px" viewBox="0 0 1382.6 1507.47" style="enable-background:new 0 0 1382.6 1507.47;" xml:space="preserve">
<g>
	<g>
		<path d="M223.49,1146.85c0-116.42,0-232.85,0-349.27c0-9.49,0-9.49,9.38-9.49c39.09,0,78.17,0,117.26,0c7.96,0,8.16,0.19,8.16,8.2
			c0,233.85,0,467.71,0,701.56c0,8.04-0.19,8.23-8.13,8.23c-39.42,0.01-78.84,0-118.27,0c-0.34,0-0.67,0-1.01,0
			c-6.97-0.04-7.39-0.42-7.39-7.45c-0.01-54.19-0.01-108.37-0.01-162.56C223.49,1273.01,223.49,1209.93,223.49,1146.85z"/>
		<path d="M1023.24,666.41c-116.43,0-232.86,0-349.29,0c-9.69,0-9.69,0-9.69-9.68c0-38.42,0-76.84,0-115.26c0-9.85,0-9.86,9.66-9.87
			c35.23,0,70.46,0,105.69,0c197.13,0,394.25,0,591.38,0.01c2.35,0,4.7,0,7.04,0.15c2.52,0.16,4.04,1.47,4.1,4.14
			c0.03,1.34,0.06,2.68,0.06,4.03c0,39.43,0.01,78.85,0,118.28c0,8.03-0.17,8.2-8.15,8.2
			C1257.1,666.41,1140.17,666.41,1023.24,666.41z"/>
		<path d="M223.49,360.71c0-116.09,0-232.19,0-348.28c0-9.39,0-9.39,9.47-9.39c38.75,0,77.5,0,116.26,0c8.7,0,9.07,0.37,9.07,9.06
			c0,232.52,0,465.04,0,697.56c0,8.88-0.2,9.07-8.93,9.07c-39.26,0-78.51,0-117.77,0c-7.94,0-8.1-0.17-8.1-8.24
			C223.49,593.9,223.49,477.31,223.49,360.71z"/>
		<path d="M1023.27,181.42c-116.42,0-232.84,0-349.25,0c-1.51,0-3.02,0.04-4.53-0.02c-4.47-0.16-5.06-0.79-5.22-5.42
			c-0.03-0.84-0.01-1.68-0.01-2.52c0-39.25,0-78.51,0-117.76c0-8.35,0.08-8.44,8.41-8.44c233.67,0,467.35,0,701.02,0
			c8.42,0,8.5,0.08,8.5,8.34c0.01,39.25,0,78.51,0,117.76c0,1.17,0.04,2.35-0.04,3.52c-0.25,3.6-0.94,4.29-4.6,4.5
			c-1.67,0.09-3.35,0.03-5.03,0.03C1256.1,181.42,1139.68,181.42,1023.27,181.42z"/>
		<path d="M1023.35,294.96c116.43,0,232.86,0,349.28,0c9.55,0,9.55,0,9.55,9.32c0,38.08,0,76.17,0,114.25
			c0,8.11-0.17,8.29-8.05,8.29c-233.86,0-467.72,0-701.59,0c-8.12,0-8.29-0.17-8.29-8.06c-0.01-38.59-0.01-77.17,0-115.76
			c0-7.87,0.18-8.05,8.31-8.05C789.49,294.96,906.42,294.96,1023.35,294.96z"/>
		<path d="M134.98,1147.02c0,116.74,0,233.48,0,350.22c0,8.85,0,8.85-8.86,8.85c-38.24,0-76.48,0-114.72,0
			c-7.83,0-8.29-0.43-8.29-8.2c-0.02-29.35-0.01-58.71-0.01-88.06c0-203.62,0-407.25,0.01-610.87c0-2.35,0.03-4.7,0.21-7.03
			c0.18-2.33,1.52-3.66,3.92-3.75c1.34-0.05,2.68-0.07,4.02-0.08c38.74,0,77.49-0.01,116.23,0c7.39,0,7.49,0.11,7.49,7.7
			C134.98,912.87,134.98,1029.94,134.98,1147.02z"/>
		<path d="M1023.24,1206.03c-116.43,0-232.86,0-349.28,0c-9.7,0-9.7,0-9.7-9.66c0-37.92,0-75.83,0-113.75
			c0-8.33,0.12-8.46,8.41-8.46c233.7,0,467.39,0,701.09,0c8.33,0,8.44,0.11,8.44,8.42c0,38.42,0.01,76.84,0,115.26
			c0,8.03-0.16,8.19-8.15,8.19C1257.1,1206.03,1140.17,1206.03,1023.24,1206.03z"/>
		<path d="M134.98,361.16c0,116.1,0,232.19,0,348.29c0,9.29,0,9.29-9.07,9.29c-37.91,0-75.83,0-113.74,0
			c-8.69,0-9.07-0.37-9.07-9.07c0-232.53,0-465.06,0-697.58c0-8.67,0.38-9.04,9.1-9.04c37.75-0.01,75.49,0,113.24,0
			c9.54,0,9.54,0,9.54,9.33C134.98,128.63,134.98,244.9,134.98,361.16z"/>
		<path d="M578.04,1147.6c0,116.43,0,232.85,0,349.28c0,9.2,0,9.2-9.02,9.2c-37.91,0-75.83,0-113.74,0c-8.48,0-8.49-0.01-8.49-8.22
			c0-233.86,0-467.72,0-701.58c0-8.18,0.01-8.2,8-8.2c38.42,0,76.83,0,115.25,0c7.98,0,7.99,0.01,7.99,8.22
			C578.05,913.41,578.04,1030.5,578.04,1147.6z"/>
		<path d="M1023.26,974.59c-116.42,0-232.83,0-349.25,0c-1.68,0-3.36,0.06-5.03-0.03c-3.86-0.21-4.5-0.9-4.7-4.91
			c-0.05-1-0.02-2.01-0.02-3.02c0-38.42,0-76.83,0-115.25c0-8.03,0.01-8.04,8.16-8.04c233.84,0,467.68,0,701.52,0
			c8.24,0,8.24,0.01,8.24,8.47c0,38.25,0,76.5,0,114.74c0,8.03-0.01,8.04-8.16,8.04C1257.1,974.59,1140.18,974.59,1023.26,974.59z"
			/>
		<path d="M1023.19,1319.59c116.59,0,233.17,0,349.76,0c1.17,0,2.35-0.02,3.52,0.01c5.08,0.12,5.69,0.68,5.7,5.95
			c0.03,39.76,0.03,79.52,0,119.27c0,5.42-0.62,5.93-6.15,6.02c-1.17,0.02-2.35,0-3.52,0c-232.84,0-465.67,0-698.51,0
			c-0.84,0-1.68,0-2.52,0c-7.04-0.03-7.22-0.2-7.22-7.47c-0.01-38.75-0.01-77.5,0-116.25c0-7.44,0.09-7.52,7.67-7.52
			C789.01,1319.59,906.1,1319.59,1023.19,1319.59z"/>
		<path d="M578.04,360.85c0,116.25,0,232.5,0,348.74c0,9.14,0,9.15-9.23,9.15c-37.91,0-75.82,0-113.73,0c-8.1,0-8.29-0.18-8.29-8.06
			c0-233.17,0-466.33,0-699.5c0-7.96,0.18-8.14,8.21-8.14c38.24-0.01,76.49-0.01,114.73,0c8.19,0,8.3,0.13,8.3,8.56
			C578.05,128.02,578.04,244.44,578.04,360.85z"/>
	</g>
</g>
</svg>
